%TF.GenerationSoftware,KiCad,Pcbnew,10.0.1*%
%TF.CreationDate,2026-04-17T14:45:45-07:00*%
%TF.ProjectId,portal-gun,706f7274-616c-42d6-9775-6e2e6b696361,rev?*%
%TF.SameCoordinates,Original*%
%TF.FileFunction,Legend,Top*%
%TF.FilePolarity,Positive*%
%FSLAX46Y46*%
G04 Gerber Fmt 4.6, Leading zero omitted, Abs format (unit mm)*
G04 Created by KiCad (PCBNEW 10.0.1) date 2026-04-17 14:45:45*
%MOMM*%
%LPD*%
G01*
G04 APERTURE LIST*
%ADD10C,0.000000*%
%ADD11C,0.132291*%
%ADD12C,0.529166*%
%ADD13C,0.650000*%
%ADD14C,0.100000*%
%ADD15C,1.270000*%
%ADD16C,2.100000*%
%ADD17R,1.700000X1.700000*%
%ADD18C,1.700000*%
G04 APERTURE END LIST*
D10*
G36*
X189644881Y-92093189D02*
G01*
X188721313Y-92088081D01*
X188721313Y-71364176D01*
X189528350Y-71364176D01*
X189644881Y-92093189D01*
G37*
G36*
X166506286Y-83513282D02*
G01*
X165706634Y-83919818D01*
X165706634Y-72711753D01*
X166309562Y-72711753D01*
X166506286Y-72507789D01*
X166506286Y-83513282D01*
G37*
G36*
X170279990Y-68695484D02*
G01*
X170279990Y-82176128D01*
X169532371Y-82364196D01*
X169532371Y-69222318D01*
X170014014Y-68687187D01*
X170279990Y-68695484D01*
G37*
G36*
X178506820Y-69205726D02*
G01*
X178506820Y-83351497D01*
X177791808Y-83003036D01*
X177791808Y-68691335D01*
X178032714Y-68691335D01*
X178506820Y-69205726D01*
G37*
G36*
X185232421Y-88636856D02*
G01*
X184484794Y-87815090D01*
X184484794Y-71762666D01*
X184894996Y-71591728D01*
X185232421Y-71589176D01*
X185232421Y-88636856D01*
G37*
G36*
X181865768Y-72735946D02*
G01*
X181990211Y-72769132D01*
X182366538Y-72623399D01*
X182366538Y-85865379D01*
X181529914Y-85197498D01*
X181529914Y-72391636D01*
X181865768Y-72735946D01*
G37*
G36*
X165706634Y-83919818D02*
G01*
X164896816Y-84443053D01*
X163999069Y-85068098D01*
X162874562Y-85909649D01*
X162251134Y-86405574D01*
X161599647Y-86948376D01*
X160929646Y-87535639D01*
X160250673Y-88164945D01*
X159572273Y-88833879D01*
X158903990Y-89540024D01*
X158255367Y-90280963D01*
X157635947Y-91054279D01*
X141848479Y-91067760D01*
X141809589Y-91124919D01*
X141781977Y-91165090D01*
X141772255Y-91178952D01*
X141767589Y-91185188D01*
X141762923Y-91192051D01*
X141753200Y-91207562D01*
X141725589Y-91252739D01*
X141686698Y-91317176D01*
X141646247Y-93063102D01*
X137048873Y-93110290D01*
X146186706Y-81019264D01*
X165706634Y-80938327D01*
X165706634Y-83919818D01*
G37*
D11*
X212876601Y-99765438D02*
X211808570Y-106939045D01*
X207394042Y-109110706D01*
X208568885Y-104820781D01*
X186531860Y-109573520D01*
X175673553Y-99338226D01*
X175749267Y-96367214D01*
X178521568Y-96204677D01*
X178506021Y-97023832D01*
X178499088Y-97587001D01*
X178499479Y-97772591D01*
X178503829Y-97842987D01*
X186959068Y-106494030D01*
X209316505Y-101972705D01*
X209415663Y-101789045D01*
X209509636Y-101586265D01*
X209682560Y-101129892D01*
X209836345Y-100616675D01*
X209972060Y-100059704D01*
X210090775Y-99472070D01*
X210193557Y-98866861D01*
X210281478Y-98257167D01*
X210355604Y-97656078D01*
X210466753Y-96532073D01*
X210535557Y-95599562D01*
X210580337Y-94727893D01*
X212876601Y-99765438D01*
G36*
X212876601Y-99765438D02*
G01*
X211808570Y-106939045D01*
X207394042Y-109110706D01*
X208568885Y-104820781D01*
X186531860Y-109573520D01*
X175673553Y-99338226D01*
X175749267Y-96367214D01*
X178521568Y-96204677D01*
X178506021Y-97023832D01*
X178499088Y-97587001D01*
X178499479Y-97772591D01*
X178503829Y-97842987D01*
X186959068Y-106494030D01*
X209316505Y-101972705D01*
X209415663Y-101789045D01*
X209509636Y-101586265D01*
X209682560Y-101129892D01*
X209836345Y-100616675D01*
X209972060Y-100059704D01*
X210090775Y-99472070D01*
X210193557Y-98866861D01*
X210281478Y-98257167D01*
X210355604Y-97656078D01*
X210466753Y-96532073D01*
X210535557Y-95599562D01*
X210580337Y-94727893D01*
X212876601Y-99765438D01*
G37*
X208603110Y-59073828D02*
X207965030Y-56921336D01*
X207530971Y-55441498D01*
X207343383Y-54768844D01*
X211725044Y-56904905D01*
X212864280Y-64189420D01*
X210541991Y-69206422D01*
X210546956Y-68508951D01*
X210524087Y-67730500D01*
X210497834Y-67261084D01*
X210458471Y-66748584D01*
X210403575Y-66200783D01*
X210330724Y-65625462D01*
X210237494Y-65030405D01*
X210121462Y-64423393D01*
X209980206Y-63812210D01*
X209811302Y-63204637D01*
X209715724Y-62904636D01*
X209612327Y-62608456D01*
X209500806Y-62317070D01*
X209380859Y-62031451D01*
X186957694Y-57354025D01*
X178512038Y-66051626D01*
X178506820Y-68430940D01*
X175740638Y-68430940D01*
X175707778Y-64561861D01*
X186453803Y-54352587D01*
X208603110Y-59073828D01*
G36*
X208603110Y-59073828D02*
G01*
X207965030Y-56921336D01*
X207530971Y-55441498D01*
X207343383Y-54768844D01*
X211725044Y-56904905D01*
X212864280Y-64189420D01*
X210541991Y-69206422D01*
X210546956Y-68508951D01*
X210524087Y-67730500D01*
X210497834Y-67261084D01*
X210458471Y-66748584D01*
X210403575Y-66200783D01*
X210330724Y-65625462D01*
X210237494Y-65030405D01*
X210121462Y-64423393D01*
X209980206Y-63812210D01*
X209811302Y-63204637D01*
X209715724Y-62904636D01*
X209612327Y-62608456D01*
X209500806Y-62317070D01*
X209380859Y-62031451D01*
X186957694Y-57354025D01*
X178512038Y-66051626D01*
X178506820Y-68430940D01*
X175740638Y-68430940D01*
X175707778Y-64561861D01*
X186453803Y-54352587D01*
X208603110Y-59073828D01*
G37*
D12*
X144566448Y-71335825D02*
X144996944Y-71380442D01*
X145190814Y-71413478D01*
X145368340Y-71453481D01*
X145527953Y-71500311D01*
X145668082Y-71553829D01*
X144975471Y-76575283D01*
X144089411Y-76477884D01*
X143660225Y-76413585D01*
X143181199Y-76328742D01*
X142668946Y-76221070D01*
X142140079Y-76088288D01*
X141611212Y-75928113D01*
X141098958Y-75738261D01*
X140854253Y-75631493D01*
X140619932Y-75516450D01*
X140398071Y-75392847D01*
X140190747Y-75260398D01*
X140000036Y-75118817D01*
X139828016Y-74967821D01*
X139676763Y-74807122D01*
X139548353Y-74636436D01*
X139444864Y-74455478D01*
X139368372Y-74263961D01*
X139320954Y-74061602D01*
X139304687Y-73848114D01*
X139319010Y-73629657D01*
X139360932Y-73422060D01*
X139428885Y-73225181D01*
X139521298Y-73038883D01*
X139636603Y-72863027D01*
X139773229Y-72697472D01*
X139929608Y-72542081D01*
X140104170Y-72396715D01*
X140295345Y-72261234D01*
X140501565Y-72135499D01*
X140721260Y-72019372D01*
X140952859Y-71912713D01*
X141194795Y-71815383D01*
X141445498Y-71727244D01*
X141703397Y-71648156D01*
X141966924Y-71577980D01*
X142504584Y-71463810D01*
X143045922Y-71383622D01*
X143578382Y-71336303D01*
X144089409Y-71320741D01*
X144566448Y-71335825D01*
D13*
X132029960Y-67577064D02*
X132017570Y-67709241D01*
X131989064Y-67883539D01*
X131938002Y-68093754D01*
X131857947Y-68333686D01*
X131742460Y-68597131D01*
X131585102Y-68877888D01*
X131488709Y-69022820D01*
X131379434Y-69169755D01*
X131256472Y-69317916D01*
X131119018Y-69466529D01*
X130966267Y-69614818D01*
X130797415Y-69762008D01*
X130611657Y-69907323D01*
X130408187Y-70049990D01*
X130186201Y-70189231D01*
X129944894Y-70324273D01*
X129683462Y-70454339D01*
X129401099Y-70578654D01*
X129097000Y-70696444D01*
X128770362Y-70806932D01*
X128420378Y-70909344D01*
X128046245Y-71002905D01*
X127755813Y-71061886D01*
X127474014Y-71103932D01*
X127200886Y-71130029D01*
X126936469Y-71141167D01*
X126680799Y-71138332D01*
X126433917Y-71122513D01*
X126195861Y-71094698D01*
X125966668Y-71055873D01*
X125746377Y-71007028D01*
X125535028Y-70949150D01*
X125332658Y-70883227D01*
X125139306Y-70810246D01*
X124955011Y-70731196D01*
X124779811Y-70647064D01*
X124613744Y-70558838D01*
X124456849Y-70467506D01*
X124309164Y-70374057D01*
X124170729Y-70279477D01*
X124041581Y-70184755D01*
X123921759Y-70090878D01*
X123710247Y-69909612D01*
X123536501Y-69743582D01*
X123400829Y-69600691D01*
X123303539Y-69488842D01*
X123225337Y-69389879D01*
X124804183Y-68890300D01*
X126197266Y-68479013D01*
X126875418Y-68295174D01*
X127476812Y-68149559D01*
X128101653Y-68025485D01*
X128819103Y-67903401D01*
X129574939Y-67787793D01*
X130314941Y-67683146D01*
X131530548Y-67524677D01*
X132032146Y-67463880D01*
X132029960Y-67577064D01*
D12*
X133666977Y-84352710D02*
X133925819Y-84377225D01*
X134183925Y-84413250D01*
X134440291Y-84459611D01*
X134693916Y-84515136D01*
X134943799Y-84578654D01*
X135428329Y-84724979D01*
X135885868Y-84889206D01*
X136308403Y-85061961D01*
X136687918Y-85233865D01*
X137016401Y-85395541D01*
X137488214Y-85650702D01*
X137659732Y-85752426D01*
X135019141Y-90514152D01*
X134794769Y-90438431D01*
X134212433Y-90210306D01*
X133829583Y-90038642D01*
X133408308Y-89828336D01*
X132965628Y-89579209D01*
X132518566Y-89291079D01*
X132298711Y-89132332D01*
X132084144Y-88963768D01*
X131876992Y-88785362D01*
X131679383Y-88597094D01*
X131493444Y-88398939D01*
X131321304Y-88190877D01*
X131165090Y-87972884D01*
X131026930Y-87744938D01*
X130908951Y-87507016D01*
X130813282Y-87259095D01*
X130742049Y-87001154D01*
X130697381Y-86733170D01*
X130681406Y-86455119D01*
X130696251Y-86166981D01*
X130744043Y-85868731D01*
X130826911Y-85560348D01*
X130847683Y-85502975D01*
X130872176Y-85447568D01*
X130900145Y-85394064D01*
X130931348Y-85342401D01*
X130965541Y-85292517D01*
X131002481Y-85244350D01*
X131041926Y-85197837D01*
X131083631Y-85152916D01*
X131127355Y-85109524D01*
X131172852Y-85067600D01*
X131219882Y-85027080D01*
X131268199Y-84987902D01*
X131317562Y-84950004D01*
X131367727Y-84913324D01*
X131469489Y-84843368D01*
X131689892Y-84711558D01*
X131918572Y-84601806D01*
X132154529Y-84512941D01*
X132396761Y-84443789D01*
X132644265Y-84393178D01*
X132896041Y-84359937D01*
X133151085Y-84342894D01*
X133408398Y-84340875D01*
X133666977Y-84352710D01*
D10*
G36*
X167166902Y-87721926D02*
G01*
X167167915Y-87722014D01*
X167170213Y-87722387D01*
X167172893Y-87723030D01*
X167175974Y-87723949D01*
X167179479Y-87725152D01*
X167183429Y-87726646D01*
X167187846Y-87728437D01*
X167192750Y-87730532D01*
X167198164Y-87732939D01*
X167204108Y-87735663D01*
X167217674Y-87742095D01*
X167233621Y-87749881D01*
X167252119Y-87759078D01*
X167273339Y-87769741D01*
X167297454Y-87781925D01*
X167384177Y-87827646D01*
X167469324Y-87876228D01*
X167552743Y-87927535D01*
X167634283Y-87981432D01*
X167713794Y-88037784D01*
X167791126Y-88096456D01*
X167866126Y-88157312D01*
X167938645Y-88220217D01*
X168008531Y-88285035D01*
X168075634Y-88351633D01*
X168139803Y-88419873D01*
X168200888Y-88489621D01*
X168258736Y-88560742D01*
X168313199Y-88633100D01*
X168364124Y-88706560D01*
X168411361Y-88780986D01*
X168430633Y-88812816D01*
X168269775Y-89101459D01*
X168179894Y-89261239D01*
X168095790Y-89407551D01*
X168016501Y-89541951D01*
X167941063Y-89665996D01*
X167868515Y-89781242D01*
X167797896Y-89889245D01*
X167728242Y-89991562D01*
X167658591Y-90089748D01*
X167628486Y-90131340D01*
X167596267Y-89910278D01*
X167553619Y-89635207D01*
X167503068Y-89338057D01*
X167387482Y-88723740D01*
X167327058Y-88429682D01*
X167267955Y-88159766D01*
X167212478Y-87925545D01*
X167162933Y-87738575D01*
X167161632Y-87733742D01*
X167161157Y-87731603D01*
X167160826Y-87729658D01*
X167160662Y-87727914D01*
X167160686Y-87726377D01*
X167160775Y-87725688D01*
X167160919Y-87725054D01*
X167161121Y-87724476D01*
X167161383Y-87723954D01*
X167161709Y-87723489D01*
X167162100Y-87723081D01*
X167162559Y-87722733D01*
X167163090Y-87722444D01*
X167163694Y-87722216D01*
X167164374Y-87722049D01*
X167165134Y-87721945D01*
X167165976Y-87721903D01*
X167166902Y-87721926D01*
G37*
G36*
X164832705Y-91351973D02*
G01*
X164837078Y-91353430D01*
X164842704Y-91355744D01*
X164849417Y-91358824D01*
X164865444Y-91366907D01*
X164883839Y-91376936D01*
X164903280Y-91388169D01*
X164922445Y-91399864D01*
X164940014Y-91411278D01*
X164947787Y-91416648D01*
X164954665Y-91421669D01*
X165044566Y-91487310D01*
X165174881Y-91578504D01*
X165355884Y-91702346D01*
X165597846Y-91865936D01*
X165902486Y-92071930D01*
X166169065Y-92254387D01*
X166444956Y-92445968D01*
X166777534Y-92679336D01*
X166918814Y-92778512D01*
X167043407Y-92865463D01*
X167137821Y-92930810D01*
X167188567Y-92965175D01*
X167247764Y-93003337D01*
X167224647Y-93015407D01*
X167123244Y-93063738D01*
X167014307Y-93107106D01*
X166898710Y-93145449D01*
X166777327Y-93178705D01*
X166651030Y-93206814D01*
X166520694Y-93229713D01*
X166387193Y-93247342D01*
X166251398Y-93259639D01*
X166114185Y-93266543D01*
X165976427Y-93267992D01*
X165838997Y-93263924D01*
X165702769Y-93254279D01*
X165568616Y-93238995D01*
X165437413Y-93218011D01*
X165310032Y-93191264D01*
X165187347Y-93158695D01*
X165145225Y-93146228D01*
X165126907Y-93084232D01*
X165079669Y-92906346D01*
X165029406Y-92686387D01*
X164978990Y-92440510D01*
X164931295Y-92184870D01*
X164889193Y-91935621D01*
X164855559Y-91708919D01*
X164833266Y-91520919D01*
X164830478Y-91486309D01*
X164827270Y-91446480D01*
X164825187Y-91387775D01*
X164825208Y-91384076D01*
X164825275Y-91380481D01*
X164825387Y-91377009D01*
X164825539Y-91373677D01*
X164825731Y-91370505D01*
X164825960Y-91367511D01*
X164826223Y-91364714D01*
X164826518Y-91362132D01*
X164826843Y-91359784D01*
X164827195Y-91357689D01*
X164827572Y-91355866D01*
X164827972Y-91354332D01*
X164828392Y-91353106D01*
X164828609Y-91352615D01*
X164828830Y-91352208D01*
X164829055Y-91351887D01*
X164829283Y-91351655D01*
X164829515Y-91351514D01*
X164829749Y-91351467D01*
X164832705Y-91351973D01*
G37*
G36*
X164659767Y-87696486D02*
G01*
X164681441Y-87703316D01*
X164745263Y-87730439D01*
X164832834Y-87773397D01*
X164939889Y-87829648D01*
X165195401Y-87971868D01*
X165477694Y-88136770D01*
X165752662Y-88304025D01*
X165986200Y-88453304D01*
X166076775Y-88514850D01*
X166144203Y-88564280D01*
X166184221Y-88599051D01*
X166192619Y-88610145D01*
X166192565Y-88616623D01*
X166187624Y-88619701D01*
X166179114Y-88623269D01*
X166152142Y-88631709D01*
X166113153Y-88641624D01*
X166063652Y-88652692D01*
X166005143Y-88664593D01*
X165939132Y-88677007D01*
X165867122Y-88689613D01*
X165790618Y-88702091D01*
X165396931Y-88766155D01*
X165037233Y-88829259D01*
X164707402Y-88892313D01*
X164403318Y-88956228D01*
X164120857Y-89021915D01*
X163855900Y-89090284D01*
X163604324Y-89162246D01*
X163362006Y-89238712D01*
X163311859Y-89255090D01*
X163270479Y-89268239D01*
X163254420Y-89273184D01*
X163242162Y-89276818D01*
X163234243Y-89278975D01*
X163232079Y-89279447D01*
X163231200Y-89279487D01*
X163231146Y-89276989D01*
X163232654Y-89271194D01*
X163239837Y-89250925D01*
X163251709Y-89221114D01*
X163267226Y-89184194D01*
X163292683Y-89126663D01*
X163305030Y-89098758D01*
X163325231Y-89055108D01*
X163344909Y-89014080D01*
X163396748Y-88913261D01*
X163452200Y-88814951D01*
X163511240Y-88719177D01*
X163573841Y-88625966D01*
X163639979Y-88535345D01*
X163709626Y-88447340D01*
X163782758Y-88361979D01*
X163859348Y-88279287D01*
X163939370Y-88199293D01*
X164022799Y-88122022D01*
X164109609Y-88047502D01*
X164199774Y-87975760D01*
X164293268Y-87906821D01*
X164390066Y-87840713D01*
X164490140Y-87777463D01*
X164593467Y-87717098D01*
X164601503Y-87712726D01*
X164609533Y-87708613D01*
X164617343Y-87704852D01*
X164624721Y-87701536D01*
X164628180Y-87700073D01*
X164631452Y-87698756D01*
X164634508Y-87697597D01*
X164637322Y-87696607D01*
X164639868Y-87695797D01*
X164642119Y-87695180D01*
X164644048Y-87694766D01*
X164645629Y-87694568D01*
X164659767Y-87696486D01*
G37*
G36*
X166107767Y-87364317D02*
G01*
X166232314Y-87372038D01*
X166357431Y-87384010D01*
X166479954Y-87399984D01*
X166596722Y-87419710D01*
X166651960Y-87430902D01*
X166704574Y-87442939D01*
X166735528Y-87450515D01*
X166763085Y-87457377D01*
X166787447Y-87463609D01*
X166808820Y-87469294D01*
X166818450Y-87471957D01*
X166827408Y-87474514D01*
X166835722Y-87476976D01*
X166843415Y-87479354D01*
X166850515Y-87481656D01*
X166857046Y-87483895D01*
X166863034Y-87486080D01*
X166868505Y-87488221D01*
X166873483Y-87490330D01*
X166877995Y-87492416D01*
X166882067Y-87494490D01*
X166885723Y-87496562D01*
X166888989Y-87498642D01*
X166891891Y-87500742D01*
X166894454Y-87502871D01*
X166896704Y-87505039D01*
X166898666Y-87507258D01*
X166900366Y-87509538D01*
X166901830Y-87511888D01*
X166903082Y-87514319D01*
X166904150Y-87516843D01*
X166905057Y-87519468D01*
X166905829Y-87522205D01*
X166906493Y-87525066D01*
X166927829Y-87614865D01*
X166970954Y-87791988D01*
X167032606Y-88051031D01*
X167090473Y-88308204D01*
X167142534Y-88552966D01*
X167186769Y-88774777D01*
X167221157Y-88963096D01*
X167243677Y-89107384D01*
X167249855Y-89159722D01*
X167252309Y-89197099D01*
X167250786Y-89218199D01*
X167248454Y-89222232D01*
X167245033Y-89221702D01*
X167199296Y-89190146D01*
X167110885Y-89129799D01*
X167040370Y-89080157D01*
X166936214Y-89004767D01*
X166812454Y-88913867D01*
X166683128Y-88817699D01*
X166440422Y-88637718D01*
X166219792Y-88477974D01*
X166015804Y-88334882D01*
X165823026Y-88204857D01*
X165636023Y-88084313D01*
X165449363Y-87969663D01*
X165257611Y-87857324D01*
X165055335Y-87743709D01*
X164865880Y-87638879D01*
X164855895Y-87633354D01*
X164813667Y-87609687D01*
X164844665Y-87596790D01*
X164955418Y-87553136D01*
X165067268Y-87513892D01*
X165180352Y-87479025D01*
X165294810Y-87448501D01*
X165410781Y-87422286D01*
X165528404Y-87400345D01*
X165647819Y-87382645D01*
X165769164Y-87369152D01*
X165819643Y-87365248D01*
X165873030Y-87362625D01*
X165986952Y-87361096D01*
X166107767Y-87364317D01*
G37*
G36*
X168669540Y-89014304D02*
G01*
X168672319Y-89016667D01*
X168676081Y-89021736D01*
X168680762Y-89029369D01*
X168692621Y-89051771D01*
X168707382Y-89082753D01*
X168724532Y-89121196D01*
X168743554Y-89165980D01*
X168763936Y-89215985D01*
X168785163Y-89270092D01*
X168820710Y-89367652D01*
X168852646Y-89466229D01*
X168880967Y-89565746D01*
X168905667Y-89666130D01*
X168926739Y-89767305D01*
X168944177Y-89869197D01*
X168957975Y-89971729D01*
X168968127Y-90074828D01*
X168974628Y-90178419D01*
X168977471Y-90282425D01*
X168976651Y-90386773D01*
X168972160Y-90491388D01*
X168963994Y-90596194D01*
X168952146Y-90701116D01*
X168936610Y-90806080D01*
X168917381Y-90911010D01*
X168907797Y-90958713D01*
X168903909Y-90977791D01*
X168900506Y-90994014D01*
X168897498Y-91007624D01*
X168896115Y-91013526D01*
X168894797Y-91018867D01*
X168893534Y-91023676D01*
X168892314Y-91027986D01*
X168891127Y-91031825D01*
X168889961Y-91035225D01*
X168888806Y-91038215D01*
X168887649Y-91040828D01*
X168886481Y-91043092D01*
X168885289Y-91045040D01*
X168884064Y-91046700D01*
X168882793Y-91048104D01*
X168881466Y-91049282D01*
X168880071Y-91050265D01*
X168878598Y-91051083D01*
X168877035Y-91051767D01*
X168875372Y-91052347D01*
X168873597Y-91052854D01*
X168869667Y-91053770D01*
X168865157Y-91054760D01*
X168849489Y-91058938D01*
X168821184Y-91067023D01*
X168742736Y-91090255D01*
X168520664Y-91153777D01*
X168287072Y-91214513D01*
X168050879Y-91270634D01*
X167821007Y-91320314D01*
X167606376Y-91361723D01*
X167415906Y-91393034D01*
X167258519Y-91412420D01*
X167195019Y-91417070D01*
X167143134Y-91418052D01*
X167019599Y-91415557D01*
X167065146Y-91359604D01*
X167130912Y-91278812D01*
X167395885Y-90949476D01*
X167628541Y-90651443D01*
X167833129Y-90378567D01*
X168013893Y-90124703D01*
X168175082Y-89883707D01*
X168320941Y-89649431D01*
X168455716Y-89415730D01*
X168583656Y-89176460D01*
X168641118Y-89065516D01*
X168659689Y-89029973D01*
X168667808Y-89014785D01*
X168668539Y-89014180D01*
X168669540Y-89014304D01*
G37*
D12*
X173522664Y-82204502D02*
X174309248Y-82287328D01*
X175082267Y-82421166D01*
X175840891Y-82602575D01*
X176584293Y-82828114D01*
X177311643Y-83094342D01*
X178022113Y-83397816D01*
X178714875Y-83735098D01*
X179389100Y-84102744D01*
X180043959Y-84497314D01*
X181292265Y-85353463D01*
X182453166Y-86276016D01*
X183520032Y-87237443D01*
X184486235Y-88210215D01*
X185345146Y-89166804D01*
X186090137Y-90079682D01*
X186714579Y-90921318D01*
X187211843Y-91664185D01*
X187575301Y-92280753D01*
X187798323Y-92743494D01*
X187874282Y-93024879D01*
X187722382Y-93182887D01*
X187519308Y-93363373D01*
X187219752Y-93596382D01*
X187031044Y-93729036D01*
X186814915Y-93870564D01*
X186570266Y-94019548D01*
X186295997Y-94174569D01*
X185991008Y-94334209D01*
X185654199Y-94497049D01*
X185284469Y-94661670D01*
X184880720Y-94826654D01*
X184441852Y-94990582D01*
X183966763Y-95152035D01*
X183454355Y-95309595D01*
X182903527Y-95461843D01*
X182313180Y-95607360D01*
X181682213Y-95744727D01*
X181009527Y-95872527D01*
X180294021Y-95989340D01*
X179534597Y-96093748D01*
X178730153Y-96184332D01*
X177879590Y-96259673D01*
X176981808Y-96318353D01*
X176035707Y-96358952D01*
X175040187Y-96380053D01*
X173994149Y-96380237D01*
X172896491Y-96358085D01*
X170845348Y-96254525D01*
X168971409Y-96078619D01*
X167268483Y-95839323D01*
X165730377Y-95545588D01*
X164350901Y-95206368D01*
X163123863Y-94830618D01*
X162043071Y-94427288D01*
X161102333Y-94005334D01*
X160295459Y-93573709D01*
X159616256Y-93141365D01*
X159058533Y-92717257D01*
X158616098Y-92310337D01*
X158282760Y-91929558D01*
X158052328Y-91583875D01*
X157918608Y-91282240D01*
X157875411Y-91033607D01*
X157897242Y-90928218D01*
X157961787Y-90784326D01*
X158213349Y-90392014D01*
X158618744Y-89878627D01*
X159166624Y-89266119D01*
X159845638Y-88576445D01*
X160644434Y-87831559D01*
X161551663Y-87053417D01*
X162555973Y-86263972D01*
X163646015Y-85485181D01*
X164219638Y-85106641D01*
X164810438Y-84738998D01*
X165416995Y-84384995D01*
X166037891Y-84047377D01*
X166671707Y-83728888D01*
X167317024Y-83432273D01*
X167972423Y-83160277D01*
X168636486Y-82915642D01*
X169307794Y-82701114D01*
X169984927Y-82519437D01*
X170666467Y-82373356D01*
X171350996Y-82265614D01*
X172037094Y-82198957D01*
X172723342Y-82176128D01*
X173522664Y-82204502D01*
D10*
G36*
X164918784Y-89127315D02*
G01*
X164896557Y-89163439D01*
X164873408Y-89199584D01*
X164847958Y-89237714D01*
X164818824Y-89279791D01*
X164784626Y-89327780D01*
X164743984Y-89383645D01*
X164637840Y-89526855D01*
X164435826Y-89801165D01*
X164241238Y-90072596D01*
X164056117Y-90338079D01*
X163882509Y-90594548D01*
X163722458Y-90838933D01*
X163578008Y-91068167D01*
X163451202Y-91279182D01*
X163344085Y-91468910D01*
X163330059Y-91494920D01*
X163324350Y-91504997D01*
X163319285Y-91512960D01*
X163314695Y-91518690D01*
X163312526Y-91520680D01*
X163310412Y-91522067D01*
X163308332Y-91522835D01*
X163306266Y-91522970D01*
X163304191Y-91522456D01*
X163302088Y-91521279D01*
X163299935Y-91519423D01*
X163297710Y-91516873D01*
X163292963Y-91509633D01*
X163287677Y-91499437D01*
X163281685Y-91486166D01*
X163266904Y-91449916D01*
X163247268Y-91399921D01*
X163207565Y-91293106D01*
X163172074Y-91185099D01*
X163140805Y-91076037D01*
X163113767Y-90966058D01*
X163090969Y-90855302D01*
X163072422Y-90743905D01*
X163058135Y-90632007D01*
X163048117Y-90519745D01*
X163042379Y-90407257D01*
X163041120Y-90309531D01*
X163040929Y-90294682D01*
X163043778Y-90182157D01*
X163050936Y-90069822D01*
X163062411Y-89957813D01*
X163078214Y-89846269D01*
X163098353Y-89735328D01*
X163122840Y-89625129D01*
X163131333Y-89590567D01*
X163135022Y-89576545D01*
X163138546Y-89564436D01*
X163142063Y-89554043D01*
X163143866Y-89549429D01*
X163145726Y-89545171D01*
X163147662Y-89541244D01*
X163149692Y-89537623D01*
X163151838Y-89534285D01*
X163154117Y-89531205D01*
X163156550Y-89528358D01*
X163159155Y-89525720D01*
X163161954Y-89523266D01*
X163164964Y-89520972D01*
X163168205Y-89518814D01*
X163171697Y-89516766D01*
X163175460Y-89514806D01*
X163179512Y-89512907D01*
X163188563Y-89509197D01*
X163199007Y-89505442D01*
X163224693Y-89497013D01*
X163255124Y-89486937D01*
X163293582Y-89473847D01*
X163335142Y-89459437D01*
X163374877Y-89445400D01*
X163550896Y-89385352D01*
X163731381Y-89329257D01*
X163914470Y-89277566D01*
X164098298Y-89230726D01*
X164281001Y-89189189D01*
X164460715Y-89153402D01*
X164635575Y-89123816D01*
X164803718Y-89100879D01*
X164810001Y-89100241D01*
X164818007Y-89099595D01*
X164837871Y-89098354D01*
X164860681Y-89097296D01*
X164883811Y-89096561D01*
X164938140Y-89095279D01*
X164918784Y-89127315D01*
G37*
G36*
X164427739Y-90196486D02*
G01*
X164432496Y-90207358D01*
X164437103Y-90224987D01*
X164446608Y-90283958D01*
X164457739Y-90380283D01*
X164490821Y-90712543D01*
X164522385Y-91002795D01*
X164559397Y-91288212D01*
X164601840Y-91568702D01*
X164649697Y-91844173D01*
X164702951Y-92114534D01*
X164761585Y-92379693D01*
X164825580Y-92639560D01*
X164894920Y-92894043D01*
X164914929Y-92965037D01*
X164923308Y-92995547D01*
X164930395Y-93021947D01*
X164936035Y-93043645D01*
X164940070Y-93060052D01*
X164942344Y-93070578D01*
X164942773Y-93073452D01*
X164942702Y-93074634D01*
X164940238Y-93074584D01*
X164934592Y-93073032D01*
X164914972Y-93065947D01*
X164886272Y-93054423D01*
X164850925Y-93039505D01*
X164770009Y-93003662D01*
X164729303Y-92984827D01*
X164691673Y-92966774D01*
X164600758Y-92920065D01*
X164511270Y-92869892D01*
X164423344Y-92816377D01*
X164337113Y-92759641D01*
X164252713Y-92699806D01*
X164170279Y-92636996D01*
X164089944Y-92571331D01*
X164011844Y-92502935D01*
X163936113Y-92431928D01*
X163862886Y-92358434D01*
X163792298Y-92282574D01*
X163724483Y-92204471D01*
X163659576Y-92124246D01*
X163597712Y-92042023D01*
X163539025Y-91957922D01*
X163483649Y-91872066D01*
X163467782Y-91846236D01*
X163461521Y-91835561D01*
X163456359Y-91826078D01*
X163454187Y-91821711D01*
X163452285Y-91817557D01*
X163450652Y-91813587D01*
X163449286Y-91809771D01*
X163448187Y-91806083D01*
X163447351Y-91802493D01*
X163446779Y-91798973D01*
X163446469Y-91795495D01*
X163446418Y-91792030D01*
X163446626Y-91788549D01*
X163447091Y-91785024D01*
X163447811Y-91781427D01*
X163448786Y-91777730D01*
X163450013Y-91773903D01*
X163451491Y-91769918D01*
X163452894Y-91766531D01*
X163453219Y-91765747D01*
X163457418Y-91756733D01*
X163462598Y-91746633D01*
X163475852Y-91722263D01*
X163482848Y-91709305D01*
X163490335Y-91695025D01*
X163505857Y-91664372D01*
X163520557Y-91634060D01*
X163527018Y-91620205D01*
X163532577Y-91607845D01*
X163565002Y-91537481D01*
X163604008Y-91458825D01*
X163698505Y-91281905D01*
X163809565Y-91087629D01*
X163930683Y-90886541D01*
X164055355Y-90689184D01*
X164177076Y-90506103D01*
X164289343Y-90347840D01*
X164339898Y-90281311D01*
X164385650Y-90224941D01*
X164403498Y-90203349D01*
X164410711Y-90195802D01*
X164417032Y-90191569D01*
X164422646Y-90191510D01*
X164427739Y-90196486D01*
G37*
D12*
X140160499Y-66974917D02*
X142072625Y-67085175D01*
X143785030Y-67271029D01*
X145304090Y-67516243D01*
X146636181Y-67804580D01*
X147787677Y-68119803D01*
X148764956Y-68445675D01*
X149574392Y-68765960D01*
X150222361Y-69064421D01*
X151059400Y-69530923D01*
X151327079Y-69715290D01*
X151165170Y-70215421D01*
X150638336Y-71642786D01*
X150218804Y-72669948D01*
X149684920Y-73887838D01*
X149028976Y-75282764D01*
X148243264Y-76841033D01*
X147320078Y-78548951D01*
X146251710Y-80392825D01*
X145030453Y-82358963D01*
X143648600Y-84433670D01*
X142895041Y-85507458D01*
X142098443Y-86603254D01*
X141257842Y-87719345D01*
X140372276Y-88854021D01*
X139440779Y-90005569D01*
X138462390Y-91172279D01*
X137436145Y-92352438D01*
X136361079Y-93544334D01*
X134889950Y-93710048D01*
X133167460Y-93847946D01*
X132093441Y-93910458D01*
X130890507Y-93960986D01*
X129568361Y-93993759D01*
X128136705Y-94003007D01*
X126605240Y-93982959D01*
X124983669Y-93927844D01*
X123281692Y-93831893D01*
X121509013Y-93689336D01*
X119675333Y-93494400D01*
X117790353Y-93241317D01*
X116320228Y-92981485D01*
X114957566Y-92663011D01*
X113700626Y-92296300D01*
X112547668Y-91891757D01*
X111496950Y-91459786D01*
X110546733Y-91010791D01*
X109695274Y-90555178D01*
X108940834Y-90103350D01*
X108281670Y-89665713D01*
X107716044Y-89252670D01*
X106858436Y-88541987D01*
X106189062Y-87873558D01*
X106046113Y-87335777D01*
X105956049Y-86791722D01*
X105915699Y-86242926D01*
X105921892Y-85690918D01*
X105971458Y-85137230D01*
X106061227Y-84583392D01*
X106188027Y-84030936D01*
X106348689Y-83481393D01*
X106540041Y-82936294D01*
X106758914Y-82397169D01*
X107266538Y-81342968D01*
X107846197Y-80331038D01*
X108472526Y-79373626D01*
X109120162Y-78482981D01*
X109763738Y-77671351D01*
X110377893Y-76950983D01*
X110937260Y-76334126D01*
X112119575Y-75146766D01*
X112426115Y-74894340D01*
X112805897Y-74600462D01*
X113333673Y-74214055D01*
X114007180Y-73749554D01*
X114824158Y-73221396D01*
X115782345Y-72644017D01*
X116879478Y-72031853D01*
X118113298Y-71399340D01*
X118780759Y-71079963D01*
X119481542Y-70760913D01*
X120215367Y-70443993D01*
X120981949Y-70131008D01*
X121781007Y-69823763D01*
X122612258Y-69524063D01*
X123475419Y-69233710D01*
X124370207Y-68954511D01*
X125296340Y-68688270D01*
X126253534Y-68436790D01*
X127241508Y-68201877D01*
X128259979Y-67985336D01*
X129308663Y-67788970D01*
X130387279Y-67614584D01*
X133162043Y-67260089D01*
X135711584Y-67046138D01*
X138042278Y-66956493D01*
X140160499Y-66974917D01*
D10*
G36*
X168780555Y-91379230D02*
G01*
X168734182Y-91489869D01*
X168683157Y-91598952D01*
X168627702Y-91706208D01*
X168568038Y-91811367D01*
X168504386Y-91914159D01*
X168436969Y-92014314D01*
X168366009Y-92111562D01*
X168291727Y-92205632D01*
X168214345Y-92296255D01*
X168134085Y-92383160D01*
X168051168Y-92466077D01*
X167965817Y-92544736D01*
X167878252Y-92618867D01*
X167788697Y-92688200D01*
X167697372Y-92752464D01*
X167604499Y-92811390D01*
X167573318Y-92830116D01*
X167514404Y-92803615D01*
X167437499Y-92769806D01*
X167335349Y-92725761D01*
X167245658Y-92686155D01*
X167154015Y-92643240D01*
X167061026Y-92597391D01*
X166967298Y-92548982D01*
X166873434Y-92498386D01*
X166780041Y-92445978D01*
X166687724Y-92392131D01*
X166597088Y-92337218D01*
X166508739Y-92281615D01*
X166423282Y-92225694D01*
X166341323Y-92169830D01*
X166263467Y-92114396D01*
X166190319Y-92059766D01*
X166122485Y-92006315D01*
X166060570Y-91954415D01*
X166005180Y-91904441D01*
X165997031Y-91896721D01*
X165994340Y-91894134D01*
X165989693Y-91889665D01*
X165983149Y-91883248D01*
X165980168Y-91880273D01*
X165977380Y-91877448D01*
X165974781Y-91874773D01*
X165972370Y-91872242D01*
X165970143Y-91869854D01*
X165968100Y-91867606D01*
X165966237Y-91865494D01*
X165964553Y-91863516D01*
X165963045Y-91861669D01*
X165961711Y-91859950D01*
X165960549Y-91858356D01*
X165959557Y-91856884D01*
X165958733Y-91855531D01*
X165958073Y-91854295D01*
X165957577Y-91853172D01*
X165957390Y-91852652D01*
X165957242Y-91852159D01*
X165957134Y-91851693D01*
X165957066Y-91851254D01*
X165957036Y-91850841D01*
X165957046Y-91850453D01*
X165957094Y-91850091D01*
X165957180Y-91849755D01*
X165957304Y-91849442D01*
X165957467Y-91849154D01*
X165957666Y-91848891D01*
X165957903Y-91848650D01*
X165958177Y-91848433D01*
X165958487Y-91848239D01*
X165958834Y-91848067D01*
X165959217Y-91847918D01*
X165959635Y-91847790D01*
X165960090Y-91847684D01*
X165961104Y-91847534D01*
X165962257Y-91847465D01*
X166073882Y-91836816D01*
X166288494Y-91812641D01*
X166525567Y-91784304D01*
X166704574Y-91761169D01*
X166903767Y-91731135D01*
X167115401Y-91695754D01*
X167335984Y-91655726D01*
X167562026Y-91611753D01*
X167790035Y-91564535D01*
X168016520Y-91514773D01*
X168237988Y-91463169D01*
X168450950Y-91410423D01*
X168712714Y-91343734D01*
X168719312Y-91342230D01*
X168726564Y-91340787D01*
X168734232Y-91339440D01*
X168742080Y-91338223D01*
X168749869Y-91337171D01*
X168757361Y-91336319D01*
X168764320Y-91335700D01*
X168770507Y-91335350D01*
X168798278Y-91334362D01*
X168780555Y-91379230D01*
G37*
D12*
X136522590Y-93368042D02*
X141851791Y-93321556D01*
X141851791Y-91256004D02*
X157892749Y-91185188D01*
X141851791Y-93321556D02*
X141851791Y-91256004D01*
X166146041Y-72500049D02*
X169912132Y-68430940D01*
X169912132Y-68430940D02*
X178136924Y-68430940D01*
X178136924Y-68430940D02*
X182000106Y-72500049D01*
X182000106Y-72500049D02*
X184844970Y-71326107D01*
X184844970Y-71326107D02*
X189275000Y-71331911D01*
X189275000Y-71331911D02*
X189300000Y-70025000D01*
X189300000Y-70025000D02*
X196289069Y-70869096D01*
X189375000Y-92105098D02*
X187485358Y-92108276D01*
X189375000Y-93618145D02*
X189375000Y-92105098D01*
D14*
X196173807Y-83024353D02*
X196173809Y-83024353D01*
D12*
X196271270Y-92728119D02*
X189375000Y-93618145D01*
X196289069Y-70869096D02*
X196271270Y-92728119D01*
D10*
%TO.C,G\u002A\u002A\u002A*%
G36*
X134715504Y-73004788D02*
G01*
X134792623Y-73292601D01*
X134750364Y-73303924D01*
X134708104Y-73315247D01*
X134630985Y-73027434D01*
X134553866Y-72739622D01*
X134596125Y-72728299D01*
X134638385Y-72716977D01*
X134715504Y-73004788D01*
G37*
G36*
X125872679Y-75339701D02*
G01*
X125941169Y-75595311D01*
X126110206Y-75550017D01*
X126279243Y-75504724D01*
X126287872Y-75536927D01*
X126296501Y-75569130D01*
X126087216Y-75625207D01*
X125877933Y-75681285D01*
X125800814Y-75393472D01*
X125723695Y-75105660D01*
X125763941Y-75094876D01*
X125804188Y-75084091D01*
X125872679Y-75339701D01*
G37*
G36*
X132111997Y-73430591D02*
G01*
X132121165Y-73464807D01*
X131998413Y-73497698D01*
X131875660Y-73530590D01*
X131943611Y-73784187D01*
X132011562Y-74037784D01*
X131969303Y-74049107D01*
X131927045Y-74060430D01*
X131859092Y-73806833D01*
X131791141Y-73553236D01*
X131668388Y-73586128D01*
X131545635Y-73619020D01*
X131536467Y-73584805D01*
X131527299Y-73550589D01*
X131815065Y-73473482D01*
X132102829Y-73396376D01*
X132111997Y-73430591D01*
G37*
G36*
X135560619Y-72504379D02*
G01*
X135569248Y-72536582D01*
X135394097Y-72583513D01*
X135218948Y-72630444D01*
X135244568Y-72721731D01*
X135270187Y-72813018D01*
X135434476Y-72770124D01*
X135598763Y-72727230D01*
X135607379Y-72759386D01*
X135615996Y-72791545D01*
X135450984Y-72835760D01*
X135285972Y-72879975D01*
X135312397Y-72978596D01*
X135338823Y-73077217D01*
X135519934Y-73028688D01*
X135701045Y-72980160D01*
X135709674Y-73012363D01*
X135718302Y-73044566D01*
X135494932Y-73104418D01*
X135271562Y-73164269D01*
X135194442Y-72876455D01*
X135117323Y-72588644D01*
X135334657Y-72530410D01*
X135551990Y-72472176D01*
X135560619Y-72504379D01*
G37*
G36*
X126959707Y-74876881D02*
G01*
X126996457Y-74917296D01*
X127035483Y-74960156D01*
X127075805Y-75004392D01*
X127116448Y-75048935D01*
X127156435Y-75092714D01*
X127194788Y-75134661D01*
X127230530Y-75173704D01*
X127262685Y-75208776D01*
X127290277Y-75238806D01*
X127291731Y-75240388D01*
X127306465Y-75256520D01*
X127319019Y-75270499D01*
X127328381Y-75281178D01*
X127333538Y-75287413D01*
X127334218Y-75288463D01*
X127330715Y-75290430D01*
X127320648Y-75293785D01*
X127305574Y-75298052D01*
X127287460Y-75302661D01*
X127239984Y-75314167D01*
X127183963Y-75250448D01*
X127127942Y-75186729D01*
X126948791Y-75234725D01*
X126769639Y-75282721D01*
X126752429Y-75367147D01*
X126735219Y-75451576D01*
X126688694Y-75464042D01*
X126642168Y-75476509D01*
X126658606Y-75401996D01*
X126663075Y-75381729D01*
X126669053Y-75354623D01*
X126676249Y-75321979D01*
X126684379Y-75285096D01*
X126693155Y-75245275D01*
X126696240Y-75231280D01*
X126701753Y-75206263D01*
X126789604Y-75206263D01*
X126789624Y-75206278D01*
X126794243Y-75205689D01*
X126805681Y-75203146D01*
X126822837Y-75198947D01*
X126844613Y-75193394D01*
X126869906Y-75186786D01*
X126897619Y-75179420D01*
X126926652Y-75171597D01*
X126955904Y-75163615D01*
X126984277Y-75155775D01*
X127010670Y-75148373D01*
X127033982Y-75141712D01*
X127053115Y-75136089D01*
X127066970Y-75131804D01*
X127074445Y-75129155D01*
X127075443Y-75128516D01*
X127072536Y-75124852D01*
X127064677Y-75115651D01*
X127052462Y-75101595D01*
X127036491Y-75083364D01*
X127017359Y-75061641D01*
X126995665Y-75037105D01*
X126972005Y-75010439D01*
X126964417Y-75001905D01*
X126854417Y-74878253D01*
X126836574Y-74964972D01*
X126829857Y-74997615D01*
X126822395Y-75033872D01*
X126814826Y-75070645D01*
X126807787Y-75104837D01*
X126802960Y-75128282D01*
X126798138Y-75152373D01*
X126794170Y-75173506D01*
X126791279Y-75190392D01*
X126789683Y-75201740D01*
X126789604Y-75206263D01*
X126701753Y-75206263D01*
X126702293Y-75203815D01*
X126711504Y-75162018D01*
X126715961Y-75141787D01*
X126725017Y-75100701D01*
X126734067Y-75059653D01*
X126742840Y-75019885D01*
X126751061Y-74982636D01*
X126758455Y-74949147D01*
X126764749Y-74920659D01*
X126769670Y-74898413D01*
X126771626Y-74889582D01*
X126786374Y-74823073D01*
X126835581Y-74808752D01*
X126884790Y-74794432D01*
X126959707Y-74876881D01*
G37*
G36*
X129020051Y-74234665D02*
G01*
X129068016Y-74244247D01*
X129112304Y-74261267D01*
X129152848Y-74285705D01*
X129189589Y-74317540D01*
X129201804Y-74330730D01*
X129226390Y-74361750D01*
X129245419Y-74393052D01*
X129260323Y-74427360D01*
X129271509Y-74463502D01*
X129281774Y-74516333D01*
X129284100Y-74567154D01*
X129278644Y-74615576D01*
X129265563Y-74661211D01*
X129245016Y-74703672D01*
X129217160Y-74742569D01*
X129182154Y-74777514D01*
X129140156Y-74808120D01*
X129128389Y-74815159D01*
X129106844Y-74825763D01*
X129079410Y-74836642D01*
X129048471Y-74847078D01*
X129016411Y-74856353D01*
X128985613Y-74863747D01*
X128958463Y-74868541D01*
X128947540Y-74869700D01*
X128893842Y-74870142D01*
X128843610Y-74863305D01*
X128797169Y-74849336D01*
X128754840Y-74828382D01*
X128716942Y-74800595D01*
X128683795Y-74766121D01*
X128663853Y-74738497D01*
X128639027Y-74693063D01*
X128621427Y-74646125D01*
X128616510Y-74623771D01*
X128610945Y-74598473D01*
X128607878Y-74556516D01*
X128698043Y-74556516D01*
X128703893Y-74600357D01*
X128716927Y-74643609D01*
X128725972Y-74664307D01*
X128745508Y-74699376D01*
X128767444Y-74727915D01*
X128793397Y-74751690D01*
X128824988Y-74772470D01*
X128825115Y-74772542D01*
X128847988Y-74782774D01*
X128876127Y-74791172D01*
X128906548Y-74797086D01*
X128936267Y-74799864D01*
X128950325Y-74799858D01*
X128972612Y-74797231D01*
X128999079Y-74791463D01*
X129026873Y-74783417D01*
X129053144Y-74773955D01*
X129075037Y-74763941D01*
X129081596Y-74760181D01*
X129108818Y-74741462D01*
X129130402Y-74721965D01*
X129148847Y-74699117D01*
X129163391Y-74676070D01*
X129180165Y-74642245D01*
X129190567Y-74608747D01*
X129194850Y-74573809D01*
X129193270Y-74535662D01*
X129188232Y-74503074D01*
X129175997Y-74459334D01*
X129157282Y-74419477D01*
X129132672Y-74384353D01*
X129102751Y-74354815D01*
X129072210Y-74333960D01*
X129035718Y-74316833D01*
X128999057Y-74306742D01*
X128960928Y-74303558D01*
X128920030Y-74307156D01*
X128882622Y-74315314D01*
X128837838Y-74330422D01*
X128799710Y-74350135D01*
X128767695Y-74374855D01*
X128741252Y-74404984D01*
X128723726Y-74433290D01*
X128707949Y-74471800D01*
X128699391Y-74513269D01*
X128698043Y-74556516D01*
X128607878Y-74556516D01*
X128607467Y-74550897D01*
X128610881Y-74504187D01*
X128621077Y-74459132D01*
X128637943Y-74416523D01*
X128661366Y-74377149D01*
X128691237Y-74341801D01*
X128723766Y-74313917D01*
X128770167Y-74284911D01*
X128821880Y-74261769D01*
X128877929Y-74244882D01*
X128913339Y-74237899D01*
X128968469Y-74232542D01*
X129020051Y-74234665D01*
G37*
G36*
X132949500Y-73179944D02*
G01*
X132993291Y-73187852D01*
X133034922Y-73202493D01*
X133059704Y-73214822D01*
X133096116Y-73239508D01*
X133129243Y-73270874D01*
X133158230Y-73307629D01*
X133182224Y-73348483D01*
X133200372Y-73392143D01*
X133211820Y-73437321D01*
X133213335Y-73447196D01*
X133216931Y-73500415D01*
X133213012Y-73550621D01*
X133201676Y-73597520D01*
X133183016Y-73640822D01*
X133157130Y-73680233D01*
X133125752Y-73713969D01*
X133100581Y-73735581D01*
X133076437Y-73752690D01*
X133049983Y-73767466D01*
X133026148Y-73778518D01*
X133000471Y-73788252D01*
X132969675Y-73797683D01*
X132936961Y-73805995D01*
X132905526Y-73812373D01*
X132879548Y-73815917D01*
X132829027Y-73816941D01*
X132779053Y-73810637D01*
X132774246Y-73809658D01*
X132730450Y-73796371D01*
X132690045Y-73776041D01*
X132653489Y-73749432D01*
X132621245Y-73717306D01*
X132593772Y-73680424D01*
X132571533Y-73639548D01*
X132554987Y-73595438D01*
X132548930Y-73568284D01*
X132544597Y-73548859D01*
X132540822Y-73500570D01*
X132541074Y-73496814D01*
X132629669Y-73496814D01*
X132631940Y-73518452D01*
X132637267Y-73544614D01*
X132644835Y-73572442D01*
X132653828Y-73599073D01*
X132663434Y-73621654D01*
X132667365Y-73629086D01*
X132692402Y-73664626D01*
X132722949Y-73694326D01*
X132758158Y-73717733D01*
X132797185Y-73734393D01*
X132839180Y-73743853D01*
X132883295Y-73745660D01*
X132885174Y-73745561D01*
X132908430Y-73742542D01*
X132935829Y-73736350D01*
X132964283Y-73727903D01*
X132990707Y-73718123D01*
X133012017Y-73707928D01*
X133012667Y-73707555D01*
X133045025Y-73684798D01*
X133073395Y-73656829D01*
X133096381Y-73625297D01*
X133112589Y-73591845D01*
X133113962Y-73587929D01*
X133124029Y-73546188D01*
X133126990Y-73503450D01*
X133123244Y-73460815D01*
X133113194Y-73419384D01*
X133097239Y-73380260D01*
X133075782Y-73344543D01*
X133049222Y-73313335D01*
X133017962Y-73287736D01*
X133000913Y-73277501D01*
X132960228Y-73260437D01*
X132917084Y-73251099D01*
X132885356Y-73249350D01*
X132863962Y-73251291D01*
X132837895Y-73256189D01*
X132809952Y-73263293D01*
X132782925Y-73271855D01*
X132759606Y-73281125D01*
X132750913Y-73285412D01*
X132714878Y-73309344D01*
X132684531Y-73338944D01*
X132660353Y-73373369D01*
X132642830Y-73411775D01*
X132632444Y-73453320D01*
X132629669Y-73496814D01*
X132541074Y-73496814D01*
X132544124Y-73451334D01*
X132547012Y-73434142D01*
X132559723Y-73388946D01*
X132579330Y-73346659D01*
X132605084Y-73308516D01*
X132636237Y-73275748D01*
X132650512Y-73264066D01*
X132679758Y-73243795D01*
X132709668Y-73227192D01*
X132742499Y-73213211D01*
X132780506Y-73200809D01*
X132797579Y-73196079D01*
X132852403Y-73184112D01*
X132902790Y-73178716D01*
X132949500Y-73179944D01*
G37*
G36*
X122369297Y-74332460D02*
G01*
X122368729Y-74338830D01*
X122366019Y-74350511D01*
X122361019Y-74368032D01*
X122353581Y-74391918D01*
X122343557Y-74422696D01*
X122333758Y-74452091D01*
X122324417Y-74479926D01*
X122315557Y-74506361D01*
X122306912Y-74532201D01*
X122298212Y-74558248D01*
X122289192Y-74585310D01*
X122279584Y-74614187D01*
X122269122Y-74645688D01*
X122257536Y-74680614D01*
X122244561Y-74719771D01*
X122229928Y-74763962D01*
X122213371Y-74813993D01*
X122194624Y-74870666D01*
X122182653Y-74906860D01*
X122171000Y-74942091D01*
X122159220Y-74977698D01*
X122147818Y-75012159D01*
X122137296Y-75043952D01*
X122128159Y-75071554D01*
X122120909Y-75093444D01*
X122118419Y-75100961D01*
X122110916Y-75123604D01*
X122101568Y-75151825D01*
X122091150Y-75183290D01*
X122080432Y-75215665D01*
X122070189Y-75246612D01*
X122069037Y-75250094D01*
X122046290Y-75318757D01*
X122023599Y-75387121D01*
X122001114Y-75454731D01*
X121978991Y-75521128D01*
X121957384Y-75585857D01*
X121936447Y-75648460D01*
X121916331Y-75708483D01*
X121897193Y-75765469D01*
X121879185Y-75818959D01*
X121862462Y-75868498D01*
X121847177Y-75913631D01*
X121833485Y-75953899D01*
X121821537Y-75988847D01*
X121811490Y-76018019D01*
X121803496Y-76040957D01*
X121797710Y-76057205D01*
X121794285Y-76066307D01*
X121793385Y-76068182D01*
X121790217Y-76065235D01*
X121783116Y-76056711D01*
X121773020Y-76043789D01*
X121760867Y-76027656D01*
X121755985Y-76021037D01*
X121686993Y-75920043D01*
X121624358Y-75814028D01*
X121568343Y-75703657D01*
X121519219Y-75589597D01*
X121477250Y-75472511D01*
X121442703Y-75353074D01*
X121415844Y-75231943D01*
X121399269Y-75128247D01*
X121394780Y-75090923D01*
X121390735Y-75051166D01*
X121387213Y-75010349D01*
X121384296Y-74969845D01*
X121382065Y-74931026D01*
X121380600Y-74895263D01*
X121379983Y-74863930D01*
X121380296Y-74838398D01*
X121381262Y-74823145D01*
X121381664Y-74819258D01*
X121382570Y-74815985D01*
X121384865Y-74812790D01*
X121389431Y-74809137D01*
X121397153Y-74804489D01*
X121408915Y-74798309D01*
X121425601Y-74790060D01*
X121448096Y-74779206D01*
X121474473Y-74766557D01*
X121498597Y-74754946D01*
X121526796Y-74741307D01*
X121555660Y-74727292D01*
X121581788Y-74714549D01*
X121583281Y-74713819D01*
X121638822Y-74686639D01*
X121687949Y-74662592D01*
X121731737Y-74641154D01*
X121771259Y-74621795D01*
X121807589Y-74603991D01*
X121841800Y-74587217D01*
X121874965Y-74570945D01*
X121908158Y-74554649D01*
X121942454Y-74537802D01*
X121978924Y-74519880D01*
X121983629Y-74517567D01*
X122049741Y-74485083D01*
X122108677Y-74456152D01*
X122160733Y-74430631D01*
X122206201Y-74408377D01*
X122245376Y-74389248D01*
X122278551Y-74373100D01*
X122306020Y-74359791D01*
X122328077Y-74349179D01*
X122345016Y-74341119D01*
X122357132Y-74335469D01*
X122364717Y-74332089D01*
X122367872Y-74330878D01*
X122369297Y-74332460D01*
G37*
G36*
X133994891Y-72904340D02*
G01*
X134006255Y-72905433D01*
X134017851Y-72907304D01*
X134027314Y-72909157D01*
X134055439Y-72917544D01*
X134078315Y-72930613D01*
X134096822Y-72949240D01*
X134111842Y-72974301D01*
X134123718Y-73004972D01*
X134129953Y-73026196D01*
X134133208Y-73042267D01*
X134133905Y-73055640D01*
X134133508Y-73061344D01*
X134126209Y-73094184D01*
X134111418Y-73123541D01*
X134089065Y-73149521D01*
X134059074Y-73172229D01*
X134057505Y-73173201D01*
X134045720Y-73180775D01*
X134038555Y-73186099D01*
X134037101Y-73188323D01*
X134038100Y-73188224D01*
X134063159Y-73185973D01*
X134089677Y-73190022D01*
X134114373Y-73199821D01*
X134117262Y-73201479D01*
X134127683Y-73208499D01*
X134137215Y-73216954D01*
X134146461Y-73227799D01*
X134156030Y-73241982D01*
X134166526Y-73260459D01*
X134178554Y-73284182D01*
X134192719Y-73314101D01*
X134202683Y-73335830D01*
X134213230Y-73358426D01*
X134223768Y-73379949D01*
X134233339Y-73398510D01*
X134240984Y-73412228D01*
X134243680Y-73416526D01*
X134256906Y-73436146D01*
X134212963Y-73447920D01*
X134169021Y-73459694D01*
X134157009Y-73439867D01*
X134151230Y-73429552D01*
X134142747Y-73413390D01*
X134132414Y-73393067D01*
X134121094Y-73370270D01*
X134112014Y-73351614D01*
X134097101Y-73321140D01*
X134084782Y-73297368D01*
X134074319Y-73279367D01*
X134064977Y-73266202D01*
X134056019Y-73256936D01*
X134046708Y-73250634D01*
X134036306Y-73246363D01*
X134027111Y-73243872D01*
X134014607Y-73241503D01*
X134001645Y-73240431D01*
X133987143Y-73240819D01*
X133970012Y-73242830D01*
X133949167Y-73246629D01*
X133923521Y-73252377D01*
X133891989Y-73260238D01*
X133856837Y-73269481D01*
X133752169Y-73297427D01*
X133785352Y-73425518D01*
X133818535Y-73553607D01*
X133778345Y-73564376D01*
X133738154Y-73575145D01*
X133660958Y-73287042D01*
X133652023Y-73253699D01*
X133595789Y-73043830D01*
X133684218Y-73043830D01*
X133708999Y-73137812D01*
X133733779Y-73231793D01*
X133862545Y-73195690D01*
X133899363Y-73185308D01*
X133929027Y-73176784D01*
X133952430Y-73169826D01*
X133970466Y-73164137D01*
X133984030Y-73159423D01*
X133994018Y-73155389D01*
X134001322Y-73151744D01*
X134006841Y-73148188D01*
X134006867Y-73148169D01*
X134027542Y-73130130D01*
X134040490Y-73111338D01*
X134046194Y-73090395D01*
X134045137Y-73065904D01*
X134041333Y-73048458D01*
X134030855Y-73020576D01*
X134016297Y-72999652D01*
X133997835Y-72985907D01*
X133990011Y-72982672D01*
X133979923Y-72979879D01*
X133969059Y-72978336D01*
X133956488Y-72978189D01*
X133941278Y-72979581D01*
X133922495Y-72982662D01*
X133899207Y-72987570D01*
X133870481Y-72994458D01*
X133835385Y-73003467D01*
X133804973Y-73011531D01*
X133684218Y-73043830D01*
X133595789Y-73043830D01*
X133583761Y-72998939D01*
X133766319Y-72951790D01*
X133812890Y-72939801D01*
X133852233Y-72929807D01*
X133885177Y-72921672D01*
X133912551Y-72915263D01*
X133935185Y-72910441D01*
X133953907Y-72907074D01*
X133969546Y-72905025D01*
X133982931Y-72904159D01*
X133994891Y-72904340D01*
G37*
G36*
X130962613Y-73718074D02*
G01*
X130969592Y-73725509D01*
X130980923Y-73737743D01*
X130995347Y-73753414D01*
X131011609Y-73771155D01*
X131022386Y-73782952D01*
X131039811Y-73802027D01*
X131061205Y-73825413D01*
X131084898Y-73851287D01*
X131109220Y-73877826D01*
X131132501Y-73903203D01*
X131138188Y-73909398D01*
X131161555Y-73934900D01*
X131188579Y-73964489D01*
X131217342Y-73996053D01*
X131245924Y-74027485D01*
X131272407Y-74056682D01*
X131281917Y-74067189D01*
X131303297Y-74090760D01*
X131324121Y-74113591D01*
X131343350Y-74134551D01*
X131359951Y-74152512D01*
X131372881Y-74166348D01*
X131380120Y-74173928D01*
X131390917Y-74185135D01*
X131399082Y-74193878D01*
X131403175Y-74198608D01*
X131403392Y-74198971D01*
X131399800Y-74200624D01*
X131389700Y-74203894D01*
X131374646Y-74208308D01*
X131356469Y-74213315D01*
X131309106Y-74226006D01*
X131251820Y-74161540D01*
X131194534Y-74097074D01*
X131015598Y-74145020D01*
X130836663Y-74192966D01*
X130819453Y-74277393D01*
X130802243Y-74361820D01*
X130756914Y-74373966D01*
X130738839Y-74378579D01*
X130724059Y-74381913D01*
X130714203Y-74383633D01*
X130710892Y-74383519D01*
X130710824Y-74382819D01*
X130710943Y-74381390D01*
X130711341Y-74378797D01*
X130712112Y-74374608D01*
X130713351Y-74368393D01*
X130715154Y-74359716D01*
X130717613Y-74348148D01*
X130720823Y-74333255D01*
X130724878Y-74314605D01*
X130729873Y-74291766D01*
X130735902Y-74264304D01*
X130743059Y-74231790D01*
X130751440Y-74193790D01*
X130761137Y-74149872D01*
X130763525Y-74139067D01*
X130768951Y-74114511D01*
X130854529Y-74114511D01*
X130854540Y-74114679D01*
X130858773Y-74114911D01*
X130870759Y-74112813D01*
X130890545Y-74108378D01*
X130918176Y-74101593D01*
X130953698Y-74092448D01*
X130997159Y-74080931D01*
X130998532Y-74080563D01*
X131040813Y-74069113D01*
X131075861Y-74059361D01*
X131103506Y-74051358D01*
X131123578Y-74045158D01*
X131135907Y-74040808D01*
X131140321Y-74038360D01*
X131140324Y-74038232D01*
X131137421Y-74034271D01*
X131129753Y-74025036D01*
X131118035Y-74011332D01*
X131102981Y-73993965D01*
X131085306Y-73973740D01*
X131065724Y-73951462D01*
X131044950Y-73927936D01*
X131023699Y-73903969D01*
X131002686Y-73880365D01*
X130982623Y-73857929D01*
X130964226Y-73837468D01*
X130948211Y-73819785D01*
X130935291Y-73805688D01*
X130926181Y-73795979D01*
X130921595Y-73791467D01*
X130921193Y-73791260D01*
X130919876Y-73796125D01*
X130917151Y-73808033D01*
X130913241Y-73825908D01*
X130908369Y-73848675D01*
X130902753Y-73875260D01*
X130896617Y-73904586D01*
X130890182Y-73935579D01*
X130883670Y-73967163D01*
X130877302Y-73998265D01*
X130871300Y-74027807D01*
X130865885Y-74054717D01*
X130861278Y-74077917D01*
X130857703Y-74096332D01*
X130855379Y-74108889D01*
X130854529Y-74114511D01*
X130768951Y-74114511D01*
X130772246Y-74099602D01*
X130784861Y-74042550D01*
X130799075Y-73978283D01*
X130814984Y-73906368D01*
X130817242Y-73896165D01*
X130823491Y-73867826D01*
X130829830Y-73838933D01*
X130835763Y-73811744D01*
X130840800Y-73788516D01*
X130844004Y-73773585D01*
X130853011Y-73731263D01*
X130901648Y-73718231D01*
X130950286Y-73705199D01*
X130962613Y-73718074D01*
G37*
G36*
X130085355Y-73961240D02*
G01*
X130117449Y-73969868D01*
X130144386Y-73984733D01*
X130161707Y-74000440D01*
X130170075Y-74010100D01*
X130176136Y-74018687D01*
X130180897Y-74028351D01*
X130185365Y-74041241D01*
X130190544Y-74059508D01*
X130192157Y-74065502D01*
X130197955Y-74088737D01*
X130200927Y-74106591D01*
X130200960Y-74121566D01*
X130197939Y-74136162D01*
X130191749Y-74152880D01*
X130187699Y-74162208D01*
X130176542Y-74180467D01*
X130159794Y-74199488D01*
X130139647Y-74217069D01*
X130120056Y-74230049D01*
X130101531Y-74240369D01*
X130128053Y-74240513D01*
X130148274Y-74241670D01*
X130165986Y-74245364D01*
X130181842Y-74252286D01*
X130196490Y-74263125D01*
X130210579Y-74278573D01*
X130224760Y-74299318D01*
X130239683Y-74326050D01*
X130255994Y-74359460D01*
X130270749Y-74392060D01*
X130280273Y-74412725D01*
X130290742Y-74434059D01*
X130300480Y-74452689D01*
X130304397Y-74459672D01*
X130312023Y-74472939D01*
X130317772Y-74483186D01*
X130320563Y-74488485D01*
X130320665Y-74488749D01*
X130317133Y-74490560D01*
X130307170Y-74493923D01*
X130292417Y-74498314D01*
X130278832Y-74502067D01*
X130259926Y-74507046D01*
X130247401Y-74509902D01*
X130239604Y-74510718D01*
X130234884Y-74509577D01*
X130231586Y-74506564D01*
X130230062Y-74504533D01*
X130226377Y-74498233D01*
X130219716Y-74485670D01*
X130210714Y-74468090D01*
X130200010Y-74446741D01*
X130188237Y-74422868D01*
X130184249Y-74414698D01*
X130168706Y-74383234D01*
X130155846Y-74358478D01*
X130145021Y-74339498D01*
X130135585Y-74325363D01*
X130126890Y-74315142D01*
X130118291Y-74307899D01*
X130109140Y-74302705D01*
X130105424Y-74301091D01*
X130093731Y-74296971D01*
X130081742Y-74294371D01*
X130068420Y-74293415D01*
X130052733Y-74294227D01*
X130033645Y-74296930D01*
X130010120Y-74301643D01*
X129981124Y-74308493D01*
X129945621Y-74317602D01*
X129928753Y-74322068D01*
X129820047Y-74351036D01*
X129853230Y-74479127D01*
X129886411Y-74607216D01*
X129846221Y-74617985D01*
X129806031Y-74628754D01*
X129728911Y-74340941D01*
X129719744Y-74306726D01*
X129663665Y-74097439D01*
X129752096Y-74097439D01*
X129776092Y-74191319D01*
X129800089Y-74285197D01*
X129917869Y-74253571D01*
X129958227Y-74242575D01*
X129991070Y-74233262D01*
X130017001Y-74225447D01*
X130036623Y-74218940D01*
X130050544Y-74213556D01*
X130056944Y-74210503D01*
X130082707Y-74193856D01*
X130100524Y-74175521D01*
X130110720Y-74154805D01*
X130113624Y-74131017D01*
X130109560Y-74103465D01*
X130108828Y-74100636D01*
X130099913Y-74075332D01*
X130088104Y-74057044D01*
X130072345Y-74044655D01*
X130051583Y-74037052D01*
X130047889Y-74036238D01*
X130034537Y-74034100D01*
X130020556Y-74033281D01*
X130004927Y-74033950D01*
X129986636Y-74036277D01*
X129964664Y-74040432D01*
X129937993Y-74046584D01*
X129905607Y-74054901D01*
X129866487Y-74065554D01*
X129858462Y-74067786D01*
X129752096Y-74097439D01*
X129663665Y-74097439D01*
X129651792Y-74053129D01*
X129811782Y-74010293D01*
X129848409Y-74000586D01*
X129883806Y-73991396D01*
X129916873Y-73982993D01*
X129946501Y-73975653D01*
X129971584Y-73969647D01*
X129991016Y-73965249D01*
X130003693Y-73962733D01*
X130005017Y-73962524D01*
X130047934Y-73958805D01*
X130085355Y-73961240D01*
G37*
G36*
X122807756Y-75842842D02*
G01*
X122818815Y-75845851D01*
X122835712Y-75850996D01*
X122857437Y-75857961D01*
X122882979Y-75866425D01*
X122911327Y-75876072D01*
X122916097Y-75877719D01*
X122951742Y-75890040D01*
X122991032Y-75903609D01*
X123031432Y-75917554D01*
X123070410Y-75930999D01*
X123105432Y-75943071D01*
X123122010Y-75948781D01*
X123155601Y-75960351D01*
X123193019Y-75973247D01*
X123231411Y-75986486D01*
X123267925Y-75999085D01*
X123299707Y-76010058D01*
X123302617Y-76011063D01*
X123374911Y-76036038D01*
X123443774Y-76059826D01*
X123508476Y-76082175D01*
X123568287Y-76102833D01*
X123622472Y-76121545D01*
X123670302Y-76138062D01*
X123711047Y-76152129D01*
X123713992Y-76153146D01*
X123752628Y-76166520D01*
X123795660Y-76181479D01*
X123841839Y-76197586D01*
X123889914Y-76214399D01*
X123938638Y-76231482D01*
X123986759Y-76248394D01*
X124033029Y-76264696D01*
X124076198Y-76279951D01*
X124115017Y-76293718D01*
X124148236Y-76305558D01*
X124170455Y-76313534D01*
X124201121Y-76324573D01*
X124235792Y-76337022D01*
X124271105Y-76349674D01*
X124303700Y-76361326D01*
X124318532Y-76366615D01*
X124342862Y-76375318D01*
X124365584Y-76383513D01*
X124385083Y-76390613D01*
X124399745Y-76396031D01*
X124407304Y-76398915D01*
X124418262Y-76403121D01*
X124434459Y-76409149D01*
X124453281Y-76416029D01*
X124464337Y-76420018D01*
X124481092Y-76426165D01*
X124494372Y-76431297D01*
X124502582Y-76434778D01*
X124504453Y-76435927D01*
X124500977Y-76438673D01*
X124491998Y-76445275D01*
X124478819Y-76454790D01*
X124462744Y-76466267D01*
X124460280Y-76468018D01*
X124367901Y-76529497D01*
X124270719Y-76586445D01*
X124170112Y-76638210D01*
X124067462Y-76684141D01*
X123964150Y-76723585D01*
X123861555Y-76755892D01*
X123834617Y-76763187D01*
X123806093Y-76770480D01*
X123777675Y-76777461D01*
X123751277Y-76783679D01*
X123728814Y-76788686D01*
X123712203Y-76792033D01*
X123710392Y-76792354D01*
X123631390Y-76805135D01*
X123558971Y-76815016D01*
X123491956Y-76822133D01*
X123429169Y-76826623D01*
X123402744Y-76827794D01*
X123381370Y-76828308D01*
X123358164Y-76828446D01*
X123334616Y-76828253D01*
X123312213Y-76827765D01*
X123292445Y-76827028D01*
X123276799Y-76826081D01*
X123266765Y-76824965D01*
X123263765Y-76823943D01*
X123262237Y-76820433D01*
X123257886Y-76810892D01*
X123250618Y-76795111D01*
X123240334Y-76772876D01*
X123226936Y-76743979D01*
X123210326Y-76708207D01*
X123190407Y-76665351D01*
X123167082Y-76615200D01*
X123161540Y-76603286D01*
X123152107Y-76583089D01*
X123139598Y-76556422D01*
X123124512Y-76524342D01*
X123107350Y-76487908D01*
X123088613Y-76448180D01*
X123068800Y-76406214D01*
X123048411Y-76363069D01*
X123027947Y-76319803D01*
X123007907Y-76277476D01*
X122988792Y-76237143D01*
X122971102Y-76199864D01*
X122955337Y-76166697D01*
X122941997Y-76138701D01*
X122938926Y-76132270D01*
X122913158Y-76078327D01*
X122890771Y-76031418D01*
X122871542Y-75991062D01*
X122855247Y-75956780D01*
X122841659Y-75928090D01*
X122830558Y-75904512D01*
X122821715Y-75885566D01*
X122814909Y-75870771D01*
X122809915Y-75859648D01*
X122806507Y-75851714D01*
X122804463Y-75846492D01*
X122803558Y-75843498D01*
X122803545Y-75842288D01*
X122807756Y-75842842D01*
G37*
G36*
X122282423Y-75149579D02*
G01*
X122285203Y-75153276D01*
X122289390Y-75160618D01*
X122295357Y-75172255D01*
X122303480Y-75188842D01*
X122314134Y-75211030D01*
X122327692Y-75239473D01*
X122342996Y-75271602D01*
X122353395Y-75293409D01*
X122366746Y-75321390D01*
X122382405Y-75354198D01*
X122399730Y-75390487D01*
X122418079Y-75428913D01*
X122436809Y-75468128D01*
X122455277Y-75506786D01*
X122459872Y-75516405D01*
X122477819Y-75553992D01*
X122495883Y-75591878D01*
X122513478Y-75628828D01*
X122530017Y-75663607D01*
X122544912Y-75694979D01*
X122557576Y-75721710D01*
X122567423Y-75742564D01*
X122569946Y-75747929D01*
X122581573Y-75772614D01*
X122595685Y-75802458D01*
X122611165Y-75835102D01*
X122626893Y-75868188D01*
X122641752Y-75899360D01*
X122644384Y-75904872D01*
X122659852Y-75937330D01*
X122677231Y-75973941D01*
X122695156Y-76011821D01*
X122712259Y-76048080D01*
X122727175Y-76079833D01*
X122727724Y-76081002D01*
X122742179Y-76111821D01*
X122758920Y-76147439D01*
X122776662Y-76185125D01*
X122794119Y-76222148D01*
X122810006Y-76255777D01*
X122812504Y-76261059D01*
X122828161Y-76294212D01*
X122845767Y-76331595D01*
X122863990Y-76370371D01*
X122881495Y-76407703D01*
X122896949Y-76440753D01*
X122898927Y-76444992D01*
X122911281Y-76471424D01*
X122922951Y-76496285D01*
X122933314Y-76518260D01*
X122941751Y-76536035D01*
X122947639Y-76548293D01*
X122949574Y-76552223D01*
X122954868Y-76563064D01*
X122962515Y-76579125D01*
X122971393Y-76598043D01*
X122978558Y-76613487D01*
X122990208Y-76638669D01*
X123002701Y-76665569D01*
X123015473Y-76692966D01*
X123027943Y-76719639D01*
X123039544Y-76744369D01*
X123049702Y-76765931D01*
X123057845Y-76783107D01*
X123063401Y-76794676D01*
X123065257Y-76798423D01*
X123068035Y-76806174D01*
X123067140Y-76809783D01*
X123062088Y-76809379D01*
X123050247Y-76807675D01*
X123033021Y-76804899D01*
X123011812Y-76801275D01*
X122992606Y-76797857D01*
X122889247Y-76776114D01*
X122785262Y-76748356D01*
X122682527Y-76715212D01*
X122582919Y-76677309D01*
X122488311Y-76635274D01*
X122449779Y-76616159D01*
X122420916Y-76600714D01*
X122387291Y-76581680D01*
X122350894Y-76560265D01*
X122313716Y-76537683D01*
X122277743Y-76515142D01*
X122244967Y-76493854D01*
X122217379Y-76475030D01*
X122214583Y-76473045D01*
X122161539Y-76433750D01*
X122106820Y-76390539D01*
X122052554Y-76345206D01*
X122000870Y-76299543D01*
X121953900Y-76255344D01*
X121941892Y-76243482D01*
X121926085Y-76227681D01*
X121957375Y-76129318D01*
X121966120Y-76101853D01*
X121974489Y-76075640D01*
X121982648Y-76050172D01*
X121990763Y-76024946D01*
X121999003Y-75999454D01*
X122007534Y-75973190D01*
X122016524Y-75945650D01*
X122026141Y-75916327D01*
X122036550Y-75884716D01*
X122047918Y-75850308D01*
X122060414Y-75812601D01*
X122074205Y-75771088D01*
X122089458Y-75725263D01*
X122106339Y-75674620D01*
X122125016Y-75618654D01*
X122145657Y-75556858D01*
X122168427Y-75488727D01*
X122193496Y-75413755D01*
X122221029Y-75331436D01*
X122223872Y-75322936D01*
X122235397Y-75288401D01*
X122246150Y-75256017D01*
X122255827Y-75226710D01*
X122264126Y-75201410D01*
X122270742Y-75181043D01*
X122275370Y-75166537D01*
X122277707Y-75158818D01*
X122277873Y-75158173D01*
X122278774Y-75153823D01*
X122279584Y-75150505D01*
X122280675Y-75148873D01*
X122282423Y-75149579D01*
G37*
G36*
X128004629Y-74515737D02*
G01*
X128033017Y-74521103D01*
X128056742Y-74531051D01*
X128077246Y-74546109D01*
X128088445Y-74557635D01*
X128098612Y-74569790D01*
X128105574Y-74580183D01*
X128110751Y-74591636D01*
X128115560Y-74606980D01*
X128118298Y-74617096D01*
X128124412Y-74650927D01*
X128123522Y-74680859D01*
X128115348Y-74707589D01*
X128099606Y-74731813D01*
X128076016Y-74754225D01*
X128057355Y-74767497D01*
X128037140Y-74780593D01*
X128060517Y-74779298D01*
X128097103Y-74780897D01*
X128130678Y-74789662D01*
X128160376Y-74805258D01*
X128185337Y-74827351D01*
X128185717Y-74827783D01*
X128193376Y-74837311D01*
X128199169Y-74847041D01*
X128204150Y-74859302D01*
X128209375Y-74876421D01*
X128211862Y-74885494D01*
X128216881Y-74905125D01*
X128219624Y-74919438D01*
X128220324Y-74931062D01*
X128219219Y-74942624D01*
X128217725Y-74950939D01*
X128208213Y-74982047D01*
X128192229Y-75010305D01*
X128169206Y-75036452D01*
X128138581Y-75061235D01*
X128128772Y-75067896D01*
X128123333Y-75071196D01*
X128116821Y-75074486D01*
X128108481Y-75078002D01*
X128097556Y-75081982D01*
X128083289Y-75086664D01*
X128064923Y-75092285D01*
X128041702Y-75099082D01*
X128012869Y-75107291D01*
X127977667Y-75117150D01*
X127935341Y-75128896D01*
X127925239Y-75131690D01*
X127741501Y-75182492D01*
X127697221Y-75017236D01*
X127664226Y-74894094D01*
X127664110Y-74893660D01*
X127754696Y-74893660D01*
X127781740Y-74994590D01*
X127808784Y-75095519D01*
X127938198Y-75059314D01*
X127974036Y-75049263D01*
X128002794Y-75041100D01*
X128025429Y-75034499D01*
X128042894Y-75029131D01*
X128056144Y-75024669D01*
X128066134Y-75020783D01*
X128073816Y-75017146D01*
X128080149Y-75013432D01*
X128086083Y-75009310D01*
X128088120Y-75007802D01*
X128109490Y-74987971D01*
X128122866Y-74966071D01*
X128128443Y-74941545D01*
X128126409Y-74913837D01*
X128124065Y-74903769D01*
X128113159Y-74876198D01*
X128096898Y-74854991D01*
X128075246Y-74840123D01*
X128048164Y-74831565D01*
X128019070Y-74829237D01*
X128009572Y-74829796D01*
X127997417Y-74831492D01*
X127981677Y-74834533D01*
X127961423Y-74839127D01*
X127935727Y-74845480D01*
X127903662Y-74853802D01*
X127874591Y-74861534D01*
X127754696Y-74893660D01*
X127664110Y-74893660D01*
X127628167Y-74759521D01*
X127598316Y-74648114D01*
X127688902Y-74648114D01*
X127712685Y-74736875D01*
X127736469Y-74825637D01*
X127867954Y-74789108D01*
X127903892Y-74779113D01*
X127932716Y-74771026D01*
X127955342Y-74764530D01*
X127972683Y-74759305D01*
X127985655Y-74755029D01*
X127995176Y-74751384D01*
X128002159Y-74748050D01*
X128007519Y-74744707D01*
X128012172Y-74741037D01*
X128016463Y-74737233D01*
X128032880Y-74717390D01*
X128041538Y-74694630D01*
X128042289Y-74669335D01*
X128042252Y-74669036D01*
X128035628Y-74640652D01*
X128023792Y-74618320D01*
X128007546Y-74602817D01*
X127995461Y-74595949D01*
X127982255Y-74591160D01*
X127967078Y-74588521D01*
X127949077Y-74588104D01*
X127927397Y-74589981D01*
X127901186Y-74594225D01*
X127869592Y-74600906D01*
X127831761Y-74610098D01*
X127789228Y-74621232D01*
X127688902Y-74648114D01*
X127598316Y-74648114D01*
X127586950Y-74605696D01*
X127763502Y-74560275D01*
X127807245Y-74549061D01*
X127843754Y-74539804D01*
X127873849Y-74532324D01*
X127898351Y-74526438D01*
X127918079Y-74521964D01*
X127933853Y-74518721D01*
X127946495Y-74516526D01*
X127956822Y-74515198D01*
X127965656Y-74514554D01*
X127970134Y-74514427D01*
X128004629Y-74515737D01*
G37*
G36*
X125258112Y-75132527D02*
G01*
X125256924Y-75143366D01*
X125254633Y-75159060D01*
X125251680Y-75176681D01*
X125247984Y-75197625D01*
X125244504Y-75217425D01*
X125241684Y-75233534D01*
X125240239Y-75241859D01*
X125232985Y-75278814D01*
X125223090Y-75321595D01*
X125211104Y-75368333D01*
X125197568Y-75417152D01*
X125183030Y-75466179D01*
X125168038Y-75513541D01*
X125153134Y-75557365D01*
X125138866Y-75595778D01*
X125132615Y-75611236D01*
X125126837Y-75624858D01*
X125119617Y-75641577D01*
X125111717Y-75659666D01*
X125103899Y-75677399D01*
X125096926Y-75693048D01*
X125091561Y-75704887D01*
X125088564Y-75711187D01*
X125088295Y-75711664D01*
X125085877Y-75716329D01*
X125080748Y-75726763D01*
X125073770Y-75741208D01*
X125068907Y-75751374D01*
X125046005Y-75796440D01*
X125018369Y-75845856D01*
X124987049Y-75897974D01*
X124953095Y-75951145D01*
X124917554Y-76003720D01*
X124881480Y-76054050D01*
X124849779Y-76095610D01*
X124833898Y-76115279D01*
X124815480Y-76137309D01*
X124795307Y-76160840D01*
X124774161Y-76185010D01*
X124752824Y-76208956D01*
X124732082Y-76231819D01*
X124712714Y-76252734D01*
X124695505Y-76270843D01*
X124681236Y-76285283D01*
X124670690Y-76295192D01*
X124664651Y-76299710D01*
X124664255Y-76299851D01*
X124659789Y-76298734D01*
X124648306Y-76295222D01*
X124630679Y-76289600D01*
X124607783Y-76282152D01*
X124580488Y-76273164D01*
X124549672Y-76262919D01*
X124516205Y-76251701D01*
X124509620Y-76249484D01*
X124345344Y-76193748D01*
X124188635Y-76139792D01*
X124038964Y-76087436D01*
X124005812Y-76075719D01*
X123939448Y-76052189D01*
X123880568Y-76031249D01*
X123828780Y-76012749D01*
X123783695Y-75996548D01*
X123744923Y-75982499D01*
X123712076Y-75970456D01*
X123684762Y-75960273D01*
X123662593Y-75951806D01*
X123645178Y-75944909D01*
X123632126Y-75939435D01*
X123623049Y-75935241D01*
X123617559Y-75932179D01*
X123615263Y-75930104D01*
X123615168Y-75929864D01*
X123618086Y-75926374D01*
X123626546Y-75921360D01*
X123632622Y-75918534D01*
X123643777Y-75913508D01*
X123660089Y-75905853D01*
X123679260Y-75896658D01*
X123696729Y-75888130D01*
X123717640Y-75877875D01*
X123743202Y-75865411D01*
X123770550Y-75852129D01*
X123796826Y-75839421D01*
X123803587Y-75836162D01*
X123829517Y-75823664D01*
X123858794Y-75809541D01*
X123890546Y-75794210D01*
X123923905Y-75778095D01*
X123958000Y-75761615D01*
X123991963Y-75745191D01*
X124024924Y-75729245D01*
X124056014Y-75714196D01*
X124084362Y-75700466D01*
X124109100Y-75688475D01*
X124129357Y-75678643D01*
X124144265Y-75671393D01*
X124152953Y-75667144D01*
X124154655Y-75666296D01*
X124160218Y-75663539D01*
X124172313Y-75657613D01*
X124189975Y-75648987D01*
X124212239Y-75638132D01*
X124238141Y-75625517D01*
X124266717Y-75611613D01*
X124282699Y-75603843D01*
X124318917Y-75586218D01*
X124358884Y-75566736D01*
X124400311Y-75546515D01*
X124440905Y-75526674D01*
X124478373Y-75508333D01*
X124507753Y-75493924D01*
X124542228Y-75477003D01*
X124581566Y-75457708D01*
X124623145Y-75437325D01*
X124664339Y-75417140D01*
X124702525Y-75398442D01*
X124721274Y-75389266D01*
X124798110Y-75351664D01*
X124870341Y-75316301D01*
X124937530Y-75283392D01*
X124999238Y-75253150D01*
X125055026Y-75225791D01*
X125104458Y-75201531D01*
X125147094Y-75180581D01*
X125168777Y-75169914D01*
X125193526Y-75157824D01*
X125215720Y-75147154D01*
X125234290Y-75138402D01*
X125248176Y-75132071D01*
X125256306Y-75128654D01*
X125257983Y-75128210D01*
X125258112Y-75132527D01*
G37*
G36*
X122003936Y-73438664D02*
G01*
X122016109Y-73442096D01*
X122033534Y-73447634D01*
X122054936Y-73454869D01*
X122079038Y-73463393D01*
X122084453Y-73465356D01*
X122111695Y-73475252D01*
X122139040Y-73485147D01*
X122164493Y-73494322D01*
X122186057Y-73502058D01*
X122201438Y-73507528D01*
X122214675Y-73512202D01*
X122234454Y-73519191D01*
X122259461Y-73528030D01*
X122288381Y-73538253D01*
X122319897Y-73549398D01*
X122352697Y-73560997D01*
X122366121Y-73565745D01*
X122401067Y-73578102D01*
X122437049Y-73590818D01*
X122472365Y-73603292D01*
X122505312Y-73614923D01*
X122534187Y-73625109D01*
X122557287Y-73633250D01*
X122561462Y-73634720D01*
X122585020Y-73643015D01*
X122612782Y-73652800D01*
X122645261Y-73664255D01*
X122682963Y-73677560D01*
X122726399Y-73692894D01*
X122776076Y-73710437D01*
X122832505Y-73730369D01*
X122896196Y-73752869D01*
X122907851Y-73756987D01*
X122943405Y-73769574D01*
X122971840Y-73779720D01*
X122993906Y-73787718D01*
X123010354Y-73793863D01*
X123021937Y-73798454D01*
X123029404Y-73801783D01*
X123033508Y-73804146D01*
X123035000Y-73805841D01*
X123034808Y-73806925D01*
X123030303Y-73810068D01*
X123019719Y-73816002D01*
X123004512Y-73823950D01*
X122986136Y-73833138D01*
X122980726Y-73835775D01*
X122970106Y-73840954D01*
X122952560Y-73849546D01*
X122928639Y-73861281D01*
X122898892Y-73875888D01*
X122863868Y-73893097D01*
X122824120Y-73912637D01*
X122780196Y-73934239D01*
X122732645Y-73957632D01*
X122682018Y-73982544D01*
X122628865Y-74008708D01*
X122573734Y-74035850D01*
X122517178Y-74063702D01*
X122506198Y-74069109D01*
X122446530Y-74098493D01*
X122386221Y-74128181D01*
X122326020Y-74157801D01*
X122266679Y-74186989D01*
X122208950Y-74215374D01*
X122153582Y-74242587D01*
X122101325Y-74268259D01*
X122052935Y-74292021D01*
X122009155Y-74313505D01*
X121970742Y-74332341D01*
X121938444Y-74348159D01*
X121917283Y-74358508D01*
X121881632Y-74375939D01*
X121847387Y-74392713D01*
X121815470Y-74408375D01*
X121786805Y-74422470D01*
X121762314Y-74434547D01*
X121742919Y-74444149D01*
X121729545Y-74450822D01*
X121724822Y-74453218D01*
X121715006Y-74458144D01*
X121698705Y-74466178D01*
X121676949Y-74476819D01*
X121650765Y-74489568D01*
X121621179Y-74503922D01*
X121589221Y-74519383D01*
X121555916Y-74535451D01*
X121555015Y-74535885D01*
X121522693Y-74551476D01*
X121492552Y-74566058D01*
X121465463Y-74579206D01*
X121442291Y-74590496D01*
X121423909Y-74599506D01*
X121411182Y-74605813D01*
X121404978Y-74608992D01*
X121404686Y-74609162D01*
X121399268Y-74610936D01*
X121398344Y-74606584D01*
X121401286Y-74583258D01*
X121405674Y-74554588D01*
X121411167Y-74522329D01*
X121417425Y-74488236D01*
X121424108Y-74454061D01*
X121430875Y-74421561D01*
X121437385Y-74392488D01*
X121443298Y-74368598D01*
X121447127Y-74355169D01*
X121450782Y-74343321D01*
X121456023Y-74326109D01*
X121462054Y-74306158D01*
X121466303Y-74292019D01*
X121487097Y-74227785D01*
X121511695Y-74160532D01*
X121539235Y-74092248D01*
X121568854Y-74024920D01*
X121599690Y-73960534D01*
X121630883Y-73901077D01*
X121651817Y-73864539D01*
X121678532Y-73821776D01*
X121709793Y-73775099D01*
X121744191Y-73726420D01*
X121780314Y-73677650D01*
X121816749Y-73630700D01*
X121852086Y-73587484D01*
X121880978Y-73554252D01*
X121899854Y-73533658D01*
X121919433Y-73512914D01*
X121938774Y-73492961D01*
X121956931Y-73474731D01*
X121972961Y-73459165D01*
X121985924Y-73447196D01*
X121994874Y-73439763D01*
X121998292Y-73437749D01*
X122003936Y-73438664D01*
G37*
G36*
X123322480Y-72915343D02*
G01*
X123353411Y-72916281D01*
X123378425Y-72918100D01*
X123381758Y-72918474D01*
X123392563Y-72920484D01*
X123399604Y-72924723D01*
X123405669Y-72933378D01*
X123409188Y-72940006D01*
X123414292Y-72950196D01*
X123422444Y-72966736D01*
X123433080Y-72988460D01*
X123445636Y-73014208D01*
X123459549Y-73042817D01*
X123474252Y-73073123D01*
X123489184Y-73103964D01*
X123503778Y-73134179D01*
X123517472Y-73162603D01*
X123529703Y-73188074D01*
X123539904Y-73209430D01*
X123540166Y-73209979D01*
X123552200Y-73235217D01*
X123565828Y-73263707D01*
X123579217Y-73291619D01*
X123588689Y-73311305D01*
X123597591Y-73329802D01*
X123609190Y-73353955D01*
X123622595Y-73381904D01*
X123636913Y-73411787D01*
X123651250Y-73441741D01*
X123657436Y-73454675D01*
X123670688Y-73482378D01*
X123683577Y-73509291D01*
X123695399Y-73533950D01*
X123705453Y-73554893D01*
X123713037Y-73570656D01*
X123716108Y-73577013D01*
X123725278Y-73595989D01*
X123735706Y-73617636D01*
X123744641Y-73636240D01*
X123758217Y-73664508D01*
X123772720Y-73694604D01*
X123787693Y-73725590D01*
X123802677Y-73756527D01*
X123817221Y-73786478D01*
X123830865Y-73814505D01*
X123843150Y-73839670D01*
X123853625Y-73861035D01*
X123861829Y-73877661D01*
X123867307Y-73888611D01*
X123869572Y-73892905D01*
X123871081Y-73896098D01*
X123869364Y-73897280D01*
X123863415Y-73896218D01*
X123852226Y-73892678D01*
X123834790Y-73886428D01*
X123823563Y-73882269D01*
X123805716Y-73875718D01*
X123782113Y-73867196D01*
X123754874Y-73857460D01*
X123726116Y-73847268D01*
X123698246Y-73837478D01*
X123649327Y-73820381D01*
X123607370Y-73805715D01*
X123571473Y-73793166D01*
X123540732Y-73782418D01*
X123514242Y-73773151D01*
X123491098Y-73765052D01*
X123470399Y-73757804D01*
X123451238Y-73751091D01*
X123432712Y-73744594D01*
X123413918Y-73738001D01*
X123399648Y-73732992D01*
X123368446Y-73722056D01*
X123332876Y-73709617D01*
X123296421Y-73696891D01*
X123262563Y-73685095D01*
X123247361Y-73679808D01*
X123190148Y-73659914D01*
X123137610Y-73641611D01*
X123086541Y-73623778D01*
X123033736Y-73605297D01*
X122995148Y-73591770D01*
X122965454Y-73581356D01*
X122932092Y-73569658D01*
X122898441Y-73557859D01*
X122867888Y-73547148D01*
X122857080Y-73543360D01*
X122830833Y-73534146D01*
X122800801Y-73523581D01*
X122768077Y-73512052D01*
X122733760Y-73499945D01*
X122698945Y-73487651D01*
X122664732Y-73475556D01*
X122632216Y-73464048D01*
X122602493Y-73453515D01*
X122576659Y-73444345D01*
X122555813Y-73436925D01*
X122541051Y-73431645D01*
X122535431Y-73429613D01*
X122525049Y-73425844D01*
X122508353Y-73419805D01*
X122486871Y-73412047D01*
X122462130Y-73403122D01*
X122435659Y-73393582D01*
X122427978Y-73390815D01*
X122400866Y-73381044D01*
X122374650Y-73371582D01*
X122350966Y-73363020D01*
X122331448Y-73355949D01*
X122317730Y-73350960D01*
X122315407Y-73350111D01*
X122301521Y-73345040D01*
X122282130Y-73337978D01*
X122259567Y-73329775D01*
X122236162Y-73321278D01*
X122230617Y-73319267D01*
X122210176Y-73311702D01*
X122192776Y-73304975D01*
X122179806Y-73299642D01*
X122172657Y-73296267D01*
X122171706Y-73295522D01*
X122174593Y-73291633D01*
X122183685Y-73284034D01*
X122198076Y-73273360D01*
X122216861Y-73260246D01*
X122239134Y-73245329D01*
X122263991Y-73229246D01*
X122283447Y-73217010D01*
X122395272Y-73151867D01*
X122508009Y-73094905D01*
X122622096Y-73045984D01*
X122737968Y-73004964D01*
X122856059Y-72971703D01*
X122976808Y-72946067D01*
X123100648Y-72927909D01*
X123214566Y-72917881D01*
X123251017Y-72916135D01*
X123287668Y-72915292D01*
X123322480Y-72915343D01*
G37*
G36*
X123618026Y-72939858D02*
G01*
X123635710Y-72942571D01*
X123658289Y-72946619D01*
X123684698Y-72951774D01*
X123713873Y-72957813D01*
X123744750Y-72964508D01*
X123776265Y-72971637D01*
X123807352Y-72978973D01*
X123836948Y-72986293D01*
X123863987Y-72993371D01*
X123884572Y-72999146D01*
X123910674Y-73007179D01*
X123940673Y-73017076D01*
X123973044Y-73028271D01*
X124006263Y-73040201D01*
X124038801Y-73052301D01*
X124069135Y-73064004D01*
X124095738Y-73074748D01*
X124117085Y-73083966D01*
X124128878Y-73089615D01*
X124137551Y-73093898D01*
X124151051Y-73100347D01*
X124166631Y-73107654D01*
X124168446Y-73108496D01*
X124190191Y-73119184D01*
X124217149Y-73133369D01*
X124247529Y-73150030D01*
X124279546Y-73168140D01*
X124311408Y-73186680D01*
X124341324Y-73204624D01*
X124367510Y-73220949D01*
X124384154Y-73231877D01*
X124402342Y-73244176D01*
X124419075Y-73255422D01*
X124432599Y-73264441D01*
X124441162Y-73270060D01*
X124441682Y-73270392D01*
X124461205Y-73283814D01*
X124485563Y-73302161D01*
X124513663Y-73324491D01*
X124544417Y-73349866D01*
X124576734Y-73377346D01*
X124609524Y-73405992D01*
X124641696Y-73434865D01*
X124672162Y-73463026D01*
X124699830Y-73489534D01*
X124722842Y-73512653D01*
X124736429Y-73526731D01*
X124716657Y-73581922D01*
X124711999Y-73595147D01*
X124704944Y-73615478D01*
X124695765Y-73642123D01*
X124684729Y-73674293D01*
X124672109Y-73711195D01*
X124658173Y-73752041D01*
X124643193Y-73796038D01*
X124627437Y-73842395D01*
X124611177Y-73890324D01*
X124599988Y-73923356D01*
X124570352Y-74010728D01*
X124542463Y-74092598D01*
X124516400Y-74168732D01*
X124492246Y-74238901D01*
X124470082Y-74302871D01*
X124449988Y-74360409D01*
X124432048Y-74411285D01*
X124416340Y-74455265D01*
X124402947Y-74492118D01*
X124391950Y-74521612D01*
X124383430Y-74543514D01*
X124380626Y-74550357D01*
X124375784Y-74561907D01*
X124369416Y-74549047D01*
X124365880Y-74541768D01*
X124359338Y-74528165D01*
X124350364Y-74509443D01*
X124339537Y-74486802D01*
X124327429Y-74461446D01*
X124318372Y-74442454D01*
X124305090Y-74414592D01*
X124292121Y-74387380D01*
X124280174Y-74362322D01*
X124269967Y-74340912D01*
X124262212Y-74324651D01*
X124259098Y-74318120D01*
X124250738Y-74300536D01*
X124242456Y-74283012D01*
X124235949Y-74269139D01*
X124235575Y-74268336D01*
X124231549Y-74259788D01*
X124224484Y-74244895D01*
X124214939Y-74224830D01*
X124203472Y-74200764D01*
X124190645Y-74173873D01*
X124177017Y-74145328D01*
X124163147Y-74116299D01*
X124149594Y-74087963D01*
X124136921Y-74061490D01*
X124125684Y-74038052D01*
X124122382Y-74031175D01*
X124114069Y-74013812D01*
X124104212Y-73993144D01*
X124094833Y-73973410D01*
X124094107Y-73971879D01*
X124087532Y-73958070D01*
X124078161Y-73938476D01*
X124066820Y-73914819D01*
X124054333Y-73888820D01*
X124041529Y-73862201D01*
X124039113Y-73857185D01*
X124025077Y-73828042D01*
X124010009Y-73796754D01*
X123995077Y-73765748D01*
X123981453Y-73737456D01*
X123970565Y-73714842D01*
X123957398Y-73687491D01*
X123942377Y-73656292D01*
X123927266Y-73624903D01*
X123913827Y-73596988D01*
X123912614Y-73594468D01*
X123901384Y-73571152D01*
X123887704Y-73542758D01*
X123872745Y-73511718D01*
X123857675Y-73480461D01*
X123844019Y-73452138D01*
X123831308Y-73425768D01*
X123818834Y-73399845D01*
X123807400Y-73376046D01*
X123797812Y-73356050D01*
X123790876Y-73341536D01*
X123789850Y-73339379D01*
X123780245Y-73319199D01*
X123769488Y-73296650D01*
X123760652Y-73278172D01*
X123752253Y-73260601D01*
X123743914Y-73243093D01*
X123737342Y-73229238D01*
X123736962Y-73228434D01*
X123732667Y-73219369D01*
X123725396Y-73204063D01*
X123715761Y-73183800D01*
X123704372Y-73159863D01*
X123691839Y-73133538D01*
X123682360Y-73113633D01*
X123663074Y-73073141D01*
X123647079Y-73039523D01*
X123634073Y-73012131D01*
X123623754Y-72990318D01*
X123615824Y-72973433D01*
X123609980Y-72960832D01*
X123605927Y-72951863D01*
X123603359Y-72945881D01*
X123601980Y-72942236D01*
X123601487Y-72940281D01*
X123601580Y-72939368D01*
X123601600Y-72939328D01*
X123606301Y-72938701D01*
X123618026Y-72939858D01*
G37*
G36*
X136407374Y-72248087D02*
G01*
X136436661Y-72252850D01*
X136464708Y-72260321D01*
X136488164Y-72269771D01*
X136489955Y-72270704D01*
X136513472Y-72286548D01*
X136535011Y-72307109D01*
X136552272Y-72329946D01*
X136560355Y-72345437D01*
X136568046Y-72363870D01*
X136523227Y-72375879D01*
X136503347Y-72381040D01*
X136490095Y-72383963D01*
X136482117Y-72384813D01*
X136478064Y-72383757D01*
X136476720Y-72381590D01*
X136473297Y-72374904D01*
X136466352Y-72364594D01*
X136460963Y-72357459D01*
X136441824Y-72339870D01*
X136416622Y-72327693D01*
X136385783Y-72321112D01*
X136374416Y-72320199D01*
X136354090Y-72320788D01*
X136328519Y-72323920D01*
X136300182Y-72329055D01*
X136271556Y-72335653D01*
X136245122Y-72343178D01*
X136223356Y-72351086D01*
X136215381Y-72354816D01*
X136189036Y-72371611D01*
X136167926Y-72391224D01*
X136152282Y-72412685D01*
X136142334Y-72435019D01*
X136138309Y-72457254D01*
X136140439Y-72478419D01*
X136148954Y-72497540D01*
X136164082Y-72513646D01*
X136176073Y-72521273D01*
X136184831Y-72525015D01*
X136195432Y-72527763D01*
X136208699Y-72529511D01*
X136225461Y-72530251D01*
X136246544Y-72529979D01*
X136272774Y-72528687D01*
X136304979Y-72526367D01*
X136343984Y-72523017D01*
X136379423Y-72519705D01*
X136418185Y-72516059D01*
X136449674Y-72513272D01*
X136474905Y-72511300D01*
X136494889Y-72510096D01*
X136510637Y-72509613D01*
X136523162Y-72509807D01*
X136533477Y-72510632D01*
X136542593Y-72512041D01*
X136543697Y-72512256D01*
X136577418Y-72522497D01*
X136605697Y-72538882D01*
X136627159Y-72559434D01*
X136635857Y-72570770D01*
X136642233Y-72582050D01*
X136647576Y-72596045D01*
X136653052Y-72615055D01*
X136659502Y-72646261D01*
X136660491Y-72673293D01*
X136655740Y-72698507D01*
X136644970Y-72724256D01*
X136638779Y-72735463D01*
X136618143Y-72765389D01*
X136593109Y-72791513D01*
X136562890Y-72814360D01*
X136526694Y-72834447D01*
X136483733Y-72852297D01*
X136440530Y-72866328D01*
X136418321Y-72872715D01*
X136398627Y-72878187D01*
X136382967Y-72882332D01*
X136372862Y-72884747D01*
X136370097Y-72885197D01*
X136362963Y-72885677D01*
X136350185Y-72886789D01*
X136334403Y-72888301D01*
X136332891Y-72888453D01*
X136294493Y-72889576D01*
X136255487Y-72885830D01*
X136229028Y-72880178D01*
X136206520Y-72871353D01*
X136182628Y-72857683D01*
X136160579Y-72841260D01*
X136144783Y-72825613D01*
X136134569Y-72812003D01*
X136124772Y-72796622D01*
X136116567Y-72781605D01*
X136111124Y-72769085D01*
X136109574Y-72761494D01*
X136113338Y-72757848D01*
X136124252Y-72753403D01*
X136142791Y-72747979D01*
X136150027Y-72746104D01*
X136169858Y-72741077D01*
X136183027Y-72737894D01*
X136190969Y-72736429D01*
X136195116Y-72736557D01*
X136196904Y-72738150D01*
X136197768Y-72741083D01*
X136197973Y-72741885D01*
X136206600Y-72759963D01*
X136221764Y-72777559D01*
X136241727Y-72793212D01*
X136264750Y-72805458D01*
X136279947Y-72810743D01*
X136311772Y-72816059D01*
X136347420Y-72816189D01*
X136385219Y-72811619D01*
X136423496Y-72802837D01*
X136460578Y-72790331D01*
X136494792Y-72774587D01*
X136524464Y-72756092D01*
X136547921Y-72735335D01*
X136551025Y-72731791D01*
X136567063Y-72707181D01*
X136574953Y-72681339D01*
X136574621Y-72654523D01*
X136574173Y-72652004D01*
X136567706Y-72630297D01*
X136557014Y-72614627D01*
X136540559Y-72603148D01*
X136529674Y-72598396D01*
X136516525Y-72594164D01*
X136502165Y-72591353D01*
X136485519Y-72589985D01*
X136465507Y-72590083D01*
X136441051Y-72591669D01*
X136411077Y-72594767D01*
X136374503Y-72599401D01*
X136354638Y-72602127D01*
X136307484Y-72608234D01*
X136267419Y-72612269D01*
X136233457Y-72614196D01*
X136204609Y-72613983D01*
X136179885Y-72611596D01*
X136158295Y-72606999D01*
X136138853Y-72600160D01*
X136126459Y-72594266D01*
X136110322Y-72583907D01*
X136094286Y-72570651D01*
X136086884Y-72563081D01*
X136077891Y-72551869D01*
X136071443Y-72540954D01*
X136066172Y-72527494D01*
X136060784Y-72508933D01*
X136054290Y-72471072D01*
X136055753Y-72435680D01*
X136065169Y-72402760D01*
X136082532Y-72372321D01*
X136107842Y-72344366D01*
X136141087Y-72318904D01*
X136182268Y-72295940D01*
X136231378Y-72275480D01*
X136236436Y-72273673D01*
X136258599Y-72267010D01*
X136285930Y-72260497D01*
X136315517Y-72254682D01*
X136344451Y-72250107D01*
X136369823Y-72247318D01*
X136380203Y-72246766D01*
X136407374Y-72248087D01*
G37*
G36*
X128664465Y-72641583D02*
G01*
X128665329Y-72653413D01*
X128666118Y-72668302D01*
X128666737Y-72681040D01*
X128667750Y-72700393D01*
X128669063Y-72724658D01*
X128670584Y-72752129D01*
X128672220Y-72781103D01*
X128672748Y-72790338D01*
X128674295Y-72817783D01*
X128675648Y-72842726D01*
X128676740Y-72863863D01*
X128677504Y-72879889D01*
X128677874Y-72889498D01*
X128677894Y-72891398D01*
X128677482Y-72892893D01*
X128675990Y-72894501D01*
X128672892Y-72896378D01*
X128667667Y-72898676D01*
X128659794Y-72901552D01*
X128648749Y-72905158D01*
X128634010Y-72909648D01*
X128615055Y-72915179D01*
X128591363Y-72921903D01*
X128562412Y-72929974D01*
X128527677Y-72939547D01*
X128486639Y-72950777D01*
X128438773Y-72963817D01*
X128383559Y-72978822D01*
X128363350Y-72984309D01*
X128049026Y-73069637D01*
X128056100Y-73203643D01*
X128057851Y-73236752D01*
X128059489Y-73267615D01*
X128060956Y-73295132D01*
X128062192Y-73318205D01*
X128063139Y-73335735D01*
X128063739Y-73346623D01*
X128063893Y-73349322D01*
X128064615Y-73360993D01*
X128360329Y-73281756D01*
X128419888Y-73265853D01*
X128473373Y-73251689D01*
X128520535Y-73239324D01*
X128561132Y-73228822D01*
X128594919Y-73220244D01*
X128621653Y-73213651D01*
X128641088Y-73209108D01*
X128652980Y-73206675D01*
X128657084Y-73206405D01*
X128657651Y-73211758D01*
X128658508Y-73223850D01*
X128659554Y-73241099D01*
X128660690Y-73261919D01*
X128661158Y-73271107D01*
X128662608Y-73299860D01*
X128664277Y-73332379D01*
X128665948Y-73364546D01*
X128667329Y-73390679D01*
X128668485Y-73412837D01*
X128669475Y-73432757D01*
X128670208Y-73448583D01*
X128670599Y-73458461D01*
X128670634Y-73459903D01*
X128670800Y-73470370D01*
X128373936Y-73549915D01*
X128077072Y-73629459D01*
X128078292Y-73643154D01*
X128078835Y-73650707D01*
X128079776Y-73665414D01*
X128081048Y-73686105D01*
X128082577Y-73711615D01*
X128084294Y-73740773D01*
X128086128Y-73772413D01*
X128086690Y-73782199D01*
X128088552Y-73814088D01*
X128090347Y-73843605D01*
X128091998Y-73869634D01*
X128093434Y-73891055D01*
X128094582Y-73906752D01*
X128095366Y-73915607D01*
X128095531Y-73916825D01*
X128097193Y-73926099D01*
X128415868Y-73840648D01*
X128465799Y-73827302D01*
X128513401Y-73814664D01*
X128558061Y-73802890D01*
X128599167Y-73792138D01*
X128636105Y-73782567D01*
X128668265Y-73774332D01*
X128695032Y-73767592D01*
X128715796Y-73762505D01*
X128729945Y-73759226D01*
X128736864Y-73757915D01*
X128737457Y-73757941D01*
X128738624Y-73762833D01*
X128739981Y-73774597D01*
X128741402Y-73791779D01*
X128742762Y-73812922D01*
X128743577Y-73828617D01*
X128745048Y-73858742D01*
X128746787Y-73892743D01*
X128748596Y-73926767D01*
X128750269Y-73956958D01*
X128750521Y-73961340D01*
X128754260Y-74026131D01*
X128251961Y-74160722D01*
X128176786Y-74180854D01*
X128109265Y-74198910D01*
X128049005Y-74214990D01*
X127995614Y-74229195D01*
X127948700Y-74241623D01*
X127907874Y-74252379D01*
X127872742Y-74261558D01*
X127842914Y-74269264D01*
X127817998Y-74275594D01*
X127797602Y-74280651D01*
X127781334Y-74284534D01*
X127768804Y-74287344D01*
X127759621Y-74289180D01*
X127753390Y-74290144D01*
X127749723Y-74290334D01*
X127748227Y-74289852D01*
X127748159Y-74289707D01*
X127747642Y-74284590D01*
X127746740Y-74272227D01*
X127745515Y-74253690D01*
X127744030Y-74230054D01*
X127742345Y-74202394D01*
X127740525Y-74171785D01*
X127738631Y-74139302D01*
X127736725Y-74106018D01*
X127734869Y-74073009D01*
X127733125Y-74041348D01*
X127731557Y-74012112D01*
X127730224Y-73986375D01*
X127729191Y-73965210D01*
X127728590Y-73951496D01*
X127728002Y-73938350D01*
X127727045Y-73918795D01*
X127725817Y-73894745D01*
X127724414Y-73868114D01*
X127723054Y-73842963D01*
X127718279Y-73755752D01*
X127713636Y-73670799D01*
X127709147Y-73588511D01*
X127704833Y-73509292D01*
X127700717Y-73433547D01*
X127696820Y-73361680D01*
X127693165Y-73294097D01*
X127689772Y-73231202D01*
X127686665Y-73173400D01*
X127683863Y-73121097D01*
X127681391Y-73074696D01*
X127679269Y-73034604D01*
X127677518Y-73001224D01*
X127676161Y-72974962D01*
X127675220Y-72956222D01*
X127674725Y-72945583D01*
X127674040Y-72929218D01*
X127673446Y-72915036D01*
X127673070Y-72906119D01*
X127672662Y-72896521D01*
X128167623Y-72763897D01*
X128249704Y-72741932D01*
X128323896Y-72722142D01*
X128390342Y-72704486D01*
X128449189Y-72688930D01*
X128500580Y-72675434D01*
X128544660Y-72663961D01*
X128581573Y-72654475D01*
X128611466Y-72646937D01*
X128634482Y-72641311D01*
X128650767Y-72637558D01*
X128660465Y-72635642D01*
X128663718Y-72635509D01*
X128664465Y-72641583D01*
G37*
G36*
X131700595Y-71814722D02*
G01*
X131700932Y-71819137D01*
X131701676Y-71830872D01*
X131702770Y-71848922D01*
X131704152Y-71872286D01*
X131705763Y-71899960D01*
X131707544Y-71930941D01*
X131708582Y-71949174D01*
X131710449Y-71981655D01*
X131712203Y-72011469D01*
X131713782Y-72037595D01*
X131715122Y-72059016D01*
X131716161Y-72074711D01*
X131716836Y-72083659D01*
X131717027Y-72085332D01*
X131713303Y-72087030D01*
X131702270Y-72090641D01*
X131684676Y-72095954D01*
X131661271Y-72102752D01*
X131632803Y-72110823D01*
X131600019Y-72119953D01*
X131563669Y-72129928D01*
X131524502Y-72140535D01*
X131511164Y-72144116D01*
X131304396Y-72199519D01*
X131304965Y-72211232D01*
X131305662Y-72224944D01*
X131306755Y-72245645D01*
X131308173Y-72271998D01*
X131309840Y-72302671D01*
X131311687Y-72336330D01*
X131313638Y-72371640D01*
X131315623Y-72407268D01*
X131317209Y-72435533D01*
X131318823Y-72464566D01*
X131320342Y-72492574D01*
X131321677Y-72517870D01*
X131322739Y-72538768D01*
X131323441Y-72553578D01*
X131323576Y-72556787D01*
X131324084Y-72567847D01*
X131325002Y-72585957D01*
X131326258Y-72609840D01*
X131327786Y-72638232D01*
X131329519Y-72669854D01*
X131331386Y-72703435D01*
X131332228Y-72718414D01*
X131334210Y-72753778D01*
X131336157Y-72788919D01*
X131337986Y-72822315D01*
X131339614Y-72852443D01*
X131340958Y-72877779D01*
X131341937Y-72896800D01*
X131342157Y-72901271D01*
X131342896Y-72915929D01*
X131344034Y-72937762D01*
X131345507Y-72965623D01*
X131347257Y-72998366D01*
X131349220Y-73034843D01*
X131351337Y-73073907D01*
X131353544Y-73114412D01*
X131354799Y-73137330D01*
X131365061Y-73324413D01*
X131181334Y-73374764D01*
X131134403Y-73387559D01*
X131095077Y-73398132D01*
X131062952Y-73406579D01*
X131037633Y-73413002D01*
X131018718Y-73417500D01*
X131005808Y-73420169D01*
X130998505Y-73421111D01*
X130996404Y-73420623D01*
X130996007Y-73417540D01*
X130995414Y-73410298D01*
X130994600Y-73398447D01*
X130993539Y-73381536D01*
X130992205Y-73359119D01*
X130990570Y-73330743D01*
X130988609Y-73295961D01*
X130986296Y-73254325D01*
X130983605Y-73205384D01*
X130980510Y-73148689D01*
X130979611Y-73132160D01*
X130978634Y-73114200D01*
X130977279Y-73089356D01*
X130975626Y-73059069D01*
X130973755Y-73024777D01*
X130971742Y-72987919D01*
X130969667Y-72949932D01*
X130968122Y-72921677D01*
X130966157Y-72885462D01*
X130964298Y-72850755D01*
X130962605Y-72818710D01*
X130961140Y-72790481D01*
X130959961Y-72767224D01*
X130959131Y-72750090D01*
X130958728Y-72740835D01*
X130958197Y-72728597D01*
X130957288Y-72709941D01*
X130956053Y-72685812D01*
X130954543Y-72657160D01*
X130952814Y-72624927D01*
X130950917Y-72590062D01*
X130948907Y-72553512D01*
X130946834Y-72516222D01*
X130944754Y-72479141D01*
X130942719Y-72443212D01*
X130940780Y-72409385D01*
X130938993Y-72378606D01*
X130937409Y-72351820D01*
X130936083Y-72329975D01*
X130935065Y-72314018D01*
X130934410Y-72304894D01*
X130934219Y-72303112D01*
X130929905Y-72303106D01*
X130917587Y-72305420D01*
X130897266Y-72310059D01*
X130868942Y-72317019D01*
X130832617Y-72326302D01*
X130788289Y-72337906D01*
X130735958Y-72351832D01*
X130733896Y-72352384D01*
X130688536Y-72364520D01*
X130650565Y-72374622D01*
X130619323Y-72382845D01*
X130594155Y-72389341D01*
X130574404Y-72394264D01*
X130559415Y-72397765D01*
X130548532Y-72399997D01*
X130541099Y-72401112D01*
X130536461Y-72401265D01*
X130533960Y-72400607D01*
X130532941Y-72399292D01*
X130532907Y-72399172D01*
X130532298Y-72393742D01*
X130531312Y-72381249D01*
X130530027Y-72362950D01*
X130528515Y-72340102D01*
X130526854Y-72313967D01*
X130525119Y-72285800D01*
X130523385Y-72256861D01*
X130521727Y-72228408D01*
X130520221Y-72201700D01*
X130518943Y-72177993D01*
X130517967Y-72158548D01*
X130517370Y-72144622D01*
X130517224Y-72137558D01*
X130517557Y-72136439D01*
X130518752Y-72135187D01*
X130521188Y-72133696D01*
X130525249Y-72131856D01*
X130531317Y-72129562D01*
X130539772Y-72126708D01*
X130550998Y-72123184D01*
X130565374Y-72118885D01*
X130583283Y-72113703D01*
X130605107Y-72107531D01*
X130631227Y-72100262D01*
X130662024Y-72091790D01*
X130697882Y-72082005D01*
X130739180Y-72070802D01*
X130786303Y-72058073D01*
X130839627Y-72043713D01*
X130899539Y-72027611D01*
X130966418Y-72009663D01*
X131040647Y-71989760D01*
X131108787Y-71971500D01*
X131177102Y-71953207D01*
X131243189Y-71935534D01*
X131306604Y-71918599D01*
X131366902Y-71902520D01*
X131423637Y-71887414D01*
X131476366Y-71873399D01*
X131524642Y-71860594D01*
X131568023Y-71849115D01*
X131606061Y-71839082D01*
X131638314Y-71830611D01*
X131664335Y-71823821D01*
X131683680Y-71818830D01*
X131695904Y-71815754D01*
X131700562Y-71814713D01*
X131700595Y-71814722D01*
G37*
G36*
X127004146Y-73092725D02*
G01*
X127016499Y-73093111D01*
X127020175Y-73093241D01*
X127070444Y-73098818D01*
X127118104Y-73111643D01*
X127162294Y-73131329D01*
X127202164Y-73157481D01*
X127236851Y-73189710D01*
X127240287Y-73193579D01*
X127259608Y-73216685D01*
X127274574Y-73237245D01*
X127286327Y-73257473D01*
X127296004Y-73279583D01*
X127304750Y-73305786D01*
X127312541Y-73333850D01*
X127326052Y-73399694D01*
X127331570Y-73464312D01*
X127329122Y-73528728D01*
X127320174Y-73587181D01*
X127303700Y-73648364D01*
X127280242Y-73706919D01*
X127250378Y-73762038D01*
X127214685Y-73812913D01*
X127173738Y-73858733D01*
X127128118Y-73898690D01*
X127078398Y-73931973D01*
X127071446Y-73935888D01*
X127051786Y-73946560D01*
X127033569Y-73956000D01*
X127015867Y-73964540D01*
X126997756Y-73972508D01*
X126978307Y-73980234D01*
X126956598Y-73988047D01*
X126931696Y-73996277D01*
X126902681Y-74005256D01*
X126868625Y-74015309D01*
X126828600Y-74026768D01*
X126781681Y-74039962D01*
X126768760Y-74043572D01*
X126583107Y-74095391D01*
X126583428Y-74104557D01*
X126583720Y-74110493D01*
X126584431Y-74123880D01*
X126585514Y-74143850D01*
X126586919Y-74169534D01*
X126588601Y-74200061D01*
X126590509Y-74234563D01*
X126592599Y-74272168D01*
X126594547Y-74307134D01*
X126596831Y-74348156D01*
X126599037Y-74388003D01*
X126601109Y-74425613D01*
X126602988Y-74459927D01*
X126604617Y-74489882D01*
X126605935Y-74514419D01*
X126606887Y-74532475D01*
X126607319Y-74541001D01*
X126608243Y-74559594D01*
X126609079Y-74575912D01*
X126609704Y-74587558D01*
X126609908Y-74591002D01*
X126610520Y-74600545D01*
X126426947Y-74649733D01*
X126243373Y-74698922D01*
X126242159Y-74685225D01*
X126241731Y-74678777D01*
X126240905Y-74664739D01*
X126239719Y-74643843D01*
X126238213Y-74616821D01*
X126236428Y-74584406D01*
X126234406Y-74547331D01*
X126232184Y-74506329D01*
X126229804Y-74462132D01*
X126227306Y-74415473D01*
X126226330Y-74397169D01*
X126223751Y-74348843D01*
X126221242Y-74301990D01*
X126218847Y-74257440D01*
X126216613Y-74216019D01*
X126214581Y-74178555D01*
X126212800Y-74145873D01*
X126211311Y-74118802D01*
X126210162Y-74098169D01*
X126209397Y-74084801D01*
X126209258Y-74082481D01*
X126208350Y-74066895D01*
X126207110Y-74044686D01*
X126205635Y-74017560D01*
X126204014Y-73987220D01*
X126202339Y-73955370D01*
X126201213Y-73933634D01*
X126200512Y-73920153D01*
X126199678Y-73904115D01*
X126197776Y-73868021D01*
X126195601Y-73827095D01*
X126193244Y-73783086D01*
X126190802Y-73737738D01*
X126188365Y-73692797D01*
X126186072Y-73650786D01*
X126183786Y-73609061D01*
X126181437Y-73566178D01*
X126179111Y-73523695D01*
X126176894Y-73483172D01*
X126175549Y-73458570D01*
X126549204Y-73458570D01*
X126559068Y-73637129D01*
X126561183Y-73675019D01*
X126563203Y-73710413D01*
X126565072Y-73742430D01*
X126566739Y-73770182D01*
X126568148Y-73792786D01*
X126569247Y-73809355D01*
X126569982Y-73819006D01*
X126570220Y-73821090D01*
X126574441Y-73821688D01*
X126585508Y-73820062D01*
X126602333Y-73816522D01*
X126623822Y-73811377D01*
X126648886Y-73804940D01*
X126676433Y-73797518D01*
X126705371Y-73789422D01*
X126734612Y-73780964D01*
X126763060Y-73772453D01*
X126789628Y-73764199D01*
X126813224Y-73756511D01*
X126832757Y-73749702D01*
X126847131Y-73744081D01*
X126855010Y-73740132D01*
X126887060Y-73714730D01*
X126913817Y-73685384D01*
X126934360Y-73653354D01*
X126947769Y-73619901D01*
X126950273Y-73609732D01*
X126955154Y-73575837D01*
X126956133Y-73541285D01*
X126953413Y-73507979D01*
X126947197Y-73477828D01*
X126937685Y-73452735D01*
X126932706Y-73444087D01*
X126914702Y-73423859D01*
X126891053Y-73407972D01*
X126863824Y-73397605D01*
X126845892Y-73394454D01*
X126824245Y-73394175D01*
X126796288Y-73396966D01*
X126761734Y-73402879D01*
X126720298Y-73411971D01*
X126671696Y-73424292D01*
X126635066Y-73434359D01*
X126549204Y-73458570D01*
X126175549Y-73458570D01*
X126174871Y-73446170D01*
X126173126Y-73414246D01*
X126171745Y-73388959D01*
X126171653Y-73387268D01*
X126170204Y-73360934D01*
X126168894Y-73337558D01*
X126167793Y-73318368D01*
X126166972Y-73304591D01*
X126166502Y-73297454D01*
X126166431Y-73296742D01*
X126170315Y-73295511D01*
X126181699Y-73292312D01*
X126200023Y-73287292D01*
X126224728Y-73280604D01*
X126255255Y-73272396D01*
X126291043Y-73262818D01*
X126331534Y-73252020D01*
X126376168Y-73240150D01*
X126424385Y-73227360D01*
X126475625Y-73213799D01*
X126529330Y-73199616D01*
X126539760Y-73196865D01*
X126605662Y-73179491D01*
X126664062Y-73164124D01*
X126715511Y-73150644D01*
X126760565Y-73138931D01*
X126799780Y-73128867D01*
X126833706Y-73120330D01*
X126862902Y-73113203D01*
X126887919Y-73107364D01*
X126909311Y-73102695D01*
X126927635Y-73099077D01*
X126943443Y-73096389D01*
X126957289Y-73094513D01*
X126969728Y-73093327D01*
X126981315Y-73092714D01*
X126992602Y-73092553D01*
X127004146Y-73092725D01*
G37*
G36*
X136287178Y-70599081D02*
G01*
X136287897Y-70610844D01*
X136288403Y-70623726D01*
X136288895Y-70635738D01*
X136289822Y-70654433D01*
X136291094Y-70678180D01*
X136292624Y-70705341D01*
X136294322Y-70734285D01*
X136295017Y-70745799D01*
X136296677Y-70773539D01*
X136298135Y-70798783D01*
X136299321Y-70820242D01*
X136300164Y-70836627D01*
X136300594Y-70846651D01*
X136300632Y-70848918D01*
X136300241Y-70850410D01*
X136298798Y-70852004D01*
X136295777Y-70853851D01*
X136290659Y-70856107D01*
X136282919Y-70858920D01*
X136272033Y-70862447D01*
X136257482Y-70866837D01*
X136238739Y-70872246D01*
X136215284Y-70878825D01*
X136186593Y-70886726D01*
X136152142Y-70896099D01*
X136111412Y-70907104D01*
X136063876Y-70919889D01*
X136009011Y-70934606D01*
X135985693Y-70940856D01*
X135670952Y-71025190D01*
X135674535Y-71090024D01*
X135675996Y-71116775D01*
X135677719Y-71148777D01*
X135679540Y-71182953D01*
X135681294Y-71216232D01*
X135682293Y-71235374D01*
X135683602Y-71260341D01*
X135684780Y-71282295D01*
X135685755Y-71299940D01*
X135686456Y-71311982D01*
X135686810Y-71317125D01*
X135686823Y-71317211D01*
X135690801Y-71316375D01*
X135702196Y-71313540D01*
X135720381Y-71308871D01*
X135744724Y-71302535D01*
X135774598Y-71294696D01*
X135809373Y-71285520D01*
X135848419Y-71275172D01*
X135891109Y-71263820D01*
X135936810Y-71251627D01*
X135982993Y-71239270D01*
X136031003Y-71226450D01*
X136076620Y-71214355D01*
X136119208Y-71203150D01*
X136158140Y-71192993D01*
X136192786Y-71184048D01*
X136222514Y-71176477D01*
X136246693Y-71170440D01*
X136264695Y-71166100D01*
X136275890Y-71163618D01*
X136279646Y-71163135D01*
X136280094Y-71168099D01*
X136280837Y-71180039D01*
X136281802Y-71197603D01*
X136282916Y-71219444D01*
X136284103Y-71244208D01*
X136284139Y-71244982D01*
X136285841Y-71281000D01*
X136287511Y-71315096D01*
X136289096Y-71346307D01*
X136290544Y-71373663D01*
X136291803Y-71396200D01*
X136292821Y-71412953D01*
X136293547Y-71422954D01*
X136293830Y-71425354D01*
X136290008Y-71426772D01*
X136278759Y-71430160D01*
X136260708Y-71435346D01*
X136236481Y-71442156D01*
X136206704Y-71450419D01*
X136172002Y-71459960D01*
X136133002Y-71470609D01*
X136090328Y-71482191D01*
X136044606Y-71494534D01*
X135997166Y-71507277D01*
X135699894Y-71586930D01*
X135701220Y-71609226D01*
X135701802Y-71619070D01*
X135702796Y-71635961D01*
X135704128Y-71658627D01*
X135705724Y-71685796D01*
X135707509Y-71716195D01*
X135709407Y-71748550D01*
X135709870Y-71756462D01*
X135711765Y-71787810D01*
X135713599Y-71816347D01*
X135715297Y-71841046D01*
X135716785Y-71860877D01*
X135717987Y-71874815D01*
X135718829Y-71881830D01*
X135719031Y-71882462D01*
X135723248Y-71881587D01*
X135734907Y-71878729D01*
X135753405Y-71874044D01*
X135778125Y-71867694D01*
X135808461Y-71859835D01*
X135843801Y-71850629D01*
X135883538Y-71840231D01*
X135927060Y-71828800D01*
X135973760Y-71816497D01*
X136023027Y-71803478D01*
X136040641Y-71798814D01*
X136099439Y-71783253D01*
X136150692Y-71769727D01*
X136194909Y-71758111D01*
X136232594Y-71748280D01*
X136264252Y-71740113D01*
X136290390Y-71733485D01*
X136311514Y-71728273D01*
X136328129Y-71724352D01*
X136340740Y-71721598D01*
X136349855Y-71719887D01*
X136355978Y-71719099D01*
X136359614Y-71719106D01*
X136361272Y-71719785D01*
X136361507Y-71720285D01*
X136361997Y-71725856D01*
X136362865Y-71738683D01*
X136364045Y-71757697D01*
X136365476Y-71781832D01*
X136367092Y-71810022D01*
X136368830Y-71841196D01*
X136369588Y-71855089D01*
X136376580Y-71983713D01*
X135872944Y-72118674D01*
X135369308Y-72253635D01*
X135366216Y-72195141D01*
X135364770Y-72168072D01*
X135363163Y-72138447D01*
X135361597Y-72109978D01*
X135360354Y-72087775D01*
X135358526Y-72055264D01*
X135356539Y-72019448D01*
X135354445Y-71981358D01*
X135352302Y-71942029D01*
X135350163Y-71902493D01*
X135348085Y-71863785D01*
X135346122Y-71826936D01*
X135344330Y-71792982D01*
X135342764Y-71762955D01*
X135341480Y-71737889D01*
X135340531Y-71718816D01*
X135339974Y-71706771D01*
X135339902Y-71704962D01*
X135339505Y-71696262D01*
X135338688Y-71679975D01*
X135337491Y-71656832D01*
X135335951Y-71627567D01*
X135334109Y-71592917D01*
X135332002Y-71553608D01*
X135329672Y-71510381D01*
X135327156Y-71463964D01*
X135324493Y-71415094D01*
X135322202Y-71373185D01*
X135319297Y-71320182D01*
X135316389Y-71267020D01*
X135313531Y-71214694D01*
X135310774Y-71164197D01*
X135308177Y-71116521D01*
X135305791Y-71072661D01*
X135303669Y-71033610D01*
X135301871Y-71000361D01*
X135300444Y-70973905D01*
X135299850Y-70962838D01*
X135294167Y-70856503D01*
X135789753Y-70722614D01*
X135871984Y-70700428D01*
X135946324Y-70680435D01*
X136012913Y-70662594D01*
X136071892Y-70646873D01*
X136123399Y-70633232D01*
X136167573Y-70621638D01*
X136204556Y-70612051D01*
X136234485Y-70604438D01*
X136257503Y-70598762D01*
X136273746Y-70594984D01*
X136283356Y-70593069D01*
X136286470Y-70592947D01*
X136287178Y-70599081D01*
G37*
G36*
X133298596Y-71390532D02*
G01*
X133299305Y-71402310D01*
X133300377Y-71420722D01*
X133301764Y-71444922D01*
X133303416Y-71474068D01*
X133305288Y-71507313D01*
X133307330Y-71543814D01*
X133308907Y-71572141D01*
X133312093Y-71629490D01*
X133314855Y-71679177D01*
X133317230Y-71721864D01*
X133319256Y-71758211D01*
X133320969Y-71788880D01*
X133322407Y-71814531D01*
X133323607Y-71835824D01*
X133324607Y-71853421D01*
X133325444Y-71867982D01*
X133326157Y-71880168D01*
X133326780Y-71890640D01*
X133327354Y-71900059D01*
X133327914Y-71909084D01*
X133328351Y-71916064D01*
X133329540Y-71935801D01*
X133330972Y-71960834D01*
X133332476Y-71988137D01*
X133333881Y-72014685D01*
X133334056Y-72018080D01*
X133335397Y-72043867D01*
X133337037Y-72074942D01*
X133338814Y-72108273D01*
X133340568Y-72140825D01*
X133341543Y-72158741D01*
X133343615Y-72198645D01*
X133345056Y-72232005D01*
X133345884Y-72260584D01*
X133346117Y-72286149D01*
X133345779Y-72310463D01*
X133344882Y-72335292D01*
X133343650Y-72358918D01*
X133336223Y-72434205D01*
X133322799Y-72503919D01*
X133303137Y-72568515D01*
X133276996Y-72628443D01*
X133244138Y-72684160D01*
X133204322Y-72736116D01*
X133157309Y-72784767D01*
X133102858Y-72830565D01*
X133088111Y-72841580D01*
X133044061Y-72870865D01*
X132993025Y-72899686D01*
X132936347Y-72927360D01*
X132875370Y-72953205D01*
X132847502Y-72963829D01*
X132828610Y-72970261D01*
X132803615Y-72978006D01*
X132774535Y-72986510D01*
X132743389Y-72995220D01*
X132712195Y-73003584D01*
X132682971Y-73011043D01*
X132657735Y-73017044D01*
X132640575Y-73020653D01*
X132628630Y-73022629D01*
X132611092Y-73025190D01*
X132590644Y-73027954D01*
X132576163Y-73029791D01*
X132509265Y-73035114D01*
X132446803Y-73034137D01*
X132389002Y-73026930D01*
X132336085Y-73013564D01*
X132288276Y-72994108D01*
X132245797Y-72968631D01*
X132208873Y-72937204D01*
X132183102Y-72907313D01*
X132156278Y-72865427D01*
X132133469Y-72817188D01*
X132115110Y-72763772D01*
X132101635Y-72706352D01*
X132096506Y-72673807D01*
X132093953Y-72651428D01*
X132091163Y-72621703D01*
X132088204Y-72585617D01*
X132085147Y-72544153D01*
X132082063Y-72498296D01*
X132079019Y-72449028D01*
X132076088Y-72397335D01*
X132073912Y-72355735D01*
X132070499Y-72288376D01*
X132066728Y-72214798D01*
X132062709Y-72137100D01*
X132058551Y-72057385D01*
X132054363Y-71977752D01*
X132050255Y-71900305D01*
X132049581Y-71887674D01*
X132040839Y-71723914D01*
X132224654Y-71673539D01*
X132271345Y-71660807D01*
X132310454Y-71650288D01*
X132342409Y-71641877D01*
X132367632Y-71635467D01*
X132386547Y-71630955D01*
X132399580Y-71628235D01*
X132407155Y-71627202D01*
X132409686Y-71627704D01*
X132410089Y-71630198D01*
X132410592Y-71635388D01*
X132411232Y-71643960D01*
X132412053Y-71656602D01*
X132413095Y-71674001D01*
X132414398Y-71696845D01*
X132416004Y-71725819D01*
X132417952Y-71761612D01*
X132420285Y-71804908D01*
X132420779Y-71814098D01*
X132421640Y-71830098D01*
X132422896Y-71853295D01*
X132424484Y-71882570D01*
X132426342Y-71916798D01*
X132428412Y-71954856D01*
X132430630Y-71995624D01*
X132432936Y-72037976D01*
X132434988Y-72075624D01*
X132437288Y-72117965D01*
X132439518Y-72159312D01*
X132441623Y-72198610D01*
X132443545Y-72234798D01*
X132445230Y-72266819D01*
X132446620Y-72293617D01*
X132447660Y-72314130D01*
X132448264Y-72326614D01*
X132451350Y-72387140D01*
X132454731Y-72439823D01*
X132458469Y-72485153D01*
X132462623Y-72523622D01*
X132467254Y-72555717D01*
X132472425Y-72581926D01*
X132478195Y-72602743D01*
X132484549Y-72618502D01*
X132504611Y-72651447D01*
X132529090Y-72677725D01*
X132558757Y-72698159D01*
X132558842Y-72698205D01*
X132593989Y-72713351D01*
X132631641Y-72721544D01*
X132672434Y-72722823D01*
X132717010Y-72717232D01*
X132746363Y-72710458D01*
X132796843Y-72693284D01*
X132841458Y-72670201D01*
X132880190Y-72641221D01*
X132913025Y-72606357D01*
X132939949Y-72565623D01*
X132957505Y-72528100D01*
X132964381Y-72509849D01*
X132970243Y-72492048D01*
X132975128Y-72473980D01*
X132979063Y-72454933D01*
X132982081Y-72434187D01*
X132984214Y-72411028D01*
X132985494Y-72384738D01*
X132985953Y-72354604D01*
X132985621Y-72319907D01*
X132984531Y-72279934D01*
X132982715Y-72233966D01*
X132980204Y-72181289D01*
X132977029Y-72121187D01*
X132976183Y-72105777D01*
X132973751Y-72061715D01*
X132971422Y-72019469D01*
X132969245Y-71979900D01*
X132967265Y-71943864D01*
X132965529Y-71912223D01*
X132964086Y-71885834D01*
X132962981Y-71865560D01*
X132962263Y-71852255D01*
X132962043Y-71848113D01*
X132961522Y-71838377D01*
X132960588Y-71821369D01*
X132959301Y-71798141D01*
X132957721Y-71769741D01*
X132955905Y-71737220D01*
X132953912Y-71701630D01*
X132951799Y-71664018D01*
X132951095Y-71651507D01*
X132941466Y-71480435D01*
X133119708Y-71432676D01*
X133156721Y-71422788D01*
X133191150Y-71413651D01*
X133222184Y-71405474D01*
X133249012Y-71398469D01*
X133270821Y-71392846D01*
X133286802Y-71388817D01*
X133296141Y-71386593D01*
X133298300Y-71386231D01*
X133298596Y-71390532D01*
G37*
G36*
X125305206Y-73536272D02*
G01*
X125308217Y-73542406D01*
X125314180Y-73554890D01*
X125322531Y-73572526D01*
X125332699Y-73594110D01*
X125344118Y-73618442D01*
X125350017Y-73631045D01*
X125362218Y-73657094D01*
X125373804Y-73681739D01*
X125384114Y-73703587D01*
X125392490Y-73721245D01*
X125398276Y-73733320D01*
X125399760Y-73736361D01*
X125403609Y-73744338D01*
X125410552Y-73758914D01*
X125420143Y-73779147D01*
X125431935Y-73804090D01*
X125445482Y-73832800D01*
X125460338Y-73864332D01*
X125476054Y-73897742D01*
X125479398Y-73904855D01*
X125495238Y-73938536D01*
X125510309Y-73970539D01*
X125524164Y-73999914D01*
X125536357Y-74025721D01*
X125546440Y-74047014D01*
X125553969Y-74062849D01*
X125558497Y-74072279D01*
X125559022Y-74073351D01*
X125562868Y-74081327D01*
X125569810Y-74095903D01*
X125579402Y-74116135D01*
X125591197Y-74141076D01*
X125604749Y-74169784D01*
X125619610Y-74201314D01*
X125635335Y-74234719D01*
X125638683Y-74241837D01*
X125654532Y-74275516D01*
X125669612Y-74307514D01*
X125683477Y-74336888D01*
X125695679Y-74362693D01*
X125705772Y-74383983D01*
X125713310Y-74399815D01*
X125717845Y-74409245D01*
X125718372Y-74410317D01*
X125722223Y-74418292D01*
X125729170Y-74432868D01*
X125738765Y-74453098D01*
X125750562Y-74478040D01*
X125764115Y-74506748D01*
X125778976Y-74538278D01*
X125794698Y-74571685D01*
X125798045Y-74578800D01*
X125814152Y-74613011D01*
X125829725Y-74645990D01*
X125844277Y-74676713D01*
X125857318Y-74704150D01*
X125868359Y-74727278D01*
X125876913Y-74745066D01*
X125882491Y-74756489D01*
X125883042Y-74757593D01*
X125889863Y-74771870D01*
X125894702Y-74783351D01*
X125896714Y-74789982D01*
X125896686Y-74790609D01*
X125892561Y-74792346D01*
X125881130Y-74795956D01*
X125863156Y-74801230D01*
X125839401Y-74807952D01*
X125810627Y-74815913D01*
X125777597Y-74824898D01*
X125741072Y-74834696D01*
X125701817Y-74845093D01*
X125690208Y-74848144D01*
X125484826Y-74902021D01*
X125477282Y-74883625D01*
X125473708Y-74874914D01*
X125467473Y-74859710D01*
X125459073Y-74839230D01*
X125449011Y-74814695D01*
X125437783Y-74787321D01*
X125425896Y-74758333D01*
X125414427Y-74730337D01*
X125404018Y-74704861D01*
X125395082Y-74682923D01*
X125388031Y-74665542D01*
X125383282Y-74653734D01*
X125381245Y-74648515D01*
X125381207Y-74648396D01*
X125377152Y-74648940D01*
X125365726Y-74651520D01*
X125347594Y-74655965D01*
X125323420Y-74662098D01*
X125293868Y-74669751D01*
X125259603Y-74678749D01*
X125221289Y-74688920D01*
X125179592Y-74700089D01*
X125135173Y-74712086D01*
X125114813Y-74717618D01*
X124849267Y-74789881D01*
X124825617Y-74886819D01*
X124818396Y-74916445D01*
X124811313Y-74945552D01*
X124804781Y-74972440D01*
X124799212Y-74995406D01*
X124795022Y-75012756D01*
X124793680Y-75018336D01*
X124789047Y-75037348D01*
X124784370Y-75056006D01*
X124780548Y-75070736D01*
X124780048Y-75072597D01*
X124774702Y-75092279D01*
X124594008Y-75141860D01*
X124550918Y-75153659D01*
X124515180Y-75163376D01*
X124486123Y-75171168D01*
X124463076Y-75177196D01*
X124445365Y-75181620D01*
X124432318Y-75184599D01*
X124423263Y-75186295D01*
X124417528Y-75186865D01*
X124414439Y-75186470D01*
X124413327Y-75185270D01*
X124413278Y-75184809D01*
X124414393Y-75179031D01*
X124417542Y-75166491D01*
X124422391Y-75148427D01*
X124428604Y-75126066D01*
X124435848Y-75100641D01*
X124439768Y-75087110D01*
X124448472Y-75057143D01*
X124457355Y-75026398D01*
X124465817Y-74996964D01*
X124473259Y-74970926D01*
X124479080Y-74950376D01*
X124480008Y-74947067D01*
X124484625Y-74930735D01*
X124491155Y-74907842D01*
X124499188Y-74879830D01*
X124508307Y-74848141D01*
X124518098Y-74814217D01*
X124528147Y-74779498D01*
X124532422Y-74764763D01*
X124565888Y-74649324D01*
X124581915Y-74593911D01*
X124601488Y-74526245D01*
X124608385Y-74502352D01*
X124923618Y-74502352D01*
X124927626Y-74501750D01*
X124938866Y-74499177D01*
X124956526Y-74494840D01*
X124979796Y-74488946D01*
X125007862Y-74481703D01*
X125039915Y-74473318D01*
X125075141Y-74463997D01*
X125102728Y-74456634D01*
X125281268Y-74408794D01*
X125277445Y-74400112D01*
X125274913Y-74393758D01*
X125269975Y-74380856D01*
X125263106Y-74362669D01*
X125254788Y-74340467D01*
X125245495Y-74315519D01*
X125241625Y-74305086D01*
X125230459Y-74274988D01*
X125217333Y-74239665D01*
X125203208Y-74201698D01*
X125189046Y-74163667D01*
X125175805Y-74128156D01*
X125171556Y-74116771D01*
X125159335Y-74084024D01*
X125146284Y-74049026D01*
X125133246Y-74014039D01*
X125121058Y-73981321D01*
X125110568Y-73953132D01*
X125106620Y-73942513D01*
X125097911Y-73919667D01*
X125089916Y-73899776D01*
X125083160Y-73884071D01*
X125078170Y-73873773D01*
X125075493Y-73870111D01*
X125074013Y-73872634D01*
X125071400Y-73880436D01*
X125067586Y-73893793D01*
X125062504Y-73912979D01*
X125056086Y-73938269D01*
X125048262Y-73969937D01*
X125038969Y-74008260D01*
X125028137Y-74053510D01*
X125015697Y-74105965D01*
X125001584Y-74165897D01*
X124985729Y-74233582D01*
X124979368Y-74260817D01*
X124975731Y-74276358D01*
X124970592Y-74298264D01*
X124964362Y-74324786D01*
X124957451Y-74354178D01*
X124950269Y-74384693D01*
X124946618Y-74400195D01*
X124940143Y-74427855D01*
X124934393Y-74452753D01*
X124929623Y-74473766D01*
X124926085Y-74489771D01*
X124924031Y-74499643D01*
X124923618Y-74502352D01*
X124608385Y-74502352D01*
X124639108Y-74395912D01*
X124678639Y-74258712D01*
X124711301Y-74145180D01*
X124723880Y-74101448D01*
X124737027Y-74055779D01*
X124750299Y-74009707D01*
X124763254Y-73964767D01*
X124775450Y-73922492D01*
X124786444Y-73884417D01*
X124795794Y-73852075D01*
X124799599Y-73838930D01*
X124808816Y-73807074D01*
X124817861Y-73775739D01*
X124826303Y-73746424D01*
X124833708Y-73720633D01*
X124839646Y-73699871D01*
X124843627Y-73685838D01*
X124854458Y-73647343D01*
X125077596Y-73587553D01*
X125300734Y-73527763D01*
X125305206Y-73536272D01*
G37*
G36*
X134652893Y-71052223D02*
G01*
X134695772Y-71059839D01*
X134734353Y-71074595D01*
X134768639Y-71096494D01*
X134798630Y-71125533D01*
X134824325Y-71161714D01*
X134845725Y-71205038D01*
X134846717Y-71207478D01*
X134858278Y-71243248D01*
X134866833Y-71284371D01*
X134872150Y-71328341D01*
X134873996Y-71372653D01*
X134872139Y-71414802D01*
X134868417Y-71442200D01*
X134858999Y-71483961D01*
X134846544Y-71520914D01*
X134830150Y-71554567D01*
X134808923Y-71586430D01*
X134781960Y-71618012D01*
X134748365Y-71650824D01*
X134739526Y-71658776D01*
X134707172Y-71685065D01*
X134671602Y-71709016D01*
X134630830Y-71731900D01*
X134605366Y-71744538D01*
X134589705Y-71752314D01*
X134577442Y-71758961D01*
X134570149Y-71763598D01*
X134568822Y-71765116D01*
X134572966Y-71765623D01*
X134583661Y-71764906D01*
X134599238Y-71763124D01*
X134616172Y-71760717D01*
X134662883Y-71755591D01*
X134703551Y-71755693D01*
X134738775Y-71761220D01*
X134769148Y-71772369D01*
X134795274Y-71789333D01*
X134817748Y-71812308D01*
X134830906Y-71830915D01*
X134838925Y-71847019D01*
X134847663Y-71870619D01*
X134856909Y-71900928D01*
X134866455Y-71937159D01*
X134876097Y-71978524D01*
X134885624Y-72024236D01*
X134894623Y-72072350D01*
X134901317Y-72107323D01*
X134909857Y-72147580D01*
X134919639Y-72190435D01*
X134930057Y-72233205D01*
X134936568Y-72258493D01*
X134963919Y-72362258D01*
X134767716Y-72414831D01*
X134571512Y-72467404D01*
X134558348Y-72418080D01*
X134553023Y-72396985D01*
X134547617Y-72373132D01*
X134541961Y-72345627D01*
X134535887Y-72313577D01*
X134529227Y-72276088D01*
X134521812Y-72232264D01*
X134513472Y-72181212D01*
X134512102Y-72172689D01*
X134503855Y-72125110D01*
X134495528Y-72084495D01*
X134487204Y-72051146D01*
X134478959Y-72025366D01*
X134470880Y-72007458D01*
X134466847Y-72001455D01*
X134451192Y-71985620D01*
X134433758Y-71975701D01*
X134412246Y-71970645D01*
X134397236Y-71969533D01*
X134387169Y-71969374D01*
X134377382Y-71969786D01*
X134366663Y-71971009D01*
X134353793Y-71973282D01*
X134337565Y-71976846D01*
X134316762Y-71981939D01*
X134290173Y-71988800D01*
X134262043Y-71996221D01*
X134157434Y-72023961D01*
X134162006Y-72109023D01*
X134163602Y-72138922D01*
X134165234Y-72169808D01*
X134166775Y-72199300D01*
X134168104Y-72225012D01*
X134169017Y-72243046D01*
X134170285Y-72267961D01*
X134171946Y-72299812D01*
X134173926Y-72337215D01*
X134176151Y-72378783D01*
X134178546Y-72423132D01*
X134181038Y-72468876D01*
X134183470Y-72513135D01*
X134186520Y-72568405D01*
X134002718Y-72618776D01*
X133965142Y-72629044D01*
X133930134Y-72638552D01*
X133898490Y-72647087D01*
X133871007Y-72654439D01*
X133848483Y-72660393D01*
X133831713Y-72664740D01*
X133821497Y-72667264D01*
X133818559Y-72667817D01*
X133818212Y-72663357D01*
X133817567Y-72652445D01*
X133816732Y-72636958D01*
X133816191Y-72626344D01*
X133815069Y-72604458D01*
X133813691Y-72578254D01*
X133812268Y-72551735D01*
X133811478Y-72537309D01*
X133810697Y-72523137D01*
X133809513Y-72501715D01*
X133807988Y-72474109D01*
X133806181Y-72441393D01*
X133804150Y-72404638D01*
X133801955Y-72364912D01*
X133799655Y-72323287D01*
X133797504Y-72284349D01*
X133795242Y-72243220D01*
X133793111Y-72204076D01*
X133791159Y-72167815D01*
X133789432Y-72135336D01*
X133787979Y-72107538D01*
X133786844Y-72085319D01*
X133786078Y-72069578D01*
X133785728Y-72061215D01*
X133785721Y-72061002D01*
X133785259Y-72048911D01*
X133784399Y-72031104D01*
X133783274Y-72010181D01*
X133782266Y-71992899D01*
X133781467Y-71979200D01*
X133780281Y-71958177D01*
X133778761Y-71930828D01*
X133776963Y-71898153D01*
X133775112Y-71864294D01*
X133774941Y-71861151D01*
X133772749Y-71820819D01*
X133770443Y-71778157D01*
X133768077Y-71734163D01*
X133767360Y-71720774D01*
X133764827Y-71673587D01*
X133762206Y-71625001D01*
X133759574Y-71576402D01*
X133757005Y-71529177D01*
X133754576Y-71484717D01*
X133752363Y-71444406D01*
X133751454Y-71427970D01*
X134124764Y-71427970D01*
X134125069Y-71432255D01*
X134125778Y-71443784D01*
X134126830Y-71461480D01*
X134128165Y-71484264D01*
X134129720Y-71511062D01*
X134131433Y-71540794D01*
X134133245Y-71572383D01*
X134135093Y-71604752D01*
X134136916Y-71636824D01*
X134138651Y-71667521D01*
X134140238Y-71695766D01*
X134141616Y-71720480D01*
X134142722Y-71740588D01*
X134143495Y-71755011D01*
X134143874Y-71762672D01*
X134143897Y-71763333D01*
X134144394Y-71765345D01*
X134146309Y-71766526D01*
X134150483Y-71766706D01*
X134157755Y-71765709D01*
X134168966Y-71763364D01*
X134184953Y-71759495D01*
X134206559Y-71753931D01*
X134234622Y-71746498D01*
X134265460Y-71738236D01*
X134304507Y-71727628D01*
X134336343Y-71718689D01*
X134361862Y-71711140D01*
X134381955Y-71704703D01*
X134397513Y-71699102D01*
X134409431Y-71694055D01*
X134413318Y-71692161D01*
X134442223Y-71675029D01*
X134464840Y-71655606D01*
X134483212Y-71631911D01*
X134493185Y-71614546D01*
X134508226Y-71578520D01*
X134517323Y-71540658D01*
X134520426Y-71502566D01*
X134517480Y-71465853D01*
X134508435Y-71432126D01*
X134499795Y-71413517D01*
X134484177Y-71393847D01*
X134462384Y-71379170D01*
X134435061Y-71369691D01*
X134402852Y-71365612D01*
X134366403Y-71367137D01*
X134356952Y-71368381D01*
X134346284Y-71370379D01*
X134329978Y-71373955D01*
X134309254Y-71378795D01*
X134285329Y-71384589D01*
X134259425Y-71391023D01*
X134232757Y-71397783D01*
X134206546Y-71404557D01*
X134182011Y-71411033D01*
X134160371Y-71416898D01*
X134142844Y-71421837D01*
X134130650Y-71425540D01*
X134125006Y-71427694D01*
X134124764Y-71427970D01*
X133751454Y-71427970D01*
X133750440Y-71409636D01*
X133748884Y-71381792D01*
X133748876Y-71381656D01*
X133742348Y-71265840D01*
X134091334Y-71172329D01*
X134162572Y-71153286D01*
X134226313Y-71136347D01*
X134283088Y-71121394D01*
X134333429Y-71108299D01*
X134377870Y-71096937D01*
X134416939Y-71087185D01*
X134451171Y-71078917D01*
X134481094Y-71072008D01*
X134507244Y-71066337D01*
X134530150Y-71061775D01*
X134550345Y-71058200D01*
X134568359Y-71055485D01*
X134584726Y-71053506D01*
X134599976Y-71052141D01*
X134605718Y-71051748D01*
X134652893Y-71052223D01*
G37*
G36*
X130016423Y-72294691D02*
G01*
X130059073Y-72302567D01*
X130097612Y-72317459D01*
X130131856Y-72339152D01*
X130161622Y-72367431D01*
X130186725Y-72402082D01*
X130206987Y-72442890D01*
X130222220Y-72489640D01*
X130232242Y-72542119D01*
X130236870Y-72600110D01*
X130237051Y-72607262D01*
X130234573Y-72663404D01*
X130224961Y-72716258D01*
X130208382Y-72765331D01*
X130184998Y-72810126D01*
X130157720Y-72847014D01*
X130114079Y-72891765D01*
X130064877Y-72931254D01*
X130009447Y-72965973D01*
X129968860Y-72986639D01*
X129953161Y-72994317D01*
X129940883Y-73000928D01*
X129933604Y-73005589D01*
X129932298Y-73007155D01*
X129936471Y-73007807D01*
X129947125Y-73007226D01*
X129962521Y-73005551D01*
X129976347Y-73003629D01*
X130023093Y-72998380D01*
X130063533Y-72997916D01*
X130098346Y-73002478D01*
X130128212Y-73012308D01*
X130153808Y-73027646D01*
X130175813Y-73048733D01*
X130194909Y-73075811D01*
X130198750Y-73082530D01*
X130205531Y-73097781D01*
X130213192Y-73120155D01*
X130221444Y-73148516D01*
X130230000Y-73181737D01*
X130238572Y-73218684D01*
X130246873Y-73258226D01*
X130254615Y-73299231D01*
X130256280Y-73308719D01*
X130263010Y-73344239D01*
X130271832Y-73385530D01*
X130282253Y-73430435D01*
X130293787Y-73476801D01*
X130298477Y-73494794D01*
X130327475Y-73604590D01*
X130131798Y-73657021D01*
X129936122Y-73709453D01*
X129929828Y-73695460D01*
X129926656Y-73685996D01*
X129922397Y-73669826D01*
X129917371Y-73648455D01*
X129911896Y-73623394D01*
X129906293Y-73596150D01*
X129900879Y-73568231D01*
X129895976Y-73541145D01*
X129891902Y-73516399D01*
X129891898Y-73516372D01*
X129882708Y-73458267D01*
X129874220Y-73408023D01*
X129866334Y-73365201D01*
X129858950Y-73329364D01*
X129851970Y-73300077D01*
X129845294Y-73276901D01*
X129838824Y-73259400D01*
X129832462Y-73247137D01*
X129830130Y-73243860D01*
X129813902Y-73227436D01*
X129795153Y-73217249D01*
X129771800Y-73212300D01*
X129762953Y-73211658D01*
X129753103Y-73211457D01*
X129742893Y-73211947D01*
X129731122Y-73213349D01*
X129716587Y-73215884D01*
X129698089Y-73219771D01*
X129674424Y-73225232D01*
X129644391Y-73232486D01*
X129629928Y-73236037D01*
X129600883Y-73243335D01*
X129574933Y-73250135D01*
X129553124Y-73256145D01*
X129536495Y-73261067D01*
X129526090Y-73264609D01*
X129522944Y-73266262D01*
X129522199Y-73271963D01*
X129522024Y-73284198D01*
X129522403Y-73301184D01*
X129523324Y-73321140D01*
X129523359Y-73321744D01*
X129525179Y-73354036D01*
X129527284Y-73392606D01*
X129529567Y-73435406D01*
X129531919Y-73480388D01*
X129534233Y-73525505D01*
X129536400Y-73568710D01*
X129536704Y-73574873D01*
X129537955Y-73599985D01*
X129539207Y-73624482D01*
X129540548Y-73650025D01*
X129542067Y-73678272D01*
X129543851Y-73710884D01*
X129545992Y-73749520D01*
X129546924Y-73766280D01*
X129549412Y-73810915D01*
X129365943Y-73861196D01*
X129328399Y-73871446D01*
X129293418Y-73880915D01*
X129261799Y-73889394D01*
X129234340Y-73896676D01*
X129211838Y-73902547D01*
X129195092Y-73906796D01*
X129184902Y-73909216D01*
X129181990Y-73909677D01*
X129181626Y-73905158D01*
X129180882Y-73893537D01*
X129179827Y-73876037D01*
X129178527Y-73853878D01*
X129177054Y-73828281D01*
X129175474Y-73800467D01*
X129173856Y-73771658D01*
X129172269Y-73743074D01*
X129170782Y-73715937D01*
X129169462Y-73691469D01*
X129168379Y-73670889D01*
X129167601Y-73655420D01*
X129167196Y-73646283D01*
X129167181Y-73645843D01*
X129166874Y-73639181D01*
X129166148Y-73624982D01*
X129165046Y-73604028D01*
X129163611Y-73577102D01*
X129161887Y-73544988D01*
X129159915Y-73508469D01*
X129157738Y-73468330D01*
X129155399Y-73425353D01*
X129152940Y-73380321D01*
X129150406Y-73334019D01*
X129147836Y-73287229D01*
X129145276Y-73240735D01*
X129142768Y-73195321D01*
X129140354Y-73151771D01*
X129138149Y-73112169D01*
X129138076Y-73110866D01*
X129135979Y-73073392D01*
X129135650Y-73067538D01*
X129134391Y-73044449D01*
X129133194Y-73021295D01*
X129132212Y-73001055D01*
X129131673Y-72988788D01*
X129131194Y-72978271D01*
X129130329Y-72960830D01*
X129129131Y-72937425D01*
X129127651Y-72909018D01*
X129125942Y-72876570D01*
X129124054Y-72841041D01*
X129122040Y-72803392D01*
X129119953Y-72764584D01*
X129117843Y-72725579D01*
X129115764Y-72687336D01*
X129114758Y-72668933D01*
X129488118Y-72668933D01*
X129488602Y-72678511D01*
X129489028Y-72686231D01*
X129489836Y-72700313D01*
X129490915Y-72718802D01*
X129492149Y-72739741D01*
X129492235Y-72741174D01*
X129493512Y-72763414D01*
X129494653Y-72784515D01*
X129495530Y-72802068D01*
X129496011Y-72813506D01*
X129496585Y-72826643D01*
X129497646Y-72846615D01*
X129499105Y-72871943D01*
X129500876Y-72901147D01*
X129502868Y-72932747D01*
X129504993Y-72965264D01*
X129505709Y-72975932D01*
X129508210Y-73013012D01*
X129629288Y-72980494D01*
X129668583Y-72969814D01*
X129700637Y-72960802D01*
X129726314Y-72953189D01*
X129746477Y-72946704D01*
X129761992Y-72941081D01*
X129773721Y-72936049D01*
X129776502Y-72934680D01*
X129803386Y-72918974D01*
X129824458Y-72901442D01*
X129842224Y-72879724D01*
X129852945Y-72862655D01*
X129867362Y-72831908D01*
X129877094Y-72798541D01*
X129882151Y-72764080D01*
X129882541Y-72730057D01*
X129878271Y-72698002D01*
X129869349Y-72669444D01*
X129855784Y-72645911D01*
X129851794Y-72641133D01*
X129830807Y-72624032D01*
X129804169Y-72612942D01*
X129772044Y-72607899D01*
X129734591Y-72608942D01*
X129720508Y-72610713D01*
X129706890Y-72613226D01*
X129686858Y-72617581D01*
X129662033Y-72623394D01*
X129634029Y-72630277D01*
X129604468Y-72637849D01*
X129587661Y-72642293D01*
X129488118Y-72668933D01*
X129114758Y-72668933D01*
X129113767Y-72650818D01*
X129111904Y-72616984D01*
X129110225Y-72586796D01*
X129108785Y-72561215D01*
X129107635Y-72541201D01*
X129106827Y-72527715D01*
X129106442Y-72522048D01*
X129105274Y-72508340D01*
X129454575Y-72414745D01*
X129525786Y-72395706D01*
X129589501Y-72378776D01*
X129646255Y-72363826D01*
X129696578Y-72350734D01*
X129741004Y-72339375D01*
X129780065Y-72329622D01*
X129814295Y-72321351D01*
X129844226Y-72314440D01*
X129870392Y-72308760D01*
X129893326Y-72304190D01*
X129913560Y-72300602D01*
X129931627Y-72297873D01*
X129948060Y-72295876D01*
X129963393Y-72294490D01*
X129969842Y-72294045D01*
X130016423Y-72294691D01*
G37*
%TD*%
%LPC*%
D15*
%TO.C,REF\u002A\u002A*%
X146225000Y-74175000D03*
%TD*%
D16*
%TO.C,REF\u002A\u002A*%
X166040000Y-90230000D03*
%TD*%
D15*
%TO.C,REF\u002A\u002A*%
X136925000Y-88675000D03*
%TD*%
D17*
%TO.C,J1*%
X152760000Y-85390000D03*
D18*
X152760000Y-87930000D03*
X155300000Y-85390000D03*
X155300000Y-87930000D03*
X157840000Y-85390000D03*
X157840000Y-87930000D03*
%TD*%
G36*
X169533370Y-69221647D02*
G01*
X169546720Y-75793257D01*
X169533370Y-82364538D01*
X169532954Y-82365077D01*
X169275175Y-82432756D01*
X169013320Y-82509801D01*
X169013321Y-82509802D01*
X168487789Y-82684691D01*
X167979322Y-82874551D01*
X167511198Y-83064108D01*
X167511199Y-83064109D01*
X167106597Y-83238127D01*
X166788826Y-83381319D01*
X166506215Y-83514421D01*
X166505286Y-83513832D01*
X166505286Y-72507602D01*
X166505421Y-72507253D01*
X168005242Y-70864378D01*
X169043794Y-69734993D01*
X169391403Y-69362797D01*
X169532133Y-69221139D01*
X169533370Y-69221647D01*
G37*
G36*
X196025496Y-71099052D02*
G01*
X196026000Y-71099620D01*
X196026000Y-92500378D01*
X196025500Y-92500945D01*
X189649677Y-93301048D01*
X189649000Y-93300451D01*
X189649000Y-91850254D01*
X189643921Y-91840899D01*
X189643860Y-91840659D01*
X189527350Y-71589163D01*
X189527351Y-71589126D01*
X189549000Y-71274960D01*
X189549000Y-70324550D01*
X189549672Y-70323954D01*
X196025496Y-71099052D01*
G37*
G36*
X181530772Y-72391087D02*
G01*
X181530914Y-72391444D01*
X181530914Y-85198112D01*
X181529820Y-85198667D01*
X181202088Y-84959510D01*
X180888466Y-84739076D01*
X180306152Y-84351622D01*
X180306152Y-84351621D01*
X179790754Y-84032746D01*
X179350446Y-83779123D01*
X178993605Y-83587552D01*
X178728462Y-83454745D01*
X178506136Y-83352283D01*
X178505820Y-83351790D01*
X178505820Y-69205048D01*
X178507079Y-69204546D01*
X181530772Y-72391087D01*
G37*
G36*
X177792808Y-68690921D02*
G01*
X177792808Y-83003566D01*
X177791931Y-83004161D01*
X177372261Y-82837584D01*
X176894670Y-82666437D01*
X176602401Y-82569615D01*
X176602401Y-82569616D01*
X176279612Y-82469380D01*
X175930183Y-82368804D01*
X175930183Y-82368803D01*
X175557990Y-82270959D01*
X175166915Y-82178917D01*
X175166915Y-82178918D01*
X174760749Y-82095733D01*
X174343413Y-82024483D01*
X173918793Y-81968242D01*
X173704927Y-81946703D01*
X173490705Y-81930068D01*
X173490705Y-81930069D01*
X173276557Y-81918716D01*
X173063001Y-81913033D01*
X172851396Y-81913656D01*
X172851397Y-81913657D01*
X172629168Y-81920227D01*
X172629167Y-81920226D01*
X172166422Y-81947919D01*
X171701489Y-81989552D01*
X171261099Y-82038564D01*
X170561051Y-82132459D01*
X170561052Y-82132460D01*
X170279692Y-82177188D01*
X170278990Y-82176589D01*
X170278990Y-68695070D01*
X170279575Y-68694484D01*
X177792222Y-68690335D01*
X177792808Y-68690921D01*
G37*
G36*
X184485794Y-71762134D02*
G01*
X184485794Y-87815752D01*
X184484576Y-87816269D01*
X183938896Y-87290171D01*
X183485745Y-86861897D01*
X183485745Y-86861896D01*
X183118703Y-86522600D01*
X183118703Y-86522601D01*
X182831766Y-86263842D01*
X182474408Y-85954358D01*
X182365732Y-85866013D01*
X182365538Y-85865605D01*
X182365538Y-72622169D01*
X182365879Y-72621662D01*
X184484911Y-71761539D01*
X184485794Y-71762134D01*
G37*
G36*
X188722313Y-71588762D02*
G01*
X188722313Y-91838494D01*
X188721731Y-91839079D01*
X187636461Y-91844190D01*
X187636003Y-91843935D01*
X187453642Y-91546896D01*
X187262126Y-91251558D01*
X187064222Y-90960136D01*
X186862826Y-90675056D01*
X186461233Y-90133759D01*
X186080547Y-89647125D01*
X185744003Y-89234666D01*
X185744003Y-89234665D01*
X185474872Y-88915930D01*
X185231549Y-88637377D01*
X185231421Y-88637037D01*
X185231421Y-71590595D01*
X185232006Y-71590009D01*
X188721727Y-71588176D01*
X188722313Y-71588762D01*
G37*
%LPD*%
M02*
