%TF.GenerationSoftware,KiCad,Pcbnew,9.0.0*%
%TF.CreationDate,2025-04-01T15:35:04-07:00*%
%TF.ProjectId,portal-gun,706f7274-616c-42d6-9775-6e2e6b696361,rev?*%
%TF.SameCoordinates,Original*%
%TF.FileFunction,Drillmap*%
%TF.FilePolarity,Positive*%
%FSLAX45Y45*%
G04 Gerber Fmt 4.5, Leading zero omitted, Abs format (unit mm)*
G04 Created by KiCad (PCBNEW 9.0.0) date 2025-04-01 15:35:04*
%MOMM*%
%LPD*%
G01*
G04 APERTURE LIST*
%ADD10C,0.025400*%
%ADD11C,0.200000*%
%ADD12C,0.100000*%
G04 APERTURE END LIST*
D10*
X18646783Y-5423129D02*
X20840818Y-5890799D01*
X20783082Y-5696035D01*
X20783079Y-5696017D01*
X20783072Y-5696000D01*
X20739666Y-5548016D01*
X20739650Y-5547932D01*
X20739619Y-5547853D01*
X20720860Y-5480588D01*
X20720617Y-5479202D01*
X20720510Y-5478891D01*
X20720524Y-5478669D01*
X20720430Y-5478136D01*
X20720683Y-5476047D01*
X20720812Y-5473945D01*
X20720980Y-5473599D01*
X20721027Y-5473216D01*
X20722060Y-5471384D01*
X20722983Y-5469491D01*
X20723271Y-5469235D01*
X20723461Y-5468900D01*
X20725118Y-5467601D01*
X20726694Y-5466207D01*
X20727058Y-5466081D01*
X20727361Y-5465844D01*
X20729389Y-5465278D01*
X20731379Y-5464592D01*
X20731763Y-5464616D01*
X20732134Y-5464512D01*
X20734223Y-5464766D01*
X20736325Y-5464894D01*
X20736832Y-5465082D01*
X20737053Y-5465109D01*
X20737340Y-5465271D01*
X20738659Y-5465760D01*
X21176825Y-5679366D01*
X21178945Y-5680671D01*
X21179692Y-5681515D01*
X21180602Y-5682180D01*
X21181318Y-5683353D01*
X21182229Y-5684382D01*
X21182596Y-5685448D01*
X21183183Y-5686410D01*
X21183807Y-5688820D01*
X21297731Y-6417271D01*
X21297873Y-6419757D01*
X21297579Y-6420970D01*
X21297528Y-6422218D01*
X21296709Y-6424568D01*
X21064480Y-6926269D01*
X21063567Y-6927821D01*
X21063464Y-6928065D01*
X21063368Y-6928159D01*
X21063217Y-6928415D01*
X21061550Y-6929951D01*
X21059935Y-6931544D01*
X21059733Y-6931625D01*
X21059573Y-6931773D01*
X21057445Y-6932554D01*
X21055343Y-6933407D01*
X21055126Y-6933406D01*
X21054922Y-6933481D01*
X21052656Y-6933388D01*
X21050388Y-6933372D01*
X21050188Y-6933287D01*
X21049971Y-6933278D01*
X21047912Y-6932325D01*
X21045824Y-6931443D01*
X21045671Y-6931288D01*
X21045474Y-6931197D01*
X21043937Y-6929530D01*
X21042345Y-6927914D01*
X21042263Y-6927713D01*
X21042116Y-6927553D01*
X21041334Y-6925425D01*
X21040481Y-6923323D01*
X21040454Y-6923028D01*
X21040408Y-6922901D01*
X21040419Y-6922637D01*
X21040255Y-6920843D01*
X21040750Y-6851327D01*
X21038475Y-6773884D01*
X21035866Y-6727240D01*
X21031951Y-6676270D01*
X21026493Y-6621802D01*
X21019252Y-6564617D01*
X21009991Y-6505510D01*
X20998473Y-6445254D01*
X20984465Y-6384646D01*
X20967713Y-6324384D01*
X20958280Y-6294778D01*
X20948059Y-6265500D01*
X20937048Y-6236729D01*
X20927716Y-6214506D01*
X18698770Y-5749553D01*
X17862648Y-6610617D01*
X17862137Y-6845000D01*
X18200000Y-7217500D01*
X18475000Y-7107500D01*
X18487500Y-7105000D01*
X18902500Y-7107500D01*
X18902942Y-7001759D01*
X18903186Y-6999281D01*
X18903479Y-6998575D01*
X18903570Y-6997815D01*
X18904419Y-6996304D01*
X18905082Y-6994703D01*
X18905623Y-6994162D01*
X18905998Y-6993495D01*
X18907361Y-6992425D01*
X18908586Y-6991199D01*
X18909293Y-6990906D01*
X18909895Y-6990434D01*
X18911563Y-6989966D01*
X18913165Y-6989303D01*
X18913930Y-6989303D01*
X18914666Y-6989096D01*
X18917155Y-6989149D01*
X19629175Y-7074592D01*
X19629878Y-7074747D01*
X19630150Y-7074747D01*
X19630459Y-7074875D01*
X19631606Y-7075129D01*
X19633122Y-7075981D01*
X19634727Y-7076647D01*
X19635263Y-7077185D01*
X19635926Y-7077557D01*
X19637000Y-7078924D01*
X19638228Y-7080154D01*
X19638518Y-7080856D01*
X19638987Y-7081454D01*
X19639457Y-7083128D01*
X19640120Y-7084734D01*
X19640235Y-7085903D01*
X19640325Y-7086225D01*
X19640292Y-7086496D01*
X19640362Y-7087212D01*
X19638582Y-9273114D01*
X19638519Y-9273755D01*
X19638550Y-9274005D01*
X19638462Y-9274328D01*
X19638336Y-9275591D01*
X19637688Y-9277154D01*
X19637241Y-9278785D01*
X19636746Y-9279422D01*
X19636436Y-9280168D01*
X19635239Y-9281363D01*
X19634202Y-9282699D01*
X19633501Y-9283099D01*
X19632929Y-9283669D01*
X19631367Y-9284315D01*
X19629897Y-9285152D01*
X19628660Y-9285434D01*
X19628350Y-9285562D01*
X19628097Y-9285561D01*
X19627469Y-9285704D01*
X18920789Y-9374707D01*
X18918300Y-9374774D01*
X18917527Y-9374562D01*
X18916724Y-9374562D01*
X18915157Y-9373913D01*
X18913521Y-9373465D01*
X18912888Y-9372973D01*
X18912146Y-9372666D01*
X18910947Y-9371466D01*
X18909607Y-9370426D01*
X18909210Y-9369729D01*
X18908642Y-9369162D01*
X18907993Y-9367595D01*
X18907153Y-9366121D01*
X18907053Y-9365325D01*
X18906746Y-9364584D01*
X18906502Y-9362106D01*
X18906502Y-9223525D01*
X18767688Y-9223782D01*
X18789980Y-9269028D01*
X18790425Y-9270211D01*
X18790849Y-9271331D01*
X18798445Y-9299470D01*
X18798515Y-9299888D01*
X18798588Y-9300057D01*
X18798595Y-9300367D01*
X18798855Y-9301925D01*
X18798655Y-9303462D01*
X18798686Y-9305011D01*
X18798340Y-9305897D01*
X18798217Y-9306839D01*
X18797445Y-9308182D01*
X18796880Y-9309626D01*
X18795901Y-9310868D01*
X18795747Y-9311136D01*
X18795602Y-9311248D01*
X18795339Y-9311581D01*
X18780149Y-9327382D01*
X18779769Y-9327707D01*
X18779430Y-9328073D01*
X18759123Y-9346122D01*
X18758786Y-9346367D01*
X18758484Y-9346653D01*
X18728528Y-9369954D01*
X18728268Y-9370119D01*
X18728034Y-9370320D01*
X18709163Y-9383585D01*
X18708981Y-9383688D01*
X18708817Y-9383820D01*
X18687204Y-9397973D01*
X18687019Y-9398070D01*
X18686852Y-9398195D01*
X18662387Y-9413094D01*
X18662200Y-9413184D01*
X18662031Y-9413303D01*
X18634604Y-9428805D01*
X18634416Y-9428888D01*
X18634245Y-9429000D01*
X18603746Y-9444964D01*
X18603557Y-9445040D01*
X18603384Y-9445146D01*
X18569703Y-9461430D01*
X18569515Y-9461500D01*
X18569341Y-9461599D01*
X18532368Y-9478061D01*
X18532180Y-9478123D01*
X18532006Y-9478215D01*
X18491631Y-9494713D01*
X18491446Y-9494769D01*
X18491271Y-9494854D01*
X18447384Y-9511247D01*
X18447201Y-9511296D01*
X18447027Y-9511375D01*
X18399518Y-9527520D01*
X18399336Y-9527562D01*
X18399164Y-9527634D01*
X18347923Y-9543390D01*
X18347744Y-9543427D01*
X18347574Y-9543492D01*
X18292491Y-9558717D01*
X18292316Y-9558747D01*
X18292148Y-9558807D01*
X18233113Y-9573359D01*
X18232941Y-9573384D01*
X18232775Y-9573437D01*
X18169678Y-9587174D01*
X18169510Y-9587193D01*
X18169347Y-9587241D01*
X18102078Y-9600021D01*
X18101914Y-9600036D01*
X18101754Y-9600079D01*
X18030204Y-9611760D01*
X18030043Y-9611770D01*
X18029887Y-9611807D01*
X17953945Y-9622248D01*
X17953789Y-9622254D01*
X17953636Y-9622287D01*
X17873192Y-9631345D01*
X17873097Y-9631346D01*
X17873004Y-9631365D01*
X17863395Y-9632302D01*
X17862056Y-9702877D01*
X17861364Y-9759052D01*
X17861403Y-9777146D01*
X17861523Y-9779092D01*
X18698916Y-10635877D01*
X20922057Y-10186294D01*
X20928962Y-10173504D01*
X20938005Y-10153991D01*
X20954975Y-10109204D01*
X20970129Y-10058631D01*
X20983563Y-10003500D01*
X20995345Y-9945177D01*
X21005563Y-9885010D01*
X21014315Y-9824322D01*
X21021692Y-9764500D01*
X21032777Y-9652406D01*
X21039635Y-9559455D01*
X21044106Y-9472430D01*
X21044266Y-9471369D01*
X21044254Y-9471041D01*
X21044356Y-9470768D01*
X21044477Y-9469968D01*
X21045310Y-9468216D01*
X21045989Y-9466399D01*
X21046367Y-9465994D01*
X21046605Y-9465493D01*
X21048045Y-9464194D01*
X21049368Y-9462775D01*
X21049873Y-9462544D01*
X21050284Y-9462173D01*
X21052111Y-9461524D01*
X21053877Y-9460719D01*
X21054431Y-9460700D01*
X21054954Y-9460514D01*
X21056891Y-9460614D01*
X21058829Y-9460546D01*
X21059349Y-9460740D01*
X21059902Y-9460769D01*
X21061654Y-9461602D01*
X21063471Y-9462281D01*
X21063877Y-9462659D01*
X21064377Y-9462897D01*
X21065677Y-9464338D01*
X21067095Y-9465660D01*
X21067502Y-9466360D01*
X21067697Y-9466576D01*
X21067807Y-9466886D01*
X21068345Y-9467813D01*
X21297972Y-9971568D01*
X21298777Y-9973924D01*
X21298818Y-9975089D01*
X21299100Y-9976219D01*
X21298977Y-9978706D01*
X21192174Y-10696066D01*
X21191568Y-10698481D01*
X21190976Y-10699468D01*
X21190605Y-10700557D01*
X21189713Y-10701572D01*
X21189018Y-10702730D01*
X21188093Y-10703415D01*
X21187334Y-10704279D01*
X21185218Y-10705592D01*
X20743766Y-10922758D01*
X20742462Y-10923247D01*
X20742175Y-10923411D01*
X20741952Y-10923439D01*
X20741435Y-10923633D01*
X20739341Y-10923768D01*
X20737259Y-10924030D01*
X20736881Y-10923927D01*
X20736490Y-10923952D01*
X20734505Y-10923276D01*
X20732480Y-10922722D01*
X20732170Y-10922481D01*
X20731799Y-10922355D01*
X20730222Y-10920969D01*
X20728565Y-10919683D01*
X20728371Y-10919343D01*
X20728076Y-10919084D01*
X20727150Y-10917200D01*
X20726111Y-10915378D01*
X20726062Y-10914989D01*
X20725889Y-10914637D01*
X20725754Y-10912544D01*
X20725491Y-10910462D01*
X20725584Y-10909918D01*
X20725570Y-10909692D01*
X20725676Y-10909380D01*
X20725911Y-10908008D01*
X20837868Y-10499196D01*
X18654619Y-10970058D01*
X18652145Y-10970342D01*
X18650998Y-10970133D01*
X18649832Y-10970167D01*
X18648584Y-10969693D01*
X18647270Y-10969454D01*
X18646291Y-10968821D01*
X18645200Y-10968407D01*
X18643230Y-10966885D01*
X17557399Y-9943356D01*
X17555764Y-9941479D01*
X17555619Y-9941156D01*
X17555375Y-9940899D01*
X17554608Y-9938906D01*
X17553733Y-9936959D01*
X17553723Y-9936605D01*
X17553596Y-9936274D01*
X17553415Y-9933791D01*
X17560648Y-9649951D01*
X17503004Y-9650995D01*
X17502890Y-9650986D01*
X17502776Y-9650997D01*
X17398172Y-9651015D01*
X17398043Y-9651003D01*
X17397914Y-9651013D01*
X17288148Y-9648798D01*
X17287957Y-9648775D01*
X17287764Y-9648784D01*
X17082650Y-9638428D01*
X17082378Y-9638387D01*
X17082103Y-9638389D01*
X16894709Y-9620798D01*
X16894422Y-9620742D01*
X16894129Y-9620730D01*
X16723836Y-9596800D01*
X16723533Y-9596727D01*
X16723221Y-9596699D01*
X16569411Y-9567325D01*
X16569090Y-9567231D01*
X16568760Y-9567183D01*
X16430813Y-9533261D01*
X16430477Y-9533142D01*
X16430127Y-9533072D01*
X16307423Y-9495497D01*
X16307071Y-9495350D01*
X16306701Y-9495252D01*
X16198622Y-9454919D01*
X16198253Y-9454738D01*
X16197865Y-9454608D01*
X16103791Y-9412413D01*
X16103407Y-9412193D01*
X16102998Y-9412024D01*
X16022311Y-9368861D01*
X16021911Y-9368594D01*
X16021481Y-9368376D01*
X15953561Y-9325142D01*
X15953145Y-9324815D01*
X15952694Y-9324537D01*
X15896921Y-9282127D01*
X15896486Y-9281722D01*
X15896011Y-9281365D01*
X15851768Y-9240673D01*
X15851310Y-9240161D01*
X15850809Y-9239691D01*
X15817475Y-9201613D01*
X15816991Y-9200936D01*
X15816464Y-9200292D01*
X15793421Y-9165723D01*
X15793377Y-9165641D01*
X15793345Y-9165608D01*
X15792803Y-9164565D01*
X15792249Y-9163527D01*
X15792241Y-9163482D01*
X15792197Y-9163399D01*
X15779449Y-9131549D01*
X14196634Y-9138536D01*
X14196634Y-9332447D01*
X14196411Y-9334718D01*
X14196412Y-9334816D01*
X14196398Y-9334851D01*
X14196390Y-9334925D01*
X14195466Y-9337158D01*
X14194555Y-9339411D01*
X14194516Y-9339451D01*
X14194494Y-9339503D01*
X14192785Y-9341213D01*
X14191082Y-9342945D01*
X14191030Y-9342967D01*
X14190990Y-9343007D01*
X14188755Y-9343933D01*
X14186521Y-9344881D01*
X14186446Y-9344889D01*
X14186412Y-9344903D01*
X14186315Y-9344903D01*
X14184045Y-9345147D01*
X13656648Y-9349747D01*
X13644227Y-9363304D01*
X13643265Y-9364167D01*
X13643057Y-9364429D01*
X13642840Y-9364548D01*
X13642374Y-9364966D01*
X13640515Y-9365833D01*
X13638719Y-9366826D01*
X13638108Y-9366956D01*
X13637883Y-9367061D01*
X13637548Y-9367076D01*
X13636285Y-9367345D01*
X13489172Y-9383917D01*
X13488966Y-9383920D01*
X13488764Y-9383956D01*
X13316515Y-9397746D01*
X13316376Y-9397743D01*
X13316239Y-9397765D01*
X13208837Y-9404016D01*
X13208735Y-9404012D01*
X13208632Y-9404026D01*
X13088339Y-9409079D01*
X13088230Y-9409073D01*
X13088121Y-9409086D01*
X12955906Y-9412364D01*
X12955789Y-9412355D01*
X12955673Y-9412367D01*
X12812508Y-9413292D01*
X12812384Y-9413281D01*
X12812259Y-9413291D01*
X12659113Y-9411287D01*
X12658981Y-9411272D01*
X12658848Y-9411280D01*
X12496691Y-9405769D01*
X12496550Y-9405750D01*
X12496407Y-9405756D01*
X12326210Y-9396161D01*
X12326059Y-9396137D01*
X12325906Y-9396140D01*
X12148639Y-9381884D01*
X12148478Y-9381855D01*
X12148314Y-9381854D01*
X11964946Y-9362361D01*
X11964774Y-9362325D01*
X11964599Y-9362319D01*
X11776101Y-9337011D01*
X11775843Y-9336950D01*
X11775580Y-9336930D01*
X11628568Y-9310946D01*
X11628232Y-9310852D01*
X11627888Y-9310807D01*
X11491622Y-9278960D01*
X11491295Y-9278848D01*
X11490955Y-9278785D01*
X11365261Y-9242113D01*
X11364945Y-9241986D01*
X11364613Y-9241905D01*
X11249317Y-9201451D01*
X11249014Y-9201310D01*
X11248693Y-9201214D01*
X11143621Y-9158016D01*
X11143332Y-9157863D01*
X11143025Y-9157753D01*
X11048003Y-9112853D01*
X11047731Y-9112690D01*
X11047437Y-9112569D01*
X10962291Y-9067007D01*
X10962036Y-9066836D01*
X10961758Y-9066705D01*
X10886314Y-9021522D01*
X10886076Y-9021346D01*
X10885814Y-9021207D01*
X10819898Y-8977443D01*
X10819678Y-8977264D01*
X10819433Y-8977120D01*
X10762870Y-8935815D01*
X10762579Y-8935555D01*
X10762256Y-8935337D01*
X10676495Y-8864269D01*
X10676081Y-8863850D01*
X10675625Y-8863477D01*
X10608688Y-8796634D01*
X10607107Y-8794711D01*
X10606779Y-8793921D01*
X10606260Y-8793242D01*
X10605388Y-8790910D01*
X10591093Y-8737132D01*
X10590995Y-8736531D01*
X10590837Y-8735944D01*
X10581831Y-8681538D01*
X10581793Y-8680963D01*
X10581694Y-8680395D01*
X10577659Y-8625516D01*
X10577673Y-8624978D01*
X10577626Y-8624442D01*
X10577629Y-8624189D01*
X10578245Y-8569241D01*
X10578300Y-8568747D01*
X10578295Y-8568251D01*
X10583252Y-8512882D01*
X10583336Y-8512436D01*
X10583365Y-8511983D01*
X10592342Y-8456599D01*
X10592448Y-8456199D01*
X10592500Y-8455790D01*
X10605180Y-8400544D01*
X10605299Y-8400189D01*
X10605368Y-8399822D01*
X10621435Y-8344867D01*
X10621561Y-8344553D01*
X10621641Y-8344224D01*
X10640776Y-8289714D01*
X10640906Y-8289437D01*
X10640992Y-8289144D01*
X10662880Y-8235231D01*
X10663066Y-8234876D01*
X10663204Y-8234499D01*
X10713967Y-8129079D01*
X10714203Y-8128691D01*
X10714389Y-8128276D01*
X10772355Y-8027083D01*
X10772573Y-8026776D01*
X10772747Y-8026443D01*
X10835380Y-7930702D01*
X10835577Y-7930457D01*
X10835736Y-7930185D01*
X10900500Y-7841121D01*
X10900677Y-7840922D01*
X10900820Y-7840699D01*
X10965178Y-7759536D01*
X10965335Y-7759373D01*
X10965465Y-7759187D01*
X11026880Y-7687150D01*
X11027021Y-7687015D01*
X11027137Y-7686859D01*
X11083073Y-7625173D01*
X11083294Y-7624973D01*
X11083482Y-7624743D01*
X11201713Y-7506007D01*
X11202197Y-7505608D01*
X11202640Y-7505164D01*
X11233294Y-7479922D01*
X11233454Y-7479814D01*
X11233595Y-7479682D01*
X11271573Y-7450294D01*
X11271716Y-7450204D01*
X11271843Y-7450091D01*
X11324620Y-7411450D01*
X11324775Y-7411359D01*
X11324912Y-7411242D01*
X11392263Y-7364792D01*
X11392429Y-7364700D01*
X11392578Y-7364582D01*
X11474276Y-7311766D01*
X11474455Y-7311674D01*
X11474616Y-7311553D01*
X11570435Y-7253816D01*
X11570627Y-7253724D01*
X11570802Y-7253603D01*
X11680515Y-7192387D01*
X11680720Y-7192297D01*
X11680909Y-7192175D01*
X11804291Y-7128924D01*
X11804454Y-7128860D01*
X11804603Y-7128770D01*
X11871349Y-7096832D01*
X11871463Y-7096791D01*
X11871569Y-7096729D01*
X11941647Y-7064824D01*
X11941765Y-7064784D01*
X11941874Y-7064724D01*
X12015257Y-7033032D01*
X12015379Y-7032993D01*
X12015491Y-7032933D01*
X12092150Y-7001635D01*
X12092275Y-7001597D01*
X12092392Y-7001539D01*
X12172298Y-6970814D01*
X12172427Y-6970778D01*
X12172548Y-6970721D01*
X12255674Y-6940751D01*
X12255807Y-6940717D01*
X12255932Y-6940661D01*
X12342248Y-6911625D01*
X12342385Y-6911594D01*
X12342514Y-6911539D01*
X12431993Y-6883619D01*
X12432133Y-6883590D01*
X12432267Y-6883537D01*
X12524880Y-6856913D01*
X12525024Y-6856887D01*
X12525162Y-6856835D01*
X12620882Y-6831687D01*
X12621030Y-6831664D01*
X12621171Y-6831615D01*
X12719968Y-6808124D01*
X12720119Y-6808103D01*
X12720265Y-6808057D01*
X12822112Y-6786403D01*
X12822267Y-6786386D01*
X12822416Y-6786342D01*
X12927284Y-6766706D01*
X12927441Y-6766692D01*
X12927595Y-6766651D01*
X13035456Y-6749213D01*
X13035668Y-6749200D01*
X13035874Y-6749152D01*
X13313350Y-6713703D01*
X13313626Y-6713695D01*
X13313898Y-6713645D01*
X13568852Y-6692250D01*
X13569140Y-6692254D01*
X13569426Y-6692215D01*
X13802495Y-6683250D01*
X13802795Y-6683268D01*
X13803094Y-6683241D01*
X14014916Y-6685084D01*
X14015225Y-6685117D01*
X14015536Y-6685104D01*
X14206749Y-6696130D01*
X14207066Y-6696180D01*
X14207388Y-6696183D01*
X14378629Y-6714769D01*
X14378952Y-6714836D01*
X14379282Y-6714857D01*
X14531188Y-6739378D01*
X14531515Y-6739465D01*
X14531851Y-6739503D01*
X14665060Y-6768337D01*
X14665387Y-6768442D01*
X14665727Y-6768500D01*
X14780876Y-6800023D01*
X14781201Y-6800147D01*
X14781540Y-6800224D01*
X14879268Y-6832811D01*
X14879588Y-6832954D01*
X14879924Y-6833050D01*
X14960867Y-6865079D01*
X14961177Y-6865238D01*
X14961508Y-6865352D01*
X15026305Y-6895199D01*
X15026726Y-6895445D01*
X15027174Y-6895640D01*
X15110878Y-6942290D01*
X15111373Y-6942634D01*
X15111899Y-6942925D01*
X15138667Y-6961361D01*
X15140569Y-6962968D01*
X15140927Y-6963520D01*
X15141428Y-6963947D01*
X15142265Y-6965584D01*
X15143264Y-6967126D01*
X15143383Y-6967774D01*
X15143683Y-6968360D01*
X15143829Y-6970193D01*
X15144162Y-6972000D01*
X15144024Y-6972643D01*
X15144077Y-6973300D01*
X15143546Y-6975732D01*
X15127355Y-7025745D01*
X15127252Y-7025981D01*
X15127187Y-7026231D01*
X15074503Y-7168968D01*
X15074419Y-7169142D01*
X15074364Y-7169329D01*
X15052342Y-7223824D01*
X16607854Y-7237547D01*
X16980648Y-6834759D01*
X16982510Y-6833107D01*
X16982737Y-6833002D01*
X16982913Y-6832826D01*
X16984980Y-6831970D01*
X16987011Y-6831035D01*
X16987261Y-6831025D01*
X16987491Y-6830930D01*
X16989969Y-6830686D01*
X17560011Y-6830686D01*
X17556834Y-6456586D01*
X17557057Y-6454106D01*
X17557139Y-6453902D01*
X17557145Y-6453682D01*
X17558065Y-6451612D01*
X17558914Y-6449512D01*
X17559068Y-6449355D01*
X17559158Y-6449154D01*
X17560786Y-6447270D01*
X18635388Y-5426343D01*
X18637353Y-5424814D01*
X18638450Y-5424392D01*
X18639436Y-5423752D01*
X18640740Y-5423511D01*
X18641978Y-5423035D01*
X18643153Y-5423065D01*
X18644309Y-5422852D01*
X18646783Y-5423129D01*
D11*
D12*
X13642500Y-8817500D02*
X13742500Y-8917500D01*
X13742500Y-8817500D02*
X13642500Y-8917500D01*
X14572500Y-7367500D02*
X14672500Y-7467500D01*
X14672500Y-7367500D02*
X14572500Y-7467500D01*
D11*
X10837133Y-11283096D02*
X10837133Y-11083096D01*
X10837133Y-11083096D02*
X10884752Y-11083096D01*
X10884752Y-11083096D02*
X10913323Y-11092620D01*
X10913323Y-11092620D02*
X10932371Y-11111667D01*
X10932371Y-11111667D02*
X10941895Y-11130715D01*
X10941895Y-11130715D02*
X10951419Y-11168810D01*
X10951419Y-11168810D02*
X10951419Y-11197382D01*
X10951419Y-11197382D02*
X10941895Y-11235477D01*
X10941895Y-11235477D02*
X10932371Y-11254524D01*
X10932371Y-11254524D02*
X10913323Y-11273572D01*
X10913323Y-11273572D02*
X10884752Y-11283096D01*
X10884752Y-11283096D02*
X10837133Y-11283096D01*
X11037133Y-11283096D02*
X11037133Y-11149763D01*
X11037133Y-11187858D02*
X11046657Y-11168810D01*
X11046657Y-11168810D02*
X11056180Y-11159286D01*
X11056180Y-11159286D02*
X11075228Y-11149763D01*
X11075228Y-11149763D02*
X11094276Y-11149763D01*
X11160942Y-11283096D02*
X11160942Y-11149763D01*
X11160942Y-11083096D02*
X11151419Y-11092620D01*
X11151419Y-11092620D02*
X11160942Y-11102144D01*
X11160942Y-11102144D02*
X11170466Y-11092620D01*
X11170466Y-11092620D02*
X11160942Y-11083096D01*
X11160942Y-11083096D02*
X11160942Y-11102144D01*
X11284752Y-11283096D02*
X11265704Y-11273572D01*
X11265704Y-11273572D02*
X11256180Y-11254524D01*
X11256180Y-11254524D02*
X11256180Y-11083096D01*
X11389514Y-11283096D02*
X11370466Y-11273572D01*
X11370466Y-11273572D02*
X11360942Y-11254524D01*
X11360942Y-11254524D02*
X11360942Y-11083096D01*
X11618085Y-11283096D02*
X11618085Y-11083096D01*
X11618085Y-11083096D02*
X11684752Y-11225953D01*
X11684752Y-11225953D02*
X11751418Y-11083096D01*
X11751418Y-11083096D02*
X11751418Y-11283096D01*
X11932371Y-11283096D02*
X11932371Y-11178334D01*
X11932371Y-11178334D02*
X11922847Y-11159286D01*
X11922847Y-11159286D02*
X11903799Y-11149763D01*
X11903799Y-11149763D02*
X11865704Y-11149763D01*
X11865704Y-11149763D02*
X11846657Y-11159286D01*
X11932371Y-11273572D02*
X11913323Y-11283096D01*
X11913323Y-11283096D02*
X11865704Y-11283096D01*
X11865704Y-11283096D02*
X11846657Y-11273572D01*
X11846657Y-11273572D02*
X11837133Y-11254524D01*
X11837133Y-11254524D02*
X11837133Y-11235477D01*
X11837133Y-11235477D02*
X11846657Y-11216429D01*
X11846657Y-11216429D02*
X11865704Y-11206905D01*
X11865704Y-11206905D02*
X11913323Y-11206905D01*
X11913323Y-11206905D02*
X11932371Y-11197382D01*
X12027609Y-11149763D02*
X12027609Y-11349762D01*
X12027609Y-11159286D02*
X12046657Y-11149763D01*
X12046657Y-11149763D02*
X12084752Y-11149763D01*
X12084752Y-11149763D02*
X12103799Y-11159286D01*
X12103799Y-11159286D02*
X12113323Y-11168810D01*
X12113323Y-11168810D02*
X12122847Y-11187858D01*
X12122847Y-11187858D02*
X12122847Y-11245001D01*
X12122847Y-11245001D02*
X12113323Y-11264048D01*
X12113323Y-11264048D02*
X12103799Y-11273572D01*
X12103799Y-11273572D02*
X12084752Y-11283096D01*
X12084752Y-11283096D02*
X12046657Y-11283096D01*
X12046657Y-11283096D02*
X12027609Y-11273572D01*
X12208561Y-11264048D02*
X12218085Y-11273572D01*
X12218085Y-11273572D02*
X12208561Y-11283096D01*
X12208561Y-11283096D02*
X12199038Y-11273572D01*
X12199038Y-11273572D02*
X12208561Y-11264048D01*
X12208561Y-11264048D02*
X12208561Y-11283096D01*
X12208561Y-11159286D02*
X12218085Y-11168810D01*
X12218085Y-11168810D02*
X12208561Y-11178334D01*
X12208561Y-11178334D02*
X12199038Y-11168810D01*
X12199038Y-11168810D02*
X12208561Y-11159286D01*
X12208561Y-11159286D02*
X12208561Y-11178334D01*
D12*
X10476356Y-11561612D02*
X10576356Y-11661612D01*
X10576356Y-11561612D02*
X10476356Y-11661612D01*
D11*
X10941895Y-11703096D02*
X10827609Y-11703096D01*
X10884752Y-11703096D02*
X10884752Y-11503096D01*
X10884752Y-11503096D02*
X10865704Y-11531667D01*
X10865704Y-11531667D02*
X10846657Y-11550715D01*
X10846657Y-11550715D02*
X10827609Y-11560239D01*
X11027609Y-11684048D02*
X11037133Y-11693572D01*
X11037133Y-11693572D02*
X11027609Y-11703096D01*
X11027609Y-11703096D02*
X11018085Y-11693572D01*
X11018085Y-11693572D02*
X11027609Y-11684048D01*
X11027609Y-11684048D02*
X11027609Y-11703096D01*
X11160942Y-11503096D02*
X11179990Y-11503096D01*
X11179990Y-11503096D02*
X11199038Y-11512620D01*
X11199038Y-11512620D02*
X11208561Y-11522143D01*
X11208561Y-11522143D02*
X11218085Y-11541191D01*
X11218085Y-11541191D02*
X11227609Y-11579286D01*
X11227609Y-11579286D02*
X11227609Y-11626905D01*
X11227609Y-11626905D02*
X11218085Y-11665001D01*
X11218085Y-11665001D02*
X11208561Y-11684048D01*
X11208561Y-11684048D02*
X11199038Y-11693572D01*
X11199038Y-11693572D02*
X11179990Y-11703096D01*
X11179990Y-11703096D02*
X11160942Y-11703096D01*
X11160942Y-11703096D02*
X11141895Y-11693572D01*
X11141895Y-11693572D02*
X11132371Y-11684048D01*
X11132371Y-11684048D02*
X11122847Y-11665001D01*
X11122847Y-11665001D02*
X11113323Y-11626905D01*
X11113323Y-11626905D02*
X11113323Y-11579286D01*
X11113323Y-11579286D02*
X11122847Y-11541191D01*
X11122847Y-11541191D02*
X11132371Y-11522143D01*
X11132371Y-11522143D02*
X11141895Y-11512620D01*
X11141895Y-11512620D02*
X11160942Y-11503096D01*
X11351418Y-11503096D02*
X11370466Y-11503096D01*
X11370466Y-11503096D02*
X11389514Y-11512620D01*
X11389514Y-11512620D02*
X11399038Y-11522143D01*
X11399038Y-11522143D02*
X11408561Y-11541191D01*
X11408561Y-11541191D02*
X11418085Y-11579286D01*
X11418085Y-11579286D02*
X11418085Y-11626905D01*
X11418085Y-11626905D02*
X11408561Y-11665001D01*
X11408561Y-11665001D02*
X11399038Y-11684048D01*
X11399038Y-11684048D02*
X11389514Y-11693572D01*
X11389514Y-11693572D02*
X11370466Y-11703096D01*
X11370466Y-11703096D02*
X11351418Y-11703096D01*
X11351418Y-11703096D02*
X11332371Y-11693572D01*
X11332371Y-11693572D02*
X11322847Y-11684048D01*
X11322847Y-11684048D02*
X11313323Y-11665001D01*
X11313323Y-11665001D02*
X11303799Y-11626905D01*
X11303799Y-11626905D02*
X11303799Y-11579286D01*
X11303799Y-11579286D02*
X11313323Y-11541191D01*
X11313323Y-11541191D02*
X11322847Y-11522143D01*
X11322847Y-11522143D02*
X11332371Y-11512620D01*
X11332371Y-11512620D02*
X11351418Y-11503096D01*
X11541895Y-11503096D02*
X11560942Y-11503096D01*
X11560942Y-11503096D02*
X11579990Y-11512620D01*
X11579990Y-11512620D02*
X11589514Y-11522143D01*
X11589514Y-11522143D02*
X11599038Y-11541191D01*
X11599038Y-11541191D02*
X11608561Y-11579286D01*
X11608561Y-11579286D02*
X11608561Y-11626905D01*
X11608561Y-11626905D02*
X11599038Y-11665001D01*
X11599038Y-11665001D02*
X11589514Y-11684048D01*
X11589514Y-11684048D02*
X11579990Y-11693572D01*
X11579990Y-11693572D02*
X11560942Y-11703096D01*
X11560942Y-11703096D02*
X11541895Y-11703096D01*
X11541895Y-11703096D02*
X11522847Y-11693572D01*
X11522847Y-11693572D02*
X11513323Y-11684048D01*
X11513323Y-11684048D02*
X11503799Y-11665001D01*
X11503799Y-11665001D02*
X11494276Y-11626905D01*
X11494276Y-11626905D02*
X11494276Y-11579286D01*
X11494276Y-11579286D02*
X11503799Y-11541191D01*
X11503799Y-11541191D02*
X11513323Y-11522143D01*
X11513323Y-11522143D02*
X11522847Y-11512620D01*
X11522847Y-11512620D02*
X11541895Y-11503096D01*
X11694276Y-11703096D02*
X11694276Y-11569762D01*
X11694276Y-11588810D02*
X11703799Y-11579286D01*
X11703799Y-11579286D02*
X11722847Y-11569762D01*
X11722847Y-11569762D02*
X11751419Y-11569762D01*
X11751419Y-11569762D02*
X11770466Y-11579286D01*
X11770466Y-11579286D02*
X11779990Y-11598334D01*
X11779990Y-11598334D02*
X11779990Y-11703096D01*
X11779990Y-11598334D02*
X11789514Y-11579286D01*
X11789514Y-11579286D02*
X11808561Y-11569762D01*
X11808561Y-11569762D02*
X11837133Y-11569762D01*
X11837133Y-11569762D02*
X11856180Y-11579286D01*
X11856180Y-11579286D02*
X11865704Y-11598334D01*
X11865704Y-11598334D02*
X11865704Y-11703096D01*
X11960942Y-11703096D02*
X11960942Y-11569762D01*
X11960942Y-11588810D02*
X11970466Y-11579286D01*
X11970466Y-11579286D02*
X11989514Y-11569762D01*
X11989514Y-11569762D02*
X12018085Y-11569762D01*
X12018085Y-11569762D02*
X12037133Y-11579286D01*
X12037133Y-11579286D02*
X12046657Y-11598334D01*
X12046657Y-11598334D02*
X12046657Y-11703096D01*
X12046657Y-11598334D02*
X12056180Y-11579286D01*
X12056180Y-11579286D02*
X12075228Y-11569762D01*
X12075228Y-11569762D02*
X12103799Y-11569762D01*
X12103799Y-11569762D02*
X12122847Y-11579286D01*
X12122847Y-11579286D02*
X12132371Y-11598334D01*
X12132371Y-11598334D02*
X12132371Y-11703096D01*
X12522847Y-11493572D02*
X12351419Y-11750715D01*
X12779990Y-11503096D02*
X12799038Y-11503096D01*
X12799038Y-11503096D02*
X12818085Y-11512620D01*
X12818085Y-11512620D02*
X12827609Y-11522143D01*
X12827609Y-11522143D02*
X12837133Y-11541191D01*
X12837133Y-11541191D02*
X12846657Y-11579286D01*
X12846657Y-11579286D02*
X12846657Y-11626905D01*
X12846657Y-11626905D02*
X12837133Y-11665001D01*
X12837133Y-11665001D02*
X12827609Y-11684048D01*
X12827609Y-11684048D02*
X12818085Y-11693572D01*
X12818085Y-11693572D02*
X12799038Y-11703096D01*
X12799038Y-11703096D02*
X12779990Y-11703096D01*
X12779990Y-11703096D02*
X12760942Y-11693572D01*
X12760942Y-11693572D02*
X12751419Y-11684048D01*
X12751419Y-11684048D02*
X12741895Y-11665001D01*
X12741895Y-11665001D02*
X12732371Y-11626905D01*
X12732371Y-11626905D02*
X12732371Y-11579286D01*
X12732371Y-11579286D02*
X12741895Y-11541191D01*
X12741895Y-11541191D02*
X12751419Y-11522143D01*
X12751419Y-11522143D02*
X12760942Y-11512620D01*
X12760942Y-11512620D02*
X12779990Y-11503096D01*
X12932371Y-11684048D02*
X12941895Y-11693572D01*
X12941895Y-11693572D02*
X12932371Y-11703096D01*
X12932371Y-11703096D02*
X12922847Y-11693572D01*
X12922847Y-11693572D02*
X12932371Y-11684048D01*
X12932371Y-11684048D02*
X12932371Y-11703096D01*
X13065704Y-11503096D02*
X13084752Y-11503096D01*
X13084752Y-11503096D02*
X13103800Y-11512620D01*
X13103800Y-11512620D02*
X13113323Y-11522143D01*
X13113323Y-11522143D02*
X13122847Y-11541191D01*
X13122847Y-11541191D02*
X13132371Y-11579286D01*
X13132371Y-11579286D02*
X13132371Y-11626905D01*
X13132371Y-11626905D02*
X13122847Y-11665001D01*
X13122847Y-11665001D02*
X13113323Y-11684048D01*
X13113323Y-11684048D02*
X13103800Y-11693572D01*
X13103800Y-11693572D02*
X13084752Y-11703096D01*
X13084752Y-11703096D02*
X13065704Y-11703096D01*
X13065704Y-11703096D02*
X13046657Y-11693572D01*
X13046657Y-11693572D02*
X13037133Y-11684048D01*
X13037133Y-11684048D02*
X13027609Y-11665001D01*
X13027609Y-11665001D02*
X13018085Y-11626905D01*
X13018085Y-11626905D02*
X13018085Y-11579286D01*
X13018085Y-11579286D02*
X13027609Y-11541191D01*
X13027609Y-11541191D02*
X13037133Y-11522143D01*
X13037133Y-11522143D02*
X13046657Y-11512620D01*
X13046657Y-11512620D02*
X13065704Y-11503096D01*
X13199038Y-11503096D02*
X13322847Y-11503096D01*
X13322847Y-11503096D02*
X13256181Y-11579286D01*
X13256181Y-11579286D02*
X13284752Y-11579286D01*
X13284752Y-11579286D02*
X13303800Y-11588810D01*
X13303800Y-11588810D02*
X13313323Y-11598334D01*
X13313323Y-11598334D02*
X13322847Y-11617382D01*
X13322847Y-11617382D02*
X13322847Y-11665001D01*
X13322847Y-11665001D02*
X13313323Y-11684048D01*
X13313323Y-11684048D02*
X13303800Y-11693572D01*
X13303800Y-11693572D02*
X13284752Y-11703096D01*
X13284752Y-11703096D02*
X13227609Y-11703096D01*
X13227609Y-11703096D02*
X13208562Y-11693572D01*
X13208562Y-11693572D02*
X13199038Y-11684048D01*
X13418085Y-11703096D02*
X13456181Y-11703096D01*
X13456181Y-11703096D02*
X13475228Y-11693572D01*
X13475228Y-11693572D02*
X13484752Y-11684048D01*
X13484752Y-11684048D02*
X13503800Y-11655477D01*
X13503800Y-11655477D02*
X13513323Y-11617382D01*
X13513323Y-11617382D02*
X13513323Y-11541191D01*
X13513323Y-11541191D02*
X13503800Y-11522143D01*
X13503800Y-11522143D02*
X13494276Y-11512620D01*
X13494276Y-11512620D02*
X13475228Y-11503096D01*
X13475228Y-11503096D02*
X13437133Y-11503096D01*
X13437133Y-11503096D02*
X13418085Y-11512620D01*
X13418085Y-11512620D02*
X13408562Y-11522143D01*
X13408562Y-11522143D02*
X13399038Y-11541191D01*
X13399038Y-11541191D02*
X13399038Y-11588810D01*
X13399038Y-11588810D02*
X13408562Y-11607858D01*
X13408562Y-11607858D02*
X13418085Y-11617382D01*
X13418085Y-11617382D02*
X13437133Y-11626905D01*
X13437133Y-11626905D02*
X13475228Y-11626905D01*
X13475228Y-11626905D02*
X13494276Y-11617382D01*
X13494276Y-11617382D02*
X13503800Y-11607858D01*
X13503800Y-11607858D02*
X13513323Y-11588810D01*
X13684752Y-11569762D02*
X13684752Y-11703096D01*
X13637133Y-11493572D02*
X13589514Y-11636429D01*
X13589514Y-11636429D02*
X13713323Y-11636429D01*
X13779990Y-11503096D02*
X13779990Y-11541191D01*
X13856181Y-11503096D02*
X13856181Y-11541191D01*
X14151419Y-11779286D02*
X14141895Y-11769762D01*
X14141895Y-11769762D02*
X14122847Y-11741191D01*
X14122847Y-11741191D02*
X14113324Y-11722143D01*
X14113324Y-11722143D02*
X14103800Y-11693572D01*
X14103800Y-11693572D02*
X14094276Y-11645953D01*
X14094276Y-11645953D02*
X14094276Y-11607858D01*
X14094276Y-11607858D02*
X14103800Y-11560239D01*
X14103800Y-11560239D02*
X14113324Y-11531667D01*
X14113324Y-11531667D02*
X14122847Y-11512620D01*
X14122847Y-11512620D02*
X14141895Y-11484048D01*
X14141895Y-11484048D02*
X14151419Y-11474524D01*
X14218085Y-11522143D02*
X14227609Y-11512620D01*
X14227609Y-11512620D02*
X14246657Y-11503096D01*
X14246657Y-11503096D02*
X14294276Y-11503096D01*
X14294276Y-11503096D02*
X14313324Y-11512620D01*
X14313324Y-11512620D02*
X14322847Y-11522143D01*
X14322847Y-11522143D02*
X14332371Y-11541191D01*
X14332371Y-11541191D02*
X14332371Y-11560239D01*
X14332371Y-11560239D02*
X14322847Y-11588810D01*
X14322847Y-11588810D02*
X14208562Y-11703096D01*
X14208562Y-11703096D02*
X14332371Y-11703096D01*
X14570466Y-11703096D02*
X14570466Y-11503096D01*
X14656181Y-11703096D02*
X14656181Y-11598334D01*
X14656181Y-11598334D02*
X14646657Y-11579286D01*
X14646657Y-11579286D02*
X14627609Y-11569762D01*
X14627609Y-11569762D02*
X14599038Y-11569762D01*
X14599038Y-11569762D02*
X14579990Y-11579286D01*
X14579990Y-11579286D02*
X14570466Y-11588810D01*
X14779990Y-11703096D02*
X14760943Y-11693572D01*
X14760943Y-11693572D02*
X14751419Y-11684048D01*
X14751419Y-11684048D02*
X14741895Y-11665001D01*
X14741895Y-11665001D02*
X14741895Y-11607858D01*
X14741895Y-11607858D02*
X14751419Y-11588810D01*
X14751419Y-11588810D02*
X14760943Y-11579286D01*
X14760943Y-11579286D02*
X14779990Y-11569762D01*
X14779990Y-11569762D02*
X14808562Y-11569762D01*
X14808562Y-11569762D02*
X14827609Y-11579286D01*
X14827609Y-11579286D02*
X14837133Y-11588810D01*
X14837133Y-11588810D02*
X14846657Y-11607858D01*
X14846657Y-11607858D02*
X14846657Y-11665001D01*
X14846657Y-11665001D02*
X14837133Y-11684048D01*
X14837133Y-11684048D02*
X14827609Y-11693572D01*
X14827609Y-11693572D02*
X14808562Y-11703096D01*
X14808562Y-11703096D02*
X14779990Y-11703096D01*
X14960943Y-11703096D02*
X14941895Y-11693572D01*
X14941895Y-11693572D02*
X14932371Y-11674524D01*
X14932371Y-11674524D02*
X14932371Y-11503096D01*
X15113324Y-11693572D02*
X15094276Y-11703096D01*
X15094276Y-11703096D02*
X15056181Y-11703096D01*
X15056181Y-11703096D02*
X15037133Y-11693572D01*
X15037133Y-11693572D02*
X15027609Y-11674524D01*
X15027609Y-11674524D02*
X15027609Y-11598334D01*
X15027609Y-11598334D02*
X15037133Y-11579286D01*
X15037133Y-11579286D02*
X15056181Y-11569762D01*
X15056181Y-11569762D02*
X15094276Y-11569762D01*
X15094276Y-11569762D02*
X15113324Y-11579286D01*
X15113324Y-11579286D02*
X15122847Y-11598334D01*
X15122847Y-11598334D02*
X15122847Y-11617382D01*
X15122847Y-11617382D02*
X15027609Y-11636429D01*
X15199038Y-11693572D02*
X15218086Y-11703096D01*
X15218086Y-11703096D02*
X15256181Y-11703096D01*
X15256181Y-11703096D02*
X15275228Y-11693572D01*
X15275228Y-11693572D02*
X15284752Y-11674524D01*
X15284752Y-11674524D02*
X15284752Y-11665001D01*
X15284752Y-11665001D02*
X15275228Y-11645953D01*
X15275228Y-11645953D02*
X15256181Y-11636429D01*
X15256181Y-11636429D02*
X15227609Y-11636429D01*
X15227609Y-11636429D02*
X15208562Y-11626905D01*
X15208562Y-11626905D02*
X15199038Y-11607858D01*
X15199038Y-11607858D02*
X15199038Y-11598334D01*
X15199038Y-11598334D02*
X15208562Y-11579286D01*
X15208562Y-11579286D02*
X15227609Y-11569762D01*
X15227609Y-11569762D02*
X15256181Y-11569762D01*
X15256181Y-11569762D02*
X15275228Y-11579286D01*
X15351419Y-11779286D02*
X15360943Y-11769762D01*
X15360943Y-11769762D02*
X15379990Y-11741191D01*
X15379990Y-11741191D02*
X15389514Y-11722143D01*
X15389514Y-11722143D02*
X15399038Y-11693572D01*
X15399038Y-11693572D02*
X15408562Y-11645953D01*
X15408562Y-11645953D02*
X15408562Y-11607858D01*
X15408562Y-11607858D02*
X15399038Y-11560239D01*
X15399038Y-11560239D02*
X15389514Y-11531667D01*
X15389514Y-11531667D02*
X15379990Y-11512620D01*
X15379990Y-11512620D02*
X15360943Y-11484048D01*
X15360943Y-11484048D02*
X15351419Y-11474524D01*
X15713324Y-11779286D02*
X15703800Y-11769762D01*
X15703800Y-11769762D02*
X15684752Y-11741191D01*
X15684752Y-11741191D02*
X15675228Y-11722143D01*
X15675228Y-11722143D02*
X15665705Y-11693572D01*
X15665705Y-11693572D02*
X15656181Y-11645953D01*
X15656181Y-11645953D02*
X15656181Y-11607858D01*
X15656181Y-11607858D02*
X15665705Y-11560239D01*
X15665705Y-11560239D02*
X15675228Y-11531667D01*
X15675228Y-11531667D02*
X15684752Y-11512620D01*
X15684752Y-11512620D02*
X15703800Y-11484048D01*
X15703800Y-11484048D02*
X15713324Y-11474524D01*
X15789514Y-11569762D02*
X15789514Y-11703096D01*
X15789514Y-11588810D02*
X15799038Y-11579286D01*
X15799038Y-11579286D02*
X15818086Y-11569762D01*
X15818086Y-11569762D02*
X15846657Y-11569762D01*
X15846657Y-11569762D02*
X15865705Y-11579286D01*
X15865705Y-11579286D02*
X15875228Y-11598334D01*
X15875228Y-11598334D02*
X15875228Y-11703096D01*
X15999038Y-11703096D02*
X15979990Y-11693572D01*
X15979990Y-11693572D02*
X15970467Y-11684048D01*
X15970467Y-11684048D02*
X15960943Y-11665001D01*
X15960943Y-11665001D02*
X15960943Y-11607858D01*
X15960943Y-11607858D02*
X15970467Y-11588810D01*
X15970467Y-11588810D02*
X15979990Y-11579286D01*
X15979990Y-11579286D02*
X15999038Y-11569762D01*
X15999038Y-11569762D02*
X16027609Y-11569762D01*
X16027609Y-11569762D02*
X16046657Y-11579286D01*
X16046657Y-11579286D02*
X16056181Y-11588810D01*
X16056181Y-11588810D02*
X16065705Y-11607858D01*
X16065705Y-11607858D02*
X16065705Y-11665001D01*
X16065705Y-11665001D02*
X16056181Y-11684048D01*
X16056181Y-11684048D02*
X16046657Y-11693572D01*
X16046657Y-11693572D02*
X16027609Y-11703096D01*
X16027609Y-11703096D02*
X15999038Y-11703096D01*
X16122848Y-11569762D02*
X16199038Y-11569762D01*
X16151419Y-11503096D02*
X16151419Y-11674524D01*
X16151419Y-11674524D02*
X16160943Y-11693572D01*
X16160943Y-11693572D02*
X16179990Y-11703096D01*
X16179990Y-11703096D02*
X16199038Y-11703096D01*
X16418086Y-11569762D02*
X16418086Y-11769762D01*
X16418086Y-11579286D02*
X16437133Y-11569762D01*
X16437133Y-11569762D02*
X16475229Y-11569762D01*
X16475229Y-11569762D02*
X16494276Y-11579286D01*
X16494276Y-11579286D02*
X16503800Y-11588810D01*
X16503800Y-11588810D02*
X16513324Y-11607858D01*
X16513324Y-11607858D02*
X16513324Y-11665001D01*
X16513324Y-11665001D02*
X16503800Y-11684048D01*
X16503800Y-11684048D02*
X16494276Y-11693572D01*
X16494276Y-11693572D02*
X16475229Y-11703096D01*
X16475229Y-11703096D02*
X16437133Y-11703096D01*
X16437133Y-11703096D02*
X16418086Y-11693572D01*
X16627609Y-11703096D02*
X16608562Y-11693572D01*
X16608562Y-11693572D02*
X16599038Y-11674524D01*
X16599038Y-11674524D02*
X16599038Y-11503096D01*
X16789514Y-11703096D02*
X16789514Y-11598334D01*
X16789514Y-11598334D02*
X16779991Y-11579286D01*
X16779991Y-11579286D02*
X16760943Y-11569762D01*
X16760943Y-11569762D02*
X16722848Y-11569762D01*
X16722848Y-11569762D02*
X16703800Y-11579286D01*
X16789514Y-11693572D02*
X16770467Y-11703096D01*
X16770467Y-11703096D02*
X16722848Y-11703096D01*
X16722848Y-11703096D02*
X16703800Y-11693572D01*
X16703800Y-11693572D02*
X16694276Y-11674524D01*
X16694276Y-11674524D02*
X16694276Y-11655477D01*
X16694276Y-11655477D02*
X16703800Y-11636429D01*
X16703800Y-11636429D02*
X16722848Y-11626905D01*
X16722848Y-11626905D02*
X16770467Y-11626905D01*
X16770467Y-11626905D02*
X16789514Y-11617382D01*
X16856181Y-11569762D02*
X16932371Y-11569762D01*
X16884752Y-11503096D02*
X16884752Y-11674524D01*
X16884752Y-11674524D02*
X16894276Y-11693572D01*
X16894276Y-11693572D02*
X16913324Y-11703096D01*
X16913324Y-11703096D02*
X16932371Y-11703096D01*
X17075229Y-11693572D02*
X17056181Y-11703096D01*
X17056181Y-11703096D02*
X17018086Y-11703096D01*
X17018086Y-11703096D02*
X16999038Y-11693572D01*
X16999038Y-11693572D02*
X16989514Y-11674524D01*
X16989514Y-11674524D02*
X16989514Y-11598334D01*
X16989514Y-11598334D02*
X16999038Y-11579286D01*
X16999038Y-11579286D02*
X17018086Y-11569762D01*
X17018086Y-11569762D02*
X17056181Y-11569762D01*
X17056181Y-11569762D02*
X17075229Y-11579286D01*
X17075229Y-11579286D02*
X17084752Y-11598334D01*
X17084752Y-11598334D02*
X17084752Y-11617382D01*
X17084752Y-11617382D02*
X16989514Y-11636429D01*
X17256181Y-11703096D02*
X17256181Y-11503096D01*
X17256181Y-11693572D02*
X17237133Y-11703096D01*
X17237133Y-11703096D02*
X17199038Y-11703096D01*
X17199038Y-11703096D02*
X17179991Y-11693572D01*
X17179991Y-11693572D02*
X17170467Y-11684048D01*
X17170467Y-11684048D02*
X17160943Y-11665001D01*
X17160943Y-11665001D02*
X17160943Y-11607858D01*
X17160943Y-11607858D02*
X17170467Y-11588810D01*
X17170467Y-11588810D02*
X17179991Y-11579286D01*
X17179991Y-11579286D02*
X17199038Y-11569762D01*
X17199038Y-11569762D02*
X17237133Y-11569762D01*
X17237133Y-11569762D02*
X17256181Y-11579286D01*
X17332372Y-11779286D02*
X17341895Y-11769762D01*
X17341895Y-11769762D02*
X17360943Y-11741191D01*
X17360943Y-11741191D02*
X17370467Y-11722143D01*
X17370467Y-11722143D02*
X17379991Y-11693572D01*
X17379991Y-11693572D02*
X17389514Y-11645953D01*
X17389514Y-11645953D02*
X17389514Y-11607858D01*
X17389514Y-11607858D02*
X17379991Y-11560239D01*
X17379991Y-11560239D02*
X17370467Y-11531667D01*
X17370467Y-11531667D02*
X17360943Y-11512620D01*
X17360943Y-11512620D02*
X17341895Y-11484048D01*
X17341895Y-11484048D02*
X17332372Y-11474524D01*
M02*
