%TF.GenerationSoftware,KiCad,Pcbnew,10.0.1*%
%TF.CreationDate,2026-04-17T14:45:45-07:00*%
%TF.ProjectId,portal-gun,706f7274-616c-42d6-9775-6e2e6b696361,rev?*%
%TF.SameCoordinates,Original*%
%TF.FileFunction,Soldermask,Top*%
%TF.FilePolarity,Negative*%
%FSLAX46Y46*%
G04 Gerber Fmt 4.6, Leading zero omitted, Abs format (unit mm)*
G04 Created by KiCad (PCBNEW 10.0.1) date 2026-04-17 14:45:45*
%MOMM*%
%LPD*%
G01*
G04 APERTURE LIST*
%ADD10C,1.270000*%
%ADD11C,2.100000*%
%ADD12R,1.700000X1.700000*%
%ADD13C,1.700000*%
G04 APERTURE END LIST*
D10*
%TO.C,REF\u002A\u002A*%
X146225000Y-74175000D03*
%TD*%
D11*
%TO.C,REF\u002A\u002A*%
X166040000Y-90230000D03*
%TD*%
D10*
%TO.C,REF\u002A\u002A*%
X136925000Y-88675000D03*
%TD*%
D12*
%TO.C,J1*%
X152760000Y-85390000D03*
D13*
X152760000Y-87930000D03*
X155300000Y-85390000D03*
X155300000Y-87930000D03*
X157840000Y-85390000D03*
X157840000Y-87930000D03*
%TD*%
G36*
X169533370Y-69221647D02*
G01*
X169546720Y-75793257D01*
X169533370Y-82364538D01*
X169532954Y-82365077D01*
X169275175Y-82432756D01*
X169013320Y-82509801D01*
X169013321Y-82509802D01*
X168487789Y-82684691D01*
X167979322Y-82874551D01*
X167511198Y-83064108D01*
X167511199Y-83064109D01*
X167106597Y-83238127D01*
X166788826Y-83381319D01*
X166506215Y-83514421D01*
X166505286Y-83513832D01*
X166505286Y-72507602D01*
X166505421Y-72507253D01*
X168005242Y-70864378D01*
X169043794Y-69734993D01*
X169391403Y-69362797D01*
X169532133Y-69221139D01*
X169533370Y-69221647D01*
G37*
G36*
X196025496Y-71099052D02*
G01*
X196026000Y-71099620D01*
X196026000Y-92500378D01*
X196025500Y-92500945D01*
X189649677Y-93301048D01*
X189649000Y-93300451D01*
X189649000Y-91850254D01*
X189643921Y-91840899D01*
X189643860Y-91840659D01*
X189527350Y-71589163D01*
X189527351Y-71589126D01*
X189549000Y-71274960D01*
X189549000Y-70324550D01*
X189549672Y-70323954D01*
X196025496Y-71099052D01*
G37*
G36*
X181530772Y-72391087D02*
G01*
X181530914Y-72391444D01*
X181530914Y-85198112D01*
X181529820Y-85198667D01*
X181202088Y-84959510D01*
X180888466Y-84739076D01*
X180306152Y-84351622D01*
X180306152Y-84351621D01*
X179790754Y-84032746D01*
X179350446Y-83779123D01*
X178993605Y-83587552D01*
X178728462Y-83454745D01*
X178506136Y-83352283D01*
X178505820Y-83351790D01*
X178505820Y-69205048D01*
X178507079Y-69204546D01*
X181530772Y-72391087D01*
G37*
G36*
X177792808Y-68690921D02*
G01*
X177792808Y-83003566D01*
X177791931Y-83004161D01*
X177372261Y-82837584D01*
X176894670Y-82666437D01*
X176602401Y-82569615D01*
X176602401Y-82569616D01*
X176279612Y-82469380D01*
X175930183Y-82368804D01*
X175930183Y-82368803D01*
X175557990Y-82270959D01*
X175166915Y-82178917D01*
X175166915Y-82178918D01*
X174760749Y-82095733D01*
X174343413Y-82024483D01*
X173918793Y-81968242D01*
X173704927Y-81946703D01*
X173490705Y-81930068D01*
X173490705Y-81930069D01*
X173276557Y-81918716D01*
X173063001Y-81913033D01*
X172851396Y-81913656D01*
X172851397Y-81913657D01*
X172629168Y-81920227D01*
X172629167Y-81920226D01*
X172166422Y-81947919D01*
X171701489Y-81989552D01*
X171261099Y-82038564D01*
X170561051Y-82132459D01*
X170561052Y-82132460D01*
X170279692Y-82177188D01*
X170278990Y-82176589D01*
X170278990Y-68695070D01*
X170279575Y-68694484D01*
X177792222Y-68690335D01*
X177792808Y-68690921D01*
G37*
G36*
X184485794Y-71762134D02*
G01*
X184485794Y-87815752D01*
X184484576Y-87816269D01*
X183938896Y-87290171D01*
X183485745Y-86861897D01*
X183485745Y-86861896D01*
X183118703Y-86522600D01*
X183118703Y-86522601D01*
X182831766Y-86263842D01*
X182474408Y-85954358D01*
X182365732Y-85866013D01*
X182365538Y-85865605D01*
X182365538Y-72622169D01*
X182365879Y-72621662D01*
X184484911Y-71761539D01*
X184485794Y-71762134D01*
G37*
G36*
X188722313Y-71588762D02*
G01*
X188722313Y-91838494D01*
X188721731Y-91839079D01*
X187636461Y-91844190D01*
X187636003Y-91843935D01*
X187453642Y-91546896D01*
X187262126Y-91251558D01*
X187064222Y-90960136D01*
X186862826Y-90675056D01*
X186461233Y-90133759D01*
X186080547Y-89647125D01*
X185744003Y-89234666D01*
X185744003Y-89234665D01*
X185474872Y-88915930D01*
X185231549Y-88637377D01*
X185231421Y-88637037D01*
X185231421Y-71590595D01*
X185232006Y-71590009D01*
X188721727Y-71588176D01*
X188722313Y-71588762D01*
G37*
M02*
