%TF.GenerationSoftware,KiCad,Pcbnew,9.0.0*%
%TF.CreationDate,2025-03-23T17:22:46-07:00*%
%TF.ProjectId,portal-gun,706f7274-616c-42d6-9775-6e2e6b696361,rev?*%
%TF.SameCoordinates,Original*%
%TF.FileFunction,Soldermask,Bot*%
%TF.FilePolarity,Negative*%
%FSLAX46Y46*%
G04 Gerber Fmt 4.6, Leading zero omitted, Abs format (unit mm)*
G04 Created by KiCad (PCBNEW 9.0.0) date 2025-03-23 17:22:46*
%MOMM*%
%LPD*%
G01*
G04 APERTURE LIST*
G04 Aperture macros list*
%AMRoundRect*
0 Rectangle with rounded corners*
0 $1 Rounding radius*
0 $2 $3 $4 $5 $6 $7 $8 $9 X,Y pos of 4 corners*
0 Add a 4 corners polygon primitive as box body*
4,1,4,$2,$3,$4,$5,$6,$7,$8,$9,$2,$3,0*
0 Add four circle primitives for the rounded corners*
1,1,$1+$1,$2,$3*
1,1,$1+$1,$4,$5*
1,1,$1+$1,$6,$7*
1,1,$1+$1,$8,$9*
0 Add four rect primitives between the rounded corners*
20,1,$1+$1,$2,$3,$4,$5,0*
20,1,$1+$1,$4,$5,$6,$7,0*
20,1,$1+$1,$6,$7,$8,$9,0*
20,1,$1+$1,$8,$9,$2,$3,0*%
%AMRotRect*
0 Rectangle, with rotation*
0 The origin of the aperture is its center*
0 $1 length*
0 $2 width*
0 $3 Rotation angle, in degrees counterclockwise*
0 Add horizontal line*
21,1,$1,$2,0,0,$3*%
G04 Aperture macros list end*
%ADD10C,1.000000*%
%ADD11RoundRect,0.150000X-0.150000X0.512500X-0.150000X-0.512500X0.150000X-0.512500X0.150000X0.512500X0*%
%ADD12R,0.500000X0.800000*%
%ADD13R,0.400000X0.600000*%
%ADD14R,0.400000X0.800000*%
%ADD15R,2.200000X1.200000*%
%ADD16R,1.510000X1.800000*%
%ADD17R,0.800000X0.500000*%
%ADD18R,0.600000X0.400000*%
%ADD19R,0.800000X0.400000*%
%ADD20R,1.700000X1.700000*%
%ADD21O,1.700000X1.700000*%
%ADD22RoundRect,0.225000X-0.250000X0.225000X-0.250000X-0.225000X0.250000X-0.225000X0.250000X0.225000X0*%
%ADD23RotRect,0.500000X0.800000X195.000000*%
%ADD24RotRect,0.400000X0.600000X195.000000*%
%ADD25RotRect,0.400000X0.800000X195.000000*%
G04 APERTURE END LIST*
D10*
%TO.C,REF\u002A\u002A*%
X146225000Y-74175000D03*
%TD*%
D11*
%TO.C,U1*%
X119550000Y-74987500D03*
X120500000Y-74987500D03*
X121450000Y-74987500D03*
X121450000Y-77262500D03*
X120500000Y-77262500D03*
X119550000Y-77262500D03*
%TD*%
D12*
%TO.C,U3*%
X150607000Y-81392643D03*
D13*
X151357000Y-81292643D03*
D14*
X152057000Y-81392643D03*
D13*
X152757000Y-81292643D03*
D12*
X153507000Y-81392643D03*
%TD*%
D15*
%TO.C,SW1*%
X111050000Y-87775000D03*
X111050000Y-83275000D03*
D16*
X114250000Y-89525000D03*
X114250000Y-81525000D03*
%TD*%
D17*
%TO.C,U5*%
X195625000Y-80300000D03*
D18*
X195725000Y-81050000D03*
D19*
X195625000Y-81750000D03*
D18*
X195725000Y-82450000D03*
D17*
X195625000Y-83200000D03*
%TD*%
D20*
%TO.C,J1*%
X124195000Y-87260000D03*
D21*
X124195000Y-89800000D03*
X126735000Y-87260000D03*
X126735000Y-89800000D03*
X129275000Y-87260000D03*
X129275000Y-89800000D03*
%TD*%
D22*
%TO.C,C1*%
X120500000Y-78925000D03*
X120500000Y-80475000D03*
%TD*%
D12*
%TO.C,U4*%
X159482000Y-81342643D03*
D13*
X160232000Y-81242643D03*
D14*
X160932000Y-81342643D03*
D13*
X161632000Y-81242643D03*
D12*
X162382000Y-81342643D03*
%TD*%
D23*
%TO.C,U2*%
X127244349Y-71641227D03*
D24*
X127942911Y-71350520D03*
D25*
X128644941Y-71265939D03*
D24*
X129295207Y-70988173D03*
D23*
X130045533Y-70890652D03*
%TD*%
D10*
%TO.C,REF\u002A\u002A*%
X136925000Y-88675000D03*
%TD*%
G36*
X146327549Y-73079889D02*
G01*
X146524972Y-73116794D01*
X146527026Y-73117378D01*
X146714314Y-73189933D01*
X146716225Y-73190885D01*
X146886983Y-73296615D01*
X146888688Y-73297902D01*
X147037121Y-73433216D01*
X147038559Y-73434795D01*
X147159589Y-73595064D01*
X147160714Y-73596880D01*
X147250242Y-73776678D01*
X147251013Y-73778669D01*
X147305975Y-73971841D01*
X147306368Y-73973940D01*
X147324901Y-74173932D01*
X147324901Y-74176068D01*
X147306368Y-74376059D01*
X147305975Y-74378158D01*
X147251013Y-74571330D01*
X147250242Y-74573321D01*
X147160714Y-74753119D01*
X147159589Y-74754935D01*
X147038559Y-74915204D01*
X147037121Y-74916783D01*
X146888688Y-75052097D01*
X146886983Y-75053384D01*
X146716225Y-75159114D01*
X146714314Y-75160066D01*
X146527026Y-75232621D01*
X146524972Y-75233205D01*
X146327549Y-75270111D01*
X146325422Y-75270308D01*
X146124578Y-75270308D01*
X146122451Y-75270111D01*
X145925027Y-75233205D01*
X145922973Y-75232621D01*
X145735685Y-75160066D01*
X145733774Y-75159114D01*
X145563016Y-75053384D01*
X145561311Y-75052097D01*
X145412878Y-74916783D01*
X145411440Y-74915204D01*
X145290410Y-74754935D01*
X145289285Y-74753119D01*
X145199757Y-74573321D01*
X145198986Y-74571330D01*
X145144024Y-74378158D01*
X145143631Y-74376059D01*
X145125098Y-74176068D01*
X145125098Y-74173932D01*
X145143631Y-73973940D01*
X145144024Y-73971841D01*
X145198986Y-73778669D01*
X145199757Y-73776678D01*
X145289285Y-73596880D01*
X145290410Y-73595064D01*
X145411440Y-73434795D01*
X145412878Y-73433216D01*
X145561311Y-73297902D01*
X145563016Y-73296615D01*
X145733774Y-73190885D01*
X145735685Y-73189933D01*
X145922973Y-73117378D01*
X145925027Y-73116794D01*
X146122451Y-73079889D01*
X146124578Y-73079692D01*
X146325422Y-73079692D01*
X146327549Y-73079889D01*
G37*
G36*
X173451600Y-68698874D02*
G01*
X173454990Y-68707057D01*
X173454990Y-71858911D01*
X173451600Y-71867094D01*
X173443417Y-71870484D01*
X170291563Y-71870484D01*
X170283380Y-71867094D01*
X170279990Y-71858911D01*
X170279990Y-68707057D01*
X170283380Y-68698874D01*
X170291563Y-68695484D01*
X173443417Y-68695484D01*
X173451600Y-68698874D01*
G37*
G36*
X137027549Y-87579889D02*
G01*
X137224972Y-87616794D01*
X137227026Y-87617378D01*
X137414314Y-87689933D01*
X137416225Y-87690885D01*
X137586983Y-87796615D01*
X137588688Y-87797902D01*
X137737121Y-87933216D01*
X137738559Y-87934795D01*
X137859589Y-88095064D01*
X137860714Y-88096880D01*
X137950242Y-88276678D01*
X137951013Y-88278669D01*
X138005975Y-88471841D01*
X138006368Y-88473940D01*
X138024901Y-88673932D01*
X138024901Y-88676068D01*
X138006368Y-88876059D01*
X138005975Y-88878158D01*
X137951013Y-89071330D01*
X137950242Y-89073321D01*
X137860714Y-89253119D01*
X137859589Y-89254935D01*
X137738559Y-89415204D01*
X137737121Y-89416783D01*
X137588688Y-89552097D01*
X137586983Y-89553384D01*
X137416225Y-89659114D01*
X137414314Y-89660066D01*
X137227026Y-89732621D01*
X137224972Y-89733205D01*
X137027549Y-89770111D01*
X137025422Y-89770308D01*
X136824578Y-89770308D01*
X136822451Y-89770111D01*
X136625027Y-89733205D01*
X136622973Y-89732621D01*
X136435685Y-89660066D01*
X136433774Y-89659114D01*
X136263016Y-89553384D01*
X136261311Y-89552097D01*
X136112878Y-89416783D01*
X136111440Y-89415204D01*
X135990410Y-89254935D01*
X135989285Y-89253119D01*
X135899757Y-89073321D01*
X135898986Y-89071330D01*
X135844024Y-88878158D01*
X135843631Y-88876059D01*
X135825098Y-88676068D01*
X135825098Y-88673932D01*
X135843631Y-88473940D01*
X135844024Y-88471841D01*
X135898986Y-88278669D01*
X135899757Y-88276678D01*
X135989285Y-88096880D01*
X135990410Y-88095064D01*
X136111440Y-87934795D01*
X136112878Y-87933216D01*
X136261311Y-87797902D01*
X136263016Y-87796615D01*
X136433774Y-87690885D01*
X136435685Y-87689933D01*
X136622973Y-87617378D01*
X136625027Y-87616794D01*
X136822451Y-87579889D01*
X136824578Y-87579692D01*
X137025422Y-87579692D01*
X137027549Y-87579889D01*
G37*
G36*
X165704937Y-72686548D02*
G01*
X165705519Y-72687133D01*
X165705519Y-80914533D01*
X165704936Y-80915118D01*
X146184013Y-80996059D01*
X146183434Y-80995049D01*
X146944519Y-79707456D01*
X147620345Y-78513253D01*
X148222541Y-77399520D01*
X148762372Y-76353955D01*
X149251143Y-75364188D01*
X149700150Y-74417868D01*
X150524169Y-72605881D01*
X150524667Y-72605562D01*
X165704937Y-72686548D01*
G37*
G36*
X131848464Y-67642678D02*
G01*
X131852824Y-67650388D01*
X131852877Y-67652669D01*
X131846566Y-67736087D01*
X131846466Y-67736964D01*
X131829061Y-67850768D01*
X131828911Y-67851560D01*
X131794998Y-68002206D01*
X131794772Y-68003058D01*
X131738859Y-68185324D01*
X131738541Y-68186225D01*
X131655133Y-68394900D01*
X131654712Y-68395832D01*
X131538304Y-68625762D01*
X131537772Y-68626702D01*
X131382770Y-68872848D01*
X131382303Y-68873533D01*
X131288772Y-69000830D01*
X131288425Y-69001280D01*
X131183094Y-69130799D01*
X131182722Y-69131234D01*
X131065013Y-69262180D01*
X131064619Y-69262597D01*
X130933830Y-69394335D01*
X130933417Y-69394731D01*
X130788849Y-69526621D01*
X130788420Y-69526993D01*
X130629402Y-69658369D01*
X130628961Y-69658716D01*
X130454767Y-69788958D01*
X130454317Y-69789277D01*
X130264281Y-69917716D01*
X130263827Y-69918008D01*
X130057251Y-70044000D01*
X130056795Y-70044264D01*
X129833000Y-70167153D01*
X129832547Y-70167390D01*
X129590774Y-70286561D01*
X129590325Y-70286770D01*
X129329971Y-70401527D01*
X129329529Y-70401711D01*
X129049847Y-70511430D01*
X129049416Y-70511589D01*
X128749747Y-70615607D01*
X128749327Y-70615744D01*
X128428952Y-70713420D01*
X128428545Y-70713536D01*
X128086821Y-70804205D01*
X128086346Y-70804320D01*
X127813964Y-70864397D01*
X127813394Y-70864508D01*
X127548868Y-70909084D01*
X127548288Y-70909167D01*
X127291619Y-70939144D01*
X127291031Y-70939197D01*
X127042328Y-70955465D01*
X127041739Y-70955489D01*
X126800972Y-70958944D01*
X126800385Y-70958937D01*
X126567696Y-70950472D01*
X126567116Y-70950437D01*
X126342462Y-70930939D01*
X126341893Y-70930875D01*
X126125394Y-70901238D01*
X126124840Y-70901149D01*
X125916542Y-70862268D01*
X125916006Y-70862154D01*
X125715932Y-70814911D01*
X125715417Y-70814777D01*
X125523626Y-70760062D01*
X125523133Y-70759909D01*
X125339722Y-70698626D01*
X125339254Y-70698459D01*
X125164201Y-70631469D01*
X125163757Y-70631288D01*
X124997196Y-70559514D01*
X124996778Y-70559324D01*
X124838716Y-70483634D01*
X124838322Y-70483436D01*
X124688840Y-70404733D01*
X124688472Y-70404531D01*
X124547600Y-70323690D01*
X124547255Y-70323484D01*
X124415067Y-70241405D01*
X124414746Y-70241198D01*
X124291314Y-70158782D01*
X124291014Y-70158575D01*
X124176425Y-70076739D01*
X124176020Y-70076436D01*
X123973280Y-69917826D01*
X123972798Y-69917428D01*
X123805973Y-69771727D01*
X123805558Y-69771345D01*
X123675099Y-69645690D01*
X123674741Y-69645330D01*
X123581075Y-69546839D01*
X123580705Y-69546431D01*
X123516657Y-69472315D01*
X123513871Y-69463907D01*
X123517846Y-69455992D01*
X123521955Y-69453704D01*
X125012333Y-68987088D01*
X125012541Y-68987025D01*
X126337605Y-68599287D01*
X126337848Y-68599219D01*
X126980081Y-68426386D01*
X126980380Y-68426309D01*
X127547077Y-68289921D01*
X127547537Y-68289820D01*
X128139382Y-68172646D01*
X128139686Y-68172590D01*
X128818441Y-68056951D01*
X128818628Y-68056921D01*
X129533087Y-67947183D01*
X129533213Y-67947164D01*
X130232446Y-67847638D01*
X130232451Y-67847677D01*
X130232567Y-67847621D01*
X131380394Y-67696641D01*
X131380495Y-67696628D01*
X131839929Y-67640309D01*
X131848464Y-67642678D01*
G37*
G36*
X173421610Y-92853390D02*
G01*
X173425000Y-92861573D01*
X173425000Y-96013427D01*
X173421610Y-96021610D01*
X173413427Y-96025000D01*
X170261573Y-96025000D01*
X170253390Y-96021610D01*
X170250000Y-96013427D01*
X170250000Y-92861573D01*
X170253390Y-92853390D01*
X170261573Y-92850000D01*
X173413427Y-92850000D01*
X173421610Y-92853390D01*
G37*
M02*
