%TF.GenerationSoftware,KiCad,Pcbnew,10.0.1*%
%TF.CreationDate,2026-04-17T14:45:45-07:00*%
%TF.ProjectId,portal-gun,706f7274-616c-42d6-9775-6e2e6b696361,rev?*%
%TF.SameCoordinates,Original*%
%TF.FileFunction,Copper,L1,Top*%
%TF.FilePolarity,Positive*%
%FSLAX46Y46*%
G04 Gerber Fmt 4.6, Leading zero omitted, Abs format (unit mm)*
G04 Created by KiCad (PCBNEW 10.0.1) date 2026-04-17 14:45:45*
%MOMM*%
%LPD*%
G01*
G04 APERTURE LIST*
%TA.AperFunction,WasherPad*%
%ADD10C,1.270000*%
%TD*%
%TA.AperFunction,ComponentPad*%
%ADD11R,1.700000X1.700000*%
%TD*%
%TA.AperFunction,ComponentPad*%
%ADD12C,1.700000*%
%TD*%
%TA.AperFunction,ViaPad*%
%ADD13C,0.600000*%
%TD*%
G04 APERTURE END LIST*
D10*
%TO.P,REF\u002A\u002A,*%
%TO.N,*%
X146225000Y-74175000D03*
%TD*%
%TO.P,REF\u002A\u002A,*%
%TO.N,*%
X136925000Y-88675000D03*
%TD*%
D11*
%TO.P,J1,1,Pin_1_1*%
%TO.N,VDD*%
X152760000Y-85390000D03*
D12*
%TO.P,J1,2,Pin_2_2*%
%TO.N,GND*%
X152760000Y-87930000D03*
%TO.P,J1,3,Pin_3_3*%
%TO.N,unconnected-(J1-Pin_3-Pad3)*%
X155300000Y-85390000D03*
%TO.P,J1,4,Pin_4_4*%
%TO.N,unconnected-(J1-Pin_4-Pad4)*%
X155300000Y-87930000D03*
%TO.P,J1,5,Pin_5_5*%
%TO.N,unconnected-(J1-Pin_5-Pad5)*%
X157840000Y-85390000D03*
%TO.P,J1,6,Pin_6_6*%
%TO.N,Net-(J1-Pin_6)*%
X157840000Y-87930000D03*
%TD*%
D13*
%TO.N,VDD*%
X193720000Y-82205000D03*
X145270000Y-82100000D03*
X123105000Y-82860000D03*
X129720000Y-72790000D03*
X167610000Y-82210000D03*
%TO.N,Net-(U1-PA4)*%
X112560000Y-84170000D03*
%TD*%
%TA.AperFunction,Conductor*%
%TO.N,Net-(U1-PA4)*%
G36*
X117810778Y-71420245D02*
G01*
X117814775Y-71418972D01*
X117824495Y-71421586D01*
X117862067Y-71425262D01*
X117874408Y-71435013D01*
X117882246Y-71437122D01*
X117895336Y-71451550D01*
X117916885Y-71468577D01*
X117918775Y-71471244D01*
X117923415Y-71482498D01*
X117929194Y-71488868D01*
X117939907Y-71522497D01*
X117940252Y-71524561D01*
X117941949Y-71544958D01*
X117949938Y-93227239D01*
X117944927Y-93262181D01*
X117940969Y-93275677D01*
X117903213Y-93334467D01*
X117840226Y-93363431D01*
X117826802Y-93365428D01*
X117792064Y-93365676D01*
X117789657Y-93365353D01*
X117789650Y-93365352D01*
X117778797Y-93363895D01*
X117776989Y-93363639D01*
X117775207Y-93363373D01*
X117773474Y-93363102D01*
X117764693Y-93361664D01*
X117759579Y-93360457D01*
X117751606Y-93359218D01*
X117742720Y-93357502D01*
X117741134Y-93357135D01*
X117734439Y-93356337D01*
X117734455Y-93356202D01*
X117724586Y-93355286D01*
X116303214Y-93104070D01*
X116301411Y-93103738D01*
X116299604Y-93103391D01*
X116297850Y-93103041D01*
X116289286Y-93101268D01*
X116285472Y-93100191D01*
X116275989Y-93098247D01*
X116268016Y-93096335D01*
X116263534Y-93095102D01*
X116257079Y-93094041D01*
X116257125Y-93093756D01*
X116247289Y-93092332D01*
X114933769Y-92785343D01*
X114932027Y-92784923D01*
X114930256Y-92784482D01*
X114928581Y-92784052D01*
X114919880Y-92781751D01*
X114916105Y-92780459D01*
X114906684Y-92777984D01*
X114898784Y-92775624D01*
X114896331Y-92774801D01*
X114894253Y-92774104D01*
X114887762Y-92772676D01*
X114887825Y-92772385D01*
X114877991Y-92770425D01*
X113670153Y-92418039D01*
X113668434Y-92417524D01*
X113666652Y-92416976D01*
X113664945Y-92416438D01*
X113656262Y-92413630D01*
X113652442Y-92412088D01*
X113643258Y-92409137D01*
X113635400Y-92406317D01*
X113631899Y-92404925D01*
X113625655Y-92403172D01*
X113625719Y-92402941D01*
X113616132Y-92400456D01*
X112510259Y-92012433D01*
X112508679Y-92011866D01*
X112507728Y-92011516D01*
X112507048Y-92011267D01*
X112505408Y-92010651D01*
X112496771Y-92007338D01*
X112492928Y-92005542D01*
X112484024Y-92002150D01*
X112476250Y-91998881D01*
X112472447Y-91997127D01*
X112466115Y-91994998D01*
X112466200Y-91994743D01*
X112456598Y-91991735D01*
X111453070Y-91579166D01*
X111451240Y-91578396D01*
X111449498Y-91577647D01*
X111447784Y-91576895D01*
X111439567Y-91573214D01*
X111435038Y-91570792D01*
X111429631Y-91568403D01*
X111427082Y-91567277D01*
X111418881Y-91563287D01*
X111416704Y-91562127D01*
X111410378Y-91559601D01*
X111410449Y-91559421D01*
X111400849Y-91555854D01*
X110496322Y-91128448D01*
X110494674Y-91127654D01*
X110493009Y-91126837D01*
X110491400Y-91126033D01*
X110483405Y-91121965D01*
X110479453Y-91119590D01*
X110471385Y-91115528D01*
X110463799Y-91111371D01*
X110461316Y-91109895D01*
X110461311Y-91109893D01*
X110455338Y-91107151D01*
X110455421Y-91106969D01*
X110446305Y-91103029D01*
X109638493Y-90670769D01*
X109637011Y-90669961D01*
X109635205Y-90668959D01*
X109633580Y-90668040D01*
X109626127Y-90663751D01*
X109621798Y-90660839D01*
X109614416Y-90656652D01*
X109606661Y-90651869D01*
X109604857Y-90650662D01*
X109604855Y-90650661D01*
X109604849Y-90650657D01*
X109598821Y-90647520D01*
X109598899Y-90647369D01*
X109589765Y-90642901D01*
X108878482Y-90216920D01*
X108876832Y-90215914D01*
X108876824Y-90215909D01*
X108875161Y-90214877D01*
X108873602Y-90213893D01*
X108866196Y-90209137D01*
X108861755Y-90205828D01*
X108854897Y-90201499D01*
X108847149Y-90196187D01*
X108845998Y-90195332D01*
X108840088Y-90191882D01*
X108840158Y-90191762D01*
X108831237Y-90186865D01*
X108213975Y-89777048D01*
X108212354Y-89775952D01*
X108210801Y-89774885D01*
X108209295Y-89773834D01*
X108207862Y-89772818D01*
X108201976Y-89768643D01*
X108197599Y-89765059D01*
X108191060Y-89760503D01*
X108183523Y-89754813D01*
X108182652Y-89754102D01*
X108176903Y-89750381D01*
X108176968Y-89750279D01*
X108168318Y-89745007D01*
X107643182Y-89361533D01*
X107641749Y-89360470D01*
X107640112Y-89359236D01*
X107638681Y-89358139D01*
X107631544Y-89352586D01*
X107628665Y-89349996D01*
X107623180Y-89345726D01*
X107620618Y-89343731D01*
X107614238Y-89338412D01*
X107610401Y-89334988D01*
X107605027Y-89331136D01*
X107605219Y-89330867D01*
X107596861Y-89325102D01*
X106779578Y-88647835D01*
X106778235Y-88646706D01*
X106776867Y-88645539D01*
X106775551Y-88644399D01*
X106767112Y-88636988D01*
X106765469Y-88635520D01*
X106756497Y-88627354D01*
X106751940Y-88622989D01*
X106743461Y-88614444D01*
X106743460Y-88614443D01*
X106743457Y-88614440D01*
X106743452Y-88614436D01*
X106742072Y-88613289D01*
X106733733Y-88605687D01*
X106103694Y-87976537D01*
X106083831Y-87950629D01*
X106058586Y-87906748D01*
X106058587Y-87906748D01*
X106057218Y-87904369D01*
X106044866Y-87874400D01*
X105914376Y-87383496D01*
X105913928Y-87381755D01*
X105913466Y-87379905D01*
X105913049Y-87378177D01*
X105910549Y-87367497D01*
X105910050Y-87365277D01*
X105908573Y-87358404D01*
X105908574Y-87358402D01*
X105907534Y-87353564D01*
X105906367Y-87347359D01*
X105904338Y-87334820D01*
X105904335Y-87334813D01*
X105903988Y-87333495D01*
X105901546Y-87322101D01*
X105819705Y-86827725D01*
X105819411Y-86825857D01*
X105819125Y-86823944D01*
X105818854Y-86822027D01*
X105817608Y-86812699D01*
X105817483Y-86810517D01*
X105817394Y-86810528D01*
X105815855Y-86797605D01*
X105815226Y-86790660D01*
X105814537Y-86779567D01*
X105814536Y-86779564D01*
X105814536Y-86779561D01*
X105813995Y-86776293D01*
X105812664Y-86765142D01*
X105776113Y-86268034D01*
X105775992Y-86266181D01*
X105775880Y-86264248D01*
X105775789Y-86262463D01*
X105775371Y-86252674D01*
X105775440Y-86250514D01*
X105775392Y-86250516D01*
X105774996Y-86237683D01*
X105774985Y-86230398D01*
X105775260Y-86220570D01*
X105775258Y-86220564D01*
X105774902Y-86215825D01*
X105774559Y-86205111D01*
X105780169Y-85704960D01*
X105780204Y-85703147D01*
X105780259Y-85701076D01*
X105780320Y-85699318D01*
X105780719Y-85689950D01*
X105780989Y-85687639D01*
X105781414Y-85679265D01*
X105781415Y-85679263D01*
X105781619Y-85675230D01*
X105782241Y-85667631D01*
X105783188Y-85659256D01*
X105783187Y-85659246D01*
X105783233Y-85652766D01*
X105783723Y-85642601D01*
X105828589Y-85141397D01*
X105828779Y-85139464D01*
X105828992Y-85137460D01*
X105829212Y-85135530D01*
X105830334Y-85126345D01*
X105831026Y-85122815D01*
X105832404Y-85111880D01*
X105833729Y-85103616D01*
X105834838Y-85097946D01*
X105834837Y-85097933D01*
X105835408Y-85091350D01*
X105835799Y-85091383D01*
X105836519Y-85081073D01*
X105917997Y-84578390D01*
X105918322Y-84576493D01*
X105918672Y-84574537D01*
X105918996Y-84572800D01*
X105920802Y-84563544D01*
X105921906Y-84559462D01*
X105923207Y-84552814D01*
X105923209Y-84552812D01*
X105923863Y-84549470D01*
X105925828Y-84541015D01*
X105927106Y-84536283D01*
X105927106Y-84536272D01*
X105928147Y-84529584D01*
X105928482Y-84529636D01*
X105929890Y-84519287D01*
X106045108Y-84017291D01*
X106045540Y-84015478D01*
X106046069Y-84013338D01*
X106046508Y-84011619D01*
X106048811Y-84002907D01*
X106050424Y-83998186D01*
X106051968Y-83992268D01*
X106051970Y-83992266D01*
X106052743Y-83989303D01*
X106055371Y-83980569D01*
X106056398Y-83977563D01*
X106056399Y-83977550D01*
X106057886Y-83970870D01*
X106058125Y-83970923D01*
X106060160Y-83960691D01*
X106206417Y-83460419D01*
X106206972Y-83458576D01*
X106207558Y-83456685D01*
X106208100Y-83454983D01*
X106210965Y-83446223D01*
X106212933Y-83441387D01*
X106214733Y-83435791D01*
X106214736Y-83435789D01*
X106215623Y-83433031D01*
X106218778Y-83424356D01*
X106219648Y-83422216D01*
X106219648Y-83422211D01*
X106221508Y-83415645D01*
X106221691Y-83415696D01*
X106224262Y-83405692D01*
X106398747Y-82908644D01*
X106399319Y-82907052D01*
X106400060Y-82905041D01*
X106400684Y-82903390D01*
X106404041Y-82894699D01*
X106406390Y-82889687D01*
X106409309Y-82881972D01*
X106412979Y-82873286D01*
X106413736Y-82871668D01*
X106415954Y-82865109D01*
X106416107Y-82865160D01*
X106419146Y-82855332D01*
X106618828Y-82363479D01*
X106619587Y-82361656D01*
X106620395Y-82359756D01*
X106621149Y-82358021D01*
X106624874Y-82349646D01*
X106627058Y-82345547D01*
X106629670Y-82339660D01*
X106630996Y-82336669D01*
X106634915Y-82328632D01*
X106637021Y-82324683D01*
X106637024Y-82324670D01*
X106639578Y-82318246D01*
X106639876Y-82318364D01*
X106643577Y-82308456D01*
X107128342Y-81301726D01*
X107129078Y-81300226D01*
X107130017Y-81298352D01*
X107130736Y-81296940D01*
X107135288Y-81288180D01*
X107136864Y-81285623D01*
X107140487Y-81278740D01*
X107140489Y-81278739D01*
X107142249Y-81275396D01*
X107146192Y-81268459D01*
X107149882Y-81262428D01*
X107149884Y-81262419D01*
X107152713Y-81256452D01*
X107153128Y-81256648D01*
X107157375Y-81247337D01*
X107711105Y-80280674D01*
X107712019Y-80279110D01*
X107713075Y-80277333D01*
X107714049Y-80275727D01*
X107718843Y-80267947D01*
X107721651Y-80264039D01*
X107724920Y-80258702D01*
X107724922Y-80258701D01*
X107726522Y-80256087D01*
X107731489Y-80248604D01*
X107733668Y-80245566D01*
X107733670Y-80245560D01*
X107737017Y-80239608D01*
X107737255Y-80239742D01*
X107742156Y-80230564D01*
X108340265Y-79316291D01*
X108341339Y-79314681D01*
X108342414Y-79313095D01*
X108343456Y-79311581D01*
X108348733Y-79304052D01*
X108352327Y-79299617D01*
X108355446Y-79295098D01*
X108355448Y-79295097D01*
X108356974Y-79292885D01*
X108362709Y-79285227D01*
X108363950Y-79283697D01*
X108363951Y-79283693D01*
X108363953Y-79283692D01*
X108367749Y-79277738D01*
X108367899Y-79277833D01*
X108373291Y-79268858D01*
X108990854Y-78419569D01*
X108992012Y-78418004D01*
X108993370Y-78416201D01*
X108994466Y-78414771D01*
X108999755Y-78407984D01*
X109004097Y-78403135D01*
X109006985Y-78399331D01*
X109006987Y-78399331D01*
X109008327Y-78397565D01*
X109014741Y-78389798D01*
X109014771Y-78389766D01*
X109014777Y-78389754D01*
X109018885Y-78383956D01*
X109018948Y-78384001D01*
X109024670Y-78375379D01*
X109637171Y-77602938D01*
X109638299Y-77601539D01*
X109639827Y-77599679D01*
X109640983Y-77598296D01*
X109646381Y-77591943D01*
X109651304Y-77586883D01*
X109654032Y-77583563D01*
X109654037Y-77583561D01*
X109655231Y-77582107D01*
X109660782Y-77575910D01*
X109661256Y-77575294D01*
X109661260Y-77575291D01*
X109661262Y-77575286D01*
X109665655Y-77569590D01*
X109665664Y-77569597D01*
X109671632Y-77561295D01*
X110253293Y-76879041D01*
X110254474Y-76877678D01*
X110255952Y-76875999D01*
X110257097Y-76874720D01*
X110263062Y-76868161D01*
X110268196Y-76863225D01*
X110270992Y-76860045D01*
X110270995Y-76860044D01*
X110272199Y-76858674D01*
X110278020Y-76852594D01*
X110278493Y-76852018D01*
X110278500Y-76852012D01*
X110278505Y-76852003D01*
X110283158Y-76846345D01*
X110283161Y-76846347D01*
X110289366Y-76838237D01*
X110814779Y-76258824D01*
X110816136Y-76257353D01*
X110817590Y-76255803D01*
X110818978Y-76254347D01*
X110824999Y-76248143D01*
X110829696Y-76243925D01*
X110833127Y-76240315D01*
X110833130Y-76240314D01*
X110834796Y-76238560D01*
X110841945Y-76231621D01*
X110842236Y-76231362D01*
X110842242Y-76231352D01*
X110846912Y-76226105D01*
X110846989Y-76226173D01*
X110853674Y-76218209D01*
X112000129Y-75066861D01*
X112001333Y-75065671D01*
X112002916Y-75064130D01*
X112004145Y-75062954D01*
X112011994Y-75055543D01*
X112013623Y-75054034D01*
X112018669Y-75049444D01*
X112018672Y-75049443D01*
X112022359Y-75046088D01*
X112027060Y-75042026D01*
X112038146Y-75032927D01*
X112038150Y-75032921D01*
X112038346Y-75032725D01*
X112047526Y-75024359D01*
X112314949Y-74804144D01*
X112316375Y-74802989D01*
X112318101Y-74801614D01*
X112319586Y-74800451D01*
X112326422Y-74795187D01*
X112332429Y-74791169D01*
X112335665Y-74788585D01*
X112335672Y-74788583D01*
X112337065Y-74787470D01*
X112343121Y-74783047D01*
X112343975Y-74782319D01*
X112343980Y-74782317D01*
X112343983Y-74782313D01*
X112349038Y-74778013D01*
X112356939Y-74770796D01*
X112697554Y-74507225D01*
X112699053Y-74506085D01*
X112700776Y-74504797D01*
X112702296Y-74503680D01*
X112709136Y-74498738D01*
X112715506Y-74494751D01*
X112718608Y-74492414D01*
X112718611Y-74492414D01*
X112719850Y-74491480D01*
X112725876Y-74487340D01*
X112726861Y-74486546D01*
X112726868Y-74486543D01*
X112726873Y-74486537D01*
X112731883Y-74482507D01*
X112740280Y-74475224D01*
X113227762Y-74118319D01*
X113229349Y-74117178D01*
X113230304Y-74116501D01*
X113231121Y-74115924D01*
X113232594Y-74114899D01*
X113239491Y-74110188D01*
X113245754Y-74106497D01*
X113249051Y-74104153D01*
X113249056Y-74104152D01*
X113250383Y-74103208D01*
X113256956Y-74098948D01*
X113257754Y-74098340D01*
X113257760Y-74098337D01*
X113257764Y-74098332D01*
X113263234Y-74094170D01*
X113271443Y-74087445D01*
X113903529Y-73651509D01*
X113905097Y-73650448D01*
X113906971Y-73649201D01*
X113908526Y-73648186D01*
X113915793Y-73643525D01*
X113922390Y-73639892D01*
X113925675Y-73637698D01*
X113925678Y-73637698D01*
X113927096Y-73636750D01*
X113933080Y-73633125D01*
X113934243Y-73632295D01*
X113934250Y-73632292D01*
X113934255Y-73632286D01*
X113939294Y-73628695D01*
X113948263Y-73621795D01*
X114723700Y-73120494D01*
X114725347Y-73119448D01*
X114727221Y-73118281D01*
X114728813Y-73117308D01*
X114735919Y-73113048D01*
X114742441Y-73109709D01*
X114747295Y-73106678D01*
X114754550Y-73102569D01*
X114761385Y-73097982D01*
X114761385Y-73097983D01*
X114769732Y-73091945D01*
X115684552Y-72540699D01*
X115686208Y-72539720D01*
X115687971Y-72538696D01*
X115689614Y-72537758D01*
X115697163Y-72533534D01*
X115703412Y-72530572D01*
X115707232Y-72528357D01*
X115707233Y-72528357D01*
X115708906Y-72527386D01*
X115716410Y-72523444D01*
X115716983Y-72523086D01*
X115716986Y-72523085D01*
X115716987Y-72523083D01*
X115723093Y-72519275D01*
X115723099Y-72519285D01*
X115731509Y-72513636D01*
X116785297Y-71925657D01*
X116787030Y-71924711D01*
X116788927Y-71923696D01*
X116790723Y-71922754D01*
X116798080Y-71918977D01*
X116804799Y-71916079D01*
X116808453Y-71914123D01*
X116808458Y-71914123D01*
X116810080Y-71913254D01*
X116817641Y-71909620D01*
X116824724Y-71905533D01*
X116824727Y-71905539D01*
X116833531Y-71900046D01*
X117745515Y-71432521D01*
X117778895Y-71421055D01*
X117792529Y-71418460D01*
X117810778Y-71420245D01*
G37*
%TD.AperFunction*%
%TD*%
%TA.AperFunction,Conductor*%
%TO.N,VDD*%
G36*
X186453260Y-54223213D02*
G01*
X186477257Y-54225922D01*
X208387940Y-58896298D01*
X208395500Y-58899088D01*
X208398977Y-58899436D01*
X208398978Y-58899436D01*
X208405571Y-58900094D01*
X208405573Y-58900096D01*
X208405575Y-58900095D01*
X208405892Y-58900127D01*
X208406071Y-58899867D01*
X208406075Y-58899865D01*
X208406075Y-58899860D01*
X208406151Y-58899752D01*
X208406165Y-58899616D01*
X208406167Y-58899614D01*
X208406166Y-58899611D01*
X208406291Y-58898446D01*
X208404992Y-58893012D01*
X208404339Y-58889410D01*
X208400984Y-58882131D01*
X207834080Y-56969741D01*
X207832934Y-56965616D01*
X207828241Y-56947513D01*
X207828297Y-56945740D01*
X207827045Y-56941484D01*
X207823450Y-56933697D01*
X207399896Y-55489673D01*
X207398749Y-55485490D01*
X207394086Y-55467236D01*
X207394146Y-55465519D01*
X207392281Y-55458984D01*
X207389106Y-55451959D01*
X207209629Y-54808389D01*
X207205257Y-54781858D01*
X207204627Y-54770342D01*
X207205446Y-54766858D01*
X207205379Y-54766363D01*
X207205728Y-54761403D01*
X207204796Y-54754202D01*
X207204801Y-54754136D01*
X207205101Y-54750787D01*
X207205111Y-54750690D01*
X207209174Y-54740756D01*
X207208988Y-54730626D01*
X207217031Y-54717586D01*
X207220620Y-54702328D01*
X207227694Y-54695486D01*
X207231566Y-54686023D01*
X207240285Y-54679893D01*
X207245672Y-54671162D01*
X207259896Y-54664345D01*
X207270846Y-54653757D01*
X207280099Y-54651905D01*
X207288445Y-54646039D01*
X207288577Y-54645994D01*
X207300809Y-54644740D01*
X207308681Y-54640969D01*
X207337409Y-54640439D01*
X207339358Y-54640050D01*
X207340219Y-54640388D01*
X207343969Y-54640319D01*
X207344009Y-54640324D01*
X207350314Y-54642402D01*
X207354038Y-54642840D01*
X207393898Y-54654530D01*
X211755014Y-56780575D01*
X211776694Y-56794071D01*
X211786110Y-56801378D01*
X211787074Y-56802713D01*
X211802850Y-56817053D01*
X211802905Y-56817115D01*
X211816160Y-56835087D01*
X211816251Y-56835237D01*
X211827284Y-56858619D01*
X211831076Y-56869462D01*
X211827687Y-56870646D01*
X211827776Y-56872294D01*
X211836871Y-56891612D01*
X212972450Y-64152742D01*
X212973813Y-64177501D01*
X212973269Y-64189536D01*
X212970050Y-64212546D01*
X212967290Y-64224186D01*
X212959164Y-64247665D01*
X210645609Y-69245800D01*
X210631526Y-69265997D01*
X210630468Y-69269415D01*
X210622090Y-69279531D01*
X210620865Y-69281289D01*
X210619510Y-69282646D01*
X210613788Y-69289557D01*
X210613703Y-69289640D01*
X210610043Y-69291581D01*
X210606963Y-69295743D01*
X210606875Y-69295817D01*
X210579047Y-69308030D01*
X210551986Y-69322392D01*
X210547232Y-69321995D01*
X210542897Y-69323898D01*
X210512878Y-69319127D01*
X210482358Y-69316579D01*
X210478573Y-69313674D01*
X210473893Y-69312931D01*
X210451184Y-69292658D01*
X210426927Y-69274044D01*
X210424018Y-69268405D01*
X210421772Y-69266400D01*
X210420359Y-69261312D01*
X210409435Y-69240133D01*
X210409432Y-69240124D01*
X210408884Y-69236164D01*
X210408116Y-69234064D01*
X210400567Y-69190567D01*
X210405289Y-68527096D01*
X210405453Y-68505026D01*
X210405455Y-68505025D01*
X210405453Y-68504991D01*
X210405472Y-68502555D01*
X210405481Y-68502523D01*
X210405477Y-68502097D01*
X210405652Y-68486306D01*
X210404784Y-68482197D01*
X210403653Y-68443688D01*
X210382703Y-67730593D01*
X210382709Y-67730588D01*
X210382698Y-67730391D01*
X210382692Y-67730187D01*
X210382690Y-67730185D01*
X210382648Y-67728744D01*
X210382648Y-67728742D01*
X210382128Y-67711036D01*
X210381456Y-67708189D01*
X210358317Y-67294457D01*
X210356622Y-67264131D01*
X210356625Y-67264130D01*
X210356615Y-67263997D01*
X210356541Y-67262668D01*
X210356542Y-67262663D01*
X210356534Y-67262541D01*
X210355396Y-67241797D01*
X210354723Y-67239376D01*
X210317477Y-66754422D01*
X210317481Y-66754418D01*
X210317463Y-66754238D01*
X210317446Y-66754017D01*
X210317445Y-66754016D01*
X210317352Y-66752801D01*
X210317352Y-66752800D01*
X210315830Y-66733018D01*
X210315083Y-66730495D01*
X210265588Y-66236583D01*
X210265587Y-66236569D01*
X210262900Y-66209726D01*
X210262902Y-66209725D01*
X210262893Y-66209657D01*
X210262717Y-66207896D01*
X210262718Y-66207886D01*
X210262691Y-66207643D01*
X210260715Y-66187488D01*
X210259706Y-66184493D01*
X210248718Y-66097718D01*
X210193045Y-65658047D01*
X210190493Y-65637869D01*
X210190496Y-65637867D01*
X210190482Y-65637781D01*
X210190238Y-65635849D01*
X210190240Y-65635834D01*
X210190206Y-65635591D01*
X210188242Y-65619799D01*
X210187161Y-65616582D01*
X210101920Y-65072521D01*
X210101402Y-65069212D01*
X210097890Y-65046779D01*
X210097894Y-65046776D01*
X210097875Y-65046680D01*
X210097535Y-65044505D01*
X210097537Y-65044486D01*
X210097492Y-65044226D01*
X210094771Y-65026582D01*
X210093349Y-65023004D01*
X210005787Y-64564929D01*
X209987210Y-64467744D01*
X209982716Y-64444201D01*
X209982718Y-64444199D01*
X209982705Y-64444146D01*
X209982229Y-64441649D01*
X209982231Y-64441627D01*
X209982168Y-64441329D01*
X209979263Y-64425892D01*
X209977582Y-64421978D01*
X209842638Y-63838099D01*
X209842644Y-63838089D01*
X209842594Y-63837909D01*
X209842548Y-63837710D01*
X209842547Y-63837709D01*
X209841981Y-63835259D01*
X209838818Y-63821575D01*
X209836936Y-63817560D01*
X209681363Y-63257945D01*
X209675117Y-63235450D01*
X209675118Y-63235449D01*
X209675108Y-63235419D01*
X209674440Y-63233012D01*
X209674440Y-63232990D01*
X209674349Y-63232684D01*
X209670426Y-63218406D01*
X209668514Y-63214724D01*
X209586108Y-62956062D01*
X209580795Y-62939379D01*
X209580797Y-62939376D01*
X209580770Y-62939299D01*
X209580212Y-62937547D01*
X209580211Y-62937534D01*
X209580146Y-62937338D01*
X209575013Y-62921123D01*
X209573448Y-62918327D01*
X209487122Y-62671047D01*
X209485250Y-62665684D01*
X209478583Y-62646579D01*
X209478586Y-62646576D01*
X209478548Y-62646478D01*
X209477908Y-62644643D01*
X209477907Y-62644631D01*
X209477843Y-62644455D01*
X209472240Y-62628317D01*
X209470484Y-62625407D01*
X209377393Y-62382176D01*
X209377385Y-62382155D01*
X209368471Y-62358853D01*
X209368473Y-62358851D01*
X209368449Y-62358794D01*
X209367685Y-62356797D01*
X209367683Y-62356778D01*
X209367575Y-62356508D01*
X209361597Y-62340764D01*
X209359572Y-62337657D01*
X209280303Y-62148898D01*
X209280264Y-62148805D01*
X209275134Y-62136561D01*
X209275141Y-62136529D01*
X209275084Y-62136443D01*
X209275000Y-62136241D01*
X209272650Y-62134629D01*
X209262191Y-62133528D01*
X186996188Y-57488886D01*
X186985393Y-57486635D01*
X186985349Y-57486592D01*
X186985197Y-57486594D01*
X186985048Y-57486563D01*
X186985044Y-57486565D01*
X186985019Y-57486560D01*
X186982997Y-57487428D01*
X186977083Y-57494683D01*
X178636163Y-66084422D01*
X178636160Y-66084426D01*
X178623593Y-66097369D01*
X178623432Y-66097530D01*
X178623431Y-66097535D01*
X178623429Y-66097539D01*
X178623431Y-66097718D01*
X178623408Y-66107983D01*
X178623408Y-66107985D01*
X178618330Y-68439304D01*
X178618329Y-68439798D01*
X178618326Y-68441544D01*
X178618318Y-68441751D01*
X178618326Y-68441759D01*
X178618326Y-68441771D01*
X178618329Y-68441774D01*
X178618329Y-68441806D01*
X178618355Y-68441871D01*
X178620097Y-68443688D01*
X181808526Y-71915055D01*
X182024560Y-72150259D01*
X182024594Y-72150358D01*
X182024696Y-72150408D01*
X182024772Y-72150490D01*
X182024792Y-72150490D01*
X182024807Y-72150506D01*
X182024866Y-72150533D01*
X182024965Y-72150539D01*
X182024967Y-72150540D01*
X182024969Y-72150539D01*
X182025079Y-72150546D01*
X182025182Y-72150507D01*
X182025186Y-72150508D01*
X182025188Y-72150505D01*
X182025668Y-72150330D01*
X182028227Y-72149420D01*
X184779497Y-71204417D01*
X184783933Y-71202986D01*
X184787918Y-71201783D01*
X184823744Y-71196496D01*
X184825114Y-71196496D01*
X184836812Y-71194097D01*
X189002085Y-71199688D01*
X189002257Y-71199722D01*
X189026667Y-71199722D01*
X189027080Y-71199722D01*
X189027081Y-71199722D01*
X189027374Y-71199430D01*
X189027374Y-71199016D01*
X189027374Y-70019713D01*
X189030763Y-69990920D01*
X189033261Y-69980456D01*
X189035503Y-69976538D01*
X189039410Y-69961557D01*
X189039430Y-69961509D01*
X189046579Y-69947073D01*
X189046590Y-69947054D01*
X189059309Y-69934954D01*
X189067974Y-69919820D01*
X189083964Y-69911502D01*
X189097215Y-69898898D01*
X189107203Y-69894312D01*
X189107417Y-69894225D01*
X189123056Y-69891167D01*
X189129959Y-69887577D01*
X189137759Y-69888292D01*
X189154117Y-69885095D01*
X189161916Y-69885095D01*
X189161916Y-69887270D01*
X189179456Y-69884817D01*
X196276314Y-70736438D01*
X196299384Y-70741473D01*
X196311803Y-70745454D01*
X196314617Y-70747361D01*
X196315862Y-70747886D01*
X196321481Y-70749006D01*
X196321681Y-70749089D01*
X196345427Y-70768251D01*
X196369634Y-70784663D01*
X196371669Y-70789427D01*
X196376055Y-70792966D01*
X196393567Y-70830212D01*
X196393654Y-70830523D01*
X196394138Y-70836560D01*
X196395837Y-70842536D01*
X196396548Y-70847654D01*
X196397086Y-70848913D01*
X196396886Y-70850091D01*
X196400563Y-70876545D01*
X196382786Y-92710068D01*
X196380618Y-92733051D01*
X196378268Y-92745454D01*
X196376929Y-92748069D01*
X196376239Y-92750610D01*
X196375838Y-92755826D01*
X196375780Y-92756033D01*
X196374930Y-92757709D01*
X196374919Y-92758810D01*
X196372525Y-92762452D01*
X196353934Y-92799121D01*
X196353883Y-92799186D01*
X196346551Y-92807454D01*
X196346448Y-92807657D01*
X196346290Y-92807748D01*
X196344008Y-92810323D01*
X196343984Y-92810347D01*
X196338639Y-92814017D01*
X196336548Y-92817200D01*
X196306664Y-92835979D01*
X196306637Y-92835991D01*
X196300274Y-92837341D01*
X196300443Y-92837760D01*
X196290653Y-92841688D01*
X196259974Y-92849634D01*
X189215746Y-93736817D01*
X189187624Y-93737144D01*
X189176858Y-93736042D01*
X189153560Y-93726530D01*
X189152806Y-93728353D01*
X189150145Y-93727251D01*
X189150894Y-93725442D01*
X189150135Y-93725132D01*
X189122446Y-93717002D01*
X189117546Y-93711828D01*
X189112172Y-93709634D01*
X189102729Y-93696181D01*
X189081672Y-93673944D01*
X189081647Y-93673900D01*
X189076790Y-93659224D01*
X189072032Y-93652445D01*
X189071678Y-93643775D01*
X189066389Y-93627793D01*
X189065434Y-93620035D01*
X189067608Y-93619767D01*
X189062973Y-93602181D01*
X189062973Y-92226608D01*
X189062680Y-92226315D01*
X189062266Y-92226315D01*
X189062265Y-92226315D01*
X188484598Y-92227382D01*
X187694814Y-92228842D01*
X187694813Y-92228841D01*
X187693973Y-92228843D01*
X187674409Y-92228880D01*
X187674293Y-92228841D01*
X187674212Y-92228880D01*
X187674120Y-92228881D01*
X187674032Y-92228969D01*
X187673921Y-92229024D01*
X187673891Y-92229111D01*
X187673828Y-92229175D01*
X187673828Y-92229298D01*
X187673788Y-92229416D01*
X187673828Y-92229497D01*
X187673828Y-92229837D01*
X187675089Y-92232609D01*
X187679669Y-92243579D01*
X187683135Y-92248388D01*
X187894037Y-92676453D01*
X187898775Y-92687360D01*
X187903302Y-92699320D01*
X187907046Y-92710897D01*
X187944353Y-92849099D01*
X187978113Y-92974159D01*
X187982364Y-93003574D01*
X187982631Y-93014980D01*
X187979606Y-93015050D01*
X187982745Y-93031637D01*
X187981527Y-93036584D01*
X187981819Y-93038843D01*
X187974309Y-93065908D01*
X187974290Y-93065955D01*
X187967141Y-93080738D01*
X187967066Y-93080870D01*
X187964355Y-93084006D01*
X187959678Y-93092149D01*
X187941545Y-93116324D01*
X187811985Y-93251094D01*
X187809346Y-93253757D01*
X187795476Y-93267338D01*
X187794870Y-93267660D01*
X187789539Y-93272786D01*
X187779531Y-93281385D01*
X187776766Y-93284947D01*
X187688789Y-93363140D01*
X187603047Y-93439346D01*
X187602545Y-93439792D01*
X187599638Y-93442295D01*
X187585001Y-93454515D01*
X187584198Y-93454863D01*
X187578680Y-93459455D01*
X187570174Y-93465668D01*
X187566558Y-93469700D01*
X187297808Y-93678746D01*
X187294920Y-93680926D01*
X187279171Y-93692455D01*
X187278179Y-93692812D01*
X187272501Y-93697012D01*
X187266471Y-93700849D01*
X187262056Y-93705212D01*
X187104164Y-93816203D01*
X187101217Y-93818212D01*
X187085553Y-93828563D01*
X187084439Y-93828905D01*
X187078873Y-93832680D01*
X187074425Y-93835230D01*
X187069540Y-93839699D01*
X186885195Y-93960413D01*
X186882097Y-93962376D01*
X186865803Y-93972370D01*
X186864606Y-93972694D01*
X186858817Y-93976350D01*
X186854469Y-93978643D01*
X186849325Y-93983069D01*
X186637097Y-94112310D01*
X186633892Y-94114196D01*
X186617555Y-94123485D01*
X186616360Y-94123766D01*
X186610528Y-94127188D01*
X186606290Y-94129250D01*
X186601011Y-94133484D01*
X186359867Y-94269783D01*
X186356639Y-94271545D01*
X186339721Y-94280456D01*
X186338498Y-94280702D01*
X186332506Y-94283963D01*
X186328184Y-94285893D01*
X186322748Y-94289980D01*
X186051396Y-94432014D01*
X186047985Y-94433733D01*
X186031019Y-94441958D01*
X186029749Y-94442170D01*
X186023625Y-94445250D01*
X186019812Y-94446800D01*
X186014146Y-94450763D01*
X185711530Y-94597071D01*
X185708089Y-94598670D01*
X185690541Y-94606501D01*
X185689235Y-94606677D01*
X185682983Y-94609580D01*
X185678956Y-94611067D01*
X185673139Y-94614893D01*
X185338698Y-94763802D01*
X185335548Y-94765152D01*
X185317503Y-94772596D01*
X185316325Y-94772720D01*
X185310117Y-94775372D01*
X185305274Y-94777017D01*
X185299620Y-94780486D01*
X184931448Y-94930931D01*
X184928158Y-94932222D01*
X184910071Y-94939018D01*
X184908841Y-94939108D01*
X184902505Y-94941585D01*
X184898208Y-94942890D01*
X184892332Y-94946234D01*
X184488818Y-95096955D01*
X184485221Y-95098236D01*
X184467294Y-95104310D01*
X184465976Y-95104364D01*
X184459555Y-95106654D01*
X184455929Y-95107624D01*
X184449780Y-95110878D01*
X184010276Y-95260238D01*
X184006557Y-95261437D01*
X183988553Y-95266929D01*
X183987198Y-95266943D01*
X183980698Y-95269046D01*
X183977530Y-95269789D01*
X183971215Y-95272881D01*
X183494847Y-95419359D01*
X183491223Y-95420413D01*
X183472715Y-95425493D01*
X183471375Y-95425469D01*
X183464799Y-95427389D01*
X183461515Y-95428062D01*
X183455155Y-95430953D01*
X182940393Y-95573233D01*
X182936603Y-95574216D01*
X182918267Y-95578666D01*
X182916890Y-95578600D01*
X182910272Y-95580330D01*
X182907366Y-95580835D01*
X182900848Y-95583574D01*
X182346869Y-95720126D01*
X182343275Y-95720956D01*
X182324745Y-95724943D01*
X182323445Y-95724847D01*
X182316838Y-95726378D01*
X182313073Y-95726935D01*
X182306610Y-95729470D01*
X181712738Y-95858760D01*
X181709218Y-95859473D01*
X181690461Y-95862991D01*
X181689192Y-95862863D01*
X181682622Y-95864203D01*
X181678818Y-95864667D01*
X181672362Y-95866993D01*
X181036972Y-95987707D01*
X181033467Y-95988321D01*
X181014583Y-95991350D01*
X181013307Y-95991187D01*
X181006638Y-95992362D01*
X181002617Y-95992742D01*
X180996050Y-95994935D01*
X180318027Y-96105629D01*
X180314293Y-96106180D01*
X180295610Y-96108649D01*
X180294272Y-96108441D01*
X180287568Y-96109446D01*
X180284230Y-96109667D01*
X180277476Y-96111723D01*
X179555354Y-96211003D01*
X179551647Y-96211456D01*
X179533071Y-96213442D01*
X179531769Y-96213206D01*
X179525122Y-96214035D01*
X179521751Y-96214177D01*
X179514997Y-96216047D01*
X178747857Y-96302430D01*
X178744226Y-96302785D01*
X178725625Y-96304327D01*
X178724252Y-96304044D01*
X178717730Y-96304729D01*
X178715806Y-96304765D01*
X178708913Y-96306522D01*
X178669134Y-96310402D01*
X178639222Y-96313319D01*
X178639177Y-96313323D01*
X178631384Y-96314084D01*
X178631210Y-96314081D01*
X178631186Y-96314103D01*
X178631152Y-96314107D01*
X178631055Y-96314223D01*
X178630969Y-96314233D01*
X178630528Y-96315236D01*
X178630772Y-96321660D01*
X178617504Y-97020710D01*
X178617202Y-97045428D01*
X178617200Y-97045432D01*
X178617202Y-97045439D01*
X178610814Y-97564292D01*
X178610596Y-97565707D01*
X178610596Y-97581343D01*
X178610588Y-97582730D01*
X178610339Y-97604903D01*
X178610647Y-97606460D01*
X178610977Y-97762838D01*
X178610966Y-97762851D01*
X178610977Y-97763038D01*
X178610978Y-97763235D01*
X178610986Y-97763243D01*
X178610995Y-97766689D01*
X178611067Y-97780949D01*
X178611792Y-97782564D01*
X178615552Y-97786136D01*
X184203060Y-103503039D01*
X185649965Y-104983452D01*
X186978261Y-106342508D01*
X186978374Y-106342624D01*
X186986156Y-106350606D01*
X186986163Y-106350640D01*
X186986235Y-106350687D01*
X186986457Y-106350915D01*
X186990162Y-106350941D01*
X186998337Y-106348475D01*
X209199897Y-101858674D01*
X209217962Y-101855034D01*
X209217968Y-101855038D01*
X209218011Y-101855025D01*
X209218304Y-101854966D01*
X209218360Y-101854921D01*
X209218365Y-101854920D01*
X209218367Y-101854915D01*
X209219004Y-101854410D01*
X209221832Y-101849702D01*
X209225516Y-101844194D01*
X209228011Y-101837051D01*
X209277173Y-101745992D01*
X209277675Y-101745062D01*
X209289375Y-101723432D01*
X209289412Y-101723394D01*
X209289610Y-101723000D01*
X209294623Y-101713817D01*
X209296219Y-101708057D01*
X209369671Y-101549560D01*
X209379911Y-101527517D01*
X209379949Y-101527472D01*
X209380117Y-101527075D01*
X209383923Y-101518964D01*
X209385241Y-101512457D01*
X209540879Y-101101702D01*
X209547614Y-101083949D01*
X209547624Y-101083945D01*
X209547651Y-101083852D01*
X209549267Y-101079594D01*
X209549284Y-101079570D01*
X209549352Y-101079372D01*
X209552856Y-101070187D01*
X209553671Y-101063760D01*
X209694518Y-100593718D01*
X209699173Y-100578196D01*
X209699183Y-100578191D01*
X209699217Y-100578048D01*
X209700165Y-100574889D01*
X209700171Y-100574878D01*
X209700207Y-100574749D01*
X209703957Y-100562293D01*
X209704316Y-100557123D01*
X209829284Y-100044254D01*
X209833525Y-100026866D01*
X209833531Y-100026863D01*
X209833552Y-100026755D01*
X209834135Y-100024368D01*
X209834143Y-100024352D01*
X209834195Y-100024124D01*
X209838027Y-100008547D01*
X209838106Y-100004207D01*
X209947170Y-99464352D01*
X209951790Y-99441517D01*
X209951803Y-99441492D01*
X209951876Y-99441100D01*
X209955614Y-99422941D01*
X209955516Y-99419170D01*
X210049278Y-98867077D01*
X210053865Y-98840106D01*
X210053875Y-98840085D01*
X210053944Y-98839644D01*
X210057026Y-98821920D01*
X210056898Y-98818734D01*
X210137402Y-98260475D01*
X210137852Y-98257351D01*
X210141072Y-98235056D01*
X210141073Y-98235056D01*
X210141077Y-98235020D01*
X210141284Y-98233589D01*
X210141290Y-98233574D01*
X210141346Y-98233162D01*
X210144287Y-98213284D01*
X210144093Y-98210555D01*
X210212214Y-97658163D01*
X210214849Y-97636823D01*
X210214851Y-97636822D01*
X210214856Y-97636760D01*
X210215061Y-97635107D01*
X210215067Y-97635092D01*
X210215102Y-97634778D01*
X210217244Y-97617799D01*
X210217023Y-97614850D01*
X210323721Y-96535857D01*
X210325699Y-96515873D01*
X210325703Y-96515871D01*
X210325710Y-96515769D01*
X210325875Y-96514105D01*
X210325879Y-96514095D01*
X210325899Y-96513863D01*
X210327822Y-96494811D01*
X210327476Y-96491823D01*
X210392585Y-95609401D01*
X210394410Y-95584743D01*
X210394416Y-95584726D01*
X210394441Y-95584329D01*
X210396061Y-95563371D01*
X210395620Y-95560474D01*
X210402531Y-95425952D01*
X210438384Y-94728037D01*
X210441068Y-94720373D01*
X210446206Y-94690622D01*
X210448464Y-94684635D01*
X210449487Y-94678454D01*
X210449579Y-94678213D01*
X210457753Y-94667465D01*
X210461665Y-94654540D01*
X210478493Y-94640198D01*
X210491878Y-94622602D01*
X210504565Y-94617980D01*
X210514843Y-94609222D01*
X210536754Y-94606255D01*
X210557528Y-94598688D01*
X210572200Y-94601455D01*
X210584081Y-94599847D01*
X210617863Y-94610069D01*
X210617893Y-94610083D01*
X210650226Y-94631952D01*
X210650305Y-94632026D01*
X210657510Y-94642989D01*
X210658198Y-94642358D01*
X210664120Y-94648807D01*
X210667309Y-94653619D01*
X210670319Y-94656271D01*
X210671262Y-94659584D01*
X210671703Y-94660250D01*
X210675818Y-94663682D01*
X210677477Y-94668962D01*
X210685617Y-94681245D01*
X212971782Y-99696634D01*
X212974050Y-99712454D01*
X212978701Y-99718944D01*
X212979283Y-99718801D01*
X212982112Y-99730273D01*
X212985560Y-99753679D01*
X212986172Y-99765742D01*
X212986057Y-99766220D01*
X212986082Y-99766849D01*
X212985905Y-99766855D01*
X212983262Y-99777900D01*
X212984979Y-99790285D01*
X211920454Y-106940344D01*
X211913341Y-106955715D01*
X211913515Y-106962532D01*
X211914755Y-106962963D01*
X211910902Y-106974066D01*
X211899749Y-106997766D01*
X211899630Y-106997962D01*
X211887432Y-107014715D01*
X211887285Y-107014885D01*
X211868018Y-107032882D01*
X211858424Y-107040097D01*
X211856397Y-107037401D01*
X211848012Y-107045051D01*
X211846218Y-107045355D01*
X211838561Y-107052374D01*
X207444909Y-109213765D01*
X207420308Y-109222782D01*
X207409447Y-109225503D01*
X207406019Y-109225365D01*
X207405470Y-109225552D01*
X207401428Y-109226054D01*
X207394776Y-109228252D01*
X207394593Y-109228275D01*
X207366941Y-109223796D01*
X207339634Y-109222700D01*
X207333461Y-109218373D01*
X207325622Y-109217104D01*
X207302520Y-109202746D01*
X207302478Y-109202713D01*
X207293853Y-109190613D01*
X207282418Y-109182598D01*
X207274710Y-109163754D01*
X207261925Y-109145817D01*
X207261199Y-109130724D01*
X207255966Y-109117930D01*
X207257328Y-109110564D01*
X207256533Y-109110620D01*
X207255945Y-109102261D01*
X207260042Y-109060810D01*
X208371758Y-105001395D01*
X208376642Y-104983656D01*
X208376668Y-104983617D01*
X208376661Y-104983586D01*
X208376712Y-104983403D01*
X208376581Y-104983213D01*
X208376581Y-104983212D01*
X208376579Y-104983210D01*
X208376453Y-104983028D01*
X208375672Y-104982882D01*
X208371852Y-104983523D01*
X208364100Y-104984518D01*
X208357506Y-104987026D01*
X186555219Y-109689138D01*
X186530906Y-109691912D01*
X186518910Y-109692089D01*
X186518262Y-109691909D01*
X186495283Y-109690171D01*
X186495059Y-109690131D01*
X186454840Y-109674298D01*
X186451588Y-109673395D01*
X186451068Y-109672813D01*
X186449592Y-109672232D01*
X186439854Y-109665944D01*
X186441987Y-109662640D01*
X186441506Y-109662101D01*
X186421505Y-109651954D01*
X186421436Y-109651889D01*
X175578000Y-99430613D01*
X175556346Y-99403543D01*
X175552028Y-99396248D01*
X175550271Y-99389336D01*
X175543262Y-99378272D01*
X175543136Y-99377950D01*
X175534646Y-99335755D01*
X175534570Y-99332626D01*
X175532307Y-99321303D01*
X175603811Y-96515512D01*
X175603813Y-96515475D01*
X175604449Y-96490902D01*
X175604385Y-96490751D01*
X175604257Y-96490622D01*
X175604012Y-96490523D01*
X175601425Y-96490512D01*
X175586960Y-96490155D01*
X175582689Y-96490960D01*
X175046432Y-96500670D01*
X175042460Y-96500678D01*
X175023509Y-96500414D01*
X175022050Y-96499963D01*
X175015261Y-96500024D01*
X175014091Y-96499929D01*
X175006842Y-96501038D01*
X173998092Y-96501214D01*
X173994464Y-96501162D01*
X173975557Y-96500612D01*
X173974264Y-96500191D01*
X173967594Y-96500123D01*
X173964931Y-96499873D01*
X173957961Y-96500816D01*
X172898311Y-96479431D01*
X172894723Y-96479306D01*
X172875425Y-96478357D01*
X172874230Y-96477941D01*
X172867331Y-96477693D01*
X172863139Y-96477210D01*
X172856326Y-96477956D01*
X170843109Y-96376310D01*
X170839465Y-96376072D01*
X170820344Y-96374541D01*
X170819313Y-96374146D01*
X170812394Y-96373646D01*
X170805998Y-96372715D01*
X170799614Y-96373177D01*
X168964320Y-96200898D01*
X168960828Y-96200521D01*
X168941110Y-96198105D01*
X168940137Y-96197685D01*
X168933165Y-96196868D01*
X168926416Y-96195592D01*
X168920187Y-96195752D01*
X167255083Y-95961770D01*
X167251260Y-95961171D01*
X167232129Y-95957871D01*
X167231091Y-95957361D01*
X167223973Y-95956181D01*
X167217460Y-95954601D01*
X167210977Y-95954473D01*
X165710939Y-95668007D01*
X165707422Y-95667282D01*
X165688255Y-95663043D01*
X165687380Y-95662561D01*
X165680394Y-95661033D01*
X165672837Y-95658834D01*
X165666822Y-95658396D01*
X164324647Y-95328348D01*
X164320894Y-95327362D01*
X164302076Y-95322105D01*
X164301151Y-95321528D01*
X164294059Y-95319570D01*
X164286807Y-95317002D01*
X164280626Y-95316220D01*
X163090764Y-94951853D01*
X163087215Y-94950708D01*
X163068443Y-94944336D01*
X163067638Y-94943770D01*
X163060663Y-94941401D01*
X163052817Y-94938136D01*
X163047021Y-94937041D01*
X162002602Y-94547284D01*
X161999088Y-94545911D01*
X161980531Y-94538335D01*
X161979774Y-94537731D01*
X161972799Y-94534866D01*
X161964401Y-94530747D01*
X161958803Y-94529339D01*
X161054142Y-94123567D01*
X161050874Y-94122044D01*
X161032487Y-94113146D01*
X161031870Y-94112587D01*
X161025136Y-94109280D01*
X161015524Y-94103805D01*
X161010552Y-94102201D01*
X160238904Y-93689420D01*
X160235686Y-93687637D01*
X160217815Y-93677384D01*
X160217253Y-93676798D01*
X160210579Y-93672896D01*
X160201023Y-93666504D01*
X160196339Y-93664594D01*
X159722712Y-93363109D01*
X159550477Y-93253473D01*
X159547396Y-93251447D01*
X159530553Y-93240008D01*
X159530116Y-93239477D01*
X159523706Y-93235008D01*
X159513554Y-93227048D01*
X159509522Y-93225006D01*
X158982861Y-92824518D01*
X158979830Y-92822138D01*
X158964253Y-92809510D01*
X158963908Y-92809010D01*
X158957780Y-92803880D01*
X158946514Y-92793375D01*
X158943255Y-92791373D01*
X158937454Y-92786038D01*
X158531121Y-92412321D01*
X158528589Y-92409925D01*
X158513260Y-92395007D01*
X158513126Y-92394770D01*
X158507402Y-92388903D01*
X158494867Y-92374917D01*
X158494926Y-92374864D01*
X158493008Y-92373388D01*
X158184941Y-92021478D01*
X158182342Y-92018410D01*
X158170357Y-92003782D01*
X158165371Y-91997269D01*
X158154238Y-91981683D01*
X158151964Y-91978387D01*
X157939073Y-91659019D01*
X157927197Y-91636465D01*
X157926384Y-91635214D01*
X157926206Y-91634622D01*
X157915228Y-91613711D01*
X157801323Y-91329134D01*
X157801014Y-91327533D01*
X157792444Y-91306845D01*
X157792444Y-91306841D01*
X157792440Y-91306837D01*
X157792402Y-91306744D01*
X157792253Y-91306591D01*
X157792057Y-91306510D01*
X157770792Y-91306225D01*
X157768571Y-91306652D01*
X141988574Y-91376316D01*
X141988572Y-91376316D01*
X141963815Y-91376426D01*
X141963590Y-91376426D01*
X141963589Y-91376426D01*
X141963588Y-91376427D01*
X141963442Y-91376574D01*
X141963297Y-91376719D01*
X141963296Y-91376721D01*
X141963297Y-91376928D01*
X141963297Y-91386857D01*
X141963297Y-93309175D01*
X141962556Y-93313495D01*
X141963116Y-93315869D01*
X141958705Y-93335952D01*
X141956215Y-93350482D01*
X141953850Y-93357176D01*
X141953413Y-93357781D01*
X141952161Y-93360932D01*
X141952055Y-93360889D01*
X141951663Y-93362909D01*
X141951581Y-93363109D01*
X141924531Y-93403750D01*
X141924512Y-93403769D01*
X141915921Y-93409722D01*
X141912957Y-93413829D01*
X141906117Y-93416516D01*
X141888143Y-93428973D01*
X141888121Y-93428983D01*
X141882207Y-93430263D01*
X141882585Y-93431206D01*
X141876354Y-93433702D01*
X141848277Y-93439243D01*
X141847927Y-93439381D01*
X141847754Y-93439346D01*
X141831326Y-93442589D01*
X136585919Y-93488344D01*
X136564124Y-93488535D01*
X136564116Y-93488528D01*
X136563898Y-93488537D01*
X136563720Y-93488539D01*
X136563716Y-93488541D01*
X136563707Y-93488542D01*
X136563646Y-93488572D01*
X136562350Y-93489937D01*
X136550259Y-93502312D01*
X136548405Y-93505240D01*
X136446844Y-93616095D01*
X136427009Y-93633573D01*
X136417799Y-93640086D01*
X136415172Y-93640985D01*
X136409937Y-93643921D01*
X136405065Y-93647982D01*
X136404976Y-93648030D01*
X136399556Y-93650784D01*
X136399422Y-93650848D01*
X136393159Y-93652424D01*
X136387109Y-93655206D01*
X136349186Y-93665766D01*
X134908098Y-93828096D01*
X134904458Y-93828451D01*
X134885366Y-93830033D01*
X134884157Y-93829784D01*
X134877399Y-93830436D01*
X134872777Y-93830520D01*
X134866206Y-93832135D01*
X133181361Y-93967018D01*
X133177445Y-93967269D01*
X133158656Y-93968176D01*
X133157233Y-93967831D01*
X133150410Y-93968299D01*
X133148246Y-93968259D01*
X133141147Y-93969799D01*
X132104374Y-94030144D01*
X132100570Y-94030306D01*
X132082002Y-94030815D01*
X132080603Y-94030445D01*
X132073966Y-94030775D01*
X132072331Y-94030713D01*
X132065256Y-94032104D01*
X130899674Y-94081063D01*
X130895722Y-94081166D01*
X130876904Y-94081356D01*
X130875437Y-94080941D01*
X130868648Y-94081164D01*
X130867392Y-94081092D01*
X130860164Y-94082386D01*
X129575359Y-94114233D01*
X129571785Y-94114270D01*
X129552957Y-94114194D01*
X129551656Y-94113806D01*
X129545009Y-94113907D01*
X129542758Y-94113753D01*
X129535832Y-94114856D01*
X128141671Y-94123861D01*
X128138110Y-94123833D01*
X128118976Y-94123407D01*
X128117685Y-94122996D01*
X128111002Y-94122973D01*
X128108100Y-94122720D01*
X128101123Y-94123729D01*
X126607423Y-94104175D01*
X126603578Y-94104065D01*
X126584818Y-94103237D01*
X126583461Y-94102772D01*
X126576681Y-94102609D01*
X126574528Y-94102371D01*
X126567374Y-94103236D01*
X124983490Y-94049401D01*
X124979871Y-94049225D01*
X124960797Y-94048018D01*
X124959528Y-94047556D01*
X124952785Y-94047250D01*
X124949729Y-94046856D01*
X124942727Y-94047563D01*
X123278705Y-93953752D01*
X123274774Y-93953468D01*
X123255665Y-93951780D01*
X123254302Y-93951245D01*
X123247438Y-93950775D01*
X123245403Y-93950457D01*
X123238196Y-93950990D01*
X121503270Y-93811469D01*
X121499685Y-93811128D01*
X121480391Y-93809011D01*
X121479164Y-93808499D01*
X121472332Y-93807858D01*
X121468793Y-93807232D01*
X121461796Y-93807604D01*
X119665924Y-93616687D01*
X119662119Y-93616223D01*
X119643286Y-93613630D01*
X119642034Y-93613067D01*
X119635178Y-93612238D01*
X119631937Y-93611570D01*
X119624831Y-93611750D01*
X118878952Y-93511605D01*
X118878921Y-93511591D01*
X118878874Y-93511595D01*
X118307420Y-93434493D01*
X118243614Y-93406021D01*
X118205331Y-93347573D01*
X118200000Y-93311606D01*
X118200000Y-90111902D01*
X164539500Y-90111902D01*
X164539500Y-90348097D01*
X164576446Y-90581368D01*
X164649433Y-90805996D01*
X164756657Y-91016433D01*
X164895483Y-91207510D01*
X165062490Y-91374517D01*
X165253567Y-91513343D01*
X165352991Y-91564002D01*
X165464003Y-91620566D01*
X165464005Y-91620566D01*
X165464008Y-91620568D01*
X165551131Y-91648876D01*
X165688631Y-91693553D01*
X165921903Y-91730500D01*
X165921908Y-91730500D01*
X166158097Y-91730500D01*
X166391368Y-91693553D01*
X166615992Y-91620568D01*
X166826433Y-91513343D01*
X167017510Y-91374517D01*
X167184517Y-91207510D01*
X167323343Y-91016433D01*
X167430568Y-90805992D01*
X167503553Y-90581368D01*
X167540500Y-90348097D01*
X167540500Y-90111902D01*
X167503553Y-89878631D01*
X167469689Y-89774412D01*
X167430568Y-89654008D01*
X167430566Y-89654005D01*
X167430566Y-89654003D01*
X167357447Y-89510500D01*
X167323343Y-89443567D01*
X167184517Y-89252490D01*
X167017510Y-89085483D01*
X166826433Y-88946657D01*
X166813621Y-88940129D01*
X166615996Y-88839433D01*
X166391368Y-88766446D01*
X166158097Y-88729500D01*
X166158092Y-88729500D01*
X165921908Y-88729500D01*
X165921903Y-88729500D01*
X165688631Y-88766446D01*
X165464003Y-88839433D01*
X165253566Y-88946657D01*
X165206986Y-88980500D01*
X165062490Y-89085483D01*
X165062488Y-89085485D01*
X165062487Y-89085485D01*
X164895485Y-89252487D01*
X164895485Y-89252488D01*
X164895483Y-89252490D01*
X164843547Y-89323973D01*
X164756657Y-89443566D01*
X164649433Y-89654003D01*
X164576446Y-89878631D01*
X164539500Y-90111902D01*
X118200000Y-90111902D01*
X118200000Y-88592705D01*
X136089500Y-88592705D01*
X136089500Y-88757294D01*
X136121605Y-88918698D01*
X136121607Y-88918706D01*
X136184587Y-89070755D01*
X136184592Y-89070764D01*
X136276023Y-89207599D01*
X136276026Y-89207603D01*
X136392396Y-89323973D01*
X136392400Y-89323976D01*
X136529235Y-89415407D01*
X136529241Y-89415410D01*
X136529242Y-89415411D01*
X136681294Y-89478393D01*
X136842705Y-89510499D01*
X136842709Y-89510500D01*
X136842710Y-89510500D01*
X137007291Y-89510500D01*
X137007292Y-89510499D01*
X137168706Y-89478393D01*
X137320758Y-89415411D01*
X137457600Y-89323976D01*
X137573976Y-89207600D01*
X137665411Y-89070758D01*
X137728393Y-88918706D01*
X137760500Y-88757290D01*
X137760500Y-88592710D01*
X137728393Y-88431294D01*
X137665411Y-88279242D01*
X137665410Y-88279241D01*
X137665407Y-88279235D01*
X137573976Y-88142400D01*
X137573973Y-88142396D01*
X137457603Y-88026026D01*
X137457599Y-88026023D01*
X137320764Y-87934592D01*
X137320755Y-87934587D01*
X137168706Y-87871607D01*
X137168698Y-87871605D01*
X137007294Y-87839500D01*
X137007290Y-87839500D01*
X136842710Y-87839500D01*
X136842705Y-87839500D01*
X136681301Y-87871605D01*
X136681293Y-87871607D01*
X136529244Y-87934587D01*
X136529235Y-87934592D01*
X136392400Y-88026023D01*
X136392396Y-88026026D01*
X136276026Y-88142396D01*
X136276023Y-88142400D01*
X136184592Y-88279235D01*
X136184587Y-88279244D01*
X136121607Y-88431293D01*
X136121605Y-88431301D01*
X136089500Y-88592705D01*
X118200000Y-88592705D01*
X118200000Y-84492155D01*
X151410000Y-84492155D01*
X151410000Y-85140000D01*
X152326988Y-85140000D01*
X152294075Y-85197007D01*
X152260000Y-85324174D01*
X152260000Y-85455826D01*
X152294075Y-85582993D01*
X152326988Y-85640000D01*
X151410000Y-85640000D01*
X151410000Y-86287844D01*
X151416401Y-86347372D01*
X151416403Y-86347379D01*
X151466645Y-86482086D01*
X151466649Y-86482093D01*
X151552809Y-86597187D01*
X151552812Y-86597190D01*
X151667906Y-86683350D01*
X151667913Y-86683354D01*
X151802620Y-86733596D01*
X151802627Y-86733598D01*
X151862155Y-86739999D01*
X151862172Y-86740000D01*
X152264435Y-86740000D01*
X152331474Y-86759685D01*
X152377229Y-86812489D01*
X152387173Y-86881647D01*
X152358148Y-86945203D01*
X152311888Y-86978561D01*
X152262403Y-86999058D01*
X152090342Y-87114024D01*
X151944024Y-87260342D01*
X151829058Y-87432403D01*
X151749870Y-87623579D01*
X151749868Y-87623587D01*
X151709500Y-87826530D01*
X151709500Y-88033469D01*
X151731168Y-88142400D01*
X151749870Y-88236420D01*
X151829059Y-88427598D01*
X151886541Y-88513626D01*
X151944024Y-88599657D01*
X152090342Y-88745975D01*
X152090345Y-88745977D01*
X152262402Y-88860941D01*
X152453580Y-88940130D01*
X152656530Y-88980499D01*
X152656534Y-88980500D01*
X152656535Y-88980500D01*
X152863466Y-88980500D01*
X152863467Y-88980499D01*
X153066420Y-88940130D01*
X153257598Y-88860941D01*
X153429655Y-88745977D01*
X153575977Y-88599655D01*
X153690941Y-88427598D01*
X153770130Y-88236420D01*
X153810500Y-88033465D01*
X153810500Y-87826535D01*
X153810499Y-87826530D01*
X154249500Y-87826530D01*
X154249500Y-88033469D01*
X154271168Y-88142400D01*
X154289870Y-88236420D01*
X154369059Y-88427598D01*
X154426541Y-88513626D01*
X154484024Y-88599657D01*
X154630342Y-88745975D01*
X154630345Y-88745977D01*
X154802402Y-88860941D01*
X154993580Y-88940130D01*
X155196530Y-88980499D01*
X155196534Y-88980500D01*
X155196535Y-88980500D01*
X155403466Y-88980500D01*
X155403467Y-88980499D01*
X155606420Y-88940130D01*
X155797598Y-88860941D01*
X155969655Y-88745977D01*
X156115977Y-88599655D01*
X156230941Y-88427598D01*
X156310130Y-88236420D01*
X156350500Y-88033465D01*
X156350500Y-87826535D01*
X156350499Y-87826530D01*
X156789500Y-87826530D01*
X156789500Y-88033469D01*
X156811168Y-88142400D01*
X156829870Y-88236420D01*
X156909059Y-88427598D01*
X156966541Y-88513626D01*
X157024024Y-88599657D01*
X157170342Y-88745975D01*
X157170345Y-88745977D01*
X157342402Y-88860941D01*
X157533580Y-88940130D01*
X157736530Y-88980499D01*
X157736534Y-88980500D01*
X157736535Y-88980500D01*
X157943466Y-88980500D01*
X157943467Y-88980499D01*
X158146420Y-88940130D01*
X158337598Y-88860941D01*
X158509655Y-88745977D01*
X158655977Y-88599655D01*
X158770941Y-88427598D01*
X158850130Y-88236420D01*
X158890500Y-88033465D01*
X158890500Y-87826535D01*
X158850130Y-87623580D01*
X158770941Y-87432402D01*
X158655977Y-87260345D01*
X158655975Y-87260342D01*
X158509657Y-87114024D01*
X158423626Y-87056541D01*
X158337598Y-86999059D01*
X158146420Y-86919870D01*
X158146412Y-86919868D01*
X157943469Y-86879500D01*
X157943465Y-86879500D01*
X157736535Y-86879500D01*
X157736530Y-86879500D01*
X157533587Y-86919868D01*
X157533579Y-86919870D01*
X157342403Y-86999058D01*
X157170342Y-87114024D01*
X157024024Y-87260342D01*
X156909058Y-87432403D01*
X156829870Y-87623579D01*
X156829868Y-87623587D01*
X156789500Y-87826530D01*
X156350499Y-87826530D01*
X156310130Y-87623580D01*
X156230941Y-87432402D01*
X156115977Y-87260345D01*
X156115975Y-87260342D01*
X155969657Y-87114024D01*
X155883626Y-87056541D01*
X155797598Y-86999059D01*
X155606420Y-86919870D01*
X155606412Y-86919868D01*
X155403469Y-86879500D01*
X155403465Y-86879500D01*
X155196535Y-86879500D01*
X155196530Y-86879500D01*
X154993587Y-86919868D01*
X154993579Y-86919870D01*
X154802403Y-86999058D01*
X154630342Y-87114024D01*
X154484024Y-87260342D01*
X154369058Y-87432403D01*
X154289870Y-87623579D01*
X154289868Y-87623587D01*
X154249500Y-87826530D01*
X153810499Y-87826530D01*
X153770130Y-87623580D01*
X153690941Y-87432402D01*
X153575977Y-87260345D01*
X153575975Y-87260342D01*
X153429657Y-87114024D01*
X153343626Y-87056541D01*
X153257598Y-86999059D01*
X153208112Y-86978561D01*
X153153709Y-86934720D01*
X153131644Y-86868426D01*
X153148923Y-86800726D01*
X153200061Y-86753116D01*
X153255565Y-86740000D01*
X153657828Y-86740000D01*
X153657844Y-86739999D01*
X153717372Y-86733598D01*
X153717379Y-86733596D01*
X153852086Y-86683354D01*
X153852093Y-86683350D01*
X153967187Y-86597190D01*
X153967190Y-86597187D01*
X154053350Y-86482093D01*
X154053354Y-86482086D01*
X154103596Y-86347379D01*
X154103598Y-86347372D01*
X154109999Y-86287844D01*
X154110000Y-86287827D01*
X154110000Y-85885564D01*
X154129685Y-85818525D01*
X154182489Y-85772770D01*
X154251647Y-85762826D01*
X154315203Y-85791851D01*
X154348561Y-85838112D01*
X154355939Y-85855925D01*
X154369059Y-85887598D01*
X154445701Y-86002302D01*
X154484024Y-86059657D01*
X154630342Y-86205975D01*
X154630345Y-86205977D01*
X154802402Y-86320941D01*
X154993580Y-86400130D01*
X155196530Y-86440499D01*
X155196534Y-86440500D01*
X155196535Y-86440500D01*
X155403466Y-86440500D01*
X155403467Y-86440499D01*
X155606420Y-86400130D01*
X155797598Y-86320941D01*
X155969655Y-86205977D01*
X156115977Y-86059655D01*
X156230941Y-85887598D01*
X156310130Y-85696420D01*
X156350500Y-85493465D01*
X156350500Y-85286535D01*
X156350499Y-85286530D01*
X156789500Y-85286530D01*
X156789500Y-85493469D01*
X156829868Y-85696412D01*
X156829870Y-85696420D01*
X156909058Y-85887596D01*
X157024024Y-86059657D01*
X157170342Y-86205975D01*
X157170345Y-86205977D01*
X157342402Y-86320941D01*
X157533580Y-86400130D01*
X157736530Y-86440499D01*
X157736534Y-86440500D01*
X157736535Y-86440500D01*
X157943466Y-86440500D01*
X157943467Y-86440499D01*
X158146420Y-86400130D01*
X158337598Y-86320941D01*
X158509655Y-86205977D01*
X158655977Y-86059655D01*
X158770941Y-85887598D01*
X158850130Y-85696420D01*
X158890500Y-85493465D01*
X158890500Y-85286535D01*
X158850130Y-85083580D01*
X158770941Y-84892402D01*
X158655977Y-84720345D01*
X158655975Y-84720342D01*
X158509657Y-84574024D01*
X158387130Y-84492155D01*
X158337598Y-84459059D01*
X158146420Y-84379870D01*
X158146412Y-84379868D01*
X157943469Y-84339500D01*
X157943465Y-84339500D01*
X157736535Y-84339500D01*
X157736530Y-84339500D01*
X157533587Y-84379868D01*
X157533579Y-84379870D01*
X157342403Y-84459058D01*
X157170342Y-84574024D01*
X157024024Y-84720342D01*
X156909058Y-84892403D01*
X156829870Y-85083579D01*
X156829868Y-85083587D01*
X156789500Y-85286530D01*
X156350499Y-85286530D01*
X156310130Y-85083580D01*
X156230941Y-84892402D01*
X156115977Y-84720345D01*
X156115975Y-84720342D01*
X155969657Y-84574024D01*
X155847130Y-84492155D01*
X155797598Y-84459059D01*
X155606420Y-84379870D01*
X155606412Y-84379868D01*
X155403469Y-84339500D01*
X155403465Y-84339500D01*
X155196535Y-84339500D01*
X155196530Y-84339500D01*
X154993587Y-84379868D01*
X154993579Y-84379870D01*
X154802403Y-84459058D01*
X154630342Y-84574024D01*
X154484024Y-84720342D01*
X154369058Y-84892403D01*
X154348561Y-84941888D01*
X154304720Y-84996291D01*
X154238426Y-85018356D01*
X154170726Y-85001077D01*
X154123116Y-84949939D01*
X154110000Y-84894435D01*
X154110000Y-84492172D01*
X154109999Y-84492155D01*
X154103598Y-84432627D01*
X154103596Y-84432620D01*
X154053354Y-84297913D01*
X154053350Y-84297906D01*
X153967190Y-84182812D01*
X153967187Y-84182809D01*
X153852093Y-84096649D01*
X153852086Y-84096645D01*
X153717379Y-84046403D01*
X153717372Y-84046401D01*
X153657844Y-84040000D01*
X153010000Y-84040000D01*
X153010000Y-84956988D01*
X152952993Y-84924075D01*
X152825826Y-84890000D01*
X152694174Y-84890000D01*
X152567007Y-84924075D01*
X152510000Y-84956988D01*
X152510000Y-84040000D01*
X151862155Y-84040000D01*
X151802627Y-84046401D01*
X151802620Y-84046403D01*
X151667913Y-84096645D01*
X151667906Y-84096649D01*
X151552812Y-84182809D01*
X151552809Y-84182812D01*
X151466649Y-84297906D01*
X151466645Y-84297913D01*
X151416403Y-84432620D01*
X151416401Y-84432627D01*
X151410000Y-84492155D01*
X118200000Y-84492155D01*
X118200000Y-74092705D01*
X145389500Y-74092705D01*
X145389500Y-74257294D01*
X145421605Y-74418698D01*
X145421607Y-74418706D01*
X145484587Y-74570755D01*
X145484592Y-74570764D01*
X145576023Y-74707599D01*
X145576026Y-74707603D01*
X145692396Y-74823973D01*
X145692400Y-74823976D01*
X145829235Y-74915407D01*
X145829241Y-74915410D01*
X145829242Y-74915411D01*
X145981294Y-74978393D01*
X146142705Y-75010499D01*
X146142709Y-75010500D01*
X146142710Y-75010500D01*
X146307291Y-75010500D01*
X146307292Y-75010499D01*
X146468706Y-74978393D01*
X146620758Y-74915411D01*
X146757600Y-74823976D01*
X146873976Y-74707600D01*
X146965411Y-74570758D01*
X147028393Y-74418706D01*
X147060500Y-74257290D01*
X147060500Y-74092710D01*
X147028393Y-73931294D01*
X146965411Y-73779242D01*
X146965410Y-73779241D01*
X146965407Y-73779235D01*
X146873976Y-73642400D01*
X146873973Y-73642396D01*
X146757603Y-73526026D01*
X146757599Y-73526023D01*
X146620764Y-73434592D01*
X146620755Y-73434587D01*
X146468706Y-73371607D01*
X146468698Y-73371605D01*
X146307294Y-73339500D01*
X146307290Y-73339500D01*
X146142710Y-73339500D01*
X146142705Y-73339500D01*
X145981301Y-73371605D01*
X145981293Y-73371607D01*
X145829244Y-73434587D01*
X145829235Y-73434592D01*
X145692400Y-73526023D01*
X145692396Y-73526026D01*
X145576026Y-73642396D01*
X145576023Y-73642400D01*
X145484592Y-73779235D01*
X145484587Y-73779244D01*
X145421607Y-73931293D01*
X145421605Y-73931301D01*
X145389500Y-74092705D01*
X118200000Y-74092705D01*
X118200000Y-71283054D01*
X118219685Y-71216015D01*
X118270473Y-71171202D01*
X118694180Y-70968461D01*
X118697770Y-70966816D01*
X118715132Y-70959192D01*
X118716656Y-70958995D01*
X118722805Y-70956124D01*
X118724442Y-70955531D01*
X118730606Y-70951458D01*
X119397066Y-70648033D01*
X119400907Y-70646363D01*
X119418363Y-70639128D01*
X119419956Y-70638956D01*
X119426183Y-70636192D01*
X119427913Y-70635607D01*
X119434282Y-70631535D01*
X120132859Y-70329838D01*
X120136844Y-70328199D01*
X120154514Y-70321290D01*
X120156149Y-70321147D01*
X120162515Y-70318473D01*
X120164076Y-70317982D01*
X120170597Y-70313993D01*
X120901719Y-70015487D01*
X120905828Y-70013895D01*
X120923578Y-70007379D01*
X120925237Y-70007268D01*
X120931654Y-70004724D01*
X120933144Y-70004290D01*
X120939790Y-70000405D01*
X121702806Y-69707019D01*
X121706663Y-69705609D01*
X121724719Y-69699348D01*
X121726295Y-69699272D01*
X121732785Y-69696856D01*
X121734556Y-69696374D01*
X121741107Y-69692753D01*
X122536491Y-69405983D01*
X122540293Y-69404684D01*
X122558493Y-69398788D01*
X122560019Y-69398745D01*
X122566466Y-69396496D01*
X122568697Y-69395934D01*
X122575237Y-69392488D01*
X123007229Y-69247173D01*
X123030122Y-69246283D01*
X123052372Y-69240830D01*
X123064368Y-69244950D01*
X123077045Y-69244457D01*
X123096786Y-69256085D01*
X123118453Y-69263527D01*
X123133230Y-69277551D01*
X123137248Y-69279918D01*
X123144053Y-69287823D01*
X123174912Y-69326874D01*
X123284996Y-69466184D01*
X123291000Y-69473781D01*
X123293315Y-69477884D01*
X123301123Y-69486833D01*
X123305079Y-69491602D01*
X123314487Y-69503540D01*
X123318308Y-69506583D01*
X123400324Y-69600872D01*
X123400324Y-69600885D01*
X123400453Y-69601021D01*
X123400588Y-69601176D01*
X123400589Y-69601176D01*
X123402169Y-69602992D01*
X123402177Y-69603001D01*
X123413561Y-69616071D01*
X123417215Y-69618676D01*
X123522200Y-69729247D01*
X123524603Y-69731777D01*
X123536005Y-69743786D01*
X123536006Y-69743800D01*
X123536145Y-69743933D01*
X123536281Y-69744076D01*
X123536283Y-69744076D01*
X123538163Y-69746055D01*
X123548484Y-69756907D01*
X123552498Y-69759559D01*
X123695572Y-69896281D01*
X123695575Y-69896284D01*
X123709762Y-69909847D01*
X123709764Y-69909857D01*
X123709841Y-69909923D01*
X123712358Y-69912329D01*
X123712363Y-69912338D01*
X123712449Y-69912416D01*
X123722531Y-69922074D01*
X123727203Y-69924802D01*
X123921286Y-70091130D01*
X123921288Y-70091144D01*
X123921446Y-70091268D01*
X123921591Y-70091392D01*
X123921593Y-70091391D01*
X123923413Y-70092951D01*
X123935107Y-70102950D01*
X123938991Y-70105014D01*
X124041116Y-70185025D01*
X124041118Y-70185036D01*
X124041300Y-70185170D01*
X124041436Y-70185276D01*
X124041440Y-70185275D01*
X124042611Y-70186192D01*
X124042631Y-70186207D01*
X124057400Y-70197718D01*
X124060300Y-70199105D01*
X124118146Y-70241532D01*
X124152970Y-70267073D01*
X124152971Y-70267074D01*
X124170274Y-70279765D01*
X124170276Y-70279773D01*
X124170403Y-70279860D01*
X124172131Y-70281127D01*
X124172132Y-70281129D01*
X124172172Y-70281157D01*
X124187011Y-70292050D01*
X124190383Y-70293510D01*
X124291452Y-70362561D01*
X124291472Y-70362575D01*
X124308720Y-70374364D01*
X124308722Y-70374369D01*
X124308789Y-70374411D01*
X124310701Y-70375718D01*
X124310711Y-70375730D01*
X124310920Y-70375868D01*
X124325118Y-70385617D01*
X124328820Y-70387086D01*
X124438507Y-70456492D01*
X124438512Y-70456495D01*
X124456416Y-70467825D01*
X124456419Y-70467834D01*
X124456551Y-70467910D01*
X124458538Y-70469168D01*
X124458544Y-70469174D01*
X124458648Y-70469238D01*
X124474107Y-70479044D01*
X124477952Y-70480369D01*
X124595588Y-70548847D01*
X124613323Y-70559171D01*
X124613327Y-70559182D01*
X124613487Y-70559267D01*
X124615576Y-70560483D01*
X124615578Y-70560485D01*
X124615601Y-70560498D01*
X124631826Y-70569948D01*
X124635834Y-70571138D01*
X124760273Y-70637250D01*
X124779405Y-70647417D01*
X124779408Y-70647425D01*
X124779524Y-70647480D01*
X124781830Y-70648706D01*
X124781832Y-70648708D01*
X124781899Y-70648742D01*
X124796939Y-70656747D01*
X124801133Y-70657858D01*
X124935314Y-70722292D01*
X124935335Y-70722302D01*
X124954621Y-70731567D01*
X124954624Y-70731574D01*
X124954714Y-70731612D01*
X124957209Y-70732811D01*
X124957223Y-70732823D01*
X124957424Y-70732915D01*
X124971006Y-70739472D01*
X124975427Y-70740497D01*
X125138930Y-70810628D01*
X125138936Y-70810641D01*
X125139124Y-70810712D01*
X125139299Y-70810787D01*
X125139300Y-70810786D01*
X125141655Y-70811796D01*
X125156667Y-70818230D01*
X125161135Y-70819020D01*
X125313190Y-70876413D01*
X125332301Y-70883629D01*
X125332306Y-70883638D01*
X125332427Y-70883677D01*
X125335178Y-70884716D01*
X125335188Y-70884723D01*
X125335314Y-70884768D01*
X125349740Y-70890235D01*
X125354498Y-70890867D01*
X125513504Y-70942664D01*
X125513556Y-70942681D01*
X125534695Y-70949577D01*
X125534696Y-70949578D01*
X125534701Y-70949579D01*
X125537756Y-70950576D01*
X125537783Y-70950594D01*
X125538131Y-70950699D01*
X125552492Y-70955434D01*
X125557604Y-70955850D01*
X125728973Y-71002780D01*
X125746061Y-71007463D01*
X125746067Y-71007471D01*
X125746185Y-71007497D01*
X125749214Y-71008327D01*
X125749227Y-71008335D01*
X125749380Y-71008373D01*
X125764510Y-71012542D01*
X125769610Y-71012690D01*
X125947090Y-71052043D01*
X125966374Y-71056323D01*
X125966380Y-71056331D01*
X125966489Y-71056349D01*
X125969660Y-71057053D01*
X125969672Y-71057059D01*
X125969827Y-71057090D01*
X125985067Y-71060494D01*
X125990280Y-71060379D01*
X126177077Y-71092023D01*
X126195590Y-71095163D01*
X126195597Y-71095171D01*
X126195713Y-71095184D01*
X126198977Y-71095738D01*
X126198989Y-71095744D01*
X126199142Y-71095766D01*
X126212806Y-71098102D01*
X126217999Y-71097788D01*
X126416096Y-71120933D01*
X126433670Y-71122989D01*
X126433678Y-71122999D01*
X126433828Y-71123008D01*
X126437124Y-71123394D01*
X126437132Y-71123397D01*
X126437247Y-71123408D01*
X126450945Y-71125024D01*
X126456143Y-71124438D01*
X126484357Y-71126245D01*
X126665580Y-71137857D01*
X126680576Y-71138820D01*
X126680586Y-71138830D01*
X126680740Y-71138831D01*
X126684094Y-71139047D01*
X126684104Y-71139050D01*
X126684212Y-71139055D01*
X126699016Y-71140020D01*
X126704279Y-71139092D01*
X126917004Y-71141450D01*
X126939863Y-71141718D01*
X126939906Y-71141731D01*
X126940320Y-71141725D01*
X126952787Y-71141916D01*
X126958148Y-71140753D01*
X127179468Y-71131431D01*
X127200724Y-71130544D01*
X127200727Y-71130546D01*
X127200759Y-71130542D01*
X127204278Y-71130396D01*
X127204304Y-71130402D01*
X127204589Y-71130383D01*
X127218493Y-71129838D01*
X127223749Y-71128346D01*
X127452646Y-71106474D01*
X127473880Y-71104455D01*
X127473883Y-71104457D01*
X127473917Y-71104451D01*
X127477395Y-71104121D01*
X127477428Y-71104127D01*
X127477743Y-71104089D01*
X127491537Y-71102816D01*
X127496705Y-71101051D01*
X127734920Y-71065508D01*
X127759184Y-71061901D01*
X127759224Y-71061906D01*
X127759620Y-71061837D01*
X127772808Y-71059924D01*
X127777872Y-71057916D01*
X128023992Y-71007934D01*
X128023999Y-71007932D01*
X128026931Y-71007336D01*
X128046157Y-71003434D01*
X128046165Y-71003440D01*
X128046301Y-71003405D01*
X128049079Y-71002842D01*
X128049088Y-71002842D01*
X128049193Y-71002819D01*
X128065180Y-70999590D01*
X128069446Y-70997617D01*
X128398926Y-70915223D01*
X128398938Y-70915221D01*
X128420313Y-70909878D01*
X128420320Y-70909882D01*
X128420436Y-70909847D01*
X128422912Y-70909229D01*
X128422919Y-70909229D01*
X128423053Y-70909193D01*
X128440435Y-70904870D01*
X128444271Y-70902873D01*
X128750404Y-70813292D01*
X128773046Y-70806678D01*
X128773075Y-70806678D01*
X128773428Y-70806567D01*
X128789636Y-70801888D01*
X128793697Y-70799565D01*
X129077010Y-70703732D01*
X129096984Y-70696983D01*
X129096988Y-70696985D01*
X129097045Y-70696962D01*
X129099758Y-70696046D01*
X129099781Y-70696045D01*
X129100049Y-70695948D01*
X129115599Y-70690736D01*
X129119615Y-70688219D01*
X129382784Y-70586283D01*
X129403974Y-70578090D01*
X129404015Y-70578086D01*
X129404445Y-70577909D01*
X129417776Y-70572816D01*
X129421887Y-70570047D01*
X129664380Y-70463285D01*
X129686409Y-70453601D01*
X129686448Y-70453595D01*
X129686852Y-70453407D01*
X129701095Y-70447211D01*
X129705198Y-70444082D01*
X129929318Y-70332580D01*
X129944952Y-70324808D01*
X129944958Y-70324810D01*
X129945025Y-70324772D01*
X129947866Y-70323360D01*
X129947892Y-70323355D01*
X129948137Y-70323226D01*
X129960833Y-70316953D01*
X129964749Y-70313733D01*
X130172058Y-70197718D01*
X130186280Y-70189762D01*
X130186291Y-70189765D01*
X130186419Y-70189684D01*
X130189187Y-70188136D01*
X130189202Y-70188132D01*
X130189345Y-70188048D01*
X130202726Y-70180587D01*
X130206513Y-70177079D01*
X130390613Y-70061602D01*
X130411210Y-70048698D01*
X130411246Y-70048687D01*
X130411570Y-70048473D01*
X130422635Y-70041592D01*
X130426410Y-70037822D01*
X130595207Y-69919467D01*
X130614668Y-69905839D01*
X130614707Y-69905825D01*
X130615023Y-69905592D01*
X130626408Y-69897678D01*
X130630057Y-69893562D01*
X130780322Y-69776012D01*
X130800375Y-69760343D01*
X130800408Y-69760329D01*
X130800693Y-69760095D01*
X130811712Y-69751541D01*
X130815156Y-69747204D01*
X130950914Y-69628863D01*
X130966464Y-69615320D01*
X130966467Y-69615321D01*
X130966487Y-69615301D01*
X130969179Y-69612957D01*
X130969211Y-69612942D01*
X130969455Y-69612718D01*
X130978849Y-69604584D01*
X130982055Y-69600188D01*
X131078475Y-69506583D01*
X131104251Y-69481559D01*
X131121832Y-69464512D01*
X131121866Y-69464493D01*
X131122129Y-69464225D01*
X131131174Y-69455511D01*
X131134170Y-69450882D01*
X131151910Y-69431702D01*
X131241671Y-69334654D01*
X131259158Y-69315768D01*
X131259191Y-69315747D01*
X131259451Y-69315452D01*
X131268286Y-69305976D01*
X131271024Y-69301164D01*
X131275523Y-69295743D01*
X131365839Y-69186918D01*
X131382010Y-69167462D01*
X131382053Y-69167432D01*
X131382378Y-69167020D01*
X131390636Y-69157176D01*
X131393141Y-69152159D01*
X131478390Y-69037531D01*
X131489001Y-69023270D01*
X131489011Y-69023269D01*
X131489076Y-69023170D01*
X131491076Y-69020483D01*
X131491091Y-69020471D01*
X131491200Y-69020317D01*
X131499802Y-69008796D01*
X131501908Y-69003874D01*
X131576668Y-68891469D01*
X131585421Y-68878316D01*
X131585437Y-68878313D01*
X131585505Y-68878190D01*
X131588165Y-68874194D01*
X131588175Y-68874184D01*
X131588226Y-68874103D01*
X131593415Y-68866319D01*
X131595692Y-68860014D01*
X131734264Y-68612774D01*
X131742825Y-68597524D01*
X131742835Y-68597521D01*
X131742861Y-68597460D01*
X131745924Y-68592005D01*
X131745954Y-68591975D01*
X131746053Y-68591777D01*
X131748540Y-68587368D01*
X131750537Y-68579949D01*
X131850520Y-68351868D01*
X131860775Y-68328561D01*
X131860826Y-68328499D01*
X131860993Y-68328068D01*
X131863358Y-68322755D01*
X131864622Y-68315258D01*
X131932801Y-68110916D01*
X131938425Y-68094080D01*
X131938439Y-68094073D01*
X131938467Y-68093955D01*
X131940144Y-68088936D01*
X131940154Y-68088921D01*
X131940187Y-68088807D01*
X131942499Y-68081908D01*
X131943086Y-68074939D01*
X131984718Y-67903547D01*
X131990711Y-67878960D01*
X131990737Y-67878913D01*
X131990811Y-67878553D01*
X131992685Y-67870973D01*
X131992730Y-67864217D01*
X132010055Y-67758284D01*
X132014887Y-67728742D01*
X132018799Y-67704972D01*
X132018828Y-67704910D01*
X132018892Y-67704416D01*
X132020538Y-67694685D01*
X132020049Y-67688135D01*
X132028560Y-67597352D01*
X132030914Y-67572441D01*
X132030933Y-67572392D01*
X132030954Y-67572030D01*
X132031762Y-67563772D01*
X132030843Y-67557173D01*
X132034344Y-67375970D01*
X132055320Y-67309324D01*
X132108998Y-67264598D01*
X132142600Y-67255367D01*
X133111926Y-67131529D01*
X133116097Y-67131069D01*
X133135400Y-67129273D01*
X133136767Y-67129539D01*
X133143991Y-67128774D01*
X133148885Y-67128659D01*
X133155718Y-67126899D01*
X135666528Y-66916197D01*
X135670561Y-66915926D01*
X135690151Y-66914924D01*
X135691424Y-66915228D01*
X135698713Y-66914782D01*
X135704757Y-66914890D01*
X135711454Y-66913454D01*
X138002983Y-66825315D01*
X138007085Y-66825226D01*
X138026683Y-66825130D01*
X138027963Y-66825499D01*
X138035298Y-66825388D01*
X138041696Y-66825802D01*
X138048479Y-66824654D01*
X140127413Y-66842737D01*
X140131303Y-66842832D01*
X140150563Y-66843606D01*
X140151659Y-66843976D01*
X140158797Y-66844212D01*
X140166511Y-66845038D01*
X140172905Y-66844268D01*
X142045912Y-66952270D01*
X142050030Y-66952578D01*
X142069107Y-66954323D01*
X142070260Y-66954779D01*
X142077490Y-66955378D01*
X142084477Y-66956501D01*
X142091112Y-66956047D01*
X143764192Y-67137632D01*
X143768081Y-67138118D01*
X143787598Y-67140870D01*
X143788682Y-67141361D01*
X143795972Y-67142345D01*
X143803358Y-67143909D01*
X143809855Y-67143801D01*
X145290056Y-67382741D01*
X145294041Y-67383452D01*
X145313260Y-67387209D01*
X145314347Y-67387773D01*
X145321604Y-67389142D01*
X145329061Y-67391142D01*
X145335613Y-67391363D01*
X146628823Y-67671286D01*
X146632507Y-67672142D01*
X146651628Y-67676900D01*
X146652566Y-67677449D01*
X146659584Y-67679165D01*
X146668011Y-67681870D01*
X146674140Y-67682403D01*
X147787275Y-67987124D01*
X147790994Y-67988206D01*
X147809739Y-67993978D01*
X147810672Y-67994595D01*
X147817667Y-67996716D01*
X147825635Y-67999773D01*
X147831830Y-68000659D01*
X148771541Y-68314004D01*
X148775269Y-68315315D01*
X148793646Y-68322106D01*
X148794564Y-68322789D01*
X148801432Y-68325287D01*
X148809021Y-68328692D01*
X148815204Y-68329930D01*
X149102697Y-68443688D01*
X149533050Y-68613974D01*
X149588162Y-68635781D01*
X149591904Y-68637333D01*
X149609538Y-68644986D01*
X149610420Y-68645721D01*
X149617101Y-68648577D01*
X149623971Y-68652127D01*
X149630108Y-68653737D01*
X149995279Y-68821938D01*
X150242607Y-68935860D01*
X150246177Y-68937574D01*
X150263688Y-68946328D01*
X150264313Y-68946909D01*
X150271114Y-68950363D01*
X150281959Y-68956742D01*
X150286740Y-68958319D01*
X151088442Y-69405127D01*
X151091662Y-69406986D01*
X151109022Y-69417364D01*
X151109395Y-69417767D01*
X151116148Y-69421962D01*
X151130168Y-69431702D01*
X151133323Y-69433044D01*
X151378796Y-69602117D01*
X151388459Y-69609497D01*
X151390972Y-69611619D01*
X151417599Y-69645183D01*
X151418511Y-69644657D01*
X151420092Y-69647396D01*
X151420099Y-69647409D01*
X151420106Y-69647420D01*
X151420172Y-69647534D01*
X151420701Y-69649093D01*
X151421430Y-69650012D01*
X151421581Y-69650308D01*
X151421182Y-69650511D01*
X151425947Y-69664543D01*
X151429494Y-69669910D01*
X151429561Y-69675186D01*
X151434762Y-69690505D01*
X151435178Y-69690429D01*
X151435471Y-69692024D01*
X151435462Y-69692565D01*
X151435721Y-69693328D01*
X151436156Y-69696628D01*
X151435393Y-69696728D01*
X151435328Y-69700626D01*
X151437202Y-69705659D01*
X151434662Y-69740862D01*
X151434211Y-69742929D01*
X151431033Y-69754686D01*
X151272876Y-70243227D01*
X151271519Y-70246810D01*
X151271551Y-70246821D01*
X151268391Y-70255946D01*
X151268360Y-70255935D01*
X151267211Y-70259590D01*
X150744586Y-71675548D01*
X150743921Y-71677307D01*
X150742066Y-71682106D01*
X150741640Y-71682986D01*
X150741363Y-71683925D01*
X150739513Y-71688714D01*
X150739363Y-71688908D01*
X150738817Y-71690476D01*
X150520875Y-72229806D01*
X150523803Y-72229831D01*
X150527908Y-72229868D01*
X150594771Y-72250142D01*
X150640059Y-72303348D01*
X150649393Y-72372591D01*
X150642095Y-72399540D01*
X150480595Y-72807135D01*
X150478359Y-72812420D01*
X149929794Y-74029237D01*
X149929219Y-74030493D01*
X149280500Y-75427732D01*
X149278509Y-75431822D01*
X148490232Y-76978442D01*
X148488830Y-76981111D01*
X147560418Y-78698171D01*
X147558681Y-78701277D01*
X146491117Y-80547067D01*
X146487920Y-80552293D01*
X146193430Y-81007937D01*
X146193302Y-81008136D01*
X146186314Y-81018949D01*
X146186205Y-81019059D01*
X146186205Y-81019117D01*
X146186174Y-81019166D01*
X146186191Y-81019245D01*
X146186143Y-81019321D01*
X146186293Y-81019681D01*
X146186500Y-81019764D01*
X146186501Y-81019765D01*
X146186502Y-81019764D01*
X146189339Y-81020904D01*
X146200059Y-81019708D01*
X166099711Y-80938827D01*
X166099793Y-80938827D01*
X166099794Y-80938828D01*
X166100208Y-80938827D01*
X166100501Y-80938533D01*
X166076633Y-72416007D01*
X166096130Y-72348916D01*
X166109623Y-72331443D01*
X169799183Y-68345021D01*
X169802014Y-68342828D01*
X169802963Y-68341112D01*
X169811998Y-68335090D01*
X169831329Y-68320110D01*
X169838339Y-68316330D01*
X169840994Y-68315766D01*
X169842408Y-68314825D01*
X169847984Y-68312497D01*
X169848041Y-68312633D01*
X169852741Y-68310452D01*
X169863630Y-68308047D01*
X169870079Y-68304474D01*
X169893041Y-68301543D01*
X169893096Y-68301541D01*
X169904958Y-68298922D01*
X175597356Y-68298922D01*
X175597358Y-68298924D01*
X175597565Y-68298922D01*
X175597768Y-68298922D01*
X175597941Y-68298922D01*
X175597957Y-68298883D01*
X175598062Y-68298626D01*
X175598063Y-68298625D01*
X175598061Y-68298389D01*
X175598061Y-68298215D01*
X175598059Y-68298213D01*
X175566351Y-64564926D01*
X175570664Y-64544209D01*
X175570015Y-64539998D01*
X175575810Y-64519489D01*
X175577072Y-64513430D01*
X175578305Y-64510659D01*
X175579613Y-64506034D01*
X175579617Y-64506025D01*
X175581009Y-64503998D01*
X175581573Y-64502618D01*
X175610969Y-64459581D01*
X186343040Y-54263565D01*
X186363642Y-54252991D01*
X186361376Y-54249524D01*
X186370951Y-54243266D01*
X186393080Y-54231795D01*
X186393138Y-54231772D01*
X186403995Y-54228672D01*
X186405833Y-54227530D01*
X186409772Y-54227023D01*
X186416815Y-54225013D01*
X186416959Y-54224987D01*
X186438346Y-54223348D01*
X186440839Y-54223028D01*
X186453260Y-54223213D01*
G37*
%TD.AperFunction*%
%TD*%
M02*
