%TF.GenerationSoftware,KiCad,Pcbnew,8.0.5*%
%TF.CreationDate,2025-03-05T17:25:15-08:00*%
%TF.ProjectId,portal-gun,706f7274-616c-42d6-9775-6e2e6b696361,rev?*%
%TF.SameCoordinates,Original*%
%TF.FileFunction,Copper,L2,Bot*%
%TF.FilePolarity,Positive*%
%FSLAX46Y46*%
G04 Gerber Fmt 4.6, Leading zero omitted, Abs format (unit mm)*
G04 Created by KiCad (PCBNEW 8.0.5) date 2025-03-05 17:25:15*
%MOMM*%
%LPD*%
G01*
G04 APERTURE LIST*
G04 Aperture macros list*
%AMRoundRect*
0 Rectangle with rounded corners*
0 $1 Rounding radius*
0 $2 $3 $4 $5 $6 $7 $8 $9 X,Y pos of 4 corners*
0 Add a 4 corners polygon primitive as box body*
4,1,4,$2,$3,$4,$5,$6,$7,$8,$9,$2,$3,0*
0 Add four circle primitives for the rounded corners*
1,1,$1+$1,$2,$3*
1,1,$1+$1,$4,$5*
1,1,$1+$1,$6,$7*
1,1,$1+$1,$8,$9*
0 Add four rect primitives between the rounded corners*
20,1,$1+$1,$2,$3,$4,$5,0*
20,1,$1+$1,$4,$5,$6,$7,0*
20,1,$1+$1,$6,$7,$8,$9,0*
20,1,$1+$1,$8,$9,$2,$3,0*%
%AMRotRect*
0 Rectangle, with rotation*
0 The origin of the aperture is its center*
0 $1 length*
0 $2 width*
0 $3 Rotation angle, in degrees counterclockwise*
0 Add horizontal line*
21,1,$1,$2,0,0,$3*%
G04 Aperture macros list end*
%TA.AperFunction,ComponentPad*%
%ADD10C,1.000000*%
%TD*%
%TA.AperFunction,SMDPad,CuDef*%
%ADD11R,2.200000X1.200000*%
%TD*%
%TA.AperFunction,SMDPad,CuDef*%
%ADD12R,1.510000X1.800000*%
%TD*%
%TA.AperFunction,SMDPad,CuDef*%
%ADD13RoundRect,0.225000X-0.250000X0.225000X-0.250000X-0.225000X0.250000X-0.225000X0.250000X0.225000X0*%
%TD*%
%TA.AperFunction,SMDPad,CuDef*%
%ADD14R,0.800000X0.500000*%
%TD*%
%TA.AperFunction,SMDPad,CuDef*%
%ADD15R,0.600000X0.400000*%
%TD*%
%TA.AperFunction,SMDPad,CuDef*%
%ADD16R,0.800000X0.400000*%
%TD*%
%TA.AperFunction,SMDPad,CuDef*%
%ADD17R,0.500000X0.800000*%
%TD*%
%TA.AperFunction,SMDPad,CuDef*%
%ADD18R,0.400000X0.600000*%
%TD*%
%TA.AperFunction,SMDPad,CuDef*%
%ADD19R,0.400000X0.800000*%
%TD*%
%TA.AperFunction,SMDPad,CuDef*%
%ADD20RotRect,0.500000X0.800000X195.000000*%
%TD*%
%TA.AperFunction,SMDPad,CuDef*%
%ADD21RotRect,0.400000X0.600000X195.000000*%
%TD*%
%TA.AperFunction,SMDPad,CuDef*%
%ADD22RotRect,0.400000X0.800000X195.000000*%
%TD*%
%TA.AperFunction,SMDPad,CuDef*%
%ADD23RoundRect,0.150000X-0.150000X0.512500X-0.150000X-0.512500X0.150000X-0.512500X0.150000X0.512500X0*%
%TD*%
%TA.AperFunction,ComponentPad*%
%ADD24R,1.700000X1.700000*%
%TD*%
%TA.AperFunction,ComponentPad*%
%ADD25O,1.700000X1.700000*%
%TD*%
%TA.AperFunction,ViaPad*%
%ADD26C,0.600000*%
%TD*%
%TA.AperFunction,Conductor*%
%ADD27C,0.400000*%
%TD*%
%TA.AperFunction,Conductor*%
%ADD28C,0.200000*%
%TD*%
G04 APERTURE END LIST*
D10*
%TO.P,REF\u002A\u002A,1*%
%TO.N,GND*%
X136925000Y-88675000D03*
%TD*%
%TO.P,,1*%
%TO.N,GND*%
X146225000Y-74175000D03*
%TD*%
D11*
%TO.P,SW1,1,1*%
%TO.N,VDD*%
X111050000Y-87775000D03*
%TO.P,SW1,2,2*%
%TO.N,Net-(U1-PA4)*%
X111050000Y-83275000D03*
D12*
%TO.P,SW1,3*%
%TO.N,GND*%
X114250000Y-89525000D03*
%TO.P,SW1,4*%
X114250000Y-81525000D03*
%TD*%
D13*
%TO.P,C1,2*%
%TO.N,GND*%
X120500000Y-80475000D03*
%TO.P,C1,1*%
%TO.N,VDD*%
X120500000Y-78925000D03*
%TD*%
D14*
%TO.P,U5,1,DIN*%
%TO.N,Net-(U4-DO)*%
X195625000Y-80300000D03*
D15*
%TO.P,U5,2,VDD*%
%TO.N,VDD*%
X195725000Y-81050000D03*
D16*
%TO.P,U5,3,FDIN*%
%TO.N,unconnected-(U5-FDIN-Pad3)*%
X195625000Y-81750000D03*
D15*
%TO.P,U5,4,DO*%
%TO.N,unconnected-(U5-DO-Pad4)*%
X195725000Y-82450000D03*
D14*
%TO.P,U5,5,GND*%
%TO.N,GND*%
X195625000Y-83200000D03*
%TD*%
D17*
%TO.P,U4,1,DIN*%
%TO.N,Net-(U3-DO)*%
X159482000Y-81342643D03*
D18*
%TO.P,U4,2,VDD*%
%TO.N,VDD*%
X160232000Y-81242643D03*
D19*
%TO.P,U4,3,FDIN*%
%TO.N,unconnected-(U4-FDIN-Pad3)*%
X160932000Y-81342643D03*
D18*
%TO.P,U4,4,DO*%
%TO.N,Net-(U4-DO)*%
X161632000Y-81242643D03*
D17*
%TO.P,U4,5,GND*%
%TO.N,GND*%
X162382000Y-81342643D03*
%TD*%
%TO.P,U3,1,DIN*%
%TO.N,Net-(U2-DO)*%
X150607000Y-81392643D03*
D18*
%TO.P,U3,2,VDD*%
%TO.N,VDD*%
X151357000Y-81292643D03*
D19*
%TO.P,U3,3,FDIN*%
%TO.N,unconnected-(U3-FDIN-Pad3)*%
X152057000Y-81392643D03*
D18*
%TO.P,U3,4,DO*%
%TO.N,Net-(U3-DO)*%
X152757000Y-81292643D03*
D17*
%TO.P,U3,5,GND*%
%TO.N,GND*%
X153507000Y-81392643D03*
%TD*%
D20*
%TO.P,U2,1,DIN*%
%TO.N,Net-(U1-PA5)*%
X127244349Y-71641227D03*
D21*
%TO.P,U2,2,VDD*%
%TO.N,VDD*%
X127942911Y-71350520D03*
D22*
%TO.P,U2,3,FDIN*%
%TO.N,unconnected-(U2-FDIN-Pad3)*%
X128644941Y-71265939D03*
D21*
%TO.P,U2,4,DO*%
%TO.N,Net-(U2-DO)*%
X129295207Y-70988173D03*
D20*
%TO.P,U2,5,GND*%
%TO.N,GND*%
X130045533Y-70890652D03*
%TD*%
D23*
%TO.P,U1,1,PA4*%
%TO.N,Net-(U1-PA4)*%
X119550000Y-74987500D03*
%TO.P,U1,2,GND*%
%TO.N,GND*%
X120500000Y-74987500D03*
%TO.P,U1,3,PA5*%
%TO.N,Net-(U1-PA5)*%
X121450000Y-74987500D03*
%TO.P,U1,4,PA6/7*%
%TO.N,Net-(J1-Pin_6)*%
X121450000Y-77262500D03*
%TO.P,U1,5,VDD*%
%TO.N,VDD*%
X120500000Y-77262500D03*
%TO.P,U1,6,PA3*%
%TO.N,Net-(J1-Pin_5)*%
X119550000Y-77262500D03*
%TD*%
D24*
%TO.P,J1,1,Pin_1*%
%TO.N,VDD*%
X124195000Y-87260000D03*
D25*
%TO.P,J1,2,Pin_2*%
%TO.N,GND*%
X124195000Y-89800000D03*
%TO.P,J1,3,Pin_3*%
%TO.N,unconnected-(J1-Pin_3-Pad3)*%
X126735000Y-87260000D03*
%TO.P,J1,4,Pin_4*%
%TO.N,unconnected-(J1-Pin_4-Pad4)*%
X126735000Y-89800000D03*
%TO.P,J1,5,Pin_5*%
%TO.N,Net-(J1-Pin_5)*%
X129275000Y-87260000D03*
%TO.P,J1,6,Pin_6*%
%TO.N,Net-(J1-Pin_6)*%
X129275000Y-89800000D03*
%TD*%
D26*
%TO.N,GND*%
X130625000Y-70775000D03*
X195625000Y-83800000D03*
X163000000Y-81350000D03*
X154100000Y-81400000D03*
X120475000Y-73875000D03*
X120475000Y-81300000D03*
%TD*%
D27*
%TO.N,VDD*%
X123225000Y-92400000D02*
X122400000Y-91575000D01*
X122400000Y-91575000D02*
X122400000Y-87775000D01*
X130400000Y-92400000D02*
X123225000Y-92400000D01*
X131701058Y-91098942D02*
X130400000Y-92400000D01*
X131701058Y-81956301D02*
X131701058Y-91098942D01*
X131732359Y-81925000D02*
X131701058Y-81956301D01*
D28*
X127989358Y-79064358D02*
X127989358Y-71350520D01*
X130850000Y-81925000D02*
X127989358Y-79064358D01*
X131732359Y-81925000D02*
X130850000Y-81925000D01*
D27*
X149475000Y-81925000D02*
X131732359Y-81925000D01*
X150325000Y-82775000D02*
X149475000Y-81925000D01*
X151325000Y-82775000D02*
X150325000Y-82775000D01*
D28*
%TO.N,Net-(U2-DO)*%
X130892643Y-81392643D02*
X150607000Y-81392643D01*
X129295207Y-79795207D02*
X130892643Y-81392643D01*
X129295207Y-70988173D02*
X129295207Y-79795207D01*
D27*
%TO.N,VDD*%
X124195000Y-82620000D02*
X120500000Y-78925000D01*
X124195000Y-87260000D02*
X124195000Y-82620000D01*
X122400000Y-87775000D02*
X111050000Y-87775000D01*
X122915000Y-87260000D02*
X122400000Y-87775000D01*
X124195000Y-87260000D02*
X122915000Y-87260000D01*
D28*
%TO.N,Net-(J1-Pin_5)*%
X119550000Y-76600001D02*
X119550000Y-77262500D01*
X121900000Y-76125000D02*
X120025001Y-76125000D01*
X120025001Y-76125000D02*
X119550000Y-76600001D01*
X129275000Y-83500000D02*
X121900000Y-76125000D01*
X129275000Y-87260000D02*
X129275000Y-83500000D01*
%TO.N,Net-(J1-Pin_6)*%
X128025000Y-83837500D02*
X121450000Y-77262500D01*
X128025000Y-88550000D02*
X128025000Y-83837500D01*
X129275000Y-89800000D02*
X128025000Y-88550000D01*
%TO.N,Net-(U1-PA5)*%
X123910576Y-74975000D02*
X127244349Y-71641227D01*
X121462500Y-74975000D02*
X123910576Y-74975000D01*
X121450000Y-74987500D02*
X121462500Y-74975000D01*
%TO.N,GND*%
X130509348Y-70890652D02*
X130625000Y-70775000D01*
X130045533Y-70890652D02*
X130509348Y-70890652D01*
X195625000Y-83200000D02*
X195625000Y-83800000D01*
X162992643Y-81342643D02*
X163000000Y-81350000D01*
X162382000Y-81342643D02*
X162992643Y-81342643D01*
X154092643Y-81392643D02*
X154100000Y-81400000D01*
X153507000Y-81392643D02*
X154092643Y-81392643D01*
X120500000Y-73900000D02*
X120475000Y-73875000D01*
X120500000Y-74987500D02*
X120500000Y-73900000D01*
X120500000Y-81275000D02*
X120475000Y-81300000D01*
X120500000Y-80475000D02*
X120500000Y-81275000D01*
%TO.N,VDD*%
X195725000Y-81050000D02*
X195107107Y-81050000D01*
%TO.N,Net-(U4-DO)*%
X195150000Y-80300000D02*
X195625000Y-80300000D01*
X193225000Y-82225000D02*
X195150000Y-80300000D01*
X161632000Y-81842643D02*
X162014357Y-82225000D01*
X161632000Y-81242643D02*
X161632000Y-81842643D01*
X162014357Y-82225000D02*
X193225000Y-82225000D01*
%TO.N,Net-(U3-DO)*%
X153089357Y-82225000D02*
X158599643Y-82225000D01*
X152757000Y-81892643D02*
X153089357Y-82225000D01*
X152757000Y-81292643D02*
X152757000Y-81892643D01*
X158599643Y-82225000D02*
X159482000Y-81342643D01*
%TO.N,Net-(U1-PA4)*%
X118532500Y-74987500D02*
X119550000Y-74987500D01*
X111050000Y-82470000D02*
X118532500Y-74987500D01*
X111050000Y-83275000D02*
X111050000Y-82470000D01*
D27*
%TO.N,VDD*%
X120500000Y-77262500D02*
X120500000Y-78925000D01*
X195107107Y-81050000D02*
X193382107Y-82775000D01*
D28*
X160232000Y-82768000D02*
X160225000Y-82775000D01*
X151357000Y-82743000D02*
X151325000Y-82775000D01*
D27*
X193382107Y-82775000D02*
X160225000Y-82775000D01*
D28*
X160232000Y-81242643D02*
X160232000Y-82768000D01*
D27*
X160225000Y-82775000D02*
X151325000Y-82775000D01*
D28*
X151357000Y-81292643D02*
X151357000Y-82743000D01*
%TD*%
%TA.AperFunction,Conductor*%
%TO.N,GND*%
G36*
X186461205Y-54230549D02*
G01*
X186461731Y-54230608D01*
X186473770Y-54232559D01*
X208408176Y-58907993D01*
X207832627Y-56966443D01*
X207832562Y-56966174D01*
X207832557Y-56966176D01*
X207829014Y-56954156D01*
X207829017Y-56954154D01*
X207828929Y-56953903D01*
X207398383Y-55486042D01*
X207398090Y-55484821D01*
X207398074Y-55484826D01*
X207394925Y-55473818D01*
X207394941Y-55473813D01*
X207394546Y-55472629D01*
X207210240Y-54811746D01*
X207207546Y-54799849D01*
X207207475Y-54799444D01*
X207206516Y-54763089D01*
X207206829Y-54760508D01*
X207206829Y-54760500D01*
X207206834Y-54760465D01*
X207206835Y-54760434D01*
X207206839Y-54760401D01*
X207206844Y-54760382D01*
X207207059Y-54758616D01*
X207207356Y-54758652D01*
X207220670Y-54713704D01*
X207220784Y-54713488D01*
X207251114Y-54676066D01*
X207251167Y-54676021D01*
X207251177Y-54676014D01*
X207251185Y-54676006D01*
X207251305Y-54675907D01*
X207293918Y-54652769D01*
X207294147Y-54652698D01*
X207340340Y-54647835D01*
X207340358Y-54647544D01*
X207342102Y-54647650D01*
X207342123Y-54647648D01*
X207342206Y-54647654D01*
X207342232Y-54647658D01*
X207344867Y-54647818D01*
X207380508Y-54655347D01*
X207380908Y-54655495D01*
X207392049Y-54660266D01*
X211762779Y-56790998D01*
X211773381Y-56796825D01*
X211773947Y-56797173D01*
X211792464Y-56811098D01*
X211796102Y-56814409D01*
X211812372Y-56832431D01*
X211813973Y-56834598D01*
X211826442Y-56855492D01*
X211828539Y-56859949D01*
X211836362Y-56881593D01*
X211836526Y-56882225D01*
X211839012Y-56894211D01*
X212976366Y-64166696D01*
X212977644Y-64178627D01*
X212977668Y-64179038D01*
X212975502Y-64203499D01*
X212976635Y-64203658D01*
X212974942Y-64215743D01*
X212973790Y-64215581D01*
X212969222Y-64239551D01*
X212969085Y-64239944D01*
X212964525Y-64251215D01*
X210647353Y-69257161D01*
X210641766Y-69267837D01*
X210641560Y-69268188D01*
X210618654Y-69296605D01*
X210613971Y-69300921D01*
X210613518Y-69300430D01*
X210575274Y-69324697D01*
X210575447Y-69325132D01*
X210575336Y-69325176D01*
X210574215Y-69325369D01*
X210573263Y-69325974D01*
X210573164Y-69326011D01*
X210573002Y-69325579D01*
X210528416Y-69333286D01*
X210528411Y-69333893D01*
X210528300Y-69333892D01*
X210526828Y-69333560D01*
X210525294Y-69333826D01*
X210525180Y-69333822D01*
X210525201Y-69333195D01*
X210481047Y-69323261D01*
X210480756Y-69323946D01*
X210480662Y-69323906D01*
X210479136Y-69322831D01*
X210477322Y-69322423D01*
X210477214Y-69322373D01*
X210477526Y-69321696D01*
X210441503Y-69296312D01*
X210440932Y-69296877D01*
X210440850Y-69296794D01*
X210439775Y-69295095D01*
X210438099Y-69293914D01*
X210438027Y-69293836D01*
X210438627Y-69293281D01*
X210414954Y-69255858D01*
X210414133Y-69256192D01*
X210411732Y-69250278D01*
X210403139Y-69214918D01*
X210403100Y-69214494D01*
X210402590Y-69202345D01*
X210403189Y-69118187D01*
X210407496Y-68513268D01*
X210384745Y-67738844D01*
X210358658Y-67272397D01*
X210348177Y-67135942D01*
X210331784Y-66922500D01*
X210319510Y-66762697D01*
X210264927Y-66218018D01*
X210192517Y-65646174D01*
X210099911Y-65055101D01*
X209984731Y-64452544D01*
X209844654Y-63846459D01*
X209677126Y-63243839D01*
X209582804Y-62947780D01*
X209480592Y-62654996D01*
X209370479Y-62367289D01*
X209277156Y-62145065D01*
X209277155Y-62145064D01*
X193758909Y-58907991D01*
X186987696Y-57495530D01*
X186987695Y-57495530D01*
X186987694Y-57495530D01*
X178626480Y-66106172D01*
X178626479Y-66106174D01*
X178621373Y-68450000D01*
X178621373Y-68450001D01*
X182000000Y-72175000D01*
X184739432Y-71079226D01*
X184761158Y-71072768D01*
X184862591Y-71052481D01*
X184887650Y-71050076D01*
X189025000Y-71075000D01*
X189029396Y-70023406D01*
X189029992Y-70011788D01*
X189030245Y-70009217D01*
X189043596Y-69966888D01*
X189042567Y-69966388D01*
X189044187Y-69963052D01*
X189044193Y-69963043D01*
X189044197Y-69963033D01*
X189044254Y-69962916D01*
X189045273Y-69961570D01*
X189045597Y-69960544D01*
X189046048Y-69959743D01*
X189046475Y-69959983D01*
X189073429Y-69924407D01*
X189073602Y-69924253D01*
X189073610Y-69924247D01*
X189073617Y-69924239D01*
X189073662Y-69924200D01*
X189112361Y-69901546D01*
X189112175Y-69901095D01*
X189113024Y-69900743D01*
X189114069Y-69900546D01*
X189115507Y-69899705D01*
X189115620Y-69899665D01*
X189115634Y-69899662D01*
X189115647Y-69899656D01*
X189119155Y-69898444D01*
X189119526Y-69899519D01*
X189163147Y-69891316D01*
X189165458Y-69891365D01*
X189177590Y-69892219D01*
X196285724Y-70745194D01*
X196297746Y-70747242D01*
X196298130Y-70747327D01*
X196327713Y-70758629D01*
X196327919Y-70758206D01*
X196331361Y-70759881D01*
X196331738Y-70760167D01*
X196332086Y-70760300D01*
X196334415Y-70761609D01*
X196334183Y-70762021D01*
X196369825Y-70789049D01*
X196370031Y-70789281D01*
X196392729Y-70828073D01*
X196393167Y-70827893D01*
X196394184Y-70830355D01*
X196394273Y-70830711D01*
X196394507Y-70831111D01*
X196395759Y-70834734D01*
X196395316Y-70834886D01*
X196402980Y-70865539D01*
X196403020Y-70865945D01*
X196403617Y-70878204D01*
X196396322Y-79836161D01*
X196376583Y-79903184D01*
X196323742Y-79948896D01*
X196254575Y-79958783D01*
X196191043Y-79929707D01*
X196170438Y-79906333D01*
X196169553Y-79905448D01*
X196103230Y-79861132D01*
X196103229Y-79861131D01*
X196044752Y-79849500D01*
X196044748Y-79849500D01*
X195205252Y-79849500D01*
X195205247Y-79849500D01*
X195146770Y-79861131D01*
X195146769Y-79861132D01*
X195080447Y-79905447D01*
X195036132Y-79971769D01*
X195031460Y-79983050D01*
X195029912Y-79982409D01*
X195004145Y-80031662D01*
X194976920Y-80052940D01*
X194965486Y-80059541D01*
X193136848Y-81888181D01*
X193075525Y-81921666D01*
X193049167Y-81924500D01*
X163255637Y-81924500D01*
X163188598Y-81904815D01*
X163142843Y-81852011D01*
X163133355Y-81793878D01*
X163131822Y-81793796D01*
X163132000Y-81790470D01*
X163132000Y-81592643D01*
X162256000Y-81592643D01*
X162188961Y-81572958D01*
X162143206Y-81520154D01*
X162132000Y-81468643D01*
X162132000Y-81216643D01*
X162151685Y-81149604D01*
X162204489Y-81103849D01*
X162256000Y-81092643D01*
X163132000Y-81092643D01*
X163132000Y-81059134D01*
X163151685Y-80992095D01*
X163204489Y-80946340D01*
X163255484Y-80935135D01*
X165700000Y-80925000D01*
X165700000Y-80924999D01*
X165701858Y-80924992D01*
X165704759Y-80922080D01*
X165704759Y-72687787D01*
X165704519Y-72687546D01*
X150524957Y-72606563D01*
X149701467Y-74417385D01*
X149700620Y-74419208D01*
X149252461Y-75363742D01*
X149251614Y-75365491D01*
X148763751Y-76353420D01*
X148762750Y-76355403D01*
X148223962Y-77398946D01*
X148222857Y-77401037D01*
X147621795Y-78512674D01*
X147620636Y-78514769D01*
X146945950Y-79706957D01*
X146944779Y-79708981D01*
X146163203Y-81031240D01*
X146112145Y-81078935D01*
X146056457Y-81092143D01*
X131068476Y-81092143D01*
X131001437Y-81072458D01*
X130980795Y-81055824D01*
X129632026Y-79707055D01*
X129598541Y-79645732D01*
X129595707Y-79619374D01*
X129595707Y-74175000D01*
X145220161Y-74175000D01*
X145239468Y-74371032D01*
X145296651Y-74559537D01*
X145362923Y-74683522D01*
X145511704Y-74534740D01*
X145599229Y-74674036D01*
X145725964Y-74800771D01*
X145865257Y-74888294D01*
X145716476Y-75037075D01*
X145840462Y-75103348D01*
X146028969Y-75160531D01*
X146028965Y-75160531D01*
X146225000Y-75179838D01*
X146421032Y-75160531D01*
X146609537Y-75103348D01*
X146733523Y-75037076D01*
X146733523Y-75037075D01*
X146584742Y-74888294D01*
X146724036Y-74800771D01*
X146850771Y-74674036D01*
X146938294Y-74534741D01*
X147087076Y-74683523D01*
X147153348Y-74559537D01*
X147210531Y-74371032D01*
X147229838Y-74175000D01*
X147210531Y-73978967D01*
X147153348Y-73790462D01*
X147087075Y-73666476D01*
X146938294Y-73815256D01*
X146850771Y-73675964D01*
X146724036Y-73549229D01*
X146584740Y-73461704D01*
X146733522Y-73312923D01*
X146609537Y-73246651D01*
X146421030Y-73189468D01*
X146421034Y-73189468D01*
X146225000Y-73170161D01*
X146028967Y-73189468D01*
X145840466Y-73246649D01*
X145716476Y-73312923D01*
X145865258Y-73461705D01*
X145725964Y-73549229D01*
X145599229Y-73675964D01*
X145511705Y-73815258D01*
X145362923Y-73666476D01*
X145296649Y-73790466D01*
X145239468Y-73978967D01*
X145220161Y-74175000D01*
X129595707Y-74175000D01*
X129595707Y-71938662D01*
X129615392Y-71871623D01*
X129668196Y-71825868D01*
X129737354Y-71815924D01*
X129765795Y-71823545D01*
X129788484Y-71832628D01*
X129788490Y-71832630D01*
X129931608Y-71846297D01*
X129931615Y-71846296D01*
X129990777Y-71837071D01*
X130036987Y-71824689D01*
X129867826Y-71193368D01*
X129834081Y-71067428D01*
X130351719Y-71067428D01*
X130519951Y-71695280D01*
X130566146Y-71682903D01*
X130566150Y-71682902D01*
X130622013Y-71661305D01*
X130622015Y-71661304D01*
X130739126Y-71577909D01*
X130739129Y-71577906D01*
X130828007Y-71464887D01*
X130881443Y-71331414D01*
X130881445Y-71331405D01*
X130895112Y-71188287D01*
X130895111Y-71188280D01*
X130885886Y-71129118D01*
X130834681Y-70938019D01*
X130351719Y-71067428D01*
X129834081Y-71067428D01*
X129771440Y-70833649D01*
X129773103Y-70763800D01*
X129812266Y-70705937D01*
X129859121Y-70681781D01*
X130705271Y-70455055D01*
X130654073Y-70263978D01*
X130654066Y-70263956D01*
X130632476Y-70208110D01*
X130549073Y-70090986D01*
X130549072Y-70090985D01*
X130443341Y-70007839D01*
X130402812Y-69950926D01*
X130399487Y-69881135D01*
X130434421Y-69820626D01*
X130450549Y-69807638D01*
X130458018Y-69802591D01*
X130632649Y-69672022D01*
X130792112Y-69540279D01*
X130937095Y-69408010D01*
X131068289Y-69275865D01*
X131186381Y-69144493D01*
X131292062Y-69014543D01*
X131386020Y-68886665D01*
X131541526Y-68639719D01*
X131658410Y-68408849D01*
X131660441Y-68403766D01*
X131662597Y-68398702D01*
X131662922Y-68397981D01*
X131662929Y-68397969D01*
X131746706Y-68188369D01*
X131802887Y-68005231D01*
X131836988Y-67853751D01*
X131854519Y-67739120D01*
X131861929Y-67641183D01*
X131861928Y-67641183D01*
X131681970Y-67663242D01*
X131388450Y-67699223D01*
X131388427Y-67699225D01*
X131388419Y-67699227D01*
X131087233Y-67738844D01*
X130240432Y-67850229D01*
X129541168Y-67949760D01*
X129179904Y-68005249D01*
X128826509Y-68059529D01*
X128147505Y-68175209D01*
X127555306Y-68292454D01*
X126988228Y-68428934D01*
X126345677Y-68601852D01*
X125020461Y-68989635D01*
X123511551Y-69462053D01*
X123508593Y-69472443D01*
X123508594Y-69472444D01*
X123584352Y-69560110D01*
X123678380Y-69658982D01*
X123752130Y-69730016D01*
X123809233Y-69785017D01*
X123809248Y-69785031D01*
X123976504Y-69931108D01*
X124179692Y-70090068D01*
X124294626Y-70172150D01*
X124418373Y-70254776D01*
X124433193Y-70263978D01*
X124542816Y-70332046D01*
X124550898Y-70337064D01*
X124692107Y-70418099D01*
X124841971Y-70497004D01*
X124841978Y-70497007D01*
X124841985Y-70497011D01*
X125000451Y-70572894D01*
X125167454Y-70644859D01*
X125342940Y-70712014D01*
X125526853Y-70773465D01*
X125719137Y-70828320D01*
X125919735Y-70875687D01*
X126128592Y-70914673D01*
X126345652Y-70944386D01*
X126570859Y-70963932D01*
X126672213Y-70967619D01*
X126738492Y-70989728D01*
X126782297Y-71044161D01*
X126789719Y-71113635D01*
X126760934Y-71173294D01*
X126722301Y-71217347D01*
X126696661Y-71292876D01*
X126696661Y-71292877D01*
X126696661Y-71292878D01*
X126700561Y-71352380D01*
X126730707Y-71464887D01*
X126768181Y-71604742D01*
X126766518Y-71674592D01*
X126736087Y-71724516D01*
X123822424Y-74638181D01*
X123761101Y-74671666D01*
X123734743Y-74674500D01*
X122074500Y-74674500D01*
X122007461Y-74654815D01*
X121961706Y-74602011D01*
X121950500Y-74550500D01*
X121950500Y-74441739D01*
X121940573Y-74373608D01*
X121939314Y-74371032D01*
X121889198Y-74268517D01*
X121889196Y-74268515D01*
X121889196Y-74268514D01*
X121806485Y-74185803D01*
X121701391Y-74134426D01*
X121633261Y-74124500D01*
X121633260Y-74124500D01*
X121268033Y-74124500D01*
X121200994Y-74104815D01*
X121170051Y-74076497D01*
X121167679Y-74073439D01*
X121051561Y-73957321D01*
X121051552Y-73957314D01*
X120910196Y-73873717D01*
X120910193Y-73873716D01*
X120752494Y-73827900D01*
X120752497Y-73827900D01*
X120750000Y-73827703D01*
X120750000Y-75113500D01*
X120730315Y-75180539D01*
X120677511Y-75226294D01*
X120626000Y-75237500D01*
X120374000Y-75237500D01*
X120306961Y-75217815D01*
X120261206Y-75165011D01*
X120250000Y-75113500D01*
X120250000Y-73827703D01*
X120247503Y-73827900D01*
X120089806Y-73873716D01*
X120089803Y-73873717D01*
X119948447Y-73957314D01*
X119948442Y-73957318D01*
X119832316Y-74073445D01*
X119829944Y-74076504D01*
X119827475Y-74078286D01*
X119826802Y-74078960D01*
X119826693Y-74078851D01*
X119773300Y-74117409D01*
X119731967Y-74124500D01*
X119366739Y-74124500D01*
X119298608Y-74134426D01*
X119193514Y-74185803D01*
X119110803Y-74268514D01*
X119059426Y-74373608D01*
X119049500Y-74441739D01*
X119049500Y-74563000D01*
X119029815Y-74630039D01*
X118977011Y-74675794D01*
X118925500Y-74687000D01*
X118492938Y-74687000D01*
X118462367Y-74695191D01*
X118416508Y-74707479D01*
X118416507Y-74707480D01*
X118369641Y-74734539D01*
X118369640Y-74734539D01*
X118347995Y-74747035D01*
X118347987Y-74747041D01*
X110809541Y-82285487D01*
X110809535Y-82285495D01*
X110769982Y-82354004D01*
X110769979Y-82354011D01*
X110762319Y-82382595D01*
X110725956Y-82442254D01*
X110663110Y-82472783D01*
X110642546Y-82474500D01*
X109930247Y-82474500D01*
X109871770Y-82486131D01*
X109871769Y-82486132D01*
X109805447Y-82530447D01*
X109761132Y-82596769D01*
X109761131Y-82596770D01*
X109749500Y-82655247D01*
X109749500Y-83894752D01*
X109761131Y-83953229D01*
X109761132Y-83953230D01*
X109805447Y-84019552D01*
X109871769Y-84063867D01*
X109871770Y-84063868D01*
X109930247Y-84075499D01*
X109930250Y-84075500D01*
X109930252Y-84075500D01*
X112169750Y-84075500D01*
X112169751Y-84075499D01*
X112184568Y-84072552D01*
X112228229Y-84063868D01*
X112228229Y-84063867D01*
X112228231Y-84063867D01*
X112294552Y-84019552D01*
X112338867Y-83953231D01*
X112338867Y-83953229D01*
X112338868Y-83953229D01*
X112350499Y-83894752D01*
X112350500Y-83894750D01*
X112350500Y-82655249D01*
X112350499Y-82655247D01*
X112338868Y-82596770D01*
X112338867Y-82596769D01*
X112294552Y-82530447D01*
X112228230Y-82486132D01*
X112228229Y-82486131D01*
X112169752Y-82474500D01*
X112169748Y-82474500D01*
X111769833Y-82474500D01*
X111764193Y-82472844D01*
X112995000Y-82472844D01*
X113001401Y-82532372D01*
X113001403Y-82532379D01*
X113051645Y-82667086D01*
X113051649Y-82667093D01*
X113137809Y-82782187D01*
X113137812Y-82782190D01*
X113252906Y-82868350D01*
X113252913Y-82868354D01*
X113387620Y-82918596D01*
X113387627Y-82918598D01*
X113447155Y-82924999D01*
X113447172Y-82925000D01*
X114000000Y-82925000D01*
X114500000Y-82925000D01*
X115052828Y-82925000D01*
X115052844Y-82924999D01*
X115112372Y-82918598D01*
X115112379Y-82918596D01*
X115247086Y-82868354D01*
X115247093Y-82868350D01*
X115362187Y-82782190D01*
X115362190Y-82782187D01*
X115448350Y-82667093D01*
X115448354Y-82667086D01*
X115498596Y-82532379D01*
X115498598Y-82532372D01*
X115504999Y-82472844D01*
X115505000Y-82472827D01*
X115505000Y-81775000D01*
X114500000Y-81775000D01*
X114500000Y-82925000D01*
X114000000Y-82925000D01*
X114000000Y-81775000D01*
X112995000Y-81775000D01*
X112995000Y-82472844D01*
X111764193Y-82472844D01*
X111702794Y-82454815D01*
X111657039Y-82402011D01*
X111647095Y-82332853D01*
X111676120Y-82269297D01*
X111682152Y-82262819D01*
X112783319Y-81161652D01*
X112844642Y-81128167D01*
X112914334Y-81133151D01*
X112970267Y-81175023D01*
X112994684Y-81240487D01*
X112995000Y-81249333D01*
X112995000Y-81275000D01*
X114000000Y-81275000D01*
X114500000Y-81275000D01*
X115505000Y-81275000D01*
X115505000Y-80748322D01*
X119525001Y-80748322D01*
X119535144Y-80847607D01*
X119588452Y-81008481D01*
X119588457Y-81008492D01*
X119677424Y-81152728D01*
X119677427Y-81152732D01*
X119797267Y-81272572D01*
X119797271Y-81272575D01*
X119941507Y-81361542D01*
X119941518Y-81361547D01*
X120102393Y-81414855D01*
X120201683Y-81424999D01*
X120249999Y-81424998D01*
X120250000Y-81424998D01*
X120250000Y-80725000D01*
X119525001Y-80725000D01*
X119525001Y-80748322D01*
X115505000Y-80748322D01*
X115505000Y-80577172D01*
X115504999Y-80577155D01*
X115498598Y-80517627D01*
X115498596Y-80517620D01*
X115448354Y-80382913D01*
X115448350Y-80382906D01*
X115362190Y-80267812D01*
X115362187Y-80267809D01*
X115247093Y-80181649D01*
X115247086Y-80181645D01*
X115112379Y-80131403D01*
X115112372Y-80131401D01*
X115052844Y-80125000D01*
X114500000Y-80125000D01*
X114500000Y-81275000D01*
X114000000Y-81275000D01*
X114000000Y-80125000D01*
X113997666Y-80122666D01*
X113964181Y-80061343D01*
X113969165Y-79991651D01*
X113997664Y-79947306D01*
X118620652Y-75324319D01*
X118681975Y-75290834D01*
X118708333Y-75288000D01*
X118925500Y-75288000D01*
X118992539Y-75307685D01*
X119038294Y-75360489D01*
X119049500Y-75412000D01*
X119049500Y-75533260D01*
X119059426Y-75601391D01*
X119110803Y-75706485D01*
X119193514Y-75789196D01*
X119193515Y-75789196D01*
X119193517Y-75789198D01*
X119298607Y-75840573D01*
X119328840Y-75844978D01*
X119366739Y-75850500D01*
X119575167Y-75850500D01*
X119642206Y-75870185D01*
X119687961Y-75922989D01*
X119697905Y-75992147D01*
X119668880Y-76055703D01*
X119662848Y-76062181D01*
X119481896Y-76243134D01*
X119365489Y-76359541D01*
X119352322Y-76372707D01*
X119344921Y-76380108D01*
X119306359Y-76403360D01*
X119307258Y-76405198D01*
X119193514Y-76460803D01*
X119110803Y-76543514D01*
X119059426Y-76648608D01*
X119049500Y-76716739D01*
X119049500Y-77808260D01*
X119059426Y-77876391D01*
X119110803Y-77981485D01*
X119193514Y-78064196D01*
X119193515Y-78064196D01*
X119193517Y-78064198D01*
X119298607Y-78115573D01*
X119330048Y-78120154D01*
X119366739Y-78125500D01*
X119366740Y-78125500D01*
X119733261Y-78125500D01*
X119755971Y-78122191D01*
X119801393Y-78115573D01*
X119906483Y-78064198D01*
X119906483Y-78064197D01*
X119915714Y-78059685D01*
X119916724Y-78061752D01*
X119969440Y-78043431D01*
X120037361Y-78059816D01*
X120085642Y-78110321D01*
X120099500Y-78167283D01*
X120099500Y-78223146D01*
X120079815Y-78290185D01*
X120031796Y-78333630D01*
X119996781Y-78351471D01*
X119996774Y-78351476D01*
X119901476Y-78446774D01*
X119901473Y-78446778D01*
X119840279Y-78566878D01*
X119824500Y-78666506D01*
X119824500Y-79183493D01*
X119840279Y-79283121D01*
X119840280Y-79283124D01*
X119840281Y-79283126D01*
X119871998Y-79345374D01*
X119901473Y-79403221D01*
X119901476Y-79403225D01*
X119920424Y-79422173D01*
X119953909Y-79483496D01*
X119948925Y-79553188D01*
X119907053Y-79609121D01*
X119897841Y-79615392D01*
X119797268Y-79677426D01*
X119677427Y-79797267D01*
X119677424Y-79797271D01*
X119588457Y-79941507D01*
X119588452Y-79941518D01*
X119535144Y-80102393D01*
X119525000Y-80201677D01*
X119525000Y-80225000D01*
X120626000Y-80225000D01*
X120693039Y-80244685D01*
X120738794Y-80297489D01*
X120750000Y-80349000D01*
X120750000Y-81424999D01*
X120798308Y-81424999D01*
X120798322Y-81424998D01*
X120897607Y-81414855D01*
X121058481Y-81361547D01*
X121058492Y-81361542D01*
X121202728Y-81272575D01*
X121202732Y-81272572D01*
X121322572Y-81152732D01*
X121322575Y-81152728D01*
X121411542Y-81008492D01*
X121411547Y-81008481D01*
X121464856Y-80847606D01*
X121474611Y-80752122D01*
X121501007Y-80687430D01*
X121558188Y-80647278D01*
X121627999Y-80644415D01*
X121685650Y-80677043D01*
X123758181Y-82749574D01*
X123791666Y-82810897D01*
X123794500Y-82837255D01*
X123794500Y-86085500D01*
X123774815Y-86152539D01*
X123722011Y-86198294D01*
X123670500Y-86209500D01*
X123325247Y-86209500D01*
X123266770Y-86221131D01*
X123266769Y-86221132D01*
X123200447Y-86265447D01*
X123156132Y-86331769D01*
X123156131Y-86331770D01*
X123144500Y-86390247D01*
X123144500Y-86735500D01*
X123124815Y-86802539D01*
X123072011Y-86848294D01*
X123020500Y-86859500D01*
X122862273Y-86859500D01*
X122760410Y-86886793D01*
X122669087Y-86939520D01*
X122669084Y-86939522D01*
X122270426Y-87338181D01*
X122209103Y-87371666D01*
X122182745Y-87374500D01*
X112474500Y-87374500D01*
X112407461Y-87354815D01*
X112361706Y-87302011D01*
X112350500Y-87250500D01*
X112350500Y-87155249D01*
X112350499Y-87155247D01*
X112338868Y-87096770D01*
X112338867Y-87096769D01*
X112294552Y-87030447D01*
X112228230Y-86986132D01*
X112228229Y-86986131D01*
X112169752Y-86974500D01*
X112169748Y-86974500D01*
X109930252Y-86974500D01*
X109930247Y-86974500D01*
X109871770Y-86986131D01*
X109871769Y-86986132D01*
X109805447Y-87030447D01*
X109761132Y-87096769D01*
X109761131Y-87096770D01*
X109749500Y-87155247D01*
X109749500Y-88394752D01*
X109761131Y-88453229D01*
X109761132Y-88453230D01*
X109805447Y-88519552D01*
X109871769Y-88563867D01*
X109871770Y-88563868D01*
X109930247Y-88575499D01*
X109930250Y-88575500D01*
X109930252Y-88575500D01*
X112169750Y-88575500D01*
X112169751Y-88575499D01*
X112184568Y-88572552D01*
X112228229Y-88563868D01*
X112228229Y-88563867D01*
X112228231Y-88563867D01*
X112294552Y-88519552D01*
X112338867Y-88453231D01*
X112338867Y-88453229D01*
X112338868Y-88453229D01*
X112350499Y-88394752D01*
X112350500Y-88394750D01*
X112350500Y-88299500D01*
X112370185Y-88232461D01*
X112422989Y-88186706D01*
X112474500Y-88175500D01*
X112959192Y-88175500D01*
X113026231Y-88195185D01*
X113071986Y-88247989D01*
X113081930Y-88317147D01*
X113058460Y-88373810D01*
X113051646Y-88382911D01*
X113051645Y-88382913D01*
X113001403Y-88517620D01*
X113001401Y-88517627D01*
X112995000Y-88577155D01*
X112995000Y-89275000D01*
X115505000Y-89275000D01*
X115505000Y-88577172D01*
X115504999Y-88577155D01*
X115498598Y-88517627D01*
X115498596Y-88517620D01*
X115448354Y-88382913D01*
X115448353Y-88382911D01*
X115441540Y-88373810D01*
X115417124Y-88308345D01*
X115431976Y-88240072D01*
X115481382Y-88190667D01*
X115540808Y-88175500D01*
X121875500Y-88175500D01*
X121942539Y-88195185D01*
X121988294Y-88247989D01*
X121999500Y-88299500D01*
X121999500Y-91522273D01*
X121999500Y-91627727D01*
X122004302Y-91645649D01*
X122026793Y-91729589D01*
X122053156Y-91775250D01*
X122079520Y-91820913D01*
X122979087Y-92720480D01*
X123058174Y-92766141D01*
X123068882Y-92772324D01*
X123070412Y-92773207D01*
X123172273Y-92800500D01*
X123172275Y-92800500D01*
X130452725Y-92800500D01*
X130452727Y-92800500D01*
X130554588Y-92773207D01*
X130645913Y-92720480D01*
X132021538Y-91344855D01*
X132074265Y-91253530D01*
X132101558Y-91151669D01*
X132101558Y-91046215D01*
X132101558Y-88675000D01*
X135920161Y-88675000D01*
X135939468Y-88871032D01*
X135996651Y-89059537D01*
X136062923Y-89183522D01*
X136211704Y-89034740D01*
X136299229Y-89174036D01*
X136425964Y-89300771D01*
X136565257Y-89388294D01*
X136416476Y-89537075D01*
X136540462Y-89603348D01*
X136728969Y-89660531D01*
X136728965Y-89660531D01*
X136925000Y-89679838D01*
X137121032Y-89660531D01*
X137309537Y-89603348D01*
X137433523Y-89537076D01*
X137433523Y-89537075D01*
X137284742Y-89388294D01*
X137424036Y-89300771D01*
X137550771Y-89174036D01*
X137638294Y-89034741D01*
X137787076Y-89183523D01*
X137853348Y-89059537D01*
X137910531Y-88871032D01*
X137929838Y-88675000D01*
X137910531Y-88478967D01*
X137853348Y-88290462D01*
X137787075Y-88166476D01*
X137638294Y-88315256D01*
X137550771Y-88175964D01*
X137424036Y-88049229D01*
X137284740Y-87961704D01*
X137433522Y-87812923D01*
X137309537Y-87746651D01*
X137121030Y-87689468D01*
X137121034Y-87689468D01*
X136925000Y-87670161D01*
X136728967Y-87689468D01*
X136540466Y-87746649D01*
X136416476Y-87812923D01*
X136565258Y-87961705D01*
X136425964Y-88049229D01*
X136299229Y-88175964D01*
X136211705Y-88315258D01*
X136062923Y-88166476D01*
X135996649Y-88290466D01*
X135939468Y-88478967D01*
X135920161Y-88675000D01*
X132101558Y-88675000D01*
X132101558Y-83497844D01*
X194725000Y-83497844D01*
X194731401Y-83557372D01*
X194731403Y-83557379D01*
X194781645Y-83692086D01*
X194781649Y-83692093D01*
X194867809Y-83807187D01*
X194867812Y-83807190D01*
X194982906Y-83893350D01*
X194982913Y-83893354D01*
X195117620Y-83943596D01*
X195117627Y-83943598D01*
X195177155Y-83949999D01*
X195177172Y-83950000D01*
X195375000Y-83950000D01*
X195375000Y-83450000D01*
X194725000Y-83450000D01*
X194725000Y-83497844D01*
X132101558Y-83497844D01*
X132101558Y-82449500D01*
X132121243Y-82382461D01*
X132174047Y-82336706D01*
X132225558Y-82325500D01*
X149257745Y-82325500D01*
X149324784Y-82345185D01*
X149345426Y-82361819D01*
X150000179Y-83016571D01*
X150000189Y-83016582D01*
X150004519Y-83020912D01*
X150004520Y-83020913D01*
X150079087Y-83095480D01*
X150170413Y-83148207D01*
X150272274Y-83175501D01*
X150272277Y-83175501D01*
X150385323Y-83175501D01*
X150385339Y-83175500D01*
X193434832Y-83175500D01*
X193434834Y-83175500D01*
X193536695Y-83148207D01*
X193628020Y-83095480D01*
X194815541Y-81907958D01*
X194876862Y-81874475D01*
X194946554Y-81879459D01*
X195002487Y-81921331D01*
X195024837Y-81971448D01*
X195036132Y-82028230D01*
X195080447Y-82094552D01*
X195146769Y-82138867D01*
X195147949Y-82139356D01*
X195150126Y-82141110D01*
X195156923Y-82145652D01*
X195156516Y-82146259D01*
X195202354Y-82183195D01*
X195224421Y-82249489D01*
X195224500Y-82253918D01*
X195224500Y-82333528D01*
X195204815Y-82400567D01*
X195152011Y-82446322D01*
X195124961Y-82453746D01*
X195125168Y-82454620D01*
X195117620Y-82456403D01*
X194982913Y-82506645D01*
X194982906Y-82506649D01*
X194867812Y-82592809D01*
X194867809Y-82592812D01*
X194781649Y-82707906D01*
X194781645Y-82707913D01*
X194731403Y-82842620D01*
X194731401Y-82842627D01*
X194725000Y-82902155D01*
X194725000Y-82950000D01*
X195751000Y-82950000D01*
X195818039Y-82969685D01*
X195863794Y-83022489D01*
X195875000Y-83074000D01*
X195875000Y-83950000D01*
X196072828Y-83950000D01*
X196072844Y-83949999D01*
X196132372Y-83943598D01*
X196132376Y-83943597D01*
X196225577Y-83908835D01*
X196295268Y-83903851D01*
X196356592Y-83937335D01*
X196390077Y-83998658D01*
X196392911Y-84025118D01*
X196385827Y-92725053D01*
X196385242Y-92736985D01*
X196385203Y-92737385D01*
X196377618Y-92767681D01*
X196378137Y-92767859D01*
X196376817Y-92771705D01*
X196376456Y-92772324D01*
X196376317Y-92772882D01*
X196375382Y-92775135D01*
X196374930Y-92774947D01*
X196352490Y-92813518D01*
X196352279Y-92813757D01*
X196316798Y-92840802D01*
X196317039Y-92841226D01*
X196314927Y-92842429D01*
X196314393Y-92842636D01*
X196313824Y-92843070D01*
X196310168Y-92844859D01*
X196309927Y-92844368D01*
X196280895Y-92855630D01*
X196280697Y-92855675D01*
X196280487Y-92855723D01*
X196268642Y-92857802D01*
X189213930Y-93746306D01*
X189201761Y-93747233D01*
X189199637Y-93747290D01*
X189179840Y-93746236D01*
X189179452Y-93746184D01*
X189155458Y-93739735D01*
X189155236Y-93740385D01*
X189151405Y-93739072D01*
X189150040Y-93738279D01*
X189148567Y-93737884D01*
X189148083Y-93737684D01*
X189148262Y-93737248D01*
X189109708Y-93714874D01*
X189109467Y-93714662D01*
X189082302Y-93679097D01*
X189081869Y-93679345D01*
X189081609Y-93678889D01*
X189080989Y-93677378D01*
X189079996Y-93676078D01*
X189078218Y-93672446D01*
X189078840Y-93672141D01*
X189069511Y-93649400D01*
X189069410Y-93649021D01*
X189065821Y-93629202D01*
X189065612Y-93627072D01*
X189065020Y-93614970D01*
X189065020Y-92235250D01*
X189065019Y-92235250D01*
X187676874Y-92237815D01*
X187676874Y-92237816D01*
X187897106Y-92684815D01*
X187901935Y-92695961D01*
X187904202Y-92701989D01*
X187906331Y-92707615D01*
X187910072Y-92719185D01*
X187982859Y-92988818D01*
X187985457Y-93000750D01*
X187985524Y-93001152D01*
X187986047Y-93029990D01*
X187986805Y-93030032D01*
X187986542Y-93034823D01*
X187986161Y-93036305D01*
X187986183Y-93037470D01*
X187985963Y-93039168D01*
X187985444Y-93039100D01*
X187975631Y-93077366D01*
X187976120Y-93077558D01*
X187975493Y-93079159D01*
X187974912Y-93080171D01*
X187974534Y-93081648D01*
X187972465Y-93085962D01*
X187971781Y-93085634D01*
X187957411Y-93110709D01*
X187957154Y-93111035D01*
X187949167Y-93120203D01*
X187805715Y-93269425D01*
X187800309Y-93274522D01*
X187800322Y-93274535D01*
X187795059Y-93279596D01*
X187795046Y-93279583D01*
X187789750Y-93284775D01*
X187595785Y-93457166D01*
X187590956Y-93461053D01*
X187590974Y-93461075D01*
X187584734Y-93466265D01*
X187584715Y-93466243D01*
X187580023Y-93470277D01*
X187290089Y-93695802D01*
X187286340Y-93698434D01*
X187286360Y-93698461D01*
X187278986Y-93703915D01*
X187278966Y-93703888D01*
X187275363Y-93706694D01*
X187096621Y-93832343D01*
X187093983Y-93834010D01*
X187094001Y-93834037D01*
X187085600Y-93839737D01*
X187085583Y-93839712D01*
X187083060Y-93841546D01*
X186877139Y-93976390D01*
X186874458Y-93977964D01*
X186874474Y-93977990D01*
X186865899Y-93983406D01*
X186865883Y-93983380D01*
X186863323Y-93985117D01*
X186629087Y-94127760D01*
X186626383Y-94129229D01*
X186626399Y-94129256D01*
X186617613Y-94134412D01*
X186617597Y-94134385D01*
X186614999Y-94136027D01*
X186351359Y-94285041D01*
X186348626Y-94286414D01*
X186348641Y-94286441D01*
X186339673Y-94291320D01*
X186339658Y-94291293D01*
X186337031Y-94292837D01*
X186042871Y-94446809D01*
X186040136Y-94448073D01*
X186040150Y-94448101D01*
X186035576Y-94450402D01*
X186035574Y-94450404D01*
X186035571Y-94450405D01*
X186031013Y-94452700D01*
X186030999Y-94452672D01*
X186028348Y-94454119D01*
X185702534Y-94611643D01*
X185699799Y-94612803D01*
X185699812Y-94612831D01*
X185695154Y-94614993D01*
X185695150Y-94614995D01*
X185695145Y-94614997D01*
X185690505Y-94617152D01*
X185690492Y-94617124D01*
X185687835Y-94618466D01*
X185329250Y-94778126D01*
X185326511Y-94779188D01*
X185326523Y-94779215D01*
X185317080Y-94783245D01*
X185317068Y-94783218D01*
X185314415Y-94784457D01*
X184921967Y-94944823D01*
X184919256Y-94945778D01*
X184919267Y-94945806D01*
X184909662Y-94949562D01*
X184909651Y-94949534D01*
X184906996Y-94950677D01*
X184479542Y-95110341D01*
X184476845Y-95111200D01*
X184476856Y-95111229D01*
X184472008Y-95112956D01*
X184472005Y-95112958D01*
X184472001Y-95112959D01*
X184467142Y-95114692D01*
X184467132Y-95114665D01*
X184464511Y-95115701D01*
X184000949Y-95273237D01*
X183998294Y-95273996D01*
X183998303Y-95274023D01*
X183988437Y-95277216D01*
X183988428Y-95277188D01*
X183985816Y-95278134D01*
X183485064Y-95432110D01*
X183482436Y-95432779D01*
X183482444Y-95432806D01*
X183472451Y-95435723D01*
X183472443Y-95435695D01*
X183469873Y-95436544D01*
X182930795Y-95585544D01*
X182928217Y-95586122D01*
X182928224Y-95586149D01*
X182918099Y-95588796D01*
X182918091Y-95588768D01*
X182915548Y-95589529D01*
X182337040Y-95732128D01*
X182334502Y-95732623D01*
X182334509Y-95732651D01*
X182329408Y-95733834D01*
X182329405Y-95733835D01*
X182329402Y-95733835D01*
X182324299Y-95735020D01*
X182324292Y-95734993D01*
X182321804Y-95735664D01*
X181702753Y-95870436D01*
X181700266Y-95870851D01*
X181700272Y-95870879D01*
X181695100Y-95871932D01*
X181695098Y-95871933D01*
X181695095Y-95871933D01*
X181689921Y-95872988D01*
X181689915Y-95872961D01*
X181687469Y-95873551D01*
X181026786Y-95999071D01*
X181024365Y-95999409D01*
X181024370Y-95999436D01*
X181019146Y-96000358D01*
X181019143Y-96000359D01*
X181019139Y-96000359D01*
X181013931Y-96001280D01*
X181013926Y-96001253D01*
X181011521Y-96001768D01*
X180308065Y-96116613D01*
X180305698Y-96116881D01*
X180305702Y-96116907D01*
X180295175Y-96118490D01*
X180295171Y-96118463D01*
X180292826Y-96118904D01*
X179545483Y-96221651D01*
X179543175Y-96221853D01*
X179543179Y-96221880D01*
X179537894Y-96222540D01*
X179537888Y-96222541D01*
X179537881Y-96222542D01*
X179532598Y-96223203D01*
X179532594Y-96223177D01*
X179530307Y-96223548D01*
X178737987Y-96312767D01*
X178736575Y-96312856D01*
X178736577Y-96312875D01*
X178725357Y-96314053D01*
X178725355Y-96314036D01*
X178723958Y-96314241D01*
X178633954Y-96323019D01*
X178620559Y-97028761D01*
X178613642Y-97590528D01*
X178614025Y-97771460D01*
X178614025Y-97771469D01*
X178615226Y-97790916D01*
X178615227Y-97790918D01*
X186989159Y-106358773D01*
X209220570Y-101862935D01*
X209289623Y-101735035D01*
X209380047Y-101539914D01*
X209549751Y-101092038D01*
X209701293Y-100586307D01*
X209835629Y-100034996D01*
X209953453Y-99451770D01*
X210055634Y-98850099D01*
X210143149Y-98243224D01*
X210216921Y-97645002D01*
X210327767Y-96524063D01*
X210396350Y-95594546D01*
X210440745Y-94730365D01*
X210441955Y-94718331D01*
X210442019Y-94717902D01*
X210452172Y-94684694D01*
X210452046Y-94684641D01*
X210452557Y-94683432D01*
X210452675Y-94683049D01*
X210453100Y-94682156D01*
X210453112Y-94682123D01*
X210453141Y-94682056D01*
X210453160Y-94682027D01*
X210454260Y-94679717D01*
X210454618Y-94679887D01*
X210480557Y-94641832D01*
X210480751Y-94641642D01*
X210520655Y-94615427D01*
X210520900Y-94615327D01*
X210569137Y-94606140D01*
X210569407Y-94606143D01*
X210616210Y-94615878D01*
X210616459Y-94615983D01*
X210654525Y-94641824D01*
X210654795Y-94641536D01*
X210656657Y-94643272D01*
X210656684Y-94643290D01*
X210656762Y-94643370D01*
X210657489Y-94644047D01*
X210657744Y-94644368D01*
X210658655Y-94645294D01*
X210658557Y-94645389D01*
X210680334Y-94672762D01*
X210680532Y-94673105D01*
X210685972Y-94683666D01*
X212977190Y-99710141D01*
X212981640Y-99721309D01*
X212981812Y-99721810D01*
X212987320Y-99744788D01*
X212989039Y-99756999D01*
X212990103Y-99780315D01*
X212990077Y-99780849D01*
X212988872Y-99793079D01*
X211922635Y-106954637D01*
X211920235Y-106966651D01*
X211920092Y-106967219D01*
X211912335Y-106989115D01*
X211910133Y-106993863D01*
X211897771Y-107014838D01*
X211896459Y-107016634D01*
X211880278Y-107034751D01*
X211876422Y-107038298D01*
X211857963Y-107052332D01*
X211857471Y-107052638D01*
X211846717Y-107058608D01*
X207443117Y-109224892D01*
X207431955Y-109229718D01*
X207431574Y-109229861D01*
X207396012Y-109237510D01*
X207393428Y-109237677D01*
X207393284Y-109237691D01*
X207393257Y-109237688D01*
X207391548Y-109237799D01*
X207391529Y-109237511D01*
X207345064Y-109232766D01*
X207345060Y-109232764D01*
X207345046Y-109232760D01*
X207345032Y-109232756D01*
X207344830Y-109232694D01*
X207302311Y-109209766D01*
X207302121Y-109209609D01*
X207271432Y-109171876D01*
X207271317Y-109171658D01*
X207258062Y-109127278D01*
X207257776Y-109127315D01*
X207257558Y-109125593D01*
X207257551Y-109125567D01*
X207257541Y-109125472D01*
X207257539Y-109125435D01*
X207257216Y-109122873D01*
X207258001Y-109086539D01*
X207258076Y-109086102D01*
X207260710Y-109074214D01*
X208378683Y-104991955D01*
X186552145Y-109699298D01*
X186540128Y-109701278D01*
X186539596Y-109701339D01*
X186516130Y-109701794D01*
X186510703Y-109701384D01*
X186486749Y-109697182D01*
X186484905Y-109696668D01*
X186462254Y-109687884D01*
X186457398Y-109685429D01*
X186437472Y-109672846D01*
X186437048Y-109672518D01*
X186427866Y-109664671D01*
X175941858Y-99780315D01*
X175578422Y-99437732D01*
X175569968Y-99428937D01*
X175569012Y-99427840D01*
X175546807Y-99390948D01*
X175546081Y-99389061D01*
X175545260Y-99387235D01*
X175534690Y-99345369D01*
X175534586Y-99343933D01*
X175534302Y-99331817D01*
X175606482Y-96499511D01*
X175606481Y-96499511D01*
X175036167Y-96509838D01*
X175034475Y-96509784D01*
X175034476Y-96509806D01*
X175028901Y-96509857D01*
X175028900Y-96509857D01*
X175023337Y-96509908D01*
X175023336Y-96509886D01*
X175021638Y-96509971D01*
X173987820Y-96510152D01*
X173985890Y-96510058D01*
X173985890Y-96510082D01*
X173980433Y-96510027D01*
X173980432Y-96510027D01*
X173974971Y-96509972D01*
X173974971Y-96509949D01*
X173973051Y-96510005D01*
X172887572Y-96488098D01*
X172884710Y-96487900D01*
X172884709Y-96487930D01*
X172874407Y-96487565D01*
X172874408Y-96487536D01*
X172871550Y-96487532D01*
X170832596Y-96384587D01*
X170828539Y-96384182D01*
X170828537Y-96384216D01*
X170823783Y-96383873D01*
X170823782Y-96383873D01*
X170823780Y-96383873D01*
X170819038Y-96383531D01*
X170819040Y-96383497D01*
X170814955Y-96383315D01*
X168953166Y-96208550D01*
X168948853Y-96207930D01*
X168948850Y-96207964D01*
X168939574Y-96206877D01*
X168939577Y-96206844D01*
X168935256Y-96206452D01*
X167244413Y-95968854D01*
X167239863Y-95967984D01*
X167239858Y-95968018D01*
X167235335Y-95967268D01*
X167235332Y-95967268D01*
X167235328Y-95967267D01*
X167230803Y-95966518D01*
X167230808Y-95966485D01*
X167226209Y-95965839D01*
X165700093Y-95674394D01*
X165695276Y-95673226D01*
X165695269Y-95673259D01*
X165690907Y-95672306D01*
X165690905Y-95672306D01*
X165690902Y-95672305D01*
X165686539Y-95671353D01*
X165686545Y-95671321D01*
X165681691Y-95670377D01*
X165339168Y-95586149D01*
X164314045Y-95334066D01*
X164308969Y-95332549D01*
X164308961Y-95332581D01*
X164300559Y-95330263D01*
X164300567Y-95330232D01*
X164295431Y-95328931D01*
X163080062Y-94956755D01*
X163074720Y-94954827D01*
X163074711Y-94954857D01*
X163066691Y-94952135D01*
X163066700Y-94952105D01*
X163061295Y-94950386D01*
X161991943Y-94551325D01*
X161986340Y-94548914D01*
X161986329Y-94548941D01*
X161978739Y-94545826D01*
X161978749Y-94545799D01*
X161973076Y-94543582D01*
X161043484Y-94126627D01*
X161037628Y-94123647D01*
X161037617Y-94123670D01*
X161030540Y-94120196D01*
X161030551Y-94120172D01*
X161024601Y-94117356D01*
X160317441Y-93739072D01*
X160228484Y-93691485D01*
X160222355Y-93687809D01*
X160222345Y-93687827D01*
X160215871Y-93684042D01*
X160215881Y-93684024D01*
X160209665Y-93680483D01*
X159540759Y-93254694D01*
X159534340Y-93250150D01*
X159534333Y-93250161D01*
X159528571Y-93246147D01*
X159528578Y-93246136D01*
X159522083Y-93241684D01*
X159350273Y-93111035D01*
X158974063Y-92824954D01*
X158967311Y-92819275D01*
X158962412Y-92815175D01*
X158955628Y-92809525D01*
X158858808Y-92720477D01*
X158522152Y-92410844D01*
X158513599Y-92402162D01*
X158513102Y-92401605D01*
X158512541Y-92401079D01*
X158504078Y-92392319D01*
X158178769Y-92020712D01*
X158171200Y-92011156D01*
X158169915Y-92009359D01*
X158169911Y-92009354D01*
X158169906Y-92009347D01*
X158168498Y-92007628D01*
X158161254Y-91997839D01*
X158138151Y-91963181D01*
X157937628Y-91662366D01*
X157931307Y-91651779D01*
X157929571Y-91648512D01*
X157929630Y-91648480D01*
X157928846Y-91647217D01*
X157928032Y-91645649D01*
X157927187Y-91644064D01*
X157926587Y-91642695D01*
X157926526Y-91642728D01*
X157924823Y-91639457D01*
X157919688Y-91628272D01*
X157919469Y-91627726D01*
X157794492Y-91315485D01*
X157794491Y-91315485D01*
X141966344Y-91385360D01*
X141966344Y-93318386D01*
X141965741Y-93330591D01*
X141965701Y-93331007D01*
X141956870Y-93366231D01*
X141954455Y-93372063D01*
X141954381Y-93372032D01*
X141928579Y-93411378D01*
X141928539Y-93411419D01*
X141927839Y-93412131D01*
X141927723Y-93412248D01*
X141888309Y-93439005D01*
X141888241Y-93439034D01*
X141888041Y-93439119D01*
X141882129Y-93441628D01*
X141846981Y-93450767D01*
X141846573Y-93450811D01*
X141834360Y-93451521D01*
X136566477Y-93497472D01*
X136446388Y-93628550D01*
X136437860Y-93636998D01*
X136437553Y-93637274D01*
X136407079Y-93657432D01*
X136405172Y-93658321D01*
X136405127Y-93658344D01*
X136403265Y-93659373D01*
X136369482Y-93672035D01*
X136369079Y-93672122D01*
X136356793Y-93674135D01*
X134897794Y-93838482D01*
X134894746Y-93838674D01*
X134894749Y-93838705D01*
X134884572Y-93839685D01*
X134884569Y-93839655D01*
X134881544Y-93840047D01*
X133171240Y-93976970D01*
X133169183Y-93977033D01*
X133169185Y-93977057D01*
X133158326Y-93977807D01*
X133158324Y-93977783D01*
X133156279Y-93978003D01*
X132094512Y-94039802D01*
X132092977Y-94039816D01*
X132092978Y-94039836D01*
X132081712Y-94040400D01*
X132081711Y-94040381D01*
X132080190Y-94040520D01*
X130889497Y-94090534D01*
X130887870Y-94090522D01*
X130887871Y-94090543D01*
X130876713Y-94090915D01*
X130876712Y-94090895D01*
X130875093Y-94091015D01*
X129565158Y-94123485D01*
X129563416Y-94123443D01*
X129563417Y-94123465D01*
X129552353Y-94123637D01*
X129552352Y-94123616D01*
X129550623Y-94123712D01*
X128131228Y-94132881D01*
X128129375Y-94132801D01*
X128129375Y-94132824D01*
X128118310Y-94132787D01*
X128118310Y-94132765D01*
X128116455Y-94132832D01*
X126597253Y-94112945D01*
X126595282Y-94112821D01*
X126595282Y-94112846D01*
X126589814Y-94112717D01*
X126589811Y-94112717D01*
X126589807Y-94112717D01*
X126584358Y-94112589D01*
X126584358Y-94112565D01*
X126582373Y-94112595D01*
X124973019Y-94057895D01*
X124970908Y-94057720D01*
X124970907Y-94057745D01*
X124965502Y-94057500D01*
X124965497Y-94057500D01*
X124965491Y-94057500D01*
X124960086Y-94057256D01*
X124960087Y-94057231D01*
X124957970Y-94057215D01*
X123268212Y-93961953D01*
X123265949Y-93961714D01*
X123265948Y-93961740D01*
X123255214Y-93961005D01*
X123255215Y-93960980D01*
X123252964Y-93960910D01*
X121492483Y-93819334D01*
X121490071Y-93819020D01*
X121490069Y-93819047D01*
X121479477Y-93818058D01*
X121479479Y-93818031D01*
X121477053Y-93817893D01*
X119655524Y-93624249D01*
X119652947Y-93623847D01*
X119652944Y-93623875D01*
X119642542Y-93622624D01*
X119642545Y-93622596D01*
X119639938Y-93622376D01*
X117767058Y-93370917D01*
X117763205Y-93370206D01*
X117763200Y-93370239D01*
X117758442Y-93369499D01*
X117758435Y-93369498D01*
X117758427Y-93369497D01*
X117753682Y-93368760D01*
X117753687Y-93368726D01*
X117749788Y-93368233D01*
X116291688Y-93110526D01*
X116286640Y-93109376D01*
X116286634Y-93109408D01*
X116278009Y-93107639D01*
X116278015Y-93107607D01*
X116272940Y-93106681D01*
X114922157Y-92790983D01*
X114917227Y-92789572D01*
X114917219Y-92789605D01*
X114912954Y-92788485D01*
X114912947Y-92788483D01*
X114912939Y-92788481D01*
X114908682Y-92787364D01*
X114908690Y-92787331D01*
X114903693Y-92786136D01*
X113658474Y-92422844D01*
X113653677Y-92421186D01*
X113653668Y-92421217D01*
X113645213Y-92418502D01*
X113645222Y-92418471D01*
X113640373Y-92417033D01*
X112498932Y-92016531D01*
X112494329Y-92014657D01*
X112494317Y-92014689D01*
X112490145Y-92013100D01*
X112490140Y-92013098D01*
X112490134Y-92013096D01*
X112485945Y-92011501D01*
X112485956Y-92011469D01*
X112481276Y-92009810D01*
X111441847Y-91582480D01*
X111437449Y-91580414D01*
X111437436Y-91580445D01*
X111429207Y-91576812D01*
X111429220Y-91576781D01*
X111424735Y-91574925D01*
X110485545Y-91131141D01*
X110481382Y-91128917D01*
X110481367Y-91128947D01*
X110473226Y-91124848D01*
X110473240Y-91124818D01*
X110468981Y-91122803D01*
X109628290Y-90672951D01*
X109624378Y-90670603D01*
X109624362Y-90670633D01*
X109616349Y-90666093D01*
X109616365Y-90666063D01*
X109612338Y-90663913D01*
X109293300Y-90472844D01*
X112995000Y-90472844D01*
X113001401Y-90532372D01*
X113001403Y-90532379D01*
X113051645Y-90667086D01*
X113051649Y-90667093D01*
X113137809Y-90782187D01*
X113137812Y-90782190D01*
X113252906Y-90868350D01*
X113252913Y-90868354D01*
X113387620Y-90918596D01*
X113387627Y-90918598D01*
X113447155Y-90924999D01*
X113447172Y-90925000D01*
X114000000Y-90925000D01*
X114500000Y-90925000D01*
X115052828Y-90925000D01*
X115052844Y-90924999D01*
X115112372Y-90918598D01*
X115112379Y-90918596D01*
X115247086Y-90868354D01*
X115247093Y-90868350D01*
X115362187Y-90782190D01*
X115362190Y-90782187D01*
X115448350Y-90667093D01*
X115448354Y-90667086D01*
X115498596Y-90532379D01*
X115498598Y-90532372D01*
X115504999Y-90472844D01*
X115505000Y-90472827D01*
X115505000Y-89775000D01*
X114500000Y-89775000D01*
X114500000Y-90925000D01*
X114000000Y-90925000D01*
X114000000Y-89775000D01*
X112995000Y-89775000D01*
X112995000Y-90472844D01*
X109293300Y-90472844D01*
X108868371Y-90218358D01*
X108864715Y-90215916D01*
X108864697Y-90215945D01*
X108860759Y-90213460D01*
X108860756Y-90213458D01*
X108860752Y-90213455D01*
X108856809Y-90210968D01*
X108856826Y-90210939D01*
X108853055Y-90208694D01*
X108204054Y-89777805D01*
X108200664Y-89775305D01*
X108200645Y-89775333D01*
X108192910Y-89769945D01*
X108192928Y-89769917D01*
X108189403Y-89767599D01*
X107851693Y-89520990D01*
X107633623Y-89361747D01*
X107629123Y-89358108D01*
X107629105Y-89358132D01*
X107622481Y-89352977D01*
X107622499Y-89352953D01*
X107617866Y-89349482D01*
X106769644Y-88646577D01*
X106763185Y-88640667D01*
X106763185Y-88640668D01*
X106758427Y-88636338D01*
X106758427Y-88636337D01*
X106751936Y-88630462D01*
X106098649Y-87978097D01*
X106091187Y-87970646D01*
X106083027Y-87961658D01*
X106081866Y-87960246D01*
X106070219Y-87943423D01*
X106067793Y-87939214D01*
X106067791Y-87939210D01*
X106067787Y-87939205D01*
X106065362Y-87934998D01*
X106056644Y-87916498D01*
X106055998Y-87914770D01*
X106052313Y-87903218D01*
X106027155Y-87808574D01*
X105912492Y-87377205D01*
X105910165Y-87366316D01*
X105909797Y-87364605D01*
X105907374Y-87353414D01*
X105904852Y-87338181D01*
X105825038Y-86856043D01*
X105819303Y-86821397D01*
X105818320Y-86812892D01*
X105818317Y-86812893D01*
X105817928Y-86809640D01*
X105817928Y-86809627D01*
X105817925Y-86809613D01*
X105817539Y-86806373D01*
X105817543Y-86806372D01*
X105816498Y-86797885D01*
X105777040Y-86261231D01*
X105776847Y-86253250D01*
X105776836Y-86253251D01*
X105776620Y-86246308D01*
X105776631Y-86246307D01*
X105776328Y-86238313D01*
X105777191Y-86161421D01*
X105782384Y-85698504D01*
X105782829Y-85691159D01*
X105782811Y-85691159D01*
X105783180Y-85683810D01*
X105783198Y-85683810D01*
X105783495Y-85676433D01*
X105831974Y-85134882D01*
X105832903Y-85128222D01*
X105832879Y-85128219D01*
X105833847Y-85120511D01*
X105833872Y-85120514D01*
X105834622Y-85113809D01*
X105922443Y-84571987D01*
X105923720Y-84566001D01*
X105923692Y-84565996D01*
X105925260Y-84557981D01*
X105925288Y-84557986D01*
X105926360Y-84551965D01*
X106050437Y-84011374D01*
X106051946Y-84006026D01*
X106051915Y-84006018D01*
X106054073Y-83997743D01*
X106054103Y-83997750D01*
X106055396Y-83992356D01*
X106112235Y-83797939D01*
X106212636Y-83454517D01*
X106214278Y-83449783D01*
X106214246Y-83449773D01*
X106216972Y-83441292D01*
X106217004Y-83441302D01*
X106218430Y-83436490D01*
X106405751Y-82902874D01*
X106407459Y-82898682D01*
X106407428Y-82898670D01*
X106409051Y-82894377D01*
X106409056Y-82894368D01*
X106409058Y-82894358D01*
X106410682Y-82890067D01*
X106410714Y-82890079D01*
X106412204Y-82885817D01*
X106626507Y-82357949D01*
X106629012Y-82352554D01*
X106628986Y-82352543D01*
X106632335Y-82344986D01*
X106632361Y-82344997D01*
X106634686Y-82339496D01*
X106635319Y-82338181D01*
X107137034Y-81296251D01*
X107140246Y-81290345D01*
X107140224Y-81290334D01*
X107143835Y-81283473D01*
X107143856Y-81283484D01*
X107146909Y-81277488D01*
X107720527Y-80276104D01*
X107723533Y-80271410D01*
X107723506Y-80271394D01*
X107725727Y-80267768D01*
X107725733Y-80267761D01*
X107725737Y-80267753D01*
X107727961Y-80264124D01*
X107727988Y-80264140D01*
X107730799Y-80259342D01*
X108350478Y-79312095D01*
X108353205Y-79308345D01*
X108353178Y-79308326D01*
X108355767Y-79304572D01*
X108355772Y-79304567D01*
X108355775Y-79304560D01*
X108358355Y-79300822D01*
X108358383Y-79300841D01*
X108360930Y-79296948D01*
X109001435Y-78416109D01*
X109003898Y-78413051D01*
X109003872Y-78413031D01*
X109009668Y-78405401D01*
X109009694Y-78405421D01*
X109011975Y-78402232D01*
X109648007Y-77600117D01*
X109650208Y-77597607D01*
X109650184Y-77597588D01*
X109656515Y-77589888D01*
X109656539Y-77589908D01*
X109658599Y-77587237D01*
X110264860Y-76876128D01*
X110266840Y-76874024D01*
X110266819Y-76874005D01*
X110273592Y-76866302D01*
X110273614Y-76866321D01*
X110275434Y-76864102D01*
X110826657Y-76256226D01*
X110829763Y-76253124D01*
X110829739Y-76253101D01*
X110836128Y-76246377D01*
X110836152Y-76246400D01*
X110839097Y-76243134D01*
X112012849Y-75064375D01*
X112021853Y-75056182D01*
X112021975Y-75056082D01*
X112022082Y-75055974D01*
X112031091Y-75047779D01*
X112328240Y-74803086D01*
X112330527Y-74801385D01*
X112330509Y-74801362D01*
X112338572Y-74794925D01*
X112338590Y-74794948D01*
X112340759Y-74793091D01*
X112710917Y-74506660D01*
X112712967Y-74505230D01*
X112712951Y-74505209D01*
X112721372Y-74498869D01*
X112721388Y-74498891D01*
X112723332Y-74497314D01*
X113241306Y-74118085D01*
X113243517Y-74116629D01*
X113243501Y-74116606D01*
X113252001Y-74110565D01*
X113252017Y-74110588D01*
X113254139Y-74108965D01*
X113917641Y-73651363D01*
X113920029Y-73649885D01*
X113920013Y-73649861D01*
X113928569Y-73644146D01*
X113928585Y-73644171D01*
X113930868Y-73642529D01*
X114737657Y-73120958D01*
X114740235Y-73119467D01*
X114740220Y-73119442D01*
X114748878Y-73114036D01*
X114748894Y-73114061D01*
X114751366Y-73112400D01*
X115699153Y-72541288D01*
X115701926Y-72539797D01*
X115701911Y-72539771D01*
X115706266Y-72537244D01*
X115706271Y-72537242D01*
X115706275Y-72537239D01*
X115710619Y-72534719D01*
X115710635Y-72534746D01*
X115713307Y-72533078D01*
X116799843Y-71926826D01*
X116802813Y-71925356D01*
X116802799Y-71925329D01*
X116811616Y-71920611D01*
X116811630Y-71920638D01*
X116814504Y-71918981D01*
X118037515Y-71292010D01*
X118039866Y-71290947D01*
X118039854Y-71290922D01*
X118044532Y-71288603D01*
X118044537Y-71288602D01*
X118044541Y-71288599D01*
X118049216Y-71286283D01*
X118049228Y-71286308D01*
X118051500Y-71285080D01*
X118708026Y-70970936D01*
X118709669Y-70970248D01*
X118709660Y-70970229D01*
X118719610Y-70965583D01*
X118719619Y-70965603D01*
X118721217Y-70964778D01*
X119410967Y-70650751D01*
X119412670Y-70650075D01*
X119412661Y-70650055D01*
X119422657Y-70645622D01*
X119422666Y-70645642D01*
X119424310Y-70644833D01*
X120146982Y-70332729D01*
X120148753Y-70332066D01*
X120148745Y-70332046D01*
X120158816Y-70327815D01*
X120158825Y-70327836D01*
X120160527Y-70327040D01*
X120915854Y-70018651D01*
X120917677Y-70018010D01*
X120917669Y-70017989D01*
X120922749Y-70015974D01*
X120922752Y-70015974D01*
X120922754Y-70015972D01*
X120927816Y-70013966D01*
X120927825Y-70013988D01*
X120929597Y-70013204D01*
X121717346Y-69710307D01*
X121719220Y-69709690D01*
X121719212Y-69709669D01*
X121724267Y-69707785D01*
X121724273Y-69707784D01*
X121724278Y-69707781D01*
X121729331Y-69705899D01*
X121729339Y-69705921D01*
X121731167Y-69705159D01*
X122551031Y-69409564D01*
X122552968Y-69408972D01*
X122552961Y-69408950D01*
X122558064Y-69407171D01*
X122558070Y-69407170D01*
X122558075Y-69407167D01*
X122563176Y-69405390D01*
X122563184Y-69405413D01*
X122565065Y-69404675D01*
X123416740Y-69118186D01*
X123418733Y-69117622D01*
X123418726Y-69117601D01*
X123428957Y-69114283D01*
X123428964Y-69114307D01*
X123430921Y-69113588D01*
X124314133Y-68838002D01*
X124316179Y-68837473D01*
X124316172Y-68837449D01*
X124321328Y-68835903D01*
X124321335Y-68835902D01*
X124321341Y-68835899D01*
X124326494Y-68834355D01*
X124326501Y-68834379D01*
X124328505Y-68833694D01*
X125242975Y-68570806D01*
X125245082Y-68570311D01*
X125245076Y-68570288D01*
X125255409Y-68567445D01*
X125255415Y-68567469D01*
X125257486Y-68566814D01*
X126202961Y-68318413D01*
X126205122Y-68317957D01*
X126205117Y-68317934D01*
X126215478Y-68315341D01*
X126215484Y-68315366D01*
X126217598Y-68314751D01*
X127193771Y-68082644D01*
X127195986Y-68082232D01*
X127195981Y-68082208D01*
X127206405Y-68079860D01*
X127206410Y-68079885D01*
X127208597Y-68079306D01*
X128215180Y-67865292D01*
X128217447Y-67864926D01*
X128217442Y-67864901D01*
X128222662Y-67863857D01*
X128222667Y-67863857D01*
X128222671Y-67863855D01*
X128227898Y-67862811D01*
X128227903Y-67862836D01*
X128230132Y-67862304D01*
X129266899Y-67668169D01*
X129269212Y-67667853D01*
X129269208Y-67667827D01*
X129274412Y-67666919D01*
X129274415Y-67666919D01*
X129274417Y-67666918D01*
X129279631Y-67666009D01*
X129279635Y-67666034D01*
X129281933Y-67665547D01*
X130348560Y-67493099D01*
X130351687Y-67492750D01*
X130351683Y-67492720D01*
X130361670Y-67491275D01*
X130361674Y-67491305D01*
X130364756Y-67490756D01*
X133127461Y-67137801D01*
X133131544Y-67137482D01*
X133131541Y-67137450D01*
X133140970Y-67136452D01*
X133140973Y-67136485D01*
X133145034Y-67135942D01*
X135682482Y-66923006D01*
X135686732Y-66922860D01*
X135686730Y-66922827D01*
X135696056Y-66922256D01*
X135696058Y-66922289D01*
X135700320Y-66921915D01*
X138018864Y-66832738D01*
X138023330Y-66832785D01*
X138023330Y-66832752D01*
X138032574Y-66832615D01*
X138032574Y-66832648D01*
X138037008Y-66832467D01*
X140143070Y-66850786D01*
X140147689Y-66851052D01*
X140147691Y-66851019D01*
X140152244Y-66851170D01*
X140152253Y-66851171D01*
X140152261Y-66851170D01*
X140156822Y-66851322D01*
X140156820Y-66851355D01*
X140161431Y-66851394D01*
X142061408Y-66960952D01*
X142066151Y-66961460D01*
X142066154Y-66961427D01*
X142075165Y-66962175D01*
X142075162Y-66962208D01*
X142079930Y-66962489D01*
X143780249Y-67147031D01*
X143785086Y-67147799D01*
X143785091Y-67147766D01*
X143789521Y-67148363D01*
X143789524Y-67148364D01*
X143789526Y-67148364D01*
X143793945Y-67148960D01*
X143793940Y-67148993D01*
X143798825Y-67149538D01*
X145305873Y-67392813D01*
X145310787Y-67393855D01*
X145310793Y-67393824D01*
X145319508Y-67395469D01*
X145319501Y-67395501D01*
X145324452Y-67396321D01*
X146644657Y-67682085D01*
X146649583Y-67683407D01*
X146649591Y-67683376D01*
X146658158Y-67685474D01*
X146658150Y-67685505D01*
X146663115Y-67686604D01*
X147802906Y-67998623D01*
X147807807Y-68000227D01*
X147807817Y-68000197D01*
X147816213Y-68002744D01*
X147816203Y-68002774D01*
X147821176Y-68004166D01*
X148786912Y-68326189D01*
X148791753Y-68328071D01*
X148791764Y-68328042D01*
X148799982Y-68331035D01*
X148799970Y-68331065D01*
X148804874Y-68332732D01*
X149603028Y-68648552D01*
X149607737Y-68650689D01*
X149607750Y-68650659D01*
X149615803Y-68654104D01*
X149615790Y-68654133D01*
X149620600Y-68656069D01*
X150257540Y-68949450D01*
X150263957Y-68952798D01*
X150263967Y-68952780D01*
X150270557Y-68956128D01*
X150270548Y-68956145D01*
X150277045Y-68959359D01*
X150949065Y-69333892D01*
X151103467Y-69419944D01*
X151112368Y-69425492D01*
X151113720Y-69426332D01*
X151113728Y-69426337D01*
X151113735Y-69426341D01*
X151115510Y-69427443D01*
X151123990Y-69432690D01*
X151381660Y-69610163D01*
X151391316Y-69617538D01*
X151392929Y-69618900D01*
X151420378Y-69653484D01*
X151421058Y-69653092D01*
X151422639Y-69655831D01*
X151422646Y-69655844D01*
X151422653Y-69655855D01*
X151422719Y-69655969D01*
X151422994Y-69656781D01*
X151423362Y-69657244D01*
X151424102Y-69658693D01*
X151423711Y-69658892D01*
X151437309Y-69698940D01*
X151437725Y-69698864D01*
X151438018Y-69700459D01*
X151438009Y-69701000D01*
X151438268Y-69701763D01*
X151438703Y-69705063D01*
X151437940Y-69705163D01*
X151437209Y-69749297D01*
X151436758Y-69751364D01*
X151433580Y-69763121D01*
X151275423Y-70251662D01*
X151274066Y-70255245D01*
X151274098Y-70255256D01*
X151270938Y-70264381D01*
X151270907Y-70264370D01*
X151269758Y-70268025D01*
X150747133Y-71683983D01*
X150746005Y-71686633D01*
X150746033Y-71686644D01*
X150742340Y-71696198D01*
X150742313Y-71696187D01*
X150741364Y-71698911D01*
X150523422Y-72238241D01*
X150659455Y-72239441D01*
X166078544Y-72375475D01*
X166150923Y-72297273D01*
X166515973Y-71902851D01*
X169802349Y-68352053D01*
X169810993Y-68343585D01*
X169811889Y-68342789D01*
X169846779Y-68320948D01*
X169849795Y-68319699D01*
X169852765Y-68318331D01*
X169892493Y-68307565D01*
X169893668Y-68307449D01*
X169905776Y-68306857D01*
X175600107Y-68306857D01*
X175600108Y-68306857D01*
X175568387Y-64571927D01*
X175568886Y-64559734D01*
X175568983Y-64558660D01*
X175579177Y-64519431D01*
X175580641Y-64516138D01*
X175580647Y-64516125D01*
X175582004Y-64512768D01*
X175603176Y-64478118D01*
X175603910Y-64477270D01*
X175612254Y-64468526D01*
X186349469Y-54267623D01*
X186358693Y-54259685D01*
X186359095Y-54259372D01*
X186378983Y-54246725D01*
X186383939Y-54244200D01*
X186406536Y-54235352D01*
X186407386Y-54235111D01*
X186407402Y-54235109D01*
X186407416Y-54235103D01*
X186408190Y-54234885D01*
X186432157Y-54230602D01*
X186437711Y-54230165D01*
X186461205Y-54230549D01*
G37*
%TD.AperFunction*%
%TA.AperFunction,Conductor*%
G36*
X127602614Y-72187292D02*
G01*
X127660477Y-72226455D01*
X127687981Y-72290683D01*
X127688858Y-72305404D01*
X127688858Y-79103920D01*
X127709337Y-79180347D01*
X127746941Y-79245480D01*
X127748898Y-79248869D01*
X130665489Y-82165460D01*
X130734012Y-82205022D01*
X130810438Y-82225500D01*
X131176558Y-82225500D01*
X131243597Y-82245185D01*
X131289352Y-82297989D01*
X131300558Y-82349500D01*
X131300558Y-90881687D01*
X131280873Y-90948726D01*
X131264239Y-90969368D01*
X130270426Y-91963181D01*
X130209103Y-91996666D01*
X130182745Y-91999500D01*
X123442255Y-91999500D01*
X123375216Y-91979815D01*
X123354574Y-91963181D01*
X122836819Y-91445426D01*
X122803334Y-91384103D01*
X122800500Y-91357745D01*
X122800500Y-90555378D01*
X122820185Y-90488339D01*
X122872989Y-90442584D01*
X122942147Y-90432640D01*
X123005703Y-90461665D01*
X123026075Y-90484254D01*
X123156894Y-90671082D01*
X123323917Y-90838105D01*
X123517421Y-90973600D01*
X123731507Y-91073429D01*
X123731516Y-91073433D01*
X123945000Y-91130634D01*
X123945000Y-90233012D01*
X124002007Y-90265925D01*
X124129174Y-90300000D01*
X124260826Y-90300000D01*
X124387993Y-90265925D01*
X124445000Y-90233012D01*
X124445000Y-91130633D01*
X124658483Y-91073433D01*
X124658492Y-91073429D01*
X124872578Y-90973600D01*
X125066082Y-90838105D01*
X125233105Y-90671082D01*
X125368600Y-90477578D01*
X125468429Y-90263492D01*
X125468433Y-90263483D01*
X125501158Y-90141350D01*
X125537522Y-90081690D01*
X125600369Y-90051160D01*
X125669745Y-90059454D01*
X125723623Y-90103939D01*
X125739593Y-90137447D01*
X125759768Y-90203954D01*
X125857315Y-90386450D01*
X125857317Y-90386452D01*
X125988589Y-90546410D01*
X126085209Y-90625702D01*
X126148550Y-90677685D01*
X126331046Y-90775232D01*
X126529066Y-90835300D01*
X126529065Y-90835300D01*
X126547529Y-90837118D01*
X126735000Y-90855583D01*
X126940934Y-90835300D01*
X127138954Y-90775232D01*
X127321450Y-90677685D01*
X127481410Y-90546410D01*
X127612685Y-90386450D01*
X127710232Y-90203954D01*
X127770300Y-90005934D01*
X127790583Y-89800000D01*
X127770300Y-89594066D01*
X127710232Y-89396046D01*
X127612685Y-89213550D01*
X127532419Y-89115745D01*
X127481410Y-89053589D01*
X127363677Y-88956969D01*
X127321450Y-88922315D01*
X127138954Y-88824768D01*
X126940934Y-88764700D01*
X126940932Y-88764699D01*
X126940934Y-88764699D01*
X126735000Y-88744417D01*
X126529067Y-88764699D01*
X126331043Y-88824769D01*
X126220898Y-88883643D01*
X126148550Y-88922315D01*
X126148548Y-88922316D01*
X126148547Y-88922317D01*
X125988589Y-89053589D01*
X125881957Y-89183523D01*
X125857315Y-89213550D01*
X125829622Y-89265358D01*
X125759767Y-89396046D01*
X125739593Y-89462552D01*
X125701296Y-89520990D01*
X125637483Y-89549447D01*
X125568416Y-89538886D01*
X125516023Y-89492661D01*
X125501158Y-89458649D01*
X125468433Y-89336516D01*
X125468429Y-89336507D01*
X125368600Y-89122422D01*
X125368599Y-89122420D01*
X125233113Y-88928926D01*
X125233108Y-88928920D01*
X125066082Y-88761894D01*
X124872578Y-88626399D01*
X124702052Y-88546882D01*
X124649613Y-88500710D01*
X124630461Y-88433516D01*
X124650677Y-88366635D01*
X124703842Y-88321300D01*
X124754457Y-88310500D01*
X125064750Y-88310500D01*
X125064751Y-88310499D01*
X125079568Y-88307552D01*
X125123229Y-88298868D01*
X125123229Y-88298867D01*
X125123231Y-88298867D01*
X125189552Y-88254552D01*
X125233867Y-88188231D01*
X125233867Y-88188229D01*
X125233868Y-88188229D01*
X125245499Y-88129752D01*
X125245500Y-88129750D01*
X125245500Y-86390249D01*
X125245499Y-86390247D01*
X125233868Y-86331770D01*
X125233867Y-86331769D01*
X125189552Y-86265447D01*
X125123230Y-86221132D01*
X125123229Y-86221131D01*
X125064752Y-86209500D01*
X125064748Y-86209500D01*
X124719500Y-86209500D01*
X124652461Y-86189815D01*
X124606706Y-86137011D01*
X124595500Y-86085500D01*
X124595500Y-82567275D01*
X124595499Y-82567271D01*
X124586148Y-82532372D01*
X124585633Y-82530448D01*
X124568207Y-82465412D01*
X124515480Y-82374087D01*
X121211819Y-79070426D01*
X121178334Y-79009103D01*
X121175500Y-78982745D01*
X121175500Y-78666506D01*
X121159720Y-78566878D01*
X121159719Y-78566876D01*
X121159719Y-78566874D01*
X121098528Y-78446780D01*
X121098526Y-78446778D01*
X121098523Y-78446774D01*
X121003225Y-78351476D01*
X121003221Y-78351473D01*
X121003220Y-78351472D01*
X121000915Y-78350297D01*
X120968204Y-78333630D01*
X120917408Y-78285655D01*
X120900500Y-78223146D01*
X120900500Y-78167283D01*
X120920185Y-78100244D01*
X120972989Y-78054489D01*
X121042147Y-78044545D01*
X121083565Y-78061158D01*
X121084286Y-78059685D01*
X121093516Y-78064197D01*
X121093517Y-78064198D01*
X121198607Y-78115573D01*
X121230048Y-78120154D01*
X121266739Y-78125500D01*
X121266740Y-78125500D01*
X121633261Y-78125500D01*
X121669952Y-78120154D01*
X121701393Y-78115573D01*
X121708663Y-78112019D01*
X121740542Y-78096435D01*
X121809415Y-78084675D01*
X121873712Y-78112019D01*
X121882683Y-78120154D01*
X127688181Y-83925652D01*
X127721666Y-83986975D01*
X127724500Y-84013333D01*
X127724500Y-86463238D01*
X127704815Y-86530277D01*
X127652011Y-86576032D01*
X127582853Y-86585976D01*
X127519297Y-86556951D01*
X127504647Y-86541904D01*
X127481408Y-86513588D01*
X127331121Y-86390252D01*
X127321450Y-86382315D01*
X127138954Y-86284768D01*
X126940934Y-86224700D01*
X126940932Y-86224699D01*
X126940934Y-86224699D01*
X126735000Y-86204417D01*
X126529067Y-86224699D01*
X126394736Y-86265448D01*
X126331050Y-86284767D01*
X126331043Y-86284769D01*
X126243114Y-86331769D01*
X126148550Y-86382315D01*
X126148548Y-86382316D01*
X126148547Y-86382317D01*
X125988589Y-86513589D01*
X125857317Y-86673547D01*
X125759769Y-86856043D01*
X125699699Y-87054067D01*
X125679417Y-87260000D01*
X125699699Y-87465932D01*
X125699700Y-87465934D01*
X125759768Y-87663954D01*
X125857315Y-87846450D01*
X125857317Y-87846452D01*
X125988589Y-88006410D01*
X126024443Y-88035834D01*
X126148550Y-88137685D01*
X126331046Y-88235232D01*
X126529066Y-88295300D01*
X126529065Y-88295300D01*
X126547529Y-88297118D01*
X126735000Y-88315583D01*
X126940934Y-88295300D01*
X127138954Y-88235232D01*
X127321450Y-88137685D01*
X127481410Y-88006410D01*
X127493027Y-87992255D01*
X127504646Y-87978097D01*
X127562392Y-87938762D01*
X127632236Y-87936891D01*
X127692005Y-87973078D01*
X127722721Y-88035834D01*
X127724500Y-88056761D01*
X127724500Y-88589562D01*
X127729755Y-88609174D01*
X127744979Y-88665990D01*
X127744982Y-88665995D01*
X127784535Y-88734504D01*
X127784541Y-88734512D01*
X128285701Y-89235672D01*
X128319186Y-89296995D01*
X128314202Y-89366687D01*
X128307381Y-89381800D01*
X128299770Y-89396039D01*
X128239699Y-89594067D01*
X128219417Y-89800000D01*
X128239699Y-90005932D01*
X128239700Y-90005934D01*
X128299768Y-90203954D01*
X128397315Y-90386450D01*
X128397317Y-90386452D01*
X128528589Y-90546410D01*
X128625209Y-90625702D01*
X128688550Y-90677685D01*
X128871046Y-90775232D01*
X129069066Y-90835300D01*
X129069065Y-90835300D01*
X129087529Y-90837118D01*
X129275000Y-90855583D01*
X129480934Y-90835300D01*
X129678954Y-90775232D01*
X129861450Y-90677685D01*
X130021410Y-90546410D01*
X130152685Y-90386450D01*
X130250232Y-90203954D01*
X130310300Y-90005934D01*
X130330583Y-89800000D01*
X130310300Y-89594066D01*
X130250232Y-89396046D01*
X130152685Y-89213550D01*
X130072419Y-89115745D01*
X130021410Y-89053589D01*
X129903677Y-88956969D01*
X129861450Y-88922315D01*
X129678954Y-88824768D01*
X129480934Y-88764700D01*
X129480932Y-88764699D01*
X129480934Y-88764699D01*
X129275000Y-88744417D01*
X129069067Y-88764699D01*
X128871039Y-88824770D01*
X128856800Y-88832381D01*
X128788397Y-88846620D01*
X128723154Y-88821616D01*
X128710672Y-88810701D01*
X128361819Y-88461848D01*
X128328334Y-88400525D01*
X128325500Y-88374167D01*
X128325500Y-88101914D01*
X128345185Y-88034875D01*
X128397989Y-87989120D01*
X128467147Y-87979176D01*
X128528165Y-88006061D01*
X128528589Y-88006409D01*
X128528590Y-88006410D01*
X128589943Y-88056761D01*
X128678883Y-88129752D01*
X128688550Y-88137685D01*
X128871046Y-88235232D01*
X129069066Y-88295300D01*
X129069065Y-88295300D01*
X129087529Y-88297118D01*
X129275000Y-88315583D01*
X129480934Y-88295300D01*
X129678954Y-88235232D01*
X129861450Y-88137685D01*
X130021410Y-88006410D01*
X130152685Y-87846450D01*
X130250232Y-87663954D01*
X130310300Y-87465934D01*
X130330583Y-87260000D01*
X130310300Y-87054066D01*
X130250232Y-86856046D01*
X130152685Y-86673550D01*
X130100702Y-86610209D01*
X130021410Y-86513589D01*
X129871121Y-86390252D01*
X129861450Y-86382315D01*
X129739786Y-86317283D01*
X129678953Y-86284767D01*
X129663504Y-86280081D01*
X129605066Y-86241784D01*
X129576609Y-86177971D01*
X129575500Y-86161421D01*
X129575500Y-83460439D01*
X129570372Y-83441302D01*
X129555021Y-83384011D01*
X129555017Y-83384004D01*
X129515464Y-83315495D01*
X129515458Y-83315487D01*
X122084512Y-75884541D01*
X122084504Y-75884535D01*
X122015995Y-75844982D01*
X122015987Y-75844978D01*
X121989449Y-75837867D01*
X121929790Y-75801500D01*
X121899262Y-75738652D01*
X121907559Y-75669277D01*
X121910146Y-75663632D01*
X121940573Y-75601392D01*
X121950500Y-75533260D01*
X121950500Y-75399500D01*
X121970185Y-75332461D01*
X122022989Y-75286706D01*
X122074500Y-75275500D01*
X123950136Y-75275500D01*
X123950138Y-75275500D01*
X124026565Y-75255021D01*
X124095087Y-75215460D01*
X124151036Y-75159511D01*
X126979789Y-72330756D01*
X127041110Y-72297273D01*
X127067550Y-72296170D01*
X127067525Y-72295779D01*
X127079709Y-72294980D01*
X127079712Y-72294981D01*
X127139213Y-72291081D01*
X127532767Y-72185629D01*
X127602614Y-72187292D01*
G37*
%TD.AperFunction*%
%TA.AperFunction,Conductor*%
G36*
X158974106Y-80972572D02*
G01*
X159020080Y-81025186D01*
X159031500Y-81077165D01*
X159031500Y-81316810D01*
X159011815Y-81383849D01*
X158995181Y-81404491D01*
X158511491Y-81888181D01*
X158450168Y-81921666D01*
X158423810Y-81924500D01*
X154381000Y-81924500D01*
X154313961Y-81904815D01*
X154268206Y-81852011D01*
X154257000Y-81800500D01*
X154257000Y-81642643D01*
X153381000Y-81642643D01*
X153313961Y-81622958D01*
X153268206Y-81570154D01*
X153257000Y-81518643D01*
X153257000Y-81266643D01*
X153276685Y-81199604D01*
X153329489Y-81153849D01*
X153381000Y-81142643D01*
X154257000Y-81142643D01*
X154257000Y-81095933D01*
X154276685Y-81028894D01*
X154329489Y-80983139D01*
X154380485Y-80971934D01*
X158906986Y-80953166D01*
X158974106Y-80972572D01*
G37*
%TD.AperFunction*%
%TD*%
%TA.AperFunction,Conductor*%
%TO.N,GND*%
G36*
X146403104Y-73394676D02*
G01*
X146572277Y-73453873D01*
X146724036Y-73549229D01*
X146850771Y-73675964D01*
X146946127Y-73827723D01*
X147005324Y-73996896D01*
X147025391Y-74175000D01*
X147005324Y-74353104D01*
X146946127Y-74522277D01*
X146850771Y-74674036D01*
X146724036Y-74800771D01*
X146572277Y-74896127D01*
X146403104Y-74955324D01*
X146225000Y-74975391D01*
X146046896Y-74955324D01*
X145877723Y-74896127D01*
X145725964Y-74800771D01*
X145599229Y-74674036D01*
X145503873Y-74522277D01*
X145444676Y-74353104D01*
X145424609Y-74175000D01*
X145444676Y-73996896D01*
X145503873Y-73827723D01*
X145599229Y-73675964D01*
X145725964Y-73549229D01*
X145877723Y-73453873D01*
X146046896Y-73394676D01*
X146225000Y-73374609D01*
X146403104Y-73394676D01*
G37*
%TD.AperFunction*%
%TD*%
%TA.AperFunction,Conductor*%
%TO.N,GND*%
G36*
X137103104Y-87894676D02*
G01*
X137272277Y-87953873D01*
X137424036Y-88049229D01*
X137550771Y-88175964D01*
X137646127Y-88327723D01*
X137705324Y-88496896D01*
X137725391Y-88675000D01*
X137705324Y-88853104D01*
X137646127Y-89022277D01*
X137550771Y-89174036D01*
X137424036Y-89300771D01*
X137272277Y-89396127D01*
X137103104Y-89455324D01*
X136925000Y-89475391D01*
X136746896Y-89455324D01*
X136577723Y-89396127D01*
X136425964Y-89300771D01*
X136299229Y-89174036D01*
X136203873Y-89022277D01*
X136144676Y-88853104D01*
X136124609Y-88675000D01*
X136144676Y-88496896D01*
X136203873Y-88327723D01*
X136299229Y-88175964D01*
X136425964Y-88049229D01*
X136577723Y-87953873D01*
X136746896Y-87894676D01*
X136925000Y-87874609D01*
X137103104Y-87894676D01*
G37*
%TD.AperFunction*%
%TD*%
M02*
