%TF.GenerationSoftware,KiCad,Pcbnew,10.0.1*%
%TF.CreationDate,2026-04-17T14:45:45-07:00*%
%TF.ProjectId,portal-gun,706f7274-616c-42d6-9775-6e2e6b696361,rev?*%
%TF.SameCoordinates,Original*%
%TF.FileFunction,Soldermask,Bot*%
%TF.FilePolarity,Negative*%
%FSLAX46Y46*%
G04 Gerber Fmt 4.6, Leading zero omitted, Abs format (unit mm)*
G04 Created by KiCad (PCBNEW 10.0.1) date 2026-04-17 14:45:45*
%MOMM*%
%LPD*%
G01*
G04 APERTURE LIST*
G04 Aperture macros list*
%AMRoundRect*
0 Rectangle with rounded corners*
0 $1 Rounding radius*
0 $2 $3 $4 $5 $6 $7 $8 $9 X,Y pos of 4 corners*
0 Add a 4 corners polygon primitive as box body*
4,1,4,$2,$3,$4,$5,$6,$7,$8,$9,$2,$3,0*
0 Add four circle primitives for the rounded corners*
1,1,$1+$1,$2,$3*
1,1,$1+$1,$4,$5*
1,1,$1+$1,$6,$7*
1,1,$1+$1,$8,$9*
0 Add four rect primitives between the rounded corners*
20,1,$1+$1,$2,$3,$4,$5,0*
20,1,$1+$1,$4,$5,$6,$7,0*
20,1,$1+$1,$6,$7,$8,$9,0*
20,1,$1+$1,$8,$9,$2,$3,0*%
%AMRotRect*
0 Rectangle, with rotation*
0 The origin of the aperture is its center*
0 $1 length*
0 $2 width*
0 $3 Rotation angle, in degrees counterclockwise*
0 Add horizontal line*
21,1,$1,$2,0,0,$3*%
G04 Aperture macros list end*
%ADD10C,2.000000*%
%ADD11C,2.100000*%
%ADD12RotRect,0.500000X0.500000X15.000000*%
%ADD13RotRect,0.700000X1.000000X15.000000*%
%ADD14R,3.810000X3.810000*%
%ADD15R,0.500000X0.500000*%
%ADD16R,1.000000X0.700000*%
%ADD17RotRect,0.500000X0.500000X45.000000*%
%ADD18RotRect,0.700000X1.000000X45.000000*%
%ADD19RoundRect,0.150000X-0.150000X0.512500X-0.150000X-0.512500X0.150000X-0.512500X0.150000X0.512500X0*%
%ADD20RoundRect,0.200000X0.275000X-0.200000X0.275000X0.200000X-0.275000X0.200000X-0.275000X-0.200000X0*%
%ADD21RoundRect,0.225000X-0.250000X0.225000X-0.250000X-0.225000X0.250000X-0.225000X0.250000X0.225000X0*%
%ADD22R,1.000000X1.000000*%
%ADD23RotRect,0.500000X0.500000X315.000000*%
%ADD24RotRect,0.700000X1.000000X315.000000*%
%ADD25R,1.700000X1.700000*%
%ADD26C,1.700000*%
G04 APERTURE END LIST*
D10*
%TO.C,REF\u002A\u002A*%
X146225000Y-74175000D03*
%TD*%
D11*
%TO.C,REF\u002A\u002A*%
X166040000Y-90230000D03*
%TD*%
D10*
%TO.C,REF\u002A\u002A*%
X136925000Y-88675000D03*
%TD*%
D12*
%TO.C,LED4*%
X129168963Y-73759996D03*
D13*
X128061058Y-73798039D03*
X130968495Y-73018994D03*
D12*
X129990000Y-73540000D03*
%TD*%
D14*
%TO.C,REF\u002A\u002A*%
X177110000Y-93980000D03*
%TD*%
D15*
%TO.C,LED1*%
X192955000Y-81355000D03*
D16*
X193205000Y-80275000D03*
X193205000Y-83285000D03*
D15*
X192955000Y-82205000D03*
%TD*%
D17*
%TO.C,LED2*%
X167438959Y-83241041D03*
D18*
X166498507Y-83827939D03*
X168626898Y-81699548D03*
D17*
X168040000Y-82640000D03*
%TD*%
D19*
%TO.C,U1*%
X123155000Y-78947500D03*
X124105000Y-78947500D03*
X125055000Y-78947500D03*
X125055000Y-81222500D03*
X124105000Y-81222500D03*
X123155000Y-81222500D03*
%TD*%
D20*
%TO.C,R1*%
X143010000Y-87050000D03*
X143010000Y-85400000D03*
%TD*%
D21*
%TO.C,C2*%
X125605000Y-82945000D03*
X125605000Y-84495000D03*
%TD*%
D22*
%TO.C,PA3*%
X145140000Y-85390000D03*
%TD*%
D23*
%TO.C,LED3*%
X144102703Y-82036257D03*
D24*
X143515805Y-81095805D03*
X145644196Y-83224196D03*
D23*
X144703744Y-82637298D03*
%TD*%
D25*
%TO.C,J1*%
X152760000Y-85390000D03*
D26*
X152760000Y-87930000D03*
X155300000Y-85390000D03*
X155300000Y-87930000D03*
X157840000Y-85390000D03*
X157840000Y-87930000D03*
%TD*%
D21*
%TO.C,C1*%
X124105000Y-82885000D03*
X124105000Y-84435000D03*
%TD*%
D22*
%TO.C,PA6*%
X145140000Y-87930000D03*
%TD*%
D14*
%TO.C,REF\u002A\u002A*%
X176590000Y-70390000D03*
%TD*%
G36*
X146327549Y-73079889D02*
G01*
X146524972Y-73116794D01*
X146527026Y-73117378D01*
X146714314Y-73189933D01*
X146716225Y-73190885D01*
X146886983Y-73296615D01*
X146888688Y-73297902D01*
X147037121Y-73433216D01*
X147038559Y-73434795D01*
X147159589Y-73595064D01*
X147160714Y-73596880D01*
X147250242Y-73776678D01*
X147251013Y-73778669D01*
X147305975Y-73971841D01*
X147306368Y-73973940D01*
X147324901Y-74173932D01*
X147324901Y-74176068D01*
X147306368Y-74376059D01*
X147305975Y-74378158D01*
X147251013Y-74571330D01*
X147250242Y-74573321D01*
X147160714Y-74753119D01*
X147159589Y-74754935D01*
X147038559Y-74915204D01*
X147037121Y-74916783D01*
X146888688Y-75052097D01*
X146886983Y-75053384D01*
X146716225Y-75159114D01*
X146714314Y-75160066D01*
X146527026Y-75232621D01*
X146524972Y-75233205D01*
X146327549Y-75270111D01*
X146325422Y-75270308D01*
X146124578Y-75270308D01*
X146122451Y-75270111D01*
X145925027Y-75233205D01*
X145922973Y-75232621D01*
X145735685Y-75160066D01*
X145733774Y-75159114D01*
X145563016Y-75053384D01*
X145561311Y-75052097D01*
X145412878Y-74916783D01*
X145411440Y-74915204D01*
X145290410Y-74754935D01*
X145289285Y-74753119D01*
X145199757Y-74573321D01*
X145198986Y-74571330D01*
X145144024Y-74378158D01*
X145143631Y-74376059D01*
X145125098Y-74176068D01*
X145125098Y-74173932D01*
X145133174Y-74086784D01*
X145329334Y-74086784D01*
X145329334Y-74263215D01*
X145363754Y-74436258D01*
X145363755Y-74436260D01*
X145431270Y-74599254D01*
X145529291Y-74745953D01*
X145529294Y-74745957D01*
X145654042Y-74870705D01*
X145654046Y-74870708D01*
X145800745Y-74968729D01*
X145800744Y-74968729D01*
X145963739Y-75036244D01*
X145963741Y-75036245D01*
X146136784Y-75070665D01*
X146136786Y-75070666D01*
X146313214Y-75070666D01*
X146313215Y-75070665D01*
X146486258Y-75036245D01*
X146486260Y-75036244D01*
X146649254Y-74968729D01*
X146795953Y-74870708D01*
X146795957Y-74870705D01*
X146920705Y-74745957D01*
X146920708Y-74745953D01*
X147018729Y-74599254D01*
X147086244Y-74436260D01*
X147086245Y-74436258D01*
X147120665Y-74263215D01*
X147120666Y-74263214D01*
X147120666Y-74086785D01*
X147120665Y-74086784D01*
X147086245Y-73913741D01*
X147086244Y-73913739D01*
X147018729Y-73750745D01*
X146920708Y-73604046D01*
X146920705Y-73604042D01*
X146795957Y-73479294D01*
X146795953Y-73479291D01*
X146649254Y-73381270D01*
X146649255Y-73381270D01*
X146486260Y-73313755D01*
X146486258Y-73313754D01*
X146313215Y-73279334D01*
X146136784Y-73279334D01*
X145963741Y-73313754D01*
X145963739Y-73313755D01*
X145800745Y-73381270D01*
X145654046Y-73479291D01*
X145654042Y-73479294D01*
X145529294Y-73604042D01*
X145529291Y-73604046D01*
X145431270Y-73750745D01*
X145363755Y-73913739D01*
X145363754Y-73913741D01*
X145329334Y-74086784D01*
X145133174Y-74086784D01*
X145143631Y-73973940D01*
X145144024Y-73971841D01*
X145198986Y-73778669D01*
X145199757Y-73776678D01*
X145289285Y-73596880D01*
X145290410Y-73595064D01*
X145411440Y-73434795D01*
X145412878Y-73433216D01*
X145561311Y-73297902D01*
X145563016Y-73296615D01*
X145733774Y-73190885D01*
X145735685Y-73189933D01*
X145922973Y-73117378D01*
X145925027Y-73116794D01*
X146122451Y-73079889D01*
X146124578Y-73079692D01*
X146325422Y-73079692D01*
X146327549Y-73079889D01*
G37*
G36*
X137027549Y-87579889D02*
G01*
X137224972Y-87616794D01*
X137227026Y-87617378D01*
X137414314Y-87689933D01*
X137416225Y-87690885D01*
X137586983Y-87796615D01*
X137588688Y-87797902D01*
X137737121Y-87933216D01*
X137738559Y-87934795D01*
X137859589Y-88095064D01*
X137860714Y-88096880D01*
X137950242Y-88276678D01*
X137951013Y-88278669D01*
X138005975Y-88471841D01*
X138006368Y-88473940D01*
X138024901Y-88673932D01*
X138024901Y-88676068D01*
X138006368Y-88876059D01*
X138005975Y-88878158D01*
X137951013Y-89071330D01*
X137950242Y-89073321D01*
X137860714Y-89253119D01*
X137859589Y-89254935D01*
X137738559Y-89415204D01*
X137737121Y-89416783D01*
X137588688Y-89552097D01*
X137586983Y-89553384D01*
X137416225Y-89659114D01*
X137414314Y-89660066D01*
X137227026Y-89732621D01*
X137224972Y-89733205D01*
X137027549Y-89770111D01*
X137025422Y-89770308D01*
X136824578Y-89770308D01*
X136822451Y-89770111D01*
X136625027Y-89733205D01*
X136622973Y-89732621D01*
X136435685Y-89660066D01*
X136433774Y-89659114D01*
X136263016Y-89553384D01*
X136261311Y-89552097D01*
X136112878Y-89416783D01*
X136111440Y-89415204D01*
X135990410Y-89254935D01*
X135989285Y-89253119D01*
X135899757Y-89073321D01*
X135898986Y-89071330D01*
X135844024Y-88878158D01*
X135843631Y-88876059D01*
X135825098Y-88676068D01*
X135825098Y-88673932D01*
X135833174Y-88586784D01*
X136029334Y-88586784D01*
X136029334Y-88763215D01*
X136063754Y-88936258D01*
X136063755Y-88936260D01*
X136131270Y-89099254D01*
X136229291Y-89245953D01*
X136229294Y-89245957D01*
X136354042Y-89370705D01*
X136354046Y-89370708D01*
X136500745Y-89468729D01*
X136500744Y-89468729D01*
X136663739Y-89536244D01*
X136663741Y-89536245D01*
X136836784Y-89570665D01*
X136836786Y-89570666D01*
X137013214Y-89570666D01*
X137013215Y-89570665D01*
X137186258Y-89536245D01*
X137186260Y-89536244D01*
X137349254Y-89468729D01*
X137495953Y-89370708D01*
X137495957Y-89370705D01*
X137620705Y-89245957D01*
X137620708Y-89245953D01*
X137718729Y-89099254D01*
X137786244Y-88936260D01*
X137786245Y-88936258D01*
X137820665Y-88763215D01*
X137820666Y-88763214D01*
X137820666Y-88586785D01*
X137820665Y-88586784D01*
X137786245Y-88413741D01*
X137786244Y-88413739D01*
X137718729Y-88250745D01*
X137620708Y-88104046D01*
X137620705Y-88104042D01*
X137495957Y-87979294D01*
X137495953Y-87979291D01*
X137349254Y-87881270D01*
X137349255Y-87881270D01*
X137186260Y-87813755D01*
X137186258Y-87813754D01*
X137013215Y-87779334D01*
X136836784Y-87779334D01*
X136663741Y-87813754D01*
X136663739Y-87813755D01*
X136500745Y-87881270D01*
X136354046Y-87979291D01*
X136354042Y-87979294D01*
X136229294Y-88104042D01*
X136229291Y-88104046D01*
X136131270Y-88250745D01*
X136063755Y-88413739D01*
X136063754Y-88413741D01*
X136029334Y-88586784D01*
X135833174Y-88586784D01*
X135843631Y-88473940D01*
X135844024Y-88471841D01*
X135898986Y-88278669D01*
X135899757Y-88276678D01*
X135989285Y-88096880D01*
X135990410Y-88095064D01*
X136111440Y-87934795D01*
X136112878Y-87933216D01*
X136261311Y-87797902D01*
X136263016Y-87796615D01*
X136433774Y-87690885D01*
X136435685Y-87689933D01*
X136622973Y-87617378D01*
X136625027Y-87616794D01*
X136822451Y-87579889D01*
X136824578Y-87579692D01*
X137025422Y-87579692D01*
X137027549Y-87579889D01*
G37*
M02*
