%TF.GenerationSoftware,KiCad,Pcbnew,10.0.1*%
%TF.CreationDate,2026-04-17T14:45:45-07:00*%
%TF.ProjectId,portal-gun,706f7274-616c-42d6-9775-6e2e6b696361,rev?*%
%TF.SameCoordinates,Original*%
%TF.FileFunction,Legend,Bot*%
%TF.FilePolarity,Positive*%
%FSLAX46Y46*%
G04 Gerber Fmt 4.6, Leading zero omitted, Abs format (unit mm)*
G04 Created by KiCad (PCBNEW 10.0.1) date 2026-04-17 14:45:45*
%MOMM*%
%LPD*%
G01*
G04 APERTURE LIST*
G04 Aperture macros list*
%AMRoundRect*
0 Rectangle with rounded corners*
0 $1 Rounding radius*
0 $2 $3 $4 $5 $6 $7 $8 $9 X,Y pos of 4 corners*
0 Add a 4 corners polygon primitive as box body*
4,1,4,$2,$3,$4,$5,$6,$7,$8,$9,$2,$3,0*
0 Add four circle primitives for the rounded corners*
1,1,$1+$1,$2,$3*
1,1,$1+$1,$4,$5*
1,1,$1+$1,$6,$7*
1,1,$1+$1,$8,$9*
0 Add four rect primitives between the rounded corners*
20,1,$1+$1,$2,$3,$4,$5,0*
20,1,$1+$1,$4,$5,$6,$7,0*
20,1,$1+$1,$6,$7,$8,$9,0*
20,1,$1+$1,$8,$9,$2,$3,0*%
%AMRotRect*
0 Rectangle, with rotation*
0 The origin of the aperture is its center*
0 $1 length*
0 $2 width*
0 $3 Rotation angle, in degrees counterclockwise*
0 Add horizontal line*
21,1,$1,$2,0,0,$3*%
G04 Aperture macros list end*
%ADD10C,0.152400*%
%ADD11C,0.100000*%
%ADD12C,0.150000*%
%ADD13C,0.125000*%
%ADD14C,0.120000*%
%ADD15C,2.000000*%
%ADD16C,2.100000*%
%ADD17RotRect,0.500000X0.500000X15.000000*%
%ADD18RotRect,0.700000X1.000000X15.000000*%
%ADD19R,3.810000X3.810000*%
%ADD20R,0.500000X0.500000*%
%ADD21R,1.000000X0.700000*%
%ADD22RotRect,0.500000X0.500000X45.000000*%
%ADD23RotRect,0.700000X1.000000X45.000000*%
%ADD24RoundRect,0.150000X-0.150000X0.512500X-0.150000X-0.512500X0.150000X-0.512500X0.150000X0.512500X0*%
%ADD25RoundRect,0.200000X0.275000X-0.200000X0.275000X0.200000X-0.275000X0.200000X-0.275000X-0.200000X0*%
%ADD26RoundRect,0.225000X-0.250000X0.225000X-0.250000X-0.225000X0.250000X-0.225000X0.250000X0.225000X0*%
%ADD27R,1.000000X1.000000*%
%ADD28RotRect,0.500000X0.500000X315.000000*%
%ADD29RotRect,0.700000X1.000000X315.000000*%
%ADD30R,1.700000X1.700000*%
%ADD31C,1.700000*%
G04 APERTURE END LIST*
D10*
X195130559Y-84760118D02*
X195130559Y-84760118D01*
G75*
G02*
X195139992Y-78811032I-2050559J2977818D01*
G01*
X195130559Y-84760118D01*
X207404493Y-54653512D02*
X207404493Y-54653512D01*
G75*
G02*
X207440000Y-109090000I-11129213J-27225518D01*
G01*
X196024992Y-92493816D01*
X167629992Y-80413816D01*
X165479992Y-82563816D01*
X164169987Y-81903983D01*
X146499992Y-81913816D01*
X144819992Y-80233816D01*
X131419992Y-71573816D01*
X124689992Y-73333816D01*
X122349992Y-69463816D01*
X123090112Y-69212580D01*
X124807950Y-68688729D01*
X126201033Y-68277442D01*
X126879185Y-68093603D01*
X127480579Y-67947988D01*
X128105420Y-67823914D01*
X128822870Y-67701830D01*
X129578706Y-67586222D01*
X130318708Y-67481575D01*
X131534315Y-67323106D01*
X132035913Y-67262309D01*
X132662905Y-67183816D01*
X145036421Y-76452920D01*
G75*
G03*
X148620053Y-75113828I1188479J2284220D01*
G01*
X149429992Y-72403816D01*
X166379992Y-72403816D01*
X195119992Y-72403816D01*
X207404493Y-54653512D01*
D11*
X132309919Y-88496831D02*
X132119443Y-89163498D01*
X132119443Y-89163498D02*
X131928967Y-88687307D01*
X131928967Y-88687307D02*
X131738491Y-89163498D01*
X131738491Y-89163498D02*
X131548015Y-88496831D01*
X131262300Y-88496831D02*
X131071824Y-89163498D01*
X131071824Y-89163498D02*
X130881348Y-88687307D01*
X130881348Y-88687307D02*
X130690872Y-89163498D01*
X130690872Y-89163498D02*
X130500396Y-88496831D01*
X130214681Y-88496831D02*
X130024205Y-89163498D01*
X130024205Y-89163498D02*
X129833729Y-88687307D01*
X129833729Y-88687307D02*
X129643253Y-89163498D01*
X129643253Y-89163498D02*
X129452777Y-88496831D01*
X129071824Y-89068259D02*
X129024205Y-89115879D01*
X129024205Y-89115879D02*
X129071824Y-89163498D01*
X129071824Y-89163498D02*
X129119443Y-89115879D01*
X129119443Y-89115879D02*
X129071824Y-89068259D01*
X129071824Y-89068259D02*
X129071824Y-89163498D01*
X128262301Y-88639688D02*
X128119444Y-88687307D01*
X128119444Y-88687307D02*
X128071825Y-88734926D01*
X128071825Y-88734926D02*
X128024206Y-88830164D01*
X128024206Y-88830164D02*
X128024206Y-88973021D01*
X128024206Y-88973021D02*
X128071825Y-89068259D01*
X128071825Y-89068259D02*
X128119444Y-89115879D01*
X128119444Y-89115879D02*
X128214682Y-89163498D01*
X128214682Y-89163498D02*
X128595634Y-89163498D01*
X128595634Y-89163498D02*
X128595634Y-88163498D01*
X128595634Y-88163498D02*
X128262301Y-88163498D01*
X128262301Y-88163498D02*
X128167063Y-88211117D01*
X128167063Y-88211117D02*
X128119444Y-88258736D01*
X128119444Y-88258736D02*
X128071825Y-88353974D01*
X128071825Y-88353974D02*
X128071825Y-88449212D01*
X128071825Y-88449212D02*
X128119444Y-88544450D01*
X128119444Y-88544450D02*
X128167063Y-88592069D01*
X128167063Y-88592069D02*
X128262301Y-88639688D01*
X128262301Y-88639688D02*
X128595634Y-88639688D01*
X127595634Y-89163498D02*
X127595634Y-88496831D01*
X127595634Y-88163498D02*
X127643253Y-88211117D01*
X127643253Y-88211117D02*
X127595634Y-88258736D01*
X127595634Y-88258736D02*
X127548015Y-88211117D01*
X127548015Y-88211117D02*
X127595634Y-88163498D01*
X127595634Y-88163498D02*
X127595634Y-88258736D01*
X126690873Y-88496831D02*
X126690873Y-89306355D01*
X126690873Y-89306355D02*
X126738492Y-89401593D01*
X126738492Y-89401593D02*
X126786111Y-89449212D01*
X126786111Y-89449212D02*
X126881349Y-89496831D01*
X126881349Y-89496831D02*
X127024206Y-89496831D01*
X127024206Y-89496831D02*
X127119444Y-89449212D01*
X126690873Y-89115879D02*
X126786111Y-89163498D01*
X126786111Y-89163498D02*
X126976587Y-89163498D01*
X126976587Y-89163498D02*
X127071825Y-89115879D01*
X127071825Y-89115879D02*
X127119444Y-89068259D01*
X127119444Y-89068259D02*
X127167063Y-88973021D01*
X127167063Y-88973021D02*
X127167063Y-88687307D01*
X127167063Y-88687307D02*
X127119444Y-88592069D01*
X127119444Y-88592069D02*
X127071825Y-88544450D01*
X127071825Y-88544450D02*
X126976587Y-88496831D01*
X126976587Y-88496831D02*
X126786111Y-88496831D01*
X126786111Y-88496831D02*
X126690873Y-88544450D01*
X125881349Y-88639688D02*
X126214682Y-88639688D01*
X126214682Y-89163498D02*
X126214682Y-88163498D01*
X126214682Y-88163498D02*
X125738492Y-88163498D01*
X124928968Y-88496831D02*
X124928968Y-89163498D01*
X125357539Y-88496831D02*
X125357539Y-89020640D01*
X125357539Y-89020640D02*
X125309920Y-89115879D01*
X125309920Y-89115879D02*
X125214682Y-89163498D01*
X125214682Y-89163498D02*
X125071825Y-89163498D01*
X125071825Y-89163498D02*
X124976587Y-89115879D01*
X124976587Y-89115879D02*
X124928968Y-89068259D01*
X124024206Y-89115879D02*
X124119444Y-89163498D01*
X124119444Y-89163498D02*
X124309920Y-89163498D01*
X124309920Y-89163498D02*
X124405158Y-89115879D01*
X124405158Y-89115879D02*
X124452777Y-89068259D01*
X124452777Y-89068259D02*
X124500396Y-88973021D01*
X124500396Y-88973021D02*
X124500396Y-88687307D01*
X124500396Y-88687307D02*
X124452777Y-88592069D01*
X124452777Y-88592069D02*
X124405158Y-88544450D01*
X124405158Y-88544450D02*
X124309920Y-88496831D01*
X124309920Y-88496831D02*
X124119444Y-88496831D01*
X124119444Y-88496831D02*
X124024206Y-88544450D01*
X123595634Y-89163498D02*
X123595634Y-88163498D01*
X123500396Y-88782545D02*
X123214682Y-89163498D01*
X123214682Y-88496831D02*
X123595634Y-88877783D01*
X122786110Y-89163498D02*
X122786110Y-88496831D01*
X122786110Y-88163498D02*
X122833729Y-88211117D01*
X122833729Y-88211117D02*
X122786110Y-88258736D01*
X122786110Y-88258736D02*
X122738491Y-88211117D01*
X122738491Y-88211117D02*
X122786110Y-88163498D01*
X122786110Y-88163498D02*
X122786110Y-88258736D01*
X122309920Y-88496831D02*
X122309920Y-89163498D01*
X122309920Y-88592069D02*
X122262301Y-88544450D01*
X122262301Y-88544450D02*
X122167063Y-88496831D01*
X122167063Y-88496831D02*
X122024206Y-88496831D01*
X122024206Y-88496831D02*
X121928968Y-88544450D01*
X121928968Y-88544450D02*
X121881349Y-88639688D01*
X121881349Y-88639688D02*
X121881349Y-89163498D01*
X120976587Y-88496831D02*
X120976587Y-89306355D01*
X120976587Y-89306355D02*
X121024206Y-89401593D01*
X121024206Y-89401593D02*
X121071825Y-89449212D01*
X121071825Y-89449212D02*
X121167063Y-89496831D01*
X121167063Y-89496831D02*
X121309920Y-89496831D01*
X121309920Y-89496831D02*
X121405158Y-89449212D01*
X120976587Y-89115879D02*
X121071825Y-89163498D01*
X121071825Y-89163498D02*
X121262301Y-89163498D01*
X121262301Y-89163498D02*
X121357539Y-89115879D01*
X121357539Y-89115879D02*
X121405158Y-89068259D01*
X121405158Y-89068259D02*
X121452777Y-88973021D01*
X121452777Y-88973021D02*
X121452777Y-88687307D01*
X121452777Y-88687307D02*
X121405158Y-88592069D01*
X121405158Y-88592069D02*
X121357539Y-88544450D01*
X121357539Y-88544450D02*
X121262301Y-88496831D01*
X121262301Y-88496831D02*
X121071825Y-88496831D01*
X121071825Y-88496831D02*
X120976587Y-88544450D01*
X120167063Y-88639688D02*
X120024206Y-88687307D01*
X120024206Y-88687307D02*
X119976587Y-88734926D01*
X119976587Y-88734926D02*
X119928968Y-88830164D01*
X119928968Y-88830164D02*
X119928968Y-88973021D01*
X119928968Y-88973021D02*
X119976587Y-89068259D01*
X119976587Y-89068259D02*
X120024206Y-89115879D01*
X120024206Y-89115879D02*
X120119444Y-89163498D01*
X120119444Y-89163498D02*
X120500396Y-89163498D01*
X120500396Y-89163498D02*
X120500396Y-88163498D01*
X120500396Y-88163498D02*
X120167063Y-88163498D01*
X120167063Y-88163498D02*
X120071825Y-88211117D01*
X120071825Y-88211117D02*
X120024206Y-88258736D01*
X120024206Y-88258736D02*
X119976587Y-88353974D01*
X119976587Y-88353974D02*
X119976587Y-88449212D01*
X119976587Y-88449212D02*
X120024206Y-88544450D01*
X120024206Y-88544450D02*
X120071825Y-88592069D01*
X120071825Y-88592069D02*
X120167063Y-88639688D01*
X120167063Y-88639688D02*
X120500396Y-88639688D01*
X119071825Y-89163498D02*
X119071825Y-88639688D01*
X119071825Y-88639688D02*
X119119444Y-88544450D01*
X119119444Y-88544450D02*
X119214682Y-88496831D01*
X119214682Y-88496831D02*
X119405158Y-88496831D01*
X119405158Y-88496831D02*
X119500396Y-88544450D01*
X119071825Y-89115879D02*
X119167063Y-89163498D01*
X119167063Y-89163498D02*
X119405158Y-89163498D01*
X119405158Y-89163498D02*
X119500396Y-89115879D01*
X119500396Y-89115879D02*
X119548015Y-89020640D01*
X119548015Y-89020640D02*
X119548015Y-88925402D01*
X119548015Y-88925402D02*
X119500396Y-88830164D01*
X119500396Y-88830164D02*
X119405158Y-88782545D01*
X119405158Y-88782545D02*
X119167063Y-88782545D01*
X119167063Y-88782545D02*
X119071825Y-88734926D01*
X118167063Y-89163498D02*
X118167063Y-88163498D01*
X118167063Y-89115879D02*
X118262301Y-89163498D01*
X118262301Y-89163498D02*
X118452777Y-89163498D01*
X118452777Y-89163498D02*
X118548015Y-89115879D01*
X118548015Y-89115879D02*
X118595634Y-89068259D01*
X118595634Y-89068259D02*
X118643253Y-88973021D01*
X118643253Y-88973021D02*
X118643253Y-88687307D01*
X118643253Y-88687307D02*
X118595634Y-88592069D01*
X118595634Y-88592069D02*
X118548015Y-88544450D01*
X118548015Y-88544450D02*
X118452777Y-88496831D01*
X118452777Y-88496831D02*
X118262301Y-88496831D01*
X118262301Y-88496831D02*
X118167063Y-88544450D01*
X117262301Y-88496831D02*
X117262301Y-89306355D01*
X117262301Y-89306355D02*
X117309920Y-89401593D01*
X117309920Y-89401593D02*
X117357539Y-89449212D01*
X117357539Y-89449212D02*
X117452777Y-89496831D01*
X117452777Y-89496831D02*
X117595634Y-89496831D01*
X117595634Y-89496831D02*
X117690872Y-89449212D01*
X117262301Y-89115879D02*
X117357539Y-89163498D01*
X117357539Y-89163498D02*
X117548015Y-89163498D01*
X117548015Y-89163498D02*
X117643253Y-89115879D01*
X117643253Y-89115879D02*
X117690872Y-89068259D01*
X117690872Y-89068259D02*
X117738491Y-88973021D01*
X117738491Y-88973021D02*
X117738491Y-88687307D01*
X117738491Y-88687307D02*
X117690872Y-88592069D01*
X117690872Y-88592069D02*
X117643253Y-88544450D01*
X117643253Y-88544450D02*
X117548015Y-88496831D01*
X117548015Y-88496831D02*
X117357539Y-88496831D01*
X117357539Y-88496831D02*
X117262301Y-88544450D01*
X116405158Y-89115879D02*
X116500396Y-89163498D01*
X116500396Y-89163498D02*
X116690872Y-89163498D01*
X116690872Y-89163498D02*
X116786110Y-89115879D01*
X116786110Y-89115879D02*
X116833729Y-89020640D01*
X116833729Y-89020640D02*
X116833729Y-88639688D01*
X116833729Y-88639688D02*
X116786110Y-88544450D01*
X116786110Y-88544450D02*
X116690872Y-88496831D01*
X116690872Y-88496831D02*
X116500396Y-88496831D01*
X116500396Y-88496831D02*
X116405158Y-88544450D01*
X116405158Y-88544450D02*
X116357539Y-88639688D01*
X116357539Y-88639688D02*
X116357539Y-88734926D01*
X116357539Y-88734926D02*
X116833729Y-88830164D01*
X115928967Y-89068259D02*
X115881348Y-89115879D01*
X115881348Y-89115879D02*
X115928967Y-89163498D01*
X115928967Y-89163498D02*
X115976586Y-89115879D01*
X115976586Y-89115879D02*
X115928967Y-89068259D01*
X115928967Y-89068259D02*
X115928967Y-89163498D01*
X115024206Y-89115879D02*
X115119444Y-89163498D01*
X115119444Y-89163498D02*
X115309920Y-89163498D01*
X115309920Y-89163498D02*
X115405158Y-89115879D01*
X115405158Y-89115879D02*
X115452777Y-89068259D01*
X115452777Y-89068259D02*
X115500396Y-88973021D01*
X115500396Y-88973021D02*
X115500396Y-88687307D01*
X115500396Y-88687307D02*
X115452777Y-88592069D01*
X115452777Y-88592069D02*
X115405158Y-88544450D01*
X115405158Y-88544450D02*
X115309920Y-88496831D01*
X115309920Y-88496831D02*
X115119444Y-88496831D01*
X115119444Y-88496831D02*
X115024206Y-88544450D01*
X114452777Y-89163498D02*
X114548015Y-89115879D01*
X114548015Y-89115879D02*
X114595634Y-89068259D01*
X114595634Y-89068259D02*
X114643253Y-88973021D01*
X114643253Y-88973021D02*
X114643253Y-88687307D01*
X114643253Y-88687307D02*
X114595634Y-88592069D01*
X114595634Y-88592069D02*
X114548015Y-88544450D01*
X114548015Y-88544450D02*
X114452777Y-88496831D01*
X114452777Y-88496831D02*
X114309920Y-88496831D01*
X114309920Y-88496831D02*
X114214682Y-88544450D01*
X114214682Y-88544450D02*
X114167063Y-88592069D01*
X114167063Y-88592069D02*
X114119444Y-88687307D01*
X114119444Y-88687307D02*
X114119444Y-88973021D01*
X114119444Y-88973021D02*
X114167063Y-89068259D01*
X114167063Y-89068259D02*
X114214682Y-89115879D01*
X114214682Y-89115879D02*
X114309920Y-89163498D01*
X114309920Y-89163498D02*
X114452777Y-89163498D01*
X113690872Y-89163498D02*
X113690872Y-88496831D01*
X113690872Y-88592069D02*
X113643253Y-88544450D01*
X113643253Y-88544450D02*
X113548015Y-88496831D01*
X113548015Y-88496831D02*
X113405158Y-88496831D01*
X113405158Y-88496831D02*
X113309920Y-88544450D01*
X113309920Y-88544450D02*
X113262301Y-88639688D01*
X113262301Y-88639688D02*
X113262301Y-89163498D01*
X113262301Y-88639688D02*
X113214682Y-88544450D01*
X113214682Y-88544450D02*
X113119444Y-88496831D01*
X113119444Y-88496831D02*
X112976587Y-88496831D01*
X112976587Y-88496831D02*
X112881348Y-88544450D01*
X112881348Y-88544450D02*
X112833729Y-88639688D01*
X112833729Y-88639688D02*
X112833729Y-89163498D01*
X146242419Y-83718646D02*
X146242419Y-84337693D01*
X146242419Y-84337693D02*
X146623371Y-84004360D01*
X146623371Y-84004360D02*
X146623371Y-84147217D01*
X146623371Y-84147217D02*
X146670990Y-84242455D01*
X146670990Y-84242455D02*
X146718609Y-84290074D01*
X146718609Y-84290074D02*
X146813847Y-84337693D01*
X146813847Y-84337693D02*
X147051942Y-84337693D01*
X147051942Y-84337693D02*
X147147180Y-84290074D01*
X147147180Y-84290074D02*
X147194800Y-84242455D01*
X147194800Y-84242455D02*
X147242419Y-84147217D01*
X147242419Y-84147217D02*
X147242419Y-83861503D01*
X147242419Y-83861503D02*
X147194800Y-83766265D01*
X147194800Y-83766265D02*
X147147180Y-83718646D01*
X147147180Y-84766265D02*
X147194800Y-84813884D01*
X147194800Y-84813884D02*
X147242419Y-84766265D01*
X147242419Y-84766265D02*
X147194800Y-84718646D01*
X147194800Y-84718646D02*
X147147180Y-84766265D01*
X147147180Y-84766265D02*
X147242419Y-84766265D01*
X146242419Y-85147217D02*
X146242419Y-85766264D01*
X146242419Y-85766264D02*
X146623371Y-85432931D01*
X146623371Y-85432931D02*
X146623371Y-85575788D01*
X146623371Y-85575788D02*
X146670990Y-85671026D01*
X146670990Y-85671026D02*
X146718609Y-85718645D01*
X146718609Y-85718645D02*
X146813847Y-85766264D01*
X146813847Y-85766264D02*
X147051942Y-85766264D01*
X147051942Y-85766264D02*
X147147180Y-85718645D01*
X147147180Y-85718645D02*
X147194800Y-85671026D01*
X147194800Y-85671026D02*
X147242419Y-85575788D01*
X147242419Y-85575788D02*
X147242419Y-85290074D01*
X147242419Y-85290074D02*
X147194800Y-85194836D01*
X147194800Y-85194836D02*
X147147180Y-85147217D01*
X146575752Y-86099598D02*
X147242419Y-86337693D01*
X147242419Y-86337693D02*
X146575752Y-86575788D01*
X146390038Y-88137693D02*
X146342419Y-88042455D01*
X146342419Y-88042455D02*
X146342419Y-87899598D01*
X146342419Y-87899598D02*
X146390038Y-87756741D01*
X146390038Y-87756741D02*
X146485276Y-87661503D01*
X146485276Y-87661503D02*
X146580514Y-87613884D01*
X146580514Y-87613884D02*
X146770990Y-87566265D01*
X146770990Y-87566265D02*
X146913847Y-87566265D01*
X146913847Y-87566265D02*
X147104323Y-87613884D01*
X147104323Y-87613884D02*
X147199561Y-87661503D01*
X147199561Y-87661503D02*
X147294800Y-87756741D01*
X147294800Y-87756741D02*
X147342419Y-87899598D01*
X147342419Y-87899598D02*
X147342419Y-87994836D01*
X147342419Y-87994836D02*
X147294800Y-88137693D01*
X147294800Y-88137693D02*
X147247180Y-88185312D01*
X147247180Y-88185312D02*
X146913847Y-88185312D01*
X146913847Y-88185312D02*
X146913847Y-87994836D01*
X146675752Y-88613884D02*
X147342419Y-88613884D01*
X146770990Y-88613884D02*
X146723371Y-88661503D01*
X146723371Y-88661503D02*
X146675752Y-88756741D01*
X146675752Y-88756741D02*
X146675752Y-88899598D01*
X146675752Y-88899598D02*
X146723371Y-88994836D01*
X146723371Y-88994836D02*
X146818609Y-89042455D01*
X146818609Y-89042455D02*
X147342419Y-89042455D01*
X147342419Y-89947217D02*
X146342419Y-89947217D01*
X147294800Y-89947217D02*
X147342419Y-89851979D01*
X147342419Y-89851979D02*
X147342419Y-89661503D01*
X147342419Y-89661503D02*
X147294800Y-89566265D01*
X147294800Y-89566265D02*
X147247180Y-89518646D01*
X147247180Y-89518646D02*
X147151942Y-89471027D01*
X147151942Y-89471027D02*
X146866228Y-89471027D01*
X146866228Y-89471027D02*
X146770990Y-89518646D01*
X146770990Y-89518646D02*
X146723371Y-89566265D01*
X146723371Y-89566265D02*
X146675752Y-89661503D01*
X146675752Y-89661503D02*
X146675752Y-89851979D01*
X146675752Y-89851979D02*
X146723371Y-89947217D01*
G36*
X178245990Y-87819075D02*
G01*
X178155987Y-87851315D01*
X178114221Y-87888928D01*
X178101366Y-87915183D01*
X178091629Y-87955240D01*
X178084790Y-88094092D01*
X178084790Y-89277937D01*
X178091629Y-89416179D01*
X178113489Y-89483224D01*
X178155865Y-89521448D01*
X178245990Y-89552955D01*
X178245990Y-89620000D01*
X177751521Y-89620000D01*
X177534529Y-89613454D01*
X177385279Y-89596796D01*
X177252956Y-89564806D01*
X177142135Y-89518761D01*
X177024302Y-89441892D01*
X176927690Y-89347669D01*
X176867097Y-89264295D01*
X176815723Y-89166641D01*
X176773939Y-89052745D01*
X176745619Y-88934392D01*
X176727639Y-88799398D01*
X176722375Y-88671605D01*
X176999986Y-88671605D01*
X177004443Y-88806959D01*
X177017083Y-88925983D01*
X177039614Y-89038835D01*
X177071060Y-89137254D01*
X177113889Y-89227647D01*
X177166681Y-89305415D01*
X177230058Y-89371267D01*
X177299305Y-89419598D01*
X177376281Y-89454843D01*
X177463192Y-89479804D01*
X177556527Y-89493813D01*
X177668112Y-89498855D01*
X177829312Y-89493360D01*
X177829312Y-87878670D01*
X177653091Y-87873175D01*
X177520359Y-87882935D01*
X177405445Y-87910737D01*
X177305411Y-87955240D01*
X177217538Y-88018937D01*
X177142577Y-88104548D01*
X177079975Y-88215725D01*
X177037672Y-88337369D01*
X177010025Y-88487442D01*
X176999986Y-88671605D01*
X176722375Y-88671605D01*
X176721304Y-88645593D01*
X176728147Y-88493695D01*
X176747376Y-88363529D01*
X176777358Y-88252240D01*
X176821984Y-88146562D01*
X176878455Y-88055200D01*
X176946863Y-87976489D01*
X177026935Y-87909417D01*
X177119081Y-87853542D01*
X177224811Y-87808817D01*
X177336076Y-87779023D01*
X177475242Y-87759263D01*
X177647595Y-87752030D01*
X178245990Y-87752030D01*
X178245990Y-87819075D01*
G37*
G36*
X175134092Y-87789766D02*
G01*
X175134092Y-88166266D01*
X175269281Y-88166266D01*
X175308496Y-88056265D01*
X175352690Y-87978932D01*
X175408538Y-87918206D01*
X175470170Y-87879525D01*
X175541336Y-87857666D01*
X175631371Y-87849727D01*
X175721745Y-87860160D01*
X175804580Y-87891078D01*
X175882086Y-87943639D01*
X175946861Y-88012362D01*
X176004698Y-88104709D01*
X176054888Y-88225739D01*
X176088391Y-88352807D01*
X176110034Y-88503413D01*
X176117780Y-88681252D01*
X176111356Y-88860389D01*
X176093451Y-89011941D01*
X176065879Y-89139452D01*
X176022908Y-89262068D01*
X175971556Y-89355719D01*
X175912861Y-89425704D01*
X175840581Y-89479204D01*
X175758651Y-89511252D01*
X175664099Y-89522302D01*
X175558032Y-89513461D01*
X175481039Y-89490062D01*
X175416249Y-89448960D01*
X175361482Y-89387969D01*
X175317327Y-89308476D01*
X175269281Y-89182316D01*
X175134092Y-89182316D01*
X175134092Y-89574815D01*
X175263671Y-89604762D01*
X175397020Y-89626228D01*
X175534884Y-89638943D01*
X175692798Y-89643447D01*
X175831322Y-89633017D01*
X175950120Y-89603408D01*
X176052518Y-89556144D01*
X176141104Y-89491350D01*
X176217554Y-89407752D01*
X176289573Y-89287593D01*
X176345152Y-89135259D01*
X176381741Y-88943694D01*
X176395118Y-88704577D01*
X176384125Y-88510662D01*
X176352781Y-88340398D01*
X176302916Y-88190568D01*
X176230097Y-88051971D01*
X176139918Y-87939284D01*
X176031685Y-87849239D01*
X175907341Y-87783306D01*
X175766076Y-87742720D01*
X175604016Y-87728583D01*
X175374549Y-87741528D01*
X175266124Y-87759198D01*
X175134092Y-87789766D01*
G37*
G36*
X174765530Y-88142819D02*
G01*
X174765530Y-87880746D01*
X174608098Y-87812164D01*
X174469141Y-87766318D01*
X174331757Y-87737768D01*
X174202672Y-87728583D01*
X174054360Y-87741245D01*
X173932173Y-87776699D01*
X173859073Y-87814479D01*
X173800542Y-87860413D01*
X173754609Y-87914696D01*
X173720954Y-87977186D01*
X173700262Y-88048134D01*
X173693060Y-88129508D01*
X173705145Y-88241181D01*
X173739588Y-88334794D01*
X173794870Y-88417058D01*
X173870013Y-88489277D01*
X173961808Y-88551732D01*
X174087878Y-88618360D01*
X174087878Y-88630083D01*
X174006197Y-88650422D01*
X173927411Y-88681496D01*
X173854298Y-88723220D01*
X173790146Y-88775286D01*
X173736271Y-88838001D01*
X173693792Y-88912916D01*
X173666944Y-88996911D01*
X173657522Y-89095732D01*
X173665524Y-89199751D01*
X173688707Y-89293185D01*
X173726521Y-89377833D01*
X173779623Y-89453033D01*
X173849226Y-89517642D01*
X173937669Y-89572250D01*
X174034865Y-89610524D01*
X174149009Y-89634821D01*
X174283272Y-89643447D01*
X174402669Y-89637130D01*
X174536674Y-89617069D01*
X174669071Y-89585860D01*
X174786046Y-89547337D01*
X174786046Y-89260474D01*
X174622037Y-89260474D01*
X174584054Y-89350969D01*
X174541772Y-89417463D01*
X174495764Y-89464661D01*
X174440012Y-89498634D01*
X174369992Y-89520316D01*
X174281929Y-89528164D01*
X174167521Y-89516026D01*
X174080128Y-89482766D01*
X174013384Y-89430345D01*
X173965282Y-89359588D01*
X173934059Y-89265390D01*
X173922526Y-89140673D01*
X173930912Y-89041024D01*
X173954429Y-88958613D01*
X173991687Y-88890162D01*
X174042815Y-88833293D01*
X174129148Y-88777134D01*
X174243826Y-88740564D01*
X174395258Y-88727048D01*
X174518234Y-88727048D01*
X174518234Y-88611765D01*
X174396342Y-88598057D01*
X174293664Y-88573875D01*
X174207435Y-88540568D01*
X174127635Y-88494734D01*
X174065913Y-88443216D01*
X174019612Y-88385963D01*
X173985529Y-88320646D01*
X173965041Y-88250361D01*
X173958063Y-88173715D01*
X173968018Y-88075563D01*
X173995433Y-87999215D01*
X174038663Y-87939731D01*
X174097434Y-87895750D01*
X174174005Y-87867758D01*
X174273747Y-87857543D01*
X174356699Y-87865932D01*
X174425347Y-87889634D01*
X174482697Y-87927885D01*
X174529290Y-87979526D01*
X174569207Y-88049715D01*
X174601643Y-88142819D01*
X174765530Y-88142819D01*
G37*
G36*
X173328161Y-88957613D02*
G01*
X173328161Y-89057264D01*
X172568443Y-89057264D01*
X172568443Y-89280136D01*
X172577358Y-89429734D01*
X172591797Y-89474173D01*
X172614972Y-89505205D01*
X172651783Y-89527936D01*
X172728300Y-89553443D01*
X172728300Y-89620000D01*
X172173625Y-89620000D01*
X172173625Y-89553077D01*
X172264483Y-89520593D01*
X172306859Y-89479804D01*
X172327376Y-89413126D01*
X172333482Y-89280013D01*
X172333482Y-89057264D01*
X172005586Y-89057264D01*
X171989221Y-88775896D01*
X172093025Y-88775896D01*
X172114815Y-88838865D01*
X172134790Y-88874448D01*
X172160315Y-88900063D01*
X172191454Y-88916458D01*
X172231195Y-88924711D01*
X172304783Y-88928304D01*
X172333482Y-88928304D01*
X172333482Y-88060753D01*
X172554766Y-88060753D01*
X172564413Y-88300600D01*
X172568443Y-88588073D01*
X172568443Y-88928304D01*
X173102725Y-88928304D01*
X173102725Y-88909131D01*
X172568443Y-88060753D01*
X172554766Y-88060753D01*
X172333482Y-88060753D01*
X172333482Y-87752030D01*
X172528876Y-87752030D01*
X173328161Y-88957613D01*
G37*
G36*
X134451642Y-87780920D02*
G01*
X134263202Y-87780920D01*
X134112265Y-87441449D01*
X133548994Y-87441449D01*
X133393868Y-87780920D01*
X133204405Y-87780920D01*
X133426883Y-87292559D01*
X133617762Y-87292559D01*
X134044520Y-87292559D01*
X133831141Y-86820669D01*
X133617762Y-87292559D01*
X133426883Y-87292559D01*
X133831141Y-86405172D01*
X134451642Y-87780920D01*
G37*
G36*
X133011685Y-87780920D02*
G01*
X132794119Y-87780920D01*
X132662944Y-87773453D01*
X132552235Y-87752537D01*
X132458899Y-87719894D01*
X132380297Y-87676510D01*
X132310750Y-87618147D01*
X132263444Y-87553896D01*
X132235343Y-87482488D01*
X132225730Y-87401528D01*
X132226961Y-87389803D01*
X132413146Y-87389803D01*
X132421551Y-87438949D01*
X132448396Y-87489797D01*
X132498572Y-87544370D01*
X132542373Y-87573556D01*
X132605924Y-87597319D01*
X132695365Y-87613818D01*
X132818035Y-87620118D01*
X132832645Y-87620118D01*
X132832645Y-87161535D01*
X132771227Y-87161535D01*
X132661493Y-87169419D01*
X132575655Y-87190876D01*
X132508901Y-87223604D01*
X132454601Y-87270982D01*
X132423639Y-87325471D01*
X132413146Y-87389803D01*
X132226961Y-87389803D01*
X132233719Y-87325422D01*
X132256866Y-87258756D01*
X132295208Y-87199425D01*
X132350439Y-87146140D01*
X132425746Y-87098562D01*
X132525558Y-87057312D01*
X132435423Y-86992126D01*
X132376626Y-86924107D01*
X132343068Y-86852236D01*
X132334856Y-86794706D01*
X132523418Y-86794706D01*
X132532504Y-86857899D01*
X132558684Y-86909746D01*
X132603074Y-86953089D01*
X132659176Y-86983360D01*
X132733981Y-87003970D01*
X132832645Y-87012645D01*
X132832645Y-86603848D01*
X132787884Y-86601707D01*
X132708881Y-86608228D01*
X132645737Y-86626228D01*
X132595257Y-86654284D01*
X132555003Y-86693717D01*
X132531497Y-86739755D01*
X132523418Y-86794706D01*
X132334856Y-86794706D01*
X132331907Y-86774048D01*
X132339900Y-86708340D01*
X132363492Y-86649162D01*
X132403619Y-86594680D01*
X132463117Y-86543919D01*
X132530135Y-86505575D01*
X132607607Y-86477141D01*
X132697315Y-86459165D01*
X132801378Y-86452817D01*
X133011685Y-86452817D01*
X133011685Y-87780920D01*
G37*
G36*
X131986295Y-86452817D02*
G01*
X131251242Y-86452817D01*
X131251242Y-86631485D01*
X131807162Y-86631485D01*
X131807162Y-86965000D01*
X131251242Y-86965000D01*
X131251242Y-87143668D01*
X131807162Y-87143668D01*
X131807162Y-87602251D01*
X131251242Y-87602251D01*
X131251242Y-87780920D01*
X131986295Y-87780920D01*
X131986295Y-86452817D01*
G37*
G36*
X131119381Y-86452817D02*
G01*
X130308393Y-86452817D01*
X130308393Y-86631485D01*
X130624878Y-86631485D01*
X130624878Y-87780920D01*
X130803919Y-87780920D01*
X130803919Y-86631485D01*
X131119381Y-86631485D01*
X131119381Y-86452817D01*
G37*
G36*
X130098365Y-86452817D02*
G01*
X129917184Y-86452817D01*
X129917184Y-86965000D01*
X129283189Y-86965000D01*
X129283189Y-86452817D01*
X129104149Y-86452817D01*
X129104149Y-87780920D01*
X129283189Y-87780920D01*
X129283189Y-87143668D01*
X129917184Y-87143668D01*
X129917184Y-87780920D01*
X130098365Y-87780920D01*
X130098365Y-86452817D01*
G37*
G36*
X128810462Y-86798243D02*
G01*
X128859410Y-86511629D01*
X128859410Y-86256281D01*
X128643891Y-86256281D01*
X128643891Y-86511629D01*
X128694886Y-86798243D01*
X128810462Y-86798243D01*
G37*
G36*
X127600262Y-86603196D02*
G01*
X127747105Y-86720820D01*
X127805534Y-86663190D01*
X127852725Y-86626739D01*
X127906526Y-86604470D01*
X127989704Y-86595752D01*
X128053536Y-86601202D01*
X128105691Y-86616412D01*
X128148458Y-86640419D01*
X128182832Y-86673794D01*
X128202611Y-86711559D01*
X128209317Y-86755437D01*
X128203648Y-86793779D01*
X128186510Y-86829291D01*
X128156275Y-86863196D01*
X128092240Y-86907463D01*
X127975094Y-86964628D01*
X127855072Y-87020660D01*
X127775767Y-87066618D01*
X127709649Y-87117306D01*
X127658609Y-87170934D01*
X127618256Y-87230175D01*
X127590398Y-87291256D01*
X127573647Y-87355961D01*
X127567972Y-87425164D01*
X127575599Y-87505186D01*
X127597924Y-87577718D01*
X127635029Y-87644403D01*
X127688201Y-87706381D01*
X127751821Y-87757459D01*
X127820671Y-87793395D01*
X127895921Y-87815151D01*
X127979188Y-87822609D01*
X128087297Y-87812209D01*
X128184572Y-87781852D01*
X128273340Y-87731506D01*
X128349437Y-87663344D01*
X128414902Y-87573580D01*
X128469596Y-87458199D01*
X128288415Y-87405716D01*
X128240930Y-87494988D01*
X128187482Y-87559181D01*
X128128085Y-87602945D01*
X128061510Y-87629030D01*
X127985423Y-87637985D01*
X127921829Y-87631079D01*
X127867708Y-87611271D01*
X127820992Y-87578708D01*
X127784469Y-87535604D01*
X127762831Y-87486377D01*
X127755387Y-87428980D01*
X127763596Y-87375999D01*
X127789725Y-87320383D01*
X127828446Y-87270368D01*
X127875151Y-87230397D01*
X127934601Y-87195493D01*
X128038093Y-87147577D01*
X128142726Y-87099581D01*
X128209876Y-87062058D01*
X128265912Y-87020171D01*
X128313447Y-86971421D01*
X128352143Y-86917540D01*
X128377470Y-86866639D01*
X128392609Y-86813106D01*
X128397757Y-86755064D01*
X128390621Y-86686409D01*
X128369629Y-86623896D01*
X128334406Y-86565998D01*
X128283297Y-86511722D01*
X128223292Y-86467908D01*
X128157747Y-86436727D01*
X128085552Y-86417687D01*
X128005244Y-86411127D01*
X127897749Y-86422688D01*
X127785631Y-86458679D01*
X127715400Y-86495885D01*
X127653900Y-86543813D01*
X127600262Y-86603196D01*
G37*
G36*
X126713340Y-87780920D02*
G01*
X126534300Y-87780920D01*
X126534300Y-87221091D01*
X126381813Y-87213925D01*
X126260613Y-87191361D01*
X126165039Y-87156296D01*
X126090327Y-87110447D01*
X126024546Y-87048117D01*
X125979666Y-86981330D01*
X125953074Y-86908886D01*
X125944493Y-86832767D01*
X126133505Y-86832767D01*
X126140115Y-86892708D01*
X126158726Y-86941350D01*
X126188863Y-86981209D01*
X126231866Y-87013668D01*
X126300244Y-87042574D01*
X126398089Y-87063235D01*
X126534300Y-87072201D01*
X126534300Y-86601707D01*
X126399917Y-86607798D01*
X126307354Y-86623332D01*
X126246239Y-86644902D01*
X126207951Y-86670290D01*
X126165953Y-86719822D01*
X126141668Y-86773359D01*
X126133505Y-86832767D01*
X125944493Y-86832767D01*
X125944042Y-86828765D01*
X125952802Y-86748735D01*
X125978306Y-86678126D01*
X126020829Y-86614753D01*
X126082510Y-86557319D01*
X126153688Y-86513337D01*
X126236654Y-86480749D01*
X126333517Y-86460121D01*
X126446827Y-86452817D01*
X126713340Y-86452817D01*
X126713340Y-87780920D01*
G37*
G36*
X125127960Y-86419576D02*
G01*
X125238570Y-86444287D01*
X125341441Y-86484878D01*
X125437826Y-86541724D01*
X125528638Y-86615945D01*
X125608057Y-86702993D01*
X125668189Y-86794626D01*
X125710714Y-86891692D01*
X125736424Y-86995444D01*
X125745180Y-87107469D01*
X125736442Y-87224180D01*
X125710868Y-87331704D01*
X125668760Y-87431666D01*
X125609545Y-87525362D01*
X125531802Y-87613697D01*
X125442012Y-87689470D01*
X125346485Y-87747434D01*
X125244293Y-87788801D01*
X125134135Y-87813991D01*
X125014408Y-87822609D01*
X124892674Y-87813981D01*
X124781318Y-87788833D01*
X124678666Y-87747670D01*
X124583355Y-87690185D01*
X124494408Y-87615279D01*
X124417446Y-87527682D01*
X124358678Y-87434234D01*
X124316774Y-87334000D01*
X124291256Y-87225637D01*
X124283289Y-87117892D01*
X124475052Y-87117892D01*
X124484850Y-87220611D01*
X124513644Y-87314628D01*
X124561685Y-87401948D01*
X124630735Y-87483976D01*
X124713359Y-87552130D01*
X124801539Y-87599685D01*
X124896694Y-87628251D01*
X125000821Y-87637985D01*
X125115001Y-87628185D01*
X125217353Y-87599732D01*
X125310110Y-87553033D01*
X125394916Y-87487140D01*
X125466017Y-87406413D01*
X125515623Y-87319115D01*
X125545495Y-87223697D01*
X125555717Y-87117892D01*
X125545801Y-87013551D01*
X125516735Y-86918628D01*
X125468370Y-86831029D01*
X125399010Y-86749295D01*
X125315930Y-86681590D01*
X125226601Y-86634147D01*
X125129543Y-86605533D01*
X125022690Y-86595752D01*
X124909575Y-86605561D01*
X124808387Y-86634027D01*
X124716861Y-86680742D01*
X124633341Y-86746689D01*
X124563568Y-86827197D01*
X124514704Y-86914725D01*
X124485180Y-87010860D01*
X124475052Y-87117892D01*
X124283289Y-87117892D01*
X124282518Y-87107469D01*
X124291153Y-86996729D01*
X124316553Y-86893712D01*
X124358639Y-86796897D01*
X124418233Y-86705080D01*
X124497013Y-86617434D01*
X124587203Y-86542351D01*
X124682370Y-86485061D01*
X124783385Y-86444301D01*
X124891458Y-86419564D01*
X125008080Y-86411127D01*
X125127960Y-86419576D01*
G37*
G36*
X124018144Y-87780920D02*
G01*
X123836963Y-87780920D01*
X123836963Y-87227047D01*
X123796391Y-87227047D01*
X123427887Y-87780920D01*
X123220650Y-87780920D01*
X123606928Y-87205830D01*
X123487731Y-87168952D01*
X123398851Y-87121008D01*
X123334179Y-87063268D01*
X123285319Y-86991833D01*
X123256475Y-86914751D01*
X123248431Y-86844864D01*
X123436169Y-86844864D01*
X123445944Y-86914248D01*
X123473728Y-86969393D01*
X123520392Y-87013886D01*
X123590770Y-87048602D01*
X123692850Y-87071527D01*
X123836963Y-87078157D01*
X123836963Y-86613618D01*
X123695122Y-86619270D01*
X123607951Y-86632974D01*
X123536757Y-86661513D01*
X123483069Y-86706210D01*
X123457526Y-86744519D01*
X123441741Y-86790093D01*
X123436169Y-86844864D01*
X123248431Y-86844864D01*
X123246706Y-86829882D01*
X123255232Y-86750519D01*
X123280088Y-86680117D01*
X123321529Y-86616603D01*
X123381545Y-86558715D01*
X123451177Y-86513813D01*
X123531280Y-86480833D01*
X123623717Y-86460112D01*
X123730786Y-86452817D01*
X124018144Y-86452817D01*
X124018144Y-87780920D01*
G37*
G36*
X123061430Y-86452817D02*
G01*
X122250443Y-86452817D01*
X122250443Y-86631485D01*
X122566928Y-86631485D01*
X122566928Y-87780920D01*
X122745969Y-87780920D01*
X122745969Y-86631485D01*
X123061430Y-86631485D01*
X123061430Y-86452817D01*
G37*
G36*
X122193492Y-87780920D02*
G01*
X122005053Y-87780920D01*
X121854115Y-87441449D01*
X121290844Y-87441449D01*
X121135719Y-87780920D01*
X120946255Y-87780920D01*
X121168733Y-87292559D01*
X121359613Y-87292559D01*
X121786370Y-87292559D01*
X121572991Y-86820669D01*
X121359613Y-87292559D01*
X121168733Y-87292559D01*
X121572991Y-86405172D01*
X122193492Y-87780920D01*
G37*
G36*
X120774380Y-86452817D02*
G01*
X120595339Y-86452817D01*
X120595339Y-87602251D01*
X120163278Y-87602251D01*
X120163278Y-87780920D01*
X120774380Y-87780920D01*
X120774380Y-86452817D01*
G37*
G36*
X118110358Y-86667219D02*
G01*
X118244638Y-86798243D01*
X118330756Y-86723582D01*
X118419872Y-86667252D01*
X118512734Y-86627619D01*
X118610403Y-86603809D01*
X118714202Y-86595752D01*
X118828457Y-86605627D01*
X118929761Y-86634173D01*
X119020530Y-86680838D01*
X119102527Y-86746503D01*
X119170487Y-86826674D01*
X119218429Y-86914914D01*
X119247594Y-87012921D01*
X119257652Y-87123103D01*
X119248441Y-87218624D01*
X119221013Y-87308841D01*
X119174642Y-87395401D01*
X119107272Y-87479509D01*
X119027292Y-87547251D01*
X118933463Y-87596363D01*
X118823051Y-87627113D01*
X118692333Y-87637985D01*
X118578355Y-87629837D01*
X118482546Y-87606941D01*
X118401828Y-87570841D01*
X118333756Y-87521977D01*
X118276684Y-87459653D01*
X118229892Y-87382100D01*
X118193643Y-87286603D01*
X118551818Y-87286603D01*
X118551818Y-87107935D01*
X117986500Y-87107935D01*
X117991662Y-87237132D01*
X118004739Y-87325036D01*
X118031209Y-87406607D01*
X118080208Y-87503704D01*
X118146194Y-87595400D01*
X118232727Y-87678743D01*
X118332278Y-87745622D01*
X118436800Y-87789388D01*
X118551321Y-87813676D01*
X118696521Y-87822609D01*
X118833799Y-87813223D01*
X118955044Y-87786298D01*
X119062698Y-87742986D01*
X119158747Y-87683478D01*
X119244624Y-87606997D01*
X119319919Y-87515915D01*
X119376842Y-87421945D01*
X119416935Y-87324325D01*
X119441020Y-87222007D01*
X119449162Y-87113704D01*
X119440594Y-86999060D01*
X119415516Y-86893434D01*
X119374230Y-86795234D01*
X119316177Y-86703188D01*
X119239971Y-86616410D01*
X119151914Y-86541928D01*
X119058265Y-86484969D01*
X118958113Y-86444331D01*
X118850184Y-86419591D01*
X118732906Y-86411127D01*
X118615878Y-86417403D01*
X118508545Y-86435634D01*
X118409721Y-86465193D01*
X118316604Y-86508731D01*
X118217243Y-86574720D01*
X118110358Y-86667219D01*
G37*
G36*
X117754417Y-86452817D02*
G01*
X117573329Y-86452817D01*
X117573329Y-87265945D01*
X117567102Y-87356803D01*
X117549752Y-87431925D01*
X117522676Y-87494030D01*
X117486414Y-87545300D01*
X117439756Y-87587492D01*
X117384442Y-87618023D01*
X117318730Y-87637156D01*
X117240186Y-87643940D01*
X117161641Y-87637632D01*
X117095873Y-87619877D01*
X117040559Y-87591703D01*
X116993959Y-87553117D01*
X116956851Y-87505330D01*
X116929493Y-87448091D01*
X116912125Y-87379504D01*
X116905927Y-87297119D01*
X116905927Y-86452817D01*
X116724839Y-86452817D01*
X116724839Y-87287162D01*
X116734348Y-87407981D01*
X116761336Y-87511276D01*
X116804489Y-87600104D01*
X116863866Y-87676789D01*
X116937776Y-87739695D01*
X117022528Y-87784838D01*
X117120243Y-87812808D01*
X117233858Y-87822609D01*
X117350163Y-87812655D01*
X117450146Y-87784263D01*
X117536806Y-87738475D01*
X117612319Y-87674742D01*
X117671392Y-87597212D01*
X117715620Y-87501390D01*
X117744122Y-87383373D01*
X117754417Y-87238214D01*
X117754417Y-86452817D01*
G37*
G36*
X116470702Y-86399216D02*
G01*
X115489979Y-87403110D01*
X115489979Y-86452817D01*
X115308891Y-86452817D01*
X115308891Y-87840476D01*
X116289521Y-86836675D01*
X116289521Y-87780920D01*
X116470702Y-87780920D01*
X116470702Y-86399216D01*
G37*
G36*
X113640295Y-86603196D02*
G01*
X113787138Y-86720820D01*
X113845566Y-86663190D01*
X113892757Y-86626739D01*
X113946558Y-86604470D01*
X114029736Y-86595752D01*
X114093568Y-86601202D01*
X114145723Y-86616412D01*
X114188491Y-86640419D01*
X114222864Y-86673794D01*
X114242643Y-86711559D01*
X114249350Y-86755437D01*
X114243680Y-86793779D01*
X114226542Y-86829291D01*
X114196307Y-86863196D01*
X114132272Y-86907463D01*
X114015126Y-86964628D01*
X113895105Y-87020660D01*
X113815799Y-87066618D01*
X113749682Y-87117306D01*
X113698641Y-87170934D01*
X113658289Y-87230175D01*
X113630431Y-87291256D01*
X113613680Y-87355961D01*
X113608004Y-87425164D01*
X113615632Y-87505186D01*
X113637957Y-87577718D01*
X113675061Y-87644403D01*
X113728233Y-87706381D01*
X113791853Y-87757459D01*
X113860703Y-87793395D01*
X113935953Y-87815151D01*
X114019221Y-87822609D01*
X114127330Y-87812209D01*
X114224604Y-87781852D01*
X114313372Y-87731506D01*
X114389469Y-87663344D01*
X114454934Y-87573580D01*
X114509629Y-87458199D01*
X114328448Y-87405716D01*
X114280963Y-87494988D01*
X114227514Y-87559181D01*
X114168118Y-87602945D01*
X114101543Y-87629030D01*
X114025456Y-87637985D01*
X113961861Y-87631079D01*
X113907741Y-87611271D01*
X113861025Y-87578708D01*
X113824501Y-87535604D01*
X113802863Y-87486377D01*
X113795420Y-87428980D01*
X113803629Y-87375999D01*
X113829758Y-87320383D01*
X113868479Y-87270368D01*
X113915184Y-87230397D01*
X113974633Y-87195493D01*
X114078126Y-87147577D01*
X114182759Y-87099581D01*
X114249908Y-87062058D01*
X114305945Y-87020171D01*
X114353480Y-86971421D01*
X114392175Y-86917540D01*
X114417503Y-86866639D01*
X114432641Y-86813106D01*
X114437789Y-86755064D01*
X114430654Y-86686409D01*
X114409661Y-86623896D01*
X114374439Y-86565998D01*
X114323330Y-86511722D01*
X114263324Y-86467908D01*
X114197779Y-86436727D01*
X114125584Y-86417687D01*
X114045277Y-86411127D01*
X113937782Y-86422688D01*
X113825663Y-86458679D01*
X113755433Y-86495885D01*
X113693932Y-86543813D01*
X113640295Y-86603196D01*
G37*
G36*
X113510202Y-87780920D02*
G01*
X113321762Y-87780920D01*
X113170824Y-87441449D01*
X112607553Y-87441449D01*
X112452428Y-87780920D01*
X112262965Y-87780920D01*
X112485443Y-87292559D01*
X112676322Y-87292559D01*
X113103079Y-87292559D01*
X112889701Y-86820669D01*
X112676322Y-87292559D01*
X112485443Y-87292559D01*
X112889701Y-86405172D01*
X113510202Y-87780920D01*
G37*
G36*
X111577441Y-86419576D02*
G01*
X111688051Y-86444287D01*
X111790922Y-86484878D01*
X111887307Y-86541724D01*
X111978119Y-86615945D01*
X112057538Y-86702993D01*
X112117670Y-86794626D01*
X112160195Y-86891692D01*
X112185905Y-86995444D01*
X112194662Y-87107469D01*
X112185924Y-87224180D01*
X112160349Y-87331704D01*
X112118241Y-87431666D01*
X112059026Y-87525362D01*
X111981283Y-87613697D01*
X111891493Y-87689470D01*
X111795967Y-87747434D01*
X111693774Y-87788801D01*
X111583616Y-87813991D01*
X111463889Y-87822609D01*
X111342155Y-87813981D01*
X111230800Y-87788833D01*
X111128147Y-87747670D01*
X111032837Y-87690185D01*
X110943889Y-87615279D01*
X110866928Y-87527682D01*
X110808159Y-87434234D01*
X110766255Y-87334000D01*
X110740737Y-87225637D01*
X110732770Y-87117892D01*
X110924533Y-87117892D01*
X110934331Y-87220611D01*
X110963125Y-87314628D01*
X111011166Y-87401948D01*
X111080217Y-87483976D01*
X111162840Y-87552130D01*
X111251020Y-87599685D01*
X111346175Y-87628251D01*
X111450302Y-87637985D01*
X111564482Y-87628185D01*
X111666834Y-87599732D01*
X111759591Y-87553033D01*
X111844397Y-87487140D01*
X111915498Y-87406413D01*
X111965104Y-87319115D01*
X111994976Y-87223697D01*
X112005198Y-87117892D01*
X111995282Y-87013551D01*
X111966216Y-86918628D01*
X111917851Y-86831029D01*
X111848491Y-86749295D01*
X111765412Y-86681590D01*
X111676082Y-86634147D01*
X111579024Y-86605533D01*
X111472171Y-86595752D01*
X111359056Y-86605561D01*
X111257868Y-86634027D01*
X111166342Y-86680742D01*
X111082822Y-86746689D01*
X111013049Y-86827197D01*
X110964185Y-86914725D01*
X110934661Y-87010860D01*
X110924533Y-87117892D01*
X110732770Y-87117892D01*
X110731999Y-87107469D01*
X110740634Y-86996729D01*
X110766034Y-86893712D01*
X110808121Y-86796897D01*
X110867714Y-86705080D01*
X110946494Y-86617434D01*
X111036684Y-86542351D01*
X111131851Y-86485061D01*
X111232866Y-86444301D01*
X111340939Y-86419564D01*
X111457561Y-86411127D01*
X111577441Y-86419576D01*
G37*
D12*
X131008632Y-74909690D02*
X131468597Y-74786443D01*
X131468597Y-74786443D02*
X131209778Y-73820517D01*
X130551085Y-74490002D02*
X130229109Y-74576275D01*
X130226692Y-75119210D02*
X130686657Y-74995963D01*
X130686657Y-74995963D02*
X130427838Y-74030037D01*
X130427838Y-74030037D02*
X129967873Y-74153285D01*
X129812724Y-75230133D02*
X129553905Y-74264207D01*
X129553905Y-74264207D02*
X129323922Y-74325831D01*
X129323922Y-74325831D02*
X129198257Y-74408801D01*
X129198257Y-74408801D02*
X129130914Y-74525444D01*
X129130914Y-74525444D02*
X129109567Y-74629761D01*
X129109567Y-74629761D02*
X129112869Y-74826072D01*
X129112869Y-74826072D02*
X129149844Y-74964061D01*
X129149844Y-74964061D02*
X129245139Y-75135722D01*
X129245139Y-75135722D02*
X129315785Y-75215391D01*
X129315785Y-75215391D02*
X129432427Y-75282734D01*
X129432427Y-75282734D02*
X129582741Y-75291756D01*
X129582741Y-75291756D02*
X129812724Y-75230133D01*
X128260283Y-74955924D02*
X128432830Y-75599874D01*
X128391668Y-74526329D02*
X128806521Y-75154652D01*
X128806521Y-75154652D02*
X128208567Y-75314873D01*
X192459819Y-80660952D02*
X192459819Y-80184762D01*
X192459819Y-80184762D02*
X191459819Y-80184762D01*
X191936009Y-80994286D02*
X191936009Y-81327619D01*
X192459819Y-81470476D02*
X192459819Y-80994286D01*
X192459819Y-80994286D02*
X191459819Y-80994286D01*
X191459819Y-80994286D02*
X191459819Y-81470476D01*
X192459819Y-81899048D02*
X191459819Y-81899048D01*
X191459819Y-81899048D02*
X191459819Y-82137143D01*
X191459819Y-82137143D02*
X191507438Y-82280000D01*
X191507438Y-82280000D02*
X191602676Y-82375238D01*
X191602676Y-82375238D02*
X191697914Y-82422857D01*
X191697914Y-82422857D02*
X191888390Y-82470476D01*
X191888390Y-82470476D02*
X192031247Y-82470476D01*
X192031247Y-82470476D02*
X192221723Y-82422857D01*
X192221723Y-82422857D02*
X192316961Y-82375238D01*
X192316961Y-82375238D02*
X192412200Y-82280000D01*
X192412200Y-82280000D02*
X192459819Y-82137143D01*
X192459819Y-82137143D02*
X192459819Y-81899048D01*
X192459819Y-83422857D02*
X192459819Y-82851429D01*
X192459819Y-83137143D02*
X191459819Y-83137143D01*
X191459819Y-83137143D02*
X191602676Y-83041905D01*
X191602676Y-83041905D02*
X191697914Y-82946667D01*
X191697914Y-82946667D02*
X191745533Y-82851429D01*
X169524122Y-83142591D02*
X169860840Y-82805874D01*
X169860840Y-82805874D02*
X169153733Y-82098767D01*
X168918030Y-83007904D02*
X168682328Y-83243607D01*
X168951702Y-83715011D02*
X169288420Y-83378294D01*
X169288420Y-83378294D02*
X168581313Y-82671187D01*
X168581313Y-82671187D02*
X168244595Y-83007904D01*
X168648656Y-84018057D02*
X167941550Y-83310950D01*
X167941550Y-83310950D02*
X167773191Y-83479309D01*
X167773191Y-83479309D02*
X167705847Y-83613996D01*
X167705847Y-83613996D02*
X167705847Y-83748683D01*
X167705847Y-83748683D02*
X167739519Y-83849698D01*
X167739519Y-83849698D02*
X167840534Y-84018057D01*
X167840534Y-84018057D02*
X167941550Y-84119072D01*
X167941550Y-84119072D02*
X168109908Y-84220087D01*
X168109908Y-84220087D02*
X168210924Y-84253759D01*
X168210924Y-84253759D02*
X168345611Y-84253759D01*
X168345611Y-84253759D02*
X168480298Y-84186416D01*
X168480298Y-84186416D02*
X168648656Y-84018057D01*
X167335458Y-84051729D02*
X167268115Y-84051729D01*
X167268115Y-84051729D02*
X167167099Y-84085400D01*
X167167099Y-84085400D02*
X166998740Y-84253759D01*
X166998740Y-84253759D02*
X166965069Y-84354774D01*
X166965069Y-84354774D02*
X166965069Y-84422118D01*
X166965069Y-84422118D02*
X166998740Y-84523133D01*
X166998740Y-84523133D02*
X167066084Y-84590477D01*
X167066084Y-84590477D02*
X167200771Y-84657820D01*
X167200771Y-84657820D02*
X168008893Y-84657820D01*
X168008893Y-84657820D02*
X167571160Y-85095553D01*
X121159819Y-79323095D02*
X121969342Y-79323095D01*
X121969342Y-79323095D02*
X122064580Y-79370714D01*
X122064580Y-79370714D02*
X122112200Y-79418333D01*
X122112200Y-79418333D02*
X122159819Y-79513571D01*
X122159819Y-79513571D02*
X122159819Y-79704047D01*
X122159819Y-79704047D02*
X122112200Y-79799285D01*
X122112200Y-79799285D02*
X122064580Y-79846904D01*
X122064580Y-79846904D02*
X121969342Y-79894523D01*
X121969342Y-79894523D02*
X121159819Y-79894523D01*
X122159819Y-80894523D02*
X122159819Y-80323095D01*
X122159819Y-80608809D02*
X121159819Y-80608809D01*
X121159819Y-80608809D02*
X121302676Y-80513571D01*
X121302676Y-80513571D02*
X121397914Y-80418333D01*
X121397914Y-80418333D02*
X121445533Y-80323095D01*
X142154819Y-86043333D02*
X141678628Y-85710000D01*
X142154819Y-85471905D02*
X141154819Y-85471905D01*
X141154819Y-85471905D02*
X141154819Y-85852857D01*
X141154819Y-85852857D02*
X141202438Y-85948095D01*
X141202438Y-85948095D02*
X141250057Y-85995714D01*
X141250057Y-85995714D02*
X141345295Y-86043333D01*
X141345295Y-86043333D02*
X141488152Y-86043333D01*
X141488152Y-86043333D02*
X141583390Y-85995714D01*
X141583390Y-85995714D02*
X141631009Y-85948095D01*
X141631009Y-85948095D02*
X141678628Y-85852857D01*
X141678628Y-85852857D02*
X141678628Y-85471905D01*
X142154819Y-86995714D02*
X142154819Y-86424286D01*
X142154819Y-86710000D02*
X141154819Y-86710000D01*
X141154819Y-86710000D02*
X141297676Y-86614762D01*
X141297676Y-86614762D02*
X141392914Y-86519524D01*
X141392914Y-86519524D02*
X141440533Y-86424286D01*
X127839580Y-83963333D02*
X127887200Y-83915714D01*
X127887200Y-83915714D02*
X127934819Y-83772857D01*
X127934819Y-83772857D02*
X127934819Y-83677619D01*
X127934819Y-83677619D02*
X127887200Y-83534762D01*
X127887200Y-83534762D02*
X127791961Y-83439524D01*
X127791961Y-83439524D02*
X127696723Y-83391905D01*
X127696723Y-83391905D02*
X127506247Y-83344286D01*
X127506247Y-83344286D02*
X127363390Y-83344286D01*
X127363390Y-83344286D02*
X127172914Y-83391905D01*
X127172914Y-83391905D02*
X127077676Y-83439524D01*
X127077676Y-83439524D02*
X126982438Y-83534762D01*
X126982438Y-83534762D02*
X126934819Y-83677619D01*
X126934819Y-83677619D02*
X126934819Y-83772857D01*
X126934819Y-83772857D02*
X126982438Y-83915714D01*
X126982438Y-83915714D02*
X127030057Y-83963333D01*
X127030057Y-84344286D02*
X126982438Y-84391905D01*
X126982438Y-84391905D02*
X126934819Y-84487143D01*
X126934819Y-84487143D02*
X126934819Y-84725238D01*
X126934819Y-84725238D02*
X126982438Y-84820476D01*
X126982438Y-84820476D02*
X127030057Y-84868095D01*
X127030057Y-84868095D02*
X127125295Y-84915714D01*
X127125295Y-84915714D02*
X127220533Y-84915714D01*
X127220533Y-84915714D02*
X127363390Y-84868095D01*
X127363390Y-84868095D02*
X127934819Y-84296667D01*
X127934819Y-84296667D02*
X127934819Y-84915714D01*
X144516666Y-84394819D02*
X144516666Y-83394819D01*
X144516666Y-83394819D02*
X144135714Y-83394819D01*
X144135714Y-83394819D02*
X144040476Y-83442438D01*
X144040476Y-83442438D02*
X143992857Y-83490057D01*
X143992857Y-83490057D02*
X143945238Y-83585295D01*
X143945238Y-83585295D02*
X143945238Y-83728152D01*
X143945238Y-83728152D02*
X143992857Y-83823390D01*
X143992857Y-83823390D02*
X144040476Y-83871009D01*
X144040476Y-83871009D02*
X144135714Y-83918628D01*
X144135714Y-83918628D02*
X144516666Y-83918628D01*
X143564285Y-84109104D02*
X143088095Y-84109104D01*
X143659523Y-84394819D02*
X143326190Y-83394819D01*
X143326190Y-83394819D02*
X142992857Y-84394819D01*
X142754761Y-83394819D02*
X142135714Y-83394819D01*
X142135714Y-83394819D02*
X142469047Y-83775771D01*
X142469047Y-83775771D02*
X142326190Y-83775771D01*
X142326190Y-83775771D02*
X142230952Y-83823390D01*
X142230952Y-83823390D02*
X142183333Y-83871009D01*
X142183333Y-83871009D02*
X142135714Y-83966247D01*
X142135714Y-83966247D02*
X142135714Y-84204342D01*
X142135714Y-84204342D02*
X142183333Y-84299580D01*
X142183333Y-84299580D02*
X142230952Y-84347200D01*
X142230952Y-84347200D02*
X142326190Y-84394819D01*
X142326190Y-84394819D02*
X142611904Y-84394819D01*
X142611904Y-84394819D02*
X142707142Y-84347200D01*
X142707142Y-84347200D02*
X142754761Y-84299580D01*
X142269679Y-80612891D02*
X142606396Y-80949609D01*
X142606396Y-80949609D02*
X143313503Y-80242502D01*
X142404366Y-80006799D02*
X142168663Y-79771097D01*
X141697259Y-80040471D02*
X142033976Y-80377189D01*
X142033976Y-80377189D02*
X142741083Y-79670082D01*
X142741083Y-79670082D02*
X142404366Y-79333364D01*
X141394213Y-79737425D02*
X142101320Y-79030319D01*
X142101320Y-79030319D02*
X141932961Y-78861960D01*
X141932961Y-78861960D02*
X141798274Y-78794616D01*
X141798274Y-78794616D02*
X141663587Y-78794616D01*
X141663587Y-78794616D02*
X141562572Y-78828288D01*
X141562572Y-78828288D02*
X141394213Y-78929303D01*
X141394213Y-78929303D02*
X141293198Y-79030319D01*
X141293198Y-79030319D02*
X141192183Y-79198677D01*
X141192183Y-79198677D02*
X141158511Y-79299693D01*
X141158511Y-79299693D02*
X141158511Y-79434380D01*
X141158511Y-79434380D02*
X141225854Y-79569067D01*
X141225854Y-79569067D02*
X141394213Y-79737425D01*
X141461557Y-78390555D02*
X141023824Y-77952822D01*
X141023824Y-77952822D02*
X140990152Y-78457899D01*
X140990152Y-78457899D02*
X140889137Y-78356884D01*
X140889137Y-78356884D02*
X140788122Y-78323212D01*
X140788122Y-78323212D02*
X140720778Y-78323212D01*
X140720778Y-78323212D02*
X140619763Y-78356884D01*
X140619763Y-78356884D02*
X140451404Y-78525242D01*
X140451404Y-78525242D02*
X140417732Y-78626258D01*
X140417732Y-78626258D02*
X140417732Y-78693601D01*
X140417732Y-78693601D02*
X140451404Y-78794616D01*
X140451404Y-78794616D02*
X140653435Y-78996647D01*
X140653435Y-78996647D02*
X140754450Y-79030319D01*
X140754450Y-79030319D02*
X140821793Y-79030319D01*
X149834819Y-86326666D02*
X150549104Y-86326666D01*
X150549104Y-86326666D02*
X150691961Y-86279047D01*
X150691961Y-86279047D02*
X150787200Y-86183809D01*
X150787200Y-86183809D02*
X150834819Y-86040952D01*
X150834819Y-86040952D02*
X150834819Y-85945714D01*
X150834819Y-87326666D02*
X150834819Y-86755238D01*
X150834819Y-87040952D02*
X149834819Y-87040952D01*
X149834819Y-87040952D02*
X149977676Y-86945714D01*
X149977676Y-86945714D02*
X150072914Y-86850476D01*
X150072914Y-86850476D02*
X150120533Y-86755238D01*
X122729580Y-83813333D02*
X122777200Y-83765714D01*
X122777200Y-83765714D02*
X122824819Y-83622857D01*
X122824819Y-83622857D02*
X122824819Y-83527619D01*
X122824819Y-83527619D02*
X122777200Y-83384762D01*
X122777200Y-83384762D02*
X122681961Y-83289524D01*
X122681961Y-83289524D02*
X122586723Y-83241905D01*
X122586723Y-83241905D02*
X122396247Y-83194286D01*
X122396247Y-83194286D02*
X122253390Y-83194286D01*
X122253390Y-83194286D02*
X122062914Y-83241905D01*
X122062914Y-83241905D02*
X121967676Y-83289524D01*
X121967676Y-83289524D02*
X121872438Y-83384762D01*
X121872438Y-83384762D02*
X121824819Y-83527619D01*
X121824819Y-83527619D02*
X121824819Y-83622857D01*
X121824819Y-83622857D02*
X121872438Y-83765714D01*
X121872438Y-83765714D02*
X121920057Y-83813333D01*
X122824819Y-84765714D02*
X122824819Y-84194286D01*
X122824819Y-84480000D02*
X121824819Y-84480000D01*
X121824819Y-84480000D02*
X121967676Y-84384762D01*
X121967676Y-84384762D02*
X122062914Y-84289524D01*
X122062914Y-84289524D02*
X122110533Y-84194286D01*
X143926666Y-89054819D02*
X143926666Y-88054819D01*
X143926666Y-88054819D02*
X143545714Y-88054819D01*
X143545714Y-88054819D02*
X143450476Y-88102438D01*
X143450476Y-88102438D02*
X143402857Y-88150057D01*
X143402857Y-88150057D02*
X143355238Y-88245295D01*
X143355238Y-88245295D02*
X143355238Y-88388152D01*
X143355238Y-88388152D02*
X143402857Y-88483390D01*
X143402857Y-88483390D02*
X143450476Y-88531009D01*
X143450476Y-88531009D02*
X143545714Y-88578628D01*
X143545714Y-88578628D02*
X143926666Y-88578628D01*
X142974285Y-88769104D02*
X142498095Y-88769104D01*
X143069523Y-89054819D02*
X142736190Y-88054819D01*
X142736190Y-88054819D02*
X142402857Y-89054819D01*
X141640952Y-88054819D02*
X141831428Y-88054819D01*
X141831428Y-88054819D02*
X141926666Y-88102438D01*
X141926666Y-88102438D02*
X141974285Y-88150057D01*
X141974285Y-88150057D02*
X142069523Y-88292914D01*
X142069523Y-88292914D02*
X142117142Y-88483390D01*
X142117142Y-88483390D02*
X142117142Y-88864342D01*
X142117142Y-88864342D02*
X142069523Y-88959580D01*
X142069523Y-88959580D02*
X142021904Y-89007200D01*
X142021904Y-89007200D02*
X141926666Y-89054819D01*
X141926666Y-89054819D02*
X141736190Y-89054819D01*
X141736190Y-89054819D02*
X141640952Y-89007200D01*
X141640952Y-89007200D02*
X141593333Y-88959580D01*
X141593333Y-88959580D02*
X141545714Y-88864342D01*
X141545714Y-88864342D02*
X141545714Y-88626247D01*
X141545714Y-88626247D02*
X141593333Y-88531009D01*
X141593333Y-88531009D02*
X141640952Y-88483390D01*
X141640952Y-88483390D02*
X141736190Y-88435771D01*
X141736190Y-88435771D02*
X141926666Y-88435771D01*
X141926666Y-88435771D02*
X142021904Y-88483390D01*
X142021904Y-88483390D02*
X142069523Y-88531009D01*
X142069523Y-88531009D02*
X142117142Y-88626247D01*
%TO.C,LED4*%
D13*
X128296502Y-72725557D02*
X130228353Y-72207920D01*
X128404818Y-73129798D02*
X128296502Y-72725557D01*
X128404818Y-73129798D02*
X130336670Y-72612160D01*
X128734303Y-73747053D02*
X128592311Y-73785100D01*
X129555339Y-73527057D02*
X129538919Y-73531457D01*
X130228353Y-72207920D02*
X130336670Y-72612160D01*
X130501947Y-73273414D02*
X130359955Y-73311461D01*
%TO.C,REF\u002A\u002A*%
D14*
X176410000Y-93280000D02*
X176410000Y-94680000D01*
X176410000Y-94680000D02*
X177810000Y-94680000D01*
X177810000Y-93280000D02*
X176410000Y-93280000D01*
X177810000Y-94680000D02*
X177810000Y-93280000D01*
%TO.C,LED1*%
D13*
X193080000Y-80938500D02*
X193080000Y-80791500D01*
X193080000Y-81788500D02*
X193080000Y-81771500D01*
X193080000Y-82768500D02*
X193080000Y-82621500D01*
X193761500Y-80780000D02*
X193761500Y-82780000D01*
X193761500Y-80780000D02*
X194180000Y-80780000D01*
X194180000Y-80780000D02*
X194180000Y-82780000D01*
X194180000Y-82780000D02*
X193761500Y-82780000D01*
%TO.C,LED2*%
X166166167Y-82781421D02*
X167580380Y-81367208D01*
X166462091Y-83077346D02*
X166166167Y-82781421D01*
X166462091Y-83077346D02*
X167876305Y-81663132D01*
X167056061Y-83447162D02*
X166952116Y-83551107D01*
X167580380Y-81367208D02*
X167876305Y-81663132D01*
X167657101Y-82846122D02*
X167645081Y-82858142D01*
X168350066Y-82153157D02*
X168246121Y-82257102D01*
%TO.C,U1*%
D14*
X122545000Y-79285000D02*
X122545000Y-80085000D01*
X122545000Y-80885000D02*
X122545000Y-80085000D01*
X125665000Y-79285000D02*
X125665000Y-80085000D01*
X125665000Y-80885000D02*
X125665000Y-80085000D01*
X122595000Y-78785000D02*
X122265000Y-79025000D01*
X122265000Y-78545000D01*
X122595000Y-78785000D01*
G36*
X122595000Y-78785000D02*
G01*
X122265000Y-79025000D01*
X122265000Y-78545000D01*
X122595000Y-78785000D01*
G37*
%TO.C,R1*%
X142487500Y-86462258D02*
X142487500Y-85987742D01*
X143532500Y-86462258D02*
X143532500Y-85987742D01*
%TO.C,C2*%
X125095000Y-83579420D02*
X125095000Y-83860580D01*
X126115000Y-83579420D02*
X126115000Y-83860580D01*
%TO.C,PA3*%
X144440000Y-84690000D02*
X144440000Y-86090000D01*
X144440000Y-86090000D02*
X145840000Y-86090000D01*
X145840000Y-84690000D02*
X144440000Y-84690000D01*
X145840000Y-86090000D02*
X145840000Y-84690000D01*
%TO.C,LED3*%
D13*
X143896582Y-81653359D02*
X143792637Y-81549414D01*
X144266398Y-81059389D02*
X144562323Y-80763465D01*
X144266398Y-81059389D02*
X145680612Y-82473603D01*
X144497622Y-82254399D02*
X144485602Y-82242379D01*
X144562323Y-80763465D02*
X145976536Y-82177678D01*
X145190587Y-82947364D02*
X145086642Y-82843419D01*
X145976536Y-82177678D02*
X145680612Y-82473603D01*
%TO.C,J1*%
D14*
X151380000Y-84010000D02*
X151380000Y-85390000D01*
X151380000Y-86660000D02*
X151380000Y-89310000D01*
X151380000Y-89310000D02*
X159220000Y-89310000D01*
X152760000Y-84010000D02*
X151380000Y-84010000D01*
X154030000Y-84010000D02*
X154030000Y-86660000D01*
X154030000Y-84010000D02*
X159220000Y-84010000D01*
X154030000Y-86660000D02*
X151380000Y-86660000D01*
X159220000Y-84010000D02*
X159220000Y-89310000D01*
%TO.C,C1*%
X123595000Y-83800580D02*
X123595000Y-83519420D01*
X124615000Y-83800580D02*
X124615000Y-83519420D01*
%TO.C,PA6*%
X144440000Y-87230000D02*
X144440000Y-88630000D01*
X144440000Y-88630000D02*
X145840000Y-88630000D01*
X145840000Y-87230000D02*
X144440000Y-87230000D01*
X145840000Y-88630000D02*
X145840000Y-87230000D01*
%TO.C,REF\u002A\u002A*%
X175890000Y-69690000D02*
X175890000Y-71090000D01*
X175890000Y-71090000D02*
X177290000Y-71090000D01*
X177290000Y-69690000D02*
X175890000Y-69690000D01*
X177290000Y-71090000D02*
X177290000Y-69690000D01*
%TD*%
%LPC*%
D15*
%TO.C,REF\u002A\u002A*%
X146225000Y-74175000D03*
%TD*%
D16*
%TO.C,REF\u002A\u002A*%
X166040000Y-90230000D03*
%TD*%
D15*
%TO.C,REF\u002A\u002A*%
X136925000Y-88675000D03*
%TD*%
D17*
%TO.C,LED4*%
X129168963Y-73759996D03*
D18*
X128061058Y-73798039D03*
X130968495Y-73018994D03*
D17*
X129990000Y-73540000D03*
%TD*%
D19*
%TO.C,REF\u002A\u002A*%
X177110000Y-93980000D03*
%TD*%
D20*
%TO.C,LED1*%
X192955000Y-81355000D03*
D21*
X193205000Y-80275000D03*
X193205000Y-83285000D03*
D20*
X192955000Y-82205000D03*
%TD*%
D22*
%TO.C,LED2*%
X167438959Y-83241041D03*
D23*
X166498507Y-83827939D03*
X168626898Y-81699548D03*
D22*
X168040000Y-82640000D03*
%TD*%
D24*
%TO.C,U1*%
X123155000Y-78947500D03*
X124105000Y-78947500D03*
X125055000Y-78947500D03*
X125055000Y-81222500D03*
X124105000Y-81222500D03*
X123155000Y-81222500D03*
%TD*%
D25*
%TO.C,R1*%
X143010000Y-87050000D03*
X143010000Y-85400000D03*
%TD*%
D26*
%TO.C,C2*%
X125605000Y-82945000D03*
X125605000Y-84495000D03*
%TD*%
D27*
%TO.C,PA3*%
X145140000Y-85390000D03*
%TD*%
D28*
%TO.C,LED3*%
X144102703Y-82036257D03*
D29*
X143515805Y-81095805D03*
X145644196Y-83224196D03*
D28*
X144703744Y-82637298D03*
%TD*%
D30*
%TO.C,J1*%
X152760000Y-85390000D03*
D31*
X152760000Y-87930000D03*
X155300000Y-85390000D03*
X155300000Y-87930000D03*
X157840000Y-85390000D03*
X157840000Y-87930000D03*
%TD*%
D26*
%TO.C,C1*%
X124105000Y-82885000D03*
X124105000Y-84435000D03*
%TD*%
D27*
%TO.C,PA6*%
X145140000Y-87930000D03*
%TD*%
D19*
%TO.C,REF\u002A\u002A*%
X176590000Y-70390000D03*
%TD*%
G36*
X146327549Y-73079889D02*
G01*
X146524972Y-73116794D01*
X146527026Y-73117378D01*
X146714314Y-73189933D01*
X146716225Y-73190885D01*
X146886983Y-73296615D01*
X146888688Y-73297902D01*
X147037121Y-73433216D01*
X147038559Y-73434795D01*
X147159589Y-73595064D01*
X147160714Y-73596880D01*
X147250242Y-73776678D01*
X147251013Y-73778669D01*
X147305975Y-73971841D01*
X147306368Y-73973940D01*
X147324901Y-74173932D01*
X147324901Y-74176068D01*
X147306368Y-74376059D01*
X147305975Y-74378158D01*
X147251013Y-74571330D01*
X147250242Y-74573321D01*
X147160714Y-74753119D01*
X147159589Y-74754935D01*
X147038559Y-74915204D01*
X147037121Y-74916783D01*
X146888688Y-75052097D01*
X146886983Y-75053384D01*
X146716225Y-75159114D01*
X146714314Y-75160066D01*
X146527026Y-75232621D01*
X146524972Y-75233205D01*
X146327549Y-75270111D01*
X146325422Y-75270308D01*
X146124578Y-75270308D01*
X146122451Y-75270111D01*
X145925027Y-75233205D01*
X145922973Y-75232621D01*
X145735685Y-75160066D01*
X145733774Y-75159114D01*
X145563016Y-75053384D01*
X145561311Y-75052097D01*
X145412878Y-74916783D01*
X145411440Y-74915204D01*
X145290410Y-74754935D01*
X145289285Y-74753119D01*
X145199757Y-74573321D01*
X145198986Y-74571330D01*
X145144024Y-74378158D01*
X145143631Y-74376059D01*
X145125098Y-74176068D01*
X145125098Y-74173932D01*
X145133174Y-74086784D01*
X145329334Y-74086784D01*
X145329334Y-74263215D01*
X145363754Y-74436258D01*
X145363755Y-74436260D01*
X145431270Y-74599254D01*
X145529291Y-74745953D01*
X145529294Y-74745957D01*
X145654042Y-74870705D01*
X145654046Y-74870708D01*
X145800745Y-74968729D01*
X145800744Y-74968729D01*
X145963739Y-75036244D01*
X145963741Y-75036245D01*
X146136784Y-75070665D01*
X146136786Y-75070666D01*
X146313214Y-75070666D01*
X146313215Y-75070665D01*
X146486258Y-75036245D01*
X146486260Y-75036244D01*
X146649254Y-74968729D01*
X146795953Y-74870708D01*
X146795957Y-74870705D01*
X146920705Y-74745957D01*
X146920708Y-74745953D01*
X147018729Y-74599254D01*
X147086244Y-74436260D01*
X147086245Y-74436258D01*
X147120665Y-74263215D01*
X147120666Y-74263214D01*
X147120666Y-74086785D01*
X147120665Y-74086784D01*
X147086245Y-73913741D01*
X147086244Y-73913739D01*
X147018729Y-73750745D01*
X146920708Y-73604046D01*
X146920705Y-73604042D01*
X146795957Y-73479294D01*
X146795953Y-73479291D01*
X146649254Y-73381270D01*
X146649255Y-73381270D01*
X146486260Y-73313755D01*
X146486258Y-73313754D01*
X146313215Y-73279334D01*
X146136784Y-73279334D01*
X145963741Y-73313754D01*
X145963739Y-73313755D01*
X145800745Y-73381270D01*
X145654046Y-73479291D01*
X145654042Y-73479294D01*
X145529294Y-73604042D01*
X145529291Y-73604046D01*
X145431270Y-73750745D01*
X145363755Y-73913739D01*
X145363754Y-73913741D01*
X145329334Y-74086784D01*
X145133174Y-74086784D01*
X145143631Y-73973940D01*
X145144024Y-73971841D01*
X145198986Y-73778669D01*
X145199757Y-73776678D01*
X145289285Y-73596880D01*
X145290410Y-73595064D01*
X145411440Y-73434795D01*
X145412878Y-73433216D01*
X145561311Y-73297902D01*
X145563016Y-73296615D01*
X145733774Y-73190885D01*
X145735685Y-73189933D01*
X145922973Y-73117378D01*
X145925027Y-73116794D01*
X146122451Y-73079889D01*
X146124578Y-73079692D01*
X146325422Y-73079692D01*
X146327549Y-73079889D01*
G37*
G36*
X137027549Y-87579889D02*
G01*
X137224972Y-87616794D01*
X137227026Y-87617378D01*
X137414314Y-87689933D01*
X137416225Y-87690885D01*
X137586983Y-87796615D01*
X137588688Y-87797902D01*
X137737121Y-87933216D01*
X137738559Y-87934795D01*
X137859589Y-88095064D01*
X137860714Y-88096880D01*
X137950242Y-88276678D01*
X137951013Y-88278669D01*
X138005975Y-88471841D01*
X138006368Y-88473940D01*
X138024901Y-88673932D01*
X138024901Y-88676068D01*
X138006368Y-88876059D01*
X138005975Y-88878158D01*
X137951013Y-89071330D01*
X137950242Y-89073321D01*
X137860714Y-89253119D01*
X137859589Y-89254935D01*
X137738559Y-89415204D01*
X137737121Y-89416783D01*
X137588688Y-89552097D01*
X137586983Y-89553384D01*
X137416225Y-89659114D01*
X137414314Y-89660066D01*
X137227026Y-89732621D01*
X137224972Y-89733205D01*
X137027549Y-89770111D01*
X137025422Y-89770308D01*
X136824578Y-89770308D01*
X136822451Y-89770111D01*
X136625027Y-89733205D01*
X136622973Y-89732621D01*
X136435685Y-89660066D01*
X136433774Y-89659114D01*
X136263016Y-89553384D01*
X136261311Y-89552097D01*
X136112878Y-89416783D01*
X136111440Y-89415204D01*
X135990410Y-89254935D01*
X135989285Y-89253119D01*
X135899757Y-89073321D01*
X135898986Y-89071330D01*
X135844024Y-88878158D01*
X135843631Y-88876059D01*
X135825098Y-88676068D01*
X135825098Y-88673932D01*
X135833174Y-88586784D01*
X136029334Y-88586784D01*
X136029334Y-88763215D01*
X136063754Y-88936258D01*
X136063755Y-88936260D01*
X136131270Y-89099254D01*
X136229291Y-89245953D01*
X136229294Y-89245957D01*
X136354042Y-89370705D01*
X136354046Y-89370708D01*
X136500745Y-89468729D01*
X136500744Y-89468729D01*
X136663739Y-89536244D01*
X136663741Y-89536245D01*
X136836784Y-89570665D01*
X136836786Y-89570666D01*
X137013214Y-89570666D01*
X137013215Y-89570665D01*
X137186258Y-89536245D01*
X137186260Y-89536244D01*
X137349254Y-89468729D01*
X137495953Y-89370708D01*
X137495957Y-89370705D01*
X137620705Y-89245957D01*
X137620708Y-89245953D01*
X137718729Y-89099254D01*
X137786244Y-88936260D01*
X137786245Y-88936258D01*
X137820665Y-88763215D01*
X137820666Y-88763214D01*
X137820666Y-88586785D01*
X137820665Y-88586784D01*
X137786245Y-88413741D01*
X137786244Y-88413739D01*
X137718729Y-88250745D01*
X137620708Y-88104046D01*
X137620705Y-88104042D01*
X137495957Y-87979294D01*
X137495953Y-87979291D01*
X137349254Y-87881270D01*
X137349255Y-87881270D01*
X137186260Y-87813755D01*
X137186258Y-87813754D01*
X137013215Y-87779334D01*
X136836784Y-87779334D01*
X136663741Y-87813754D01*
X136663739Y-87813755D01*
X136500745Y-87881270D01*
X136354046Y-87979291D01*
X136354042Y-87979294D01*
X136229294Y-88104042D01*
X136229291Y-88104046D01*
X136131270Y-88250745D01*
X136063755Y-88413739D01*
X136063754Y-88413741D01*
X136029334Y-88586784D01*
X135833174Y-88586784D01*
X135843631Y-88473940D01*
X135844024Y-88471841D01*
X135898986Y-88278669D01*
X135899757Y-88276678D01*
X135989285Y-88096880D01*
X135990410Y-88095064D01*
X136111440Y-87934795D01*
X136112878Y-87933216D01*
X136261311Y-87797902D01*
X136263016Y-87796615D01*
X136433774Y-87690885D01*
X136435685Y-87689933D01*
X136622973Y-87617378D01*
X136625027Y-87616794D01*
X136822451Y-87579889D01*
X136824578Y-87579692D01*
X137025422Y-87579692D01*
X137027549Y-87579889D01*
G37*
%LPD*%
M02*
