%TF.GenerationSoftware,KiCad,Pcbnew,8.0.5*%
%TF.CreationDate,2025-03-05T17:25:15-08:00*%
%TF.ProjectId,portal-gun,706f7274-616c-42d6-9775-6e2e6b696361,rev?*%
%TF.SameCoordinates,Original*%
%TF.FileFunction,Legend,Bot*%
%TF.FilePolarity,Positive*%
%FSLAX46Y46*%
G04 Gerber Fmt 4.6, Leading zero omitted, Abs format (unit mm)*
G04 Created by KiCad (PCBNEW 8.0.5) date 2025-03-05 17:25:15*
%MOMM*%
%LPD*%
G01*
G04 APERTURE LIST*
G04 Aperture macros list*
%AMRoundRect*
0 Rectangle with rounded corners*
0 $1 Rounding radius*
0 $2 $3 $4 $5 $6 $7 $8 $9 X,Y pos of 4 corners*
0 Add a 4 corners polygon primitive as box body*
4,1,4,$2,$3,$4,$5,$6,$7,$8,$9,$2,$3,0*
0 Add four circle primitives for the rounded corners*
1,1,$1+$1,$2,$3*
1,1,$1+$1,$4,$5*
1,1,$1+$1,$6,$7*
1,1,$1+$1,$8,$9*
0 Add four rect primitives between the rounded corners*
20,1,$1+$1,$2,$3,$4,$5,0*
20,1,$1+$1,$4,$5,$6,$7,0*
20,1,$1+$1,$6,$7,$8,$9,0*
20,1,$1+$1,$8,$9,$2,$3,0*%
%AMRotRect*
0 Rectangle, with rotation*
0 The origin of the aperture is its center*
0 $1 length*
0 $2 width*
0 $3 Rotation angle, in degrees counterclockwise*
0 Add horizontal line*
21,1,$1,$2,0,0,$3*%
G04 Aperture macros list end*
%ADD10C,0.100000*%
%ADD11C,0.150000*%
%ADD12C,0.254000*%
%ADD13C,0.120000*%
%ADD14C,0.152000*%
%ADD15C,1.000000*%
%ADD16R,2.200000X1.200000*%
%ADD17R,1.510000X1.800000*%
%ADD18RoundRect,0.225000X-0.250000X0.225000X-0.250000X-0.225000X0.250000X-0.225000X0.250000X0.225000X0*%
%ADD19R,0.800000X0.500000*%
%ADD20R,0.600000X0.400000*%
%ADD21R,0.800000X0.400000*%
%ADD22R,0.500000X0.800000*%
%ADD23R,0.400000X0.600000*%
%ADD24R,0.400000X0.800000*%
%ADD25RotRect,0.500000X0.800000X195.000000*%
%ADD26RotRect,0.400000X0.600000X195.000000*%
%ADD27RotRect,0.400000X0.800000X195.000000*%
%ADD28RoundRect,0.150000X-0.150000X0.512500X-0.150000X-0.512500X0.150000X-0.512500X0.150000X0.512500X0*%
%ADD29R,1.700000X1.700000*%
%ADD30O,1.700000X1.700000*%
G04 APERTURE END LIST*
D10*
X184044048Y-76502531D02*
X184044048Y-75502531D01*
X184044048Y-75502531D02*
X183663096Y-75502531D01*
X183663096Y-75502531D02*
X183567858Y-75550150D01*
X183567858Y-75550150D02*
X183520239Y-75597769D01*
X183520239Y-75597769D02*
X183472620Y-75693007D01*
X183472620Y-75693007D02*
X183472620Y-75835864D01*
X183472620Y-75835864D02*
X183520239Y-75931102D01*
X183520239Y-75931102D02*
X183567858Y-75978721D01*
X183567858Y-75978721D02*
X183663096Y-76026340D01*
X183663096Y-76026340D02*
X184044048Y-76026340D01*
X182901191Y-76502531D02*
X182996429Y-76454912D01*
X182996429Y-76454912D02*
X183044048Y-76407292D01*
X183044048Y-76407292D02*
X183091667Y-76312054D01*
X183091667Y-76312054D02*
X183091667Y-76026340D01*
X183091667Y-76026340D02*
X183044048Y-75931102D01*
X183044048Y-75931102D02*
X182996429Y-75883483D01*
X182996429Y-75883483D02*
X182901191Y-75835864D01*
X182901191Y-75835864D02*
X182758334Y-75835864D01*
X182758334Y-75835864D02*
X182663096Y-75883483D01*
X182663096Y-75883483D02*
X182615477Y-75931102D01*
X182615477Y-75931102D02*
X182567858Y-76026340D01*
X182567858Y-76026340D02*
X182567858Y-76312054D01*
X182567858Y-76312054D02*
X182615477Y-76407292D01*
X182615477Y-76407292D02*
X182663096Y-76454912D01*
X182663096Y-76454912D02*
X182758334Y-76502531D01*
X182758334Y-76502531D02*
X182901191Y-76502531D01*
X182139286Y-76502531D02*
X182139286Y-75835864D01*
X182139286Y-76026340D02*
X182091667Y-75931102D01*
X182091667Y-75931102D02*
X182044048Y-75883483D01*
X182044048Y-75883483D02*
X181948810Y-75835864D01*
X181948810Y-75835864D02*
X181853572Y-75835864D01*
X181663095Y-75835864D02*
X181282143Y-75835864D01*
X181520238Y-75502531D02*
X181520238Y-76359673D01*
X181520238Y-76359673D02*
X181472619Y-76454912D01*
X181472619Y-76454912D02*
X181377381Y-76502531D01*
X181377381Y-76502531D02*
X181282143Y-76502531D01*
X180520238Y-76502531D02*
X180520238Y-75978721D01*
X180520238Y-75978721D02*
X180567857Y-75883483D01*
X180567857Y-75883483D02*
X180663095Y-75835864D01*
X180663095Y-75835864D02*
X180853571Y-75835864D01*
X180853571Y-75835864D02*
X180948809Y-75883483D01*
X180520238Y-76454912D02*
X180615476Y-76502531D01*
X180615476Y-76502531D02*
X180853571Y-76502531D01*
X180853571Y-76502531D02*
X180948809Y-76454912D01*
X180948809Y-76454912D02*
X180996428Y-76359673D01*
X180996428Y-76359673D02*
X180996428Y-76264435D01*
X180996428Y-76264435D02*
X180948809Y-76169197D01*
X180948809Y-76169197D02*
X180853571Y-76121578D01*
X180853571Y-76121578D02*
X180615476Y-76121578D01*
X180615476Y-76121578D02*
X180520238Y-76073959D01*
X179901190Y-76502531D02*
X179996428Y-76454912D01*
X179996428Y-76454912D02*
X180044047Y-76359673D01*
X180044047Y-76359673D02*
X180044047Y-75502531D01*
X178234523Y-75550150D02*
X178329761Y-75502531D01*
X178329761Y-75502531D02*
X178472618Y-75502531D01*
X178472618Y-75502531D02*
X178615475Y-75550150D01*
X178615475Y-75550150D02*
X178710713Y-75645388D01*
X178710713Y-75645388D02*
X178758332Y-75740626D01*
X178758332Y-75740626D02*
X178805951Y-75931102D01*
X178805951Y-75931102D02*
X178805951Y-76073959D01*
X178805951Y-76073959D02*
X178758332Y-76264435D01*
X178758332Y-76264435D02*
X178710713Y-76359673D01*
X178710713Y-76359673D02*
X178615475Y-76454912D01*
X178615475Y-76454912D02*
X178472618Y-76502531D01*
X178472618Y-76502531D02*
X178377380Y-76502531D01*
X178377380Y-76502531D02*
X178234523Y-76454912D01*
X178234523Y-76454912D02*
X178186904Y-76407292D01*
X178186904Y-76407292D02*
X178186904Y-76073959D01*
X178186904Y-76073959D02*
X178377380Y-76073959D01*
X177329761Y-75835864D02*
X177329761Y-76502531D01*
X177758332Y-75835864D02*
X177758332Y-76359673D01*
X177758332Y-76359673D02*
X177710713Y-76454912D01*
X177710713Y-76454912D02*
X177615475Y-76502531D01*
X177615475Y-76502531D02*
X177472618Y-76502531D01*
X177472618Y-76502531D02*
X177377380Y-76454912D01*
X177377380Y-76454912D02*
X177329761Y-76407292D01*
X176853570Y-75835864D02*
X176853570Y-76502531D01*
X176853570Y-75931102D02*
X176805951Y-75883483D01*
X176805951Y-75883483D02*
X176710713Y-75835864D01*
X176710713Y-75835864D02*
X176567856Y-75835864D01*
X176567856Y-75835864D02*
X176472618Y-75883483D01*
X176472618Y-75883483D02*
X176424999Y-75978721D01*
X176424999Y-75978721D02*
X176424999Y-76502531D01*
X175234522Y-76454912D02*
X175091665Y-76502531D01*
X175091665Y-76502531D02*
X174853570Y-76502531D01*
X174853570Y-76502531D02*
X174758332Y-76454912D01*
X174758332Y-76454912D02*
X174710713Y-76407292D01*
X174710713Y-76407292D02*
X174663094Y-76312054D01*
X174663094Y-76312054D02*
X174663094Y-76216816D01*
X174663094Y-76216816D02*
X174710713Y-76121578D01*
X174710713Y-76121578D02*
X174758332Y-76073959D01*
X174758332Y-76073959D02*
X174853570Y-76026340D01*
X174853570Y-76026340D02*
X175044046Y-75978721D01*
X175044046Y-75978721D02*
X175139284Y-75931102D01*
X175139284Y-75931102D02*
X175186903Y-75883483D01*
X175186903Y-75883483D02*
X175234522Y-75788245D01*
X175234522Y-75788245D02*
X175234522Y-75693007D01*
X175234522Y-75693007D02*
X175186903Y-75597769D01*
X175186903Y-75597769D02*
X175139284Y-75550150D01*
X175139284Y-75550150D02*
X175044046Y-75502531D01*
X175044046Y-75502531D02*
X174805951Y-75502531D01*
X174805951Y-75502531D02*
X174663094Y-75550150D01*
X174282141Y-76216816D02*
X173805951Y-76216816D01*
X174377379Y-76502531D02*
X174044046Y-75502531D01*
X174044046Y-75502531D02*
X173710713Y-76502531D01*
X173186903Y-75502531D02*
X172996427Y-75502531D01*
X172996427Y-75502531D02*
X172901189Y-75550150D01*
X172901189Y-75550150D02*
X172805951Y-75645388D01*
X172805951Y-75645388D02*
X172758332Y-75835864D01*
X172758332Y-75835864D02*
X172758332Y-76169197D01*
X172758332Y-76169197D02*
X172805951Y-76359673D01*
X172805951Y-76359673D02*
X172901189Y-76454912D01*
X172901189Y-76454912D02*
X172996427Y-76502531D01*
X172996427Y-76502531D02*
X173186903Y-76502531D01*
X173186903Y-76502531D02*
X173282141Y-76454912D01*
X173282141Y-76454912D02*
X173377379Y-76359673D01*
X173377379Y-76359673D02*
X173424998Y-76169197D01*
X173424998Y-76169197D02*
X173424998Y-75835864D01*
X173424998Y-75835864D02*
X173377379Y-75645388D01*
X173377379Y-75645388D02*
X173282141Y-75550150D01*
X173282141Y-75550150D02*
X173186903Y-75502531D01*
X188210713Y-77445808D02*
X188020237Y-78112475D01*
X188020237Y-78112475D02*
X187829761Y-77636284D01*
X187829761Y-77636284D02*
X187639285Y-78112475D01*
X187639285Y-78112475D02*
X187448809Y-77445808D01*
X187163094Y-77445808D02*
X186972618Y-78112475D01*
X186972618Y-78112475D02*
X186782142Y-77636284D01*
X186782142Y-77636284D02*
X186591666Y-78112475D01*
X186591666Y-78112475D02*
X186401190Y-77445808D01*
X186115475Y-77445808D02*
X185924999Y-78112475D01*
X185924999Y-78112475D02*
X185734523Y-77636284D01*
X185734523Y-77636284D02*
X185544047Y-78112475D01*
X185544047Y-78112475D02*
X185353571Y-77445808D01*
X184972618Y-78017236D02*
X184924999Y-78064856D01*
X184924999Y-78064856D02*
X184972618Y-78112475D01*
X184972618Y-78112475D02*
X185020237Y-78064856D01*
X185020237Y-78064856D02*
X184972618Y-78017236D01*
X184972618Y-78017236D02*
X184972618Y-78112475D01*
X184163095Y-77588665D02*
X184020238Y-77636284D01*
X184020238Y-77636284D02*
X183972619Y-77683903D01*
X183972619Y-77683903D02*
X183925000Y-77779141D01*
X183925000Y-77779141D02*
X183925000Y-77921998D01*
X183925000Y-77921998D02*
X183972619Y-78017236D01*
X183972619Y-78017236D02*
X184020238Y-78064856D01*
X184020238Y-78064856D02*
X184115476Y-78112475D01*
X184115476Y-78112475D02*
X184496428Y-78112475D01*
X184496428Y-78112475D02*
X184496428Y-77112475D01*
X184496428Y-77112475D02*
X184163095Y-77112475D01*
X184163095Y-77112475D02*
X184067857Y-77160094D01*
X184067857Y-77160094D02*
X184020238Y-77207713D01*
X184020238Y-77207713D02*
X183972619Y-77302951D01*
X183972619Y-77302951D02*
X183972619Y-77398189D01*
X183972619Y-77398189D02*
X184020238Y-77493427D01*
X184020238Y-77493427D02*
X184067857Y-77541046D01*
X184067857Y-77541046D02*
X184163095Y-77588665D01*
X184163095Y-77588665D02*
X184496428Y-77588665D01*
X183496428Y-78112475D02*
X183496428Y-77445808D01*
X183496428Y-77112475D02*
X183544047Y-77160094D01*
X183544047Y-77160094D02*
X183496428Y-77207713D01*
X183496428Y-77207713D02*
X183448809Y-77160094D01*
X183448809Y-77160094D02*
X183496428Y-77112475D01*
X183496428Y-77112475D02*
X183496428Y-77207713D01*
X182591667Y-77445808D02*
X182591667Y-78255332D01*
X182591667Y-78255332D02*
X182639286Y-78350570D01*
X182639286Y-78350570D02*
X182686905Y-78398189D01*
X182686905Y-78398189D02*
X182782143Y-78445808D01*
X182782143Y-78445808D02*
X182925000Y-78445808D01*
X182925000Y-78445808D02*
X183020238Y-78398189D01*
X182591667Y-78064856D02*
X182686905Y-78112475D01*
X182686905Y-78112475D02*
X182877381Y-78112475D01*
X182877381Y-78112475D02*
X182972619Y-78064856D01*
X182972619Y-78064856D02*
X183020238Y-78017236D01*
X183020238Y-78017236D02*
X183067857Y-77921998D01*
X183067857Y-77921998D02*
X183067857Y-77636284D01*
X183067857Y-77636284D02*
X183020238Y-77541046D01*
X183020238Y-77541046D02*
X182972619Y-77493427D01*
X182972619Y-77493427D02*
X182877381Y-77445808D01*
X182877381Y-77445808D02*
X182686905Y-77445808D01*
X182686905Y-77445808D02*
X182591667Y-77493427D01*
X181782143Y-77588665D02*
X182115476Y-77588665D01*
X182115476Y-78112475D02*
X182115476Y-77112475D01*
X182115476Y-77112475D02*
X181639286Y-77112475D01*
X180829762Y-77445808D02*
X180829762Y-78112475D01*
X181258333Y-77445808D02*
X181258333Y-77969617D01*
X181258333Y-77969617D02*
X181210714Y-78064856D01*
X181210714Y-78064856D02*
X181115476Y-78112475D01*
X181115476Y-78112475D02*
X180972619Y-78112475D01*
X180972619Y-78112475D02*
X180877381Y-78064856D01*
X180877381Y-78064856D02*
X180829762Y-78017236D01*
X179925000Y-78064856D02*
X180020238Y-78112475D01*
X180020238Y-78112475D02*
X180210714Y-78112475D01*
X180210714Y-78112475D02*
X180305952Y-78064856D01*
X180305952Y-78064856D02*
X180353571Y-78017236D01*
X180353571Y-78017236D02*
X180401190Y-77921998D01*
X180401190Y-77921998D02*
X180401190Y-77636284D01*
X180401190Y-77636284D02*
X180353571Y-77541046D01*
X180353571Y-77541046D02*
X180305952Y-77493427D01*
X180305952Y-77493427D02*
X180210714Y-77445808D01*
X180210714Y-77445808D02*
X180020238Y-77445808D01*
X180020238Y-77445808D02*
X179925000Y-77493427D01*
X179496428Y-78112475D02*
X179496428Y-77112475D01*
X179401190Y-77731522D02*
X179115476Y-78112475D01*
X179115476Y-77445808D02*
X179496428Y-77826760D01*
X178686904Y-78112475D02*
X178686904Y-77445808D01*
X178686904Y-77112475D02*
X178734523Y-77160094D01*
X178734523Y-77160094D02*
X178686904Y-77207713D01*
X178686904Y-77207713D02*
X178639285Y-77160094D01*
X178639285Y-77160094D02*
X178686904Y-77112475D01*
X178686904Y-77112475D02*
X178686904Y-77207713D01*
X178210714Y-77445808D02*
X178210714Y-78112475D01*
X178210714Y-77541046D02*
X178163095Y-77493427D01*
X178163095Y-77493427D02*
X178067857Y-77445808D01*
X178067857Y-77445808D02*
X177925000Y-77445808D01*
X177925000Y-77445808D02*
X177829762Y-77493427D01*
X177829762Y-77493427D02*
X177782143Y-77588665D01*
X177782143Y-77588665D02*
X177782143Y-78112475D01*
X176877381Y-77445808D02*
X176877381Y-78255332D01*
X176877381Y-78255332D02*
X176925000Y-78350570D01*
X176925000Y-78350570D02*
X176972619Y-78398189D01*
X176972619Y-78398189D02*
X177067857Y-78445808D01*
X177067857Y-78445808D02*
X177210714Y-78445808D01*
X177210714Y-78445808D02*
X177305952Y-78398189D01*
X176877381Y-78064856D02*
X176972619Y-78112475D01*
X176972619Y-78112475D02*
X177163095Y-78112475D01*
X177163095Y-78112475D02*
X177258333Y-78064856D01*
X177258333Y-78064856D02*
X177305952Y-78017236D01*
X177305952Y-78017236D02*
X177353571Y-77921998D01*
X177353571Y-77921998D02*
X177353571Y-77636284D01*
X177353571Y-77636284D02*
X177305952Y-77541046D01*
X177305952Y-77541046D02*
X177258333Y-77493427D01*
X177258333Y-77493427D02*
X177163095Y-77445808D01*
X177163095Y-77445808D02*
X176972619Y-77445808D01*
X176972619Y-77445808D02*
X176877381Y-77493427D01*
X176067857Y-77588665D02*
X175925000Y-77636284D01*
X175925000Y-77636284D02*
X175877381Y-77683903D01*
X175877381Y-77683903D02*
X175829762Y-77779141D01*
X175829762Y-77779141D02*
X175829762Y-77921998D01*
X175829762Y-77921998D02*
X175877381Y-78017236D01*
X175877381Y-78017236D02*
X175925000Y-78064856D01*
X175925000Y-78064856D02*
X176020238Y-78112475D01*
X176020238Y-78112475D02*
X176401190Y-78112475D01*
X176401190Y-78112475D02*
X176401190Y-77112475D01*
X176401190Y-77112475D02*
X176067857Y-77112475D01*
X176067857Y-77112475D02*
X175972619Y-77160094D01*
X175972619Y-77160094D02*
X175925000Y-77207713D01*
X175925000Y-77207713D02*
X175877381Y-77302951D01*
X175877381Y-77302951D02*
X175877381Y-77398189D01*
X175877381Y-77398189D02*
X175925000Y-77493427D01*
X175925000Y-77493427D02*
X175972619Y-77541046D01*
X175972619Y-77541046D02*
X176067857Y-77588665D01*
X176067857Y-77588665D02*
X176401190Y-77588665D01*
X174972619Y-78112475D02*
X174972619Y-77588665D01*
X174972619Y-77588665D02*
X175020238Y-77493427D01*
X175020238Y-77493427D02*
X175115476Y-77445808D01*
X175115476Y-77445808D02*
X175305952Y-77445808D01*
X175305952Y-77445808D02*
X175401190Y-77493427D01*
X174972619Y-78064856D02*
X175067857Y-78112475D01*
X175067857Y-78112475D02*
X175305952Y-78112475D01*
X175305952Y-78112475D02*
X175401190Y-78064856D01*
X175401190Y-78064856D02*
X175448809Y-77969617D01*
X175448809Y-77969617D02*
X175448809Y-77874379D01*
X175448809Y-77874379D02*
X175401190Y-77779141D01*
X175401190Y-77779141D02*
X175305952Y-77731522D01*
X175305952Y-77731522D02*
X175067857Y-77731522D01*
X175067857Y-77731522D02*
X174972619Y-77683903D01*
X174067857Y-78112475D02*
X174067857Y-77112475D01*
X174067857Y-78064856D02*
X174163095Y-78112475D01*
X174163095Y-78112475D02*
X174353571Y-78112475D01*
X174353571Y-78112475D02*
X174448809Y-78064856D01*
X174448809Y-78064856D02*
X174496428Y-78017236D01*
X174496428Y-78017236D02*
X174544047Y-77921998D01*
X174544047Y-77921998D02*
X174544047Y-77636284D01*
X174544047Y-77636284D02*
X174496428Y-77541046D01*
X174496428Y-77541046D02*
X174448809Y-77493427D01*
X174448809Y-77493427D02*
X174353571Y-77445808D01*
X174353571Y-77445808D02*
X174163095Y-77445808D01*
X174163095Y-77445808D02*
X174067857Y-77493427D01*
X173163095Y-77445808D02*
X173163095Y-78255332D01*
X173163095Y-78255332D02*
X173210714Y-78350570D01*
X173210714Y-78350570D02*
X173258333Y-78398189D01*
X173258333Y-78398189D02*
X173353571Y-78445808D01*
X173353571Y-78445808D02*
X173496428Y-78445808D01*
X173496428Y-78445808D02*
X173591666Y-78398189D01*
X173163095Y-78064856D02*
X173258333Y-78112475D01*
X173258333Y-78112475D02*
X173448809Y-78112475D01*
X173448809Y-78112475D02*
X173544047Y-78064856D01*
X173544047Y-78064856D02*
X173591666Y-78017236D01*
X173591666Y-78017236D02*
X173639285Y-77921998D01*
X173639285Y-77921998D02*
X173639285Y-77636284D01*
X173639285Y-77636284D02*
X173591666Y-77541046D01*
X173591666Y-77541046D02*
X173544047Y-77493427D01*
X173544047Y-77493427D02*
X173448809Y-77445808D01*
X173448809Y-77445808D02*
X173258333Y-77445808D01*
X173258333Y-77445808D02*
X173163095Y-77493427D01*
X172305952Y-78064856D02*
X172401190Y-78112475D01*
X172401190Y-78112475D02*
X172591666Y-78112475D01*
X172591666Y-78112475D02*
X172686904Y-78064856D01*
X172686904Y-78064856D02*
X172734523Y-77969617D01*
X172734523Y-77969617D02*
X172734523Y-77588665D01*
X172734523Y-77588665D02*
X172686904Y-77493427D01*
X172686904Y-77493427D02*
X172591666Y-77445808D01*
X172591666Y-77445808D02*
X172401190Y-77445808D01*
X172401190Y-77445808D02*
X172305952Y-77493427D01*
X172305952Y-77493427D02*
X172258333Y-77588665D01*
X172258333Y-77588665D02*
X172258333Y-77683903D01*
X172258333Y-77683903D02*
X172734523Y-77779141D01*
X171829761Y-78017236D02*
X171782142Y-78064856D01*
X171782142Y-78064856D02*
X171829761Y-78112475D01*
X171829761Y-78112475D02*
X171877380Y-78064856D01*
X171877380Y-78064856D02*
X171829761Y-78017236D01*
X171829761Y-78017236D02*
X171829761Y-78112475D01*
X170925000Y-78064856D02*
X171020238Y-78112475D01*
X171020238Y-78112475D02*
X171210714Y-78112475D01*
X171210714Y-78112475D02*
X171305952Y-78064856D01*
X171305952Y-78064856D02*
X171353571Y-78017236D01*
X171353571Y-78017236D02*
X171401190Y-77921998D01*
X171401190Y-77921998D02*
X171401190Y-77636284D01*
X171401190Y-77636284D02*
X171353571Y-77541046D01*
X171353571Y-77541046D02*
X171305952Y-77493427D01*
X171305952Y-77493427D02*
X171210714Y-77445808D01*
X171210714Y-77445808D02*
X171020238Y-77445808D01*
X171020238Y-77445808D02*
X170925000Y-77493427D01*
X170353571Y-78112475D02*
X170448809Y-78064856D01*
X170448809Y-78064856D02*
X170496428Y-78017236D01*
X170496428Y-78017236D02*
X170544047Y-77921998D01*
X170544047Y-77921998D02*
X170544047Y-77636284D01*
X170544047Y-77636284D02*
X170496428Y-77541046D01*
X170496428Y-77541046D02*
X170448809Y-77493427D01*
X170448809Y-77493427D02*
X170353571Y-77445808D01*
X170353571Y-77445808D02*
X170210714Y-77445808D01*
X170210714Y-77445808D02*
X170115476Y-77493427D01*
X170115476Y-77493427D02*
X170067857Y-77541046D01*
X170067857Y-77541046D02*
X170020238Y-77636284D01*
X170020238Y-77636284D02*
X170020238Y-77921998D01*
X170020238Y-77921998D02*
X170067857Y-78017236D01*
X170067857Y-78017236D02*
X170115476Y-78064856D01*
X170115476Y-78064856D02*
X170210714Y-78112475D01*
X170210714Y-78112475D02*
X170353571Y-78112475D01*
X169591666Y-78112475D02*
X169591666Y-77445808D01*
X169591666Y-77541046D02*
X169544047Y-77493427D01*
X169544047Y-77493427D02*
X169448809Y-77445808D01*
X169448809Y-77445808D02*
X169305952Y-77445808D01*
X169305952Y-77445808D02*
X169210714Y-77493427D01*
X169210714Y-77493427D02*
X169163095Y-77588665D01*
X169163095Y-77588665D02*
X169163095Y-78112475D01*
X169163095Y-77588665D02*
X169115476Y-77493427D01*
X169115476Y-77493427D02*
X169020238Y-77445808D01*
X169020238Y-77445808D02*
X168877381Y-77445808D01*
X168877381Y-77445808D02*
X168782142Y-77493427D01*
X168782142Y-77493427D02*
X168734523Y-77588665D01*
X168734523Y-77588665D02*
X168734523Y-78112475D01*
X180139285Y-79722419D02*
X180139285Y-78722419D01*
X180139285Y-78722419D02*
X179901190Y-78722419D01*
X179901190Y-78722419D02*
X179758333Y-78770038D01*
X179758333Y-78770038D02*
X179663095Y-78865276D01*
X179663095Y-78865276D02*
X179615476Y-78960514D01*
X179615476Y-78960514D02*
X179567857Y-79150990D01*
X179567857Y-79150990D02*
X179567857Y-79293847D01*
X179567857Y-79293847D02*
X179615476Y-79484323D01*
X179615476Y-79484323D02*
X179663095Y-79579561D01*
X179663095Y-79579561D02*
X179758333Y-79674800D01*
X179758333Y-79674800D02*
X179901190Y-79722419D01*
X179901190Y-79722419D02*
X180139285Y-79722419D01*
X178567857Y-79627180D02*
X178615476Y-79674800D01*
X178615476Y-79674800D02*
X178758333Y-79722419D01*
X178758333Y-79722419D02*
X178853571Y-79722419D01*
X178853571Y-79722419D02*
X178996428Y-79674800D01*
X178996428Y-79674800D02*
X179091666Y-79579561D01*
X179091666Y-79579561D02*
X179139285Y-79484323D01*
X179139285Y-79484323D02*
X179186904Y-79293847D01*
X179186904Y-79293847D02*
X179186904Y-79150990D01*
X179186904Y-79150990D02*
X179139285Y-78960514D01*
X179139285Y-78960514D02*
X179091666Y-78865276D01*
X179091666Y-78865276D02*
X178996428Y-78770038D01*
X178996428Y-78770038D02*
X178853571Y-78722419D01*
X178853571Y-78722419D02*
X178758333Y-78722419D01*
X178758333Y-78722419D02*
X178615476Y-78770038D01*
X178615476Y-78770038D02*
X178567857Y-78817657D01*
X178234523Y-78722419D02*
X177615476Y-78722419D01*
X177615476Y-78722419D02*
X177948809Y-79103371D01*
X177948809Y-79103371D02*
X177805952Y-79103371D01*
X177805952Y-79103371D02*
X177710714Y-79150990D01*
X177710714Y-79150990D02*
X177663095Y-79198609D01*
X177663095Y-79198609D02*
X177615476Y-79293847D01*
X177615476Y-79293847D02*
X177615476Y-79531942D01*
X177615476Y-79531942D02*
X177663095Y-79627180D01*
X177663095Y-79627180D02*
X177710714Y-79674800D01*
X177710714Y-79674800D02*
X177805952Y-79722419D01*
X177805952Y-79722419D02*
X178091666Y-79722419D01*
X178091666Y-79722419D02*
X178186904Y-79674800D01*
X178186904Y-79674800D02*
X178234523Y-79627180D01*
X177282142Y-78722419D02*
X176663095Y-78722419D01*
X176663095Y-78722419D02*
X176996428Y-79103371D01*
X176996428Y-79103371D02*
X176853571Y-79103371D01*
X176853571Y-79103371D02*
X176758333Y-79150990D01*
X176758333Y-79150990D02*
X176710714Y-79198609D01*
X176710714Y-79198609D02*
X176663095Y-79293847D01*
X176663095Y-79293847D02*
X176663095Y-79531942D01*
X176663095Y-79531942D02*
X176710714Y-79627180D01*
X176710714Y-79627180D02*
X176758333Y-79674800D01*
X176758333Y-79674800D02*
X176853571Y-79722419D01*
X176853571Y-79722419D02*
X177139285Y-79722419D01*
X177139285Y-79722419D02*
X177234523Y-79674800D01*
X177234523Y-79674800D02*
X177282142Y-79627180D01*
X135524687Y-86277180D02*
X135572306Y-86324800D01*
X135572306Y-86324800D02*
X135715163Y-86372419D01*
X135715163Y-86372419D02*
X135810401Y-86372419D01*
X135810401Y-86372419D02*
X135953258Y-86324800D01*
X135953258Y-86324800D02*
X136048496Y-86229561D01*
X136048496Y-86229561D02*
X136096115Y-86134323D01*
X136096115Y-86134323D02*
X136143734Y-85943847D01*
X136143734Y-85943847D02*
X136143734Y-85800990D01*
X136143734Y-85800990D02*
X136096115Y-85610514D01*
X136096115Y-85610514D02*
X136048496Y-85515276D01*
X136048496Y-85515276D02*
X135953258Y-85420038D01*
X135953258Y-85420038D02*
X135810401Y-85372419D01*
X135810401Y-85372419D02*
X135715163Y-85372419D01*
X135715163Y-85372419D02*
X135572306Y-85420038D01*
X135572306Y-85420038D02*
X135524687Y-85467657D01*
X135096115Y-86372419D02*
X135096115Y-85372419D01*
X134524687Y-86372419D02*
X134953258Y-85800990D01*
X134524687Y-85372419D02*
X135096115Y-85943847D01*
X136121115Y-92172419D02*
X136121115Y-91172419D01*
X136121115Y-91172419D02*
X135883020Y-91172419D01*
X135883020Y-91172419D02*
X135740163Y-91220038D01*
X135740163Y-91220038D02*
X135644925Y-91315276D01*
X135644925Y-91315276D02*
X135597306Y-91410514D01*
X135597306Y-91410514D02*
X135549687Y-91600990D01*
X135549687Y-91600990D02*
X135549687Y-91743847D01*
X135549687Y-91743847D02*
X135597306Y-91934323D01*
X135597306Y-91934323D02*
X135644925Y-92029561D01*
X135644925Y-92029561D02*
X135740163Y-92124800D01*
X135740163Y-92124800D02*
X135883020Y-92172419D01*
X135883020Y-92172419D02*
X136121115Y-92172419D01*
X135168734Y-91886704D02*
X134692544Y-91886704D01*
X135263972Y-92172419D02*
X134930639Y-91172419D01*
X134930639Y-91172419D02*
X134597306Y-92172419D01*
X118022306Y-90470038D02*
X118117544Y-90422419D01*
X118117544Y-90422419D02*
X118260401Y-90422419D01*
X118260401Y-90422419D02*
X118403258Y-90470038D01*
X118403258Y-90470038D02*
X118498496Y-90565276D01*
X118498496Y-90565276D02*
X118546115Y-90660514D01*
X118546115Y-90660514D02*
X118593734Y-90850990D01*
X118593734Y-90850990D02*
X118593734Y-90993847D01*
X118593734Y-90993847D02*
X118546115Y-91184323D01*
X118546115Y-91184323D02*
X118498496Y-91279561D01*
X118498496Y-91279561D02*
X118403258Y-91374800D01*
X118403258Y-91374800D02*
X118260401Y-91422419D01*
X118260401Y-91422419D02*
X118165163Y-91422419D01*
X118165163Y-91422419D02*
X118022306Y-91374800D01*
X118022306Y-91374800D02*
X117974687Y-91327180D01*
X117974687Y-91327180D02*
X117974687Y-90993847D01*
X117974687Y-90993847D02*
X118165163Y-90993847D01*
X117546115Y-90755752D02*
X117546115Y-91422419D01*
X117546115Y-90850990D02*
X117498496Y-90803371D01*
X117498496Y-90803371D02*
X117403258Y-90755752D01*
X117403258Y-90755752D02*
X117260401Y-90755752D01*
X117260401Y-90755752D02*
X117165163Y-90803371D01*
X117165163Y-90803371D02*
X117117544Y-90898609D01*
X117117544Y-90898609D02*
X117117544Y-91422419D01*
X116212782Y-91422419D02*
X116212782Y-90422419D01*
X116212782Y-91374800D02*
X116308020Y-91422419D01*
X116308020Y-91422419D02*
X116498496Y-91422419D01*
X116498496Y-91422419D02*
X116593734Y-91374800D01*
X116593734Y-91374800D02*
X116641353Y-91327180D01*
X116641353Y-91327180D02*
X116688972Y-91231942D01*
X116688972Y-91231942D02*
X116688972Y-90946228D01*
X116688972Y-90946228D02*
X116641353Y-90850990D01*
X116641353Y-90850990D02*
X116593734Y-90803371D01*
X116593734Y-90803371D02*
X116498496Y-90755752D01*
X116498496Y-90755752D02*
X116308020Y-90755752D01*
X116308020Y-90755752D02*
X116212782Y-90803371D01*
X118691353Y-85072419D02*
X118072306Y-85072419D01*
X118072306Y-85072419D02*
X118405639Y-85453371D01*
X118405639Y-85453371D02*
X118262782Y-85453371D01*
X118262782Y-85453371D02*
X118167544Y-85500990D01*
X118167544Y-85500990D02*
X118119925Y-85548609D01*
X118119925Y-85548609D02*
X118072306Y-85643847D01*
X118072306Y-85643847D02*
X118072306Y-85881942D01*
X118072306Y-85881942D02*
X118119925Y-85977180D01*
X118119925Y-85977180D02*
X118167544Y-86024800D01*
X118167544Y-86024800D02*
X118262782Y-86072419D01*
X118262782Y-86072419D02*
X118548496Y-86072419D01*
X118548496Y-86072419D02*
X118643734Y-86024800D01*
X118643734Y-86024800D02*
X118691353Y-85977180D01*
X117643734Y-85977180D02*
X117596115Y-86024800D01*
X117596115Y-86024800D02*
X117643734Y-86072419D01*
X117643734Y-86072419D02*
X117691353Y-86024800D01*
X117691353Y-86024800D02*
X117643734Y-85977180D01*
X117643734Y-85977180D02*
X117643734Y-86072419D01*
X117262782Y-85072419D02*
X116643735Y-85072419D01*
X116643735Y-85072419D02*
X116977068Y-85453371D01*
X116977068Y-85453371D02*
X116834211Y-85453371D01*
X116834211Y-85453371D02*
X116738973Y-85500990D01*
X116738973Y-85500990D02*
X116691354Y-85548609D01*
X116691354Y-85548609D02*
X116643735Y-85643847D01*
X116643735Y-85643847D02*
X116643735Y-85881942D01*
X116643735Y-85881942D02*
X116691354Y-85977180D01*
X116691354Y-85977180D02*
X116738973Y-86024800D01*
X116738973Y-86024800D02*
X116834211Y-86072419D01*
X116834211Y-86072419D02*
X117119925Y-86072419D01*
X117119925Y-86072419D02*
X117215163Y-86024800D01*
X117215163Y-86024800D02*
X117262782Y-85977180D01*
X116310401Y-85405752D02*
X116072306Y-86072419D01*
X116072306Y-86072419D02*
X115834211Y-85405752D01*
D11*
X111257200Y-78716667D02*
X111304819Y-78859524D01*
X111304819Y-78859524D02*
X111304819Y-79097619D01*
X111304819Y-79097619D02*
X111257200Y-79192857D01*
X111257200Y-79192857D02*
X111209580Y-79240476D01*
X111209580Y-79240476D02*
X111114342Y-79288095D01*
X111114342Y-79288095D02*
X111019104Y-79288095D01*
X111019104Y-79288095D02*
X110923866Y-79240476D01*
X110923866Y-79240476D02*
X110876247Y-79192857D01*
X110876247Y-79192857D02*
X110828628Y-79097619D01*
X110828628Y-79097619D02*
X110781009Y-78907143D01*
X110781009Y-78907143D02*
X110733390Y-78811905D01*
X110733390Y-78811905D02*
X110685771Y-78764286D01*
X110685771Y-78764286D02*
X110590533Y-78716667D01*
X110590533Y-78716667D02*
X110495295Y-78716667D01*
X110495295Y-78716667D02*
X110400057Y-78764286D01*
X110400057Y-78764286D02*
X110352438Y-78811905D01*
X110352438Y-78811905D02*
X110304819Y-78907143D01*
X110304819Y-78907143D02*
X110304819Y-79145238D01*
X110304819Y-79145238D02*
X110352438Y-79288095D01*
X110304819Y-79621429D02*
X111304819Y-79859524D01*
X111304819Y-79859524D02*
X110590533Y-80050000D01*
X110590533Y-80050000D02*
X111304819Y-80240476D01*
X111304819Y-80240476D02*
X110304819Y-80478572D01*
X111304819Y-81383333D02*
X111304819Y-80811905D01*
X111304819Y-81097619D02*
X110304819Y-81097619D01*
X110304819Y-81097619D02*
X110447676Y-81002381D01*
X110447676Y-81002381D02*
X110542914Y-80907143D01*
X110542914Y-80907143D02*
X110590533Y-80811905D01*
X119429580Y-79533333D02*
X119477200Y-79485714D01*
X119477200Y-79485714D02*
X119524819Y-79342857D01*
X119524819Y-79342857D02*
X119524819Y-79247619D01*
X119524819Y-79247619D02*
X119477200Y-79104762D01*
X119477200Y-79104762D02*
X119381961Y-79009524D01*
X119381961Y-79009524D02*
X119286723Y-78961905D01*
X119286723Y-78961905D02*
X119096247Y-78914286D01*
X119096247Y-78914286D02*
X118953390Y-78914286D01*
X118953390Y-78914286D02*
X118762914Y-78961905D01*
X118762914Y-78961905D02*
X118667676Y-79009524D01*
X118667676Y-79009524D02*
X118572438Y-79104762D01*
X118572438Y-79104762D02*
X118524819Y-79247619D01*
X118524819Y-79247619D02*
X118524819Y-79342857D01*
X118524819Y-79342857D02*
X118572438Y-79485714D01*
X118572438Y-79485714D02*
X118620057Y-79533333D01*
X119524819Y-80485714D02*
X119524819Y-79914286D01*
X119524819Y-80200000D02*
X118524819Y-80200000D01*
X118524819Y-80200000D02*
X118667676Y-80104762D01*
X118667676Y-80104762D02*
X118762914Y-80009524D01*
X118762914Y-80009524D02*
X118810533Y-79914286D01*
X193554819Y-80988095D02*
X194364342Y-80988095D01*
X194364342Y-80988095D02*
X194459580Y-81035714D01*
X194459580Y-81035714D02*
X194507200Y-81083333D01*
X194507200Y-81083333D02*
X194554819Y-81178571D01*
X194554819Y-81178571D02*
X194554819Y-81369047D01*
X194554819Y-81369047D02*
X194507200Y-81464285D01*
X194507200Y-81464285D02*
X194459580Y-81511904D01*
X194459580Y-81511904D02*
X194364342Y-81559523D01*
X194364342Y-81559523D02*
X193554819Y-81559523D01*
X193554819Y-82511904D02*
X193554819Y-82035714D01*
X193554819Y-82035714D02*
X194031009Y-81988095D01*
X194031009Y-81988095D02*
X193983390Y-82035714D01*
X193983390Y-82035714D02*
X193935771Y-82130952D01*
X193935771Y-82130952D02*
X193935771Y-82369047D01*
X193935771Y-82369047D02*
X193983390Y-82464285D01*
X193983390Y-82464285D02*
X194031009Y-82511904D01*
X194031009Y-82511904D02*
X194126247Y-82559523D01*
X194126247Y-82559523D02*
X194364342Y-82559523D01*
X194364342Y-82559523D02*
X194459580Y-82511904D01*
X194459580Y-82511904D02*
X194507200Y-82464285D01*
X194507200Y-82464285D02*
X194554819Y-82369047D01*
X194554819Y-82369047D02*
X194554819Y-82130952D01*
X194554819Y-82130952D02*
X194507200Y-82035714D01*
X194507200Y-82035714D02*
X194459580Y-81988095D01*
X161736904Y-83104819D02*
X161736904Y-83914342D01*
X161736904Y-83914342D02*
X161689285Y-84009580D01*
X161689285Y-84009580D02*
X161641666Y-84057200D01*
X161641666Y-84057200D02*
X161546428Y-84104819D01*
X161546428Y-84104819D02*
X161355952Y-84104819D01*
X161355952Y-84104819D02*
X161260714Y-84057200D01*
X161260714Y-84057200D02*
X161213095Y-84009580D01*
X161213095Y-84009580D02*
X161165476Y-83914342D01*
X161165476Y-83914342D02*
X161165476Y-83104819D01*
X160260714Y-83438152D02*
X160260714Y-84104819D01*
X160498809Y-83057200D02*
X160736904Y-83771485D01*
X160736904Y-83771485D02*
X160117857Y-83771485D01*
X152861904Y-83154819D02*
X152861904Y-83964342D01*
X152861904Y-83964342D02*
X152814285Y-84059580D01*
X152814285Y-84059580D02*
X152766666Y-84107200D01*
X152766666Y-84107200D02*
X152671428Y-84154819D01*
X152671428Y-84154819D02*
X152480952Y-84154819D01*
X152480952Y-84154819D02*
X152385714Y-84107200D01*
X152385714Y-84107200D02*
X152338095Y-84059580D01*
X152338095Y-84059580D02*
X152290476Y-83964342D01*
X152290476Y-83964342D02*
X152290476Y-83154819D01*
X151909523Y-83154819D02*
X151290476Y-83154819D01*
X151290476Y-83154819D02*
X151623809Y-83535771D01*
X151623809Y-83535771D02*
X151480952Y-83535771D01*
X151480952Y-83535771D02*
X151385714Y-83583390D01*
X151385714Y-83583390D02*
X151338095Y-83631009D01*
X151338095Y-83631009D02*
X151290476Y-83726247D01*
X151290476Y-83726247D02*
X151290476Y-83964342D01*
X151290476Y-83964342D02*
X151338095Y-84059580D01*
X151338095Y-84059580D02*
X151385714Y-84107200D01*
X151385714Y-84107200D02*
X151480952Y-84154819D01*
X151480952Y-84154819D02*
X151766666Y-84154819D01*
X151766666Y-84154819D02*
X151861904Y-84107200D01*
X151861904Y-84107200D02*
X151909523Y-84059580D01*
X129744840Y-72301200D02*
X129954360Y-73083140D01*
X129954360Y-73083140D02*
X129933013Y-73187457D01*
X129933013Y-73187457D02*
X129899341Y-73245778D01*
X129899341Y-73245778D02*
X129819673Y-73316424D01*
X129819673Y-73316424D02*
X129635687Y-73365723D01*
X129635687Y-73365723D02*
X129531369Y-73344376D01*
X129531369Y-73344376D02*
X129473048Y-73310704D01*
X129473048Y-73310704D02*
X129402402Y-73231036D01*
X129402402Y-73231036D02*
X129192882Y-72449096D01*
X128803563Y-72652012D02*
X128745242Y-72618340D01*
X128745242Y-72618340D02*
X128640925Y-72596993D01*
X128640925Y-72596993D02*
X128410942Y-72658616D01*
X128410942Y-72658616D02*
X128331274Y-72729262D01*
X128331274Y-72729262D02*
X128297602Y-72787584D01*
X128297602Y-72787584D02*
X128276255Y-72891901D01*
X128276255Y-72891901D02*
X128300905Y-72983894D01*
X128300905Y-72983894D02*
X128383875Y-73109559D01*
X128383875Y-73109559D02*
X129083730Y-73513620D01*
X129083730Y-73513620D02*
X128485775Y-73673841D01*
X117554819Y-75363095D02*
X118364342Y-75363095D01*
X118364342Y-75363095D02*
X118459580Y-75410714D01*
X118459580Y-75410714D02*
X118507200Y-75458333D01*
X118507200Y-75458333D02*
X118554819Y-75553571D01*
X118554819Y-75553571D02*
X118554819Y-75744047D01*
X118554819Y-75744047D02*
X118507200Y-75839285D01*
X118507200Y-75839285D02*
X118459580Y-75886904D01*
X118459580Y-75886904D02*
X118364342Y-75934523D01*
X118364342Y-75934523D02*
X117554819Y-75934523D01*
X118554819Y-76934523D02*
X118554819Y-76363095D01*
X118554819Y-76648809D02*
X117554819Y-76648809D01*
X117554819Y-76648809D02*
X117697676Y-76553571D01*
X117697676Y-76553571D02*
X117792914Y-76458333D01*
X117792914Y-76458333D02*
X117840533Y-76363095D01*
X121319819Y-88196666D02*
X122034104Y-88196666D01*
X122034104Y-88196666D02*
X122176961Y-88149047D01*
X122176961Y-88149047D02*
X122272200Y-88053809D01*
X122272200Y-88053809D02*
X122319819Y-87910952D01*
X122319819Y-87910952D02*
X122319819Y-87815714D01*
X122319819Y-89196666D02*
X122319819Y-88625238D01*
X122319819Y-88910952D02*
X121319819Y-88910952D01*
X121319819Y-88910952D02*
X121462676Y-88815714D01*
X121462676Y-88815714D02*
X121557914Y-88720476D01*
X121557914Y-88720476D02*
X121605533Y-88625238D01*
D12*
%TO.C,SW1*%
X108300000Y-89275000D02*
X108300000Y-81775000D01*
X108300000Y-81775000D02*
X113264000Y-81775000D01*
X115236000Y-81775000D02*
X115900000Y-81775000D01*
X115900000Y-82275000D02*
X115900000Y-81775000D01*
X113264000Y-82275000D02*
X111900000Y-82275000D01*
X115900000Y-82275000D02*
X115236000Y-82275000D01*
X111900000Y-82275000D02*
X111900000Y-82444000D01*
X108300000Y-83825000D02*
X106050000Y-83825000D01*
X106050000Y-87225000D02*
X106050000Y-83825000D01*
X111900000Y-84106000D02*
X111900000Y-86944000D01*
X108300000Y-87225000D02*
X106050000Y-87225000D01*
X111900000Y-88606000D02*
X111900000Y-88775000D01*
X111900000Y-88775000D02*
X113264000Y-88775000D01*
X115236000Y-88775000D02*
X115900000Y-88775000D01*
X113264000Y-89275000D02*
X108300000Y-89275000D01*
X115900000Y-89275000D02*
X115236000Y-89275000D01*
X115900000Y-88775000D02*
X115900000Y-89275000D01*
D13*
%TO.C,C1*%
X121010000Y-79840580D02*
X121010000Y-79559420D01*
X119990000Y-79840580D02*
X119990000Y-79559420D01*
D14*
%TO.C,U5*%
X194975000Y-83000000D02*
X194975000Y-83420000D01*
X195075000Y-80850000D02*
X195075000Y-81270000D01*
X195284500Y-81057000D02*
X194864500Y-81057000D01*
D12*
X196216000Y-80365000D02*
G75*
G02*
X196213000Y-83138999I-1012684J-1385906D01*
G01*
D14*
%TO.C,U4*%
X162182000Y-81992643D02*
X162602000Y-81992643D01*
X160032000Y-81892643D02*
X160452000Y-81892643D01*
X160239000Y-81683143D02*
X160239000Y-82103143D01*
D12*
X159547000Y-80751643D02*
G75*
G02*
X162320999Y-80754643I1385906J-1012684D01*
G01*
D14*
%TO.C,U3*%
X153307000Y-82042643D02*
X153727000Y-82042643D01*
X151157000Y-81942643D02*
X151577000Y-81942643D01*
X151364000Y-81733143D02*
X151364000Y-82153143D01*
D12*
X150672000Y-80801643D02*
G75*
G02*
X153445999Y-80804643I1385906J-1012684D01*
G01*
D14*
%TO.C,U2*%
X130020581Y-71570267D02*
X130426269Y-71461563D01*
X127917958Y-72030136D02*
X128323647Y-71921432D01*
X128063682Y-71774199D02*
X128172386Y-72179887D01*
D12*
X127154172Y-71053542D02*
G75*
G02*
X129834425Y-70338476I1600784J-619478D01*
G01*
D13*
%TO.C,U1*%
X118940000Y-75325000D02*
X118940000Y-76125000D01*
X118940000Y-76925000D02*
X118940000Y-76125000D01*
X122060000Y-75325000D02*
X122060000Y-76125000D01*
X122060000Y-76925000D02*
X122060000Y-76125000D01*
X118990000Y-74825000D02*
X118660000Y-75065000D01*
X118660000Y-74585000D01*
X118990000Y-74825000D01*
G36*
X118990000Y-74825000D02*
G01*
X118660000Y-75065000D01*
X118660000Y-74585000D01*
X118990000Y-74825000D01*
G37*
%TO.C,J1*%
X122865000Y-87260000D02*
X122865000Y-85930000D01*
X122865000Y-85930000D02*
X124195000Y-85930000D01*
X130605000Y-85930000D02*
X125465000Y-85930000D01*
X125465000Y-88530000D02*
X125465000Y-85930000D01*
X130605000Y-91130000D02*
X130605000Y-85930000D01*
X122865000Y-91130000D02*
X122865000Y-88530000D01*
X122865000Y-88530000D02*
X125465000Y-88530000D01*
X130605000Y-91130000D02*
X122865000Y-91130000D01*
%TD*%
%LPC*%
D15*
%TO.C,REF\u002A\u002A*%
X136925000Y-88675000D03*
%TD*%
%TO.C,*%
X146225000Y-74175000D03*
%TD*%
D16*
%TO.C,SW1*%
X111050000Y-87775000D03*
X111050000Y-83275000D03*
D17*
X114250000Y-89525000D03*
X114250000Y-81525000D03*
%TD*%
D18*
%TO.C,C1*%
X120500000Y-80475000D03*
X120500000Y-78925000D03*
%TD*%
D19*
%TO.C,U5*%
X195625000Y-80300000D03*
D20*
X195725000Y-81050000D03*
D21*
X195625000Y-81750000D03*
D20*
X195725000Y-82450000D03*
D19*
X195625000Y-83200000D03*
%TD*%
D22*
%TO.C,U4*%
X159482000Y-81342643D03*
D23*
X160232000Y-81242643D03*
D24*
X160932000Y-81342643D03*
D23*
X161632000Y-81242643D03*
D22*
X162382000Y-81342643D03*
%TD*%
%TO.C,U3*%
X150607000Y-81392643D03*
D23*
X151357000Y-81292643D03*
D24*
X152057000Y-81392643D03*
D23*
X152757000Y-81292643D03*
D22*
X153507000Y-81392643D03*
%TD*%
D25*
%TO.C,U2*%
X127244349Y-71641227D03*
D26*
X127942911Y-71350520D03*
D27*
X128644941Y-71265939D03*
D26*
X129295207Y-70988173D03*
D25*
X130045533Y-70890652D03*
%TD*%
D28*
%TO.C,U1*%
X119550000Y-74987500D03*
X120500000Y-74987500D03*
X121450000Y-74987500D03*
X121450000Y-77262500D03*
X120500000Y-77262500D03*
X119550000Y-77262500D03*
%TD*%
D29*
%TO.C,J1*%
X124195000Y-87260000D03*
D30*
X124195000Y-89800000D03*
X126735000Y-87260000D03*
X126735000Y-89800000D03*
X129275000Y-87260000D03*
X129275000Y-89800000D03*
%TD*%
G36*
X165704937Y-72686548D02*
G01*
X165705519Y-72687133D01*
X165705519Y-80914533D01*
X165704936Y-80915118D01*
X146184013Y-80996059D01*
X146183434Y-80995049D01*
X146944519Y-79707456D01*
X147620345Y-78513253D01*
X148222541Y-77399520D01*
X148762372Y-76353955D01*
X149251143Y-75364188D01*
X149700150Y-74417868D01*
X150524169Y-72605881D01*
X150524667Y-72605562D01*
X165704937Y-72686548D01*
G37*
G36*
X173451600Y-68698874D02*
G01*
X173454990Y-68707057D01*
X173454990Y-71858911D01*
X173451600Y-71867094D01*
X173443417Y-71870484D01*
X170291563Y-71870484D01*
X170283380Y-71867094D01*
X170279990Y-71858911D01*
X170279990Y-68707057D01*
X170283380Y-68698874D01*
X170291563Y-68695484D01*
X173443417Y-68695484D01*
X173451600Y-68698874D01*
G37*
G36*
X173421610Y-92853390D02*
G01*
X173425000Y-92861573D01*
X173425000Y-96013427D01*
X173421610Y-96021610D01*
X173413427Y-96025000D01*
X170261573Y-96025000D01*
X170253390Y-96021610D01*
X170250000Y-96013427D01*
X170250000Y-92861573D01*
X170253390Y-92853390D01*
X170261573Y-92850000D01*
X173413427Y-92850000D01*
X173421610Y-92853390D01*
G37*
G36*
X137027549Y-87579889D02*
G01*
X137224972Y-87616794D01*
X137227026Y-87617378D01*
X137414314Y-87689933D01*
X137416225Y-87690885D01*
X137586983Y-87796615D01*
X137588688Y-87797902D01*
X137737121Y-87933216D01*
X137738559Y-87934795D01*
X137859589Y-88095064D01*
X137860714Y-88096880D01*
X137950242Y-88276678D01*
X137951013Y-88278669D01*
X138005975Y-88471841D01*
X138006368Y-88473940D01*
X138024901Y-88673932D01*
X138024901Y-88676068D01*
X138006368Y-88876059D01*
X138005975Y-88878158D01*
X137951013Y-89071330D01*
X137950242Y-89073321D01*
X137860714Y-89253119D01*
X137859589Y-89254935D01*
X137738559Y-89415204D01*
X137737121Y-89416783D01*
X137588688Y-89552097D01*
X137586983Y-89553384D01*
X137416225Y-89659114D01*
X137414314Y-89660066D01*
X137227026Y-89732621D01*
X137224972Y-89733205D01*
X137027549Y-89770111D01*
X137025422Y-89770308D01*
X136824578Y-89770308D01*
X136822451Y-89770111D01*
X136625027Y-89733205D01*
X136622973Y-89732621D01*
X136435685Y-89660066D01*
X136433774Y-89659114D01*
X136263016Y-89553384D01*
X136261311Y-89552097D01*
X136112878Y-89416783D01*
X136111440Y-89415204D01*
X135990410Y-89254935D01*
X135989285Y-89253119D01*
X135899757Y-89073321D01*
X135898986Y-89071330D01*
X135844024Y-88878158D01*
X135843631Y-88876059D01*
X135825098Y-88676068D01*
X135825098Y-88673932D01*
X135843631Y-88473940D01*
X135844024Y-88471841D01*
X135898986Y-88278669D01*
X135899757Y-88276678D01*
X135989285Y-88096880D01*
X135990410Y-88095064D01*
X136111440Y-87934795D01*
X136112878Y-87933216D01*
X136261311Y-87797902D01*
X136263016Y-87796615D01*
X136433774Y-87690885D01*
X136435685Y-87689933D01*
X136622973Y-87617378D01*
X136625027Y-87616794D01*
X136822451Y-87579889D01*
X136824578Y-87579692D01*
X137025422Y-87579692D01*
X137027549Y-87579889D01*
G37*
G36*
X146327549Y-73079889D02*
G01*
X146524972Y-73116794D01*
X146527026Y-73117378D01*
X146714314Y-73189933D01*
X146716225Y-73190885D01*
X146886983Y-73296615D01*
X146888688Y-73297902D01*
X147037121Y-73433216D01*
X147038559Y-73434795D01*
X147159589Y-73595064D01*
X147160714Y-73596880D01*
X147250242Y-73776678D01*
X147251013Y-73778669D01*
X147305975Y-73971841D01*
X147306368Y-73973940D01*
X147324901Y-74173932D01*
X147324901Y-74176068D01*
X147306368Y-74376059D01*
X147305975Y-74378158D01*
X147251013Y-74571330D01*
X147250242Y-74573321D01*
X147160714Y-74753119D01*
X147159589Y-74754935D01*
X147038559Y-74915204D01*
X147037121Y-74916783D01*
X146888688Y-75052097D01*
X146886983Y-75053384D01*
X146716225Y-75159114D01*
X146714314Y-75160066D01*
X146527026Y-75232621D01*
X146524972Y-75233205D01*
X146327549Y-75270111D01*
X146325422Y-75270308D01*
X146124578Y-75270308D01*
X146122451Y-75270111D01*
X145925027Y-75233205D01*
X145922973Y-75232621D01*
X145735685Y-75160066D01*
X145733774Y-75159114D01*
X145563016Y-75053384D01*
X145561311Y-75052097D01*
X145412878Y-74916783D01*
X145411440Y-74915204D01*
X145290410Y-74754935D01*
X145289285Y-74753119D01*
X145199757Y-74573321D01*
X145198986Y-74571330D01*
X145144024Y-74378158D01*
X145143631Y-74376059D01*
X145125098Y-74176068D01*
X145125098Y-74173932D01*
X145143631Y-73973940D01*
X145144024Y-73971841D01*
X145198986Y-73778669D01*
X145199757Y-73776678D01*
X145289285Y-73596880D01*
X145290410Y-73595064D01*
X145411440Y-73434795D01*
X145412878Y-73433216D01*
X145561311Y-73297902D01*
X145563016Y-73296615D01*
X145733774Y-73190885D01*
X145735685Y-73189933D01*
X145922973Y-73117378D01*
X145925027Y-73116794D01*
X146122451Y-73079889D01*
X146124578Y-73079692D01*
X146325422Y-73079692D01*
X146327549Y-73079889D01*
G37*
G36*
X131848464Y-67642678D02*
G01*
X131852824Y-67650388D01*
X131852877Y-67652669D01*
X131846566Y-67736087D01*
X131846466Y-67736964D01*
X131829061Y-67850768D01*
X131828911Y-67851560D01*
X131794998Y-68002206D01*
X131794772Y-68003058D01*
X131738859Y-68185324D01*
X131738541Y-68186225D01*
X131655133Y-68394900D01*
X131654712Y-68395832D01*
X131538304Y-68625762D01*
X131537772Y-68626702D01*
X131382770Y-68872848D01*
X131382303Y-68873533D01*
X131288772Y-69000830D01*
X131288425Y-69001280D01*
X131183094Y-69130799D01*
X131182722Y-69131234D01*
X131065013Y-69262180D01*
X131064619Y-69262597D01*
X130933830Y-69394335D01*
X130933417Y-69394731D01*
X130788849Y-69526621D01*
X130788420Y-69526993D01*
X130629402Y-69658369D01*
X130628961Y-69658716D01*
X130454767Y-69788958D01*
X130454317Y-69789277D01*
X130264281Y-69917716D01*
X130263827Y-69918008D01*
X130057251Y-70044000D01*
X130056795Y-70044264D01*
X129833000Y-70167153D01*
X129832547Y-70167390D01*
X129590774Y-70286561D01*
X129590325Y-70286770D01*
X129329971Y-70401527D01*
X129329529Y-70401711D01*
X129049847Y-70511430D01*
X129049416Y-70511589D01*
X128749747Y-70615607D01*
X128749327Y-70615744D01*
X128428952Y-70713420D01*
X128428545Y-70713536D01*
X128086821Y-70804205D01*
X128086346Y-70804320D01*
X127813964Y-70864397D01*
X127813394Y-70864508D01*
X127548868Y-70909084D01*
X127548288Y-70909167D01*
X127291619Y-70939144D01*
X127291031Y-70939197D01*
X127042328Y-70955465D01*
X127041739Y-70955489D01*
X126800972Y-70958944D01*
X126800385Y-70958937D01*
X126567696Y-70950472D01*
X126567116Y-70950437D01*
X126342462Y-70930939D01*
X126341893Y-70930875D01*
X126125394Y-70901238D01*
X126124840Y-70901149D01*
X125916542Y-70862268D01*
X125916006Y-70862154D01*
X125715932Y-70814911D01*
X125715417Y-70814777D01*
X125523626Y-70760062D01*
X125523133Y-70759909D01*
X125339722Y-70698626D01*
X125339254Y-70698459D01*
X125164201Y-70631469D01*
X125163757Y-70631288D01*
X124997196Y-70559514D01*
X124996778Y-70559324D01*
X124838716Y-70483634D01*
X124838322Y-70483436D01*
X124688840Y-70404733D01*
X124688472Y-70404531D01*
X124547600Y-70323690D01*
X124547255Y-70323484D01*
X124415067Y-70241405D01*
X124414746Y-70241198D01*
X124291314Y-70158782D01*
X124291014Y-70158575D01*
X124176425Y-70076739D01*
X124176020Y-70076436D01*
X123973280Y-69917826D01*
X123972798Y-69917428D01*
X123805973Y-69771727D01*
X123805558Y-69771345D01*
X123675099Y-69645690D01*
X123674741Y-69645330D01*
X123581075Y-69546839D01*
X123580705Y-69546431D01*
X123516657Y-69472315D01*
X123513871Y-69463907D01*
X123517846Y-69455992D01*
X123521955Y-69453704D01*
X125012333Y-68987088D01*
X125012541Y-68987025D01*
X126337605Y-68599287D01*
X126337848Y-68599219D01*
X126980081Y-68426386D01*
X126980380Y-68426309D01*
X127547077Y-68289921D01*
X127547537Y-68289820D01*
X128139382Y-68172646D01*
X128139686Y-68172590D01*
X128818441Y-68056951D01*
X128818628Y-68056921D01*
X129533087Y-67947183D01*
X129533213Y-67947164D01*
X130232446Y-67847638D01*
X130232451Y-67847677D01*
X130232567Y-67847621D01*
X131380394Y-67696641D01*
X131380495Y-67696628D01*
X131839929Y-67640309D01*
X131848464Y-67642678D01*
G37*
%LPD*%
M02*
