%TF.GenerationSoftware,KiCad,Pcbnew,9.0.0*%
%TF.CreationDate,2025-03-23T17:22:46-07:00*%
%TF.ProjectId,portal-gun,706f7274-616c-42d6-9775-6e2e6b696361,rev?*%
%TF.SameCoordinates,Original*%
%TF.FileFunction,Copper,L1,Top*%
%TF.FilePolarity,Positive*%
%FSLAX46Y46*%
G04 Gerber Fmt 4.6, Leading zero omitted, Abs format (unit mm)*
G04 Created by KiCad (PCBNEW 9.0.0) date 2025-03-23 17:22:46*
%MOMM*%
%LPD*%
G01*
G04 APERTURE LIST*
%TA.AperFunction,ComponentPad*%
%ADD10R,1.700000X1.700000*%
%TD*%
%TA.AperFunction,ComponentPad*%
%ADD11O,1.700000X1.700000*%
%TD*%
%TA.AperFunction,ViaPad*%
%ADD12C,0.600000*%
%TD*%
G04 APERTURE END LIST*
D10*
%TO.P,J1,1,Pin_1*%
%TO.N,VDD*%
X124195000Y-87260000D03*
D11*
%TO.P,J1,2,Pin_2*%
%TO.N,GND*%
X124195000Y-89800000D03*
%TO.P,J1,3,Pin_3*%
%TO.N,unconnected-(J1-Pin_3-Pad3)*%
X126735000Y-87260000D03*
%TO.P,J1,4,Pin_4*%
%TO.N,unconnected-(J1-Pin_4-Pad4)*%
X126735000Y-89800000D03*
%TO.P,J1,5,Pin_5*%
%TO.N,Net-(J1-Pin_5)*%
X129275000Y-87260000D03*
%TO.P,J1,6,Pin_6*%
%TO.N,Net-(J1-Pin_6)*%
X129275000Y-89800000D03*
%TD*%
D12*
%TO.N,VDD*%
X119500000Y-78900000D03*
X128225000Y-72550000D03*
X111050000Y-86600000D03*
X151350000Y-83450000D03*
X160250000Y-83475000D03*
X194500000Y-81050000D03*
%TD*%
%TA.AperFunction,Conductor*%
%TO.N,VDD*%
G36*
X186467193Y-54231725D02*
G01*
X186468300Y-54231905D01*
X208407219Y-58908300D01*
X208408002Y-58908467D01*
X208408120Y-58908531D01*
X208408194Y-58908508D01*
X208408277Y-58908526D01*
X208408398Y-58908447D01*
X208408516Y-58908413D01*
X208408549Y-58908350D01*
X208408628Y-58908300D01*
X208408660Y-58908145D01*
X208408714Y-58908049D01*
X208408694Y-58907984D01*
X208408719Y-58907871D01*
X208408653Y-58907594D01*
X208408550Y-58907026D01*
X208408158Y-58906175D01*
X208294449Y-58522590D01*
X207831815Y-56961945D01*
X207831698Y-56961518D01*
X207831207Y-56959583D01*
X207831224Y-56959464D01*
X207831078Y-56958970D01*
X207830686Y-56958120D01*
X207397538Y-55481385D01*
X207397354Y-55480674D01*
X207396872Y-55478534D01*
X207396885Y-55478454D01*
X207396801Y-55478157D01*
X207396293Y-55477034D01*
X207209243Y-54806308D01*
X207208992Y-54805200D01*
X207206948Y-54793558D01*
X207206895Y-54792518D01*
X207206495Y-54790968D01*
X207206236Y-54789469D01*
X207206331Y-54789452D01*
X207206214Y-54789116D01*
X207206182Y-54789122D01*
X207206143Y-54788911D01*
X207206004Y-54788508D01*
X207205868Y-54787213D01*
X207205928Y-54787009D01*
X207205518Y-54785412D01*
X207205099Y-54783026D01*
X207205010Y-54779641D01*
X207207114Y-54762299D01*
X207207307Y-54760712D01*
X207207320Y-54760702D01*
X207207330Y-54760529D01*
X207207373Y-54760177D01*
X207207373Y-54760176D01*
X207207376Y-54760149D01*
X207207525Y-54758944D01*
X207207463Y-54758350D01*
X207208468Y-54741872D01*
X207209610Y-54737521D01*
X207209792Y-54737147D01*
X207210120Y-54736524D01*
X207210273Y-54736251D01*
X207210275Y-54736251D01*
X207210275Y-54736249D01*
X207210336Y-54736142D01*
X207210364Y-54735682D01*
X207210427Y-54734990D01*
X207210473Y-54734610D01*
X207211879Y-54730320D01*
X207219895Y-54716102D01*
X207220287Y-54715632D01*
X207220878Y-54714410D01*
X207220895Y-54714375D01*
X207221050Y-54714055D01*
X207221139Y-54713900D01*
X207221134Y-54713883D01*
X207221529Y-54713072D01*
X207229228Y-54697278D01*
X207231948Y-54693697D01*
X207232260Y-54693421D01*
X207232821Y-54692956D01*
X207233046Y-54692780D01*
X207233048Y-54692780D01*
X207233048Y-54692778D01*
X207233051Y-54692777D01*
X207233111Y-54692668D01*
X207233200Y-54692591D01*
X207233204Y-54692502D01*
X207233483Y-54692006D01*
X207233866Y-54691327D01*
X207236800Y-54687913D01*
X207249669Y-54677829D01*
X207250206Y-54677546D01*
X207251197Y-54676664D01*
X207251229Y-54676635D01*
X207251352Y-54676525D01*
X207251353Y-54676526D01*
X207251491Y-54676403D01*
X207251649Y-54676280D01*
X207251651Y-54676262D01*
X207265472Y-54664027D01*
X207269375Y-54661753D01*
X207269760Y-54661620D01*
X207270430Y-54661412D01*
X207270718Y-54661331D01*
X207270723Y-54661332D01*
X207270726Y-54661329D01*
X207270842Y-54661297D01*
X207270932Y-54661217D01*
X207270936Y-54661216D01*
X207270937Y-54661213D01*
X207271198Y-54660984D01*
X207271726Y-54660545D01*
X207272034Y-54660304D01*
X207276054Y-54658271D01*
X207291936Y-54653841D01*
X207292539Y-54653778D01*
X207293649Y-54653390D01*
X207294429Y-54653147D01*
X207295675Y-54652806D01*
X207296209Y-54652507D01*
X207311682Y-54647177D01*
X207316142Y-54646568D01*
X207316556Y-54646593D01*
X207317206Y-54646652D01*
X207317565Y-54646694D01*
X207317567Y-54646695D01*
X207317568Y-54646694D01*
X207317691Y-54646709D01*
X207317804Y-54646669D01*
X207317808Y-54646670D01*
X207317810Y-54646667D01*
X207318096Y-54646569D01*
X207318753Y-54646363D01*
X207319168Y-54646247D01*
X207323662Y-54645908D01*
X207340104Y-54647903D01*
X207340669Y-54648066D01*
X207341808Y-54648133D01*
X207342560Y-54648201D01*
X207343858Y-54648362D01*
X207344448Y-54648293D01*
X207361434Y-54649329D01*
X207364754Y-54650032D01*
X207367022Y-54650874D01*
X207368485Y-54651550D01*
X207369511Y-54651799D01*
X207370528Y-54652179D01*
X207370253Y-54652913D01*
X207370641Y-54653054D01*
X207370915Y-54652319D01*
X207372335Y-54652846D01*
X207373748Y-54653500D01*
X207374740Y-54653739D01*
X207376015Y-54654212D01*
X207385865Y-54657868D01*
X207386895Y-54658309D01*
X211767503Y-56793857D01*
X211768479Y-56794393D01*
X211787666Y-56806203D01*
X211790259Y-56808383D01*
X211795702Y-56814534D01*
X211796521Y-56815637D01*
X211797704Y-56816344D01*
X211803790Y-56820785D01*
X211806846Y-56824105D01*
X211811974Y-56832507D01*
X211811975Y-56832508D01*
X211812417Y-56833233D01*
X211812674Y-56833653D01*
X211812671Y-56833704D01*
X211812779Y-56833826D01*
X211813102Y-56834355D01*
X211813824Y-56835008D01*
X211820326Y-56842354D01*
X211822602Y-56846255D01*
X211825070Y-56853419D01*
X211825403Y-56854751D01*
X211826216Y-56855851D01*
X211830472Y-56862826D01*
X211831797Y-56865954D01*
X211835616Y-56880706D01*
X211835846Y-56881818D01*
X212974673Y-64163719D01*
X212974793Y-64164848D01*
X212976080Y-64187419D01*
X212975774Y-64190801D01*
X212973240Y-64201265D01*
X212973240Y-64201267D01*
X212972801Y-64212025D01*
X212972166Y-64215361D01*
X212964723Y-64236717D01*
X212964297Y-64237769D01*
X210642488Y-69253735D01*
X210641961Y-69254742D01*
X210633120Y-69269772D01*
X210633119Y-69269772D01*
X210632944Y-69270188D01*
X210631960Y-69272028D01*
X210631382Y-69272906D01*
X210631129Y-69273157D01*
X210630362Y-69274461D01*
X210630194Y-69274717D01*
X210629996Y-69274851D01*
X210628364Y-69276874D01*
X210612968Y-69291062D01*
X210598440Y-69305385D01*
X210595642Y-69307226D01*
X210595665Y-69307262D01*
X210593906Y-69308377D01*
X210593883Y-69308341D01*
X210591025Y-69310085D01*
X210571905Y-69317104D01*
X210553020Y-69324770D01*
X210550652Y-69325449D01*
X210549625Y-69325627D01*
X210548712Y-69325621D01*
X210547854Y-69325935D01*
X210546826Y-69326115D01*
X210546239Y-69325983D01*
X210544369Y-69326276D01*
X210524028Y-69325445D01*
X210503637Y-69325300D01*
X210500362Y-69324623D01*
X210500353Y-69324665D01*
X210498316Y-69324209D01*
X210498324Y-69324169D01*
X210495067Y-69323381D01*
X210493637Y-69322719D01*
X210476571Y-69314819D01*
X210476556Y-69314813D01*
X210476546Y-69314808D01*
X210457813Y-69306893D01*
X210455658Y-69305698D01*
X210454805Y-69305098D01*
X210454164Y-69304447D01*
X210453335Y-69304063D01*
X210452480Y-69303462D01*
X210452157Y-69302953D01*
X210450628Y-69301839D01*
X210436823Y-69286857D01*
X210422517Y-69272348D01*
X210420676Y-69269549D01*
X210420640Y-69269572D01*
X210419524Y-69267812D01*
X210419559Y-69267789D01*
X210417815Y-69264931D01*
X210410800Y-69245822D01*
X210410796Y-69245811D01*
X210405970Y-69233922D01*
X210405224Y-69231106D01*
X210404962Y-69229143D01*
X210404985Y-69229056D01*
X210404917Y-69228764D01*
X210404889Y-69228484D01*
X210404873Y-69228303D01*
X210404836Y-69227863D01*
X210404826Y-69227832D01*
X210404763Y-69227178D01*
X210404723Y-69225521D01*
X210404724Y-69225487D01*
X210404524Y-69224594D01*
X210403099Y-69208987D01*
X210403051Y-69207853D01*
X210403703Y-69116247D01*
X210407994Y-68513468D01*
X210408002Y-68513460D01*
X210407995Y-68513245D01*
X210407997Y-68513064D01*
X210407995Y-68513062D01*
X210407996Y-68513031D01*
X210407997Y-68513027D01*
X210407997Y-68512978D01*
X210408015Y-68511368D01*
X210407928Y-68510954D01*
X210406147Y-68450343D01*
X210385250Y-67739028D01*
X210385256Y-67739023D01*
X210385245Y-67738826D01*
X210385239Y-67738622D01*
X210385238Y-67738621D01*
X210385186Y-67736848D01*
X210385117Y-67736557D01*
X210359168Y-67272568D01*
X210359172Y-67272565D01*
X210359159Y-67272399D01*
X210359146Y-67272162D01*
X210359145Y-67272161D01*
X210359034Y-67270127D01*
X210358965Y-67269880D01*
X210320024Y-66762857D01*
X210320028Y-66762853D01*
X210320010Y-66762673D01*
X210319993Y-66762452D01*
X210319992Y-66762451D01*
X210319842Y-66760503D01*
X210319766Y-66760243D01*
X210265444Y-66218165D01*
X210265449Y-66218160D01*
X210265424Y-66217966D01*
X210265404Y-66217762D01*
X210265403Y-66217761D01*
X210265204Y-66215735D01*
X210265102Y-66215431D01*
X210193038Y-65646308D01*
X210193043Y-65646302D01*
X210193012Y-65646107D01*
X210192987Y-65645906D01*
X210192986Y-65645905D01*
X210192783Y-65644270D01*
X210192673Y-65643942D01*
X210100435Y-65055218D01*
X210100441Y-65055211D01*
X210100404Y-65055020D01*
X210100373Y-65054819D01*
X210100372Y-65054818D01*
X210100369Y-65054798D01*
X210100089Y-65052985D01*
X210099945Y-65052622D01*
X210006902Y-64565875D01*
X209985258Y-64452643D01*
X209985265Y-64452634D01*
X209985218Y-64452433D01*
X209985183Y-64452247D01*
X209985182Y-64452246D01*
X209985175Y-64452207D01*
X209985175Y-64452206D01*
X209985168Y-64452173D01*
X209984870Y-64450588D01*
X209984701Y-64450194D01*
X209937479Y-64245874D01*
X209845185Y-63846534D01*
X209845191Y-63846524D01*
X209845141Y-63846344D01*
X209845095Y-63846145D01*
X209845084Y-63846097D01*
X209845084Y-63846096D01*
X209844751Y-63844660D01*
X209844556Y-63844243D01*
X209677689Y-63244000D01*
X209677659Y-63243892D01*
X209677665Y-63243884D01*
X209677607Y-63243706D01*
X209677546Y-63243483D01*
X209677546Y-63243481D01*
X209677540Y-63243461D01*
X209677129Y-63241967D01*
X209676933Y-63241589D01*
X209583341Y-62947817D01*
X209583344Y-62947811D01*
X209583297Y-62947679D01*
X209583240Y-62947498D01*
X209583236Y-62947486D01*
X209582694Y-62945777D01*
X209582532Y-62945487D01*
X209481929Y-62657310D01*
X209481928Y-62657307D01*
X209481129Y-62655017D01*
X209481133Y-62655011D01*
X209481070Y-62654848D01*
X209481003Y-62654655D01*
X209480997Y-62654640D01*
X209480419Y-62652977D01*
X209480241Y-62652681D01*
X209479622Y-62651063D01*
X209479505Y-62650742D01*
X209478047Y-62646565D01*
X209367932Y-62358854D01*
X209274609Y-62136630D01*
X186985149Y-57487095D01*
X186985148Y-57487095D01*
X178623932Y-66097739D01*
X178618825Y-68441565D01*
X178619615Y-68443598D01*
X178619113Y-68443792D01*
X178620876Y-68448330D01*
X178620873Y-68449734D01*
X178620862Y-68450181D01*
X178620872Y-68450207D01*
X178621180Y-68450532D01*
X181998193Y-72173753D01*
X181998523Y-72174277D01*
X181999681Y-72175448D01*
X181999767Y-72175488D01*
X181999768Y-72175489D01*
X181999876Y-72175539D01*
X181999991Y-72175540D01*
X181999994Y-72175541D01*
X181999996Y-72175540D01*
X182000090Y-72175541D01*
X182000179Y-72175508D01*
X182000182Y-72175509D01*
X182000183Y-72175507D01*
X182001763Y-72174940D01*
X182002231Y-72174645D01*
X182299690Y-72055661D01*
X182300147Y-72055491D01*
X184781341Y-71203256D01*
X184781704Y-71203138D01*
X184804273Y-71196325D01*
X184806494Y-71195886D01*
X184829597Y-71193642D01*
X184830701Y-71193589D01*
X189026874Y-71199222D01*
X189026874Y-71199221D01*
X189026874Y-70746353D01*
X189027286Y-70647704D01*
X189029918Y-70018134D01*
X189029973Y-70017080D01*
X189032183Y-69994641D01*
X189033005Y-69991357D01*
X189034841Y-69986924D01*
X189035255Y-69986077D01*
X189035280Y-69985865D01*
X189035330Y-69985747D01*
X189035302Y-69985679D01*
X189035409Y-69984777D01*
X189035410Y-69984775D01*
X189035411Y-69984759D01*
X189035910Y-69980593D01*
X189037312Y-69976299D01*
X189043725Y-69964893D01*
X189044266Y-69964184D01*
X189044353Y-69963972D01*
X189044375Y-69963917D01*
X189044654Y-69963239D01*
X189044730Y-69963107D01*
X189044721Y-69963076D01*
X189044959Y-69962499D01*
X189050367Y-69949439D01*
X189052872Y-69945690D01*
X189055837Y-69942725D01*
X189056542Y-69942099D01*
X189056640Y-69941922D01*
X189056734Y-69941830D01*
X189056734Y-69941755D01*
X189057052Y-69941184D01*
X189059243Y-69937288D01*
X189062177Y-69933864D01*
X189072507Y-69925748D01*
X189073260Y-69925307D01*
X189073418Y-69925149D01*
X189074526Y-69924166D01*
X189074714Y-69924019D01*
X189075246Y-69923316D01*
X189084521Y-69914041D01*
X189088270Y-69911536D01*
X189092152Y-69909929D01*
X189093230Y-69909554D01*
X189094085Y-69908794D01*
X189097371Y-69906212D01*
X189101393Y-69904173D01*
X189114029Y-69900631D01*
X189114202Y-69900582D01*
X189115605Y-69900191D01*
X189115634Y-69900203D01*
X189115773Y-69900144D01*
X189116477Y-69899948D01*
X189116484Y-69899948D01*
X189116530Y-69899933D01*
X189116746Y-69899873D01*
X189117508Y-69899426D01*
X189129621Y-69894409D01*
X189134046Y-69893530D01*
X189138232Y-69893530D01*
X189139381Y-69893598D01*
X189140472Y-69893218D01*
X189145080Y-69891927D01*
X189148440Y-69891502D01*
X189170949Y-69891981D01*
X189172052Y-69892058D01*
X196291108Y-70746343D01*
X196292218Y-70746533D01*
X196297373Y-70747672D01*
X196298759Y-70748112D01*
X196299959Y-70748244D01*
X196301138Y-70748505D01*
X196300990Y-70749171D01*
X196301898Y-70749366D01*
X196302040Y-70748713D01*
X196303400Y-70749008D01*
X196304778Y-70749441D01*
X196305956Y-70749569D01*
X196314209Y-70751393D01*
X196317379Y-70752604D01*
X196329448Y-70759389D01*
X196330819Y-70760160D01*
X196330833Y-70760192D01*
X196330988Y-70760256D01*
X196331605Y-70760603D01*
X196331606Y-70760604D01*
X196331626Y-70760614D01*
X196331919Y-70760780D01*
X196332778Y-70760999D01*
X196344854Y-70766013D01*
X196348606Y-70768525D01*
X196351546Y-70771470D01*
X196352299Y-70772313D01*
X196353324Y-70772812D01*
X196354480Y-70773462D01*
X196356920Y-70774834D01*
X196360348Y-70777771D01*
X196368483Y-70788124D01*
X196369498Y-70789415D01*
X196369498Y-70789450D01*
X196369623Y-70789575D01*
X196370049Y-70790117D01*
X196370238Y-70790358D01*
X196370922Y-70790877D01*
X196380225Y-70800195D01*
X196382730Y-70803949D01*
X196384311Y-70807772D01*
X196384685Y-70808856D01*
X196385440Y-70809705D01*
X196387997Y-70812960D01*
X196390039Y-70816985D01*
X196393611Y-70829731D01*
X196393610Y-70829731D01*
X196394035Y-70831246D01*
X196394024Y-70831277D01*
X196394087Y-70831430D01*
X196394268Y-70832074D01*
X196394271Y-70832082D01*
X196394367Y-70832424D01*
X196394804Y-70833167D01*
X196398457Y-70842007D01*
X196399220Y-70844806D01*
X196399257Y-70845068D01*
X196399798Y-70850597D01*
X196400286Y-70852340D01*
X196400394Y-70853103D01*
X196400241Y-70853693D01*
X196400427Y-70856092D01*
X196400376Y-70856520D01*
X196400376Y-70856522D01*
X196401019Y-70863113D01*
X196401074Y-70864246D01*
X196383276Y-92722139D01*
X196383255Y-92722822D01*
X196383240Y-92723058D01*
X196382640Y-92729113D01*
X196382801Y-92730396D01*
X196382737Y-92731473D01*
X196382478Y-92732005D01*
X196382348Y-92733836D01*
X196382070Y-92734849D01*
X196380985Y-92745770D01*
X196380158Y-92749062D01*
X196374325Y-92763112D01*
X196370468Y-92777190D01*
X196369311Y-92779949D01*
X196368917Y-92780625D01*
X196364914Y-92785784D01*
X196362406Y-92791822D01*
X196362014Y-92792497D01*
X196361525Y-92792869D01*
X196360187Y-92794869D01*
X196349845Y-92805194D01*
X196340886Y-92816736D01*
X196338759Y-92818843D01*
X196338139Y-92819315D01*
X196332460Y-92822552D01*
X196327835Y-92827168D01*
X196327214Y-92827642D01*
X196326619Y-92827799D01*
X196324620Y-92829133D01*
X196311115Y-92834714D01*
X196297912Y-92842239D01*
X196295020Y-92843404D01*
X196294883Y-92843438D01*
X196284049Y-92845900D01*
X196282306Y-92846620D01*
X196281498Y-92846825D01*
X196280884Y-92846735D01*
X196279075Y-92847093D01*
X196279077Y-92847105D01*
X196278936Y-92847120D01*
X196278647Y-92847178D01*
X196278427Y-92847177D01*
X196278422Y-92847178D01*
X196272694Y-92848480D01*
X196271576Y-92848677D01*
X189205912Y-93738560D01*
X189204780Y-93738647D01*
X189182172Y-93739260D01*
X189178801Y-93738853D01*
X189174679Y-93737724D01*
X189172718Y-93737187D01*
X189172717Y-93737187D01*
X189166999Y-93737187D01*
X189162571Y-93736306D01*
X189154766Y-93733073D01*
X189149027Y-93730695D01*
X189134884Y-93726821D01*
X189132127Y-93725665D01*
X189131456Y-93725275D01*
X189126328Y-93721293D01*
X189120328Y-93718809D01*
X189119656Y-93718418D01*
X189119281Y-93717927D01*
X189117287Y-93716595D01*
X189106919Y-93706226D01*
X189106917Y-93706224D01*
X189095338Y-93697237D01*
X189093232Y-93695114D01*
X189092766Y-93694504D01*
X189089548Y-93688855D01*
X189084955Y-93684263D01*
X189084484Y-93683645D01*
X189084325Y-93683046D01*
X189082994Y-93681054D01*
X189080494Y-93675019D01*
X189077386Y-93667514D01*
X189074426Y-93662320D01*
X189072675Y-93659249D01*
X189071250Y-93654976D01*
X189071161Y-93654269D01*
X189071089Y-93653107D01*
X189070579Y-93652060D01*
X189068756Y-93647658D01*
X189068084Y-93645419D01*
X189068012Y-93645047D01*
X189067983Y-93644813D01*
X189067953Y-93644742D01*
X189067850Y-93644204D01*
X189067869Y-93644107D01*
X189067697Y-93643149D01*
X189067579Y-93641953D01*
X189065576Y-93621608D01*
X189065520Y-93620474D01*
X189065520Y-92235043D01*
X189064639Y-92232916D01*
X189064810Y-92232844D01*
X189062473Y-92227202D01*
X189062473Y-92226815D01*
X189062472Y-92226814D01*
X187674328Y-92229381D01*
X187674327Y-92229381D01*
X187675101Y-92230952D01*
X187676287Y-92235719D01*
X187676349Y-92237809D01*
X187676335Y-92237851D01*
X187676351Y-92237884D01*
X187676354Y-92237974D01*
X187676888Y-92239254D01*
X187677323Y-92239857D01*
X187899088Y-92689970D01*
X187899539Y-92691011D01*
X187903341Y-92701120D01*
X187903348Y-92701145D01*
X187907807Y-92712929D01*
X187908156Y-92714009D01*
X187982154Y-92988129D01*
X187982245Y-92988488D01*
X187982333Y-92988863D01*
X187982598Y-92990446D01*
X187982834Y-92990987D01*
X187983075Y-92992006D01*
X187982979Y-92992593D01*
X187983382Y-92994426D01*
X187983398Y-92995233D01*
X187985717Y-93009125D01*
X187985779Y-93012518D01*
X187984007Y-93026176D01*
X187984007Y-93026180D01*
X187984266Y-93039377D01*
X187983905Y-93042478D01*
X187983726Y-93043175D01*
X187980848Y-93050533D01*
X187979830Y-93058368D01*
X187979653Y-93059061D01*
X187979290Y-93059544D01*
X187978477Y-93061954D01*
X187971905Y-93073387D01*
X187971903Y-93073390D01*
X187966880Y-93086225D01*
X187965293Y-93089040D01*
X187965177Y-93089190D01*
X187956467Y-93100241D01*
X187955700Y-93101573D01*
X187955230Y-93102189D01*
X187954710Y-93102489D01*
X187953885Y-93103436D01*
X187953983Y-93103536D01*
X187953473Y-93104040D01*
X187951193Y-93106932D01*
X187950448Y-93107786D01*
X187799337Y-93264974D01*
X187799015Y-93265297D01*
X187798767Y-93265534D01*
X187795142Y-93268632D01*
X187791916Y-93272121D01*
X187791662Y-93272366D01*
X187791629Y-93272378D01*
X187791329Y-93272673D01*
X187589107Y-93452403D01*
X187588224Y-93453114D01*
X187585308Y-93455233D01*
X187582697Y-93457710D01*
X187581839Y-93458448D01*
X187283177Y-93690762D01*
X187282954Y-93690931D01*
X187282608Y-93691186D01*
X187280131Y-93692750D01*
X187277904Y-93694667D01*
X187277557Y-93694924D01*
X187277531Y-93694930D01*
X187277329Y-93695088D01*
X187089555Y-93827086D01*
X187088599Y-93827691D01*
X187087258Y-93828449D01*
X187087257Y-93828450D01*
X187086067Y-93829408D01*
X187085151Y-93830074D01*
X186869966Y-93970984D01*
X186869808Y-93971086D01*
X186869410Y-93971337D01*
X186867645Y-93972260D01*
X186866049Y-93973460D01*
X186865647Y-93973715D01*
X186865626Y-93973718D01*
X186865484Y-93973815D01*
X186621818Y-94122200D01*
X186620823Y-94122742D01*
X186619454Y-94123401D01*
X186619450Y-94123403D01*
X186618229Y-94124262D01*
X186617271Y-94124868D01*
X186343988Y-94279333D01*
X186343823Y-94279425D01*
X186343405Y-94279652D01*
X186341613Y-94280444D01*
X186339979Y-94281515D01*
X186339552Y-94281748D01*
X186339532Y-94281750D01*
X186339389Y-94281834D01*
X186035414Y-94440944D01*
X186034384Y-94441421D01*
X186033024Y-94441970D01*
X186031773Y-94442735D01*
X186030778Y-94443277D01*
X185695002Y-94605618D01*
X185694838Y-94605696D01*
X185694391Y-94605903D01*
X185692603Y-94606560D01*
X185690945Y-94607503D01*
X185690502Y-94607709D01*
X185690482Y-94607709D01*
X185690336Y-94607784D01*
X185321653Y-94771939D01*
X185320598Y-94772349D01*
X185319256Y-94772795D01*
X185318013Y-94773451D01*
X185316991Y-94773929D01*
X184914293Y-94938483D01*
X184914132Y-94938548D01*
X184913682Y-94938723D01*
X184911910Y-94939252D01*
X184910240Y-94940070D01*
X184909797Y-94940244D01*
X184909777Y-94940243D01*
X184909630Y-94940307D01*
X184471830Y-95103835D01*
X184470756Y-95104178D01*
X184469458Y-95104523D01*
X184468240Y-95105075D01*
X184467194Y-95105489D01*
X183993167Y-95266581D01*
X183993007Y-95266633D01*
X183992533Y-95266786D01*
X183990817Y-95267187D01*
X183989186Y-95267869D01*
X183988713Y-95268023D01*
X183988697Y-95268021D01*
X183988550Y-95268075D01*
X183477230Y-95425301D01*
X183476135Y-95425579D01*
X183475692Y-95425669D01*
X183474898Y-95425830D01*
X183473721Y-95426284D01*
X183472647Y-95426638D01*
X182922915Y-95578583D01*
X182922758Y-95578625D01*
X182922278Y-95578750D01*
X182920610Y-95579039D01*
X182919016Y-95579602D01*
X182918537Y-95579728D01*
X182918521Y-95579725D01*
X182918381Y-95579768D01*
X182329128Y-95725016D01*
X182328014Y-95725233D01*
X182326857Y-95725400D01*
X182326847Y-95725402D01*
X182325729Y-95725763D01*
X182324642Y-95726056D01*
X181694789Y-95863181D01*
X181694636Y-95863213D01*
X181694150Y-95863311D01*
X181692551Y-95863498D01*
X181691010Y-95863951D01*
X181690516Y-95864052D01*
X181690502Y-95864049D01*
X181690367Y-95864082D01*
X181018795Y-95991670D01*
X181017674Y-95991826D01*
X181016602Y-95991922D01*
X181016594Y-95991923D01*
X181015551Y-95992202D01*
X181014437Y-95992441D01*
X180300051Y-96109071D01*
X180299906Y-96109093D01*
X180299403Y-96109168D01*
X180297883Y-96109265D01*
X180296402Y-96109619D01*
X180295900Y-96109695D01*
X180295886Y-96109691D01*
X180295756Y-96109716D01*
X179537461Y-96213968D01*
X179536336Y-96214067D01*
X179535341Y-96214105D01*
X179534367Y-96214314D01*
X179533245Y-96214496D01*
X178729941Y-96304951D01*
X178729857Y-96304960D01*
X178729318Y-96305016D01*
X178728422Y-96305029D01*
X178727538Y-96305203D01*
X178727006Y-96305260D01*
X178726997Y-96305257D01*
X178726918Y-96305269D01*
X178631407Y-96314584D01*
X178618011Y-97020377D01*
X178611096Y-97582073D01*
X178611477Y-97763027D01*
X178612679Y-97782482D01*
X178613525Y-97784385D01*
X178612899Y-97784663D01*
X178614572Y-97788441D01*
X178614702Y-97790535D01*
X178614718Y-97791111D01*
X178614752Y-97791178D01*
X178615189Y-97791593D01*
X182280775Y-101542067D01*
X186987876Y-106358175D01*
X186987887Y-106358186D01*
X186988698Y-106359018D01*
X186988710Y-106359075D01*
X186988830Y-106359154D01*
X186989067Y-106359397D01*
X186989186Y-106359408D01*
X186989216Y-106359405D01*
X186990576Y-106358995D01*
X209219061Y-101863749D01*
X209220493Y-101863460D01*
X209220515Y-101863473D01*
X209220683Y-101863422D01*
X209220873Y-101863384D01*
X209220907Y-101863356D01*
X209220912Y-101863355D01*
X209220914Y-101863351D01*
X209220953Y-101863320D01*
X209221316Y-101862717D01*
X209221732Y-101862094D01*
X209221990Y-101861355D01*
X209289605Y-101736118D01*
X209289972Y-101735438D01*
X209289990Y-101735433D01*
X209290068Y-101735261D01*
X209290244Y-101734937D01*
X209290248Y-101734933D01*
X209290269Y-101734892D01*
X209290803Y-101733914D01*
X209290964Y-101733328D01*
X209380101Y-101540984D01*
X209380423Y-101540292D01*
X209380441Y-101540285D01*
X209380499Y-101540129D01*
X209380686Y-101539727D01*
X209380689Y-101539723D01*
X209380705Y-101539687D01*
X209381124Y-101538793D01*
X209381259Y-101538121D01*
X209549427Y-101094303D01*
X209550153Y-101092388D01*
X209550171Y-101092380D01*
X209550223Y-101092204D01*
X209550374Y-101091807D01*
X209550381Y-101091786D01*
X209550759Y-101090794D01*
X209550843Y-101090133D01*
X209701117Y-100588632D01*
X209701716Y-100586634D01*
X209701730Y-100586626D01*
X209701778Y-100586428D01*
X209701831Y-100586252D01*
X209701829Y-100586249D01*
X209701864Y-100586136D01*
X209701866Y-100586133D01*
X209701872Y-100586112D01*
X209702260Y-100584823D01*
X209702296Y-100584299D01*
X209836068Y-100035304D01*
X209836078Y-100035298D01*
X209836118Y-100035100D01*
X209836164Y-100034913D01*
X209836163Y-100034912D01*
X209836172Y-100034877D01*
X209836172Y-100034875D01*
X209836178Y-100034853D01*
X209836570Y-100033257D01*
X209836579Y-100032811D01*
X209953904Y-99452062D01*
X209953911Y-99452058D01*
X209953942Y-99451871D01*
X209953979Y-99451690D01*
X209953980Y-99451689D01*
X209953988Y-99451646D01*
X209954370Y-99449789D01*
X209954361Y-99449403D01*
X210056094Y-98850378D01*
X210056099Y-98850375D01*
X210056122Y-98850209D01*
X210056162Y-98849979D01*
X210056161Y-98849978D01*
X210056477Y-98848162D01*
X210056464Y-98847841D01*
X210143614Y-98243495D01*
X210143620Y-98243491D01*
X210143648Y-98243259D01*
X210143673Y-98243090D01*
X210143671Y-98243088D01*
X210143674Y-98243073D01*
X210143966Y-98241102D01*
X210143947Y-98240830D01*
X210199347Y-97791595D01*
X210217393Y-97645260D01*
X210217398Y-97645257D01*
X210217415Y-97645079D01*
X210217443Y-97644857D01*
X210217441Y-97644855D01*
X210217660Y-97643129D01*
X210217637Y-97642833D01*
X210328245Y-96524310D01*
X210328250Y-96524306D01*
X210328263Y-96524124D01*
X210328285Y-96523906D01*
X210328284Y-96523905D01*
X210328478Y-96521994D01*
X210328442Y-96521685D01*
X210396834Y-95594782D01*
X210396839Y-95594778D01*
X210396849Y-95594570D01*
X210396864Y-95594376D01*
X210397026Y-95592283D01*
X210396981Y-95591988D01*
X210397155Y-95588609D01*
X210441525Y-94724895D01*
X210441636Y-94723803D01*
X210442930Y-94715213D01*
X210443241Y-94714021D01*
X210443322Y-94712627D01*
X210443530Y-94711270D01*
X210443660Y-94711289D01*
X210443693Y-94709301D01*
X210444182Y-94707574D01*
X210444187Y-94707567D01*
X210444252Y-94706435D01*
X210444992Y-94701520D01*
X210445984Y-94698278D01*
X210447037Y-94696063D01*
X210452814Y-94683919D01*
X210453475Y-94682533D01*
X210453496Y-94682525D01*
X210453551Y-94682374D01*
X210453783Y-94681889D01*
X210453786Y-94681885D01*
X210453804Y-94681845D01*
X210454126Y-94681175D01*
X210454279Y-94680427D01*
X210459521Y-94666404D01*
X210461888Y-94662578D01*
X210463368Y-94660992D01*
X210464061Y-94660311D01*
X210464132Y-94660246D01*
X210464159Y-94660176D01*
X210464544Y-94659260D01*
X210465473Y-94657307D01*
X210468166Y-94653693D01*
X210479228Y-94643711D01*
X210479869Y-94643298D01*
X210480435Y-94642688D01*
X210480457Y-94642665D01*
X210480810Y-94642285D01*
X210480938Y-94642171D01*
X210480938Y-94642147D01*
X210482191Y-94640803D01*
X210492415Y-94629837D01*
X210496067Y-94627207D01*
X210498040Y-94626307D01*
X210498906Y-94625958D01*
X210498910Y-94625953D01*
X210498911Y-94625954D01*
X210499007Y-94625867D01*
X210499126Y-94625813D01*
X210499155Y-94625733D01*
X210501397Y-94623710D01*
X210505267Y-94621401D01*
X210519400Y-94616379D01*
X210520126Y-94616241D01*
X210520819Y-94615924D01*
X210521812Y-94615523D01*
X210522594Y-94615247D01*
X210523221Y-94614828D01*
X210536793Y-94608643D01*
X210541180Y-94607608D01*
X210543349Y-94607532D01*
X210544325Y-94607540D01*
X210544418Y-94607544D01*
X210544492Y-94607511D01*
X210545407Y-94607139D01*
X210547446Y-94606415D01*
X210551906Y-94605765D01*
X210566951Y-94606538D01*
X210567674Y-94606683D01*
X210568375Y-94606657D01*
X210569444Y-94606666D01*
X210570247Y-94606709D01*
X210570983Y-94606565D01*
X210585912Y-94606042D01*
X210590365Y-94606767D01*
X210591499Y-94607191D01*
X210592366Y-94607515D01*
X210593290Y-94607907D01*
X210593373Y-94607946D01*
X210593397Y-94607946D01*
X210594454Y-94607950D01*
X210596605Y-94608061D01*
X210600973Y-94609167D01*
X210614530Y-94615615D01*
X210615149Y-94616034D01*
X210615852Y-94616295D01*
X210616827Y-94616708D01*
X210617617Y-94617086D01*
X210618357Y-94617230D01*
X210632122Y-94622376D01*
X210632285Y-94622437D01*
X210636118Y-94624807D01*
X210637683Y-94626264D01*
X210638379Y-94626969D01*
X210638453Y-94627051D01*
X210638480Y-94627061D01*
X210639457Y-94627472D01*
X210641387Y-94628390D01*
X210645008Y-94631088D01*
X210654986Y-94642146D01*
X210655067Y-94642235D01*
X210655480Y-94642863D01*
X210656020Y-94643363D01*
X210656760Y-94644114D01*
X210657286Y-94644700D01*
X210657904Y-94645118D01*
X210669301Y-94655744D01*
X210671419Y-94658401D01*
X210673933Y-94662734D01*
X210674517Y-94663982D01*
X210675215Y-94664939D01*
X210675845Y-94666023D01*
X210675272Y-94666355D01*
X210675817Y-94667291D01*
X210676393Y-94666959D01*
X210677092Y-94668170D01*
X210677688Y-94669455D01*
X210678394Y-94670416D01*
X210682715Y-94677861D01*
X210683235Y-94678867D01*
X210955054Y-95275182D01*
X212979016Y-99715352D01*
X212979435Y-99716407D01*
X212984766Y-99731994D01*
X212985382Y-99735333D01*
X212985631Y-99742448D01*
X212987118Y-99748399D01*
X212987245Y-99748966D01*
X212987517Y-99750346D01*
X212987492Y-99750470D01*
X212987567Y-99751003D01*
X212988009Y-99752276D01*
X212988026Y-99752344D01*
X212988358Y-99755725D01*
X212987250Y-99778055D01*
X212987138Y-99779185D01*
X211919275Y-106951664D01*
X211919053Y-106952778D01*
X211913547Y-106974710D01*
X211912246Y-106977846D01*
X211907209Y-106986240D01*
X211904240Y-106994957D01*
X211901979Y-106998864D01*
X211894581Y-107007282D01*
X211894580Y-107007284D01*
X211888815Y-107016891D01*
X211886752Y-107019429D01*
X211886276Y-107019869D01*
X211878386Y-107025714D01*
X211871538Y-107033506D01*
X211871089Y-107033923D01*
X211870777Y-107034038D01*
X211869331Y-107035263D01*
X211850109Y-107047190D01*
X211849115Y-107047740D01*
X207435621Y-109218892D01*
X207434580Y-109219343D01*
X207422079Y-109224034D01*
X207422063Y-109224042D01*
X207421202Y-109224533D01*
X207419026Y-109225491D01*
X207417993Y-109225823D01*
X207416968Y-109225953D01*
X207413170Y-109227378D01*
X207412889Y-109227469D01*
X207412657Y-109227450D01*
X207410084Y-109228003D01*
X207390865Y-109229243D01*
X207372327Y-109231580D01*
X207369707Y-109231611D01*
X207368743Y-109231512D01*
X207366259Y-109230832D01*
X207363690Y-109230998D01*
X207362726Y-109230900D01*
X207362187Y-109230610D01*
X207360168Y-109230342D01*
X207342522Y-109224332D01*
X207342505Y-109224327D01*
X207342499Y-109224325D01*
X207334323Y-109222086D01*
X207324472Y-109219388D01*
X207322040Y-109218414D01*
X207321188Y-109217955D01*
X207319153Y-109216375D01*
X207316714Y-109215544D01*
X207315859Y-109215084D01*
X207315473Y-109214610D01*
X207313709Y-109213589D01*
X207299686Y-109201265D01*
X207299674Y-109201256D01*
X207284926Y-109189811D01*
X207283052Y-109187982D01*
X207282441Y-109187233D01*
X207281164Y-109184991D01*
X207279221Y-109183285D01*
X207278614Y-109182540D01*
X207278437Y-109181951D01*
X207277200Y-109180336D01*
X207268948Y-109163561D01*
X207262266Y-109151839D01*
X207262113Y-109151562D01*
X207261096Y-109149658D01*
X207261092Y-109149626D01*
X207261068Y-109149607D01*
X207260775Y-109149058D01*
X207260773Y-109149047D01*
X207260605Y-109148728D01*
X207260403Y-109148318D01*
X207259234Y-109143947D01*
X207258183Y-109127656D01*
X207258251Y-109127048D01*
X207258088Y-109125788D01*
X207258084Y-109125754D01*
X207258035Y-109125374D01*
X207258025Y-109125196D01*
X207258011Y-109125184D01*
X207257873Y-109124094D01*
X207255634Y-109106334D01*
X207255708Y-109102939D01*
X207256129Y-109100474D01*
X207256465Y-109099160D01*
X207256473Y-109098661D01*
X207256602Y-109097377D01*
X207256698Y-109097197D01*
X207256775Y-109096764D01*
X207256917Y-109096789D01*
X207257080Y-109096486D01*
X207256830Y-109096445D01*
X207257086Y-109094896D01*
X207257473Y-109093366D01*
X207257526Y-109092288D01*
X207259500Y-109080732D01*
X207259740Y-109079650D01*
X208378762Y-104993557D01*
X208379149Y-104992152D01*
X208379215Y-104992052D01*
X208379198Y-104991974D01*
X208379224Y-104991881D01*
X208379206Y-104991775D01*
X208379203Y-104991757D01*
X208379163Y-104991698D01*
X208378623Y-104990837D01*
X208377956Y-104989663D01*
X208377814Y-104988526D01*
X208377347Y-104984799D01*
X208376136Y-104983520D01*
X186544199Y-109692027D01*
X186543078Y-109692212D01*
X186520610Y-109694790D01*
X186517216Y-109694677D01*
X186507437Y-109692894D01*
X186507429Y-109692893D01*
X186498077Y-109693170D01*
X186493625Y-109692420D01*
X186483299Y-109688495D01*
X186483285Y-109688492D01*
X186472420Y-109686512D01*
X186469303Y-109685470D01*
X186468745Y-109685189D01*
X186460358Y-109679778D01*
X186450510Y-109676036D01*
X186449982Y-109675771D01*
X186449764Y-109675519D01*
X186448099Y-109674587D01*
X186430197Y-109660759D01*
X186429334Y-109660021D01*
X175571862Y-99425514D01*
X175571075Y-99424696D01*
X175556220Y-99407648D01*
X175555244Y-99406356D01*
X175554757Y-99405608D01*
X175553640Y-99403120D01*
X175552051Y-99401449D01*
X175551472Y-99400558D01*
X175551362Y-99399969D01*
X175550372Y-99398402D01*
X175543542Y-99380647D01*
X175543534Y-99380626D01*
X175538806Y-99370103D01*
X175537818Y-99366158D01*
X175537808Y-99366016D01*
X175537526Y-99365384D01*
X175537299Y-99364840D01*
X175537067Y-99364236D01*
X175536323Y-99360918D01*
X175534687Y-99338456D01*
X175534661Y-99337329D01*
X175547010Y-98852789D01*
X175606976Y-96499717D01*
X175606985Y-96499709D01*
X175606981Y-96499519D01*
X175606987Y-96499316D01*
X175606984Y-96499313D01*
X175606978Y-96499298D01*
X175606978Y-96499295D01*
X175606975Y-96499292D01*
X175606229Y-96497526D01*
X175606061Y-96497129D01*
X175606225Y-96497059D01*
X175606224Y-96496923D01*
X175603930Y-96491624D01*
X175603933Y-96491142D01*
X175603935Y-96491076D01*
X175603933Y-96491076D01*
X175603934Y-96491075D01*
X175028062Y-96501503D01*
X175027960Y-96501504D01*
X175027429Y-96501508D01*
X175026354Y-96501422D01*
X175025274Y-96501529D01*
X175024751Y-96501534D01*
X175024741Y-96501530D01*
X175024645Y-96501535D01*
X173979742Y-96501718D01*
X173978614Y-96501663D01*
X173977882Y-96501591D01*
X173977157Y-96501648D01*
X173976025Y-96501681D01*
X172879501Y-96479552D01*
X172879328Y-96479547D01*
X172878841Y-96479529D01*
X172877019Y-96479313D01*
X172875178Y-96479400D01*
X172874697Y-96479384D01*
X172874680Y-96479376D01*
X172874520Y-96479376D01*
X170824520Y-96375873D01*
X170823391Y-96375761D01*
X170822723Y-96375661D01*
X170821235Y-96375438D01*
X170821232Y-96375438D01*
X170819048Y-96375448D01*
X170817913Y-96375397D01*
X168945119Y-96199598D01*
X168944855Y-96199571D01*
X168944414Y-96199519D01*
X168941669Y-96198986D01*
X168938868Y-96198870D01*
X168938440Y-96198820D01*
X168938416Y-96198806D01*
X168938176Y-96198785D01*
X167236383Y-95959648D01*
X167235265Y-95959435D01*
X167232786Y-95958833D01*
X167230234Y-95958602D01*
X167229110Y-95958444D01*
X165692117Y-95664922D01*
X165691819Y-95664861D01*
X165691409Y-95664771D01*
X165688358Y-95663871D01*
X165685210Y-95663418D01*
X165684798Y-95663328D01*
X165684774Y-95663311D01*
X165684503Y-95663259D01*
X164306135Y-95324312D01*
X164305051Y-95323988D01*
X164302219Y-95322989D01*
X164302218Y-95322988D01*
X164302213Y-95322987D01*
X164299279Y-95322396D01*
X164298178Y-95322117D01*
X163072224Y-94946699D01*
X163071894Y-94946592D01*
X163071508Y-94946461D01*
X163068159Y-94945063D01*
X163064646Y-94944132D01*
X163064264Y-94944003D01*
X163064242Y-94943984D01*
X163063937Y-94943887D01*
X161984208Y-94540954D01*
X161983164Y-94540504D01*
X161979993Y-94538951D01*
X161979980Y-94538945D01*
X161976638Y-94537826D01*
X161975579Y-94537412D01*
X161035891Y-94115929D01*
X161035527Y-94115759D01*
X161035192Y-94115594D01*
X161031523Y-94113494D01*
X161027614Y-94111874D01*
X161027298Y-94111719D01*
X161027276Y-94111694D01*
X161026944Y-94111537D01*
X160502063Y-93830760D01*
X160221061Y-93680442D01*
X160220088Y-93679858D01*
X160218354Y-93678699D01*
X160216563Y-93677501D01*
X160216557Y-93677498D01*
X160216551Y-93677494D01*
X160212772Y-93675581D01*
X160211785Y-93675019D01*
X159533538Y-93243284D01*
X159533137Y-93243017D01*
X159532880Y-93242838D01*
X159528901Y-93239717D01*
X159524594Y-93237065D01*
X159524321Y-93236875D01*
X159524301Y-93236844D01*
X159523932Y-93236591D01*
X159011834Y-92847178D01*
X158967118Y-92813175D01*
X158966252Y-92812447D01*
X158962313Y-92808789D01*
X158958014Y-92805552D01*
X158957142Y-92804825D01*
X158881059Y-92734849D01*
X158515536Y-92398667D01*
X158515105Y-92398248D01*
X158514928Y-92398066D01*
X158510555Y-92393170D01*
X158505780Y-92388690D01*
X158505599Y-92388505D01*
X158505586Y-92388472D01*
X158505174Y-92388046D01*
X158364369Y-92227202D01*
X158172577Y-92008114D01*
X158171878Y-92007230D01*
X158167372Y-92000930D01*
X158167368Y-92000924D01*
X158162455Y-91994925D01*
X158161779Y-91994012D01*
X157931975Y-91649272D01*
X157931722Y-91648874D01*
X157931548Y-91648589D01*
X157931221Y-91647973D01*
X157931094Y-91647844D01*
X157930682Y-91647167D01*
X157930668Y-91647082D01*
X157930293Y-91646477D01*
X157925513Y-91637267D01*
X157925483Y-91637210D01*
X157920564Y-91627985D01*
X157919864Y-91626387D01*
X157919692Y-91626057D01*
X157919214Y-91625016D01*
X157791945Y-91307050D01*
X157791944Y-91307050D01*
X157791944Y-91307049D01*
X141963797Y-91376925D01*
X141963797Y-93315472D01*
X141963741Y-93316605D01*
X141961561Y-93338748D01*
X141961561Y-93338767D01*
X141961529Y-93339095D01*
X141961378Y-93339376D01*
X141960704Y-93342390D01*
X141952129Y-93363094D01*
X141943676Y-93384012D01*
X141941129Y-93387859D01*
X141925334Y-93403654D01*
X141909528Y-93419738D01*
X141905703Y-93422318D01*
X141884956Y-93430912D01*
X141864231Y-93439708D01*
X141860944Y-93440562D01*
X141860608Y-93440598D01*
X141860599Y-93440598D01*
X141849913Y-93441744D01*
X141838473Y-93442971D01*
X141837340Y-93443037D01*
X136563930Y-93489037D01*
X136440108Y-93624190D01*
X136439487Y-93624818D01*
X136439382Y-93624916D01*
X136430107Y-93633233D01*
X136428933Y-93634704D01*
X136428319Y-93635280D01*
X136427741Y-93635497D01*
X136426374Y-93636651D01*
X136426386Y-93636668D01*
X136426190Y-93636807D01*
X136426008Y-93636961D01*
X136425853Y-93637046D01*
X136425852Y-93637047D01*
X136422467Y-93640082D01*
X136419634Y-93641953D01*
X136402610Y-93649894D01*
X136402579Y-93649909D01*
X136386149Y-93658989D01*
X136383483Y-93660056D01*
X136383220Y-93660124D01*
X136378530Y-93661126D01*
X136377421Y-93661642D01*
X136376409Y-93661908D01*
X136375815Y-93661826D01*
X136373985Y-93662274D01*
X136372935Y-93662320D01*
X136360851Y-93664900D01*
X136359730Y-93665082D01*
X134889741Y-93830667D01*
X134889556Y-93830687D01*
X134889075Y-93830733D01*
X134887115Y-93830760D01*
X134885182Y-93831108D01*
X134884710Y-93831154D01*
X134884691Y-93831148D01*
X134884524Y-93831170D01*
X133163170Y-93968977D01*
X133162036Y-93969012D01*
X133161222Y-93968997D01*
X133161219Y-93968997D01*
X133161213Y-93968997D01*
X133161207Y-93968997D01*
X133161206Y-93968998D01*
X133160403Y-93969125D01*
X133159273Y-93969246D01*
X132086401Y-94031691D01*
X132086306Y-94031697D01*
X132085781Y-94031723D01*
X132084799Y-94031683D01*
X132083829Y-94031820D01*
X132083299Y-94031847D01*
X132083289Y-94031843D01*
X132083208Y-94031851D01*
X130881409Y-94082332D01*
X130880267Y-94082323D01*
X130879749Y-94082293D01*
X130879748Y-94082293D01*
X130879220Y-94082359D01*
X130878086Y-94082443D01*
X129557091Y-94115187D01*
X129556981Y-94115190D01*
X129556459Y-94115197D01*
X129555347Y-94115116D01*
X129554244Y-94115231D01*
X129553717Y-94115240D01*
X129553706Y-94115235D01*
X129553615Y-94115241D01*
X128123098Y-94124482D01*
X128121964Y-94124433D01*
X128121292Y-94124371D01*
X128121290Y-94124371D01*
X128121289Y-94124371D01*
X128120823Y-94124411D01*
X128120616Y-94124429D01*
X128119477Y-94124470D01*
X126589156Y-94104437D01*
X126589037Y-94104435D01*
X126588521Y-94104422D01*
X126587264Y-94104282D01*
X126585994Y-94104363D01*
X126585480Y-94104352D01*
X126585467Y-94104346D01*
X126585357Y-94104348D01*
X124964935Y-94049272D01*
X124963808Y-94049179D01*
X124963339Y-94049116D01*
X124962950Y-94049065D01*
X124962948Y-94049065D01*
X124962940Y-94049064D01*
X124962087Y-94049100D01*
X124960959Y-94049092D01*
X123260117Y-93953205D01*
X123259978Y-93953196D01*
X123259467Y-93953161D01*
X123258040Y-93952938D01*
X123256595Y-93952964D01*
X123256090Y-93952930D01*
X123256077Y-93952923D01*
X123255952Y-93952920D01*
X121484401Y-93810454D01*
X121483274Y-93810307D01*
X121482229Y-93810118D01*
X121481156Y-93810110D01*
X121480022Y-93810045D01*
X119647483Y-93615230D01*
X119647326Y-93615212D01*
X119646825Y-93615151D01*
X119645198Y-93614815D01*
X119643533Y-93614756D01*
X119643031Y-93614696D01*
X119643017Y-93614688D01*
X119642871Y-93614676D01*
X117759022Y-93361745D01*
X117757902Y-93361538D01*
X117755889Y-93361062D01*
X117753819Y-93360904D01*
X117752690Y-93360761D01*
X116283697Y-93101129D01*
X116283385Y-93101070D01*
X116282979Y-93100986D01*
X116279776Y-93100089D01*
X116276485Y-93099654D01*
X116276084Y-93099572D01*
X116276060Y-93099556D01*
X116275776Y-93099504D01*
X114914221Y-92781289D01*
X114913133Y-92780977D01*
X114911707Y-92780492D01*
X114910401Y-92780048D01*
X114907562Y-92779515D01*
X114906458Y-92779251D01*
X113650611Y-92412858D01*
X113650315Y-92412767D01*
X113649904Y-92412635D01*
X113646899Y-92411427D01*
X113643744Y-92410658D01*
X113643336Y-92410527D01*
X113643315Y-92410509D01*
X113643041Y-92410428D01*
X112491161Y-92006263D01*
X112490107Y-92005834D01*
X112487593Y-92004663D01*
X112484931Y-92003864D01*
X112483862Y-92003485D01*
X112097071Y-91844468D01*
X111434190Y-91571944D01*
X111433917Y-91571827D01*
X111433523Y-91571653D01*
X111430776Y-91570194D01*
X111427844Y-91569146D01*
X111427454Y-91568974D01*
X111427436Y-91568955D01*
X111427184Y-91568851D01*
X110477992Y-91120340D01*
X110476987Y-91119803D01*
X110474762Y-91118470D01*
X110474763Y-91118470D01*
X110474759Y-91118468D01*
X110472345Y-91117467D01*
X110471318Y-91116981D01*
X109620862Y-90661904D01*
X109620616Y-90661769D01*
X109620245Y-90661559D01*
X109617808Y-90659928D01*
X109615160Y-90658677D01*
X109614780Y-90658462D01*
X109614764Y-90658441D01*
X109614540Y-90658322D01*
X108861072Y-90207077D01*
X108860133Y-90206450D01*
X108858209Y-90205023D01*
X108858205Y-90205021D01*
X108858204Y-90205020D01*
X108856088Y-90203897D01*
X108855113Y-90203316D01*
X108196912Y-89766319D01*
X108196698Y-89766174D01*
X108196331Y-89765919D01*
X108194229Y-89764203D01*
X108191892Y-89762826D01*
X108191526Y-89762571D01*
X108191512Y-89762550D01*
X108191316Y-89762421D01*
X108113110Y-89705312D01*
X108101089Y-89696534D01*
X123144500Y-89696534D01*
X123144500Y-89903465D01*
X123184870Y-90106422D01*
X123184871Y-90106424D01*
X123229383Y-90213883D01*
X123264059Y-90297598D01*
X123379023Y-90469655D01*
X123525345Y-90615977D01*
X123697402Y-90730941D01*
X123860574Y-90798529D01*
X123888575Y-90810128D01*
X123888577Y-90810129D01*
X123888578Y-90810129D01*
X123888580Y-90810130D01*
X124091535Y-90850500D01*
X124091536Y-90850500D01*
X124298464Y-90850500D01*
X124298465Y-90850500D01*
X124501420Y-90810130D01*
X124692598Y-90730941D01*
X124864655Y-90615977D01*
X125010977Y-90469655D01*
X125125941Y-90297598D01*
X125205130Y-90106420D01*
X125245500Y-89903465D01*
X125245500Y-89696535D01*
X125245500Y-89696534D01*
X125684500Y-89696534D01*
X125684500Y-89903465D01*
X125724870Y-90106422D01*
X125724871Y-90106424D01*
X125769383Y-90213883D01*
X125804059Y-90297598D01*
X125919023Y-90469655D01*
X126065345Y-90615977D01*
X126237402Y-90730941D01*
X126400574Y-90798529D01*
X126428575Y-90810128D01*
X126428577Y-90810129D01*
X126428578Y-90810129D01*
X126428580Y-90810130D01*
X126631535Y-90850500D01*
X126631536Y-90850500D01*
X126838464Y-90850500D01*
X126838465Y-90850500D01*
X127041420Y-90810130D01*
X127232598Y-90730941D01*
X127404655Y-90615977D01*
X127550977Y-90469655D01*
X127665941Y-90297598D01*
X127745130Y-90106420D01*
X127785500Y-89903465D01*
X127785500Y-89696535D01*
X127785500Y-89696534D01*
X128224500Y-89696534D01*
X128224500Y-89903465D01*
X128264870Y-90106422D01*
X128264871Y-90106424D01*
X128309383Y-90213883D01*
X128344059Y-90297598D01*
X128459023Y-90469655D01*
X128605345Y-90615977D01*
X128777402Y-90730941D01*
X128940574Y-90798529D01*
X128968575Y-90810128D01*
X128968577Y-90810129D01*
X128968578Y-90810129D01*
X128968580Y-90810130D01*
X129171535Y-90850500D01*
X129171536Y-90850500D01*
X129378464Y-90850500D01*
X129378465Y-90850500D01*
X129581420Y-90810130D01*
X129772598Y-90730941D01*
X129944655Y-90615977D01*
X130090977Y-90469655D01*
X130205941Y-90297598D01*
X130285130Y-90106420D01*
X130325500Y-89903465D01*
X130325500Y-89696535D01*
X130285130Y-89493580D01*
X130205941Y-89302402D01*
X130090977Y-89130345D01*
X129944655Y-88984023D01*
X129772598Y-88869059D01*
X129772596Y-88869058D01*
X129581424Y-88789871D01*
X129581422Y-88789870D01*
X129378465Y-88749500D01*
X129171535Y-88749500D01*
X129171534Y-88749500D01*
X128968577Y-88789870D01*
X128968575Y-88789871D01*
X128777404Y-88869058D01*
X128777402Y-88869059D01*
X128605345Y-88984023D01*
X128605341Y-88984026D01*
X128459026Y-89130341D01*
X128459023Y-89130345D01*
X128344058Y-89302404D01*
X128264871Y-89493575D01*
X128264870Y-89493577D01*
X128224500Y-89696534D01*
X127785500Y-89696534D01*
X127745130Y-89493580D01*
X127665941Y-89302402D01*
X127550977Y-89130345D01*
X127404655Y-88984023D01*
X127232598Y-88869059D01*
X127232596Y-88869058D01*
X127041424Y-88789871D01*
X127041422Y-88789870D01*
X126838465Y-88749500D01*
X126631535Y-88749500D01*
X126631534Y-88749500D01*
X126428577Y-88789870D01*
X126428575Y-88789871D01*
X126237404Y-88869058D01*
X126237402Y-88869059D01*
X126065345Y-88984023D01*
X126065341Y-88984026D01*
X125919026Y-89130341D01*
X125919023Y-89130345D01*
X125804058Y-89302404D01*
X125724871Y-89493575D01*
X125724870Y-89493577D01*
X125684500Y-89696534D01*
X125245500Y-89696534D01*
X125205130Y-89493580D01*
X125125941Y-89302402D01*
X125010977Y-89130345D01*
X124864655Y-88984023D01*
X124692598Y-88869059D01*
X124692596Y-88869058D01*
X124501424Y-88789871D01*
X124501422Y-88789870D01*
X124298465Y-88749500D01*
X124091535Y-88749500D01*
X124091534Y-88749500D01*
X123888577Y-88789870D01*
X123888575Y-88789871D01*
X123697404Y-88869058D01*
X123697402Y-88869059D01*
X123525345Y-88984023D01*
X123525341Y-88984026D01*
X123379026Y-89130341D01*
X123379023Y-89130345D01*
X123264058Y-89302404D01*
X123184871Y-89493575D01*
X123184870Y-89493577D01*
X123144500Y-89696534D01*
X108101089Y-89696534D01*
X107626610Y-89350051D01*
X107626325Y-89349837D01*
X107626031Y-89349608D01*
X107623242Y-89347117D01*
X107620159Y-89345036D01*
X107619848Y-89344794D01*
X107619832Y-89344766D01*
X107619574Y-89344573D01*
X106762849Y-88634622D01*
X106762012Y-88633856D01*
X106758270Y-88630079D01*
X106758268Y-88630077D01*
X106758260Y-88630069D01*
X106758254Y-88630064D01*
X106754141Y-88626693D01*
X106753300Y-88625932D01*
X106084729Y-87958305D01*
X106083971Y-87957471D01*
X106069607Y-87939995D01*
X106067863Y-87937087D01*
X106065244Y-87930775D01*
X106064310Y-87929553D01*
X106061094Y-87925344D01*
X106059452Y-87922376D01*
X106054364Y-87908778D01*
X106054033Y-87907740D01*
X105911561Y-87371757D01*
X105911325Y-87370647D01*
X105910759Y-87367173D01*
X105910749Y-87366361D01*
X105910591Y-87365772D01*
X105910340Y-87364605D01*
X105910258Y-87364100D01*
X105909946Y-87363374D01*
X105909003Y-87359864D01*
X105908769Y-87358781D01*
X105818894Y-86815875D01*
X105818765Y-86814750D01*
X105818551Y-86811495D01*
X105818617Y-86810664D01*
X105818539Y-86810219D01*
X105818383Y-86808911D01*
X105818356Y-86808474D01*
X105818097Y-86807680D01*
X105817538Y-86804457D01*
X105817399Y-86803328D01*
X105814390Y-86762402D01*
X105784962Y-86362168D01*
X122845000Y-86362168D01*
X122845000Y-87010000D01*
X123761988Y-87010000D01*
X123729075Y-87067007D01*
X123695000Y-87194174D01*
X123695000Y-87325826D01*
X123729075Y-87452993D01*
X123761988Y-87510000D01*
X122845000Y-87510000D01*
X122845000Y-88157831D01*
X122851402Y-88217375D01*
X122851403Y-88217381D01*
X122901645Y-88352085D01*
X122901646Y-88352088D01*
X122987811Y-88467188D01*
X123102911Y-88553353D01*
X123102914Y-88553354D01*
X123237618Y-88603596D01*
X123237624Y-88603597D01*
X123297168Y-88609999D01*
X123297178Y-88610000D01*
X123945000Y-88610000D01*
X123945000Y-87693012D01*
X124002007Y-87725925D01*
X124129174Y-87760000D01*
X124260826Y-87760000D01*
X124387993Y-87725925D01*
X124445000Y-87693012D01*
X124445000Y-88610000D01*
X125092822Y-88610000D01*
X125092831Y-88609999D01*
X125152375Y-88603597D01*
X125152381Y-88603596D01*
X125159124Y-88601081D01*
X136174500Y-88601081D01*
X136174500Y-88748918D01*
X136203342Y-88893915D01*
X136203343Y-88893917D01*
X136240667Y-88984023D01*
X136259916Y-89030495D01*
X136342049Y-89153416D01*
X136446584Y-89257951D01*
X136569505Y-89340084D01*
X136614359Y-89358663D01*
X136706082Y-89396656D01*
X136706084Y-89396657D01*
X136706085Y-89396657D01*
X136706087Y-89396658D01*
X136851082Y-89425500D01*
X136851083Y-89425500D01*
X136998917Y-89425500D01*
X136998918Y-89425500D01*
X137143913Y-89396658D01*
X137280495Y-89340084D01*
X137403416Y-89257951D01*
X137507951Y-89153416D01*
X137590084Y-89030495D01*
X137646658Y-88893913D01*
X137675500Y-88748918D01*
X137675500Y-88601082D01*
X137646658Y-88456087D01*
X137590084Y-88319505D01*
X137507951Y-88196584D01*
X137403416Y-88092049D01*
X137280495Y-88009916D01*
X137280493Y-88009915D01*
X137143917Y-87953343D01*
X137143915Y-87953342D01*
X136998918Y-87924500D01*
X136851082Y-87924500D01*
X136851081Y-87924500D01*
X136706084Y-87953342D01*
X136706082Y-87953343D01*
X136569507Y-88009915D01*
X136569505Y-88009916D01*
X136470639Y-88075976D01*
X136446584Y-88092049D01*
X136446580Y-88092052D01*
X136342052Y-88196580D01*
X136342049Y-88196584D01*
X136259915Y-88319507D01*
X136203343Y-88456082D01*
X136203342Y-88456084D01*
X136174500Y-88601081D01*
X125159124Y-88601081D01*
X125189719Y-88589670D01*
X125287085Y-88553354D01*
X125287088Y-88553353D01*
X125402188Y-88467188D01*
X125488353Y-88352088D01*
X125488354Y-88352085D01*
X125538596Y-88217381D01*
X125538597Y-88217375D01*
X125544999Y-88157831D01*
X125545000Y-88157822D01*
X125545000Y-87510000D01*
X124628012Y-87510000D01*
X124660925Y-87452993D01*
X124695000Y-87325826D01*
X124695000Y-87194174D01*
X124684914Y-87156534D01*
X125684500Y-87156534D01*
X125684500Y-87363465D01*
X125724870Y-87566422D01*
X125724871Y-87566424D01*
X125763673Y-87660099D01*
X125804059Y-87757598D01*
X125919023Y-87929655D01*
X126065345Y-88075977D01*
X126237402Y-88190941D01*
X126400574Y-88258529D01*
X126428575Y-88270128D01*
X126428577Y-88270129D01*
X126428578Y-88270129D01*
X126428580Y-88270130D01*
X126631535Y-88310500D01*
X126631536Y-88310500D01*
X126838464Y-88310500D01*
X126838465Y-88310500D01*
X127041420Y-88270130D01*
X127232598Y-88190941D01*
X127404655Y-88075977D01*
X127550977Y-87929655D01*
X127665941Y-87757598D01*
X127745130Y-87566420D01*
X127785500Y-87363465D01*
X127785500Y-87156535D01*
X127785500Y-87156534D01*
X128224500Y-87156534D01*
X128224500Y-87363465D01*
X128264870Y-87566422D01*
X128264871Y-87566424D01*
X128303673Y-87660099D01*
X128344059Y-87757598D01*
X128459023Y-87929655D01*
X128605345Y-88075977D01*
X128777402Y-88190941D01*
X128940574Y-88258529D01*
X128968575Y-88270128D01*
X128968577Y-88270129D01*
X128968578Y-88270129D01*
X128968580Y-88270130D01*
X129171535Y-88310500D01*
X129171536Y-88310500D01*
X129378464Y-88310500D01*
X129378465Y-88310500D01*
X129581420Y-88270130D01*
X129772598Y-88190941D01*
X129944655Y-88075977D01*
X130090977Y-87929655D01*
X130205941Y-87757598D01*
X130285130Y-87566420D01*
X130325500Y-87363465D01*
X130325500Y-87156535D01*
X130285130Y-86953580D01*
X130205941Y-86762402D01*
X130090977Y-86590345D01*
X129944655Y-86444023D01*
X129772598Y-86329059D01*
X129772596Y-86329058D01*
X129581424Y-86249871D01*
X129581422Y-86249870D01*
X129378465Y-86209500D01*
X129171535Y-86209500D01*
X129171534Y-86209500D01*
X128968577Y-86249870D01*
X128968575Y-86249871D01*
X128777404Y-86329058D01*
X128777402Y-86329059D01*
X128727851Y-86362168D01*
X128605345Y-86444023D01*
X128605341Y-86444026D01*
X128459026Y-86590341D01*
X128459023Y-86590345D01*
X128344058Y-86762404D01*
X128264871Y-86953575D01*
X128264870Y-86953577D01*
X128224500Y-87156534D01*
X127785500Y-87156534D01*
X127745130Y-86953580D01*
X127665941Y-86762402D01*
X127550977Y-86590345D01*
X127404655Y-86444023D01*
X127232598Y-86329059D01*
X127232596Y-86329058D01*
X127041424Y-86249871D01*
X127041422Y-86249870D01*
X126838465Y-86209500D01*
X126631535Y-86209500D01*
X126631534Y-86209500D01*
X126428577Y-86249870D01*
X126428575Y-86249871D01*
X126237404Y-86329058D01*
X126237402Y-86329059D01*
X126187851Y-86362168D01*
X126065345Y-86444023D01*
X126065341Y-86444026D01*
X125919026Y-86590341D01*
X125919023Y-86590345D01*
X125804058Y-86762404D01*
X125724871Y-86953575D01*
X125724870Y-86953577D01*
X125684500Y-87156534D01*
X124684914Y-87156534D01*
X124660925Y-87067007D01*
X124628012Y-87010000D01*
X125545000Y-87010000D01*
X125545000Y-86362177D01*
X125544999Y-86362168D01*
X125538597Y-86302624D01*
X125538596Y-86302618D01*
X125488354Y-86167914D01*
X125488353Y-86167911D01*
X125402188Y-86052811D01*
X125287088Y-85966646D01*
X125287085Y-85966645D01*
X125152381Y-85916403D01*
X125152375Y-85916402D01*
X125092831Y-85910000D01*
X124445000Y-85910000D01*
X124445000Y-86826988D01*
X124387993Y-86794075D01*
X124260826Y-86760000D01*
X124129174Y-86760000D01*
X124002007Y-86794075D01*
X123945000Y-86826988D01*
X123945000Y-85910000D01*
X123297168Y-85910000D01*
X123237624Y-85916402D01*
X123237618Y-85916403D01*
X123102914Y-85966645D01*
X123102911Y-85966646D01*
X122987811Y-86052811D01*
X122901646Y-86167911D01*
X122901645Y-86167914D01*
X122851403Y-86302618D01*
X122851402Y-86302624D01*
X122845000Y-86362168D01*
X105784962Y-86362168D01*
X105777134Y-86255706D01*
X105777108Y-86254576D01*
X105777179Y-86251693D01*
X105777325Y-86250848D01*
X105777288Y-86250433D01*
X105777247Y-86249071D01*
X105777256Y-86248719D01*
X105777064Y-86247888D01*
X105776808Y-86244955D01*
X105776766Y-86243837D01*
X105776785Y-86242106D01*
X105776786Y-86242106D01*
X105782945Y-85692994D01*
X105783013Y-85691883D01*
X105783292Y-85689350D01*
X105783507Y-85688503D01*
X105783504Y-85688224D01*
X105783576Y-85686787D01*
X105783607Y-85686506D01*
X105783479Y-85685638D01*
X105783456Y-85683102D01*
X105783502Y-85681965D01*
X105832960Y-85129465D01*
X105833114Y-85128354D01*
X105833517Y-85126233D01*
X105833805Y-85125378D01*
X105833815Y-85125207D01*
X105833817Y-85125167D01*
X105833863Y-85124408D01*
X105833894Y-85124251D01*
X105833874Y-85124222D01*
X105833941Y-85123127D01*
X105834109Y-85120424D01*
X105834232Y-85119328D01*
X105923819Y-84566628D01*
X105924046Y-84565561D01*
X105924501Y-84563840D01*
X105924853Y-84562994D01*
X105924866Y-84562893D01*
X105924870Y-84562858D01*
X105924968Y-84562075D01*
X105925011Y-84561920D01*
X105924992Y-84561888D01*
X105925052Y-84561419D01*
X105925422Y-84558524D01*
X105925612Y-84557458D01*
X106052156Y-84006118D01*
X106052464Y-84005029D01*
X106052913Y-84003692D01*
X106053321Y-84002853D01*
X106053327Y-84002821D01*
X106053479Y-84002006D01*
X106053531Y-84001855D01*
X106053513Y-84001820D01*
X106053689Y-84000880D01*
X106054066Y-83998880D01*
X106054324Y-83997801D01*
X106214660Y-83449373D01*
X106215026Y-83448317D01*
X106215429Y-83447316D01*
X106215888Y-83446498D01*
X106216044Y-83445853D01*
X106216046Y-83445853D01*
X106216087Y-83445683D01*
X106216150Y-83445528D01*
X106216134Y-83445490D01*
X106216761Y-83442918D01*
X106217081Y-83441842D01*
X106408036Y-82897874D01*
X106408460Y-82896832D01*
X106408488Y-82896771D01*
X106408783Y-82896138D01*
X106409294Y-82895327D01*
X106409476Y-82894708D01*
X106409477Y-82894708D01*
X106409524Y-82894548D01*
X106409597Y-82894392D01*
X106409582Y-82894351D01*
X106410240Y-82892123D01*
X106410604Y-82891085D01*
X106629034Y-82353049D01*
X106629504Y-82352036D01*
X106630282Y-82350555D01*
X106630816Y-82349802D01*
X106630833Y-82349757D01*
X106631519Y-82348212D01*
X106631540Y-82348171D01*
X106631741Y-82347264D01*
X106632312Y-82345704D01*
X106632744Y-82344679D01*
X107139863Y-81291524D01*
X107140399Y-81290541D01*
X107140496Y-81290383D01*
X107141495Y-81288742D01*
X107142066Y-81288044D01*
X107142163Y-81287829D01*
X107142169Y-81287816D01*
X107142472Y-81287138D01*
X107142563Y-81286990D01*
X107142554Y-81286955D01*
X107142816Y-81286369D01*
X107144110Y-81283485D01*
X107144614Y-81282497D01*
X107303036Y-81005936D01*
X146180071Y-81005936D01*
X146180071Y-81005937D01*
X146180072Y-81005936D01*
X146180072Y-81005937D01*
X165700000Y-80925000D01*
X165700000Y-80924999D01*
X165700671Y-80924997D01*
X165702695Y-80924151D01*
X165704757Y-80922080D01*
X165704759Y-80922080D01*
X165704759Y-72695506D01*
X165704759Y-72691082D01*
X165704519Y-72690498D01*
X165704519Y-72687546D01*
X150524957Y-72606564D01*
X149701091Y-74418212D01*
X149701012Y-74418382D01*
X149252076Y-75364553D01*
X149251997Y-75364716D01*
X148763294Y-76354346D01*
X148763200Y-76354531D01*
X148223472Y-77399896D01*
X148223369Y-77400091D01*
X147621287Y-78513613D01*
X147621179Y-78513809D01*
X146945441Y-79707857D01*
X146945332Y-79708046D01*
X146183055Y-80997655D01*
X146183310Y-80999641D01*
X146182104Y-81002498D01*
X146180071Y-81005936D01*
X107303036Y-81005936D01*
X107723692Y-80271585D01*
X107724288Y-80270652D01*
X107725131Y-80269468D01*
X107725762Y-80268790D01*
X107725769Y-80268777D01*
X107726648Y-80267341D01*
X107726651Y-80267336D01*
X107726971Y-80266467D01*
X107727636Y-80265192D01*
X107728203Y-80264223D01*
X108353903Y-79307772D01*
X108354548Y-79306885D01*
X108355088Y-79306213D01*
X108355778Y-79305550D01*
X108356193Y-79304839D01*
X108356291Y-79304719D01*
X108356286Y-79304680D01*
X108356715Y-79303947D01*
X108357502Y-79302603D01*
X108358107Y-79301679D01*
X109005063Y-78411968D01*
X109005753Y-78411111D01*
X109006062Y-78410764D01*
X109006843Y-78410073D01*
X109007606Y-78409070D01*
X109008062Y-78408129D01*
X109008305Y-78407752D01*
X109008944Y-78406858D01*
X109651812Y-77596122D01*
X109652552Y-77595279D01*
X109652627Y-77595201D01*
X109653465Y-77594516D01*
X109654134Y-77593701D01*
X109654625Y-77592778D01*
X109654685Y-77592691D01*
X109655400Y-77591758D01*
X110268688Y-76872408D01*
X110269928Y-76871367D01*
X110269990Y-76871284D01*
X110271297Y-76869798D01*
X110271376Y-76869721D01*
X110272252Y-76868354D01*
X110830707Y-76252503D01*
X110831499Y-76251712D01*
X110832031Y-76251229D01*
X110832881Y-76250629D01*
X110833803Y-76249659D01*
X110834352Y-76248792D01*
X110834836Y-76248199D01*
X110835579Y-76247374D01*
X112017079Y-75060834D01*
X112017895Y-75060091D01*
X112020805Y-75057693D01*
X112021481Y-75057286D01*
X112021895Y-75056870D01*
X112022774Y-75056070D01*
X112023263Y-75055668D01*
X112023731Y-75055026D01*
X112026335Y-75052413D01*
X112027155Y-75051666D01*
X112332672Y-74800083D01*
X112333515Y-74799453D01*
X112334698Y-74798649D01*
X112334732Y-74798651D01*
X112334820Y-74798567D01*
X112335600Y-74798038D01*
X112335617Y-74798034D01*
X112335683Y-74797982D01*
X112335731Y-74797950D01*
X112336845Y-74796751D01*
X112715336Y-74503872D01*
X112716137Y-74503307D01*
X112717319Y-74502546D01*
X112717343Y-74502548D01*
X112717407Y-74502489D01*
X112718194Y-74501984D01*
X112718222Y-74501978D01*
X112718331Y-74501897D01*
X112718411Y-74501846D01*
X112719472Y-74500759D01*
X113245837Y-74115387D01*
X113246688Y-74114821D01*
X113247885Y-74114098D01*
X113247915Y-74114101D01*
X113247998Y-74114030D01*
X113248791Y-74113552D01*
X113248814Y-74113548D01*
X113248905Y-74113484D01*
X113248997Y-74113429D01*
X113250118Y-74112345D01*
X113256671Y-74107825D01*
X113266450Y-74101081D01*
X145474500Y-74101081D01*
X145474500Y-74248918D01*
X145503342Y-74393915D01*
X145503343Y-74393917D01*
X145513442Y-74418297D01*
X145559916Y-74530495D01*
X145642049Y-74653416D01*
X145746584Y-74757951D01*
X145869505Y-74840084D01*
X145986081Y-74888371D01*
X146006082Y-74896656D01*
X146006084Y-74896657D01*
X146006085Y-74896657D01*
X146006087Y-74896658D01*
X146151082Y-74925500D01*
X146151083Y-74925500D01*
X146298917Y-74925500D01*
X146298918Y-74925500D01*
X146443913Y-74896658D01*
X146580495Y-74840084D01*
X146703416Y-74757951D01*
X146807951Y-74653416D01*
X146890084Y-74530495D01*
X146946658Y-74393913D01*
X146975500Y-74248918D01*
X146975500Y-74101082D01*
X146946658Y-73956087D01*
X146890084Y-73819505D01*
X146807951Y-73696584D01*
X146703416Y-73592049D01*
X146580495Y-73509916D01*
X146580493Y-73509915D01*
X146443917Y-73453343D01*
X146443915Y-73453342D01*
X146298918Y-73424500D01*
X146151082Y-73424500D01*
X146151081Y-73424500D01*
X146006084Y-73453342D01*
X146006082Y-73453343D01*
X145869507Y-73509915D01*
X145869505Y-73509916D01*
X145746584Y-73592049D01*
X145746580Y-73592052D01*
X145642052Y-73696580D01*
X145642049Y-73696584D01*
X145559915Y-73819507D01*
X145503343Y-73956082D01*
X145503342Y-73956084D01*
X145474500Y-74101081D01*
X113266450Y-74101081D01*
X113922279Y-73648771D01*
X113923169Y-73648217D01*
X113924415Y-73647517D01*
X113924444Y-73647521D01*
X113924526Y-73647454D01*
X113925356Y-73646989D01*
X113925380Y-73646986D01*
X113925472Y-73646925D01*
X113925504Y-73646906D01*
X113926707Y-73645814D01*
X114742469Y-73118442D01*
X114743410Y-73117896D01*
X114744644Y-73117256D01*
X114744684Y-73117262D01*
X114744796Y-73117177D01*
X114745648Y-73116736D01*
X114745661Y-73116734D01*
X114745714Y-73116702D01*
X114745798Y-73116659D01*
X114747047Y-73115585D01*
X115704080Y-72538903D01*
X115705053Y-72538379D01*
X115706344Y-72537763D01*
X115706386Y-72537771D01*
X115706511Y-72537683D01*
X115707370Y-72537274D01*
X115707375Y-72537273D01*
X115707403Y-72537258D01*
X115707475Y-72537223D01*
X115708807Y-72536160D01*
X116804889Y-71924583D01*
X116805783Y-71924134D01*
X116805864Y-71924099D01*
X116806989Y-71923752D01*
X116808042Y-71923189D01*
X116809011Y-71922402D01*
X116809032Y-71922389D01*
X116809831Y-71921937D01*
X118042370Y-71290082D01*
X118043853Y-71289605D01*
X118043867Y-71289597D01*
X118045733Y-71288672D01*
X118045785Y-71288651D01*
X118047057Y-71287759D01*
X118712642Y-70969281D01*
X118713398Y-70968953D01*
X118714703Y-70968441D01*
X118714707Y-70968442D01*
X118714719Y-70968434D01*
X118715540Y-70968113D01*
X118715594Y-70968114D01*
X118715839Y-70968000D01*
X118715876Y-70967986D01*
X118716979Y-70967256D01*
X119415622Y-70649179D01*
X119416416Y-70648854D01*
X119417708Y-70648379D01*
X119417712Y-70648380D01*
X119417723Y-70648373D01*
X119418580Y-70648059D01*
X119418634Y-70648061D01*
X119418871Y-70647956D01*
X119418924Y-70647937D01*
X119420051Y-70647216D01*
X120151715Y-70331230D01*
X120152528Y-70330915D01*
X120153833Y-70330466D01*
X120153836Y-70330467D01*
X120153846Y-70330461D01*
X120154717Y-70330162D01*
X120154775Y-70330165D01*
X120155020Y-70330063D01*
X120155048Y-70330054D01*
X120156211Y-70329342D01*
X120920661Y-70017228D01*
X120921490Y-70016927D01*
X120922787Y-70016512D01*
X120922791Y-70016514D01*
X120922803Y-70016507D01*
X120923701Y-70016221D01*
X120923755Y-70016225D01*
X120923984Y-70016135D01*
X120924007Y-70016128D01*
X120925205Y-70015427D01*
X121722120Y-69709006D01*
X121722949Y-69708724D01*
X121724294Y-69708321D01*
X121724301Y-69708324D01*
X121724322Y-69708313D01*
X121725188Y-69708055D01*
X121725240Y-69708060D01*
X121725467Y-69707976D01*
X121725499Y-69707967D01*
X121726710Y-69707296D01*
X122378097Y-69472444D01*
X123508594Y-69472444D01*
X123509105Y-69473035D01*
X123509105Y-69473036D01*
X123567215Y-69540279D01*
X123584352Y-69560110D01*
X123675489Y-69655942D01*
X123678383Y-69658985D01*
X123809224Y-69785009D01*
X123809235Y-69785019D01*
X123809242Y-69785025D01*
X123809243Y-69785026D01*
X123976495Y-69931100D01*
X123976503Y-69931106D01*
X123976514Y-69931115D01*
X124179686Y-70090063D01*
X124294629Y-70172152D01*
X124307518Y-70180758D01*
X124418378Y-70254779D01*
X124539368Y-70329905D01*
X124550893Y-70337061D01*
X124692121Y-70418106D01*
X124751923Y-70449592D01*
X124841985Y-70497011D01*
X125000451Y-70572894D01*
X125167454Y-70644859D01*
X125339268Y-70710608D01*
X125342953Y-70712019D01*
X125458948Y-70750776D01*
X125526853Y-70773465D01*
X125650910Y-70808856D01*
X125719136Y-70828320D01*
X125777101Y-70842007D01*
X125919735Y-70875687D01*
X126128592Y-70914673D01*
X126345652Y-70944386D01*
X126570859Y-70963932D01*
X126570879Y-70963932D01*
X126570884Y-70963933D01*
X126601446Y-70965044D01*
X126804157Y-70972420D01*
X127031409Y-70969158D01*
X127045496Y-70968956D01*
X127165078Y-70961134D01*
X127294804Y-70952649D01*
X127552040Y-70922605D01*
X127817144Y-70877932D01*
X127817146Y-70877931D01*
X127817155Y-70877930D01*
X128090052Y-70817739D01*
X128102264Y-70814499D01*
X128432217Y-70726953D01*
X128753003Y-70629152D01*
X129053107Y-70524983D01*
X129333220Y-70415095D01*
X129594029Y-70300137D01*
X129836224Y-70180758D01*
X130060495Y-70057608D01*
X130060505Y-70057601D01*
X130060512Y-70057598D01*
X130167234Y-69992507D01*
X130267530Y-69931336D01*
X130458018Y-69802591D01*
X130632649Y-69672022D01*
X130792112Y-69540279D01*
X130937095Y-69408010D01*
X131068289Y-69275865D01*
X131186381Y-69144493D01*
X131292062Y-69014543D01*
X131386020Y-68886665D01*
X131541526Y-68639719D01*
X131658410Y-68408849D01*
X131661934Y-68400029D01*
X131662347Y-68399117D01*
X131662929Y-68397969D01*
X131689707Y-68330975D01*
X131746701Y-68188381D01*
X131746706Y-68188369D01*
X131802887Y-68005231D01*
X131836988Y-67853751D01*
X131854519Y-67739120D01*
X131861929Y-67641183D01*
X131861928Y-67641183D01*
X131388430Y-67699225D01*
X130240492Y-67850220D01*
X130240432Y-67850229D01*
X129854706Y-67905131D01*
X129541136Y-67949764D01*
X128826521Y-68059527D01*
X128147520Y-68175207D01*
X127555292Y-68292457D01*
X126988216Y-68428936D01*
X126345712Y-68601842D01*
X125020423Y-68989646D01*
X123513113Y-69461563D01*
X123511865Y-69465947D01*
X123511477Y-69466436D01*
X123511486Y-69467060D01*
X123509447Y-69472176D01*
X123508594Y-69472444D01*
X122378097Y-69472444D01*
X122555877Y-69408347D01*
X122556725Y-69408079D01*
X122558076Y-69407707D01*
X122558086Y-69407711D01*
X122558120Y-69407695D01*
X122558995Y-69407455D01*
X122559039Y-69407460D01*
X122559245Y-69407389D01*
X122559313Y-69407371D01*
X122560543Y-69406723D01*
X123421600Y-69117078D01*
X123422445Y-69116830D01*
X123423845Y-69116476D01*
X123423854Y-69116480D01*
X123423888Y-69116465D01*
X123424753Y-69116247D01*
X123424799Y-69116253D01*
X123425015Y-69116184D01*
X123425098Y-69116164D01*
X123426347Y-69115538D01*
X124319072Y-68836984D01*
X124319947Y-68836750D01*
X124321319Y-68836439D01*
X124321327Y-68836443D01*
X124321354Y-68836431D01*
X124322261Y-68836227D01*
X124322308Y-68836235D01*
X124322522Y-68836171D01*
X124322539Y-68836167D01*
X124323835Y-68835556D01*
X125247948Y-68569896D01*
X125248833Y-68569680D01*
X125250208Y-68569400D01*
X125250223Y-68569407D01*
X125250280Y-68569385D01*
X125251159Y-68569207D01*
X125251199Y-68569214D01*
X125251384Y-68569164D01*
X125251468Y-68569148D01*
X125252771Y-68568569D01*
X126207955Y-68317616D01*
X126208852Y-68317420D01*
X126210253Y-68317170D01*
X126210266Y-68317177D01*
X126210316Y-68317159D01*
X126211214Y-68317000D01*
X126211252Y-68317008D01*
X126211434Y-68316963D01*
X126211526Y-68316948D01*
X126212857Y-68316391D01*
X127198823Y-68081957D01*
X127199733Y-68081779D01*
X127201133Y-68081563D01*
X127201149Y-68081572D01*
X127201213Y-68081551D01*
X127202101Y-68081415D01*
X127202135Y-68081423D01*
X127202302Y-68081386D01*
X127202405Y-68081371D01*
X127203750Y-68080847D01*
X128220258Y-67864723D01*
X128221199Y-67864564D01*
X128222593Y-67864386D01*
X128222608Y-67864395D01*
X128222667Y-67864377D01*
X128223585Y-67864261D01*
X128223619Y-67864270D01*
X128223786Y-67864237D01*
X128223875Y-67864227D01*
X128225248Y-67863727D01*
X129271976Y-67667727D01*
X129272915Y-67667591D01*
X129274327Y-67667446D01*
X129274342Y-67667455D01*
X129274402Y-67667438D01*
X129275319Y-67667345D01*
X129275355Y-67667355D01*
X129275526Y-67667326D01*
X129275599Y-67667319D01*
X129276997Y-67666851D01*
X130354014Y-67492723D01*
X130355103Y-67492602D01*
X130356552Y-67492509D01*
X130356586Y-67492531D01*
X130356730Y-67492497D01*
X130357675Y-67492437D01*
X130357680Y-67492438D01*
X130357715Y-67492434D01*
X130357835Y-67492426D01*
X130359446Y-67491937D01*
X133132990Y-67137599D01*
X133134096Y-67137512D01*
X133134654Y-67137496D01*
X133135702Y-67137591D01*
X133136940Y-67137459D01*
X133137930Y-67137151D01*
X133138488Y-67137048D01*
X133139588Y-67136901D01*
X135687980Y-66923046D01*
X135689074Y-66923007D01*
X135689743Y-66923017D01*
X135690748Y-66923155D01*
X135692139Y-66923069D01*
X135693114Y-66922809D01*
X135693750Y-66922722D01*
X135694861Y-66922626D01*
X138024372Y-66833026D01*
X138025499Y-66833037D01*
X138026259Y-66833082D01*
X138027265Y-66833267D01*
X138028699Y-66833245D01*
X138029682Y-66833028D01*
X138030415Y-66832963D01*
X138031500Y-66832919D01*
X140148571Y-66851334D01*
X140149698Y-66851400D01*
X140150568Y-66851493D01*
X140151509Y-66851710D01*
X140153048Y-66851760D01*
X140153983Y-66851601D01*
X140154574Y-66851576D01*
X140154789Y-66851568D01*
X140155911Y-66851576D01*
X142066867Y-66961767D01*
X142067991Y-66961888D01*
X142068973Y-66962042D01*
X142069920Y-66962309D01*
X142071393Y-66962431D01*
X142072362Y-66962317D01*
X142073285Y-66962326D01*
X142074406Y-66962392D01*
X143785638Y-67148118D01*
X143786739Y-67148292D01*
X143787772Y-67148508D01*
X143788675Y-67148819D01*
X143790250Y-67149031D01*
X143791206Y-67148969D01*
X143791757Y-67149003D01*
X143792211Y-67149032D01*
X143793327Y-67149156D01*
X145311228Y-67394183D01*
X145312323Y-67394416D01*
X145312960Y-67394584D01*
X145313406Y-67394702D01*
X145314303Y-67395063D01*
X145315866Y-67395358D01*
X145316829Y-67395343D01*
X145317497Y-67395420D01*
X145317868Y-67395463D01*
X145318979Y-67395647D01*
X146649929Y-67683738D01*
X146650994Y-67684023D01*
X146652114Y-67684383D01*
X146652950Y-67684774D01*
X146654544Y-67685164D01*
X146654586Y-67685177D01*
X146655523Y-67685213D01*
X146656604Y-67685398D01*
X146657705Y-67685642D01*
X147808065Y-68000553D01*
X147809129Y-68000901D01*
X147810253Y-68001331D01*
X147811081Y-68001774D01*
X147812649Y-68002249D01*
X147812669Y-68002256D01*
X147813603Y-68002343D01*
X147814086Y-68002454D01*
X147814719Y-68002598D01*
X147815807Y-68002902D01*
X148052205Y-68081729D01*
X148791972Y-68328403D01*
X148793016Y-68328809D01*
X148794136Y-68329309D01*
X148794946Y-68329800D01*
X148796476Y-68330356D01*
X148796486Y-68330360D01*
X148797412Y-68330499D01*
X148797608Y-68330555D01*
X148798534Y-68330820D01*
X148799592Y-68331179D01*
X149607946Y-68651036D01*
X149608958Y-68651495D01*
X149610072Y-68652067D01*
X149610855Y-68652599D01*
X149612293Y-68653213D01*
X149613202Y-68653405D01*
X149614343Y-68653800D01*
X149615395Y-68654222D01*
X150262314Y-68952198D01*
X150263310Y-68952719D01*
X150265475Y-68953987D01*
X150266161Y-68954523D01*
X150266374Y-68954615D01*
X150267652Y-68955264D01*
X150267913Y-68955417D01*
X150268761Y-68955651D01*
X150271012Y-68956630D01*
X150272009Y-68957124D01*
X150761671Y-69230025D01*
X151108025Y-69423057D01*
X151108981Y-69423653D01*
X151111868Y-69425655D01*
X151112454Y-69426204D01*
X151112931Y-69426467D01*
X151113946Y-69427097D01*
X151114459Y-69427453D01*
X151115225Y-69427736D01*
X151118238Y-69429403D01*
X151119200Y-69429998D01*
X151385903Y-69613693D01*
X151386801Y-69614380D01*
X151404001Y-69628907D01*
X151406246Y-69631454D01*
X151408297Y-69634619D01*
X151408765Y-69635427D01*
X151408787Y-69635446D01*
X151408788Y-69635447D01*
X151408890Y-69635534D01*
X151408963Y-69635646D01*
X151409040Y-69635661D01*
X151409729Y-69636249D01*
X151409733Y-69636252D01*
X151412132Y-69638297D01*
X151414930Y-69641839D01*
X151421340Y-69654387D01*
X151421598Y-69655144D01*
X151421894Y-69655601D01*
X151422478Y-69656614D01*
X151422736Y-69657118D01*
X151423270Y-69657726D01*
X151430912Y-69669520D01*
X151432581Y-69673715D01*
X151433157Y-69676840D01*
X151433308Y-69677964D01*
X151433344Y-69678393D01*
X151434899Y-69682941D01*
X151435740Y-69693473D01*
X151435742Y-69693487D01*
X151435743Y-69693493D01*
X151438239Y-69707043D01*
X151438655Y-69709300D01*
X151438826Y-69712073D01*
X151438774Y-69712958D01*
X151437698Y-69717999D01*
X151438147Y-69723646D01*
X151438101Y-69724447D01*
X151437955Y-69724746D01*
X151437855Y-69726239D01*
X151433030Y-69748339D01*
X151432733Y-69749434D01*
X151271177Y-70248476D01*
X151270775Y-70249538D01*
X151269976Y-70251368D01*
X151269971Y-70251383D01*
X151269462Y-70253331D01*
X151269123Y-70254409D01*
X150742682Y-71680707D01*
X150742620Y-71680871D01*
X150742441Y-71681331D01*
X150741640Y-71682986D01*
X150741119Y-71684754D01*
X150740943Y-71685211D01*
X150740931Y-71685223D01*
X150740878Y-71685376D01*
X150520875Y-72229806D01*
X150520903Y-72229847D01*
X150522853Y-72236120D01*
X150522883Y-72238349D01*
X150522922Y-72238447D01*
X150523001Y-72238527D01*
X150523044Y-72238627D01*
X150523135Y-72238663D01*
X150523209Y-72238738D01*
X150523233Y-72238748D01*
X150523346Y-72238748D01*
X150523428Y-72238782D01*
X150523503Y-72238749D01*
X150525561Y-72238758D01*
X166076343Y-72375955D01*
X166076835Y-72376044D01*
X166078274Y-72375986D01*
X166078740Y-72375979D01*
X166078744Y-72375976D01*
X166078746Y-72375977D01*
X166078746Y-72375975D01*
X166078767Y-72375967D01*
X166078770Y-72375967D01*
X166078771Y-72375964D01*
X166078774Y-72375964D01*
X166079138Y-72375590D01*
X166080164Y-72374587D01*
X166080433Y-72374170D01*
X169806442Y-68348365D01*
X169807250Y-68347574D01*
X169824039Y-68332674D01*
X169827261Y-68330652D01*
X169827569Y-68330523D01*
X169827572Y-68330523D01*
X169827574Y-68330520D01*
X169827850Y-68330405D01*
X169831641Y-68327759D01*
X169848919Y-68320602D01*
X169849805Y-68320236D01*
X169849816Y-68320240D01*
X169849972Y-68320166D01*
X169850200Y-68320073D01*
X169850201Y-68320073D01*
X169850236Y-68320058D01*
X169851815Y-68319410D01*
X169852177Y-68319152D01*
X169868042Y-68311850D01*
X169872275Y-68310807D01*
X169872599Y-68310789D01*
X169872605Y-68310792D01*
X169872612Y-68310788D01*
X169872743Y-68310782D01*
X169872827Y-68310743D01*
X169872831Y-68310743D01*
X169872833Y-68310740D01*
X169873068Y-68310632D01*
X169876807Y-68309612D01*
X169899137Y-68307412D01*
X169900271Y-68307357D01*
X175599903Y-68307357D01*
X175599905Y-68307359D01*
X175600112Y-68307357D01*
X175600315Y-68307357D01*
X175600467Y-68307357D01*
X175600493Y-68307343D01*
X175600603Y-68307075D01*
X175600606Y-68307065D01*
X175600608Y-68307064D01*
X175600608Y-68307062D01*
X175600610Y-68307060D01*
X175600608Y-68306824D01*
X175600608Y-68306650D01*
X175600606Y-68306648D01*
X175600603Y-68306339D01*
X175600600Y-68306035D01*
X175568839Y-64566419D01*
X175568885Y-64565315D01*
X175570893Y-64542993D01*
X175571847Y-64539324D01*
X175571884Y-64539239D01*
X175571886Y-64539238D01*
X175571886Y-64539235D01*
X175571937Y-64539120D01*
X175571945Y-64538936D01*
X175572140Y-64538513D01*
X175572932Y-64534708D01*
X175580078Y-64518633D01*
X175580324Y-64518287D01*
X175581006Y-64516571D01*
X175581031Y-64516508D01*
X175581112Y-64516307D01*
X175581188Y-64516139D01*
X175581184Y-64516129D01*
X175588652Y-64497654D01*
X175590995Y-64494211D01*
X175591181Y-64493754D01*
X175591183Y-64493753D01*
X175591182Y-64493750D01*
X175591234Y-64493626D01*
X175593192Y-64490432D01*
X175607862Y-64473463D01*
X175608615Y-64472672D01*
X186353800Y-54264197D01*
X186354634Y-54263478D01*
X186372420Y-54249627D01*
X186375373Y-54247959D01*
X186383442Y-54244857D01*
X186384799Y-54244472D01*
X186385897Y-54243603D01*
X186392627Y-54239238D01*
X186396811Y-54237573D01*
X186406999Y-54235690D01*
X186407340Y-54235628D01*
X186407388Y-54235650D01*
X186407534Y-54235592D01*
X186408102Y-54235489D01*
X186408978Y-54235037D01*
X186417716Y-54231677D01*
X186422157Y-54230911D01*
X186430143Y-54231115D01*
X186431524Y-54231283D01*
X186431638Y-54231274D01*
X186432971Y-54230894D01*
X186441422Y-54229333D01*
X186444811Y-54229212D01*
X186467193Y-54231725D01*
G37*
%TD.AperFunction*%
%TD*%
M02*
