<svg xmlns="http://www.w3.org/2000/svg" viewBox="0 0 1920 1080" width="1920" height="1080"><defs></defs><g>
<rect fill="#ffffff" x="0" y="0" width="1920" height="1080"/>
<g>
	<g>
		<path d="M824.100126,395.692273C824.100126,395.692273 1053.586379,396.91656 1053.586379,396.91656 C1053.586379,396.91656 1053.586379,521.286785 1053.586379,521.286785 C1053.586379,521.286785 758.481934,522.51042 758.481934,522.51042 C791.017175,468.583682 808.033027,431.622557 824.100126,395.692273 Z" transform="" fill="#9695ff"/>
		<g>
			<path d="M836.194732,351.615687C836.194732,351.615687 787.289949,518.806407 609.937018,711.86587 C609.937018,711.86587 482.975879,730.190158 329.182747,707.284798 C206.267492,688.978271 153.793132,626.13438 153.793132,626.13438 C126.3067,540 243.451256,433.729355 243.451256,433.729355 C243.451256,433.729355 343.288869,346.109201 519.624455,319.856993 C752.604689,285.171733 836.194732,351.615687 836.194732,351.615687 Z" transform="" fill="none" stroke="#000000" stroke-width="8" stroke-linecap="round" stroke-linejoin="round"/>
			<path d="M740.170351,455.325837C740.170351,455.325837 654.43886,449.435887 654.43886,414.096189 C654.43886,377.984991 729.699329,370.248785 750.641373,379.410929 C750.641373,379.410929 740.170351,455.325837 740.170351,455.325837 Z" transform="" fill="none" stroke="#000000" stroke-width="8" stroke-linecap="round" stroke-linejoin="round"/>
			<path d="M629.570184,594.066875C629.570184,594.066875 570.806211,557.226506 535.985427,580.323659 C531.863968,583.057486 527.789246,586.456137 526.270893,591.16303 C509.965056,641.711125 589.649453,666.05515 589.649453,666.05515 C589.649453,666.05515 629.570184,594.066875 629.570184,594.066875 Z" transform="" fill="none" stroke="#000000" stroke-width="8" stroke-linecap="round" stroke-linejoin="round"/>
			<path d="M935.193131,673.908416C935.193131,660.16524 1049.065493,540 1159.66574,540 C1289.546653,540 1388.701763,689.375862 1388.719342,704.012604 C1388.719342,704.012604 1343.512639,759.853883 1162.283476,754.404396 C989.589612,749.211563 935.193131,691.578266 935.193131,673.908416 Z" transform="" fill="none" stroke="#000000" stroke-width="8" stroke-linecap="round" stroke-linejoin="round"/>
			<path d="M612.378765,709.200653C612.378765,709.200653 692.946198,708.497834 692.946198,708.497834 C692.946198,708.497834 692.946198,677.270644 692.946198,677.270644 C692.946198,677.270644 935.455174,676.200015 935.455174,676.200015 " transform="" fill="none" stroke="#000000" stroke-width="8" stroke-linejoin="round"/>
			<path d="M821.396468,391.60889C821.396468,391.60889 1060.229314,393.716011 1060.229314,393.716011 C1060.229314,393.716011 1117.165575,332.198758 1117.165575,332.198758 C1117.165575,332.198758 1241.508958,332.198758 1241.508958,332.198758 C1241.508958,332.198758 1299.913004,393.716011 1299.913004,393.716011 C1299.913004,393.716011 1342.92188,375.968192 1342.92188,375.968192 C1342.92188,375.968192 1408.291028,376.055948 1408.291028,376.055948 C1408.291028,376.055948 1408.291028,356.141799 1408.291028,356.141799 C1408.291028,356.141799 1515.935031,369.059087 1515.935031,369.059087 C1515.935031,369.059087 1515.665921,699.526168 1515.665921,699.526168 C1515.665921,699.526168 1408.829248,713.250779 1408.829248,712.981669 C1408.829248,712.712559 1408.829248,690.107318 1408.829248,690.107318 C1408.829248,690.107318 1382.839653,690.155348 1382.839653,690.155348 " transform="" fill="none" stroke="#000000" stroke-width="8" stroke-linejoin="round"/>
			<path d="M411.349439,346.696091C411.349439,346.696091 436.70344,382.012006 484.232407,371.081999 C546.555616,356.749833 544.491757,317.578629 544.491757,317.578629 C544.491757,317.578629 498.218714,322.962953 475.623689,327.944802 C453.575796,332.806016 411.349439,346.696091 411.349439,346.696091 Z" transform="" fill="none" stroke="#000000" stroke-width="8" stroke-linecap="round" stroke-linejoin="round"/>
		</g>
		<g>
			<path d="M415.631741,347.944334C415.631741,347.944334 440.257602,379.289065 484.894832,368.282618 C541.831048,354.243543 541.85003,320.423601 541.85003,320.423601 C541.85003,320.423601 498.182193,325.569269 476.741913,330.269635 C456.02888,334.810567 415.631741,347.944334 415.631741,347.944334 Z" transform="" fill="#8e8fff"/>
			<path d="M1065.675629,393.833005C1065.675629,393.833005 1065.675629,560.215256 1065.675629,560.215256 C1065.675629,560.215256 1053.586379,566.361306 1053.586379,566.361306 C1053.586379,566.361306 1053.586379,396.91656 1053.586379,396.91656 L 1062.701581,396.91656 L 1065.675629,393.833005 Z" transform="" fill="#ffc9c9"/>
			<path d="M1065.675629,393.833005C1065.675629,393.833005 1110.886077,344.162914 1111.42433,344.162914 C1111.962583,344.162914 1111.42433,542.843272 1111.42433,542.843272 C1090.923219,547.860449 1065.675629,560.215256 1065.675629,560.215256 C1065.675629,560.215256 1065.675629,393.833005 1065.675629,393.833005 Z" transform="" fill="#dcfff2"/>
			<path d="M1111.42433,344.162914C1111.42433,344.162914 1111.42433,542.843272 1111.42433,542.843272 C1111.42433,542.843272 1122.726983,540 1122.726983,540 C1122.726983,540 1122.726983,336.19814 1122.726983,336.19814 L 1118.705857,336.07271 L 1111.42433,344.162914 Z" transform="" fill="#ffa4a4"/>
			<path d="M1122.726983,336.19814C1122.726983,336.19814 1236.291374,336.135429 1236.291374,336.135429 C1236.291374,336.135429 1236.291374,552.501341 1236.291374,552.501341 C1236.291374,552.501341 1199.168899,536.446363 1164.801204,536.007363 C1148.251048,535.795958 1122.726983,539.949001 1122.726983,540 C1122.726983,540.050999 1122.726983,336.19814 1122.726983,336.19814 Z" transform="" fill="#f1fff2"/>
			<path d="M1236.291374,336.135429C1236.291374,336.135429 1236.291374,552.501341 1236.291374,552.501341 C1236.291374,552.501341 1247.101085,557.769381 1247.101085,557.769381 C1247.101085,557.769381 1247.101085,343.912059 1247.101085,343.912059 L 1239.933484,336.135429 L 1236.291374,336.135429 Z" transform="" fill="#ff8a8b"/>
			<path d="M1247.101085,343.912059C1247.101085,343.912059 1292.804475,392.076989 1292.804475,392.076989 C1292.804475,392.076989 1292.804475,585.677448 1292.804475,585.677448 C1265.897394,565.67144 1247.101085,557.769381 1247.101085,557.769381 C1247.101085,557.769381 1247.101085,343.912059 1247.101085,343.912059 Z" transform="" fill="#cfffcf"/>
			<path d="M1292.804475,392.076989C1292.804475,392.076989 1292.804475,585.677448 1292.804475,585.677448 C1292.804475,585.677448 1305.452678,595.774524 1305.452678,595.774524 C1305.452678,595.774524 1305.452678,395.58082 1305.452678,395.58082 L 1299.763363,397.784032 L 1297.881921,397.282314 L 1292.804475,392.076989 Z" transform="" fill="#ffced0"/>
			<path d="M1305.452678,395.566844C1305.452678,395.566844 1337.476736,382.568132 1337.476736,382.568132 C1337.476736,382.568132 1337.476736,625.250464 1337.476736,625.250464 C1313.56061,601.983285 1305.452678,595.774524 1305.452678,595.774524 C1305.452678,595.774524 1305.452678,395.566844 1305.452678,395.566844 Z" transform="" fill="#c8ffd6"/>
			<path d="M1337.476736,382.568132C1337.476736,382.568361 1337.476736,625.250464 1337.476736,625.250464 C1337.476736,625.250464 1348.779389,637.674013 1348.779389,637.674013 C1348.779389,637.674013 1348.779389,379.945303 1348.779389,379.945303 C1348.779389,379.945303 1343.678167,379.983896 1343.678167,379.983896 C1343.678167,379.983896 1337.476736,382.568132 1337.476736,382.568132 Z" transform="" fill="#ffc5c5"/>
			<path d="M1348.779389,379.973033C1348.779389,379.973033 1401.524918,379.945303 1401.524918,379.945303 C1401.524918,379.945303 1401.524918,686.070509 1401.524918,686.070509 C1401.524918,686.070509 1385.127798,686.147697 1385.127798,686.147697 C1370.886728,662.219604 1348.779389,637.674013 1348.779389,637.674013 C1348.779389,637.674013 1348.779389,379.973033 1348.779389,379.973033 Z" transform="" fill="#d4ffd7"/>
			<path d="M1401.524918,379.945303C1401.524918,379.945303 1401.524918,686.070509 1401.524918,686.070509 L 1412.374948,686.147697 L 1415.487425,686.147697 C1415.487425,686.147697 1413.725727,379.945303 1413.725727,379.945303 C1413.725727,379.945303 1401.524918,379.945303 1401.524918,379.945303 Z" transform="" fill="#ffe4e6"/>
			<path d="M1408.829248,690.107318C1408.829248,690.107318 1408.506172,686.147697 1408.506172,686.147697 C1408.506172,686.147697 1415.487194,686.107532 1415.487194,686.107532 C1415.487194,686.107532 1413.725727,379.945303 1413.725727,379.945303 C1413.725727,379.945303 1407.625323,379.945303 1407.625323,379.945303 C1407.625323,379.945303 1408.291028,356.141799 1408.291028,356.141799 C1408.291028,356.141799 1515.935031,369.059087 1515.935031,369.059087 C1515.935031,369.059087 1515.665921,699.526168 1515.665921,699.526168 C1515.665921,699.526168 1408.829248,710.74023 1408.829248,710.74023 C1408.829248,710.74023 1408.829248,690.107318 1408.829248,690.107318 Z" transform="" fill="#cbccff"/>
		</g>
		<path d="M179.438995,16.568001C159.134003,18.468 140.203003,23.149 121.906998,30.792999 C121.906998,30.792999 119.977997,31.599001 119.977997,31.599001 C119.977997,31.599001 122.606003,33.077999 122.606003,33.077999 C124.051003,33.890999 129.636002,36.993999 135.016998,39.973999 C169.757996,59.212002 193.906006,75.209999 236.315002,107.086998 C246.889008,115.035004 258.868011,123.810997 262.934998,126.589996 C267.001007,129.369003 270.757996,131.953003 271.28299,132.332993 C273.921997,134.244003 264.660004,85.727997 254.227005,42.991001 C252.220001,34.765999 250.414001,27.26 250.214996,26.311001 C249.804993,24.361 248.509995,23.832001 237.649994,21.179001 C220.667007,17.030001 195.666,15.05 179.438995,16.568001 M211.214996,23.490999C221.774994,24.712 234.813004,27.34 243.283005,29.954 C243.283005,29.954 246.511993,30.950001 246.511993,30.950001 C246.511993,30.950001 248.529007,39.908001 248.529007,39.908001 C255.606995,71.342003 266.144012,121.994003 265.812988,122.988998 C265.723999,123.254997 258.450012,117.848999 249.647995,110.977997 C206.106003,76.983002 174.207001,55.191002 142.710007,37.921001 C138.811005,35.783001 135.498993,33.837002 135.350006,33.596001 C134.313004,31.917999 164.309006,24.858 178.166,23.518999 C181.363007,23.211 184.820007,22.860001 185.848007,22.74 C188.903,22.384001 206.031006,22.891001 211.214996,23.490999 M259.015991,28.705C259.020996,29.739 259.852997,33.75 265.399994,59.465 C274.311005,100.780998 282.484009,144.175995 290.858002,194.628998 C292.009003,201.563995 291.967987,201.544006 295.86499,197.016006 C309.274994,181.434998 326.908997,152.798996 342.665985,121.015999 C352.204987,101.775002 351.790985,103.716003 347.65799,97.620003 C327.031006,67.198997 297.183014,42.926998 264.11499,29.683001 C258.518005,27.441999 259.010986,27.535999 259.015991,28.705 M106.275002,38.311001C71.444,57.945999 45.179001,85.343002 28.576,119.359001 C25.412001,125.842003 21.208,135.695007 21.5,135.944 C21.570999,136.005005 25.233999,134.858002 29.639999,133.395996 C69.311996,120.227997 112.393997,110.668999 180.774002,99.862999 C193.759003,97.811996 204.759995,95.461998 205.787003,94.522003 C208.746002,91.814003 116.286003,36.473999 109.521004,36.903 C109.056999,36.931999 107.597,37.566002 106.275002,38.311001 M274.545013,42.362C303.572998,57.108002 328.815002,79.842003 343.864014,104.792999 C343.864014,104.792999 345.062988,106.781998 345.062988,106.781998 C345.062988,106.781998 335.053009,124.819 335.053009,124.819 C319.605011,152.653 308.630005,170.473007 297.019012,186.576996 C297.019012,186.576996 295.144989,189.175995 295.144989,189.175995 C295.144989,189.175995 293.140015,175.362 293.140015,175.362 C286.846008,132.005997 273.776001,66.231003 266.174011,39.653 C265.678986,37.924 266.041992,38.042 274.545013,42.362 M115.271004,43.720001C116.051003,44.268002 124.259003,49.042999 133.511002,54.331001 C167.317993,73.653 196.931,92.045998 194.597,92.273003 C185.912994,93.116997 145.233994,99.642998 125.607002,103.339996 C95.476997,109.015999 65.125,116.401001 41.402,123.828003 C41.402,123.828003 33.203999,126.393997 33.203999,126.393997 C33.203999,126.393997 33.724998,125.013 33.724998,125.013 C43.314999,99.621002 72.987999,66.585999 101.736,49.299 C113.569,42.182999 113.263,42.308998 115.271004,43.720001 M359.822998,119.403C359.658997,119.672997 357.303009,124.219002 354.585999,129.505997 C333.687012,170.182999 311.069,203.050995 264.181,260.881012 C264.181,260.881012 257.253998,269.425995 257.253998,269.425995 C257.253998,269.425995 264.941986,269.582001 264.941986,269.582001 C280.110992,269.890991 329.083008,259.813995 364.485992,249.098007 C368.010986,248.031006 371.438995,247.033005 372.104004,246.880005 C373.707001,246.511002 373.533997,246.988007 375.354004,237.897003 C382.350006,202.940002 379.522003,167.694 367.126007,135.356995 C363.562012,126.060997 360.21701,118.752998 359.822998,119.403 M119.359001,124.782997C92.115997,128.026001 59.176998,136.001007 30.441,146.311996 C27.356001,147.419006 23.150999,148.869995 21.094999,149.537003 C16.25,151.108994 16.341,150.994003 14.757,157.542999 C5.907,194.130997 8.625,233.063995 22.5,268.449005 C26.236,277.979004 25.853001,277.704987 28.525,272.76001 C44.554001,243.087997 75.009003,197.182007 109.036003,151.401993 C119.446999,137.393997 122.831001,132.561996 126.518997,126.434998 C126.518997,126.434998 127.723999,124.432999 127.723999,124.432999 C127.723999,124.432999 124.343002,124.513 124.343002,124.513 C122.483002,124.556999 120.239998,124.678001 119.359001,124.782997 M119.230003,129.906998C86.75,171.037994 55.890999,215.761993 32.061001,256.23999 C29.931999,259.855988 28.115999,262.73999 28.025,262.648987 C26.896,261.519012 21.889,244.677994 19.993,235.634995 C14.456,209.225998 15.237,180.643005 22.143999,156.886002 C22.143999,156.886002 23.034,153.826004 23.034,153.826004 C23.034,153.826004 31.41,151.104004 31.41,151.104004 C52.918999,144.115005 72.474998,139.085999 101.736,133.016998 C111.429001,131.007004 119.448997,129.335007 119.557999,129.300995 C119.667,129.266998 119.519997,129.539001 119.230003,129.906998 M365.328003,152.279999C373.713989,181.225998 374.755005,206.595993 368.752991,235.727005 C367.171997,243.397995 368.946014,242.001999 356.388,245.459 C330.371002,252.621002 272.190002,265.954987 266.954987,265.954987 C266.68399,265.954987 268.394989,263.764008 270.756989,261.088013 C300.902008,226.931 338.477997,173.339005 353.419006,143.192993 C353.419006,143.192993 358.54599,132.847 358.54599,132.847 C358.54599,132.847 360.858002,138.837006 360.858002,138.837006 C362.128998,142.132004 364.140991,148.181 365.328003,152.279999 M93.342003,195.024994C79.043999,211.973007 49.834999,259.519989 40.255001,281.441986 C39.419998,283.351013 37.832001,286.569 36.724998,288.59201 C34.209,293.191986 34.202999,293.075012 37.209999,297.953003 C55.023998,326.846008 81.989998,351.38501 112.386002,366.360992 C118.240997,369.246002 127.750999,373.348999 128.007996,373.101013 C128.115997,372.997009 126.848,368.187012 125.033997,361.81601 C113.084999,319.863007 104.671997,274.26001 99.887001,225.494995 C96.296997,188.908997 96.744003,190.992004 93.342003,195.024994 M95.295998,230.440994C99.308998,274.876007 107.848999,321.980011 117.919998,355.223999 C117.919998,355.223999 119.967003,361.983002 119.967003,361.983002 C119.967003,361.983002 118.595001,361.464996 118.595001,361.464996 C93.920998,352.147003 61.352001,323.26001 43.890999,295.207001 C40.960999,290.498993 40.161999,292.712006 54.359001,266.221985 C61.801998,252.334 84.219002,214.546005 92.851997,201.335007 C93.681,200.067001 93.742996,200.526001 94.077003,210.414001 C94.269997,216.141998 94.819,225.154007 95.295998,230.440994 M362.617004,264.937988C361.588989,265.192993 354.259003,267.067993 346.328003,269.105011 C311.885986,277.950989 269.480011,286.502991 237.649994,291.02301 C227.432999,292.473999 194.216995,296.35199 191.455002,296.415985 C190.643997,296.434998 191.285004,297.290009 194.126007,299.976013 C211.360001,316.269012 247.526001,338.692993 276.903015,351.299988 C281.015015,353.063995 286.028992,355.253998 288.04599,356.165009 C288.04599,356.165009 291.712006,357.821014 291.712006,357.821014 C291.712006,357.821014 293.653015,356.651001 293.653015,356.651001 C324.709015,337.932007 352.244995,304.259003 366.838989,267.156006 C366.838989,267.156006 367.941986,264.35199 367.941986,264.35199 C367.941986,264.35199 366.213989,264.414001 366.213989,264.414001 C365.264008,264.447998 363.644989,264.68399 362.617004,264.937988 M120.695,267.690002C120.696999,284.408997 132.042007,348.460999 139.470993,373.700989 C139.470993,373.700989 140.610992,377.575012 140.610992,377.575012 C140.610992,377.575012 143.231995,378.354004 143.231995,378.354004 C183.074997,390.186005 237.705994,386.328003 270.014008,369.399994 C270.014008,369.399994 271.453003,368.645996 271.453003,368.645996 C271.453003,368.645996 267.769012,366.260986 267.769012,366.260986 C265.743011,364.949005 254.231995,356.911011 242.190002,348.398987 C210.932999,326.307007 196.944,316.621002 168.778,297.570007 C145.888,282.087006 134.819,274.410004 128.751999,269.808014 C126.636002,268.203003 121.706001,265.42099 120.978996,265.42099 C120.821999,265.42099 120.694,266.441986 120.695,267.690002 M356.742004,272.809998C356.742004,273.687988 348.863007,288.746002 345.799011,293.725006 C331.447998,317.039001 311.152008,337.763 290.444,350.244995 C290.444,350.244995 288.498993,351.417999 288.498993,351.417999 C288.498993,351.417999 279.971985,347.458008 279.971985,347.458008 C257.617004,337.075989 235.996994,324.308014 209.419006,305.791992 C209.419006,305.791992 200.145004,299.332001 200.145004,299.332001 C200.145004,299.332001 207.815994,298.954987 207.815994,298.954987 C239.095993,297.414001 297.696014,287.23999 343.924988,275.322998 C355.496002,272.341003 356.742004,272.096008 356.742004,272.809998 M133.388,279.651001C140.820999,285.281006 147.397995,289.86499 175.386993,308.924011 C186.522995,316.506012 205.028,329.272003 216.509003,337.291992 C227.990005,345.312012 242.005997,355.071991 247.656006,358.980988 C253.306,362.890015 257.932007,366.235992 257.936005,366.416992 C257.949005,366.949005 249.468994,369.884003 241.257004,372.190002 C210.589005,380.803009 183.084,381.216003 152.487,373.523987 C143.641998,371.299988 144.878998,372.898987 141.595993,359.450012 C136.119003,337.011993 132.481003,318.394989 125.102997,275.041992 C124.797997,273.252014 124.827003,273.210999 125.862999,273.973999 C126.455002,274.410004 129.841003,276.963989 133.388,279.651001 " transform="matrix(0.242937373,0,0,0.241930239,1010.939324833,614.500434944)" fill="#000000"/>
		<path d="M1205.412022,754.542442C1205.412022,754.542442 1204.267283,799.458554 1204.267283,799.458554 C1204.267283,799.458554 1368.424387,954.196808 1368.424387,954.196808 C1368.424387,954.196808 1701.582609,882.344436 1701.582609,882.344436 C1701.582609,882.344436 1683.821316,947.199948 1683.821316,947.199948 C1683.821316,947.199948 1750.560597,914.368527 1750.560597,914.368527 C1750.560597,914.368527 1766.707198,805.917194 1766.707198,805.917194 C1766.707198,805.917194 1731.992007,729.759062 1731.992007,729.759062 C1731.992007,729.759062 1729.300907,811.299394 1712.885196,839.286852 C1712.885196,839.286852 1374.883027,907.640777 1374.883027,907.640777 C1374.883027,907.640777 1247.324867,776.853314 1247.055774,776.853314 C1246.78668,776.853314 1247.323958,752.085225 1247.323958,752.085225 C1247.323958,752.085225 1205.412022,754.542442 1205.412022,754.542442 Z" transform="" fill="#000000" stroke="#000000" stroke-width="2" stroke-linecap="round" stroke-linejoin="round"/>
		<path d="M1205.28162,332.198758C1205.28162,332.198758 1204.784802,273.705581 1204.784802,273.705581 C1204.784802,273.705581 1367.244443,119.360641 1367.244443,119.360641 C1367.244443,119.360641 1702.100095,190.736893 1702.100095,190.736893 C1702.100095,190.736893 1682.724175,125.653673 1683.055387,125.653673 C1683.386599,125.653673 1749.297851,158.11248 1749.297851,157.946874 C1749.297851,157.781267 1766.520891,268.074969 1766.520891,268.074969 C1766.520891,268.074969 1731.412385,343.922589 1731.412385,343.922589 C1731.412385,343.922589 1733.896478,280.992249 1713.858133,235.450566 C1713.858133,235.450566 1374.862327,164.902327 1374.862327,164.736726 C1374.862327,164.571125 1247.179983,296.228026 1247.179983,296.228026 C1247.179983,296.228026 1247.101085,332.198758 1247.101085,332.198758 C1247.101085,332.198758 1205.28162,332.198758 1205.28162,332.198758 Z" transform="" fill="#000000" stroke="#000000" stroke-width="2" stroke-linecap="round" stroke-linejoin="round"/>
		<path d="M620.335194,705.303896C620.335194,705.303896 689.838822,704.590509 689.838822,704.590509 C689.838822,704.590509 690.450297,678.195435 690.450297,678.195435 C690.450297,678.195435 691.610514,676.262729 691.673229,676.200015 C691.735943,676.1373 692.896166,674.42471 692.896166,674.42471 C692.896166,674.42471 931.572857,674.220887 931.572857,674.220887 C980.082717,610.628123 1053.586379,566.361306 1053.586379,566.361306 C1053.586379,566.361306 1053.586379,521.286785 1053.586379,521.286785 C1053.586379,521.286785 758.481934,522.51042 758.481934,522.51042 C758.481934,522.51042 620.335194,705.303896 620.335194,705.303896 " transform="" fill="#484848" stroke="#000000" stroke-linecap="round" stroke-linejoin="round"/>
	</g>
</g></g></svg>