<svg version="1.1" xmlns="http://www.w3.org/2000/svg" xmlns:xlink="http://www.w3.org/1999/xlink" stroke-linecap="round" stroke-linejoin="round" stroke-width="0" fill-rule="evenodd" clip-rule="evenodd" id="V7h9754Xg0ZDZ_S-ed2F_top" viewBox="105776.26 -109703.421 107214.74400000002 55474.905" width="107.21474400000002mm" height="55.474905mm" class="w-100 h-100"><defs><style>.V7h9754Xg0ZDZ_S-ed2F_fr4 {color: #666666;}
.V7h9754Xg0ZDZ_S-ed2F_cu {color: #cccccc;}
.V7h9754Xg0ZDZ_S-ed2F_cf {color: #d1d1d1;}
.V7h9754Xg0ZDZ_S-ed2F_sm {color: #ffffff; opacity: 0.75;}
.V7h9754Xg0ZDZ_S-ed2F_ss {color: #000000;}
.V7h9754Xg0ZDZ_S-ed2F_sp {color: #999999;}
.V7h9754Xg0ZDZ_S-ed2F_out {color: #000000;}</style><mask id="EC1vRdZKqLjbWAkX-XXN_clear-1" fill="#000" stroke="#000"><g><rect x="105651.116" y="-109639.6655" width="107291.6305" height="55353.224" fill="#fff"/><path d="M 165700.178 -72689.468 165700.76 -72690.053 165700.76 -80917.453 165700.177 -80918.038 146179.254 -80998.979 146178.675 -80997.969 146939.76 -79710.376 147615.586 -78516.173 148217.782 -77402.44 148757.613 -76356.875 149246.384 -75367.108 149695.391 -74420.788 150519.41 -72608.801 150519.908 -72608.482 165700.178 -72689.468"/><path d="M 131858.443 -67651.666 131850.996 -67750.094 131850.991 -67750.132 131833.455 -67864.799 131833.448 -67864.834 131799.339 -68016.349 131799.33 -68016.386 131743.137 -68199.562 131743.123 -68199.601 131659.33 -68409.241 131659.312 -68409.281 131542.408 -68640.192 131542.385 -68640.232 131386.857 -68887.213 131386.836 -68887.243 131292.861 -69015.145 131292.846 -69015.164 131187.149 -69145.134 131187.133 -69145.152 131069.024 -69276.543 131069.007 -69276.561 130937.796 -69408.723 130937.778 -69408.74 130792.777 -69541.026 130792.758 -69541.042 130633.277 -69672.801 130633.258 -69672.816 130458.607 -69803.399 130458.588 -69803.413 130268.08 -69932.171 130268.061 -69932.184 130061.006 -70058.468 130060.986 -70058.479 129836.686 -70181.645 129594.452 -70301.043 129333.604 -70416.018 129053.454 -70525.921 128753.313 -70630.103 128432.491 -70727.915 128090.296 -70818.709 127817.347 -70878.911 127817.323 -70878.916 127552.194 -70923.593 127552.169 -70923.597 127294.907 -70953.644 127294.882 -70953.646 127045.544 -70969.955 127045.518 -70969.956 126804.159 -70973.42 126804.133 -70973.42 126570.81 -70964.931 126570.785 -70964.929 126345.553 -70945.381 126345.529 -70945.378 126128.444 -70915.662 126128.42 -70915.658 125919.54 -70876.668 125919.517 -70876.663 125718.896 -70829.291 125718.874 -70829.285 125526.557 -70774.421 125342.603 -70712.956 125167.077 -70645.786 125000.037 -70573.805 124841.536 -70497.905 124691.632 -70418.978 124550.38 -70337.92 124417.836 -70255.62 124294.057 -70172.972 124179.09 -70090.866 123975.868 -69931.879 123975.847 -69931.862 123808.576 -69785.771 123808.558 -69785.755 123677.67 -69659.687 123583.619 -69560.791 123583.603 -69560.773 123507.484 -69472.689 123507.78 -69471.651 125015.615 -68999.57 126340.913 -68611.763 126983.479 -68438.841 127550.563 -68302.36 128142.821 -68185.103 128821.825 -68069.423 129536.503 -67959.651 130235.777 -67860.118 131383.805 -67709.111 131857.758 -67651.013 131858.443 -67651.666"/><path d="M 170280.426 -68694.497 170280.99 -68695.079 170280.99 -82176.472 170280.567 -82177.014 169532.141 -82365.285 169531.371 -82364.684 169531.371 -69222.133 169531.504 -69221.787 170013.418 -68686.354 170013.825 -68686.181 170280.426 -68694.497"/><path d="M 178033.307 -68690.503 178507.683 -69205.187 178507.82 -69205.538 178507.82 -83352.051 178506.88 -83352.639 177791.112 -83003.809 177790.808 -83003.323 177790.808 -68690.921 177791.394 -68690.335 178032.924 -68690.335 178033.307 -68690.503"/><path d="M 181866.291 -72735.05 181990.152 -72768.081 182366.668 -72622.276 182367.538 -72622.872 182367.538 -85866.008 182366.405 -85866.553 181529.112 -85198.137 181528.914 -85197.726 181528.914 -72390.963 181530.16 -72390.456 181866.291 -72735.05"/><path d="M 185233.421 -71588.76 185233.421 -88637.541 185232.143 -88638.036 184483.929 -87815.625 184483.794 -87815.277 184483.794 -71762.363 184484.13 -71761.859 184894.701 -71590.768 184894.891 -71590.729 185232.83 -71588.173 185233.421 -71588.76"/><path d="M 166507.286 -72507.114 166507.286 -83513.564 166506.991 -83514.045 165706.588 -83920.963 165705.634 -83920.378 165705.634 -72711.339 165706.22 -72710.753 166309.137 -72710.753 166506.035 -72506.609 166507.286 -72507.114"/><path d="M 189529.348 -71588.758 189645.883 -91843.599 189645.297 -91844.189 189438.998 -91844.189 188720.894 -91839.078 188720.313 -91838.493 188720.313 -71588.762 188720.899 -71588.176 189528.763 -71588.176 189529.348 -71588.758"/></g></mask><circle cx="0" cy="0" r="500" id="j-PeOs4rJLMeKvclLdcO_pad-1"/><g id="V7h9754Xg0ZDZ_S-ed2F_top_silkscreen"><g mask="url(#EC1vRdZKqLjbWAkX-XXN_clear-1)"><path d="M 166107.767 -87364.317 166232.314 -87372.038 166357.431 -87384.01 166479.954 -87399.984 166596.722 -87419.71 166651.96 -87430.902 166704.574 -87442.939 166735.528 -87450.515 166763.085 -87457.377 166787.447 -87463.609 166808.82 -87469.294 166818.45 -87471.957 166827.408 -87474.514 166835.722 -87476.976 166843.415 -87479.354 166850.515 -87481.656 166857.046 -87483.895 166863.034 -87486.08 166868.505 -87488.221 166873.483 -87490.33 166877.995 -87492.416 166882.067 -87494.49 166885.723 -87496.562 166888.989 -87498.642 166891.891 -87500.742 166894.454 -87502.871 166896.704 -87505.039 166898.666 -87507.258 166900.366 -87509.538 166901.83 -87511.888 166903.082 -87514.319 166904.15 -87516.843 166905.057 -87519.468 166905.829 -87522.205 166906.493 -87525.066 166927.829 -87614.865 166970.954 -87791.988 167032.606 -88051.031 167090.473 -88308.204 167142.534 -88552.966 167186.769 -88774.777 167221.157 -88963.096 167243.677 -89107.384 167249.855 -89159.722 167252.309 -89197.099 167250.786 -89218.199 167248.454 -89222.232 167245.033 -89221.702 167199.296 -89190.146 167110.885 -89129.799 167040.37 -89080.157 166936.214 -89004.767 166812.454 -88913.867 166683.128 -88817.699 166440.422 -88637.718 166219.792 -88477.974 166015.804 -88334.882 165823.026 -88204.857 165636.023 -88084.313 165449.363 -87969.663 165257.611 -87857.324 165055.335 -87743.709 164865.88 -87638.879 164855.895 -87633.354 164813.667 -87609.687 164844.665 -87596.79 164955.418 -87553.136 165067.268 -87513.892 165180.352 -87479.025 165294.81 -87448.501 165410.781 -87422.286 165528.404 -87400.345 165647.819 -87382.645 165769.164 -87369.152 165819.643 -87365.248 165873.03 -87362.625 165986.952 -87361.096 166107.767 -87364.317"/><path d="M 164659.767 -87696.486 164681.441 -87703.316 164745.263 -87730.439 164832.834 -87773.397 164939.889 -87829.648 165195.401 -87971.868 165477.694 -88136.77 165752.662 -88304.025 165986.2 -88453.304 166076.775 -88514.85 166144.203 -88564.28 166184.221 -88599.051 166192.619 -88610.145 166192.565 -88616.623 166187.624 -88619.701 166179.114 -88623.269 166152.142 -88631.709 166113.153 -88641.624 166063.652 -88652.692 166005.143 -88664.593 165939.132 -88677.007 165867.122 -88689.613 165790.618 -88702.091 165396.931 -88766.155 165037.233 -88829.259 164707.402 -88892.313 164403.318 -88956.228 164120.857 -89021.915 163855.9 -89090.284 163604.324 -89162.246 163362.006 -89238.712 163311.859 -89255.09 163270.479 -89268.239 163254.42 -89273.184 163242.162 -89276.818 163234.243 -89278.975 163232.079 -89279.447 163231.2 -89279.487 163231.146 -89276.989 163232.654 -89271.194 163239.837 -89250.925 163251.709 -89221.114 163267.226 -89184.194 163292.683 -89126.663 163305.03 -89098.758 163325.231 -89055.108 163344.909 -89014.08 163396.748 -88913.261 163452.2 -88814.951 163511.24 -88719.177 163573.841 -88625.966 163639.979 -88535.345 163709.626 -88447.34 163782.758 -88361.979 163859.348 -88279.287 163939.37 -88199.293 164022.799 -88122.022 164109.609 -88047.502 164199.774 -87975.76 164293.268 -87906.821 164390.066 -87840.713 164490.14 -87777.463 164593.467 -87717.098 164601.503 -87712.726 164609.533 -87708.613 164617.343 -87704.852 164624.721 -87701.536 164628.18 -87700.073 164631.452 -87698.756 164634.508 -87697.597 164637.322 -87696.607 164639.868 -87695.797 164642.119 -87695.18 164644.048 -87694.766 164645.629 -87694.568 164659.767 -87696.486"/><path d="M 167166.902 -87721.926 167167.915 -87722.014 167170.213 -87722.387 167172.893 -87723.03 167175.974 -87723.949 167179.479 -87725.152 167183.429 -87726.646 167187.846 -87728.437 167192.75 -87730.532 167198.164 -87732.939 167204.108 -87735.663 167217.674 -87742.095 167233.621 -87749.881 167252.119 -87759.078 167273.339 -87769.741 167297.454 -87781.925 167384.177 -87827.646 167469.324 -87876.228 167552.743 -87927.535 167634.283 -87981.432 167713.794 -88037.784 167791.126 -88096.456 167866.126 -88157.312 167938.645 -88220.217 168008.531 -88285.035 168075.634 -88351.633 168139.803 -88419.873 168200.888 -88489.621 168258.736 -88560.742 168313.199 -88633.1 168364.124 -88706.56 168411.361 -88780.986 168430.633 -88812.816 168269.775 -89101.459 168179.894 -89261.239 168095.79 -89407.551 168016.501 -89541.951 167941.063 -89665.996 167868.515 -89781.242 167797.896 -89889.245 167728.242 -89991.562 167658.591 -90089.748 167628.486 -90131.34 167596.267 -89910.278 167553.619 -89635.207 167503.068 -89338.057 167387.482 -88723.74 167327.058 -88429.682 167267.955 -88159.766 167212.478 -87925.545 167162.933 -87738.575 167161.632 -87733.742 167161.157 -87731.603 167160.826 -87729.658 167160.662 -87727.914 167160.686 -87726.377 167160.775 -87725.688 167160.919 -87725.054 167161.121 -87724.476 167161.383 -87723.954 167161.709 -87723.489 167162.1 -87723.081 167162.559 -87722.733 167163.09 -87722.444 167163.694 -87722.216 167164.374 -87722.049 167165.134 -87721.945 167165.976 -87721.903 167166.902 -87721.926"/><path d="M 168669.54 -89014.304 168672.319 -89016.667 168676.081 -89021.736 168680.762 -89029.369 168692.621 -89051.771 168707.382 -89082.753 168724.532 -89121.196 168743.554 -89165.98 168763.936 -89215.985 168785.163 -89270.092 168820.71 -89367.652 168852.646 -89466.229 168880.967 -89565.746 168905.667 -89666.13 168926.739 -89767.305 168944.177 -89869.197 168957.975 -89971.729 168968.127 -90074.828 168974.628 -90178.419 168977.471 -90282.425 168976.651 -90386.773 168972.16 -90491.388 168963.994 -90596.194 168952.146 -90701.116 168936.61 -90806.08 168917.381 -90911.01 168907.797 -90958.713 168903.909 -90977.791 168900.506 -90994.014 168897.498 -91007.624 168896.115 -91013.526 168894.797 -91018.867 168893.534 -91023.676 168892.314 -91027.986 168891.127 -91031.825 168889.961 -91035.225 168888.806 -91038.215 168887.649 -91040.828 168886.481 -91043.092 168885.289 -91045.04 168884.064 -91046.7 168882.793 -91048.104 168881.466 -91049.282 168880.071 -91050.265 168878.598 -91051.083 168877.035 -91051.767 168875.372 -91052.347 168873.597 -91052.854 168869.667 -91053.77 168865.157 -91054.76 168849.489 -91058.938 168821.184 -91067.023 168742.736 -91090.255 168520.664 -91153.777 168287.072 -91214.513 168050.879 -91270.634 167821.007 -91320.314 167606.376 -91361.723 167415.906 -91393.034 167258.519 -91412.42 167195.019 -91417.07 167143.134 -91418.052 167019.599 -91415.557 167065.146 -91359.604 167130.912 -91278.812 167395.885 -90949.476 167628.541 -90651.443 167833.129 -90378.567 168013.893 -90124.703 168175.082 -89883.707 168320.941 -89649.431 168455.716 -89415.73 168583.656 -89176.46 168641.118 -89065.516 168659.689 -89029.973 168667.808 -89014.785 168668.539 -89014.18 168669.54 -89014.304"/><path d="M 164832.705 -91351.973 164837.078 -91353.43 164842.704 -91355.744 164849.417 -91358.824 164865.444 -91366.907 164883.839 -91376.936 164903.28 -91388.169 164922.445 -91399.864 164940.014 -91411.278 164947.787 -91416.648 164954.665 -91421.669 165044.566 -91487.31 165174.881 -91578.504 165355.884 -91702.346 165597.846 -91865.936 165902.486 -92071.93 166169.065 -92254.387 166444.956 -92445.968 166777.534 -92679.336 166918.814 -92778.512 167043.407 -92865.463 167137.821 -92930.81 167188.567 -92965.175 167247.764 -93003.337 167224.647 -93015.407 167123.244 -93063.738 167014.307 -93107.106 166898.71 -93145.449 166777.327 -93178.705 166651.03 -93206.814 166520.694 -93229.713 166387.193 -93247.342 166251.398 -93259.639 166114.185 -93266.543 165976.427 -93267.992 165838.997 -93263.924 165702.769 -93254.279 165568.616 -93238.995 165437.413 -93218.011 165310.032 -93191.264 165187.347 -93158.695 165145.225 -93146.228 165126.907 -93084.232 165079.669 -92906.346 165029.406 -92686.387 164978.99 -92440.51 164931.295 -92184.87 164889.193 -91935.621 164855.559 -91708.919 164833.266 -91520.919 164830.478 -91486.309 164827.27 -91446.48 164825.187 -91387.775 164825.208 -91384.076 164825.275 -91380.481 164825.387 -91377.009 164825.539 -91373.677 164825.731 -91370.505 164825.96 -91367.511 164826.223 -91364.714 164826.518 -91362.132 164826.843 -91359.784 164827.195 -91357.689 164827.572 -91355.866 164827.972 -91354.332 164828.392 -91353.106 164828.609 -91352.615 164828.83 -91352.208 164829.055 -91351.887 164829.283 -91351.655 164829.515 -91351.514 164829.749 -91351.467 164832.705 -91351.973"/><path d="M 168780.555 -91379.23 168734.182 -91489.869 168683.157 -91598.952 168627.702 -91706.208 168568.038 -91811.367 168504.386 -91914.159 168436.969 -92014.314 168366.009 -92111.562 168291.727 -92205.632 168214.345 -92296.255 168134.085 -92383.16 168051.168 -92466.077 167965.817 -92544.736 167878.252 -92618.867 167788.697 -92688.2 167697.372 -92752.464 167604.499 -92811.39 167573.318 -92830.116 167514.404 -92803.615 167437.499 -92769.806 167335.349 -92725.761 167245.658 -92686.155 167154.015 -92643.24 167061.026 -92597.391 166967.298 -92548.982 166873.434 -92498.386 166780.041 -92445.978 166687.724 -92392.131 166597.088 -92337.218 166508.739 -92281.615 166423.282 -92225.694 166341.323 -92169.83 166263.467 -92114.396 166190.319 -92059.766 166122.485 -92006.315 166060.57 -91954.415 166005.18 -91904.441 165997.031 -91896.721 165994.34 -91894.134 165989.693 -91889.665 165983.149 -91883.248 165980.168 -91880.273 165977.38 -91877.448 165974.781 -91874.773 165972.37 -91872.242 165970.143 -91869.854 165968.1 -91867.606 165966.237 -91865.494 165964.553 -91863.516 165963.045 -91861.669 165961.711 -91859.95 165960.549 -91858.356 165959.557 -91856.884 165958.733 -91855.531 165958.073 -91854.295 165957.577 -91853.172 165957.39 -91852.652 165957.242 -91852.159 165957.134 -91851.693 165957.066 -91851.254 165957.036 -91850.841 165957.046 -91850.453 165957.094 -91850.091 165957.18 -91849.755 165957.304 -91849.442 165957.467 -91849.154 165957.666 -91848.891 165957.903 -91848.65 165958.177 -91848.433 165958.487 -91848.239 165958.834 -91848.067 165959.217 -91847.918 165959.635 -91847.79 165960.09 -91847.684 165961.104 -91847.534 165962.257 -91847.465 166073.882 -91836.816 166288.494 -91812.641 166525.567 -91784.304 166704.574 -91761.169 166903.767 -91731.135 167115.401 -91695.754 167335.984 -91655.726 167562.026 -91611.753 167790.035 -91564.535 168016.52 -91514.773 168237.988 -91463.169 168450.95 -91410.423 168712.714 -91343.734 168719.312 -91342.23 168726.564 -91340.787 168734.232 -91339.44 168742.08 -91338.223 168749.869 -91337.171 168757.361 -91336.319 168764.32 -91335.7 168770.507 -91335.35 168798.278 -91334.362 168780.555 -91379.23"/><path d="M 164427.739 -90196.486 164432.496 -90207.358 164437.103 -90224.987 164446.608 -90283.958 164457.739 -90380.283 164490.821 -90712.543 164522.385 -91002.795 164559.397 -91288.212 164601.84 -91568.702 164649.697 -91844.173 164702.951 -92114.534 164761.585 -92379.693 164825.58 -92639.56 164894.92 -92894.043 164914.929 -92965.037 164923.308 -92995.547 164930.395 -93021.947 164936.035 -93043.645 164940.07 -93060.052 164942.344 -93070.578 164942.773 -93073.452 164942.702 -93074.634 164940.238 -93074.584 164934.592 -93073.032 164914.972 -93065.947 164886.272 -93054.423 164850.925 -93039.505 164770.009 -93003.662 164729.303 -92984.827 164691.673 -92966.774 164600.758 -92920.065 164511.27 -92869.892 164423.344 -92816.377 164337.113 -92759.641 164252.713 -92699.806 164170.279 -92636.996 164089.944 -92571.331 164011.844 -92502.935 163936.113 -92431.928 163862.886 -92358.434 163792.298 -92282.574 163724.483 -92204.471 163659.576 -92124.246 163597.712 -92042.023 163539.025 -91957.922 163483.649 -91872.066 163467.782 -91846.236 163461.521 -91835.561 163456.359 -91826.078 163454.187 -91821.711 163452.285 -91817.557 163450.652 -91813.587 163449.286 -91809.771 163448.187 -91806.083 163447.351 -91802.493 163446.779 -91798.973 163446.469 -91795.495 163446.418 -91792.03 163446.626 -91788.549 163447.091 -91785.024 163447.811 -91781.427 163448.786 -91777.73 163450.013 -91773.903 163451.491 -91769.918 163452.894 -91766.531 163453.219 -91765.747 163457.418 -91756.733 163462.598 -91746.633 163475.852 -91722.263 163482.848 -91709.305 163490.335 -91695.025 163505.857 -91664.372 163520.557 -91634.06 163527.018 -91620.205 163532.577 -91607.845 163565.002 -91537.481 163604.008 -91458.825 163698.505 -91281.905 163809.565 -91087.629 163930.683 -90886.541 164055.355 -90689.184 164177.076 -90506.103 164289.343 -90347.84 164339.898 -90281.311 164385.65 -90224.941 164403.498 -90203.349 164410.711 -90195.802 164417.032 -90191.569 164422.646 -90191.51 164427.739 -90196.486"/><path d="M 164918.784 -89127.315 164896.557 -89163.439 164873.408 -89199.584 164847.958 -89237.714 164818.824 -89279.791 164784.626 -89327.78 164743.984 -89383.645 164637.84 -89526.855 164435.826 -89801.165 164241.238 -90072.596 164056.117 -90338.079 163882.509 -90594.548 163722.458 -90838.933 163578.008 -91068.167 163451.202 -91279.182 163344.085 -91468.91 163330.059 -91494.92 163324.35 -91504.997 163319.285 -91512.96 163314.695 -91518.69 163312.526 -91520.68 163310.412 -91522.067 163308.332 -91522.835 163306.266 -91522.97 163304.191 -91522.456 163302.088 -91521.279 163299.935 -91519.423 163297.71 -91516.873 163292.963 -91509.633 163287.677 -91499.437 163281.685 -91486.166 163266.904 -91449.916 163247.268 -91399.921 163207.565 -91293.106 163172.074 -91185.099 163140.805 -91076.037 163113.767 -90966.058 163090.969 -90855.302 163072.422 -90743.905 163058.135 -90632.007 163048.117 -90519.745 163042.379 -90407.257 163041.12 -90309.531 163040.929 -90294.682 163043.778 -90182.157 163050.936 -90069.822 163062.411 -89957.813 163078.214 -89846.269 163098.353 -89735.328 163122.84 -89625.129 163131.333 -89590.567 163135.022 -89576.545 163138.546 -89564.436 163142.063 -89554.043 163143.866 -89549.429 163145.726 -89545.171 163147.662 -89541.244 163149.692 -89537.623 163151.838 -89534.285 163154.117 -89531.205 163156.55 -89528.358 163159.155 -89525.72 163161.954 -89523.266 163164.964 -89520.972 163168.205 -89518.814 163171.697 -89516.766 163175.46 -89514.806 163179.512 -89512.907 163188.563 -89509.197 163199.007 -89505.442 163224.693 -89497.013 163255.124 -89486.937 163293.582 -89473.847 163335.142 -89459.437 163374.877 -89445.4 163550.896 -89385.352 163731.381 -89329.257 163914.47 -89277.566 164098.298 -89230.726 164281.001 -89189.189 164460.715 -89153.402 164635.575 -89123.816 164803.718 -89100.879 164810.001 -89100.241 164818.007 -89099.595 164837.871 -89098.354 164860.681 -89097.296 164883.811 -89096.561 164938.14 -89095.279 164918.784 -89127.315"/><path d="M 208603.11 -59073.828 207965.03 -56921.336 207530.971 -55441.498 207343.383 -54768.844 211725.044 -56904.905 212864.28 -64189.42 210541.991 -69206.422 210546.956 -68508.951 210524.087 -67730.5 210497.834 -67261.084 210458.471 -66748.584 210403.575 -66200.783 210330.724 -65625.462 210237.494 -65030.405 210121.462 -64423.393 209980.206 -63812.21 209811.302 -63204.637 209715.724 -62904.636 209612.327 -62608.456 209500.806 -62317.07 209380.859 -62031.451 186957.694 -57354.025 178512.038 -66051.626 178506.82 -68430.94 175740.638 -68430.94 175707.778 -64561.861 186453.803 -54352.587 208603.11 -59073.828" fill="none" stroke-width="132.291"/><path d="M 208603.11 -59073.828 207965.03 -56921.336 207530.971 -55441.498 207343.383 -54768.844 211725.044 -56904.905 212864.28 -64189.42 210541.991 -69206.422 210546.956 -68508.951 210524.087 -67730.5 210497.834 -67261.084 210458.471 -66748.584 210403.575 -66200.783 210330.724 -65625.462 210237.494 -65030.405 210121.462 -64423.393 209980.206 -63812.21 209811.302 -63204.637 209715.724 -62904.636 209612.327 -62608.456 209500.806 -62317.07 209380.859 -62031.451 186957.694 -57354.025 178512.038 -66051.626 178506.82 -68430.94 175740.638 -68430.94 175707.778 -64561.861 186453.803 -54352.587 208603.11 -59073.828"/><path d="M 212876.601 -99765.438 211808.57 -106939.045 207394.042 -109110.706 208568.885 -104820.781 186531.86 -109573.52 175673.553 -99338.226 175749.267 -96367.214 178521.568 -96204.677 178506.021 -97023.832 178499.088 -97587.001 178499.479 -97772.591 178503.829 -97842.987 186959.068 -106494.03 209316.505 -101972.705 209415.663 -101789.045 209509.636 -101586.265 209682.56 -101129.892 209836.345 -100616.675 209972.06 -100059.704 210090.775 -99472.07 210193.557 -98866.861 210281.478 -98257.167 210355.604 -97656.078 210466.753 -96532.073 210535.557 -95599.562 210580.337 -94727.893 212876.601 -99765.438" fill="none" stroke-width="132.291"/><path d="M 212876.601 -99765.438 211808.57 -106939.045 207394.042 -109110.706 208568.885 -104820.781 186531.86 -109573.52 175673.553 -99338.226 175749.267 -96367.214 178521.568 -96204.677 178506.021 -97023.832 178499.088 -97587.001 178499.479 -97772.591 178503.829 -97842.987 186959.068 -106494.03 209316.505 -101972.705 209415.663 -101789.045 209509.636 -101586.265 209682.56 -101129.892 209836.345 -100616.675 209972.06 -100059.704 210090.775 -99472.07 210193.557 -98866.861 210281.478 -98257.167 210355.604 -97656.078 210466.753 -96532.073 210535.557 -95599.562 210580.337 -94727.893 212876.601 -99765.438"/><path d="M 196289.069 -70869.096 196271.27 -92728.119 189204.467 -93469.879 189204.467 -92105.098 189183.105 -91843.189 189644.859 -91840.53 189528.35 -71589.176 189124.839 -71589.176 189168.868 -70014.673 196289.069 -70869.096"/><path d="M 188721.313 -91938.081 187636.718 -91943.189 187379.481 -91646.352 187187.953 -91350.996 186975 -91000 186788.643 -90724.479 186362.021 -90183.143 186006.322 -89671.493 185644.778 -89309.034 185425.625 -88965.272 185225 -88725 185232.421 -71466.009 188721.313 -71464.176 188721.313 -91938.081"/><path d="M 184484.794 -87915.09 183939.583 -87389.444 183450 -86875 183075 -86525 182782.436 -86313.099 182425.054 -86003.595 182375 -85950 182366.538 -72497.474 184484.794 -71637.666 184484.794 -87915.09"/><path d="M 181525 -72250 181529.914 -85300 181177.663 -85033.692 180864.02 -84813.243 180275 -84450 179766.253 -84106.879 179325.945 -83853.256 178975 -83675 178728.895 -83528.844 178506.82 -83426.497 178506.82 -69000 181525 -72250"/><path d="M 177800 -68600 177791.808 -83103.036 177372.617 -82936.65 176844.993 -82815.491 176552.698 -82718.661 176254.899 -82593.422 175905.46 -82492.843 175533.244 -82369.992 175142.116 -82277.938 174810.94 -82169.751 174393.579 -82098.497 173918.897 -82067.248 173705.018 -82045.708 173515.758 -82004.07 173301.599 -81992.717 173088.026 -82012.033 172876.367 -82012.657 172654.138 -82019.227 172191.342 -82046.923 171725 -82125 171310.988 -82162.57 170610.895 -82256.472 170279.99 -82325 170300 -68575 177800 -68600"/><path d="M 169545.72 -75793.257 169532.371 -82464.196 169274.914 -82531.791 169038.005 -82608.853 168512.456 -82783.748 168053.972 -82973.614 167585.804 -83163.19 167156.202 -83337.208 166838.415 -83555.407 166506.286 -83588.282 166456.286 -72457.789 167955.979 -70815.054 168969.527 -69660.673 169317.123 -69288.491 169532.371 -69100 169545.72 -75793.257"/><path d="M 132029.96 -67577.064 132017.57 -67709.241 131989.064 -67883.539 131938.002 -68093.754 131857.947 -68333.686 131742.46 -68597.131 131585.102 -68877.888 131488.709 -69022.82 131379.434 -69169.755 131256.472 -69317.916 131119.018 -69466.529 130966.267 -69614.818 130797.415 -69762.008 130611.657 -69907.323 130408.187 -70049.99 130186.201 -70189.231 129944.894 -70324.273 129683.462 -70454.339 129401.099 -70578.654 129097 -70696.444 128770.362 -70806.932 128420.378 -70909.344 128046.245 -71002.905 127755.813 -71061.886 127474.014 -71103.932 127200.886 -71130.029 126936.469 -71141.167 126680.799 -71138.332 126433.917 -71122.513 126195.861 -71094.698 125966.668 -71055.873 125746.377 -71007.028 125535.028 -70949.15 125332.658 -70883.227 125139.306 -70810.246 124955.011 -70731.196 124779.811 -70647.064 124613.744 -70558.838 124456.849 -70467.506 124309.164 -70374.057 124170.729 -70279.477 124041.581 -70184.755 123921.759 -70090.878 123710.247 -69909.612 123536.501 -69743.582 123400.829 -69600.691 123303.539 -69488.842 123225.337 -69389.879 124804.183 -68890.3 126197.266 -68479.013 126875.418 -68295.174 127476.812 -68149.559 128101.653 -68025.485 128819.103 -67903.401 129574.939 -67787.793 130314.941 -67683.146 131530.548 -67524.677 132032.146 -67463.88 132029.96 -67577.064 M 173522.664 -82204.502 174309.248 -82287.328 175082.267 -82421.166 175840.891 -82602.575 176584.293 -82828.114 177311.643 -83094.342 178022.113 -83397.816 178714.875 -83735.098 179389.1 -84102.744 180043.959 -84497.314 181292.265 -85353.463 182453.166 -86276.016 183520.032 -87237.443 184486.235 -88210.215 185345.146 -89166.804 186090.137 -90079.682 186714.579 -90921.318 187211.843 -91664.185 187575.301 -92280.753 187798.323 -92743.494 187874.282 -93024.879 187722.382 -93182.887 187519.308 -93363.373 187219.752 -93596.382 187031.044 -93729.036 186814.915 -93870.564 186570.266 -94019.548 186295.997 -94174.569 185991.008 -94334.209 185654.199 -94497.049 185284.469 -94661.67 184880.72 -94826.654 184441.852 -94990.582 183966.763 -95152.035 183454.355 -95309.595 182903.527 -95461.843 182313.18 -95607.36 181682.213 -95744.727 181009.527 -95872.527 180294.021 -95989.34 179534.597 -96093.748 178730.153 -96184.332 177879.59 -96259.673 176981.808 -96318.353 176035.707 -96358.952 175040.187 -96380.053 173994.149 -96380.237 172896.491 -96358.085 170845.348 -96254.525 168971.409 -96078.619 167268.483 -95839.323 165730.377 -95545.588 164350.901 -95206.368 163123.863 -94830.618 162043.071 -94427.288 161102.333 -94005.334 160295.459 -93573.709 159616.256 -93141.365 159058.533 -92717.257 158616.098 -92310.337 158282.76 -91929.558 158052.328 -91583.875 157918.608 -91282.24 157875.411 -91033.607 157897.242 -90928.218 157961.787 -90784.326 158213.349 -90392.014 158618.744 -89878.627 159166.624 -89266.119 159845.638 -88576.445 160644.434 -87831.559 161551.663 -87053.417 162555.973 -86263.972 163646.015 -85485.181 164219.638 -85106.641 164810.438 -84738.998 165416.995 -84384.995 166037.891 -84047.377 166671.707 -83728.888 167317.024 -83432.273 167972.423 -83160.277 168636.486 -82915.642 169307.794 -82701.114 169984.927 -82519.437 170666.467 -82373.356 171350.996 -82265.614 172037.094 -82198.957 172723.342 -82176.128 173522.664 -82204.502 M 189204.467 -92105.098 187485.358 -92108.276 M 189204.467 -93618.145 189204.467 -92105.098 M 196271.27 -92728.119 189204.467 -93618.145 M 196289.069 -70869.096 196271.27 -92728.119 M 189168.868 -70014.673 196289.069 -70869.096 M 189168.868 -71331.911 189168.868 -70014.673 M 184844.97 -71326.107 189168.868 -71331.911 M 182000.106 -72500.049 184844.97 -71326.107 M 178136.924 -68430.94 182000.106 -72500.049 M 169912.132 -68430.94 178136.924 -68430.94 M 166146.041 -72500.049 169912.132 -68430.94 M 150348.239 -72360.674 166146.041 -72500.049 M 141851.791 -91256.004 157892.749 -91185.188 M 141851.791 -93321.556 141851.791 -91256.004 M 136522.59 -93368.042 141851.791 -93321.556 M 133666.977 -84352.71 133925.819 -84377.225 134183.925 -84413.25 134440.291 -84459.611 134693.916 -84515.136 134943.799 -84578.654 135428.329 -84724.979 135885.868 -84889.206 136308.403 -85061.961 136687.918 -85233.865 137016.401 -85395.541 137488.214 -85650.702 137659.732 -85752.426 135019.141 -90514.152 134794.769 -90438.431 134212.433 -90210.306 133829.583 -90038.642 133408.308 -89828.336 132965.628 -89579.209 132518.566 -89291.079 132298.711 -89132.332 132084.144 -88963.768 131876.992 -88785.362 131679.383 -88597.094 131493.444 -88398.939 131321.304 -88190.877 131165.09 -87972.884 131026.93 -87744.938 130908.951 -87507.016 130813.282 -87259.095 130742.049 -87001.154 130697.381 -86733.17 130681.406 -86455.119 130696.251 -86166.981 130744.043 -85868.731 130826.911 -85560.348 130847.683 -85502.975 130872.176 -85447.568 130900.145 -85394.064 130931.348 -85342.401 130965.541 -85292.517 131002.481 -85244.35 131041.926 -85197.837 131083.631 -85152.916 131127.355 -85109.524 131172.852 -85067.6 131219.882 -85027.08 131268.199 -84987.902 131317.562 -84950.004 131367.727 -84913.324 131469.489 -84843.368 131689.892 -84711.558 131918.572 -84601.806 132154.529 -84512.941 132396.761 -84443.789 132644.265 -84393.178 132896.041 -84359.937 133151.085 -84342.894 133408.398 -84340.875 133666.977 -84352.71 M 144566.448 -71335.825 144996.944 -71380.442 145190.814 -71413.478 145368.34 -71453.481 145527.953 -71500.311 145668.082 -71553.829 144975.471 -76575.283 144089.411 -76477.884 143660.225 -76413.585 143181.199 -76328.742 142668.946 -76221.07 142140.079 -76088.288 141611.212 -75928.113 141098.958 -75738.261 140854.253 -75631.493 140619.932 -75516.45 140398.071 -75392.847 140190.747 -75260.398 140000.036 -75118.817 139828.016 -74967.821 139676.763 -74807.122 139548.353 -74636.436 139444.864 -74455.478 139368.372 -74263.961 139320.954 -74061.602 139304.687 -73848.114 139319.01 -73629.657 139360.932 -73422.06 139428.885 -73225.181 139521.298 -73038.883 139636.603 -72863.027 139773.229 -72697.472 139929.608 -72542.081 140104.17 -72396.715 140295.345 -72261.234 140501.565 -72135.499 140721.26 -72019.372 140952.859 -71912.713 141194.795 -71815.383 141445.498 -71727.244 141703.397 -71648.156 141966.924 -71577.98 142504.584 -71463.81 143045.922 -71383.622 143578.382 -71336.303 144089.409 -71320.741 144566.448 -71335.825 M 140160.499 -66974.917 142072.625 -67085.175 143785.03 -67271.029 145304.09 -67516.243 146636.181 -67804.58 147787.677 -68119.803 148764.956 -68445.675 149574.392 -68765.96 150222.361 -69064.421 151059.4 -69530.923 151327.079 -69715.29 151165.17 -70215.421 150638.336 -71642.786 150218.804 -72669.948 149684.92 -73887.838 149028.976 -75282.764 148243.264 -76841.033 147320.078 -78548.951 146251.71 -80392.825 145030.453 -82358.963 143648.6 -84433.67 142895.041 -85507.458 142098.443 -86603.254 141257.842 -87719.345 140372.276 -88854.021 139440.779 -90005.569 138462.39 -91172.279 137436.145 -92352.438 136361.079 -93544.334 134889.95 -93710.048 133167.46 -93847.946 132093.441 -93910.458 130890.507 -93960.986 129568.361 -93993.759 128136.705 -94003.007 126605.24 -93982.959 124983.669 -93927.844 123281.692 -93831.893 121509.013 -93689.336 119675.333 -93494.4 117790.353 -93241.317 116320.228 -92981.485 114957.566 -92663.011 113700.626 -92296.3 112547.668 -91891.757 111496.95 -91459.786 110546.733 -91010.791 109695.274 -90555.178 108940.834 -90103.35 108281.67 -89665.713 107716.044 -89252.67 106858.436 -88541.987 106189.062 -87873.558 106046.113 -87335.777 105956.049 -86791.722 105915.699 -86242.926 105921.892 -85690.918 105971.458 -85137.23 106061.227 -84583.392 106188.027 -84030.936 106348.689 -83481.393 106540.041 -82936.294 106758.914 -82397.169 107266.538 -81342.968 107846.197 -80331.038 108472.526 -79373.626 109120.162 -78482.981 109763.738 -77671.351 110377.893 -76950.983 110937.26 -76334.126 112119.575 -75146.766 112426.115 -74894.34 112805.897 -74600.462 113333.673 -74214.055 114007.18 -73749.554 114824.158 -73221.396 115782.345 -72644.017 116879.478 -72031.853 118113.298 -71399.34 118780.759 -71079.963 119481.542 -70760.913 120215.367 -70443.993 120981.949 -70131.008 121781.007 -69823.763 122612.258 -69524.063 123475.419 -69233.71 124370.207 -68954.511 125296.34 -68688.27 126253.534 -68436.79 127241.508 -68201.877 128259.979 -67985.336 129308.663 -67788.97 130387.279 -67614.584 133162.043 -67260.089 135711.584 -67046.138 138042.278 -66956.493 140160.499 -66974.917" fill="none" stroke-width="529.166"/><path d="M 165706.634 -83919.818 164896.816 -84443.053 163999.069 -85068.098 162874.562 -85909.649 162251.134 -86405.574 161599.647 -86948.376 160929.646 -87535.639 160250.673 -88164.945 159572.273 -88833.879 158903.99 -89540.024 158255.367 -90280.963 157635.947 -91054.279 141848.479 -91067.76 141809.589 -91124.919 141781.977 -91165.09 141772.255 -91178.952 141767.589 -91185.188 141762.923 -91192.051 141753.2 -91207.562 141725.589 -91252.739 141686.698 -91317.176 141646.247 -93063.102 137048.873 -93110.29 146186.706 -81019.264 165706.634 -80938.327 165706.634 -83919.818"/><path d="M 196173.807 -83024.353 196173.809 -83024.353" fill="none" stroke-width="100"/></g></g><g id="V7h9754Xg0ZDZ_S-ed2F_top_copper"><path d="M 186467.271 -54231.231 186468.381 -54231.411 208408.176 -58907.993 207830.983 -56960.9 207830.906 -56960.575 207830.665 -56959.758 207830.55 -56959.43 207396.817 -55480.704 207396.551 -55479.593 207396.5 -55479.322 207396.404 -55479.075 207396.041 -55477.991 207208.754 -54806.417 207208.505 -54805.315 207206.172 -54792.024 207205.85 -54791.092 207205.344 -54787.362 207205.274 -54787.367 207205.235 -54786.687 207204.596 -54783.048 207204.505 -54779.656 207206.834 -54760.465 207207.975 -54741.741 207209.123 -54737.379 207209.804 -54735.985 207209.99 -54734.45 207211.397 -54730.159 207220.602 -54713.835 207228.822 -54696.972 207231.553 -54693.381 207232.714 -54692.354 207233.476 -54691.003 207236.415 -54687.581 207251.177 -54676.014 207265.215 -54663.588 207269.11 -54661.316 207270.578 -54660.811 207271.796 -54659.856 207275.821 -54657.818 207293.889 -54652.779 207311.614 -54646.672 207316.08 -54646.063 207317.632 -54646.158 207317.636 -54646.157 207319.122 -54645.743 207323.625 -54645.401 207342.232 -54647.658 207361.541 -54648.835 207364.854 -54649.536 207368.323 -54650.823 207368.328 -54650.823 207368.982 -54650.983 207368.965 -54651.049 207372.531 -54652.219 207373.391 -54652.703 207373.4 -54652.708 207386.072 -54657.412 207387.089 -54657.848 211767.742 -56793.418 211768.726 -56793.959 211787.989 -56805.815 211790.585 -56807.997 211796.919 -56815.153 211796.922 -56815.155 211804.164 -56820.439 211807.222 -56823.76 211813.178 -56833.522 211813.182 -56833.526 211813.183 -56833.528 211820.769 -56842.1 211823.041 -56845.994 211825.172 -56852.18 211825.962 -56854.471 211825.966 -56854.479 211830.307 -56861.596 211831.631 -56864.722 211835.383 -56879.216 211835.613 -56880.328 212974.673 -64163.719 212974.793 -64164.848 212976.08 -64187.419 212975.774 -64190.801 212973.24 -64201.265 212973.24 -64201.267 212972.801 -64212.025 212972.166 -64215.361 212964.723 -64236.717 212964.297 -64237.769 210642.488 -69253.735 210641.961 -69254.742 210633.12 -69269.772 210633.119 -69269.772 210632.944 -69270.188 210631.418 -69272.786 210631.127 -69273.159 210630.494 -69274.235 210628.364 -69276.874 210612.968 -69291.062 210598.44 -69305.385 210595.642 -69307.226 210595.665 -69307.262 210593.906 -69308.377 210593.883 -69308.341 210591.025 -69310.085 210571.905 -69317.104 210553.02 -69324.77 210549.729 -69325.401 210549.737 -69325.443 210548.712 -69325.621 210548.711 -69325.621 210547.683 -69325.8 210547.675 -69325.759 210544.369 -69326.276 210524.028 -69325.445 210503.637 -69325.3 210500.362 -69324.623 210500.353 -69324.665 210498.316 -69324.209 210498.324 -69324.169 210495.067 -69323.381 210493.637 -69322.719 210476.571 -69314.819 210476.556 -69314.813 210476.546 -69314.808 210457.813 -69306.893 210455.041 -69305.011 210455.017 -69305.047 210453.31 -69303.846 210453.334 -69303.811 210450.628 -69301.839 210436.823 -69286.857 210422.517 -69272.348 210420.676 -69269.549 210420.64 -69269.572 210419.524 -69267.812 210419.559 -69267.789 210417.815 -69264.931 210410.796 -69245.811 210405.01 -69231.558 210404.17 -69226.725 210404.185 -69226.371 210402.599 -69209.004 210402.551 -69207.869 210403.209 -69115.392 210407.496 -68513.268 210384.745 -67738.844 210358.658 -67272.397 210319.51 -66762.697 210264.927 -66218.018 210192.517 -65646.174 210099.911 -65055.101 210001.345 -64539.461 209984.733 -64452.554 209984.731 -64452.544 209844.654 -63846.459 209677.126 -63243.839 209677.122 -63243.826 209675.604 -63239.059 209675.481 -63238.649 209674.579 -63235.404 209580.257 -62939.345 209478.045 -62646.561 209367.932 -62358.854 209274.609 -62136.63 186985.149 -57487.095 186985.148 -57487.095 178623.932 -66097.739 178618.825 -68441.564 178619.56 -68443.532 178619.412 -68443.587 178621.375 -68448.845 178621.372 -68450 178621.373 -68450.002 182019.763 -72352.328 182019.763 -72352.327 182019.765 -72352.329 184783.576 -71211.833 184784.609 -71211.465 184806.819 -71204.761 184809.041 -71204.321 184832.144 -71202.077 184833.248 -71202.024 189029.421 -71207.657 189029.421 -71207.656 189029.421 -70018.155 189029.477 -70017.021 189029.658 -70015.182 189031.693 -69994.518 189032.518 -69991.227 189034.789 -69985.746 189035.426 -69980.431 189036.826 -69976.147 189044.193 -69963.043 189049.944 -69949.157 189052.45 -69945.406 189056.234 -69941.623 189058.856 -69936.957 189061.79 -69933.533 189073.61 -69924.247 189084.24 -69913.616 189087.989 -69911.112 189092.934 -69909.064 189097.14 -69905.759 189101.157 -69903.719 189115.634 -69899.662 189129.518 -69893.91 189133.947 -69893.03 189139.292 -69893.03 189139.295 -69893.03 189145.015 -69891.426 189148.376 -69891.001 189170.988 -69891.482 189172.095 -69891.56 196291.192 -70745.85 196292.302 -70746.039 196298.778 -70747.47 196299.199 -70747.47 196303.621 -70748.353 196304.588 -70748.755 196314.388 -70750.922 196317.556 -70752.132 196323.347 -70755.387 196331.206 -70759.805 196331.212 -70759.808 196331.216 -70759.81 196345.139 -70765.591 196348.891 -70768.102 196352.632 -70771.85 196357.252 -70774.447 196360.68 -70777.385 196369.995 -70789.239 196370.002 -70789.248 196374.785 -70794.039 196380.651 -70799.914 196383.154 -70803.666 196385.178 -70808.563 196388.168 -70812.369 196390.21 -70816.394 196392.014 -70822.832 196392.02 -70822.847 196392.326 -70823.589 196392.771 -70824.88 196394.562 -70831.268 196394.565 -70831.278 196398.289 -70840.292 196399.111 -70843.583 196399.797 -70850.595 196400.081 -70851.61 196400.427 -70856.092 196400.376 -70856.52 196400.376 -70856.522 196401.019 -70863.113 196401.074 -70864.246 196383.276 -92722.139 196383.219 -92723.273 196382.639 -92729.109 196382.639 -92729.111 196382.668 -92729.339 196382.646 -92729.641 196382.648 -92729.761 196382.637 -92729.761 196382.348 -92733.836 196382.07 -92734.849 196380.985 -92745.77 196380.158 -92749.062 196374.325 -92763.112 196370.468 -92777.19 196368.451 -92781.225 196364.913 -92785.784 196362.697 -92791.119 196360.187 -92794.869 196349.845 -92805.194 196340.886 -92816.736 196337.476 -92819.693 196332.458 -92822.553 196332.454 -92822.556 196328.374 -92826.629 196324.62 -92829.133 196311.115 -92834.714 196297.912 -92842.239 196294.747 -92843.469 196284.053 -92845.899 196284.049 -92845.9 196283.078 -92846.301 196279.075 -92847.093 196279.077 -92847.105 196278.936 -92847.12 196278.647 -92847.178 196278.427 -92847.177 196278.422 -92847.178 196272.694 -92848.48 196271.576 -92848.677 189205.912 -93738.56 189204.78 -93738.647 189182.172 -93739.26 189178.801 -93738.853 189174.679 -93737.724 189172.718 -93737.187 189172.717 -93737.187 189166.999 -93737.187 189162.571 -93736.306 189154.766 -93733.073 189149.027 -93730.695 189134.884 -93726.821 189130.845 -93724.8 189128.419 -93722.916 189126.328 -93721.293 189126.325 -93721.291 189126.321 -93721.289 189121.043 -93719.104 189117.287 -93716.595 189106.919 -93706.226 189106.917 -93706.224 189095.338 -93697.237 189092.381 -93693.828 189089.548 -93688.855 189089.545 -93688.852 189089.544 -93688.85 189085.503 -93684.809 189082.994 -93681.054 189080.494 -93675.019 189077.386 -93667.514 189074.426 -93662.32 189072.031 -93658.118 189070.603 -93653.83 189070.53 -93653.25 189070.53 -93653.248 189068.99 -93649.532 189068.201 -93646.554 189067.983 -93644.813 189067.821 -93644.423 189066.995 -93641.129 189065.076 -93621.63 189065.02 -93620.496 189065.02 -92234.053 189062.473 -92227.914 189062.473 -92226.815 189062.472 -92226.814 187674.327 -92229.381 187674.933 -92230.61 187675.177 -92234.371 187899.549 -92689.774 187900 -92690.815 187904.244 -92702.1 187907.344 -92710.293 187907.693 -92711.373 187981.75 -92985.71 187981.992 -92986.818 187982.598 -92990.449 187982.801 -92991.129 187982.667 -92991.168 187983.382 -92994.426 187983.398 -92995.232 187985.717 -93009.125 187985.779 -93012.518 187984.007 -93026.176 187984.007 -93026.18 187984.266 -93039.377 187983.473 -93043.819 187980.848 -93050.53 187979.92 -93057.678 187978.477 -93061.954 187971.905 -93073.387 187971.903 -93073.39 187966.88 -93086.225 187965.192 -93089.171 187956.469 -93100.238 187956.461 -93100.249 187956.069 -93100.931 187953.885 -93103.436 187953.983 -93103.536 187953.473 -93104.04 187951.193 -93106.932 187950.448 -93107.786 187799.337 -93264.974 187798.512 -93265.753 187795.142 -93268.631 187792.138 -93271.881 187791.329 -93272.673 187589.107 -93452.403 187588.224 -93453.114 187585.308 -93455.233 187582.697 -93457.71 187581.839 -93458.448 187283.177 -93690.762 187282.248 -93691.414 187280.131 -93692.749 187280.128 -93692.751 187278.223 -93694.392 187277.329 -93695.088 187089.555 -93827.086 187088.599 -93827.691 187087.258 -93828.449 187087.257 -93828.45 187086.067 -93829.408 187085.151 -93830.074 186869.966 -93970.984 186868.989 -93971.557 186867.647 -93972.258 186867.64 -93972.262 186866.423 -93973.179 186865.484 -93973.815 186621.818 -94122.2 186620.823 -94122.742 186619.454 -94123.401 186619.45 -94123.403 186618.229 -94124.262 186617.271 -94124.868 186343.988 -94279.333 186342.976 -94279.841 186341.617 -94280.442 186341.61 -94280.445 186340.361 -94281.264 186339.389 -94281.834 186035.414 -94440.944 186034.384 -94441.421 186033.024 -94441.97 186031.773 -94442.735 186030.778 -94443.277 185695.002 -94605.618 185693.96 -94606.061 185692.6 -94606.56 185692.598 -94606.561 185691.35 -94607.272 185690.336 -94607.784 185321.653 -94771.939 185320.598 -94772.349 185319.256 -94772.795 185318.013 -94773.451 185316.991 -94773.929 184914.293 -94938.483 184913.222 -94938.861 184911.91 -94939.251 184911.908 -94939.252 184910.671 -94939.859 184909.63 -94940.307 184471.83 -95103.835 184470.756 -95104.178 184469.458 -95104.523 184468.24 -95105.075 184467.194 -95105.489 183993.167 -95266.581 183992.076 -95266.892 183990.825 -95267.184 183990.815 -95267.187 183989.614 -95267.69 183988.55 -95268.075 183477.23 -95425.301 183476.135 -95425.579 183475.692 -95425.669 183474.898 -95425.83 183473.721 -95426.284 183472.647 -95426.638 182922.915 -95578.583 182921.812 -95578.83 182920.62 -95579.036 182920.61 -95579.039 182919.465 -95579.444 182918.381 -95579.768 182329.128 -95725.016 182328.014 -95725.233 182326.857 -95725.4 182326.847 -95725.402 182325.729 -95725.763 182324.642 -95726.056 181694.789 -95863.181 181693.667 -95863.368 181692.549 -95863.498 181691.473 -95863.815 181690.367 -95864.082 181018.795 -95991.67 181017.674 -95991.826 181016.602 -95991.922 181016.594 -95991.923 181015.551 -95992.202 181014.437 -95992.441 180300.051 -96109.071 180298.925 -96109.198 180297.881 -96109.264 180296.873 -96109.506 180295.756 -96109.716 179537.461 -96213.968 179536.336 -96214.067 179535.341 -96214.105 179534.367 -96214.314 179533.245 -96214.496 178729.941 -96304.951 178728.811 -96305.023 178728.427 -96305.028 178728.415 -96305.029 178728.04 -96305.104 178726.918 -96305.269 178631.407 -96314.584 178618.011 -97020.377 178611.096 -97582.073 178611.477 -97763.027 178612.679 -97782.482 178613.525 -97784.386 178613.137 -97784.558 178615.107 -97788.989 178615.227 -97790.918 178615.229 -97790.92 186989.157 -106358.772 186989.159 -106358.773 209220.57 -101862.935 209289.623 -101735.035 209380.047 -101539.914 209549.751 -101092.038 209701.293 -100586.307 209835.629 -100034.996 209953.453 -99451.77 210055.634 -98850.099 210143.149 -98243.224 210216.921 -97645.002 210327.767 -96524.063 210396.35 -95594.546 210441.028 -94724.842 210441.139 -94723.75 210442.655 -94713.687 210442.62 -94712.71 210443.349 -94708.242 210443.56 -94707.678 210444.509 -94701.375 210445.502 -94698.128 210446.894 -94695.2 210453.1 -94682.156 210459.086 -94666.139 210461.46 -94662.306 210463.671 -94659.935 210465.064 -94657.005 210467.758 -94653.389 210480.45 -94641.938 210492.114 -94629.427 210495.776 -94626.791 210498.73 -94625.444 210501.135 -94623.274 210505.009 -94620.963 210521.111 -94615.242 210536.679 -94608.146 210541.069 -94607.112 210544.314 -94606.999 210547.368 -94605.913 210551.834 -94605.261 210568.908 -94606.138 210568.911 -94606.137 210568.913 -94606.138 210573.483 -94605.977 210585.994 -94605.54 210590.447 -94606.264 210593.488 -94607.401 210596.728 -94607.567 210601.098 -94608.672 210616.542 -94616.019 210632.558 -94622.005 210636.389 -94624.375 210638.765 -94626.589 210638.768 -94626.59 210638.769 -94626.591 210641.694 -94627.983 210645.313 -94630.68 210656.757 -94643.363 210656.775 -94643.382 210660.995 -94647.316 210669.7 -94655.432 210671.814 -94658.084 210675.012 -94663.595 210675.016 -94663.6 210675.43 -94664.059 210677.736 -94667.925 210678.065 -94668.85 210678.066 -94668.852 210678.068 -94668.857 210681.969 -94675.58 210683.164 -94677.64 210683.684 -94678.647 212979.481 -99715.167 212979.9 -99716.222 212984.706 -99730.274 212985.322 -99733.614 212985.631 -99742.449 212988.04 -99752.091 212988.371 -99755.47 212987.25 -99778.055 212987.138 -99779.185 211919.275 -106951.664 211919.053 -106952.778 211913.547 -106974.71 211912.246 -106977.846 211907.209 -106986.24 211904.24 -106994.957 211901.979 -106998.864 211894.581 -107007.282 211894.58 -107007.284 211888.815 -107016.891 211885.782 -107020.233 211878.391 -107025.709 211878.382 -107025.718 211871.922 -107033.069 211869.331 -107035.263 211850.109 -107047.19 211849.115 -107047.74 207435.621 -109218.892 207434.58 -109219.343 207422.079 -109224.034 207422.063 -109224.042 207421.202 -109224.533 207417.611 -109225.729 207417.627 -109225.79 207416.969 -109225.952 207413.404 -109227.29 207410.084 -109228.003 207390.865 -109229.243 207372.327 -109231.58 207367.824 -109231.26 207366.264 -109230.833 207366.261 -109230.832 207366.259 -109230.832 207366.256 -109230.832 207366.255 -109230.832 207364.644 -109230.936 207360.168 -109230.342 207342.522 -109224.332 207342.505 -109224.327 207342.499 -109224.325 207334.323 -109222.086 207324.472 -109219.388 207320.434 -109217.369 207319.154 -109216.375 207319.152 -109216.374 207317.613 -109215.85 207313.709 -109213.589 207299.686 -109201.265 207299.674 -109201.256 207284.926 -109189.811 207281.966 -109186.397 207281.166 -109184.994 207281.162 -109184.989 207279.948 -109183.923 207277.2 -109180.336 207268.948 -109163.561 207260.179 -109148.178 207258.684 -109143.191 207257.539 -109125.442 207257.539 -109125.435 207255.129 -109106.323 207255.203 -109102.926 207255.844 -109099.176 207255.844 -109099.171 207255.88 -109098.498 207255.942 -109098.501 207256.442 -109094.739 207256.762 -109093.801 207259.011 -109080.626 207259.252 -109079.539 208378.683 -104991.955 208378.682 -104991.955 208378.859 -104991.309 208376.229 -104984.432 208376.333 -104983.729 208376.135 -104983.52 186544.199 -109692.027 186543.078 -109692.212 186520.61 -109694.79 186517.216 -109694.677 186507.437 -109692.894 186507.429 -109692.893 186498.077 -109693.17 186493.625 -109692.42 186483.299 -109688.495 186483.285 -109688.492 186472.42 -109686.512 186468.22 -109684.851 186460.359 -109679.778 186451.063 -109676.246 186448.099 -109674.587 186430.197 -109660.759 186429.334 -109660.021 175571.862 -99425.514 175571.075 -99424.696 175556.22 -99407.648 175554.387 -99404.784 175553.64 -99403.119 175552.784 -99402.219 175550.372 -99398.402 175543.542 -99380.647 175543.534 -99380.626 175537.958 -99368.213 175537.437 -99366.588 175536.572 -99364.34 175535.83 -99361.023 175534.188 -99338.477 175534.161 -99337.341 175546.579 -98850.099 175606.482 -96499.511 175606.509 -96498.448 175603.911 -96492.109 175603.915 -96491.855 175603.935 -96491.076 175603.934 -96491.075 175028.062 -96501.503 175026.926 -96501.468 175026.358 -96501.422 175026.345 -96501.422 175025.788 -96501.478 175024.645 -96501.535 173979.742 -96501.718 173978.614 -96501.663 173977.882 -96501.591 173977.157 -96501.648 173976.025 -96501.681 172879.501 -96479.552 172878.369 -96479.473 172877.024 -96479.313 172877.018 -96479.312 172875.656 -96479.378 172874.52 -96479.376 170824.52 -96375.873 170823.391 -96375.761 170822.723 -96375.661 170821.235 -96375.438 170821.232 -96375.438 170819.048 -96375.448 170817.913 -96375.397 168945.119 -96199.598 168943.997 -96199.437 168941.672 -96198.986 168939.306 -96198.888 168938.176 -96198.785 167236.383 -95959.648 167235.265 -95959.435 167232.786 -95958.833 167230.234 -95958.602 167229.11 -95958.444 165692.117 -95664.922 165691.013 -95664.654 165688.358 -95663.87 165685.617 -95663.476 165684.503 -95663.259 164306.135 -95324.312 164305.051 -95323.988 164302.219 -95322.989 164302.218 -95322.988 164302.213 -95322.987 164299.279 -95322.396 164298.178 -95322.117 163072.224 -94946.699 163071.158 -94946.314 163068.159 -94945.063 163065.019 -94944.231 163063.937 -94943.887 161984.208 -94540.954 161983.164 -94540.504 161979.993 -94538.951 161979.98 -94538.945 161976.638 -94537.826 161975.579 -94537.412 161035.891 -94115.929 161034.879 -94115.414 161031.532 -94113.499 161031.512 -94113.488 161028.588 -94112.277 161027.964 -94112.019 161026.944 -94111.537 160502.063 -93830.76 160221.061 -93680.442 160220.088 -93679.858 160218.354 -93678.699 160216.563 -93677.501 160216.557 -93677.498 160216.551 -93677.494 160212.772 -93675.581 160211.785 -93675.019 159533.538 -93243.284 159532.611 -93242.627 159528.897 -93239.714 159524.868 -93237.233 159523.932 -93236.591 159011.834 -92847.178 158967.118 -92813.175 158966.252 -92812.447 158962.313 -92808.789 158958.014 -92805.552 158957.142 -92804.825 158881.059 -92734.849 158515.544 -92398.674 158514.755 -92397.873 158510.57 -92393.186 158510.565 -92393.181 158510.555 -92393.17 158505.954 -92388.854 158505.174 -92388.046 158366.277 -92229.381 158172.577 -92008.114 158171.878 -92007.23 158167.372 -92000.93 158167.368 -92000.924 158162.455 -91994.925 158161.779 -91994.012 157931.975 -91649.272 157931.39 -91648.291 157931.221 -91647.973 157931.219 -91647.971 157931.214 -91647.961 157930.293 -91646.477 157925.513 -91637.267 157925.483 -91637.21 157920.564 -91627.985 157919.864 -91626.387 157919.692 -91626.057 157919.214 -91625.016 157791.945 -91307.05 157791.944 -91307.05 157791.944 -91307.049 141963.797 -91376.925 141963.797 -93315.472 141963.741 -93316.606 141961.531 -93339.054 141961.452 -93339.046 141960.704 -93342.39 141952.129 -93363.094 141943.676 -93384.012 141941.129 -93387.859 141925.334 -93403.654 141909.528 -93419.738 141905.703 -93422.318 141884.956 -93430.912 141864.231 -93439.708 141860.901 -93440.523 141860.906 -93440.565 141838.473 -93442.971 141837.34 -93443.037 136563.93 -93489.037 136440.108 -93624.19 136439.302 -93624.988 136430.103 -93633.237 136430.101 -93633.238 136429.452 -93634.053 136426.374 -93636.651 136426.386 -93636.668 136426.19 -93636.807 136426.008 -93636.961 136425.853 -93637.046 136425.852 -93637.047 136422.467 -93640.082 136419.634 -93641.953 136402.61 -93649.894 136402.579 -93649.909 136386.149 -93658.989 136382.97 -93660.178 136378.529 -93661.126 136378.523 -93661.128 136378.362 -93661.204 136378.129 -93661.26 136377.908 -93661.335 136377.901 -93661.316 136373.985 -93662.274 136372.935 -93662.32 136360.851 -93664.9 136359.73 -93665.082 134889.741 -93830.667 134888.611 -93830.739 134887.147 -93830.759 134887.115 -93830.76 134885.646 -93831.024 134884.524 -93831.17 133163.17 -93968.977 133162.036 -93969.012 133161.222 -93968.997 133161.219 -93968.997 133161.213 -93968.997 133161.207 -93968.997 133161.206 -93968.998 133160.403 -93969.125 133159.273 -93969.246 132086.401 -94031.691 132085.258 -94031.701 132084.802 -94031.682 132084.801 -94031.682 132084.337 -94031.748 132083.208 -94031.851 130881.409 -94082.332 130880.267 -94082.323 130879.749 -94082.293 130879.748 -94082.293 130879.22 -94082.359 130878.086 -94082.443 129557.091 -94115.187 129555.96 -94115.16 129555.356 -94115.115 129555.334 -94115.116 129554.743 -94115.178 129553.615 -94115.241 128123.098 -94124.482 128121.964 -94124.433 128121.292 -94124.371 128121.29 -94124.371 128121.289 -94124.371 128120.823 -94124.411 128120.616 -94124.429 128119.477 -94124.47 126589.156 -94104.437 126588.02 -94104.366 126587.27 -94104.282 126587.257 -94104.281 126586.492 -94104.331 126585.357 -94104.348 124964.935 -94049.272 124963.808 -94049.179 124963.339 -94049.116 124962.95 -94049.065 124962.948 -94049.065 124962.94 -94049.064 124962.087 -94049.1 124960.959 -94049.092 123260.117 -93953.205 123258.986 -93953.085 123258.04 -93952.937 123257.088 -93952.955 123255.952 -93952.92 121484.401 -93810.454 121483.274 -93810.307 121482.229 -93810.118 121481.156 -93810.11 121480.022 -93810.045 119647.483 -93615.23 119646.365 -93615.056 119645.196 -93614.814 119645.197 -93614.814 119643.999 -93614.772 119642.871 -93614.676 117759.022 -93361.745 117757.902 -93361.538 117755.889 -93361.062 117753.819 -93360.904 117752.69 -93360.761 116283.697 -93101.129 116282.59 -93100.877 116279.78 -93100.09 116279.771 -93100.088 116278.409 -93099.908 116276.888 -93099.707 116275.776 -93099.504 114914.221 -92781.289 114913.133 -92780.977 114911.707 -92780.492 114910.401 -92780.048 114907.562 -92779.515 114906.458 -92779.251 113650.611 -92412.858 113649.54 -92412.488 113647.488 -92411.664 113646.899 -92411.427 113646.897 -92411.426 113646.891 -92411.424 113644.13 -92410.751 113643.041 -92410.428 112491.161 -92006.263 112490.107 -92005.834 112487.593 -92004.663 112484.931 -92003.864 112483.862 -92003.485 112097.071 -91844.468 111434.19 -91571.944 111433.163 -91571.461 111430.778 -91570.194 111428.233 -91569.285 111427.184 -91568.851 110477.992 -91120.34 110476.987 -91119.803 110474.762 -91118.47 110474.763 -91118.47 110474.759 -91118.468 110472.345 -91117.467 110471.318 -91116.981 109620.862 -90661.904 109619.887 -90661.319 109617.807 -90659.927 109615.54 -90658.856 109614.54 -90658.322 108861.072 -90207.077 108860.133 -90206.45 108858.209 -90205.023 108858.205 -90205.021 108858.204 -90205.02 108856.088 -90203.897 108855.113 -90203.316 108196.912 -89766.319 108195.997 -89765.645 108194.23 -89764.203 108192.266 -89763.046 108191.316 -89762.421 107979.078 -89607.436 107626.606 -89350.048 107625.739 -89349.348 107623.242 -89347.117 107623.241 -89347.116 107620.481 -89345.253 107619.574 -89344.573 106762.849 -88634.622 106762.012 -88633.856 106758.27 -88630.079 106758.268 -88630.077 106758.26 -88630.069 106758.254 -88630.064 106754.141 -88626.693 106753.465 -88626.081 136174.5 -88626.081 136174.5 -88773.918 136203.342 -88918.915 136203.343 -88918.917 136244.654 -89018.65 136259.916 -89055.495 136342.049 -89178.416 136446.584 -89282.951 136569.505 -89365.084 136686.081 -89413.371 136706.082 -89421.656 136706.084 -89421.657 136706.085 -89421.657 136706.087 -89421.658 136851.082 -89450.5 136851.083 -89450.5 136998.917 -89450.5 136998.918 -89450.5 137143.913 -89421.658 137280.495 -89365.084 137403.416 -89282.951 137507.951 -89178.416 137590.084 -89055.495 137646.658 -88918.913 137675.5 -88773.918 137675.5 -88626.082 137646.658 -88481.087 137590.084 -88344.505 137507.951 -88221.584 137403.416 -88117.049 137280.495 -88034.916 137280.493 -88034.915 137143.917 -87978.343 137143.915 -87978.342 136998.918 -87949.5 136851.082 -87949.5 136851.081 -87949.5 136706.084 -87978.342 136706.082 -87978.343 136569.507 -88034.915 136569.505 -88034.916 136446.584 -88117.049 136446.58 -88117.052 136342.052 -88221.58 136342.049 -88221.584 136259.915 -88344.507 136203.343 -88481.082 136203.342 -88481.084 136174.5 -88626.081 106753.465 -88626.081 106753.3 -88625.932 106084.729 -87958.305 106083.971 -87957.471 106069.607 -87939.995 106067.863 -87937.087 106065.244 -87930.775 106061.092 -87925.342 106059.452 -87922.376 106052.58 -87904.008 106052.241 -87902.95 105911.071 -87371.859 105910.835 -87370.749 105909.95 -87365.318 105909.949 -87365.311 105908.516 -87359.978 105908.278 -87358.875 105818.399 -86815.939 105818.269 -86814.809 105817.928 -86809.634 105817.928 -86809.627 105817.04 -86804.506 105816.902 -86803.384 105776.635 -86255.717 105776.608 -86254.579 105776.728 -86249.778 105776.308 -86244.976 105776.266 -86243.846 105776.288 -86241.893 105782.446 -85692.973 105782.513 -85691.863 105782.996 -85687.474 105782.956 -85683.073 105783.002 -85681.939 105832.466 -85129.389 105832.621 -85128.274 105833.364 -85124.361 105833.612 -85120.379 105833.736 -85119.275 105923.325 -84566.544 105923.563 -84565.435 105924.472 -84562.005 105924.472 -84562.001 105924.475 -84561.992 105924.928 -84558.452 105925.125 -84557.349 106051.674 -84005.982 106051.975 -84004.915 106052.991 -84001.892 106053.578 -83998.769 106053.839 -83997.681 106214.185 -83449.217 106214.552 -83448.155 106215.609 -83445.533 106216.278 -83442.788 106216.595 -83441.719 106407.578 -82897.67 106408.003 -82896.63 106409.05 -82894.38 106409.056 -82894.368 106409.761 -82891.98 106410.131 -82890.922 106628.585 -82352.83 106629.052 -82351.823 106630.662 -82348.761 106631.847 -82345.52 106632.284 -82344.484 107139.425 -81291.284 107139.949 -81290.321 107142.028 -81286.907 107143.66 -81283.269 107144.168 -81282.272 107302.46 -81005.937 146180.072 -81005.937 165700 -80925 165700 -72698.426 150520.438 -72617.444 149696.572 -74429.092 149696.493 -74429.262 149247.557 -75375.433 149247.478 -75375.596 148758.775 -76365.226 148758.681 -76365.411 148218.953 -77410.776 148218.85 -77410.971 147616.768 -78524.493 147616.66 -78524.689 146940.922 -79718.737 146940.813 -79718.926 146180.072 -81005.937 107302.46 -81005.937 107723.269 -80271.318 107723.87 -80270.377 107725.733 -80267.761 107727.215 -80264.92 107727.773 -80263.967 108353.504 -79307.469 108354.143 -79306.591 108355.772 -79304.567 108357.087 -79302.324 108357.686 -79301.408 109004.666 -78411.666 109005.375 -78410.786 109006.765 -78409.223 109007.895 -78407.468 109008.557 -78406.544 109651.433 -77595.796 109652.18 -77594.946 109653.348 -77593.738 109653.347 -77593.738 109653.353 -77593.733 109654.333 -77592.323 109654.999 -77591.459 110268.447 -76871.921 110269.196 -76871.124 110270.205 -76870.153 110271.034 -76869.035 110271.743 -76868.172 110830.364 -76252.138 110831.138 -76251.364 110832.937 -76249.735 110834.468 -76247.861 110835.215 -76247.034 112016.737 -75060.47 112017.571 -75059.712 112021.968 -75056.088 112021.969 -75056.086 112021.975 -75056.082 112026.012 -75052.03 112026.814 -75051.301 112332.507 -74799.572 112333.407 -74798.903 112334.539 -74798.145 112335.546 -74797.193 112336.384 -74796.476 112715.286 -74503.279 112716.203 -74502.639 112717.164 -74502.037 112718.013 -74501.276 112718.865 -74500.585 113059.652 -74251.081 145399.5 -74251.081 145399.5 -74398.918 145428.342 -74543.915 145428.343 -74543.917 145469.654 -74643.65 145484.916 -74680.495 145567.049 -74803.416 145671.584 -74907.951 145794.505 -74990.084 145911.081 -75038.371 145931.082 -75046.656 145931.084 -75046.657 145931.085 -75046.657 145931.087 -75046.658 146076.082 -75075.5 146076.083 -75075.5 146223.917 -75075.5 146223.918 -75075.5 146368.913 -75046.658 146505.495 -74990.084 146628.416 -74907.951 146732.951 -74803.416 146815.084 -74680.495 146871.658 -74543.913 146900.5 -74398.918 146900.5 -74251.082 146871.658 -74106.087 146815.084 -73969.505 146732.951 -73846.584 146628.416 -73742.049 146505.495 -73659.916 146505.493 -73659.915 146368.917 -73603.343 146368.915 -73603.342 146223.918 -73574.5 146076.082 -73574.5 146076.081 -73574.5 145931.084 -73603.342 145931.082 -73603.343 145794.507 -73659.915 145794.505 -73659.916 145671.584 -73742.049 145671.58 -73742.052 145567.052 -73846.58 145567.049 -73846.584 145484.915 -73969.507 145428.343 -74106.082 145428.342 -74106.084 145399.5 -74251.081 113059.652 -74251.081 113245.748 -74114.833 113246.686 -74114.214 113247.75 -74113.586 113248.696 -74112.785 113249.57 -74112.116 113922.175 -73648.236 113923.124 -73647.649 113924.295 -73647.001 113925.339 -73646.17 113926.25 -73645.515 114742.305 -73117.954 114743.253 -73117.405 114744.551 -73116.737 114745.728 -73115.859 114746.633 -73115.252 115703.87 -72538.445 115704.846 -72537.92 115706.271 -72537.242 115707.568 -72536.341 115708.49 -72535.765 116804.665 -71924.136 116805.668 -71923.64 116807.205 -71922.971 116808.616 -71922.062 116809.583 -71921.504 118042.421 -71289.494 118043.45 -71289.031 118043.572 -71288.982 118044.537 -71288.602 118045.564 -71287.98 118046.539 -71287.454 118713.001 -70968.556 118714.011 -70968.132 118714.635 -70967.906 118715.203 -70967.576 118716.186 -70967.068 119415.971 -70648.472 119416.996 -70648.065 119417.651 -70647.842 119418.246 -70647.512 119419.247 -70647.019 120152.063 -70330.535 120153.093 -70330.149 120153.786 -70329.928 120154.417 -70329.594 120155.43 -70329.121 120920.979 -70016.559 120922.033 -70016.188 120922.752 -70015.974 120923.417 -70015.639 120924.449 -70015.183 121722.459 -69708.341 121723.527 -69707.99 121724.269 -69707.785 121724.268 -69707.785 121724.273 -69707.784 121724.985 -69707.445 121726 -69707.022 122376.63 -69472.443 123508.594 -69472.443 123508.594 -69472.444 123584.352 -69560.11 123675.393 -69655.841 123678.383 -69658.985 123809.224 -69785.009 123809.235 -69785.019 123809.242 -69785.025 123809.243 -69785.026 123976.495 -69931.1 123976.503 -69931.106 123976.514 -69931.115 124179.686 -70090.063 124294.629 -70172.152 124418.372 -70254.775 124550.893 -70337.061 124692.121 -70418.106 124751.923 -70449.592 124841.985 -70497.011 125000.451 -70572.894 125167.454 -70644.859 125339.268 -70710.608 125342.953 -70712.019 125444.771 -70746.039 125526.853 -70773.465 125649.883 -70808.563 125719.136 -70828.32 125769.838 -70840.292 125919.735 -70875.687 126128.592 -70914.673 126345.652 -70944.386 126570.859 -70963.932 126570.879 -70963.932 126570.884 -70963.933 126601.446 -70965.044 126804.157 -70972.42 127031.409 -70969.158 127045.496 -70968.956 127165.078 -70961.134 127294.804 -70952.649 127552.04 -70922.605 127817.144 -70877.932 127817.146 -70877.931 127817.155 -70877.93 128090.052 -70817.739 128095.122 -70816.394 128432.217 -70726.953 128753.003 -70629.152 129053.107 -70524.983 129333.22 -70415.095 129594.029 -70300.137 129836.224 -70180.758 130060.495 -70057.608 130060.505 -70057.601 130060.512 -70057.598 130169.333 -69991.227 130267.53 -69931.336 130458.018 -69802.591 130632.649 -69672.022 130792.112 -69540.279 130937.095 -69408.01 131068.289 -69275.865 131186.381 -69144.493 131292.062 -69014.543 131386.02 -68886.665 131541.526 -68639.719 131658.41 -68408.849 131742.187 -68199.249 131798.368 -68016.111 131832.469 -67864.631 131832.544 -67864.144 131834.95 -67848.403 131850 -67750 131857.41 -67652.063 131857.409 -67652.063 131383.911 -67710.105 130235.973 -67861.1 130235.913 -67861.109 129850.187 -67916.011 129536.617 -67960.644 128822.002 -68070.407 128143.001 -68186.087 127550.773 -68303.337 126983.697 -68439.816 126341.193 -68612.722 125015.904 -69000.526 123508.594 -69472.443 122376.63 -69472.443 122556.218 -69407.694 122557.273 -69407.371 122558.07 -69407.17 122558.823 -69406.831 122559.843 -69406.431 123421.958 -69116.43 123423.023 -69116.129 123423.85 -69115.939 123424.633 -69115.607 123425.658 -69115.231 124319.395 -68836.36 124320.491 -68836.077 124320.654 -68836.043 124321.335 -68835.902 124322.156 -68835.575 124323.204 -68835.217 125248.267 -68569.285 125249.352 -68569.029 125250.243 -68568.866 125251.09 -68568.551 125252.156 -68568.214 126208.279 -68317.015 126209.362 -68316.787 126210.299 -68316.637 126211.179 -68316.334 126212.257 -68316.021 127199.143 -68081.367 127200.235 -68081.163 127201.195 -68081.033 127202.114 -68080.74 127203.205 -68080.452 128220.581 -67864.144 128221.677 -67863.967 128222.667 -67863.857 128223.624 -67863.578 128224.705 -67863.32 129272.283 -67667.161 129273.401 -67667.008 129273.763 -67666.976 129274.415 -67666.919 129275.393 -67666.661 129276.495 -67666.426 130354.012 -67492.217 130355.114 -67492.094 130356.676 -67491.997 130358.202 -67491.647 130359.271 -67491.456 133132.951 -67137.1 133134.068 -67137.013 133136.262 -67136.95 133138.432 -67136.55 133139.537 -67136.403 135687.964 -66922.546 135689.059 -66922.507 135691.4 -66922.541 135691.407 -66922.54 135691.408 -66922.54 135692.226 -66922.427 135693.704 -66922.224 135694.814 -66922.127 138024.398 -66832.525 138025.497 -66832.536 138027.946 -66832.683 138030.389 -66832.463 138031.481 -66832.419 140148.593 -66850.834 140149.722 -66850.899 140152.253 -66851.171 140152.254 -66851.17 140152.255 -66851.171 140154.795 -66851.068 140155.915 -66851.076 142066.93 -66961.27 142068.044 -66961.39 142070.661 -66961.801 142073.316 -66961.827 142074.439 -66961.893 143785.728 -67147.626 143786.826 -67147.8 143789.524 -67148.364 143792.261 -67148.534 143793.385 -67148.659 145311.332 -67393.694 145312.425 -67393.926 145315.155 -67394.647 145317.962 -67394.971 145319.053 -67395.152 146650.048 -67683.252 146651.133 -67683.542 146653.875 -67684.425 146656.725 -67684.911 146657.806 -67685.151 147808.215 -68000.077 147809.28 -68000.424 147812.011 -68001.469 147814.851 -68002.115 147815.927 -68002.415 148792.164 -68327.94 148793.19 -68328.339 148795.879 -68329.54 148795.886 -68329.542 148798.69 -68330.345 148799.765 -68330.71 149402.31 -68569.131 149608.139 -68650.575 149609.171 -68651.042 149611.773 -68652.38 149611.779 -68652.382 149614.535 -68653.337 149615.581 -68653.757 150262.545 -68951.755 150263.535 -68952.272 150267.26 -68954.453 150269.793 -68955.555 150271.223 -68956.178 150272.238 -68956.68 151108.286 -69422.63 151109.248 -69423.229 151113.728 -69426.337 151113.731 -69426.338 151113.731 -69426.339 151118.499 -69428.976 151119.462 -69429.572 151386.203 -69613.293 151387.105 -69613.982 151404.379 -69628.571 151406.623 -69631.118 151409.267 -69635.198 151409.27 -69635.201 151412.531 -69637.981 151415.33 -69641.523 151422.644 -69655.841 151430.653 -69668.2 151431.248 -69669.231 151432.067 -69670.835 151433.141 -69673.997 151433.831 -69677.734 151434.101 -69678.529 151433.948 -69678.58 151434.789 -69681.547 151435.74 -69693.472 151435.742 -69693.487 151435.743 -69693.493 151438.234 -69707.014 151438.655 -69709.3 151438.591 -69713.81 151437.698 -69717.996 151437.697 -69718.001 151438.084 -69722.851 151437.855 -69726.239 151433.03 -69748.339 151432.733 -69749.434 151271.177 -70248.476 151270.775 -70249.538 151269.976 -70251.368 151269.971 -70251.383 151269.462 -70253.331 151269.123 -70254.409 150742.682 -71680.707 150742.243 -71681.74 150741.639 -71682.987 150741.249 -71684.312 150740.878 -71685.376 150520.876 -72229.804 150520.876 -72229.806 150520.877 -72229.806 150521.187 -72230.269 150522.496 -72236.855 150523.422 -72238.24 150523.423 -72238.24 150523.423 -72238.241 166078.544 -72375.475 169806.092 -68348.009 169806.9 -68347.219 169823.816 -68332.205 169826.655 -68330.349 169827.365 -68330.023 169827.496 -68329.891 169831.248 -68327.381 169849.795 -68319.699 169868.028 -68311.307 169872.413 -68310.258 169872.605 -68310.251 169873.325 -68309.952 169876.613 -68309.129 169899.116 -68306.912 169900.25 -68306.857 175600.108 -68306.857 175568.34 -64566.408 175568.385 -64565.308 175570.411 -64542.764 175571.209 -64539.466 175571.391 -64539.018 175571.391 -64539.014 175571.392 -64539.012 175571.604 -64537.996 175571.641 -64538.003 175572.38 -64534.719 175580.647 -64516.125 175588.276 -64497.252 175590.126 -64494.432 175590.096 -64494.412 175590.68 -64493.553 175590.68 -64493.551 175590.682 -64493.55 175590.879 -64493.106 175592.696 -64490.242 175607.498 -64473.12 175608.251 -64472.329 186353.474 -54263.817 186354.331 -54263.081 186372.17 -54249.19 186375.127 -54247.519 186384.5 -54243.915 186392.433 -54238.769 186396.625 -54237.099 186407.402 -54235.109 186417.63 -54231.176 186422.078 -54230.41 186431.526 -54230.652 186431.53 -54230.652 186441.403 -54228.827 186444.793 -54228.707 186467.271 -54231.231"/></g><g id="V7h9754Xg0ZDZ_S-ed2F_top_soldermask"><path d="M 165700.178 -72689.468 165700.76 -72690.053 165700.76 -80917.453 165700.177 -80918.038 146179.254 -80998.979 146178.675 -80997.969 146939.76 -79710.376 147615.586 -78516.173 148217.782 -77402.44 148757.613 -76356.875 149246.384 -75367.108 149695.391 -74420.788 150519.41 -72608.801 150519.908 -72608.482 165700.178 -72689.468"/><path d="M 131858.443 -67651.666 131850.996 -67750.094 131850.991 -67750.132 131833.455 -67864.799 131833.448 -67864.834 131799.339 -68016.349 131799.33 -68016.386 131743.137 -68199.562 131743.123 -68199.601 131659.33 -68409.241 131659.312 -68409.281 131542.408 -68640.192 131542.385 -68640.232 131386.857 -68887.213 131386.836 -68887.243 131292.861 -69015.145 131292.846 -69015.164 131187.149 -69145.134 131187.133 -69145.152 131069.024 -69276.543 131069.007 -69276.561 130937.796 -69408.723 130937.778 -69408.74 130792.777 -69541.026 130792.758 -69541.042 130633.277 -69672.801 130633.258 -69672.816 130458.607 -69803.399 130458.588 -69803.413 130268.08 -69932.171 130268.061 -69932.184 130061.006 -70058.468 130060.986 -70058.479 129836.686 -70181.645 129594.452 -70301.043 129333.604 -70416.018 129053.454 -70525.921 128753.313 -70630.103 128432.491 -70727.915 128090.296 -70818.709 127817.347 -70878.911 127817.323 -70878.916 127552.194 -70923.593 127552.169 -70923.597 127294.907 -70953.644 127294.882 -70953.646 127045.544 -70969.955 127045.518 -70969.956 126804.159 -70973.42 126804.133 -70973.42 126570.81 -70964.931 126570.785 -70964.929 126345.553 -70945.381 126345.529 -70945.378 126128.444 -70915.662 126128.42 -70915.658 125919.54 -70876.668 125919.517 -70876.663 125718.896 -70829.291 125718.874 -70829.285 125526.557 -70774.421 125342.603 -70712.956 125167.077 -70645.786 125000.037 -70573.805 124841.536 -70497.905 124691.632 -70418.978 124550.38 -70337.92 124417.836 -70255.62 124294.057 -70172.972 124179.09 -70090.866 123975.868 -69931.879 123975.847 -69931.862 123808.576 -69785.771 123808.558 -69785.755 123677.67 -69659.687 123583.619 -69560.791 123583.603 -69560.773 123507.484 -69472.689 123507.78 -69471.651 125015.615 -68999.57 126340.913 -68611.763 126983.479 -68438.841 127550.563 -68302.36 128142.821 -68185.103 128821.825 -68069.423 129536.503 -67959.651 130235.777 -67860.118 131383.805 -67709.111 131857.758 -67651.013 131858.443 -67651.666"/><path d="M 170280.426 -68694.497 170280.99 -68695.079 170280.99 -82176.472 170280.567 -82177.014 169532.141 -82365.285 169531.371 -82364.684 169531.371 -69222.133 169531.504 -69221.787 170013.418 -68686.354 170013.825 -68686.181 170280.426 -68694.497"/><path d="M 178033.307 -68690.503 178507.683 -69205.187 178507.82 -69205.538 178507.82 -83352.051 178506.88 -83352.639 177791.112 -83003.809 177790.808 -83003.323 177790.808 -68690.921 177791.394 -68690.335 178032.924 -68690.335 178033.307 -68690.503"/><path d="M 181866.291 -72735.05 181990.152 -72768.081 182366.668 -72622.276 182367.538 -72622.872 182367.538 -85866.008 182366.405 -85866.553 181529.112 -85198.137 181528.914 -85197.726 181528.914 -72390.963 181530.16 -72390.456 181866.291 -72735.05"/><path d="M 185233.421 -71588.76 185233.421 -88637.541 185232.143 -88638.036 184483.929 -87815.625 184483.794 -87815.277 184483.794 -71762.363 184484.13 -71761.859 184894.701 -71590.768 184894.891 -71590.729 185232.83 -71588.173 185233.421 -71588.76"/><path d="M 166507.286 -72507.114 166507.286 -83513.564 166506.991 -83514.045 165706.588 -83920.963 165705.634 -83920.378 165705.634 -72711.339 165706.22 -72710.753 166309.137 -72710.753 166506.035 -72506.609 166507.286 -72507.114"/><path d="M 189529.348 -71588.758 189645.883 -91843.599 189645.297 -91844.189 189438.998 -91844.189 188720.894 -91839.078 188720.313 -91838.493 188720.313 -71588.762 188720.899 -71588.176 189528.763 -71588.176 189529.348 -71588.758"/></g><g id="V7h9754Xg0ZDZ_S-ed2F_top_drill1"><use xlink:href="#j-PeOs4rJLMeKvclLdcO_pad-1" x="136925" y="-88700"/><use xlink:href="#j-PeOs4rJLMeKvclLdcO_pad-1" x="146150" y="-74325"/></g><clipPath id="V7h9754Xg0ZDZ_S-ed2F_top_outline"><path d="M 186467.832 -54231.294 208408.176 -58907.993 207830.82 -56960.348 207830.786 -56960.167 207830.717 -56959.998 207396.658 -55480.16 207396.5 -55479.322 207396.192 -55478.53 207208.604 -54805.877 207206.172 -54792.024 207205.099 -54788.91 207205.235 -54786.685 207204.299 -54781.356 207206.834 -54760.465 207208.115 -54739.449 207209.804 -54735.985 207210.267 -54732.164 207220.602 -54713.835 207229.829 -54694.908 207232.714 -54692.354 207234.606 -54688.999 207251.177 -54676.014 207266.936 -54662.066 207270.578 -54660.811 207273.61 -54658.435 207293.889 -54652.779 207313.787 -54645.924 207317.632 -54646.158 207321.341 -54645.124 207342.232 -54647.658 207363.248 -54648.94 207368.323 -54650.823 207370.533 -54651.092 207373.4 -54652.708 207386.588 -54657.604 211768.248 -56793.665 211789.45 -56806.715 211796.919 -56815.153 211806.024 -56821.796 211813.183 -56833.528 211822.292 -56843.821 211825.964 -56854.476 211831.833 -56864.097 211838.072 -56888.199 212977.308 -64172.714 212978.725 -64197.569 212975.788 -64209.701 212975.278 -64222.176 212967.085 -64245.685 210644.796 -69262.687 210635.666 -69278.21 210634.636 -69280.646 210633.676 -69281.592 210632.174 -69284.146 210615.503 -69299.509 210599.348 -69315.436 210597.333 -69316.254 210595.734 -69317.727 210574.452 -69325.54 210553.433 -69334.072 210551.259 -69334.056 210549.217 -69334.806 210526.556 -69333.88 210503.882 -69333.719 210501.88 -69332.872 210499.705 -69332.784 210479.118 -69323.254 210458.237 -69314.431 210456.711 -69312.882 210454.737 -69311.969 210439.374 -69295.297 210423.447 -69279.143 210422.629 -69277.127 210421.156 -69275.529 210413.343 -69254.246 210404.811 -69233.228 210404.542 -69230.277 210404.077 -69229.012 210404.185 -69226.371 210402.547 -69208.435 210407.496 -68513.268 210384.745 -67738.844 210358.658 -67272.397 210319.51 -66762.697 210264.927 -66218.018 210192.517 -65646.174 210099.911 -65055.101 209984.731 -64452.544 209844.654 -63846.459 209677.126 -63243.839 209582.804 -62947.78 209480.592 -62654.996 209370.479 -62367.289 209277.156 -62145.065 186987.696 -57495.53 178626.479 -66106.174 178621.373 -68450 182019.765 -72352.329 184784.079 -71211.626 184807.912 -71204.431 184807.914 -71204.431 184832.693 -71202.024 189029.421 -71207.657 189029.421 -70017.59 189031.861 -69992.814 189034.789 -69985.746 189035.7 -69978.15 189044.193 -69963.043 189050.824 -69947.033 189056.234 -69941.623 189059.983 -69934.954 189073.61 -69924.247 189085.864 -69911.993 189092.934 -69909.064 189098.948 -69904.339 189115.634 -69899.662 189131.645 -69893.03 189139.295 -69893.03 189146.662 -69890.965 189171.552 -69891.495 196291.753 -70745.918 196298.778 -70747.47 196301.499 -70747.473 196304.588 -70748.755 196316.062 -70751.292 196331.216 -70759.81 196347.265 -70766.474 196352.633 -70771.85 196359.258 -70775.575 196369.998 -70789.243 196382.276 -70801.542 196385.179 -70808.564 196389.873 -70814.54 196394.565 -70831.277 196401.202 -70847.339 196402.345 -70859.032 196403.247 -70862.254 196402.923 -70864.956 196403.622 -70872.117 196385.823 -92731.139 196385.187 -92737.548 196385.502 -92740.053 196384.618 -92743.282 196383.363 -92755.913 196376.875 -92771.54 196372.408 -92787.845 196367.461 -92794.219 196364.363 -92801.679 196352.392 -92813.63 196342.022 -92826.989 196335.007 -92830.987 196329.294 -92836.69 196313.666 -92843.148 196298.969 -92851.524 196286.596 -92854.335 196283.498 -92855.616 196280.972 -92855.613 196274.692 -92857.041 189207.89 -93747.067 189183.003 -93747.742 189175.265 -93745.622 189167.244 -93745.622 189151.573 -93739.13 189135.211 -93734.648 189128.875 -93729.728 189121.463 -93726.659 189109.469 -93714.664 189096.067 -93704.261 189092.095 -93697.29 189086.423 -93691.619 189079.933 -93675.949 189071.532 -93661.209 189070.53 -93653.248 189067.46 -93645.838 189065.02 -93621.062 189065.02 -92235.25 187676.875 -92237.816 187899.8 -92690.282 187904.248 -92702.111 187908.487 -92713.313 187984.446 -92994.697 187985.145 -92998.881 187985.883 -93000.569 187985.945 -93003.666 187988.547 -93019.253 187986.554 -93034.615 187986.859 -93050.113 187983.395 -93058.968 187982.171 -93068.394 187974.451 -93081.824 187968.802 -93096.259 187959.014 -93108.676 187957.474 -93111.355 187956.02 -93112.475 187953.39 -93115.811 187801.49 -93273.82 187797.689 -93277.067 187794.303 -93280.73 187591.229 -93461.217 187587.856 -93463.668 187584.836 -93466.534 187285.28 -93699.543 187282.678 -93701.185 187280.341 -93703.197 187091.633 -93835.851 187089.805 -93836.884 187088.171 -93838.2 186872.042 -93979.728 186870.192 -93980.695 186868.523 -93981.951 186623.874 -94130.935 186622.004 -94131.835 186620.31 -94133.026 186346.041 -94288.048 186344.16 -94288.879 186342.445 -94290.004 186037.456 -94449.644 186035.574 -94450.404 186033.84 -94451.464 185697.032 -94614.304 185695.15 -94614.995 185693.41 -94615.985 185323.679 -94780.607 185321.803 -94781.23 185320.062 -94782.15 184916.313 -94947.134 184914.457 -94947.687 184912.711 -94948.543 184473.844 -95112.47 184472.005 -95112.958 184470.269 -95113.745 183995.18 -95275.198 183993.364 -95275.622 183991.642 -95276.343 183479.234 -95433.903 183477.444 -95434.266 183475.742 -95434.922 182924.914 -95587.17 182923.157 -95587.474 182921.475 -95588.069 182331.128 -95733.586 182329.405 -95733.835 182327.749 -95734.37 181696.782 -95871.737 181695.098 -95871.933 181693.47 -95872.412 181020.784 -96000.212 181019.143 -96000.359 181017.543 -96000.785 180302.037 -96117.598 180300.43 -96117.7 180298.872 -96118.073 179539.448 -96222.481 179537.888 -96222.541 179536.361 -96222.867 178731.917 -96313.451 178730.969 -96313.464 178730.035 -96313.649 178633.954 -96323.02 178620.559 -97028.773 178613.643 -97590.519 178614.025 -97771.462 178615.227 -97790.918 186989.159 -106358.773 209220.57 -101862.935 209289.623 -101735.035 209380.047 -101539.914 209549.751 -101092.038 209701.293 -100586.307 209835.629 -100034.996 209953.453 -99451.77 210055.634 -98850.099 210143.149 -98243.224 210216.921 -97645.002 210327.767 -96524.063 210396.35 -95594.546 210441.057 -94724.295 210442.655 -94713.687 210442.54 -94710.407 210443.56 -94707.678 210444.765 -94699.677 210453.1 -94682.156 210459.89 -94663.99 210463.671 -94659.935 210466.052 -94654.929 210480.45 -94641.938 210493.682 -94627.746 210498.73 -94625.444 210502.844 -94621.733 210521.111 -94615.242 210538.77 -94607.193 210544.314 -94606.999 210549.537 -94605.143 210568.908 -94606.138 210588.293 -94605.46 210593.488 -94607.401 210599.024 -94607.686 210616.542 -94616.019 210634.71 -94622.81 210638.765 -94626.589 210643.772 -94628.972 210656.768 -94643.375 210670.954 -94656.602 210675.016 -94663.6 210676.968 -94665.764 210678.068 -94668.857 210683.451 -94678.134 212979.715 -99715.679 212987.771 -99739.235 212988.179 -99750.886 212991.004 -99762.192 212989.769 -99787.057 211921.738 -106960.664 211915.676 -106984.811 211909.756 -106994.677 211906.046 -107005.57 211897.13 -107015.716 211890.179 -107027.3 211880.933 -107034.149 211873.337 -107042.794 211852.182 -107055.92 207437.655 -109227.58 207424.622 -109232.471 207421.754 -109234.106 207419.515 -109234.388 207414.346 -109236.328 207393.408 -109237.679 207372.59 -109240.304 207368.806 -109239.267 207364.896 -109239.52 207345.046 -109232.76 207324.798 -109227.215 207321.7 -109224.81 207317.987 -109223.546 207302.224 -109209.694 207285.652 -109196.833 207283.711 -109193.426 207280.763 -109190.837 207271.495 -109171.996 207261.112 -109153.782 207260.622 -109149.894 207258.89 -109146.374 207257.539 -109125.435 207254.914 -109104.618 207255.844 -109099.176 207255.698 -109096.924 207256.762 -109093.801 207259.105 -109080.078 208378.683 -104991.955 186546.188 -109700.583 186521.454 -109703.421 186509.98 -109701.329 186498.324 -109701.674 186485.843 -109696.93 186472.704 -109694.536 186462.905 -109688.213 186452.004 -109684.071 186432.301 -109668.852 175573.994 -99433.558 175557.639 -99414.788 175556.187 -99411.555 175553.746 -99408.987 175546.081 -99389.061 175537.332 -99369.587 175537.228 -99366.045 175535.955 -99362.738 175534.147 -99337.908 175606.482 -96499.511 175030.039 -96509.949 175028.901 -96509.857 175027.762 -96509.97 173981.724 -96510.154 173980.433 -96510.027 173979.14 -96510.128 172881.482 -96487.976 172879.566 -96487.748 172877.64 -96487.84 170826.497 -96384.28 170823.782 -96383.873 170821.032 -96383.886 168947.093 -96207.98 168944.216 -96207.421 168941.29 -96207.3 167238.364 -95968.004 167235.332 -95967.268 167232.213 -95966.986 165694.107 -95673.251 165690.905 -95672.306 165687.604 -95671.831 164308.128 -95332.611 164304.766 -95331.424 164301.268 -95330.719 163074.23 -94954.969 163070.706 -94953.498 163067.013 -94952.52 161986.221 -94549.19 161982.535 -94547.384 161978.649 -94546.082 161037.911 -94124.128 161034.07 -94121.929 161029.982 -94120.235 160223.108 -93688.61 160219.11 -93685.936 160214.815 -93683.762 159535.612 -93251.418 159531.448 -93248.152 159526.936 -93245.374 158969.213 -92821.266 158964.86 -92817.224 158960.113 -92813.65 158517.679 -92406.73 158513.102 -92401.605 158508.093 -92396.906 158174.755 -92016.127 158169.915 -92009.359 158164.639 -92002.917 157934.207 -91657.234 157933.768 -91656.408 157933.447 -91656.081 157928.03 -91645.645 157922.495 -91635.265 157922.407 -91634.815 157921.975 -91633.985 157794.492 -91315.485 141966.344 -91385.361 141966.344 -93324.473 141964.108 -93347.183 141964.116 -93348.162 141963.978 -93348.505 141963.904 -93349.249 141954.657 -93371.575 141945.553 -93394.106 141945.157 -93394.509 141944.941 -93395.03 141927.846 -93412.125 141910.82 -93429.451 141910.299 -93429.672 141909.901 -93430.07 141887.549 -93439.328 141865.206 -93448.812 141864.461 -93448.891 141864.12 -93449.033 141863.146 -93449.033 141840.452 -93451.468 136566.478 -93497.472 136442.274 -93633.042 136432.654 -93641.668 136430.566 -93644.286 136428.399 -93645.483 136423.739 -93649.662 136405.147 -93658.334 136387.195 -93668.255 136381.077 -93669.561 136378.83 -93670.609 136375.484 -93670.755 136362.848 -93673.453 134891.719 -93839.167 134889.662 -93839.195 134887.638 -93839.56 133165.148 -93977.458 133163.76 -93977.432 133162.393 -93977.648 132088.373 -94040.16 132087.346 -94040.118 132086.324 -94040.263 130883.39 -94090.791 130882.296 -94090.729 130881.207 -94090.864 129559.061 -94123.637 129557.894 -94123.551 129556.734 -94123.673 128125.078 -94132.921 128123.839 -94132.806 128122.595 -94132.913 126591.131 -94112.865 126589.811 -94112.717 126588.479 -94112.803 124966.908 -94057.688 124965.497 -94057.5 124964.074 -94057.56 123262.097 -93961.609 123260.587 -93961.373 123259.065 -93961.401 121486.386 -93818.844 121484.776 -93818.553 121483.141 -93818.541 119649.46 -93623.605 119647.745 -93623.25 119645.986 -93623.188 117761.006 -93370.105 117758.435 -93369.498 117755.802 -93369.296 116285.677 -93109.464 116282.323 -93108.524 116278.878 -93108.069 114916.216 -92789.595 114912.947 -92788.483 114909.549 -92787.845 113652.61 -92421.134 113649.446 -92419.862 113646.131 -92419.054 112493.173 -92014.511 112490.14 -92013.098 112486.931 -92012.135 111436.213 -91580.164 111433.323 -91578.629 111430.245 -91577.529 110480.028 -91128.534 110477.306 -91126.903 110474.367 -91125.685 109622.909 -90670.072 109620.355 -90668.363 109617.575 -90667.05 108863.135 -90215.222 108860.756 -90213.458 108858.141 -90212.071 108198.977 -89774.434 108196.776 -89772.638 108194.327 -89771.195 107628.7 -89358.152 107625.789 -89355.552 107622.562 -89353.374 106764.954 -88642.691 106760.807 -88638.504 106756.25 -88634.77 106086.876 -87966.341 106071.068 -87947.108 106067.791 -87939.21 106062.6 -87932.418 106053.877 -87909.101 105910.928 -87371.319 105909.949 -87365.311 105908.371 -87359.435 105818.307 -86815.381 105817.928 -86809.627 105816.944 -86803.951 105776.594 -86255.155 105776.728 -86249.778 105776.26 -86244.418 105776.288 -86241.893 105782.453 -85692.41 105782.996 -85687.474 105782.951 -85682.511 105832.517 -85128.823 105833.364 -85124.361 105833.647 -85119.827 105923.416 -84565.989 105924.475 -84561.992 105924.999 -84557.899 106051.799 -84005.442 106052.991 -84001.892 106053.683 -83998.216 106214.345 -83448.672 106215.609 -83445.533 106216.411 -83442.244 106407.763 -82897.145 106409.056 -82894.368 106409.922 -82891.439 106628.795 -82352.314 106630.662 -82348.761 106632.042 -82344.987 107139.666 -81290.786 107142.028 -81286.907 107143.89 -81282.759 107723.549 -80270.83 107725.733 -80267.761 107727.472 -80264.429 108353.801 -79307.017 108355.772 -79304.567 108357.364 -79301.853 109005 -78411.208 109006.765 -78409.223 109008.203 -78406.991 109651.779 -77595.361 109653.353 -77593.733 109654.647 -77591.873 110268.802 -76871.505 110270.205 -76870.153 110271.366 -76868.589 110830.734 -76251.731 110832.937 -76249.735 110834.819 -76247.432 112017.134 -75060.072 112021.975 -75056.082 112026.397 -75051.645 112332.937 -74799.219 112334.539 -74798.145 112335.946 -74796.816 112715.728 -74502.938 112717.164 -74502.037 112718.426 -74500.907 113246.202 -74114.501 113247.75 -74113.586 113249.123 -74112.425 113922.629 -73647.924 113924.295 -73647.001 113925.784 -73645.817 114742.762 -73117.659 114744.551 -73116.737 114746.164 -73115.535 115704.352 -72538.156 115706.271 -72537.242 115708.017 -72536.03 116805.15 -71923.866 116807.205 -71922.971 116809.094 -71921.755 118042.915 -71289.242 118044.537 -71288.602 118046.034 -71287.696 118713.495 -70968.32 118714.635 -70967.906 118715.689 -70967.295 119416.472 -70648.245 119417.651 -70647.842 119418.742 -70647.238 120152.567 -70330.318 120153.786 -70329.928 120154.915 -70329.332 120921.496 -70016.348 120922.752 -70015.974 120923.923 -70015.386 121722.981 -69708.141 121724.273 -69707.784 121725.485 -69707.208 122556.736 -69407.508 122558.07 -69407.17 122559.32 -69406.608 123422.481 -69116.255 123423.85 -69115.939 123425.143 -69115.392 124319.931 -68836.193 124321.335 -68835.902 124322.672 -68835.371 125248.804 -68569.131 125250.243 -68568.866 125251.622 -68568.355 126208.816 -68316.875 126210.299 -68316.637 126211.709 -68316.152 127199.683 -68081.239 127201.195 -68081.033 127202.649 -68080.571 128221.12 -67864.03 128222.667 -67863.857 128224.158 -67863.423 129272.841 -67667.057 129274.415 -67666.919 129275.946 -67666.515 130354.562 -67492.129 130356.676 -67491.997 130358.738 -67491.525 133133.502 -67137.03 133136.262 -67136.95 133138.976 -67136.451 135688.516 -66922.5 135691.4 -66922.541 135694.256 -66922.149 138024.949 -66832.504 138027.946 -66832.683 138030.936 -66832.415 140149.156 -66850.839 140152.253 -66851.171 140155.363 -66851.045 142067.489 -66961.303 142070.661 -66961.801 142073.881 -66961.833 143786.286 -67147.687 143789.524 -67148.364 143792.822 -67148.569 145311.882 -67393.783 145315.155 -67394.647 145318.511 -67395.035 146650.602 -67683.372 146653.875 -67684.425 146657.267 -67685.004 147808.763 -68000.227 147812.011 -68001.469 147815.403 -68002.241 148792.682 -68328.113 148795.879 -68329.54 148799.236 -68330.501 149608.672 -68650.786 149611.773 -68652.38 149615.077 -68653.525 150263.046 -68951.986 150267.26 -68954.453 150271.741 -68956.403 151108.78 -69422.905 151113.728 -69426.337 151118.992 -69429.248 151386.671 -69613.615 151405.691 -69629.679 151409.27 -69635.201 151414.283 -69639.474 151422.646 -69655.844 151432.638 -69671.264 151433.832 -69677.738 151436.827 -69683.603 151438.29 -69701.928 151441.619 -69719.998 151440.245 -69726.434 151440.768 -69732.999 151435.458 -69757.322 151273.549 -70257.453 151272.52 -70259.813 151271.867 -70262.313 150745.032 -71689.678 150744.187 -71691.421 150743.638 -71693.286 150523.423 -72238.241 166078.544 -72375.475 169806.479 -68347.592 169825.099 -68331.066 169827.365 -68330.023 169829.128 -68328.26 169849.795 -68319.699 169870.113 -68310.348 169872.605 -68310.251 169874.909 -68309.297 169899.685 -68306.857 175600.108 -68306.857 175568.336 -64565.857 175570.565 -64541.061 175571.391 -64539.018 175571.447 -64536.82 175580.647 -64516.125 175589.139 -64495.12 175590.682 -64493.55 175591.576 -64491.539 175607.857 -64472.705 186353.882 -54263.431 186373.525 -54248.135 186384.5 -54243.915 186394.363 -54237.518 186407.402 -54235.109 186419.777 -54230.351 186431.53 -54230.652 186443.092 -54228.516 186467.832 -54231.294" fill="none" stroke-width="25.4"/></clipPath><mask id="V7h9754Xg0ZDZ_S-ed2F_top_mech-mask"><g fill="#000" stroke="#000"><rect x="105776.26" y="-109703.421" width="107214.744" height="55474.905" fill="#fff"/><use xlink:href="#V7h9754Xg0ZDZ_S-ed2F_top_drill1"/></g></mask><mask id="V7h9754Xg0ZDZ_S-ed2F_top_cf-mask"><g fill="#fff" stroke="#fff"><use xlink:href="#V7h9754Xg0ZDZ_S-ed2F_top_soldermask"/></g></mask><mask id="V7h9754Xg0ZDZ_S-ed2F_top_sm-mask"><g fill="#000" stroke="#000"><rect x="105776.26" y="-109703.421" width="107214.744" height="55474.905" fill="#fff"/><use xlink:href="#V7h9754Xg0ZDZ_S-ed2F_top_soldermask"/></g></mask></defs><g transform="translate(0,-163931.937) scale(1,-1)"><g mask="url(#V7h9754Xg0ZDZ_S-ed2F_top_mech-mask)" clip-path="url(#V7h9754Xg0ZDZ_S-ed2F_top_outline)"><rect x="105776.26" y="-109703.421" width="107214.744" height="55474.905" fill="currentColor" class="V7h9754Xg0ZDZ_S-ed2F_fr4"/><use xlink:href="#V7h9754Xg0ZDZ_S-ed2F_top_copper" fill="currentColor" stroke="currentColor" class="V7h9754Xg0ZDZ_S-ed2F_cu"/><use xlink:href="#V7h9754Xg0ZDZ_S-ed2F_top_copper" fill="currentColor" stroke="currentColor" class="V7h9754Xg0ZDZ_S-ed2F_cf" mask="url(#V7h9754Xg0ZDZ_S-ed2F_top_cf-mask)"/><g mask="url(#V7h9754Xg0ZDZ_S-ed2F_top_sm-mask)"><rect x="105776.26" y="-109703.421" width="107214.744" height="55474.905" fill="currentColor" class="V7h9754Xg0ZDZ_S-ed2F_sm"/><use xlink:href="#V7h9754Xg0ZDZ_S-ed2F_top_silkscreen" fill="currentColor" stroke="currentColor" class="V7h9754Xg0ZDZ_S-ed2F_ss"/></g></g></g></svg>