%TF.GenerationSoftware,KiCad,Pcbnew,9.0.0*%
%TF.CreationDate,2025-03-23T17:22:46-07:00*%
%TF.ProjectId,portal-gun,706f7274-616c-42d6-9775-6e2e6b696361,rev?*%
%TF.SameCoordinates,Original*%
%TF.FileFunction,Copper,L2,Bot*%
%TF.FilePolarity,Positive*%
%FSLAX46Y46*%
G04 Gerber Fmt 4.6, Leading zero omitted, Abs format (unit mm)*
G04 Created by KiCad (PCBNEW 9.0.0) date 2025-03-23 17:22:46*
%MOMM*%
%LPD*%
G01*
G04 APERTURE LIST*
G04 Aperture macros list*
%AMRoundRect*
0 Rectangle with rounded corners*
0 $1 Rounding radius*
0 $2 $3 $4 $5 $6 $7 $8 $9 X,Y pos of 4 corners*
0 Add a 4 corners polygon primitive as box body*
4,1,4,$2,$3,$4,$5,$6,$7,$8,$9,$2,$3,0*
0 Add four circle primitives for the rounded corners*
1,1,$1+$1,$2,$3*
1,1,$1+$1,$4,$5*
1,1,$1+$1,$6,$7*
1,1,$1+$1,$8,$9*
0 Add four rect primitives between the rounded corners*
20,1,$1+$1,$2,$3,$4,$5,0*
20,1,$1+$1,$4,$5,$6,$7,0*
20,1,$1+$1,$6,$7,$8,$9,0*
20,1,$1+$1,$8,$9,$2,$3,0*%
%AMRotRect*
0 Rectangle, with rotation*
0 The origin of the aperture is its center*
0 $1 length*
0 $2 width*
0 $3 Rotation angle, in degrees counterclockwise*
0 Add horizontal line*
21,1,$1,$2,0,0,$3*%
G04 Aperture macros list end*
%TA.AperFunction,EtchedComponent*%
%ADD10C,0.400000*%
%TD*%
%TA.AperFunction,SMDPad,CuDef*%
%ADD11RoundRect,0.150000X-0.150000X0.512500X-0.150000X-0.512500X0.150000X-0.512500X0.150000X0.512500X0*%
%TD*%
%TA.AperFunction,SMDPad,CuDef*%
%ADD12R,0.500000X0.800000*%
%TD*%
%TA.AperFunction,SMDPad,CuDef*%
%ADD13R,0.400000X0.600000*%
%TD*%
%TA.AperFunction,SMDPad,CuDef*%
%ADD14R,0.400000X0.800000*%
%TD*%
%TA.AperFunction,SMDPad,CuDef*%
%ADD15R,2.200000X1.200000*%
%TD*%
%TA.AperFunction,SMDPad,CuDef*%
%ADD16R,1.510000X1.800000*%
%TD*%
%TA.AperFunction,SMDPad,CuDef*%
%ADD17R,0.800000X0.500000*%
%TD*%
%TA.AperFunction,SMDPad,CuDef*%
%ADD18R,0.600000X0.400000*%
%TD*%
%TA.AperFunction,SMDPad,CuDef*%
%ADD19R,0.800000X0.400000*%
%TD*%
%TA.AperFunction,ComponentPad*%
%ADD20R,1.700000X1.700000*%
%TD*%
%TA.AperFunction,ComponentPad*%
%ADD21O,1.700000X1.700000*%
%TD*%
%TA.AperFunction,SMDPad,CuDef*%
%ADD22RoundRect,0.225000X-0.250000X0.225000X-0.250000X-0.225000X0.250000X-0.225000X0.250000X0.225000X0*%
%TD*%
%TA.AperFunction,SMDPad,CuDef*%
%ADD23RotRect,0.500000X0.800000X195.000000*%
%TD*%
%TA.AperFunction,SMDPad,CuDef*%
%ADD24RotRect,0.400000X0.600000X195.000000*%
%TD*%
%TA.AperFunction,SMDPad,CuDef*%
%ADD25RotRect,0.400000X0.800000X195.000000*%
%TD*%
%TA.AperFunction,ViaPad*%
%ADD26C,0.600000*%
%TD*%
%TA.AperFunction,Conductor*%
%ADD27C,0.400000*%
%TD*%
%TA.AperFunction,Conductor*%
%ADD28C,0.200000*%
%TD*%
G04 APERTURE END LIST*
D10*
%TO.C,REF\u002A\u002A*%
X146925000Y-74175000D02*
G75*
G02*
X145525000Y-74175000I-700000J0D01*
G01*
X145525000Y-74175000D02*
G75*
G02*
X146925000Y-74175000I700000J0D01*
G01*
X137625000Y-88675000D02*
G75*
G02*
X136225000Y-88675000I-700000J0D01*
G01*
X136225000Y-88675000D02*
G75*
G02*
X137625000Y-88675000I700000J0D01*
G01*
%TD*%
D11*
%TO.P,U1,1,PA4*%
%TO.N,Net-(U1-PA4)*%
X119550000Y-74987500D03*
%TO.P,U1,2,GND*%
%TO.N,GND*%
X120500000Y-74987500D03*
%TO.P,U1,3,PA5*%
%TO.N,Net-(U1-PA5)*%
X121450000Y-74987500D03*
%TO.P,U1,4,PA6/7*%
%TO.N,Net-(J1-Pin_6)*%
X121450000Y-77262500D03*
%TO.P,U1,5,VDD*%
%TO.N,VDD*%
X120500000Y-77262500D03*
%TO.P,U1,6,PA3*%
%TO.N,Net-(J1-Pin_5)*%
X119550000Y-77262500D03*
%TD*%
D12*
%TO.P,U3,1,DIN*%
%TO.N,Net-(U2-DO)*%
X150607000Y-81392643D03*
D13*
%TO.P,U3,2,VDD*%
%TO.N,VDD*%
X151357000Y-81292643D03*
D14*
%TO.P,U3,3,FDIN*%
%TO.N,unconnected-(U3-FDIN-Pad3)*%
X152057000Y-81392643D03*
D13*
%TO.P,U3,4,DO*%
%TO.N,Net-(U3-DO)*%
X152757000Y-81292643D03*
D12*
%TO.P,U3,5,GND*%
%TO.N,GND*%
X153507000Y-81392643D03*
%TD*%
D15*
%TO.P,SW1,1,1*%
%TO.N,VDD*%
X111050000Y-87775000D03*
%TO.P,SW1,2,2*%
%TO.N,Net-(U1-PA4)*%
X111050000Y-83275000D03*
D16*
%TO.P,SW1,3*%
%TO.N,N/C*%
X114250000Y-89525000D03*
%TO.P,SW1,4*%
X114250000Y-81525000D03*
%TD*%
D17*
%TO.P,U5,1,DIN*%
%TO.N,Net-(U4-DO)*%
X195625000Y-80300000D03*
D18*
%TO.P,U5,2,VDD*%
%TO.N,VDD*%
X195725000Y-81050000D03*
D19*
%TO.P,U5,3,FDIN*%
%TO.N,unconnected-(U5-FDIN-Pad3)*%
X195625000Y-81750000D03*
D18*
%TO.P,U5,4,DO*%
%TO.N,unconnected-(U5-DO-Pad4)*%
X195725000Y-82450000D03*
D17*
%TO.P,U5,5,GND*%
%TO.N,GND*%
X195625000Y-83200000D03*
%TD*%
D20*
%TO.P,J1,1,Pin_1*%
%TO.N,VDD*%
X124195000Y-87260000D03*
D21*
%TO.P,J1,2,Pin_2*%
%TO.N,GND*%
X124195000Y-89800000D03*
%TO.P,J1,3,Pin_3*%
%TO.N,unconnected-(J1-Pin_3-Pad3)*%
X126735000Y-87260000D03*
%TO.P,J1,4,Pin_4*%
%TO.N,unconnected-(J1-Pin_4-Pad4)*%
X126735000Y-89800000D03*
%TO.P,J1,5,Pin_5*%
%TO.N,Net-(J1-Pin_5)*%
X129275000Y-87260000D03*
%TO.P,J1,6,Pin_6*%
%TO.N,Net-(J1-Pin_6)*%
X129275000Y-89800000D03*
%TD*%
D22*
%TO.P,C1,1*%
%TO.N,VDD*%
X120500000Y-78925000D03*
%TO.P,C1,2*%
%TO.N,GND*%
X120500000Y-80475000D03*
%TD*%
D12*
%TO.P,U4,1,DIN*%
%TO.N,Net-(U3-DO)*%
X159482000Y-81342643D03*
D13*
%TO.P,U4,2,VDD*%
%TO.N,VDD*%
X160232000Y-81242643D03*
D14*
%TO.P,U4,3,FDIN*%
%TO.N,unconnected-(U4-FDIN-Pad3)*%
X160932000Y-81342643D03*
D13*
%TO.P,U4,4,DO*%
%TO.N,Net-(U4-DO)*%
X161632000Y-81242643D03*
D12*
%TO.P,U4,5,GND*%
%TO.N,GND*%
X162382000Y-81342643D03*
%TD*%
D23*
%TO.P,U2,1,DIN*%
%TO.N,Net-(U1-PA5)*%
X127244349Y-71641227D03*
D24*
%TO.P,U2,2,VDD*%
%TO.N,VDD*%
X127942911Y-71350520D03*
D25*
%TO.P,U2,3,FDIN*%
%TO.N,unconnected-(U2-FDIN-Pad3)*%
X128644941Y-71265939D03*
D24*
%TO.P,U2,4,DO*%
%TO.N,Net-(U2-DO)*%
X129295207Y-70988173D03*
D23*
%TO.P,U2,5,GND*%
%TO.N,GND*%
X130045533Y-70890652D03*
%TD*%
D26*
%TO.N,VDD*%
X119500000Y-78900000D03*
X128225000Y-72550000D03*
X111050000Y-86600000D03*
X151350000Y-83450000D03*
X160250000Y-83475000D03*
X194500000Y-81050000D03*
%TD*%
D27*
%TO.N,VDD*%
X119525000Y-78925000D02*
X119500000Y-78900000D01*
X120500000Y-78925000D02*
X119525000Y-78925000D01*
D28*
%TO.N,Net-(U4-DO)*%
X194330761Y-80300000D02*
X195625000Y-80300000D01*
X193555761Y-81075000D02*
X194330761Y-80300000D01*
X163375000Y-81075000D02*
X193555761Y-81075000D01*
X161908357Y-80641643D02*
X162941643Y-80641643D01*
X161632000Y-81242643D02*
X161632000Y-80918000D01*
X161632000Y-80918000D02*
X161908357Y-80641643D01*
X162941643Y-80641643D02*
X163375000Y-81075000D01*
%TO.N,Net-(U3-DO)*%
X154058000Y-80691643D02*
X154709000Y-81342643D01*
X152956000Y-80691643D02*
X154058000Y-80691643D01*
X152757000Y-80890643D02*
X152956000Y-80691643D01*
X152757000Y-81292643D02*
X152757000Y-80890643D01*
X154709000Y-81342643D02*
X159482000Y-81342643D01*
%TO.N,VDD*%
X127942911Y-72267911D02*
X128225000Y-72550000D01*
X127942911Y-71350520D02*
X127942911Y-72267911D01*
X111050000Y-87775000D02*
X111050000Y-86600000D01*
%TO.N,Net-(U1-PA4)*%
X111050000Y-82470000D02*
X118532500Y-74987500D01*
X118532500Y-74987500D02*
X119550000Y-74987500D01*
X111050000Y-83275000D02*
X111050000Y-82470000D01*
%TO.N,Net-(J1-Pin_6)*%
X128025000Y-88550000D02*
X128025000Y-83837500D01*
X129275000Y-89800000D02*
X128025000Y-88550000D01*
X128025000Y-83837500D02*
X121450000Y-77262500D01*
%TO.N,Net-(U1-PA5)*%
X121462500Y-74975000D02*
X123910576Y-74975000D01*
X121450000Y-74987500D02*
X121462500Y-74975000D01*
X123910576Y-74975000D02*
X127244349Y-71641227D01*
%TO.N,Net-(J1-Pin_5)*%
X129275000Y-87260000D02*
X129275000Y-83500000D01*
X120025001Y-76125000D02*
X119550000Y-76600001D01*
X121900000Y-76125000D02*
X120025001Y-76125000D01*
X119550000Y-76600001D02*
X119550000Y-77262500D01*
X129275000Y-83500000D02*
X121900000Y-76125000D01*
D27*
%TO.N,VDD*%
X120500000Y-77262500D02*
X120500000Y-78925000D01*
D28*
X151357000Y-81292643D02*
X151357000Y-83443000D01*
X151357000Y-83443000D02*
X151350000Y-83450000D01*
X160232000Y-83457000D02*
X160250000Y-83475000D01*
X160232000Y-81242643D02*
X160232000Y-83457000D01*
X195725000Y-81050000D02*
X194500000Y-81050000D01*
%TO.N,Net-(U2-DO)*%
X129295207Y-70988173D02*
X129295207Y-71445207D01*
X139242643Y-81392643D02*
X150607000Y-81392643D01*
X129295207Y-71445207D02*
X139242643Y-81392643D01*
%TD*%
%TA.AperFunction,Conductor*%
%TO.N,GND*%
G36*
X186455807Y-54231648D02*
G01*
X186479804Y-54234357D01*
X208390487Y-58904733D01*
X208398047Y-58907523D01*
X208401524Y-58907871D01*
X208401525Y-58907871D01*
X208408118Y-58908529D01*
X208408120Y-58908531D01*
X208408122Y-58908530D01*
X208408439Y-58908562D01*
X208408618Y-58908302D01*
X208408622Y-58908300D01*
X208408622Y-58908295D01*
X208408698Y-58908187D01*
X208408712Y-58908051D01*
X208408714Y-58908049D01*
X208408713Y-58908046D01*
X208408838Y-58906881D01*
X208407539Y-58901447D01*
X208406886Y-58897845D01*
X208403531Y-58890566D01*
X207836627Y-56978176D01*
X207835481Y-56974051D01*
X207830788Y-56955948D01*
X207830844Y-56954175D01*
X207829592Y-56949919D01*
X207825997Y-56942132D01*
X207402443Y-55498108D01*
X207401296Y-55493925D01*
X207396633Y-55475671D01*
X207396693Y-55473954D01*
X207394828Y-55467419D01*
X207391653Y-55460394D01*
X207212176Y-54816824D01*
X207207804Y-54790293D01*
X207207174Y-54778777D01*
X207207993Y-54775293D01*
X207207926Y-54774798D01*
X207208275Y-54769838D01*
X207207343Y-54762637D01*
X207207348Y-54762571D01*
X207207648Y-54759222D01*
X207207658Y-54759125D01*
X207211721Y-54749191D01*
X207211535Y-54739061D01*
X207219578Y-54726021D01*
X207223167Y-54710763D01*
X207230241Y-54703921D01*
X207234113Y-54694458D01*
X207242832Y-54688328D01*
X207248219Y-54679597D01*
X207262443Y-54672780D01*
X207273393Y-54662192D01*
X207282646Y-54660340D01*
X207290992Y-54654474D01*
X207291124Y-54654429D01*
X207303356Y-54653175D01*
X207311228Y-54649404D01*
X207339956Y-54648874D01*
X207341905Y-54648485D01*
X207342766Y-54648823D01*
X207346516Y-54648754D01*
X207346556Y-54648759D01*
X207352861Y-54650837D01*
X207356585Y-54651275D01*
X207396445Y-54662965D01*
X211757561Y-56789010D01*
X211779241Y-56802506D01*
X211788657Y-56809813D01*
X211789621Y-56811148D01*
X211805397Y-56825488D01*
X211805452Y-56825550D01*
X211818707Y-56843522D01*
X211818798Y-56843672D01*
X211829831Y-56867054D01*
X211833623Y-56877897D01*
X211830234Y-56879081D01*
X211830323Y-56880729D01*
X211839418Y-56900047D01*
X212974997Y-64161177D01*
X212976360Y-64185936D01*
X212975816Y-64197971D01*
X212972597Y-64220981D01*
X212969837Y-64232621D01*
X212961711Y-64256100D01*
X210648156Y-69254235D01*
X210634073Y-69274432D01*
X210633015Y-69277850D01*
X210624637Y-69287966D01*
X210623412Y-69289724D01*
X210622057Y-69291081D01*
X210616335Y-69297992D01*
X210616250Y-69298075D01*
X210612590Y-69300016D01*
X210609510Y-69304178D01*
X210609422Y-69304252D01*
X210581594Y-69316465D01*
X210554533Y-69330827D01*
X210549779Y-69330430D01*
X210545444Y-69332333D01*
X210515425Y-69327562D01*
X210484905Y-69325014D01*
X210481120Y-69322109D01*
X210476440Y-69321366D01*
X210453731Y-69301093D01*
X210429474Y-69282479D01*
X210426565Y-69276840D01*
X210424319Y-69274835D01*
X210422906Y-69269747D01*
X210411982Y-69248568D01*
X210411979Y-69248559D01*
X210411431Y-69244599D01*
X210410663Y-69242499D01*
X210403114Y-69199002D01*
X210403706Y-69115814D01*
X210407836Y-68535531D01*
X210408000Y-68513461D01*
X210408002Y-68513460D01*
X210408000Y-68513426D01*
X210408019Y-68510990D01*
X210408028Y-68510958D01*
X210408024Y-68510532D01*
X210408199Y-68494741D01*
X210407331Y-68490632D01*
X210385250Y-67739028D01*
X210385256Y-67739023D01*
X210385245Y-67738826D01*
X210385239Y-67738622D01*
X210385237Y-67738620D01*
X210385195Y-67737179D01*
X210385195Y-67737177D01*
X210384675Y-67719471D01*
X210384003Y-67716624D01*
X210360864Y-67302892D01*
X210359169Y-67272566D01*
X210359172Y-67272565D01*
X210359162Y-67272432D01*
X210359088Y-67271103D01*
X210359089Y-67271098D01*
X210359081Y-67270976D01*
X210357943Y-67250232D01*
X210357270Y-67247811D01*
X210320024Y-66762857D01*
X210320028Y-66762853D01*
X210320010Y-66762673D01*
X210319993Y-66762452D01*
X210319992Y-66762451D01*
X210319899Y-66761236D01*
X210319899Y-66761235D01*
X210318377Y-66741453D01*
X210317630Y-66738930D01*
X210268135Y-66245018D01*
X210268134Y-66245004D01*
X210265447Y-66218161D01*
X210265449Y-66218160D01*
X210265440Y-66218092D01*
X210265264Y-66216331D01*
X210265265Y-66216321D01*
X210265238Y-66216078D01*
X210263262Y-66195923D01*
X210262253Y-66192928D01*
X210251265Y-66106153D01*
X210195592Y-65666482D01*
X210193040Y-65646304D01*
X210193043Y-65646302D01*
X210193029Y-65646216D01*
X210192785Y-65644284D01*
X210192787Y-65644269D01*
X210192753Y-65644026D01*
X210190789Y-65628234D01*
X210189708Y-65625017D01*
X210104467Y-65080956D01*
X210103949Y-65077647D01*
X210100437Y-65055214D01*
X210100441Y-65055211D01*
X210100422Y-65055115D01*
X210100082Y-65052940D01*
X210100084Y-65052921D01*
X210100039Y-65052661D01*
X210097318Y-65035017D01*
X210095896Y-65031439D01*
X210008334Y-64573364D01*
X209989757Y-64476179D01*
X209985263Y-64452636D01*
X209985265Y-64452634D01*
X209985252Y-64452581D01*
X209984776Y-64450084D01*
X209984778Y-64450062D01*
X209984715Y-64449764D01*
X209981810Y-64434327D01*
X209980129Y-64430413D01*
X209845185Y-63846534D01*
X209845191Y-63846524D01*
X209845141Y-63846344D01*
X209845095Y-63846145D01*
X209845094Y-63846144D01*
X209844528Y-63843694D01*
X209841365Y-63830010D01*
X209839483Y-63825995D01*
X209683910Y-63266380D01*
X209677664Y-63243885D01*
X209677665Y-63243884D01*
X209677655Y-63243854D01*
X209676987Y-63241447D01*
X209676987Y-63241425D01*
X209676896Y-63241119D01*
X209672973Y-63226841D01*
X209671061Y-63223159D01*
X209588655Y-62964497D01*
X209583342Y-62947814D01*
X209583344Y-62947811D01*
X209583317Y-62947734D01*
X209582759Y-62945982D01*
X209582758Y-62945969D01*
X209582693Y-62945773D01*
X209577560Y-62929558D01*
X209575995Y-62926762D01*
X209489669Y-62679482D01*
X209487797Y-62674119D01*
X209481130Y-62655014D01*
X209481133Y-62655011D01*
X209481095Y-62654913D01*
X209480455Y-62653078D01*
X209480454Y-62653066D01*
X209480390Y-62652890D01*
X209474787Y-62636752D01*
X209473031Y-62633842D01*
X209379940Y-62390611D01*
X209379932Y-62390590D01*
X209371018Y-62367288D01*
X209371020Y-62367286D01*
X209370996Y-62367229D01*
X209370232Y-62365232D01*
X209370230Y-62365213D01*
X209370122Y-62364943D01*
X209364144Y-62349199D01*
X209362119Y-62346092D01*
X209282850Y-62157333D01*
X209282811Y-62157240D01*
X209277681Y-62144996D01*
X209277688Y-62144964D01*
X209277631Y-62144878D01*
X209277547Y-62144676D01*
X209275197Y-62143064D01*
X209264738Y-62141963D01*
X186998735Y-57497321D01*
X186987940Y-57495070D01*
X186987896Y-57495027D01*
X186987744Y-57495029D01*
X186987595Y-57494998D01*
X186987591Y-57495000D01*
X186987566Y-57494995D01*
X186985544Y-57495863D01*
X186979630Y-57503118D01*
X178638710Y-66092857D01*
X178638707Y-66092861D01*
X178626140Y-66105804D01*
X178625979Y-66105965D01*
X178625978Y-66105970D01*
X178625976Y-66105974D01*
X178625978Y-66106153D01*
X178625955Y-66116418D01*
X178625955Y-66116420D01*
X178620878Y-68447292D01*
X178620877Y-68447763D01*
X178620873Y-68449986D01*
X178620864Y-68450183D01*
X178620873Y-68450192D01*
X178620873Y-68450206D01*
X178620877Y-68450210D01*
X178620877Y-68450253D01*
X178620911Y-68450339D01*
X178622891Y-68452418D01*
X178798262Y-68645768D01*
X181982317Y-72156250D01*
X181987528Y-72161995D01*
X181999571Y-72175276D01*
X181999613Y-72175378D01*
X181999695Y-72175412D01*
X181999809Y-72175538D01*
X181999991Y-72175539D01*
X181999994Y-72175541D01*
X181999996Y-72175540D01*
X182000180Y-72175542D01*
X182001602Y-72174998D01*
X182018021Y-72169088D01*
X182021334Y-72167004D01*
X184739575Y-71079706D01*
X184761298Y-71073249D01*
X184862638Y-71052981D01*
X184887698Y-71050576D01*
X188974282Y-71075193D01*
X188975018Y-71075414D01*
X189013028Y-71075479D01*
X189023904Y-71076565D01*
X189025202Y-71075500D01*
X189025204Y-71075501D01*
X189025204Y-71075500D01*
X189025205Y-71075501D01*
X189025220Y-71075485D01*
X189025498Y-71075258D01*
X189025498Y-71075209D01*
X189025499Y-71075209D01*
X189029878Y-70027699D01*
X189033333Y-69999152D01*
X189035875Y-69988612D01*
X189038117Y-69984715D01*
X189041957Y-69969992D01*
X189041977Y-69969944D01*
X189049126Y-69955508D01*
X189049137Y-69955489D01*
X189061960Y-69943291D01*
X189070729Y-69928056D01*
X189086614Y-69919839D01*
X189099762Y-69907333D01*
X189109750Y-69902747D01*
X189109964Y-69902660D01*
X189125820Y-69899560D01*
X189132788Y-69895956D01*
X189140527Y-69896684D01*
X189156664Y-69893530D01*
X189164463Y-69893530D01*
X189164463Y-69895705D01*
X189182003Y-69893252D01*
X196278861Y-70744873D01*
X196301931Y-70749908D01*
X196314350Y-70753889D01*
X196317164Y-70755796D01*
X196318409Y-70756321D01*
X196324028Y-70757441D01*
X196324228Y-70757524D01*
X196347974Y-70776686D01*
X196372181Y-70793098D01*
X196374216Y-70797862D01*
X196378602Y-70801401D01*
X196396114Y-70838647D01*
X196396201Y-70838958D01*
X196396685Y-70844995D01*
X196398384Y-70850971D01*
X196399095Y-70856089D01*
X196399633Y-70857348D01*
X196399433Y-70858526D01*
X196403110Y-70884980D01*
X196395822Y-79835413D01*
X196376083Y-79902436D01*
X196323242Y-79948148D01*
X196254075Y-79958035D01*
X196190543Y-79928959D01*
X196171789Y-79907684D01*
X196169553Y-79905448D01*
X196103230Y-79861132D01*
X196103229Y-79861131D01*
X196044752Y-79849500D01*
X196044748Y-79849500D01*
X195205252Y-79849500D01*
X195205247Y-79849500D01*
X195146770Y-79861131D01*
X195146769Y-79861132D01*
X195080446Y-79905448D01*
X195054425Y-79944392D01*
X195000813Y-79989196D01*
X194951324Y-79999500D01*
X194291199Y-79999500D01*
X194214771Y-80019978D01*
X194146250Y-80059540D01*
X194146247Y-80059542D01*
X193467609Y-80738181D01*
X193406286Y-80771666D01*
X193379928Y-80774500D01*
X165828759Y-80774500D01*
X165761720Y-80754815D01*
X165715965Y-80702011D01*
X165704759Y-80650500D01*
X165704759Y-72687787D01*
X165704519Y-72687546D01*
X150524957Y-72606563D01*
X149701467Y-74417385D01*
X149700620Y-74419208D01*
X149252461Y-75363742D01*
X149251614Y-75365491D01*
X148763751Y-76353420D01*
X148762750Y-76355403D01*
X148223962Y-77398946D01*
X148222857Y-77401037D01*
X147621795Y-78512674D01*
X147620636Y-78514769D01*
X146945950Y-79706957D01*
X146944779Y-79708981D01*
X146163203Y-81031240D01*
X146112145Y-81078935D01*
X146056457Y-81092143D01*
X139418476Y-81092143D01*
X139351437Y-81072458D01*
X139330795Y-81055824D01*
X132363360Y-74088389D01*
X145124500Y-74088389D01*
X145124500Y-74261610D01*
X145149316Y-74418297D01*
X145151598Y-74432701D01*
X145205127Y-74597445D01*
X145283768Y-74751788D01*
X145385586Y-74891928D01*
X145508072Y-75014414D01*
X145648212Y-75116232D01*
X145802555Y-75194873D01*
X145967299Y-75248402D01*
X146138389Y-75275500D01*
X146138390Y-75275500D01*
X146311610Y-75275500D01*
X146311611Y-75275500D01*
X146482701Y-75248402D01*
X146647445Y-75194873D01*
X146801788Y-75116232D01*
X146941928Y-75014414D01*
X147064414Y-74891928D01*
X147166232Y-74751788D01*
X147244873Y-74597445D01*
X147298402Y-74432701D01*
X147325500Y-74261611D01*
X147325500Y-74088389D01*
X147298402Y-73917299D01*
X147244873Y-73752555D01*
X147166232Y-73598212D01*
X147064414Y-73458072D01*
X146941928Y-73335586D01*
X146801788Y-73233768D01*
X146647445Y-73155127D01*
X146482701Y-73101598D01*
X146482699Y-73101597D01*
X146482698Y-73101597D01*
X146351271Y-73080781D01*
X146311611Y-73074500D01*
X146138389Y-73074500D01*
X146098728Y-73080781D01*
X145967302Y-73101597D01*
X145802552Y-73155128D01*
X145648211Y-73233768D01*
X145568256Y-73291859D01*
X145508072Y-73335586D01*
X145508070Y-73335588D01*
X145508069Y-73335588D01*
X145385588Y-73458069D01*
X145385588Y-73458070D01*
X145385586Y-73458072D01*
X145341859Y-73518256D01*
X145283768Y-73598211D01*
X145205128Y-73752552D01*
X145151597Y-73917302D01*
X145124500Y-74088389D01*
X132363360Y-74088389D01*
X130037543Y-71762572D01*
X130005449Y-71706984D01*
X129837986Y-71082002D01*
X129837986Y-71082001D01*
X129836145Y-71075130D01*
X129836328Y-71067428D01*
X130351718Y-71067428D01*
X130519951Y-71695280D01*
X130566146Y-71682903D01*
X130566150Y-71682902D01*
X130622013Y-71661305D01*
X130622015Y-71661304D01*
X130739126Y-71577909D01*
X130739129Y-71577906D01*
X130828007Y-71464887D01*
X130881443Y-71331414D01*
X130881445Y-71331405D01*
X130895112Y-71188287D01*
X130895111Y-71188280D01*
X130885886Y-71129118D01*
X130834681Y-70938019D01*
X130351718Y-71067428D01*
X129836328Y-71067428D01*
X129837808Y-71005280D01*
X129876971Y-70947418D01*
X129923826Y-70923263D01*
X130045532Y-70890651D01*
X130012921Y-70768946D01*
X130014584Y-70699096D01*
X130053746Y-70641233D01*
X130100602Y-70617077D01*
X130705271Y-70455055D01*
X130654073Y-70263978D01*
X130654066Y-70263956D01*
X130632476Y-70208110D01*
X130549073Y-70090986D01*
X130549072Y-70090985D01*
X130443341Y-70007839D01*
X130402812Y-69950926D01*
X130399487Y-69881135D01*
X130434421Y-69820626D01*
X130450549Y-69807638D01*
X130458018Y-69802591D01*
X130632649Y-69672022D01*
X130792112Y-69540279D01*
X130937095Y-69408010D01*
X131068289Y-69275865D01*
X131186381Y-69144493D01*
X131292062Y-69014543D01*
X131386020Y-68886665D01*
X131541526Y-68639719D01*
X131658410Y-68408849D01*
X131660441Y-68403766D01*
X131662597Y-68398702D01*
X131662922Y-68397981D01*
X131662929Y-68397969D01*
X131746706Y-68188369D01*
X131802887Y-68005231D01*
X131836988Y-67853751D01*
X131854519Y-67739120D01*
X131861929Y-67641183D01*
X131861928Y-67641183D01*
X131681970Y-67663242D01*
X131388450Y-67699223D01*
X131388427Y-67699225D01*
X131388419Y-67699227D01*
X131087012Y-67738873D01*
X130240432Y-67850229D01*
X129541168Y-67949760D01*
X129064725Y-68022940D01*
X128826509Y-68059529D01*
X128147505Y-68175209D01*
X127555306Y-68292454D01*
X126988228Y-68428934D01*
X126345677Y-68601852D01*
X125020461Y-68989635D01*
X123511551Y-69462053D01*
X123508593Y-69472443D01*
X123508594Y-69472444D01*
X123584352Y-69560110D01*
X123678380Y-69658982D01*
X123748377Y-69726401D01*
X123809233Y-69785017D01*
X123809248Y-69785031D01*
X123976504Y-69931108D01*
X124179692Y-70090068D01*
X124294626Y-70172150D01*
X124418373Y-70254776D01*
X124433193Y-70263978D01*
X124540273Y-70330467D01*
X124550898Y-70337064D01*
X124692107Y-70418099D01*
X124841971Y-70497004D01*
X124841978Y-70497007D01*
X124841985Y-70497011D01*
X125000451Y-70572894D01*
X125167454Y-70644859D01*
X125342940Y-70712014D01*
X125526853Y-70773465D01*
X125719137Y-70828320D01*
X125919735Y-70875687D01*
X126128592Y-70914673D01*
X126345652Y-70944386D01*
X126570859Y-70963932D01*
X126672213Y-70967619D01*
X126738492Y-70989728D01*
X126782297Y-71044161D01*
X126789719Y-71113635D01*
X126760934Y-71173294D01*
X126722301Y-71217347D01*
X126696661Y-71292876D01*
X126700561Y-71352379D01*
X126768181Y-71604742D01*
X126766518Y-71674592D01*
X126736087Y-71724516D01*
X123822424Y-74638181D01*
X123761101Y-74671666D01*
X123734743Y-74674500D01*
X122074500Y-74674500D01*
X122007461Y-74654815D01*
X121961706Y-74602011D01*
X121950500Y-74550500D01*
X121950500Y-74441739D01*
X121940573Y-74373608D01*
X121940573Y-74373607D01*
X121889198Y-74268517D01*
X121889196Y-74268515D01*
X121889196Y-74268514D01*
X121806485Y-74185803D01*
X121701391Y-74134426D01*
X121633261Y-74124500D01*
X121633260Y-74124500D01*
X121268033Y-74124500D01*
X121200994Y-74104815D01*
X121170051Y-74076497D01*
X121167679Y-74073439D01*
X121051561Y-73957321D01*
X121051552Y-73957314D01*
X120910196Y-73873717D01*
X120910193Y-73873716D01*
X120752494Y-73827900D01*
X120752497Y-73827900D01*
X120750000Y-73827703D01*
X120750000Y-74863500D01*
X120730315Y-74930539D01*
X120677511Y-74976294D01*
X120626000Y-74987500D01*
X120374000Y-74987500D01*
X120306961Y-74967815D01*
X120261206Y-74915011D01*
X120250000Y-74863500D01*
X120250000Y-73827703D01*
X120247503Y-73827900D01*
X120089806Y-73873716D01*
X120089803Y-73873717D01*
X119948447Y-73957314D01*
X119948442Y-73957318D01*
X119832316Y-74073445D01*
X119829944Y-74076504D01*
X119827475Y-74078286D01*
X119826802Y-74078960D01*
X119826693Y-74078851D01*
X119773300Y-74117409D01*
X119731967Y-74124500D01*
X119366739Y-74124500D01*
X119298608Y-74134426D01*
X119193514Y-74185803D01*
X119110803Y-74268514D01*
X119059426Y-74373608D01*
X119049500Y-74441739D01*
X119049500Y-74563000D01*
X119029815Y-74630039D01*
X118977011Y-74675794D01*
X118925500Y-74687000D01*
X118492938Y-74687000D01*
X118462367Y-74695191D01*
X118416508Y-74707479D01*
X118416507Y-74707480D01*
X118369641Y-74734539D01*
X118369640Y-74734539D01*
X118347995Y-74747035D01*
X118347987Y-74747041D01*
X110809541Y-82285487D01*
X110809535Y-82285495D01*
X110769982Y-82354004D01*
X110769979Y-82354011D01*
X110762319Y-82382595D01*
X110725956Y-82442254D01*
X110663110Y-82472783D01*
X110642546Y-82474500D01*
X109930247Y-82474500D01*
X109871770Y-82486131D01*
X109871769Y-82486132D01*
X109805447Y-82530447D01*
X109761132Y-82596769D01*
X109761131Y-82596770D01*
X109749500Y-82655247D01*
X109749500Y-83894752D01*
X109761131Y-83953229D01*
X109761132Y-83953230D01*
X109805447Y-84019552D01*
X109871769Y-84063867D01*
X109871770Y-84063868D01*
X109930247Y-84075499D01*
X109930250Y-84075500D01*
X109930252Y-84075500D01*
X112169750Y-84075500D01*
X112169751Y-84075499D01*
X112184568Y-84072552D01*
X112228229Y-84063868D01*
X112228229Y-84063867D01*
X112228231Y-84063867D01*
X112294552Y-84019552D01*
X112338867Y-83953231D01*
X112338867Y-83953229D01*
X112338868Y-83953229D01*
X112350499Y-83894752D01*
X112350500Y-83894750D01*
X112350500Y-82655249D01*
X112350499Y-82655247D01*
X112338868Y-82596770D01*
X112338867Y-82596769D01*
X112294552Y-82530447D01*
X112228230Y-82486132D01*
X112228229Y-82486131D01*
X112169752Y-82474500D01*
X112169748Y-82474500D01*
X111769833Y-82474500D01*
X111702794Y-82454815D01*
X111657039Y-82402011D01*
X111647095Y-82332853D01*
X111676120Y-82269297D01*
X111682152Y-82262819D01*
X113082819Y-80862152D01*
X113144142Y-80828667D01*
X113213834Y-80833651D01*
X113269767Y-80875523D01*
X113294184Y-80940987D01*
X113294500Y-80949833D01*
X113294500Y-82444752D01*
X113306131Y-82503229D01*
X113306132Y-82503230D01*
X113350447Y-82569552D01*
X113416769Y-82613867D01*
X113416770Y-82613868D01*
X113475247Y-82625499D01*
X113475250Y-82625500D01*
X113475252Y-82625500D01*
X115024750Y-82625500D01*
X115024751Y-82625499D01*
X115039568Y-82622552D01*
X115083229Y-82613868D01*
X115083229Y-82613867D01*
X115083231Y-82613867D01*
X115149552Y-82569552D01*
X115193867Y-82503231D01*
X115193867Y-82503229D01*
X115193868Y-82503229D01*
X115203182Y-82456403D01*
X115205500Y-82444748D01*
X115205500Y-80748322D01*
X119525001Y-80748322D01*
X119535144Y-80847607D01*
X119588452Y-81008481D01*
X119588457Y-81008492D01*
X119677424Y-81152728D01*
X119677427Y-81152732D01*
X119797267Y-81272572D01*
X119797271Y-81272575D01*
X119941507Y-81361542D01*
X119941518Y-81361547D01*
X120102393Y-81414855D01*
X120201683Y-81424999D01*
X120750000Y-81424999D01*
X120798308Y-81424999D01*
X120798322Y-81424998D01*
X120897607Y-81414855D01*
X121058481Y-81361547D01*
X121058492Y-81361542D01*
X121202728Y-81272575D01*
X121202732Y-81272572D01*
X121322572Y-81152732D01*
X121322575Y-81152728D01*
X121411542Y-81008492D01*
X121411547Y-81008481D01*
X121464855Y-80847606D01*
X121474999Y-80748322D01*
X121475000Y-80748309D01*
X121475000Y-80725000D01*
X120750000Y-80725000D01*
X120750000Y-81424999D01*
X120201683Y-81424999D01*
X120249999Y-81424998D01*
X120250000Y-81424998D01*
X120250000Y-80725000D01*
X119525001Y-80725000D01*
X119525001Y-80748322D01*
X115205500Y-80748322D01*
X115205500Y-80605252D01*
X115205500Y-80605249D01*
X115205499Y-80605247D01*
X115193868Y-80546770D01*
X115193867Y-80546769D01*
X115149552Y-80480447D01*
X115083230Y-80436132D01*
X115083229Y-80436131D01*
X115024752Y-80424500D01*
X115024748Y-80424500D01*
X113819833Y-80424500D01*
X113752794Y-80404815D01*
X113707039Y-80352011D01*
X113697095Y-80282853D01*
X113726120Y-80219297D01*
X113732152Y-80212819D01*
X118620652Y-75324319D01*
X118647579Y-75309615D01*
X118673398Y-75293023D01*
X118679598Y-75292131D01*
X118681975Y-75290834D01*
X118708333Y-75288000D01*
X118925500Y-75288000D01*
X118992539Y-75307685D01*
X119038294Y-75360489D01*
X119049500Y-75412000D01*
X119049500Y-75533260D01*
X119059426Y-75601391D01*
X119110803Y-75706485D01*
X119193514Y-75789196D01*
X119193515Y-75789196D01*
X119193517Y-75789198D01*
X119298607Y-75840573D01*
X119328840Y-75844978D01*
X119366739Y-75850500D01*
X119575167Y-75850500D01*
X119642206Y-75870185D01*
X119687961Y-75922989D01*
X119697905Y-75992147D01*
X119668880Y-76055703D01*
X119662848Y-76062181D01*
X119490928Y-76234102D01*
X119365489Y-76359541D01*
X119352322Y-76372707D01*
X119344921Y-76380108D01*
X119306359Y-76403360D01*
X119307258Y-76405198D01*
X119193514Y-76460803D01*
X119110803Y-76543514D01*
X119059426Y-76648608D01*
X119049500Y-76716739D01*
X119049500Y-77808260D01*
X119059426Y-77876391D01*
X119110803Y-77981485D01*
X119193514Y-78064196D01*
X119193515Y-78064196D01*
X119193517Y-78064198D01*
X119298607Y-78115573D01*
X119330048Y-78120154D01*
X119366739Y-78125500D01*
X119366740Y-78125500D01*
X119733261Y-78125500D01*
X119755971Y-78122191D01*
X119801393Y-78115573D01*
X119906483Y-78064198D01*
X119906483Y-78064197D01*
X119915714Y-78059685D01*
X119916391Y-78061071D01*
X119923989Y-78054489D01*
X119947245Y-78051145D01*
X119969440Y-78043431D01*
X119981186Y-78046264D01*
X119993147Y-78044545D01*
X120014521Y-78054306D01*
X120037361Y-78059816D01*
X120045710Y-78068549D01*
X120056703Y-78073570D01*
X120069407Y-78093338D01*
X120085642Y-78110321D01*
X120088883Y-78123643D01*
X120094477Y-78132348D01*
X120099500Y-78167283D01*
X120099500Y-78223146D01*
X120079815Y-78290185D01*
X120031796Y-78333630D01*
X119996781Y-78351471D01*
X119996778Y-78351473D01*
X119900864Y-78447387D01*
X119839541Y-78480871D01*
X119769849Y-78475887D01*
X119751183Y-78467092D01*
X119693189Y-78433609D01*
X119693186Y-78433608D01*
X119565892Y-78399500D01*
X119434108Y-78399500D01*
X119306812Y-78433608D01*
X119192686Y-78499500D01*
X119192683Y-78499502D01*
X119099502Y-78592683D01*
X119099500Y-78592686D01*
X119033608Y-78706812D01*
X118999500Y-78834108D01*
X118999500Y-78965891D01*
X119033608Y-79093187D01*
X119066554Y-79150250D01*
X119099500Y-79207314D01*
X119192686Y-79300500D01*
X119306814Y-79366392D01*
X119434108Y-79400500D01*
X119434110Y-79400500D01*
X119565890Y-79400500D01*
X119565892Y-79400500D01*
X119693186Y-79366392D01*
X119726466Y-79347177D01*
X119794364Y-79330705D01*
X119860391Y-79353557D01*
X119885253Y-79377053D01*
X119893187Y-79386960D01*
X119901472Y-79403220D01*
X119925256Y-79427004D01*
X119929531Y-79432342D01*
X119940311Y-79458593D01*
X119953909Y-79483496D01*
X119953408Y-79490488D01*
X119956072Y-79496974D01*
X119950949Y-79524883D01*
X119948925Y-79553188D01*
X119944723Y-79558800D01*
X119943458Y-79565696D01*
X119924055Y-79586408D01*
X119907053Y-79609121D01*
X119897841Y-79615392D01*
X119797268Y-79677426D01*
X119677427Y-79797267D01*
X119677424Y-79797271D01*
X119588457Y-79941507D01*
X119588452Y-79941518D01*
X119535144Y-80102393D01*
X119525000Y-80201677D01*
X119525000Y-80225000D01*
X121474999Y-80225000D01*
X121474999Y-80201692D01*
X121474998Y-80201677D01*
X121464855Y-80102392D01*
X121411547Y-79941518D01*
X121411542Y-79941507D01*
X121322575Y-79797271D01*
X121322572Y-79797267D01*
X121202732Y-79677427D01*
X121202728Y-79677424D01*
X121102159Y-79615392D01*
X121055434Y-79563444D01*
X121044213Y-79494482D01*
X121072056Y-79430400D01*
X121079565Y-79422182D01*
X121098528Y-79403220D01*
X121159719Y-79283126D01*
X121159720Y-79283121D01*
X121175500Y-79183493D01*
X121175500Y-78666506D01*
X121159720Y-78566878D01*
X121159719Y-78566876D01*
X121159719Y-78566874D01*
X121098528Y-78446780D01*
X121098526Y-78446778D01*
X121098523Y-78446774D01*
X121003225Y-78351476D01*
X121003221Y-78351473D01*
X121003220Y-78351472D01*
X121000915Y-78350297D01*
X120968204Y-78333630D01*
X120957140Y-78323181D01*
X120943297Y-78316859D01*
X120932255Y-78299677D01*
X120917408Y-78285655D01*
X120913166Y-78269974D01*
X120905523Y-78258081D01*
X120900500Y-78223146D01*
X120900500Y-78167283D01*
X120920185Y-78100244D01*
X120972989Y-78054489D01*
X121042147Y-78044545D01*
X121083565Y-78061158D01*
X121084286Y-78059685D01*
X121093516Y-78064197D01*
X121093517Y-78064198D01*
X121198607Y-78115573D01*
X121230048Y-78120154D01*
X121266739Y-78125500D01*
X121266740Y-78125500D01*
X121633261Y-78125500D01*
X121669952Y-78120154D01*
X121701393Y-78115573D01*
X121708663Y-78112019D01*
X121740542Y-78096435D01*
X121809415Y-78084675D01*
X121873712Y-78112019D01*
X121882683Y-78120154D01*
X127688181Y-83925652D01*
X127721666Y-83986975D01*
X127724500Y-84013333D01*
X127724500Y-86464505D01*
X127704815Y-86531544D01*
X127652011Y-86577299D01*
X127582853Y-86587243D01*
X127519297Y-86558218D01*
X127512819Y-86552186D01*
X127404657Y-86444024D01*
X127236655Y-86331770D01*
X127232598Y-86329059D01*
X127232593Y-86329057D01*
X127041420Y-86249870D01*
X127041412Y-86249868D01*
X126838469Y-86209500D01*
X126838465Y-86209500D01*
X126631535Y-86209500D01*
X126631530Y-86209500D01*
X126428587Y-86249868D01*
X126428579Y-86249870D01*
X126237403Y-86329058D01*
X126065342Y-86444024D01*
X125919024Y-86590342D01*
X125804058Y-86762403D01*
X125724870Y-86953579D01*
X125724868Y-86953587D01*
X125684500Y-87156530D01*
X125684500Y-87363469D01*
X125724868Y-87566412D01*
X125724870Y-87566420D01*
X125804058Y-87757596D01*
X125919024Y-87929657D01*
X126065342Y-88075975D01*
X126065345Y-88075977D01*
X126237402Y-88190941D01*
X126428580Y-88270130D01*
X126573052Y-88298867D01*
X126631530Y-88310499D01*
X126631534Y-88310500D01*
X126631535Y-88310500D01*
X126838466Y-88310500D01*
X126838467Y-88310499D01*
X127041420Y-88270130D01*
X127232598Y-88190941D01*
X127404655Y-88075977D01*
X127452176Y-88028456D01*
X127512819Y-87967814D01*
X127574142Y-87934329D01*
X127643834Y-87939313D01*
X127699767Y-87981185D01*
X127724184Y-88046649D01*
X127724500Y-88055495D01*
X127724500Y-88589562D01*
X127733426Y-88622875D01*
X127744979Y-88665991D01*
X127744981Y-88665994D01*
X127772750Y-88714090D01*
X127772750Y-88714093D01*
X127772752Y-88714093D01*
X127784539Y-88734509D01*
X127784541Y-88734512D01*
X128287924Y-89237895D01*
X128321409Y-89299218D01*
X128316425Y-89368910D01*
X128314804Y-89373029D01*
X128264870Y-89493579D01*
X128264868Y-89493587D01*
X128224500Y-89696530D01*
X128224500Y-89903469D01*
X128264868Y-90106412D01*
X128264870Y-90106420D01*
X128344058Y-90297596D01*
X128459024Y-90469657D01*
X128605342Y-90615975D01*
X128605345Y-90615977D01*
X128777402Y-90730941D01*
X128968580Y-90810130D01*
X129171530Y-90850499D01*
X129171534Y-90850500D01*
X129171535Y-90850500D01*
X129378466Y-90850500D01*
X129378467Y-90850499D01*
X129581420Y-90810130D01*
X129772598Y-90730941D01*
X129944655Y-90615977D01*
X130090977Y-90469655D01*
X130205941Y-90297598D01*
X130285130Y-90106420D01*
X130325500Y-89903465D01*
X130325500Y-89696535D01*
X130285130Y-89493580D01*
X130205941Y-89302402D01*
X130090977Y-89130345D01*
X130090975Y-89130342D01*
X129944657Y-88984024D01*
X129777616Y-88872412D01*
X129772598Y-88869059D01*
X129720002Y-88847273D01*
X129581420Y-88789870D01*
X129581412Y-88789868D01*
X129378469Y-88749500D01*
X129378465Y-88749500D01*
X129171535Y-88749500D01*
X129171530Y-88749500D01*
X128968587Y-88789868D01*
X128968579Y-88789870D01*
X128848029Y-88839804D01*
X128778559Y-88847273D01*
X128716080Y-88815998D01*
X128712895Y-88812924D01*
X128488360Y-88588389D01*
X135824500Y-88588389D01*
X135824500Y-88635907D01*
X135824500Y-88761611D01*
X135828976Y-88789870D01*
X135838067Y-88847273D01*
X135851598Y-88932701D01*
X135905127Y-89097445D01*
X135983768Y-89251788D01*
X136085586Y-89391928D01*
X136208072Y-89514414D01*
X136348212Y-89616232D01*
X136502555Y-89694873D01*
X136667299Y-89748402D01*
X136838389Y-89775500D01*
X136838390Y-89775500D01*
X137011610Y-89775500D01*
X137011611Y-89775500D01*
X137182701Y-89748402D01*
X137347445Y-89694873D01*
X137501788Y-89616232D01*
X137641928Y-89514414D01*
X137764414Y-89391928D01*
X137866232Y-89251788D01*
X137944873Y-89097445D01*
X137998402Y-88932701D01*
X138025500Y-88761611D01*
X138025500Y-88588389D01*
X137998402Y-88417299D01*
X137944873Y-88252555D01*
X137866232Y-88098212D01*
X137764414Y-87958072D01*
X137641928Y-87835586D01*
X137501788Y-87733768D01*
X137347445Y-87655127D01*
X137182701Y-87601598D01*
X137182699Y-87601597D01*
X137182698Y-87601597D01*
X137051271Y-87580781D01*
X137011611Y-87574500D01*
X136838389Y-87574500D01*
X136798728Y-87580781D01*
X136667302Y-87601597D01*
X136502552Y-87655128D01*
X136348211Y-87733768D01*
X136268256Y-87791859D01*
X136208072Y-87835586D01*
X136208070Y-87835588D01*
X136208069Y-87835588D01*
X136085588Y-87958069D01*
X136085588Y-87958070D01*
X136085586Y-87958072D01*
X136067692Y-87982701D01*
X135983768Y-88098211D01*
X135905128Y-88252552D01*
X135905127Y-88252554D01*
X135905127Y-88252555D01*
X135899416Y-88270131D01*
X135851597Y-88417302D01*
X135831104Y-88546694D01*
X135824500Y-88588389D01*
X128488360Y-88588389D01*
X128361819Y-88461848D01*
X128328334Y-88400525D01*
X128325500Y-88374167D01*
X128325500Y-88095495D01*
X128345185Y-88028456D01*
X128397989Y-87982701D01*
X128467147Y-87972757D01*
X128530703Y-88001782D01*
X128537181Y-88007814D01*
X128605342Y-88075975D01*
X128605345Y-88075977D01*
X128777402Y-88190941D01*
X128968580Y-88270130D01*
X129113052Y-88298867D01*
X129171530Y-88310499D01*
X129171534Y-88310500D01*
X129171535Y-88310500D01*
X129378466Y-88310500D01*
X129378467Y-88310499D01*
X129581420Y-88270130D01*
X129772598Y-88190941D01*
X129944655Y-88075977D01*
X130090977Y-87929655D01*
X130205941Y-87757598D01*
X130285130Y-87566420D01*
X130325500Y-87363465D01*
X130325500Y-87156535D01*
X130285130Y-86953580D01*
X130205941Y-86762402D01*
X130090977Y-86590345D01*
X130090975Y-86590342D01*
X129944657Y-86444024D01*
X129772595Y-86329057D01*
X129652047Y-86279124D01*
X129597643Y-86235282D01*
X129575579Y-86168988D01*
X129575500Y-86164563D01*
X129575500Y-83460439D01*
X129572703Y-83450000D01*
X129555021Y-83384011D01*
X129520374Y-83324000D01*
X129515464Y-83315495D01*
X129515458Y-83315487D01*
X122084512Y-75884541D01*
X122084504Y-75884535D01*
X122015995Y-75844982D01*
X122015987Y-75844978D01*
X121989449Y-75837867D01*
X121929790Y-75801500D01*
X121899262Y-75738652D01*
X121907559Y-75669277D01*
X121910146Y-75663632D01*
X121940573Y-75601392D01*
X121950500Y-75533260D01*
X121950500Y-75399500D01*
X121970185Y-75332461D01*
X122022989Y-75286706D01*
X122074500Y-75275500D01*
X123950136Y-75275500D01*
X123950138Y-75275500D01*
X124026565Y-75255021D01*
X124095087Y-75215460D01*
X124151036Y-75159511D01*
X126979789Y-72330756D01*
X127041110Y-72297273D01*
X127067550Y-72296170D01*
X127067525Y-72295779D01*
X127079709Y-72294980D01*
X127079712Y-72294981D01*
X127139213Y-72291081D01*
X127486604Y-72197998D01*
X127556452Y-72199661D01*
X127614315Y-72238824D01*
X127637096Y-72280929D01*
X127642411Y-72298009D01*
X127642411Y-72307473D01*
X127662890Y-72383900D01*
X127669537Y-72395413D01*
X127676443Y-72407375D01*
X127676444Y-72407377D01*
X127706515Y-72459461D01*
X127703965Y-72460933D01*
X127724069Y-72512921D01*
X127724500Y-72523249D01*
X127724500Y-72615891D01*
X127758608Y-72743187D01*
X127791554Y-72800250D01*
X127824500Y-72857314D01*
X127917686Y-72950500D01*
X128031814Y-73016392D01*
X128159108Y-73050500D01*
X128159110Y-73050500D01*
X128290890Y-73050500D01*
X128290892Y-73050500D01*
X128418186Y-73016392D01*
X128532314Y-72950500D01*
X128625500Y-72857314D01*
X128691392Y-72743186D01*
X128725500Y-72615892D01*
X128725500Y-72484108D01*
X128691392Y-72356814D01*
X128625500Y-72242686D01*
X128532314Y-72149500D01*
X128508355Y-72135667D01*
X128460141Y-72085101D01*
X128446917Y-72016494D01*
X128472885Y-71951630D01*
X128529799Y-71911101D01*
X128562242Y-71904546D01*
X128588102Y-71902852D01*
X129012622Y-71789102D01*
X129020168Y-71785381D01*
X129067886Y-71761850D01*
X129136718Y-71749854D01*
X129201109Y-71776975D01*
X129210410Y-71785381D01*
X139002183Y-81577154D01*
X139058132Y-81633103D01*
X139058134Y-81633104D01*
X139058138Y-81633107D01*
X139109617Y-81662828D01*
X139126654Y-81672664D01*
X139203081Y-81693143D01*
X139282205Y-81693143D01*
X150032500Y-81693143D01*
X150099539Y-81712828D01*
X150145294Y-81765632D01*
X150154184Y-81806500D01*
X150155903Y-81806331D01*
X150156500Y-81812395D01*
X150168131Y-81870872D01*
X150168132Y-81870873D01*
X150212447Y-81937195D01*
X150278769Y-81981510D01*
X150278770Y-81981511D01*
X150337247Y-81993142D01*
X150337250Y-81993143D01*
X150337252Y-81993143D01*
X150876748Y-81993143D01*
X150908308Y-81986865D01*
X150977898Y-81993091D01*
X151033076Y-82035953D01*
X151056322Y-82101842D01*
X151056500Y-82108482D01*
X151056500Y-82984323D01*
X151036815Y-83051362D01*
X151020182Y-83072004D01*
X150949500Y-83142686D01*
X150883608Y-83256812D01*
X150849528Y-83384004D01*
X150849500Y-83384108D01*
X150849500Y-83515892D01*
X150860616Y-83557379D01*
X150883608Y-83643187D01*
X150916554Y-83700250D01*
X150949500Y-83757314D01*
X151042686Y-83850500D01*
X151156814Y-83916392D01*
X151284108Y-83950500D01*
X151284110Y-83950500D01*
X151415890Y-83950500D01*
X151415892Y-83950500D01*
X151543186Y-83916392D01*
X151657314Y-83850500D01*
X151750500Y-83757314D01*
X151816392Y-83643186D01*
X151850500Y-83515892D01*
X151850500Y-83384108D01*
X151816392Y-83256814D01*
X151750500Y-83142686D01*
X151693818Y-83086004D01*
X151660334Y-83024682D01*
X151657500Y-82998324D01*
X151657500Y-82108482D01*
X151677185Y-82041443D01*
X151729989Y-81995688D01*
X151799147Y-81985744D01*
X151805668Y-81986860D01*
X151837252Y-81993143D01*
X152276750Y-81993143D01*
X152276751Y-81993142D01*
X152291568Y-81990195D01*
X152335229Y-81981511D01*
X152335229Y-81981510D01*
X152335231Y-81981510D01*
X152401552Y-81937195D01*
X152445867Y-81870874D01*
X152445868Y-81870871D01*
X152446360Y-81869686D01*
X152448121Y-81867500D01*
X152452652Y-81860720D01*
X152453258Y-81861125D01*
X152458901Y-81854123D01*
X152467206Y-81835940D01*
X152480378Y-81827474D01*
X152490203Y-81815284D01*
X152509168Y-81808972D01*
X152525984Y-81798166D01*
X152553552Y-81794202D01*
X152556498Y-81793222D01*
X152560919Y-81793143D01*
X152640529Y-81793143D01*
X152707568Y-81812828D01*
X152753323Y-81865632D01*
X152760743Y-81892682D01*
X152761620Y-81892475D01*
X152763403Y-81900022D01*
X152813645Y-82034729D01*
X152813649Y-82034736D01*
X152899809Y-82149830D01*
X152899812Y-82149833D01*
X153014906Y-82235993D01*
X153014913Y-82235997D01*
X153149620Y-82286239D01*
X153149627Y-82286241D01*
X153209155Y-82292642D01*
X153209172Y-82292643D01*
X153257000Y-82292643D01*
X153257000Y-81516643D01*
X153276685Y-81449604D01*
X153329489Y-81403849D01*
X153381000Y-81392643D01*
X153633000Y-81392643D01*
X153700039Y-81412328D01*
X153745794Y-81465132D01*
X153757000Y-81516643D01*
X153757000Y-82292643D01*
X153804828Y-82292643D01*
X153804844Y-82292642D01*
X153864372Y-82286241D01*
X153864379Y-82286239D01*
X153999086Y-82235997D01*
X153999093Y-82235993D01*
X154114187Y-82149833D01*
X154114190Y-82149830D01*
X154200350Y-82034736D01*
X154200354Y-82034729D01*
X154250596Y-81900022D01*
X154250598Y-81900015D01*
X154256999Y-81840487D01*
X154257000Y-81840470D01*
X154257000Y-81614976D01*
X154276685Y-81547937D01*
X154329489Y-81502182D01*
X154398647Y-81492238D01*
X154462203Y-81521263D01*
X154468681Y-81527295D01*
X154524489Y-81583103D01*
X154524491Y-81583104D01*
X154524495Y-81583107D01*
X154579695Y-81614976D01*
X154593011Y-81622664D01*
X154669438Y-81643143D01*
X158907500Y-81643143D01*
X158974539Y-81662828D01*
X159020294Y-81715632D01*
X159029184Y-81756500D01*
X159030903Y-81756331D01*
X159031500Y-81762395D01*
X159043131Y-81820872D01*
X159043132Y-81820873D01*
X159087447Y-81887195D01*
X159153769Y-81931510D01*
X159153770Y-81931511D01*
X159212247Y-81943142D01*
X159212250Y-81943143D01*
X159212252Y-81943143D01*
X159751748Y-81943143D01*
X159783308Y-81936865D01*
X159852898Y-81943091D01*
X159908076Y-81985953D01*
X159931322Y-82051842D01*
X159931500Y-82058482D01*
X159931500Y-83034324D01*
X159911815Y-83101363D01*
X159895181Y-83122005D01*
X159849502Y-83167683D01*
X159849500Y-83167686D01*
X159783608Y-83281812D01*
X159749500Y-83409108D01*
X159749500Y-83540891D01*
X159783608Y-83668187D01*
X159814391Y-83721504D01*
X159849500Y-83782314D01*
X159942686Y-83875500D01*
X160056814Y-83941392D01*
X160184108Y-83975500D01*
X160184110Y-83975500D01*
X160315890Y-83975500D01*
X160315892Y-83975500D01*
X160443186Y-83941392D01*
X160557314Y-83875500D01*
X160650500Y-83782314D01*
X160716392Y-83668186D01*
X160750500Y-83540892D01*
X160750500Y-83497844D01*
X194725000Y-83497844D01*
X194731401Y-83557372D01*
X194731403Y-83557379D01*
X194781645Y-83692086D01*
X194781649Y-83692093D01*
X194867809Y-83807187D01*
X194867812Y-83807190D01*
X194982906Y-83893350D01*
X194982913Y-83893354D01*
X195117620Y-83943596D01*
X195117627Y-83943598D01*
X195177155Y-83949999D01*
X195177172Y-83950000D01*
X195375000Y-83950000D01*
X195375000Y-83450000D01*
X194725000Y-83450000D01*
X194725000Y-83497844D01*
X160750500Y-83497844D01*
X160750500Y-83409108D01*
X160716392Y-83281814D01*
X160650500Y-83167686D01*
X160568818Y-83086004D01*
X160535334Y-83024680D01*
X160532500Y-82998323D01*
X160532500Y-82058482D01*
X160552185Y-81991443D01*
X160604989Y-81945688D01*
X160674147Y-81935744D01*
X160680668Y-81936860D01*
X160712252Y-81943143D01*
X161151750Y-81943143D01*
X161151751Y-81943142D01*
X161166568Y-81940195D01*
X161210229Y-81931511D01*
X161210229Y-81931510D01*
X161210231Y-81931510D01*
X161276552Y-81887195D01*
X161320867Y-81820874D01*
X161320868Y-81820871D01*
X161321360Y-81819686D01*
X161323121Y-81817500D01*
X161327652Y-81810720D01*
X161328258Y-81811125D01*
X161333901Y-81804123D01*
X161342206Y-81785940D01*
X161355378Y-81777474D01*
X161365203Y-81765284D01*
X161384168Y-81758972D01*
X161400984Y-81748166D01*
X161428552Y-81744202D01*
X161431498Y-81743222D01*
X161435919Y-81743143D01*
X161515529Y-81743143D01*
X161582568Y-81762828D01*
X161628323Y-81815632D01*
X161635743Y-81842682D01*
X161636620Y-81842475D01*
X161638403Y-81850022D01*
X161688645Y-81984729D01*
X161688649Y-81984736D01*
X161774809Y-82099830D01*
X161774812Y-82099833D01*
X161889906Y-82185993D01*
X161889913Y-82185997D01*
X162024620Y-82236239D01*
X162024627Y-82236241D01*
X162084155Y-82242642D01*
X162084172Y-82242643D01*
X162132000Y-82242643D01*
X162132000Y-81466643D01*
X162151685Y-81399604D01*
X162204489Y-81353849D01*
X162256000Y-81342643D01*
X162508000Y-81342643D01*
X162575039Y-81362328D01*
X162620794Y-81415132D01*
X162632000Y-81466643D01*
X162632000Y-82242643D01*
X162679828Y-82242643D01*
X162679844Y-82242642D01*
X162739372Y-82236241D01*
X162739379Y-82236239D01*
X162874086Y-82185997D01*
X162874093Y-82185993D01*
X162989187Y-82099833D01*
X162989190Y-82099830D01*
X163075350Y-81984736D01*
X163075354Y-81984729D01*
X163125596Y-81850022D01*
X163125598Y-81850015D01*
X163131999Y-81790487D01*
X163132000Y-81790470D01*
X163132000Y-81482588D01*
X163151685Y-81415549D01*
X163204489Y-81369794D01*
X163273647Y-81359850D01*
X163288091Y-81362813D01*
X163335438Y-81375500D01*
X163335439Y-81375500D01*
X193595321Y-81375500D01*
X193595323Y-81375500D01*
X193671750Y-81355021D01*
X193740272Y-81315460D01*
X193796221Y-81259511D01*
X193838426Y-81217305D01*
X193899746Y-81183821D01*
X193969438Y-81188805D01*
X194025372Y-81230675D01*
X194033493Y-81242987D01*
X194033608Y-81243186D01*
X194099500Y-81357314D01*
X194192686Y-81450500D01*
X194306814Y-81516392D01*
X194434108Y-81550500D01*
X194434110Y-81550500D01*
X194565890Y-81550500D01*
X194565892Y-81550500D01*
X194693186Y-81516392D01*
X194807314Y-81450500D01*
X194812819Y-81444995D01*
X194874142Y-81411510D01*
X194943834Y-81416494D01*
X194999767Y-81458366D01*
X195024184Y-81523830D01*
X195024500Y-81532676D01*
X195024500Y-81969752D01*
X195036131Y-82028229D01*
X195036132Y-82028230D01*
X195080447Y-82094552D01*
X195146769Y-82138867D01*
X195147949Y-82139356D01*
X195150126Y-82141110D01*
X195156923Y-82145652D01*
X195156516Y-82146259D01*
X195163514Y-82151898D01*
X195181703Y-82160205D01*
X195190166Y-82173374D01*
X195202354Y-82183195D01*
X195208668Y-82202163D01*
X195219477Y-82218983D01*
X195223439Y-82246538D01*
X195224421Y-82249489D01*
X195224500Y-82253918D01*
X195224500Y-82333528D01*
X195204815Y-82400567D01*
X195152011Y-82446322D01*
X195124961Y-82453746D01*
X195125168Y-82454620D01*
X195117620Y-82456403D01*
X194982913Y-82506645D01*
X194982906Y-82506649D01*
X194867812Y-82592809D01*
X194867809Y-82592812D01*
X194781649Y-82707906D01*
X194781645Y-82707913D01*
X194731403Y-82842620D01*
X194731401Y-82842627D01*
X194725000Y-82902155D01*
X194725000Y-82950000D01*
X195501000Y-82950000D01*
X195568039Y-82969685D01*
X195613794Y-83022489D01*
X195625000Y-83074000D01*
X195625000Y-83200000D01*
X195751000Y-83200000D01*
X195818039Y-83219685D01*
X195863794Y-83272489D01*
X195875000Y-83324000D01*
X195875000Y-83950000D01*
X196072828Y-83950000D01*
X196072844Y-83949999D01*
X196132372Y-83943598D01*
X196132376Y-83943597D01*
X196225077Y-83909022D01*
X196294769Y-83904038D01*
X196356092Y-83937523D01*
X196389577Y-83998846D01*
X196392411Y-84025305D01*
X196385333Y-92718503D01*
X196383165Y-92741486D01*
X196380815Y-92753889D01*
X196379476Y-92756504D01*
X196378786Y-92759045D01*
X196378385Y-92764261D01*
X196378327Y-92764468D01*
X196377477Y-92766144D01*
X196377466Y-92767245D01*
X196375072Y-92770887D01*
X196356481Y-92807556D01*
X196356430Y-92807621D01*
X196349098Y-92815889D01*
X196348995Y-92816092D01*
X196348837Y-92816183D01*
X196346555Y-92818758D01*
X196346531Y-92818782D01*
X196341186Y-92822452D01*
X196339095Y-92825635D01*
X196309211Y-92844414D01*
X196309184Y-92844426D01*
X196302821Y-92845776D01*
X196302990Y-92846195D01*
X196293200Y-92850123D01*
X196262521Y-92858069D01*
X189218293Y-93745252D01*
X189190171Y-93745579D01*
X189179405Y-93744477D01*
X189156107Y-93734965D01*
X189155353Y-93736788D01*
X189152692Y-93735686D01*
X189153441Y-93733877D01*
X189152682Y-93733567D01*
X189124993Y-93725437D01*
X189120093Y-93720263D01*
X189114719Y-93718069D01*
X189105276Y-93704616D01*
X189084219Y-93682379D01*
X189084194Y-93682335D01*
X189079337Y-93667659D01*
X189074579Y-93660880D01*
X189074225Y-93652210D01*
X189068936Y-93636228D01*
X189067981Y-93628470D01*
X189070155Y-93628202D01*
X189065520Y-93610616D01*
X189065520Y-92235043D01*
X189065227Y-92234750D01*
X189064813Y-92234750D01*
X189064812Y-92234750D01*
X188487145Y-92235817D01*
X187697361Y-92237277D01*
X187697360Y-92237276D01*
X187696520Y-92237278D01*
X187676956Y-92237315D01*
X187676840Y-92237276D01*
X187676759Y-92237315D01*
X187676667Y-92237316D01*
X187676579Y-92237404D01*
X187676468Y-92237459D01*
X187676438Y-92237546D01*
X187676375Y-92237610D01*
X187676375Y-92237733D01*
X187676335Y-92237851D01*
X187676375Y-92237932D01*
X187676375Y-92238272D01*
X187677636Y-92241044D01*
X187682216Y-92252014D01*
X187685682Y-92256823D01*
X187896584Y-92684888D01*
X187901322Y-92695795D01*
X187905849Y-92707755D01*
X187909593Y-92719332D01*
X187946900Y-92857534D01*
X187980660Y-92982594D01*
X187984911Y-93012009D01*
X187985178Y-93023415D01*
X187982153Y-93023485D01*
X187985292Y-93040072D01*
X187984074Y-93045019D01*
X187984366Y-93047278D01*
X187976856Y-93074343D01*
X187976837Y-93074390D01*
X187969688Y-93089173D01*
X187969613Y-93089305D01*
X187966902Y-93092441D01*
X187962225Y-93100584D01*
X187944092Y-93124759D01*
X187814532Y-93259529D01*
X187811893Y-93262192D01*
X187798023Y-93275773D01*
X187797417Y-93276095D01*
X187792086Y-93281221D01*
X187782078Y-93289820D01*
X187779313Y-93293382D01*
X187691336Y-93371575D01*
X187605594Y-93447781D01*
X187605092Y-93448227D01*
X187602185Y-93450730D01*
X187587548Y-93462950D01*
X187586745Y-93463298D01*
X187581227Y-93467890D01*
X187572721Y-93474103D01*
X187569105Y-93478135D01*
X187300355Y-93687181D01*
X187297467Y-93689361D01*
X187281718Y-93700890D01*
X187280726Y-93701247D01*
X187275048Y-93705447D01*
X187269018Y-93709284D01*
X187264603Y-93713647D01*
X187106711Y-93824638D01*
X187103764Y-93826647D01*
X187088100Y-93836998D01*
X187086986Y-93837340D01*
X187081420Y-93841115D01*
X187076972Y-93843665D01*
X187072087Y-93848134D01*
X186887742Y-93968848D01*
X186884644Y-93970811D01*
X186868350Y-93980805D01*
X186867153Y-93981129D01*
X186861364Y-93984785D01*
X186857016Y-93987078D01*
X186851872Y-93991504D01*
X186639644Y-94120745D01*
X186636439Y-94122631D01*
X186620102Y-94131920D01*
X186618907Y-94132201D01*
X186613075Y-94135623D01*
X186608837Y-94137685D01*
X186603558Y-94141919D01*
X186362414Y-94278218D01*
X186359186Y-94279980D01*
X186342268Y-94288891D01*
X186341045Y-94289137D01*
X186335053Y-94292398D01*
X186330731Y-94294328D01*
X186325295Y-94298415D01*
X186053943Y-94440449D01*
X186050532Y-94442168D01*
X186033566Y-94450393D01*
X186032296Y-94450605D01*
X186026172Y-94453685D01*
X186022359Y-94455235D01*
X186016693Y-94459198D01*
X185714077Y-94605506D01*
X185710636Y-94607105D01*
X185693088Y-94614936D01*
X185691782Y-94615112D01*
X185685530Y-94618015D01*
X185681503Y-94619502D01*
X185675686Y-94623328D01*
X185341245Y-94772237D01*
X185338095Y-94773587D01*
X185320050Y-94781031D01*
X185318872Y-94781155D01*
X185312664Y-94783807D01*
X185307821Y-94785452D01*
X185302167Y-94788921D01*
X184933995Y-94939366D01*
X184930705Y-94940657D01*
X184912618Y-94947453D01*
X184911388Y-94947543D01*
X184905052Y-94950020D01*
X184900755Y-94951325D01*
X184894879Y-94954669D01*
X184491365Y-95105390D01*
X184487768Y-95106671D01*
X184469841Y-95112745D01*
X184468523Y-95112799D01*
X184462102Y-95115089D01*
X184458476Y-95116059D01*
X184452327Y-95119313D01*
X184012823Y-95268673D01*
X184009104Y-95269872D01*
X183991100Y-95275364D01*
X183989745Y-95275378D01*
X183983245Y-95277481D01*
X183980077Y-95278224D01*
X183973762Y-95281316D01*
X183497394Y-95427794D01*
X183493770Y-95428848D01*
X183475262Y-95433928D01*
X183473922Y-95433904D01*
X183467346Y-95435824D01*
X183464062Y-95436497D01*
X183457702Y-95439388D01*
X182942940Y-95581668D01*
X182939150Y-95582651D01*
X182920814Y-95587101D01*
X182919437Y-95587035D01*
X182912819Y-95588765D01*
X182909913Y-95589270D01*
X182903395Y-95592009D01*
X182349416Y-95728561D01*
X182345822Y-95729391D01*
X182327292Y-95733378D01*
X182325992Y-95733282D01*
X182319385Y-95734813D01*
X182315620Y-95735370D01*
X182309157Y-95737905D01*
X181715285Y-95867195D01*
X181711765Y-95867908D01*
X181693008Y-95871426D01*
X181691739Y-95871298D01*
X181685169Y-95872638D01*
X181681365Y-95873102D01*
X181674909Y-95875428D01*
X181039519Y-95996142D01*
X181036014Y-95996756D01*
X181017130Y-95999785D01*
X181015854Y-95999622D01*
X181009185Y-96000797D01*
X181005164Y-96001177D01*
X180998597Y-96003370D01*
X180320574Y-96114064D01*
X180316840Y-96114615D01*
X180298157Y-96117084D01*
X180296819Y-96116876D01*
X180290115Y-96117881D01*
X180286777Y-96118102D01*
X180280023Y-96120158D01*
X179557901Y-96219438D01*
X179554194Y-96219891D01*
X179535618Y-96221877D01*
X179534316Y-96221641D01*
X179527669Y-96222470D01*
X179524298Y-96222612D01*
X179517544Y-96224482D01*
X178750404Y-96310865D01*
X178746773Y-96311220D01*
X178728172Y-96312762D01*
X178726799Y-96312479D01*
X178720277Y-96313164D01*
X178718353Y-96313200D01*
X178711460Y-96314957D01*
X178671681Y-96318837D01*
X178641769Y-96321754D01*
X178641724Y-96321758D01*
X178633931Y-96322519D01*
X178633757Y-96322516D01*
X178633733Y-96322538D01*
X178633699Y-96322542D01*
X178633602Y-96322658D01*
X178633516Y-96322668D01*
X178633075Y-96323671D01*
X178633319Y-96330095D01*
X178620051Y-97029145D01*
X178619749Y-97053863D01*
X178619747Y-97053867D01*
X178619749Y-97053874D01*
X178613361Y-97572727D01*
X178613143Y-97574142D01*
X178613143Y-97589778D01*
X178613135Y-97591165D01*
X178612886Y-97613338D01*
X178613194Y-97614895D01*
X178613524Y-97771273D01*
X178613513Y-97771286D01*
X178613524Y-97771473D01*
X178613525Y-97771670D01*
X178613533Y-97771678D01*
X178613542Y-97775124D01*
X178613614Y-97789384D01*
X178614339Y-97790999D01*
X178618099Y-97794571D01*
X184205607Y-103511474D01*
X185652512Y-104991887D01*
X186980808Y-106350943D01*
X186980921Y-106351059D01*
X186988703Y-106359041D01*
X186988710Y-106359075D01*
X186988782Y-106359122D01*
X186989004Y-106359350D01*
X186992709Y-106359376D01*
X187000884Y-106356910D01*
X209202444Y-101867109D01*
X209220509Y-101863469D01*
X209220515Y-101863473D01*
X209220558Y-101863460D01*
X209220851Y-101863401D01*
X209220907Y-101863356D01*
X209220912Y-101863355D01*
X209220914Y-101863350D01*
X209221551Y-101862845D01*
X209224379Y-101858137D01*
X209228063Y-101852629D01*
X209230558Y-101845486D01*
X209279720Y-101754427D01*
X209280222Y-101753497D01*
X209291922Y-101731867D01*
X209291959Y-101731829D01*
X209292157Y-101731435D01*
X209297170Y-101722252D01*
X209298766Y-101716492D01*
X209372218Y-101557995D01*
X209382458Y-101535952D01*
X209382496Y-101535907D01*
X209382664Y-101535510D01*
X209386470Y-101527399D01*
X209387788Y-101520892D01*
X209543426Y-101110137D01*
X209550161Y-101092384D01*
X209550171Y-101092380D01*
X209550198Y-101092287D01*
X209551814Y-101088029D01*
X209551831Y-101088005D01*
X209551899Y-101087807D01*
X209555403Y-101078622D01*
X209556218Y-101072195D01*
X209697065Y-100602153D01*
X209701720Y-100586631D01*
X209701730Y-100586626D01*
X209701764Y-100586483D01*
X209702712Y-100583324D01*
X209702718Y-100583313D01*
X209702754Y-100583184D01*
X209706504Y-100570728D01*
X209706863Y-100565558D01*
X209831831Y-100052689D01*
X209836072Y-100035301D01*
X209836078Y-100035298D01*
X209836099Y-100035190D01*
X209836682Y-100032803D01*
X209836690Y-100032787D01*
X209836742Y-100032559D01*
X209840574Y-100016982D01*
X209840653Y-100012642D01*
X209949717Y-99472787D01*
X209954337Y-99449952D01*
X209954350Y-99449927D01*
X209954423Y-99449535D01*
X209958161Y-99431376D01*
X209958063Y-99427605D01*
X210051825Y-98875512D01*
X210056412Y-98848541D01*
X210056422Y-98848520D01*
X210056491Y-98848079D01*
X210059573Y-98830355D01*
X210059445Y-98827169D01*
X210139949Y-98268910D01*
X210140399Y-98265786D01*
X210143619Y-98243491D01*
X210143620Y-98243491D01*
X210143624Y-98243455D01*
X210143831Y-98242024D01*
X210143837Y-98242009D01*
X210143893Y-98241597D01*
X210146834Y-98221719D01*
X210146640Y-98218990D01*
X210214761Y-97666598D01*
X210217396Y-97645258D01*
X210217398Y-97645257D01*
X210217403Y-97645195D01*
X210217608Y-97643542D01*
X210217614Y-97643527D01*
X210217649Y-97643213D01*
X210219791Y-97626234D01*
X210219570Y-97623285D01*
X210326268Y-96544292D01*
X210328246Y-96524308D01*
X210328250Y-96524306D01*
X210328257Y-96524204D01*
X210328422Y-96522540D01*
X210328426Y-96522530D01*
X210328446Y-96522298D01*
X210330369Y-96503246D01*
X210330023Y-96500258D01*
X210395132Y-95617836D01*
X210396957Y-95593178D01*
X210396963Y-95593161D01*
X210396988Y-95592764D01*
X210398608Y-95571806D01*
X210398167Y-95568909D01*
X210405078Y-95434387D01*
X210440931Y-94736472D01*
X210443615Y-94728808D01*
X210448753Y-94699057D01*
X210451011Y-94693070D01*
X210452034Y-94686889D01*
X210452126Y-94686648D01*
X210460300Y-94675900D01*
X210464212Y-94662975D01*
X210481040Y-94648633D01*
X210494425Y-94631037D01*
X210507112Y-94626415D01*
X210517390Y-94617657D01*
X210539301Y-94614690D01*
X210560075Y-94607123D01*
X210574747Y-94609890D01*
X210586628Y-94608282D01*
X210620410Y-94618504D01*
X210620440Y-94618518D01*
X210652773Y-94640387D01*
X210652852Y-94640461D01*
X210660057Y-94651424D01*
X210660745Y-94650793D01*
X210666667Y-94657242D01*
X210669856Y-94662054D01*
X210672866Y-94664706D01*
X210673809Y-94668019D01*
X210674250Y-94668685D01*
X210678365Y-94672117D01*
X210680024Y-94677397D01*
X210688164Y-94689680D01*
X212974329Y-99705069D01*
X212976597Y-99720889D01*
X212981248Y-99727379D01*
X212981830Y-99727236D01*
X212984659Y-99738708D01*
X212988107Y-99762114D01*
X212988719Y-99774177D01*
X212988604Y-99774655D01*
X212988629Y-99775284D01*
X212988452Y-99775290D01*
X212985809Y-99786335D01*
X212987526Y-99798720D01*
X211923001Y-106948779D01*
X211915888Y-106964150D01*
X211916062Y-106970967D01*
X211917302Y-106971398D01*
X211913449Y-106982501D01*
X211902296Y-107006201D01*
X211902177Y-107006397D01*
X211889979Y-107023150D01*
X211889832Y-107023320D01*
X211870565Y-107041317D01*
X211860971Y-107048532D01*
X211858944Y-107045836D01*
X211850559Y-107053486D01*
X211848765Y-107053790D01*
X211841108Y-107060809D01*
X207447456Y-109222200D01*
X207422855Y-109231217D01*
X207411994Y-109233938D01*
X207408566Y-109233800D01*
X207408017Y-109233987D01*
X207403975Y-109234489D01*
X207397323Y-109236687D01*
X207397140Y-109236710D01*
X207369488Y-109232231D01*
X207342181Y-109231135D01*
X207336008Y-109226808D01*
X207328169Y-109225539D01*
X207305067Y-109211181D01*
X207305025Y-109211148D01*
X207296400Y-109199048D01*
X207284965Y-109191033D01*
X207277257Y-109172189D01*
X207264472Y-109154252D01*
X207263746Y-109139159D01*
X207258513Y-109126365D01*
X207259875Y-109118999D01*
X207259080Y-109119055D01*
X207258492Y-109110696D01*
X207262589Y-109069245D01*
X208374305Y-105009830D01*
X208379189Y-104992091D01*
X208379215Y-104992052D01*
X208379208Y-104992021D01*
X208379259Y-104991838D01*
X208379128Y-104991648D01*
X208379128Y-104991647D01*
X208379126Y-104991645D01*
X208379000Y-104991463D01*
X208378219Y-104991317D01*
X208374399Y-104991958D01*
X208366647Y-104992953D01*
X208360053Y-104995461D01*
X186557766Y-109697573D01*
X186533453Y-109700347D01*
X186521457Y-109700524D01*
X186520809Y-109700344D01*
X186497830Y-109698606D01*
X186497606Y-109698566D01*
X186457387Y-109682733D01*
X186454135Y-109681830D01*
X186453615Y-109681248D01*
X186452139Y-109680667D01*
X186442401Y-109674379D01*
X186444534Y-109671075D01*
X186444053Y-109670536D01*
X186424052Y-109660389D01*
X186423983Y-109660324D01*
X175580547Y-99439048D01*
X175558893Y-99411978D01*
X175554575Y-99404683D01*
X175552818Y-99397771D01*
X175545809Y-99386707D01*
X175545683Y-99386385D01*
X175537193Y-99344190D01*
X175537117Y-99341061D01*
X175534854Y-99329738D01*
X175606358Y-96523947D01*
X175606360Y-96523910D01*
X175606996Y-96499337D01*
X175606932Y-96499186D01*
X175606804Y-96499057D01*
X175606559Y-96498958D01*
X175603972Y-96498947D01*
X175589507Y-96498590D01*
X175585236Y-96499395D01*
X175048979Y-96509105D01*
X175045007Y-96509113D01*
X175026056Y-96508849D01*
X175024597Y-96508398D01*
X175017808Y-96508459D01*
X175016638Y-96508364D01*
X175009389Y-96509473D01*
X174000639Y-96509649D01*
X173997011Y-96509597D01*
X173978104Y-96509047D01*
X173976811Y-96508626D01*
X173970141Y-96508558D01*
X173967478Y-96508308D01*
X173960508Y-96509251D01*
X172900858Y-96487866D01*
X172897270Y-96487741D01*
X172877972Y-96486792D01*
X172876777Y-96486376D01*
X172869878Y-96486128D01*
X172865686Y-96485645D01*
X172858873Y-96486391D01*
X170845656Y-96384745D01*
X170842012Y-96384507D01*
X170822891Y-96382976D01*
X170821860Y-96382581D01*
X170814941Y-96382081D01*
X170808545Y-96381150D01*
X170802161Y-96381612D01*
X168966867Y-96209333D01*
X168963375Y-96208956D01*
X168943657Y-96206540D01*
X168942684Y-96206120D01*
X168935712Y-96205303D01*
X168928963Y-96204027D01*
X168922734Y-96204187D01*
X167257630Y-95970205D01*
X167253807Y-95969606D01*
X167234676Y-95966306D01*
X167233638Y-95965796D01*
X167226520Y-95964616D01*
X167220007Y-95963036D01*
X167213524Y-95962908D01*
X165713486Y-95676442D01*
X165709969Y-95675717D01*
X165690802Y-95671478D01*
X165689927Y-95670996D01*
X165682941Y-95669468D01*
X165675384Y-95667269D01*
X165669369Y-95666831D01*
X164327194Y-95336783D01*
X164323441Y-95335797D01*
X164304623Y-95330540D01*
X164303698Y-95329963D01*
X164296606Y-95328005D01*
X164289354Y-95325437D01*
X164283173Y-95324655D01*
X163093311Y-94960288D01*
X163089762Y-94959143D01*
X163070990Y-94952771D01*
X163070185Y-94952205D01*
X163063210Y-94949836D01*
X163055364Y-94946571D01*
X163049568Y-94945476D01*
X162005149Y-94555719D01*
X162001635Y-94554346D01*
X161983078Y-94546770D01*
X161982321Y-94546166D01*
X161975346Y-94543301D01*
X161966948Y-94539182D01*
X161961350Y-94537774D01*
X161056689Y-94132002D01*
X161053421Y-94130479D01*
X161035034Y-94121581D01*
X161034417Y-94121022D01*
X161027683Y-94117715D01*
X161018071Y-94112240D01*
X161013099Y-94110636D01*
X160241451Y-93697855D01*
X160238233Y-93696072D01*
X160220362Y-93685819D01*
X160219800Y-93685233D01*
X160213126Y-93681331D01*
X160203570Y-93674939D01*
X160198886Y-93673029D01*
X159725259Y-93371544D01*
X159553024Y-93261908D01*
X159549943Y-93259882D01*
X159533100Y-93248443D01*
X159532663Y-93247912D01*
X159526253Y-93243443D01*
X159516101Y-93235483D01*
X159512069Y-93233441D01*
X158985408Y-92832953D01*
X158982377Y-92830573D01*
X158966800Y-92817945D01*
X158966455Y-92817445D01*
X158960327Y-92812315D01*
X158949061Y-92801810D01*
X158945802Y-92799808D01*
X158940001Y-92794473D01*
X158533668Y-92420756D01*
X158531136Y-92418360D01*
X158515807Y-92403442D01*
X158515673Y-92403205D01*
X158509949Y-92397338D01*
X158497414Y-92383352D01*
X158497473Y-92383299D01*
X158495555Y-92381823D01*
X158187488Y-92029913D01*
X158184889Y-92026845D01*
X158172904Y-92012217D01*
X158167918Y-92005704D01*
X158156785Y-91990118D01*
X158154511Y-91986822D01*
X157941620Y-91667454D01*
X157929744Y-91644900D01*
X157928931Y-91643649D01*
X157928753Y-91643057D01*
X157917775Y-91622146D01*
X157803870Y-91337569D01*
X157803561Y-91335968D01*
X157794991Y-91315280D01*
X157794991Y-91315276D01*
X157794987Y-91315272D01*
X157794949Y-91315179D01*
X157794800Y-91315026D01*
X157794604Y-91314945D01*
X157773339Y-91314660D01*
X157771118Y-91315087D01*
X141991121Y-91384751D01*
X141991119Y-91384751D01*
X141966362Y-91384861D01*
X141966137Y-91384861D01*
X141966136Y-91384861D01*
X141966135Y-91384862D01*
X141965989Y-91385009D01*
X141965844Y-91385154D01*
X141965843Y-91385156D01*
X141965844Y-91385363D01*
X141965844Y-91395292D01*
X141965844Y-93317610D01*
X141965103Y-93321930D01*
X141965663Y-93324304D01*
X141961252Y-93344387D01*
X141958762Y-93358917D01*
X141956397Y-93365611D01*
X141955960Y-93366216D01*
X141954708Y-93369367D01*
X141954602Y-93369324D01*
X141954210Y-93371344D01*
X141954128Y-93371544D01*
X141927078Y-93412185D01*
X141927059Y-93412204D01*
X141918468Y-93418157D01*
X141915504Y-93422264D01*
X141908664Y-93424951D01*
X141890690Y-93437408D01*
X141890668Y-93437418D01*
X141884754Y-93438698D01*
X141885132Y-93439641D01*
X141878901Y-93442137D01*
X141850824Y-93447678D01*
X141850474Y-93447816D01*
X141850301Y-93447781D01*
X141833873Y-93451024D01*
X136588466Y-93496779D01*
X136566671Y-93496970D01*
X136566663Y-93496963D01*
X136566445Y-93496972D01*
X136566267Y-93496974D01*
X136566263Y-93496976D01*
X136566254Y-93496977D01*
X136566193Y-93497007D01*
X136564897Y-93498372D01*
X136552806Y-93510747D01*
X136550952Y-93513675D01*
X136449391Y-93624530D01*
X136429556Y-93642008D01*
X136420346Y-93648521D01*
X136417719Y-93649420D01*
X136412484Y-93652356D01*
X136407612Y-93656417D01*
X136407523Y-93656465D01*
X136402103Y-93659219D01*
X136401969Y-93659283D01*
X136395706Y-93660859D01*
X136389656Y-93663641D01*
X136351733Y-93674201D01*
X134910645Y-93836531D01*
X134907005Y-93836886D01*
X134887913Y-93838468D01*
X134886704Y-93838219D01*
X134879946Y-93838871D01*
X134875324Y-93838955D01*
X134868753Y-93840570D01*
X133183908Y-93975453D01*
X133179992Y-93975704D01*
X133161203Y-93976611D01*
X133159780Y-93976266D01*
X133152957Y-93976734D01*
X133150793Y-93976694D01*
X133143694Y-93978234D01*
X132106921Y-94038579D01*
X132103117Y-94038741D01*
X132084549Y-94039250D01*
X132083150Y-94038880D01*
X132076513Y-94039210D01*
X132074878Y-94039148D01*
X132067803Y-94040539D01*
X130902221Y-94089498D01*
X130898269Y-94089601D01*
X130879451Y-94089791D01*
X130877984Y-94089376D01*
X130871195Y-94089599D01*
X130869939Y-94089527D01*
X130862711Y-94090821D01*
X129577906Y-94122668D01*
X129574332Y-94122705D01*
X129555504Y-94122629D01*
X129554203Y-94122241D01*
X129547556Y-94122342D01*
X129545305Y-94122188D01*
X129538379Y-94123291D01*
X128144218Y-94132296D01*
X128140657Y-94132268D01*
X128121523Y-94131842D01*
X128120232Y-94131431D01*
X128113549Y-94131408D01*
X128110647Y-94131155D01*
X128103670Y-94132164D01*
X126609970Y-94112610D01*
X126606125Y-94112500D01*
X126587365Y-94111672D01*
X126586008Y-94111207D01*
X126579228Y-94111044D01*
X126577075Y-94110806D01*
X126569921Y-94111671D01*
X124986037Y-94057836D01*
X124982418Y-94057660D01*
X124963344Y-94056453D01*
X124962075Y-94055991D01*
X124955332Y-94055685D01*
X124952276Y-94055291D01*
X124945274Y-94055998D01*
X123281252Y-93962187D01*
X123277321Y-93961903D01*
X123258212Y-93960215D01*
X123256849Y-93959680D01*
X123249985Y-93959210D01*
X123247950Y-93958892D01*
X123240743Y-93959425D01*
X121505817Y-93819904D01*
X121502232Y-93819563D01*
X121482938Y-93817446D01*
X121481711Y-93816934D01*
X121474879Y-93816293D01*
X121471340Y-93815667D01*
X121464343Y-93816039D01*
X119668471Y-93625122D01*
X119664666Y-93624658D01*
X119645833Y-93622065D01*
X119644581Y-93621502D01*
X119637725Y-93620673D01*
X119634484Y-93620005D01*
X119627378Y-93620185D01*
X117780466Y-93372213D01*
X117776923Y-93371685D01*
X117757564Y-93368514D01*
X117756548Y-93368026D01*
X117749677Y-93366958D01*
X117743676Y-93365570D01*
X117737226Y-93365505D01*
X116304816Y-93112338D01*
X116301333Y-93111670D01*
X116282253Y-93107720D01*
X116281413Y-93107272D01*
X116274509Y-93105856D01*
X116266078Y-93103537D01*
X116260248Y-93103201D01*
X114935429Y-92793571D01*
X114931944Y-92792703D01*
X114912963Y-92787683D01*
X114912135Y-92787182D01*
X114905243Y-92785371D01*
X114896802Y-92782540D01*
X114890941Y-92781895D01*
X113671802Y-92426212D01*
X113668380Y-92425160D01*
X113649472Y-92419046D01*
X113648655Y-92418489D01*
X113641833Y-92416297D01*
X113634446Y-92413361D01*
X113628538Y-92412351D01*
X112512054Y-92020605D01*
X112508750Y-92019392D01*
X112490144Y-92012254D01*
X112489341Y-92011641D01*
X112482641Y-92009089D01*
X112474992Y-92005562D01*
X112469104Y-92004265D01*
X111454739Y-91587240D01*
X111451190Y-91585716D01*
X111433066Y-91577596D01*
X111432178Y-91576838D01*
X111425454Y-91573868D01*
X111419248Y-91570561D01*
X111413017Y-91568835D01*
X110498035Y-91136489D01*
X110494776Y-91134890D01*
X110477189Y-91125941D01*
X110476422Y-91125217D01*
X110470066Y-91122017D01*
X110463863Y-91118330D01*
X110457994Y-91116356D01*
X109640307Y-90678812D01*
X109636959Y-90676954D01*
X109620099Y-90667251D01*
X109619297Y-90666412D01*
X109613001Y-90662841D01*
X109607404Y-90659097D01*
X109601344Y-90656745D01*
X108880209Y-90224864D01*
X108876918Y-90222822D01*
X108860408Y-90212220D01*
X108859614Y-90211304D01*
X108853477Y-90207430D01*
X108848548Y-90203769D01*
X108842479Y-90201073D01*
X108714810Y-90116310D01*
X108215752Y-89784971D01*
X108212616Y-89782818D01*
X108196435Y-89771343D01*
X108195673Y-89770378D01*
X108189727Y-89766235D01*
X108185200Y-89762538D01*
X108179228Y-89759549D01*
X107644991Y-89369429D01*
X107641976Y-89367156D01*
X107626305Y-89354964D01*
X107625727Y-89354161D01*
X107619890Y-89349617D01*
X107612949Y-89343424D01*
X107607861Y-89340542D01*
X107558937Y-89300000D01*
X106781453Y-88655714D01*
X106778752Y-88653409D01*
X106762900Y-88639488D01*
X106762616Y-88639040D01*
X106756700Y-88633655D01*
X106746004Y-88622875D01*
X106742986Y-88620819D01*
X106727392Y-88605247D01*
X113294500Y-88605247D01*
X113294500Y-90444752D01*
X113306131Y-90503229D01*
X113306132Y-90503230D01*
X113350447Y-90569552D01*
X113416769Y-90613867D01*
X113416770Y-90613868D01*
X113475247Y-90625499D01*
X113475250Y-90625500D01*
X113475252Y-90625500D01*
X115024750Y-90625500D01*
X115024751Y-90625499D01*
X115039568Y-90622552D01*
X115083229Y-90613868D01*
X115083229Y-90613867D01*
X115083231Y-90613867D01*
X115149552Y-90569552D01*
X115193867Y-90503231D01*
X115193867Y-90503229D01*
X115193868Y-90503229D01*
X115205499Y-90444752D01*
X115205500Y-90444750D01*
X115205500Y-89550000D01*
X122867769Y-89550000D01*
X123761988Y-89550000D01*
X123729075Y-89607007D01*
X123695000Y-89734174D01*
X123695000Y-89865826D01*
X123729075Y-89992993D01*
X123761988Y-90050000D01*
X122867769Y-90050000D01*
X122878242Y-90116126D01*
X122878242Y-90116129D01*
X122943904Y-90318217D01*
X123040379Y-90507557D01*
X123165272Y-90679459D01*
X123165276Y-90679464D01*
X123315535Y-90829723D01*
X123315540Y-90829727D01*
X123487442Y-90954620D01*
X123676782Y-91051095D01*
X123878871Y-91116757D01*
X123945000Y-91127231D01*
X123945000Y-90233012D01*
X124002007Y-90265925D01*
X124129174Y-90300000D01*
X124260826Y-90300000D01*
X124387993Y-90265925D01*
X124445000Y-90233012D01*
X124445000Y-91127230D01*
X124511126Y-91116757D01*
X124511129Y-91116757D01*
X124713217Y-91051095D01*
X124902557Y-90954620D01*
X125074459Y-90829727D01*
X125074464Y-90829723D01*
X125224723Y-90679464D01*
X125224727Y-90679459D01*
X125349620Y-90507557D01*
X125446095Y-90318217D01*
X125503343Y-90142026D01*
X125542780Y-90084351D01*
X125607139Y-90057152D01*
X125675985Y-90069066D01*
X125727461Y-90116310D01*
X125735835Y-90132891D01*
X125804058Y-90297596D01*
X125919024Y-90469657D01*
X126065342Y-90615975D01*
X126065345Y-90615977D01*
X126237402Y-90730941D01*
X126428580Y-90810130D01*
X126631530Y-90850499D01*
X126631534Y-90850500D01*
X126631535Y-90850500D01*
X126838466Y-90850500D01*
X126838467Y-90850499D01*
X127041420Y-90810130D01*
X127232598Y-90730941D01*
X127404655Y-90615977D01*
X127550977Y-90469655D01*
X127665941Y-90297598D01*
X127745130Y-90106420D01*
X127785500Y-89903465D01*
X127785500Y-89696535D01*
X127745130Y-89493580D01*
X127665941Y-89302402D01*
X127550977Y-89130345D01*
X127550975Y-89130342D01*
X127404657Y-88984024D01*
X127237616Y-88872412D01*
X127232598Y-88869059D01*
X127180002Y-88847273D01*
X127041420Y-88789870D01*
X127041412Y-88789868D01*
X126838469Y-88749500D01*
X126838465Y-88749500D01*
X126631535Y-88749500D01*
X126631530Y-88749500D01*
X126428587Y-88789868D01*
X126428579Y-88789870D01*
X126237403Y-88869058D01*
X126065342Y-88984024D01*
X125919024Y-89130342D01*
X125804057Y-89302403D01*
X125735835Y-89467108D01*
X125691994Y-89521511D01*
X125625700Y-89543576D01*
X125558000Y-89526297D01*
X125510390Y-89475159D01*
X125503343Y-89457973D01*
X125446095Y-89281782D01*
X125349620Y-89092442D01*
X125224727Y-88920540D01*
X125224723Y-88920535D01*
X125074464Y-88770276D01*
X125074459Y-88770272D01*
X124902557Y-88645379D01*
X124708879Y-88546694D01*
X124709396Y-88545678D01*
X124659192Y-88505221D01*
X124637127Y-88438927D01*
X124654406Y-88371228D01*
X124705542Y-88323617D01*
X124761048Y-88310500D01*
X125064750Y-88310500D01*
X125064751Y-88310499D01*
X125079568Y-88307552D01*
X125123229Y-88298868D01*
X125123229Y-88298867D01*
X125123231Y-88298867D01*
X125189552Y-88254552D01*
X125233867Y-88188231D01*
X125233867Y-88188229D01*
X125233868Y-88188229D01*
X125245499Y-88129752D01*
X125245500Y-88129750D01*
X125245500Y-86390249D01*
X125245499Y-86390247D01*
X125233868Y-86331770D01*
X125233867Y-86331769D01*
X125189552Y-86265447D01*
X125123230Y-86221132D01*
X125123229Y-86221131D01*
X125064752Y-86209500D01*
X125064748Y-86209500D01*
X123325252Y-86209500D01*
X123325247Y-86209500D01*
X123266770Y-86221131D01*
X123266769Y-86221132D01*
X123200447Y-86265447D01*
X123156132Y-86331769D01*
X123156131Y-86331770D01*
X123144500Y-86390247D01*
X123144500Y-88129752D01*
X123156131Y-88188229D01*
X123156132Y-88188230D01*
X123200447Y-88254552D01*
X123266769Y-88298867D01*
X123266770Y-88298868D01*
X123325247Y-88310499D01*
X123325250Y-88310500D01*
X123628952Y-88310500D01*
X123695991Y-88330185D01*
X123741746Y-88382989D01*
X123751690Y-88452147D01*
X123722665Y-88515703D01*
X123680735Y-88545938D01*
X123681121Y-88546694D01*
X123487442Y-88645379D01*
X123315540Y-88770272D01*
X123315535Y-88770276D01*
X123165276Y-88920535D01*
X123165272Y-88920540D01*
X123040379Y-89092442D01*
X122943904Y-89281782D01*
X122878242Y-89483870D01*
X122878242Y-89483873D01*
X122867769Y-89550000D01*
X115205500Y-89550000D01*
X115205500Y-88605249D01*
X115205499Y-88605247D01*
X115193868Y-88546770D01*
X115193867Y-88546769D01*
X115149552Y-88480447D01*
X115083230Y-88436132D01*
X115083229Y-88436131D01*
X115024752Y-88424500D01*
X115024748Y-88424500D01*
X113475252Y-88424500D01*
X113475247Y-88424500D01*
X113416770Y-88436131D01*
X113416769Y-88436132D01*
X113350447Y-88480447D01*
X113306132Y-88546769D01*
X113306131Y-88546770D01*
X113294500Y-88605247D01*
X106727392Y-88605247D01*
X106094946Y-87973693D01*
X106077961Y-87952538D01*
X106071962Y-87943114D01*
X106070903Y-87939452D01*
X106062051Y-87924090D01*
X106058761Y-87916169D01*
X106061134Y-87915183D01*
X106051612Y-87898631D01*
X105916700Y-87391089D01*
X105915809Y-87387522D01*
X105911092Y-87367376D01*
X105911121Y-87366837D01*
X105909419Y-87358914D01*
X105906885Y-87343255D01*
X105905647Y-87339923D01*
X105877420Y-87169412D01*
X105875075Y-87155247D01*
X109749500Y-87155247D01*
X109749500Y-88394752D01*
X109761131Y-88453229D01*
X109761132Y-88453230D01*
X109805447Y-88519552D01*
X109871769Y-88563867D01*
X109871770Y-88563868D01*
X109930247Y-88575499D01*
X109930250Y-88575500D01*
X109930252Y-88575500D01*
X112169750Y-88575500D01*
X112169751Y-88575499D01*
X112184568Y-88572552D01*
X112228229Y-88563868D01*
X112228229Y-88563867D01*
X112228231Y-88563867D01*
X112294552Y-88519552D01*
X112338867Y-88453231D01*
X112338867Y-88453229D01*
X112338868Y-88453229D01*
X112350499Y-88394752D01*
X112350500Y-88394750D01*
X112350500Y-87155249D01*
X112350499Y-87155247D01*
X112338868Y-87096770D01*
X112338867Y-87096769D01*
X112294552Y-87030447D01*
X112228230Y-86986132D01*
X112228229Y-86986131D01*
X112169752Y-86974500D01*
X112169748Y-86974500D01*
X111626485Y-86974500D01*
X111559446Y-86954815D01*
X111513691Y-86902011D01*
X111503747Y-86832853D01*
X111514675Y-86801278D01*
X111513280Y-86800700D01*
X111516387Y-86793193D01*
X111516392Y-86793186D01*
X111550500Y-86665892D01*
X111550500Y-86534108D01*
X111516392Y-86406814D01*
X111450500Y-86292686D01*
X111357314Y-86199500D01*
X111300250Y-86166554D01*
X111243187Y-86133608D01*
X111179539Y-86116554D01*
X111115892Y-86099500D01*
X110984108Y-86099500D01*
X110856812Y-86133608D01*
X110742686Y-86199500D01*
X110742683Y-86199502D01*
X110649502Y-86292683D01*
X110649500Y-86292686D01*
X110583608Y-86406812D01*
X110555374Y-86512186D01*
X110549500Y-86534108D01*
X110549500Y-86665892D01*
X110581125Y-86783921D01*
X110583609Y-86793188D01*
X110586720Y-86800700D01*
X110584122Y-86801775D01*
X110597375Y-86856397D01*
X110574524Y-86922425D01*
X110519604Y-86965617D01*
X110473515Y-86974500D01*
X109930247Y-86974500D01*
X109871770Y-86986131D01*
X109871769Y-86986132D01*
X109805447Y-87030447D01*
X109761132Y-87096769D01*
X109761131Y-87096770D01*
X109749500Y-87155247D01*
X105875075Y-87155247D01*
X105822097Y-86835222D01*
X105821532Y-86831442D01*
X105818841Y-86811291D01*
X105818946Y-86810607D01*
X105817989Y-86802567D01*
X105817084Y-86788002D01*
X105815972Y-86783921D01*
X105807294Y-86665890D01*
X105778592Y-86275536D01*
X105778374Y-86271772D01*
X105777496Y-86251223D01*
X105777678Y-86250485D01*
X105777431Y-86242467D01*
X105777807Y-86229005D01*
X105776984Y-86224444D01*
X105782727Y-85712494D01*
X105782831Y-85708609D01*
X105783687Y-85688508D01*
X105783962Y-85687698D01*
X105784360Y-85679857D01*
X105785735Y-85667691D01*
X105785234Y-85662612D01*
X105831219Y-85148910D01*
X105831636Y-85144975D01*
X105834088Y-85124903D01*
X105834491Y-85123966D01*
X105835475Y-85116155D01*
X105837385Y-85106381D01*
X105837267Y-85100609D01*
X105920690Y-84585929D01*
X105921381Y-84582067D01*
X105925254Y-84562216D01*
X105925756Y-84561247D01*
X105927245Y-84553642D01*
X105929653Y-84544718D01*
X105929925Y-84538668D01*
X106036232Y-84075499D01*
X106047861Y-84024830D01*
X106048830Y-84020907D01*
X106053904Y-84001715D01*
X106054517Y-84000701D01*
X106056441Y-83993330D01*
X106058945Y-83985998D01*
X106059639Y-83979623D01*
X106209230Y-83467945D01*
X106210376Y-83464247D01*
X106216602Y-83445217D01*
X106217283Y-83444224D01*
X106219582Y-83437082D01*
X106222195Y-83430651D01*
X106223275Y-83424197D01*
X106401583Y-82916256D01*
X106402898Y-82912688D01*
X106410165Y-82893874D01*
X106410915Y-82892895D01*
X106413528Y-82885989D01*
X106416282Y-82880104D01*
X106417695Y-82873617D01*
X106621735Y-82371030D01*
X106623321Y-82367301D01*
X106631471Y-82348975D01*
X106632217Y-82348095D01*
X106635360Y-82341010D01*
X106639568Y-82333118D01*
X106641214Y-82327090D01*
X106680002Y-82246538D01*
X107131255Y-81309402D01*
X107132927Y-81306062D01*
X107142395Y-81287843D01*
X107143036Y-81287174D01*
X107146652Y-81280306D01*
X107152429Y-81270863D01*
X107154225Y-81265718D01*
X107714096Y-80288336D01*
X107716099Y-80284967D01*
X107726616Y-80267904D01*
X107727469Y-80267136D01*
X107731414Y-80260696D01*
X107736215Y-80254001D01*
X107738674Y-80248217D01*
X108343301Y-79323980D01*
X108345491Y-79320748D01*
X108357002Y-79304325D01*
X108357995Y-79303532D01*
X108362237Y-79297386D01*
X108366497Y-79292132D01*
X108369444Y-79286088D01*
X108993992Y-78427193D01*
X108996448Y-78423933D01*
X109008423Y-78408565D01*
X109009534Y-78407766D01*
X109013925Y-78401985D01*
X109017318Y-78398201D01*
X109020697Y-78392037D01*
X109052863Y-78351472D01*
X109640289Y-77610654D01*
X109642927Y-77607441D01*
X109655378Y-77592788D01*
X109656584Y-77591996D01*
X109661099Y-77586504D01*
X109663807Y-77583726D01*
X109667523Y-77577538D01*
X110256462Y-76886748D01*
X110259061Y-76883797D01*
X110272304Y-76869234D01*
X110273542Y-76868479D01*
X110278218Y-76863161D01*
X110281047Y-76860447D01*
X110284960Y-76854340D01*
X110818004Y-76266512D01*
X110820838Y-76263491D01*
X110834493Y-76249420D01*
X110835677Y-76248749D01*
X110840778Y-76243383D01*
X110844783Y-76239797D01*
X110848792Y-76234105D01*
X112003297Y-75074674D01*
X112006023Y-75072021D01*
X112020749Y-75058118D01*
X112021219Y-75057878D01*
X112027203Y-75052435D01*
X112040693Y-75041362D01*
X112042734Y-75038838D01*
X112318217Y-74811986D01*
X112321370Y-74809475D01*
X112336851Y-74797551D01*
X112338219Y-74797018D01*
X112343738Y-74792612D01*
X112346527Y-74790752D01*
X112351478Y-74785428D01*
X112700838Y-74515091D01*
X112704092Y-74512658D01*
X112719744Y-74501350D01*
X112721158Y-74500849D01*
X112726708Y-74496669D01*
X112729415Y-74494978D01*
X112734565Y-74489709D01*
X113231147Y-74126142D01*
X113234431Y-74123820D01*
X113250218Y-74113037D01*
X113251603Y-74112587D01*
X113257260Y-74108566D01*
X113260307Y-74106772D01*
X113265540Y-74101708D01*
X113906864Y-73659402D01*
X113910300Y-73657117D01*
X113926758Y-73646563D01*
X113928225Y-73646133D01*
X113934163Y-73642169D01*
X113936797Y-73640727D01*
X113942278Y-73635747D01*
X114727091Y-73128384D01*
X114730589Y-73126206D01*
X114747002Y-73116367D01*
X114748428Y-73115996D01*
X114754382Y-73112277D01*
X114757803Y-73110530D01*
X114763352Y-73105760D01*
X115687930Y-72548634D01*
X115691362Y-72546641D01*
X115708398Y-72537108D01*
X115709780Y-72536792D01*
X115715942Y-72533219D01*
X115719533Y-72531520D01*
X115725126Y-72527054D01*
X116788674Y-71933630D01*
X116792385Y-71931644D01*
X116809535Y-71922839D01*
X116811005Y-71922558D01*
X116817329Y-71919174D01*
X116820907Y-71917640D01*
X116826792Y-71913242D01*
X118026053Y-71298447D01*
X118029836Y-71296589D01*
X118047276Y-71288391D01*
X118048827Y-71288150D01*
X118055166Y-71285010D01*
X118057796Y-71283989D01*
X118063943Y-71279679D01*
X118696704Y-70976907D01*
X118700316Y-70975252D01*
X118717677Y-70967628D01*
X118719201Y-70967431D01*
X118725352Y-70964559D01*
X118726989Y-70963966D01*
X118733153Y-70959893D01*
X119399613Y-70656468D01*
X119403454Y-70654798D01*
X119420910Y-70647563D01*
X119422503Y-70647391D01*
X119428730Y-70644627D01*
X119430460Y-70644042D01*
X119436829Y-70639970D01*
X120135406Y-70338273D01*
X120139391Y-70336634D01*
X120157061Y-70329725D01*
X120158696Y-70329582D01*
X120165062Y-70326908D01*
X120166623Y-70326417D01*
X120173144Y-70322428D01*
X120904266Y-70023922D01*
X120908375Y-70022330D01*
X120926125Y-70015814D01*
X120927784Y-70015703D01*
X120934201Y-70013159D01*
X120935691Y-70012725D01*
X120942337Y-70008840D01*
X121705353Y-69715454D01*
X121709210Y-69714044D01*
X121727266Y-69707783D01*
X121728842Y-69707707D01*
X121735332Y-69705291D01*
X121737103Y-69704809D01*
X121743654Y-69701188D01*
X122539038Y-69414418D01*
X122542840Y-69413119D01*
X122561040Y-69407223D01*
X122562566Y-69407180D01*
X122569013Y-69404931D01*
X122571244Y-69404369D01*
X122577784Y-69400923D01*
X123404229Y-69122921D01*
X123411545Y-69121718D01*
X123413819Y-69120751D01*
X123434790Y-69113952D01*
X123437221Y-69113396D01*
X123443855Y-69110075D01*
X124301742Y-68842391D01*
X124305771Y-68841209D01*
X124324353Y-68836098D01*
X124325956Y-68836125D01*
X124332633Y-68834124D01*
X124334430Y-68833760D01*
X124341254Y-68830549D01*
X125230788Y-68574829D01*
X125234567Y-68573809D01*
X125253014Y-68569142D01*
X125254484Y-68569197D01*
X125261048Y-68567390D01*
X125263780Y-68566888D01*
X125270453Y-68563923D01*
X126190337Y-68322245D01*
X126194162Y-68321307D01*
X126213030Y-68316995D01*
X126214536Y-68317086D01*
X126221246Y-68315407D01*
X126223993Y-68314971D01*
X126230797Y-68312125D01*
X127181187Y-68086150D01*
X127184998Y-68085308D01*
X127203824Y-68081458D01*
X127205286Y-68081580D01*
X127211984Y-68080072D01*
X127214921Y-68079673D01*
X127221713Y-68077028D01*
X128202493Y-67868500D01*
X128206505Y-67867717D01*
X128225466Y-67864339D01*
X128226989Y-67864506D01*
X128233768Y-67863148D01*
X128236492Y-67862850D01*
X128243468Y-67860315D01*
X129254025Y-67671088D01*
X129257986Y-67670414D01*
X129277096Y-67667482D01*
X129278612Y-67667685D01*
X129285486Y-67666486D01*
X129288172Y-67666259D01*
X129295196Y-67663909D01*
X130335291Y-67495751D01*
X130339138Y-67495191D01*
X130358739Y-67492656D01*
X130360125Y-67492875D01*
X130367100Y-67491862D01*
X130371468Y-67491595D01*
X130378273Y-67489532D01*
X133114481Y-67139964D01*
X133118644Y-67139504D01*
X133137947Y-67137708D01*
X133139314Y-67137974D01*
X133146538Y-67137209D01*
X133151432Y-67137094D01*
X133158265Y-67135334D01*
X135669075Y-66924632D01*
X135673108Y-66924361D01*
X135692698Y-66923359D01*
X135693971Y-66923663D01*
X135701260Y-66923217D01*
X135707304Y-66923325D01*
X135714001Y-66921889D01*
X138005530Y-66833750D01*
X138009632Y-66833661D01*
X138029230Y-66833565D01*
X138030510Y-66833934D01*
X138037845Y-66833823D01*
X138044243Y-66834237D01*
X138051026Y-66833089D01*
X140129960Y-66851172D01*
X140133850Y-66851267D01*
X140153110Y-66852041D01*
X140154206Y-66852411D01*
X140161344Y-66852647D01*
X140169058Y-66853473D01*
X140175452Y-66852703D01*
X142048459Y-66960705D01*
X142052577Y-66961013D01*
X142071654Y-66962758D01*
X142072807Y-66963214D01*
X142080037Y-66963813D01*
X142087024Y-66964936D01*
X142093659Y-66964482D01*
X143766739Y-67146067D01*
X143770628Y-67146553D01*
X143790145Y-67149305D01*
X143791229Y-67149796D01*
X143798519Y-67150780D01*
X143805905Y-67152344D01*
X143812402Y-67152236D01*
X145292603Y-67391176D01*
X145296588Y-67391887D01*
X145315807Y-67395644D01*
X145316894Y-67396208D01*
X145324151Y-67397577D01*
X145331608Y-67399577D01*
X145338160Y-67399798D01*
X146631370Y-67679721D01*
X146635054Y-67680577D01*
X146654175Y-67685335D01*
X146655113Y-67685884D01*
X146662131Y-67687600D01*
X146670558Y-67690305D01*
X146676687Y-67690838D01*
X147789822Y-67995559D01*
X147793541Y-67996641D01*
X147812286Y-68002413D01*
X147813219Y-68003030D01*
X147820214Y-68005151D01*
X147828182Y-68008208D01*
X147834377Y-68009094D01*
X148774088Y-68322439D01*
X148777816Y-68323750D01*
X148796193Y-68330541D01*
X148797111Y-68331224D01*
X148803979Y-68333722D01*
X148811568Y-68337127D01*
X148817751Y-68338365D01*
X148983121Y-68403800D01*
X149415399Y-68574848D01*
X149590709Y-68644216D01*
X149594451Y-68645768D01*
X149612085Y-68653421D01*
X149612967Y-68654156D01*
X149619648Y-68657012D01*
X149626518Y-68660562D01*
X149632655Y-68662172D01*
X149997826Y-68830373D01*
X150245154Y-68944295D01*
X150248724Y-68946009D01*
X150266235Y-68954763D01*
X150266860Y-68955344D01*
X150273661Y-68958798D01*
X150284506Y-68965177D01*
X150289287Y-68966754D01*
X151090989Y-69413562D01*
X151094209Y-69415421D01*
X151111569Y-69425799D01*
X151111942Y-69426202D01*
X151118695Y-69430397D01*
X151132715Y-69440137D01*
X151135870Y-69441479D01*
X151279315Y-69540279D01*
X151378353Y-69608493D01*
X151400951Y-69628522D01*
X151407613Y-69636064D01*
X151409567Y-69640238D01*
X151418645Y-69650577D01*
X151418658Y-69650597D01*
X151425600Y-69662722D01*
X151425608Y-69662738D01*
X151436896Y-69697124D01*
X151436901Y-69697153D01*
X151437155Y-69699157D01*
X151437242Y-69699341D01*
X151437209Y-69699580D01*
X151438284Y-69708026D01*
X151438317Y-69708426D01*
X151436186Y-69743646D01*
X151434811Y-69750319D01*
X151432999Y-69749945D01*
X151431918Y-69766631D01*
X151278834Y-70239501D01*
X151277656Y-70242965D01*
X151271357Y-70260626D01*
X151270712Y-70261513D01*
X151268501Y-70267899D01*
X151265845Y-70274083D01*
X151264666Y-70280376D01*
X150751091Y-71671814D01*
X150749700Y-71675409D01*
X150742608Y-71692927D01*
X150741784Y-71693966D01*
X150739320Y-71700343D01*
X150737572Y-71703958D01*
X150736033Y-71710767D01*
X150524414Y-72234450D01*
X150524359Y-72234586D01*
X150522998Y-72237957D01*
X150522925Y-72238030D01*
X150522923Y-72238142D01*
X150522882Y-72238246D01*
X150522897Y-72238283D01*
X150522882Y-72238323D01*
X150522882Y-72238349D01*
X150522963Y-72238550D01*
X150523115Y-72238698D01*
X150523211Y-72238738D01*
X150523212Y-72238739D01*
X150523213Y-72238739D01*
X150523266Y-72238761D01*
X150523377Y-72238761D01*
X150523428Y-72238782D01*
X150523475Y-72238761D01*
X150525781Y-72238764D01*
X150525801Y-72238770D01*
X150526702Y-72238769D01*
X166057050Y-72375785D01*
X166061836Y-72376649D01*
X166075409Y-72376101D01*
X166078567Y-72376053D01*
X166078740Y-72375976D01*
X166078746Y-72375977D01*
X166078749Y-72375973D01*
X166078763Y-72375967D01*
X166078770Y-72375967D01*
X166078774Y-72375962D01*
X166079049Y-72375842D01*
X166081598Y-72373187D01*
X166091187Y-72363814D01*
X166093870Y-72359651D01*
X169801730Y-68353456D01*
X169804561Y-68351263D01*
X169805510Y-68349547D01*
X169814545Y-68343525D01*
X169833876Y-68328545D01*
X169840886Y-68324765D01*
X169843541Y-68324201D01*
X169844955Y-68323260D01*
X169850531Y-68320932D01*
X169850588Y-68321068D01*
X169855288Y-68318887D01*
X169866177Y-68316482D01*
X169872626Y-68312909D01*
X169895588Y-68309978D01*
X169895643Y-68309976D01*
X169907505Y-68307357D01*
X175599903Y-68307357D01*
X175599905Y-68307359D01*
X175600112Y-68307357D01*
X175600315Y-68307357D01*
X175600488Y-68307357D01*
X175600504Y-68307318D01*
X175600609Y-68307061D01*
X175600610Y-68307060D01*
X175600608Y-68306824D01*
X175600608Y-68306650D01*
X175600606Y-68306648D01*
X175568898Y-64573361D01*
X175573211Y-64552644D01*
X175572562Y-64548433D01*
X175578357Y-64527924D01*
X175579619Y-64521865D01*
X175580852Y-64519094D01*
X175582160Y-64514469D01*
X175582164Y-64514460D01*
X175583556Y-64512433D01*
X175584120Y-64511053D01*
X175613516Y-64468016D01*
X186345587Y-54272000D01*
X186366189Y-54261426D01*
X186363923Y-54257959D01*
X186373498Y-54251701D01*
X186395627Y-54240230D01*
X186395685Y-54240207D01*
X186406542Y-54237107D01*
X186408380Y-54235965D01*
X186412319Y-54235458D01*
X186419362Y-54233448D01*
X186419506Y-54233422D01*
X186440893Y-54231783D01*
X186443386Y-54231463D01*
X186455807Y-54231648D01*
G37*
%TD.AperFunction*%
%TD*%
M02*
