%TF.GenerationSoftware,KiCad,Pcbnew,9.0.0*%
%TF.CreationDate,2025-03-23T17:22:46-07:00*%
%TF.ProjectId,portal-gun,706f7274-616c-42d6-9775-6e2e6b696361,rev?*%
%TF.SameCoordinates,Original*%
%TF.FileFunction,Legend,Top*%
%TF.FilePolarity,Positive*%
%FSLAX46Y46*%
G04 Gerber Fmt 4.6, Leading zero omitted, Abs format (unit mm)*
G04 Created by KiCad (PCBNEW 9.0.0) date 2025-03-23 17:22:46*
%MOMM*%
%LPD*%
G01*
G04 APERTURE LIST*
%ADD10C,0.529166*%
%ADD11C,0.132291*%
%ADD12C,0.000000*%
%ADD13C,0.100000*%
%ADD14C,1.000000*%
%ADD15R,1.700000X1.700000*%
%ADD16O,1.700000X1.700000*%
G04 APERTURE END LIST*
D10*
X133666977Y-84352710D02*
X133925819Y-84377225D01*
X134183925Y-84413250D01*
X134440291Y-84459611D01*
X134693916Y-84515136D01*
X134943799Y-84578654D01*
X135428329Y-84724979D01*
X135885868Y-84889206D01*
X136308403Y-85061961D01*
X136687918Y-85233865D01*
X137016401Y-85395541D01*
X137488214Y-85650702D01*
X137659732Y-85752426D01*
X135019141Y-90514152D01*
X134794769Y-90438431D01*
X134212433Y-90210306D01*
X133829583Y-90038642D01*
X133408308Y-89828336D01*
X132965628Y-89579209D01*
X132518566Y-89291079D01*
X132298711Y-89132332D01*
X132084144Y-88963768D01*
X131876992Y-88785362D01*
X131679383Y-88597094D01*
X131493444Y-88398939D01*
X131321304Y-88190877D01*
X131165090Y-87972884D01*
X131026930Y-87744938D01*
X130908951Y-87507016D01*
X130813282Y-87259095D01*
X130742049Y-87001154D01*
X130697381Y-86733170D01*
X130681406Y-86455119D01*
X130696251Y-86166981D01*
X130744043Y-85868731D01*
X130826911Y-85560348D01*
X130847683Y-85502975D01*
X130872176Y-85447568D01*
X130900145Y-85394064D01*
X130931348Y-85342401D01*
X130965541Y-85292517D01*
X131002481Y-85244350D01*
X131041926Y-85197837D01*
X131083631Y-85152916D01*
X131127355Y-85109524D01*
X131172852Y-85067600D01*
X131219882Y-85027080D01*
X131268199Y-84987902D01*
X131317562Y-84950004D01*
X131367727Y-84913324D01*
X131469489Y-84843368D01*
X131689892Y-84711558D01*
X131918572Y-84601806D01*
X132154529Y-84512941D01*
X132396761Y-84443789D01*
X132644265Y-84393178D01*
X132896041Y-84359937D01*
X133151085Y-84342894D01*
X133408398Y-84340875D01*
X133666977Y-84352710D01*
D11*
X212876601Y-99765438D02*
X211808570Y-106939045D01*
X207394042Y-109110706D01*
X208568885Y-104820781D01*
X186531860Y-109573520D01*
X175673553Y-99338226D01*
X175749267Y-96367214D01*
X178521568Y-96204677D01*
X178506021Y-97023832D01*
X178499088Y-97587001D01*
X178499479Y-97772591D01*
X178503829Y-97842987D01*
X186959068Y-106494030D01*
X209316505Y-101972705D01*
X209415663Y-101789045D01*
X209509636Y-101586265D01*
X209682560Y-101129892D01*
X209836345Y-100616675D01*
X209972060Y-100059704D01*
X210090775Y-99472070D01*
X210193557Y-98866861D01*
X210281478Y-98257167D01*
X210355604Y-97656078D01*
X210466753Y-96532073D01*
X210535557Y-95599562D01*
X210580337Y-94727893D01*
X212876601Y-99765438D01*
G36*
X212876601Y-99765438D02*
G01*
X211808570Y-106939045D01*
X207394042Y-109110706D01*
X208568885Y-104820781D01*
X186531860Y-109573520D01*
X175673553Y-99338226D01*
X175749267Y-96367214D01*
X178521568Y-96204677D01*
X178506021Y-97023832D01*
X178499088Y-97587001D01*
X178499479Y-97772591D01*
X178503829Y-97842987D01*
X186959068Y-106494030D01*
X209316505Y-101972705D01*
X209415663Y-101789045D01*
X209509636Y-101586265D01*
X209682560Y-101129892D01*
X209836345Y-100616675D01*
X209972060Y-100059704D01*
X210090775Y-99472070D01*
X210193557Y-98866861D01*
X210281478Y-98257167D01*
X210355604Y-97656078D01*
X210466753Y-96532073D01*
X210535557Y-95599562D01*
X210580337Y-94727893D01*
X212876601Y-99765438D01*
G37*
D10*
X136522590Y-93368042D02*
X141851791Y-93321556D01*
X189375000Y-92105098D02*
X187485358Y-92108276D01*
D12*
G36*
X164918784Y-89127315D02*
G01*
X164896557Y-89163439D01*
X164873408Y-89199584D01*
X164847958Y-89237714D01*
X164818824Y-89279791D01*
X164784626Y-89327780D01*
X164743984Y-89383645D01*
X164637840Y-89526855D01*
X164435826Y-89801165D01*
X164241238Y-90072596D01*
X164056117Y-90338079D01*
X163882509Y-90594548D01*
X163722458Y-90838933D01*
X163578008Y-91068167D01*
X163451202Y-91279182D01*
X163344085Y-91468910D01*
X163330059Y-91494920D01*
X163324350Y-91504997D01*
X163319285Y-91512960D01*
X163314695Y-91518690D01*
X163312526Y-91520680D01*
X163310412Y-91522067D01*
X163308332Y-91522835D01*
X163306266Y-91522970D01*
X163304191Y-91522456D01*
X163302088Y-91521279D01*
X163299935Y-91519423D01*
X163297710Y-91516873D01*
X163292963Y-91509633D01*
X163287677Y-91499437D01*
X163281685Y-91486166D01*
X163266904Y-91449916D01*
X163247268Y-91399921D01*
X163207565Y-91293106D01*
X163172074Y-91185099D01*
X163140805Y-91076037D01*
X163113767Y-90966058D01*
X163090969Y-90855302D01*
X163072422Y-90743905D01*
X163058135Y-90632007D01*
X163048117Y-90519745D01*
X163042379Y-90407257D01*
X163041120Y-90309531D01*
X163040929Y-90294682D01*
X163043778Y-90182157D01*
X163050936Y-90069822D01*
X163062411Y-89957813D01*
X163078214Y-89846269D01*
X163098353Y-89735328D01*
X163122840Y-89625129D01*
X163131333Y-89590567D01*
X163135022Y-89576545D01*
X163138546Y-89564436D01*
X163142063Y-89554043D01*
X163143866Y-89549429D01*
X163145726Y-89545171D01*
X163147662Y-89541244D01*
X163149692Y-89537623D01*
X163151838Y-89534285D01*
X163154117Y-89531205D01*
X163156550Y-89528358D01*
X163159155Y-89525720D01*
X163161954Y-89523266D01*
X163164964Y-89520972D01*
X163168205Y-89518814D01*
X163171697Y-89516766D01*
X163175460Y-89514806D01*
X163179512Y-89512907D01*
X163188563Y-89509197D01*
X163199007Y-89505442D01*
X163224693Y-89497013D01*
X163255124Y-89486937D01*
X163293582Y-89473847D01*
X163335142Y-89459437D01*
X163374877Y-89445400D01*
X163550896Y-89385352D01*
X163731381Y-89329257D01*
X163914470Y-89277566D01*
X164098298Y-89230726D01*
X164281001Y-89189189D01*
X164460715Y-89153402D01*
X164635575Y-89123816D01*
X164803718Y-89100879D01*
X164810001Y-89100241D01*
X164818007Y-89099595D01*
X164837871Y-89098354D01*
X164860681Y-89097296D01*
X164883811Y-89096561D01*
X164938140Y-89095279D01*
X164918784Y-89127315D01*
G37*
G36*
X170279990Y-68695484D02*
G01*
X170279990Y-82176128D01*
X169532371Y-82364196D01*
X169532371Y-69222318D01*
X170014014Y-68687187D01*
X170279990Y-68695484D01*
G37*
D10*
X166146041Y-72500049D02*
X169912132Y-68430940D01*
D12*
G36*
X166107767Y-87364317D02*
G01*
X166232314Y-87372038D01*
X166357431Y-87384010D01*
X166479954Y-87399984D01*
X166596722Y-87419710D01*
X166651960Y-87430902D01*
X166704574Y-87442939D01*
X166735528Y-87450515D01*
X166763085Y-87457377D01*
X166787447Y-87463609D01*
X166808820Y-87469294D01*
X166818450Y-87471957D01*
X166827408Y-87474514D01*
X166835722Y-87476976D01*
X166843415Y-87479354D01*
X166850515Y-87481656D01*
X166857046Y-87483895D01*
X166863034Y-87486080D01*
X166868505Y-87488221D01*
X166873483Y-87490330D01*
X166877995Y-87492416D01*
X166882067Y-87494490D01*
X166885723Y-87496562D01*
X166888989Y-87498642D01*
X166891891Y-87500742D01*
X166894454Y-87502871D01*
X166896704Y-87505039D01*
X166898666Y-87507258D01*
X166900366Y-87509538D01*
X166901830Y-87511888D01*
X166903082Y-87514319D01*
X166904150Y-87516843D01*
X166905057Y-87519468D01*
X166905829Y-87522205D01*
X166906493Y-87525066D01*
X166927829Y-87614865D01*
X166970954Y-87791988D01*
X167032606Y-88051031D01*
X167090473Y-88308204D01*
X167142534Y-88552966D01*
X167186769Y-88774777D01*
X167221157Y-88963096D01*
X167243677Y-89107384D01*
X167249855Y-89159722D01*
X167252309Y-89197099D01*
X167250786Y-89218199D01*
X167248454Y-89222232D01*
X167245033Y-89221702D01*
X167199296Y-89190146D01*
X167110885Y-89129799D01*
X167040370Y-89080157D01*
X166936214Y-89004767D01*
X166812454Y-88913867D01*
X166683128Y-88817699D01*
X166440422Y-88637718D01*
X166219792Y-88477974D01*
X166015804Y-88334882D01*
X165823026Y-88204857D01*
X165636023Y-88084313D01*
X165449363Y-87969663D01*
X165257611Y-87857324D01*
X165055335Y-87743709D01*
X164865880Y-87638879D01*
X164855895Y-87633354D01*
X164813667Y-87609687D01*
X164844665Y-87596790D01*
X164955418Y-87553136D01*
X165067268Y-87513892D01*
X165180352Y-87479025D01*
X165294810Y-87448501D01*
X165410781Y-87422286D01*
X165528404Y-87400345D01*
X165647819Y-87382645D01*
X165769164Y-87369152D01*
X165819643Y-87365248D01*
X165873030Y-87362625D01*
X165986952Y-87361096D01*
X166107767Y-87364317D01*
G37*
D10*
X150348239Y-72360674D02*
X166146041Y-72500049D01*
X196289069Y-70869096D02*
X196271270Y-92728119D01*
D12*
G36*
X164659767Y-87696486D02*
G01*
X164681441Y-87703316D01*
X164745263Y-87730439D01*
X164832834Y-87773397D01*
X164939889Y-87829648D01*
X165195401Y-87971868D01*
X165477694Y-88136770D01*
X165752662Y-88304025D01*
X165986200Y-88453304D01*
X166076775Y-88514850D01*
X166144203Y-88564280D01*
X166184221Y-88599051D01*
X166192619Y-88610145D01*
X166192565Y-88616623D01*
X166187624Y-88619701D01*
X166179114Y-88623269D01*
X166152142Y-88631709D01*
X166113153Y-88641624D01*
X166063652Y-88652692D01*
X166005143Y-88664593D01*
X165939132Y-88677007D01*
X165867122Y-88689613D01*
X165790618Y-88702091D01*
X165396931Y-88766155D01*
X165037233Y-88829259D01*
X164707402Y-88892313D01*
X164403318Y-88956228D01*
X164120857Y-89021915D01*
X163855900Y-89090284D01*
X163604324Y-89162246D01*
X163362006Y-89238712D01*
X163311859Y-89255090D01*
X163270479Y-89268239D01*
X163254420Y-89273184D01*
X163242162Y-89276818D01*
X163234243Y-89278975D01*
X163232079Y-89279447D01*
X163231200Y-89279487D01*
X163231146Y-89276989D01*
X163232654Y-89271194D01*
X163239837Y-89250925D01*
X163251709Y-89221114D01*
X163267226Y-89184194D01*
X163292683Y-89126663D01*
X163305030Y-89098758D01*
X163325231Y-89055108D01*
X163344909Y-89014080D01*
X163396748Y-88913261D01*
X163452200Y-88814951D01*
X163511240Y-88719177D01*
X163573841Y-88625966D01*
X163639979Y-88535345D01*
X163709626Y-88447340D01*
X163782758Y-88361979D01*
X163859348Y-88279287D01*
X163939370Y-88199293D01*
X164022799Y-88122022D01*
X164109609Y-88047502D01*
X164199774Y-87975760D01*
X164293268Y-87906821D01*
X164390066Y-87840713D01*
X164490140Y-87777463D01*
X164593467Y-87717098D01*
X164601503Y-87712726D01*
X164609533Y-87708613D01*
X164617343Y-87704852D01*
X164624721Y-87701536D01*
X164628180Y-87700073D01*
X164631452Y-87698756D01*
X164634508Y-87697597D01*
X164637322Y-87696607D01*
X164639868Y-87695797D01*
X164642119Y-87695180D01*
X164644048Y-87694766D01*
X164645629Y-87694568D01*
X164659767Y-87696486D01*
G37*
D10*
X189375000Y-93618145D02*
X189375000Y-92105098D01*
D12*
G36*
X166506286Y-83513282D02*
G01*
X165706634Y-83919818D01*
X165706634Y-72711753D01*
X166309562Y-72711753D01*
X166506286Y-72507789D01*
X166506286Y-83513282D01*
G37*
D10*
X141851791Y-91256004D02*
X157892749Y-91185188D01*
X178136924Y-68430940D02*
X182000106Y-72500049D01*
D12*
G36*
X189644881Y-92093189D02*
G01*
X188721313Y-92088081D01*
X188721313Y-71364176D01*
X189528350Y-71364176D01*
X189644881Y-92093189D01*
G37*
D10*
X141851791Y-93321556D02*
X141851791Y-91256004D01*
X169912132Y-68430940D02*
X178136924Y-68430940D01*
D12*
G36*
X165706634Y-83919818D02*
G01*
X164896816Y-84443053D01*
X163999069Y-85068098D01*
X162874562Y-85909649D01*
X162251134Y-86405574D01*
X161599647Y-86948376D01*
X160929646Y-87535639D01*
X160250673Y-88164945D01*
X159572273Y-88833879D01*
X158903990Y-89540024D01*
X158255367Y-90280963D01*
X157635947Y-91054279D01*
X141848479Y-91067760D01*
X141809589Y-91124919D01*
X141781977Y-91165090D01*
X141772255Y-91178952D01*
X141767589Y-91185188D01*
X141762923Y-91192051D01*
X141753200Y-91207562D01*
X141725589Y-91252739D01*
X141686698Y-91317176D01*
X141646247Y-93063102D01*
X137048873Y-93110290D01*
X146186706Y-81019264D01*
X165706634Y-80938327D01*
X165706634Y-83919818D01*
G37*
G36*
X164832705Y-91351973D02*
G01*
X164837078Y-91353430D01*
X164842704Y-91355744D01*
X164849417Y-91358824D01*
X164865444Y-91366907D01*
X164883839Y-91376936D01*
X164903280Y-91388169D01*
X164922445Y-91399864D01*
X164940014Y-91411278D01*
X164947787Y-91416648D01*
X164954665Y-91421669D01*
X165044566Y-91487310D01*
X165174881Y-91578504D01*
X165355884Y-91702346D01*
X165597846Y-91865936D01*
X165902486Y-92071930D01*
X166169065Y-92254387D01*
X166444956Y-92445968D01*
X166777534Y-92679336D01*
X166918814Y-92778512D01*
X167043407Y-92865463D01*
X167137821Y-92930810D01*
X167188567Y-92965175D01*
X167247764Y-93003337D01*
X167224647Y-93015407D01*
X167123244Y-93063738D01*
X167014307Y-93107106D01*
X166898710Y-93145449D01*
X166777327Y-93178705D01*
X166651030Y-93206814D01*
X166520694Y-93229713D01*
X166387193Y-93247342D01*
X166251398Y-93259639D01*
X166114185Y-93266543D01*
X165976427Y-93267992D01*
X165838997Y-93263924D01*
X165702769Y-93254279D01*
X165568616Y-93238995D01*
X165437413Y-93218011D01*
X165310032Y-93191264D01*
X165187347Y-93158695D01*
X165145225Y-93146228D01*
X165126907Y-93084232D01*
X165079669Y-92906346D01*
X165029406Y-92686387D01*
X164978990Y-92440510D01*
X164931295Y-92184870D01*
X164889193Y-91935621D01*
X164855559Y-91708919D01*
X164833266Y-91520919D01*
X164830478Y-91486309D01*
X164827270Y-91446480D01*
X164825187Y-91387775D01*
X164825208Y-91384076D01*
X164825275Y-91380481D01*
X164825387Y-91377009D01*
X164825539Y-91373677D01*
X164825731Y-91370505D01*
X164825960Y-91367511D01*
X164826223Y-91364714D01*
X164826518Y-91362132D01*
X164826843Y-91359784D01*
X164827195Y-91357689D01*
X164827572Y-91355866D01*
X164827972Y-91354332D01*
X164828392Y-91353106D01*
X164828609Y-91352615D01*
X164828830Y-91352208D01*
X164829055Y-91351887D01*
X164829283Y-91351655D01*
X164829515Y-91351514D01*
X164829749Y-91351467D01*
X164832705Y-91351973D01*
G37*
D10*
X189275000Y-71331911D02*
X189300000Y-70025000D01*
X132029960Y-67577064D02*
X132017570Y-67709241D01*
X131989064Y-67883539D01*
X131938002Y-68093754D01*
X131857947Y-68333686D01*
X131742460Y-68597131D01*
X131585102Y-68877888D01*
X131488709Y-69022820D01*
X131379434Y-69169755D01*
X131256472Y-69317916D01*
X131119018Y-69466529D01*
X130966267Y-69614818D01*
X130797415Y-69762008D01*
X130611657Y-69907323D01*
X130408187Y-70049990D01*
X130186201Y-70189231D01*
X129944894Y-70324273D01*
X129683462Y-70454339D01*
X129401099Y-70578654D01*
X129097000Y-70696444D01*
X128770362Y-70806932D01*
X128420378Y-70909344D01*
X128046245Y-71002905D01*
X127755813Y-71061886D01*
X127474014Y-71103932D01*
X127200886Y-71130029D01*
X126936469Y-71141167D01*
X126680799Y-71138332D01*
X126433917Y-71122513D01*
X126195861Y-71094698D01*
X125966668Y-71055873D01*
X125746377Y-71007028D01*
X125535028Y-70949150D01*
X125332658Y-70883227D01*
X125139306Y-70810246D01*
X124955011Y-70731196D01*
X124779811Y-70647064D01*
X124613744Y-70558838D01*
X124456849Y-70467506D01*
X124309164Y-70374057D01*
X124170729Y-70279477D01*
X124041581Y-70184755D01*
X123921759Y-70090878D01*
X123710247Y-69909612D01*
X123536501Y-69743582D01*
X123400829Y-69600691D01*
X123303539Y-69488842D01*
X123225337Y-69389879D01*
X124804183Y-68890300D01*
X126197266Y-68479013D01*
X126875418Y-68295174D01*
X127476812Y-68149559D01*
X128101653Y-68025485D01*
X128819103Y-67903401D01*
X129574939Y-67787793D01*
X130314941Y-67683146D01*
X131530548Y-67524677D01*
X132032146Y-67463880D01*
X132029960Y-67577064D01*
X182000106Y-72500049D02*
X184844970Y-71326107D01*
D12*
G36*
X178506820Y-69205726D02*
G01*
X178506820Y-83351497D01*
X177791808Y-83003036D01*
X177791808Y-68691335D01*
X178032714Y-68691335D01*
X178506820Y-69205726D01*
G37*
D10*
X196271270Y-92728119D02*
X189375000Y-93618145D01*
X189300000Y-70025000D02*
X196289069Y-70869096D01*
D12*
G36*
X185232421Y-88636856D02*
G01*
X184484794Y-87815090D01*
X184484794Y-71762666D01*
X184894996Y-71591728D01*
X185232421Y-71589176D01*
X185232421Y-88636856D01*
G37*
D11*
X208603110Y-59073828D02*
X207965030Y-56921336D01*
X207530971Y-55441498D01*
X207343383Y-54768844D01*
X211725044Y-56904905D01*
X212864280Y-64189420D01*
X210541991Y-69206422D01*
X210546956Y-68508951D01*
X210524087Y-67730500D01*
X210497834Y-67261084D01*
X210458471Y-66748584D01*
X210403575Y-66200783D01*
X210330724Y-65625462D01*
X210237494Y-65030405D01*
X210121462Y-64423393D01*
X209980206Y-63812210D01*
X209811302Y-63204637D01*
X209715724Y-62904636D01*
X209612327Y-62608456D01*
X209500806Y-62317070D01*
X209380859Y-62031451D01*
X186957694Y-57354025D01*
X178512038Y-66051626D01*
X178506820Y-68430940D01*
X175740638Y-68430940D01*
X175707778Y-64561861D01*
X186453803Y-54352587D01*
X208603110Y-59073828D01*
G36*
X208603110Y-59073828D02*
G01*
X207965030Y-56921336D01*
X207530971Y-55441498D01*
X207343383Y-54768844D01*
X211725044Y-56904905D01*
X212864280Y-64189420D01*
X210541991Y-69206422D01*
X210546956Y-68508951D01*
X210524087Y-67730500D01*
X210497834Y-67261084D01*
X210458471Y-66748584D01*
X210403575Y-66200783D01*
X210330724Y-65625462D01*
X210237494Y-65030405D01*
X210121462Y-64423393D01*
X209980206Y-63812210D01*
X209811302Y-63204637D01*
X209715724Y-62904636D01*
X209612327Y-62608456D01*
X209500806Y-62317070D01*
X209380859Y-62031451D01*
X186957694Y-57354025D01*
X178512038Y-66051626D01*
X178506820Y-68430940D01*
X175740638Y-68430940D01*
X175707778Y-64561861D01*
X186453803Y-54352587D01*
X208603110Y-59073828D01*
G37*
D12*
G36*
X167166902Y-87721926D02*
G01*
X167167915Y-87722014D01*
X167170213Y-87722387D01*
X167172893Y-87723030D01*
X167175974Y-87723949D01*
X167179479Y-87725152D01*
X167183429Y-87726646D01*
X167187846Y-87728437D01*
X167192750Y-87730532D01*
X167198164Y-87732939D01*
X167204108Y-87735663D01*
X167217674Y-87742095D01*
X167233621Y-87749881D01*
X167252119Y-87759078D01*
X167273339Y-87769741D01*
X167297454Y-87781925D01*
X167384177Y-87827646D01*
X167469324Y-87876228D01*
X167552743Y-87927535D01*
X167634283Y-87981432D01*
X167713794Y-88037784D01*
X167791126Y-88096456D01*
X167866126Y-88157312D01*
X167938645Y-88220217D01*
X168008531Y-88285035D01*
X168075634Y-88351633D01*
X168139803Y-88419873D01*
X168200888Y-88489621D01*
X168258736Y-88560742D01*
X168313199Y-88633100D01*
X168364124Y-88706560D01*
X168411361Y-88780986D01*
X168430633Y-88812816D01*
X168269775Y-89101459D01*
X168179894Y-89261239D01*
X168095790Y-89407551D01*
X168016501Y-89541951D01*
X167941063Y-89665996D01*
X167868515Y-89781242D01*
X167797896Y-89889245D01*
X167728242Y-89991562D01*
X167658591Y-90089748D01*
X167628486Y-90131340D01*
X167596267Y-89910278D01*
X167553619Y-89635207D01*
X167503068Y-89338057D01*
X167387482Y-88723740D01*
X167327058Y-88429682D01*
X167267955Y-88159766D01*
X167212478Y-87925545D01*
X167162933Y-87738575D01*
X167161632Y-87733742D01*
X167161157Y-87731603D01*
X167160826Y-87729658D01*
X167160662Y-87727914D01*
X167160686Y-87726377D01*
X167160775Y-87725688D01*
X167160919Y-87725054D01*
X167161121Y-87724476D01*
X167161383Y-87723954D01*
X167161709Y-87723489D01*
X167162100Y-87723081D01*
X167162559Y-87722733D01*
X167163090Y-87722444D01*
X167163694Y-87722216D01*
X167164374Y-87722049D01*
X167165134Y-87721945D01*
X167165976Y-87721903D01*
X167166902Y-87721926D01*
G37*
D10*
X184844970Y-71326107D02*
X189275000Y-71331911D01*
D12*
G36*
X168669540Y-89014304D02*
G01*
X168672319Y-89016667D01*
X168676081Y-89021736D01*
X168680762Y-89029369D01*
X168692621Y-89051771D01*
X168707382Y-89082753D01*
X168724532Y-89121196D01*
X168743554Y-89165980D01*
X168763936Y-89215985D01*
X168785163Y-89270092D01*
X168820710Y-89367652D01*
X168852646Y-89466229D01*
X168880967Y-89565746D01*
X168905667Y-89666130D01*
X168926739Y-89767305D01*
X168944177Y-89869197D01*
X168957975Y-89971729D01*
X168968127Y-90074828D01*
X168974628Y-90178419D01*
X168977471Y-90282425D01*
X168976651Y-90386773D01*
X168972160Y-90491388D01*
X168963994Y-90596194D01*
X168952146Y-90701116D01*
X168936610Y-90806080D01*
X168917381Y-90911010D01*
X168907797Y-90958713D01*
X168903909Y-90977791D01*
X168900506Y-90994014D01*
X168897498Y-91007624D01*
X168896115Y-91013526D01*
X168894797Y-91018867D01*
X168893534Y-91023676D01*
X168892314Y-91027986D01*
X168891127Y-91031825D01*
X168889961Y-91035225D01*
X168888806Y-91038215D01*
X168887649Y-91040828D01*
X168886481Y-91043092D01*
X168885289Y-91045040D01*
X168884064Y-91046700D01*
X168882793Y-91048104D01*
X168881466Y-91049282D01*
X168880071Y-91050265D01*
X168878598Y-91051083D01*
X168877035Y-91051767D01*
X168875372Y-91052347D01*
X168873597Y-91052854D01*
X168869667Y-91053770D01*
X168865157Y-91054760D01*
X168849489Y-91058938D01*
X168821184Y-91067023D01*
X168742736Y-91090255D01*
X168520664Y-91153777D01*
X168287072Y-91214513D01*
X168050879Y-91270634D01*
X167821007Y-91320314D01*
X167606376Y-91361723D01*
X167415906Y-91393034D01*
X167258519Y-91412420D01*
X167195019Y-91417070D01*
X167143134Y-91418052D01*
X167019599Y-91415557D01*
X167065146Y-91359604D01*
X167130912Y-91278812D01*
X167395885Y-90949476D01*
X167628541Y-90651443D01*
X167833129Y-90378567D01*
X168013893Y-90124703D01*
X168175082Y-89883707D01*
X168320941Y-89649431D01*
X168455716Y-89415730D01*
X168583656Y-89176460D01*
X168641118Y-89065516D01*
X168659689Y-89029973D01*
X168667808Y-89014785D01*
X168668539Y-89014180D01*
X168669540Y-89014304D01*
G37*
D13*
X196173807Y-83024353D02*
X196173809Y-83024353D01*
D10*
X173522664Y-82204502D02*
X174309248Y-82287328D01*
X175082267Y-82421166D01*
X175840891Y-82602575D01*
X176584293Y-82828114D01*
X177311643Y-83094342D01*
X178022113Y-83397816D01*
X178714875Y-83735098D01*
X179389100Y-84102744D01*
X180043959Y-84497314D01*
X181292265Y-85353463D01*
X182453166Y-86276016D01*
X183520032Y-87237443D01*
X184486235Y-88210215D01*
X185345146Y-89166804D01*
X186090137Y-90079682D01*
X186714579Y-90921318D01*
X187211843Y-91664185D01*
X187575301Y-92280753D01*
X187798323Y-92743494D01*
X187874282Y-93024879D01*
X187722382Y-93182887D01*
X187519308Y-93363373D01*
X187219752Y-93596382D01*
X187031044Y-93729036D01*
X186814915Y-93870564D01*
X186570266Y-94019548D01*
X186295997Y-94174569D01*
X185991008Y-94334209D01*
X185654199Y-94497049D01*
X185284469Y-94661670D01*
X184880720Y-94826654D01*
X184441852Y-94990582D01*
X183966763Y-95152035D01*
X183454355Y-95309595D01*
X182903527Y-95461843D01*
X182313180Y-95607360D01*
X181682213Y-95744727D01*
X181009527Y-95872527D01*
X180294021Y-95989340D01*
X179534597Y-96093748D01*
X178730153Y-96184332D01*
X177879590Y-96259673D01*
X176981808Y-96318353D01*
X176035707Y-96358952D01*
X175040187Y-96380053D01*
X173994149Y-96380237D01*
X172896491Y-96358085D01*
X170845348Y-96254525D01*
X168971409Y-96078619D01*
X167268483Y-95839323D01*
X165730377Y-95545588D01*
X164350901Y-95206368D01*
X163123863Y-94830618D01*
X162043071Y-94427288D01*
X161102333Y-94005334D01*
X160295459Y-93573709D01*
X159616256Y-93141365D01*
X159058533Y-92717257D01*
X158616098Y-92310337D01*
X158282760Y-91929558D01*
X158052328Y-91583875D01*
X157918608Y-91282240D01*
X157875411Y-91033607D01*
X157897242Y-90928218D01*
X157961787Y-90784326D01*
X158213349Y-90392014D01*
X158618744Y-89878627D01*
X159166624Y-89266119D01*
X159845638Y-88576445D01*
X160644434Y-87831559D01*
X161551663Y-87053417D01*
X162555973Y-86263972D01*
X163646015Y-85485181D01*
X164219638Y-85106641D01*
X164810438Y-84738998D01*
X165416995Y-84384995D01*
X166037891Y-84047377D01*
X166671707Y-83728888D01*
X167317024Y-83432273D01*
X167972423Y-83160277D01*
X168636486Y-82915642D01*
X169307794Y-82701114D01*
X169984927Y-82519437D01*
X170666467Y-82373356D01*
X171350996Y-82265614D01*
X172037094Y-82198957D01*
X172723342Y-82176128D01*
X173522664Y-82204502D01*
X140160499Y-66974917D02*
X142072625Y-67085175D01*
X143785030Y-67271029D01*
X145304090Y-67516243D01*
X146636181Y-67804580D01*
X147787677Y-68119803D01*
X148764956Y-68445675D01*
X149574392Y-68765960D01*
X150222361Y-69064421D01*
X151059400Y-69530923D01*
X151327079Y-69715290D01*
X151165170Y-70215421D01*
X150638336Y-71642786D01*
X150218804Y-72669948D01*
X149684920Y-73887838D01*
X149028976Y-75282764D01*
X148243264Y-76841033D01*
X147320078Y-78548951D01*
X146251710Y-80392825D01*
X145030453Y-82358963D01*
X143648600Y-84433670D01*
X142895041Y-85507458D01*
X142098443Y-86603254D01*
X141257842Y-87719345D01*
X140372276Y-88854021D01*
X139440779Y-90005569D01*
X138462390Y-91172279D01*
X137436145Y-92352438D01*
X136361079Y-93544334D01*
X134889950Y-93710048D01*
X133167460Y-93847946D01*
X132093441Y-93910458D01*
X130890507Y-93960986D01*
X129568361Y-93993759D01*
X128136705Y-94003007D01*
X126605240Y-93982959D01*
X124983669Y-93927844D01*
X123281692Y-93831893D01*
X121509013Y-93689336D01*
X119675333Y-93494400D01*
X117790353Y-93241317D01*
X116320228Y-92981485D01*
X114957566Y-92663011D01*
X113700626Y-92296300D01*
X112547668Y-91891757D01*
X111496950Y-91459786D01*
X110546733Y-91010791D01*
X109695274Y-90555178D01*
X108940834Y-90103350D01*
X108281670Y-89665713D01*
X107716044Y-89252670D01*
X106858436Y-88541987D01*
X106189062Y-87873558D01*
X106046113Y-87335777D01*
X105956049Y-86791722D01*
X105915699Y-86242926D01*
X105921892Y-85690918D01*
X105971458Y-85137230D01*
X106061227Y-84583392D01*
X106188027Y-84030936D01*
X106348689Y-83481393D01*
X106540041Y-82936294D01*
X106758914Y-82397169D01*
X107266538Y-81342968D01*
X107846197Y-80331038D01*
X108472526Y-79373626D01*
X109120162Y-78482981D01*
X109763738Y-77671351D01*
X110377893Y-76950983D01*
X110937260Y-76334126D01*
X112119575Y-75146766D01*
X112426115Y-74894340D01*
X112805897Y-74600462D01*
X113333673Y-74214055D01*
X114007180Y-73749554D01*
X114824158Y-73221396D01*
X115782345Y-72644017D01*
X116879478Y-72031853D01*
X118113298Y-71399340D01*
X118780759Y-71079963D01*
X119481542Y-70760913D01*
X120215367Y-70443993D01*
X120981949Y-70131008D01*
X121781007Y-69823763D01*
X122612258Y-69524063D01*
X123475419Y-69233710D01*
X124370207Y-68954511D01*
X125296340Y-68688270D01*
X126253534Y-68436790D01*
X127241508Y-68201877D01*
X128259979Y-67985336D01*
X129308663Y-67788970D01*
X130387279Y-67614584D01*
X133162043Y-67260089D01*
X135711584Y-67046138D01*
X138042278Y-66956493D01*
X140160499Y-66974917D01*
X144566448Y-71335825D02*
X144996944Y-71380442D01*
X145190814Y-71413478D01*
X145368340Y-71453481D01*
X145527953Y-71500311D01*
X145668082Y-71553829D01*
X144975471Y-76575283D01*
X144089411Y-76477884D01*
X143660225Y-76413585D01*
X143181199Y-76328742D01*
X142668946Y-76221070D01*
X142140079Y-76088288D01*
X141611212Y-75928113D01*
X141098958Y-75738261D01*
X140854253Y-75631493D01*
X140619932Y-75516450D01*
X140398071Y-75392847D01*
X140190747Y-75260398D01*
X140000036Y-75118817D01*
X139828016Y-74967821D01*
X139676763Y-74807122D01*
X139548353Y-74636436D01*
X139444864Y-74455478D01*
X139368372Y-74263961D01*
X139320954Y-74061602D01*
X139304687Y-73848114D01*
X139319010Y-73629657D01*
X139360932Y-73422060D01*
X139428885Y-73225181D01*
X139521298Y-73038883D01*
X139636603Y-72863027D01*
X139773229Y-72697472D01*
X139929608Y-72542081D01*
X140104170Y-72396715D01*
X140295345Y-72261234D01*
X140501565Y-72135499D01*
X140721260Y-72019372D01*
X140952859Y-71912713D01*
X141194795Y-71815383D01*
X141445498Y-71727244D01*
X141703397Y-71648156D01*
X141966924Y-71577980D01*
X142504584Y-71463810D01*
X143045922Y-71383622D01*
X143578382Y-71336303D01*
X144089409Y-71320741D01*
X144566448Y-71335825D01*
D12*
G36*
X164427739Y-90196486D02*
G01*
X164432496Y-90207358D01*
X164437103Y-90224987D01*
X164446608Y-90283958D01*
X164457739Y-90380283D01*
X164490821Y-90712543D01*
X164522385Y-91002795D01*
X164559397Y-91288212D01*
X164601840Y-91568702D01*
X164649697Y-91844173D01*
X164702951Y-92114534D01*
X164761585Y-92379693D01*
X164825580Y-92639560D01*
X164894920Y-92894043D01*
X164914929Y-92965037D01*
X164923308Y-92995547D01*
X164930395Y-93021947D01*
X164936035Y-93043645D01*
X164940070Y-93060052D01*
X164942344Y-93070578D01*
X164942773Y-93073452D01*
X164942702Y-93074634D01*
X164940238Y-93074584D01*
X164934592Y-93073032D01*
X164914972Y-93065947D01*
X164886272Y-93054423D01*
X164850925Y-93039505D01*
X164770009Y-93003662D01*
X164729303Y-92984827D01*
X164691673Y-92966774D01*
X164600758Y-92920065D01*
X164511270Y-92869892D01*
X164423344Y-92816377D01*
X164337113Y-92759641D01*
X164252713Y-92699806D01*
X164170279Y-92636996D01*
X164089944Y-92571331D01*
X164011844Y-92502935D01*
X163936113Y-92431928D01*
X163862886Y-92358434D01*
X163792298Y-92282574D01*
X163724483Y-92204471D01*
X163659576Y-92124246D01*
X163597712Y-92042023D01*
X163539025Y-91957922D01*
X163483649Y-91872066D01*
X163467782Y-91846236D01*
X163461521Y-91835561D01*
X163456359Y-91826078D01*
X163454187Y-91821711D01*
X163452285Y-91817557D01*
X163450652Y-91813587D01*
X163449286Y-91809771D01*
X163448187Y-91806083D01*
X163447351Y-91802493D01*
X163446779Y-91798973D01*
X163446469Y-91795495D01*
X163446418Y-91792030D01*
X163446626Y-91788549D01*
X163447091Y-91785024D01*
X163447811Y-91781427D01*
X163448786Y-91777730D01*
X163450013Y-91773903D01*
X163451491Y-91769918D01*
X163452894Y-91766531D01*
X163453219Y-91765747D01*
X163457418Y-91756733D01*
X163462598Y-91746633D01*
X163475852Y-91722263D01*
X163482848Y-91709305D01*
X163490335Y-91695025D01*
X163505857Y-91664372D01*
X163520557Y-91634060D01*
X163527018Y-91620205D01*
X163532577Y-91607845D01*
X163565002Y-91537481D01*
X163604008Y-91458825D01*
X163698505Y-91281905D01*
X163809565Y-91087629D01*
X163930683Y-90886541D01*
X164055355Y-90689184D01*
X164177076Y-90506103D01*
X164289343Y-90347840D01*
X164339898Y-90281311D01*
X164385650Y-90224941D01*
X164403498Y-90203349D01*
X164410711Y-90195802D01*
X164417032Y-90191569D01*
X164422646Y-90191510D01*
X164427739Y-90196486D01*
G37*
G36*
X181865768Y-72735946D02*
G01*
X181990211Y-72769132D01*
X182366538Y-72623399D01*
X182366538Y-85865379D01*
X181529914Y-85197498D01*
X181529914Y-72391636D01*
X181865768Y-72735946D01*
G37*
G36*
X168780555Y-91379230D02*
G01*
X168734182Y-91489869D01*
X168683157Y-91598952D01*
X168627702Y-91706208D01*
X168568038Y-91811367D01*
X168504386Y-91914159D01*
X168436969Y-92014314D01*
X168366009Y-92111562D01*
X168291727Y-92205632D01*
X168214345Y-92296255D01*
X168134085Y-92383160D01*
X168051168Y-92466077D01*
X167965817Y-92544736D01*
X167878252Y-92618867D01*
X167788697Y-92688200D01*
X167697372Y-92752464D01*
X167604499Y-92811390D01*
X167573318Y-92830116D01*
X167514404Y-92803615D01*
X167437499Y-92769806D01*
X167335349Y-92725761D01*
X167245658Y-92686155D01*
X167154015Y-92643240D01*
X167061026Y-92597391D01*
X166967298Y-92548982D01*
X166873434Y-92498386D01*
X166780041Y-92445978D01*
X166687724Y-92392131D01*
X166597088Y-92337218D01*
X166508739Y-92281615D01*
X166423282Y-92225694D01*
X166341323Y-92169830D01*
X166263467Y-92114396D01*
X166190319Y-92059766D01*
X166122485Y-92006315D01*
X166060570Y-91954415D01*
X166005180Y-91904441D01*
X165997031Y-91896721D01*
X165994340Y-91894134D01*
X165989693Y-91889665D01*
X165983149Y-91883248D01*
X165980168Y-91880273D01*
X165977380Y-91877448D01*
X165974781Y-91874773D01*
X165972370Y-91872242D01*
X165970143Y-91869854D01*
X165968100Y-91867606D01*
X165966237Y-91865494D01*
X165964553Y-91863516D01*
X165963045Y-91861669D01*
X165961711Y-91859950D01*
X165960549Y-91858356D01*
X165959557Y-91856884D01*
X165958733Y-91855531D01*
X165958073Y-91854295D01*
X165957577Y-91853172D01*
X165957390Y-91852652D01*
X165957242Y-91852159D01*
X165957134Y-91851693D01*
X165957066Y-91851254D01*
X165957036Y-91850841D01*
X165957046Y-91850453D01*
X165957094Y-91850091D01*
X165957180Y-91849755D01*
X165957304Y-91849442D01*
X165957467Y-91849154D01*
X165957666Y-91848891D01*
X165957903Y-91848650D01*
X165958177Y-91848433D01*
X165958487Y-91848239D01*
X165958834Y-91848067D01*
X165959217Y-91847918D01*
X165959635Y-91847790D01*
X165960090Y-91847684D01*
X165961104Y-91847534D01*
X165962257Y-91847465D01*
X166073882Y-91836816D01*
X166288494Y-91812641D01*
X166525567Y-91784304D01*
X166704574Y-91761169D01*
X166903767Y-91731135D01*
X167115401Y-91695754D01*
X167335984Y-91655726D01*
X167562026Y-91611753D01*
X167790035Y-91564535D01*
X168016520Y-91514773D01*
X168237988Y-91463169D01*
X168450950Y-91410423D01*
X168712714Y-91343734D01*
X168719312Y-91342230D01*
X168726564Y-91340787D01*
X168734232Y-91339440D01*
X168742080Y-91338223D01*
X168749869Y-91337171D01*
X168757361Y-91336319D01*
X168764320Y-91335700D01*
X168770507Y-91335350D01*
X168798278Y-91334362D01*
X168780555Y-91379230D01*
G37*
%LPC*%
D14*
%TO.C,REF\u002A\u002A*%
X146225000Y-74175000D03*
%TD*%
D15*
%TO.C,J1*%
X124195000Y-87260000D03*
D16*
X124195000Y-89800000D03*
X126735000Y-87260000D03*
X126735000Y-89800000D03*
X129275000Y-87260000D03*
X129275000Y-89800000D03*
%TD*%
D14*
%TO.C,REF\u002A\u002A*%
X136925000Y-88675000D03*
%TD*%
G36*
X188722313Y-71588762D02*
G01*
X188722313Y-91838494D01*
X188721731Y-91839079D01*
X187636461Y-91844190D01*
X187636003Y-91843935D01*
X187453642Y-91546896D01*
X187262126Y-91251558D01*
X187064222Y-90960136D01*
X186862826Y-90675056D01*
X186461233Y-90133759D01*
X186080547Y-89647125D01*
X185744003Y-89234666D01*
X185744003Y-89234665D01*
X185474872Y-88915930D01*
X185231549Y-88637377D01*
X185231421Y-88637037D01*
X185231421Y-71590595D01*
X185232006Y-71590009D01*
X188721727Y-71588176D01*
X188722313Y-71588762D01*
G37*
G36*
X131858443Y-67651666D02*
G01*
X131850996Y-67750094D01*
X131850991Y-67750132D01*
X131833455Y-67864799D01*
X131833448Y-67864834D01*
X131799339Y-68016349D01*
X131799330Y-68016386D01*
X131743137Y-68199562D01*
X131743123Y-68199601D01*
X131659330Y-68409241D01*
X131659312Y-68409281D01*
X131542408Y-68640192D01*
X131542385Y-68640232D01*
X131386857Y-68887213D01*
X131386836Y-68887243D01*
X131292861Y-69015145D01*
X131292846Y-69015164D01*
X131187149Y-69145134D01*
X131187133Y-69145152D01*
X131069024Y-69276543D01*
X131069007Y-69276561D01*
X130937796Y-69408723D01*
X130937778Y-69408740D01*
X130792777Y-69541026D01*
X130792758Y-69541042D01*
X130633277Y-69672801D01*
X130633258Y-69672816D01*
X130458607Y-69803399D01*
X130458588Y-69803413D01*
X130268080Y-69932171D01*
X130268061Y-69932184D01*
X130061006Y-70058468D01*
X130060986Y-70058479D01*
X129836686Y-70181645D01*
X129594452Y-70301043D01*
X129333604Y-70416018D01*
X129053454Y-70525921D01*
X128753313Y-70630103D01*
X128432491Y-70727915D01*
X128090296Y-70818709D01*
X127817347Y-70878911D01*
X127817323Y-70878916D01*
X127552194Y-70923593D01*
X127552169Y-70923597D01*
X127294907Y-70953644D01*
X127294882Y-70953646D01*
X127045544Y-70969955D01*
X127045518Y-70969956D01*
X126804159Y-70973420D01*
X126804133Y-70973420D01*
X126570810Y-70964931D01*
X126570785Y-70964929D01*
X126345553Y-70945381D01*
X126345529Y-70945378D01*
X126128444Y-70915662D01*
X126128420Y-70915658D01*
X125919540Y-70876668D01*
X125919517Y-70876663D01*
X125718896Y-70829291D01*
X125718874Y-70829285D01*
X125526557Y-70774421D01*
X125342603Y-70712956D01*
X125167077Y-70645786D01*
X125000037Y-70573805D01*
X124841536Y-70497905D01*
X124691632Y-70418978D01*
X124550380Y-70337920D01*
X124417836Y-70255620D01*
X124294057Y-70172972D01*
X124179090Y-70090866D01*
X123975868Y-69931879D01*
X123975847Y-69931862D01*
X123808576Y-69785771D01*
X123808558Y-69785755D01*
X123677670Y-69659687D01*
X123583619Y-69560791D01*
X123583603Y-69560773D01*
X123507484Y-69472689D01*
X123507780Y-69471651D01*
X125015615Y-68999570D01*
X126340913Y-68611763D01*
X126983479Y-68438841D01*
X127550563Y-68302360D01*
X128142821Y-68185103D01*
X128821825Y-68069423D01*
X129536503Y-67959651D01*
X130235777Y-67860118D01*
X131383805Y-67709111D01*
X131857758Y-67651013D01*
X131858443Y-67651666D01*
G37*
G36*
X184485794Y-71762134D02*
G01*
X184485794Y-87815752D01*
X184484576Y-87816269D01*
X183938896Y-87290171D01*
X183485745Y-86861897D01*
X183485745Y-86861896D01*
X183118703Y-86522600D01*
X183118703Y-86522601D01*
X182831766Y-86263842D01*
X182474408Y-85954358D01*
X182365732Y-85866013D01*
X182365538Y-85865605D01*
X182365538Y-72622169D01*
X182365879Y-72621662D01*
X184484911Y-71761539D01*
X184485794Y-71762134D01*
G37*
G36*
X177792808Y-68690921D02*
G01*
X177792808Y-83003566D01*
X177791931Y-83004161D01*
X177372261Y-82837584D01*
X176894670Y-82666437D01*
X176602401Y-82569615D01*
X176602401Y-82569616D01*
X176279612Y-82469380D01*
X175930183Y-82368804D01*
X175930183Y-82368803D01*
X175557990Y-82270959D01*
X175166915Y-82178917D01*
X175166915Y-82178918D01*
X174760749Y-82095733D01*
X174343413Y-82024483D01*
X173918793Y-81968242D01*
X173704927Y-81946703D01*
X173490705Y-81930068D01*
X173490705Y-81930069D01*
X173276557Y-81918716D01*
X173063001Y-81913033D01*
X172851396Y-81913656D01*
X172851397Y-81913657D01*
X172629168Y-81920227D01*
X172629167Y-81920226D01*
X172166422Y-81947919D01*
X171701489Y-81989552D01*
X171261099Y-82038564D01*
X170561051Y-82132459D01*
X170561052Y-82132460D01*
X170279692Y-82177188D01*
X170278990Y-82176589D01*
X170278990Y-68695070D01*
X170279575Y-68694484D01*
X177792222Y-68690335D01*
X177792808Y-68690921D01*
G37*
G36*
X181530772Y-72391087D02*
G01*
X181530914Y-72391444D01*
X181530914Y-85198112D01*
X181529820Y-85198667D01*
X181202088Y-84959510D01*
X180888466Y-84739076D01*
X180306152Y-84351622D01*
X180306152Y-84351621D01*
X179790754Y-84032746D01*
X179350446Y-83779123D01*
X178993605Y-83587552D01*
X178728462Y-83454745D01*
X178506136Y-83352283D01*
X178505820Y-83351790D01*
X178505820Y-69205048D01*
X178507079Y-69204546D01*
X181530772Y-72391087D01*
G37*
G36*
X196025496Y-71099052D02*
G01*
X196026000Y-71099620D01*
X196026000Y-92500378D01*
X196025500Y-92500945D01*
X189649677Y-93301048D01*
X189649000Y-93300451D01*
X189649000Y-91850254D01*
X189643921Y-91840899D01*
X189643860Y-91840659D01*
X189527350Y-71589163D01*
X189527351Y-71589126D01*
X189549000Y-71274960D01*
X189549000Y-70324550D01*
X189549672Y-70323954D01*
X196025496Y-71099052D01*
G37*
G36*
X169533370Y-69221647D02*
G01*
X169546720Y-75793257D01*
X169533370Y-82364538D01*
X169532954Y-82365077D01*
X169275175Y-82432756D01*
X169013320Y-82509801D01*
X169013321Y-82509802D01*
X168487789Y-82684691D01*
X167979322Y-82874551D01*
X167511198Y-83064108D01*
X167511199Y-83064109D01*
X167106597Y-83238127D01*
X166788826Y-83381319D01*
X166506215Y-83514421D01*
X166505286Y-83513832D01*
X166505286Y-72507602D01*
X166505421Y-72507253D01*
X168005242Y-70864378D01*
X169043794Y-69734993D01*
X169391403Y-69362797D01*
X169532133Y-69221139D01*
X169533370Y-69221647D01*
G37*
G36*
X165700178Y-72689468D02*
G01*
X165700760Y-72690053D01*
X165700760Y-80917453D01*
X165700177Y-80918038D01*
X146179254Y-80998979D01*
X146178675Y-80997969D01*
X146939760Y-79710376D01*
X147615586Y-78516173D01*
X148217782Y-77402440D01*
X148757613Y-76356875D01*
X149246384Y-75367108D01*
X149695391Y-74420788D01*
X150519410Y-72608801D01*
X150519908Y-72608482D01*
X165700178Y-72689468D01*
G37*
%LPD*%
M02*
