  0
SECTION
  2
HEADER
  9
$ANGBASE
  50
0.0
  9
$ANGDIR
  70
1
  9
$MEASUREMENT
  70
1
  9
$INSUNITS
  70
4
  0
ENDSEC
  0
SECTION
  2
TABLES
  0
TABLE
  2
LTYPE
  70
4
  0
LTYPE
  5
40F
  2
CONTINUOUS
  70
0
  3
Solid line
  72
65
  73
0
  40
0.0
  0
LTYPE
  5
410
  2
DASHDOT
 70
0
  3
Dash Dot ____ _ ____ _
 72
65
 73
4
 40
2.0
 49
1.25
 49
-0.25
 49
0.25
 49
-0.25
  0
LTYPE
  5
411
  2
DASHED
 70
0
  3
Dashed __ __ __ __ __
 72
65
 73
2
 40
0.75
 49
0.5
 49
-0.25
  0
LTYPE
  5
43B
  2
DOTTED
 70
0
  3
Dotted .  .  .  .
 72
65
 73
2
 40
0.2
 49
0.0
 49
-0.2
  0
ENDTAB
  0
TABLE
  2
STYLE
  70
4
  0
STYLE
  2
KICAD
  70
0
  40
0
  41
1
  42
1
  50
0
  71
0
  3
isocp.shx
  0
STYLE
  2
KICADB
  70
0
  40
0
  41
1
  42
1
  50
0
  71
0
  3
isocp.shx
  0
STYLE
  2
KICADI
  70
0
  40
0
  41
1
  42
1
  50
15
  71
0
  3
isocp.shx
  0
STYLE
  2
KICADBI
  70
0
  40
0
  41
1
  42
1
  50
15
  71
0
  3
isocp.shx
  0
ENDTAB
  0
TABLE
  2
LAYER
  70
1
  0
LAYER
  2
User.9
  70
0
  62
31
  420
15250087
  6
CONTINUOUS
  0
ENDTAB
  0
ENDSEC
  0
SECTION
  2
ENTITIES
0
LINE
8
User.9
6
CONTINUOUS
10
207.6140589999999975
20
-54.7457659999999962
11
208.058179999999993
21
-54.935615999999996
0
LINE
8
User.9
6
CONTINUOUS
10
208.058179999999993
20
-54.935615999999996
11
208.4991239999999948
21
-55.1327339999999992
0
LINE
8
User.9
6
CONTINUOUS
10
208.4991239999999948
20
-55.1327339999999992
11
208.9367709999999931
21
-55.3370649999999955
0
LINE
8
User.9
6
CONTINUOUS
10
208.9367709999999931
20
-55.3370649999999955
11
209.3710049999999967
21
-55.5485559999999978
0
LINE
8
User.9
6
CONTINUOUS
10
209.3710049999999967
20
-55.5485559999999978
11
209.8017069999999933
21
-55.7671479999999988
0
LINE
8
User.9
6
CONTINUOUS
10
209.8017069999999933
20
-55.7671479999999988
11
210.2287609999999916
21
-55.9927840000000003
0
LINE
8
User.9
6
CONTINUOUS
10
210.2287609999999916
20
-55.9927840000000003
11
210.6520529999999951
21
-56.225400999999998
0
LINE
8
User.9
6
CONTINUOUS
10
210.6520529999999951
20
-56.225400999999998
11
211.0714679999999817
21
-56.4649379999999965
0
LINE
8
User.9
6
CONTINUOUS
10
211.0714679999999817
20
-56.4649379999999965
11
211.4868929999999807
21
-56.7113299999999967
0
LINE
8
User.9
6
CONTINUOUS
10
211.4868929999999807
20
-56.7113299999999967
11
211.8982159999999908
21
-56.9645099999999971
0
LINE
8
User.9
6
CONTINUOUS
10
211.8982159999999908
20
-56.9645099999999971
11
212.3053259999999796
21
-57.2244099999999989
0
LINE
8
User.9
6
CONTINUOUS
10
212.3053259999999796
20
-57.2244099999999989
11
212.7081129999999973
21
-57.4909599999999941
0
LINE
8
User.9
6
CONTINUOUS
10
212.7081129999999973
20
-57.4909599999999941
11
213.1064700000000016
21
-57.7640889999999985
0
LINE
8
User.9
6
CONTINUOUS
10
213.1064700000000016
20
-57.7640889999999985
11
213.5002869999999859
21
-58.0437219999999954
0
LINE
8
User.9
6
CONTINUOUS
10
213.5002869999999859
20
-58.0437219999999954
11
213.8894599999999855
21
-58.329782999999999
0
LINE
8
User.9
6
CONTINUOUS
10
213.8894599999999855
20
-58.329782999999999
11
214.2738829999999837
21
-58.6221969999999999
0
LINE
8
User.9
6
CONTINUOUS
10
214.2738829999999837
20
-58.6221969999999999
11
214.6534519999999873
21
-58.9208839999999938
0
LINE
8
User.9
6
CONTINUOUS
10
214.6534519999999873
20
-58.9208839999999938
11
215.0280659999999955
21
-59.2257639999999981
0
LINE
8
User.9
6
CONTINUOUS
10
215.0280659999999955
20
-59.2257639999999981
11
215.3976219999999842
21
-59.5367539999999948
0
LINE
8
User.9
6
CONTINUOUS
10
215.3976219999999842
20
-59.5367539999999948
11
215.7620220000000018
21
-59.8537699999999973
0
LINE
8
User.9
6
CONTINUOUS
10
215.7620220000000018
20
-59.8537699999999973
11
216.1211679999999831
21
-60.1767269999999996
0
LINE
8
User.9
6
CONTINUOUS
10
216.1211679999999831
20
-60.1767269999999996
11
216.4749619999999766
21
-60.5055379999999943
0
LINE
8
User.9
6
CONTINUOUS
10
216.4749619999999766
20
-60.5055379999999943
11
216.8233079999999973
21
-60.8401149999999973
0
LINE
8
User.9
6
CONTINUOUS
10
216.8233079999999973
20
-60.8401149999999973
11
217.1661139999999932
21
-61.1803659999999994
0
LINE
8
User.9
6
CONTINUOUS
10
217.1661139999999932
20
-61.1803659999999994
11
217.5032860000000028
21
-61.5262010000000004
0
LINE
8
User.9
6
CONTINUOUS
10
217.5032860000000028
20
-61.5262010000000004
11
217.8347339999999974
21
-61.8775249999999986
0
LINE
8
User.9
6
CONTINUOUS
10
217.8347339999999974
20
-61.8775249999999986
11
218.1603690000000029
21
-62.2342449999999943
0
LINE
8
User.9
6
CONTINUOUS
10
218.1603690000000029
20
-62.2342449999999943
11
218.480101999999988
21
-62.5962639999999979
0
LINE
8
User.9
6
CONTINUOUS
10
218.480101999999988
20
-62.5962639999999979
11
218.7938469999999995
21
-62.963483999999994
0
LINE
8
User.9
6
CONTINUOUS
10
218.7938469999999995
20
-62.963483999999994
11
219.1015189999999961
21
-63.3358069999999955
0
LINE
8
User.9
6
CONTINUOUS
10
219.1015189999999961
20
-63.3358069999999955
11
219.4030369999999834
21
-63.7131319999999945
0
LINE
8
User.9
6
CONTINUOUS
10
219.4030369999999834
20
-63.7131319999999945
11
219.6983180000000004
21
-64.0953569999999928
0
LINE
8
User.9
6
CONTINUOUS
10
219.6983180000000004
20
-64.0953569999999928
11
219.9872819999999933
21
-64.4823789999999946
0
LINE
8
User.9
6
CONTINUOUS
10
219.9872819999999933
20
-64.4823789999999946
11
220.2698529999999835
21
-64.874094999999997
0
LINE
8
User.9
6
CONTINUOUS
10
220.2698529999999835
20
-64.874094999999997
11
220.5459529999999972
21
-65.2703970000000027
0
LINE
8
User.9
6
CONTINUOUS
10
220.5459529999999972
20
-65.2703970000000027
11
220.8155079999999941
21
-65.6711799999999926
0
LINE
8
User.9
6
CONTINUOUS
10
220.8155079999999941
20
-65.6711799999999926
11
221.0784459999999854
21
-66.0763340000000028
0
LINE
8
User.9
6
CONTINUOUS
10
221.0784459999999854
20
-66.0763340000000028
11
221.3346949999999822
21
-66.4857519999999909
0
LINE
8
User.9
6
CONTINUOUS
10
221.3346949999999822
20
-66.4857519999999909
11
221.5841869999999858
21
-66.8993229999999954
0
LINE
8
User.9
6
CONTINUOUS
10
221.5841869999999858
20
-66.8993229999999954
11
221.8268539999999973
21
-67.3169350000000009
0
LINE
8
User.9
6
CONTINUOUS
10
221.8268539999999973
20
-67.3169350000000009
11
222.0626309999999819
21
-67.738474999999994
0
LINE
8
User.9
6
CONTINUOUS
10
222.0626309999999819
20
-67.738474999999994
11
222.2914539999999874
21
-68.1638299999999902
0
LINE
8
User.9
6
CONTINUOUS
10
222.2914539999999874
20
-68.1638299999999902
11
222.5132619999999974
21
-68.5928849999999954
0
LINE
8
User.9
6
CONTINUOUS
10
222.5132619999999974
20
-68.5928849999999954
11
222.7279939999999954
21
-69.0255239999999901
0
LINE
8
User.9
6
CONTINUOUS
10
222.7279939999999954
20
-69.0255239999999901
11
222.935592999999983
21
-69.461630999999997
0
LINE
8
User.9
6
CONTINUOUS
10
222.935592999999983
20
-69.461630999999997
11
223.1360029999999881
21
-69.9010880000000014
0
LINE
8
User.9
6
CONTINUOUS
10
223.1360029999999881
20
-69.9010880000000014
11
223.3291699999999764
21
-70.3437770000000029
0
LINE
8
User.9
6
CONTINUOUS
10
223.3291699999999764
20
-70.3437770000000029
11
223.5150409999999965
21
-70.7895779999999917
0
LINE
8
User.9
6
CONTINUOUS
10
223.5150409999999965
20
-70.7895779999999917
11
223.6935670000000016
21
-71.2383710000000008
0
LINE
8
User.9
6
CONTINUOUS
10
223.6935670000000016
20
-71.2383710000000008
11
223.8646990000000017
21
-71.6900359999999921
0
LINE
8
User.9
6
CONTINUOUS
10
223.8646990000000017
20
-71.6900359999999921
11
224.0283919999999966
21
-72.1444489999999945
0
LINE
8
User.9
6
CONTINUOUS
10
224.0283919999999966
20
-72.1444489999999945
11
224.1846009999999865
21
-72.6014890000000008
0
LINE
8
User.9
6
CONTINUOUS
10
224.1846009999999865
20
-72.6014890000000008
11
224.3332829999999944
21
-73.0610329999999948
0
LINE
8
User.9
6
CONTINUOUS
10
224.3332829999999944
20
-73.0610329999999948
11
224.4744000000000028
21
-73.5229559999999935
0
LINE
8
User.9
6
CONTINUOUS
10
224.4744000000000028
20
-73.5229559999999935
11
224.6079119999999989
21
-73.9871339999999975
0
LINE
8
User.9
6
CONTINUOUS
10
224.6079119999999989
20
-73.9871339999999975
11
224.7337849999999833
21
-74.4534419999999955
0
LINE
8
User.9
6
CONTINUOUS
10
224.7337849999999833
20
-74.4534419999999955
11
224.8519829999999899
21
-74.9217529999999954
0
LINE
8
User.9
6
CONTINUOUS
10
224.8519829999999899
20
-74.9217529999999954
11
224.9624749999999835
21
-75.3919429999999977
0
LINE
8
User.9
6
CONTINUOUS
10
224.9624749999999835
20
-75.3919429999999977
11
225.0652309999999829
21
-75.8638839999999988
0
LINE
8
User.9
6
CONTINUOUS
10
225.0652309999999829
20
-75.8638839999999988
11
225.1602239999999995
21
-76.3374479999999949
0
LINE
8
User.9
6
CONTINUOUS
10
225.1602239999999995
20
-76.3374479999999949
11
225.2474279999999851
21
-76.812507999999994
0
LINE
8
User.9
6
CONTINUOUS
10
225.2474279999999851
20
-76.812507999999994
11
225.3268190000000004
21
-77.2889359999999925
0
LINE
8
User.9
6
CONTINUOUS
10
225.3268190000000004
20
-77.2889359999999925
11
225.3983769999999822
21
-77.766604000000001
0
LINE
8
User.9
6
CONTINUOUS
10
225.3983769999999822
20
-77.766604000000001
11
225.4620809999999835
21
-78.2453819999999922
0
LINE
8
User.9
6
CONTINUOUS
10
225.4620809999999835
20
-78.2453819999999922
11
225.5179139999999904
21
-78.7251419999999911
0
LINE
8
User.9
6
CONTINUOUS
10
225.5179139999999904
20
-78.7251419999999911
11
225.5658619999999814
21
-79.2057539999999989
0
LINE
8
User.9
6
CONTINUOUS
10
225.5658619999999814
20
-79.2057539999999989
11
225.6059109999999919
21
-79.6870880000000028
0
LINE
8
User.9
6
CONTINUOUS
10
225.6059109999999919
20
-79.6870880000000028
11
225.6380519999999876
21
-80.1690159999999992
0
LINE
8
User.9
6
CONTINUOUS
10
225.6380519999999876
20
-80.1690159999999992
11
225.6622739999999965
21
-80.6514059999999944
0
LINE
8
User.9
6
CONTINUOUS
10
225.6622739999999965
20
-80.6514059999999944
11
225.6785720000000026
21
-81.1341279999999898
0
LINE
8
User.9
6
CONTINUOUS
10
225.6785720000000026
20
-81.1341279999999898
11
225.6869409999999903
21
-81.6170529999999985
0
LINE
8
User.9
6
CONTINUOUS
10
225.6869409999999903
20
-81.6170529999999985
11
225.6873779999999954
21
-82.1000509999999935
0
LINE
8
User.9
6
CONTINUOUS
10
225.6873779999999954
20
-82.1000509999999935
11
225.6798849999999845
21
-82.5829909999999927
0
LINE
8
User.9
6
CONTINUOUS
10
225.6798849999999845
20
-82.5829909999999927
11
225.6644619999999861
21
-83.0657420000000002
0
LINE
8
User.9
6
CONTINUOUS
10
225.6644619999999861
20
-83.0657420000000002
11
225.6411139999999875
21
-83.5481750000000005
0
LINE
8
User.9
6
CONTINUOUS
10
225.6411139999999875
20
-83.5481750000000005
11
225.6098479999999995
21
-84.0301599999999951
0
LINE
8
User.9
6
CONTINUOUS
10
225.6098479999999995
20
-84.0301599999999951
11
225.5706709999999759
21
-84.511566000000002
0
LINE
8
User.9
6
CONTINUOUS
10
225.5706709999999759
20
-84.511566000000002
11
225.5235940000000028
21
-84.9922639999999916
0
LINE
8
User.9
6
CONTINUOUS
10
225.5235940000000028
20
-84.9922639999999916
11
225.4686309999999878
21
-85.4721239999999938
0
LINE
8
User.9
6
CONTINUOUS
10
225.4686309999999878
20
-85.4721239999999938
11
225.4057949999999835
21
-85.9510169999999931
0
LINE
8
User.9
6
CONTINUOUS
10
225.4057949999999835
20
-85.9510169999999931
11
225.3351040000000012
21
-86.4288140000000027
0
LINE
8
User.9
6
CONTINUOUS
10
225.3351040000000012
20
-86.4288140000000027
11
225.2565759999999955
21
-86.9053849999999954
0
LINE
8
User.9
6
CONTINUOUS
10
225.2565759999999955
20
-86.9053849999999954
11
225.1702329999999961
21
-87.3806029999999936
0
LINE
8
User.9
6
CONTINUOUS
10
225.1702329999999961
20
-87.3806029999999936
11
225.0760989999999993
21
-87.8543379999999985
0
LINE
8
User.9
6
CONTINUOUS
10
225.0760989999999993
20
-87.8543379999999985
11
224.9741980000000012
21
-88.3264640000000014
0
LINE
8
User.9
6
CONTINUOUS
10
224.9741980000000012
20
-88.3264640000000014
11
224.8645589999999856
21
-88.7968529999999987
0
LINE
8
User.9
6
CONTINUOUS
10
224.8645589999999856
20
-88.7968529999999987
11
224.7472099999999955
21
-89.2653789999999958
0
LINE
8
User.9
6
CONTINUOUS
10
224.7472099999999955
20
-89.2653789999999958
11
224.6221829999999784
21
-89.7319139999999891
0
LINE
8
User.9
6
CONTINUOUS
10
224.6221829999999784
20
-89.7319139999999891
11
224.4895119999999906
21
-90.1963329999999956
0
LINE
8
User.9
6
CONTINUOUS
10
224.4895119999999906
20
-90.1963329999999956
11
224.3492329999999981
21
-90.6585109999999901
0
LINE
8
User.9
6
CONTINUOUS
10
224.3492329999999981
20
-90.6585109999999901
11
224.2013839999999902
21
-91.1183240000000012
0
LINE
8
User.9
6
CONTINUOUS
10
224.2013839999999902
20
-91.1183240000000012
11
224.0460039999999822
21
-91.5756459999999919
0
LINE
8
User.9
6
CONTINUOUS
10
224.0460039999999822
20
-91.5756459999999919
11
223.8831349999999816
21
-92.0303559999999976
0
LINE
8
User.9
6
CONTINUOUS
10
223.8831349999999816
20
-92.0303559999999976
11
223.7128219999999885
21
-92.4823289999999929
0
LINE
8
User.9
6
CONTINUOUS
10
223.7128219999999885
20
-92.4823289999999929
11
223.5351100000000031
21
-92.9314449999999965
0
LINE
8
User.9
6
CONTINUOUS
10
223.5351100000000031
20
-92.9314449999999965
11
223.3500469999999893
21
-93.3775830000000013
0
LINE
8
User.9
6
CONTINUOUS
10
223.3500469999999893
20
-93.3775830000000013
11
223.1576829999999916
21
-93.8206210000000027
0
LINE
8
User.9
6
CONTINUOUS
10
223.1576829999999916
20
-93.8206210000000027
11
222.9580699999999922
21
-94.2604410000000001
0
LINE
8
User.9
6
CONTINUOUS
10
222.9580699999999922
20
-94.2604410000000001
11
222.751261999999997
21
-94.6969239999999957
0
LINE
8
User.9
6
CONTINUOUS
10
222.751261999999997
20
-94.6969239999999957
11
222.5373139999999808
21
-95.1299509999999913
0
LINE
8
User.9
6
CONTINUOUS
10
222.5373139999999808
20
-95.1299509999999913
11
222.3162849999999935
21
-95.5594079999999906
0
LINE
8
User.9
6
CONTINUOUS
10
222.3162849999999935
20
-95.5594079999999906
11
222.0882330000000024
21
-95.9851769999999931
0
LINE
8
User.9
6
CONTINUOUS
10
222.0882330000000024
20
-95.9851769999999931
11
221.8532209999999907
21
-96.4071440000000024
0
LINE
8
User.9
6
CONTINUOUS
10
221.8532209999999907
20
-96.4071440000000024
11
221.6113110000000006
21
-96.8251939999999962
0
LINE
8
User.9
6
CONTINUOUS
10
221.6113110000000006
20
-96.8251939999999962
11
221.3625689999999793
21
-97.2392169999999965
0
LINE
8
User.9
6
CONTINUOUS
10
221.3625689999999793
20
-97.2392169999999965
11
221.1070619999999849
21
-97.6490979999999951
0
LINE
8
User.9
6
CONTINUOUS
10
221.1070619999999849
20
-97.6490979999999951
11
220.8448589999999854
21
-98.0547289999999947
0
LINE
8
User.9
6
CONTINUOUS
10
220.8448589999999854
20
-98.0547289999999947
11
220.5760310000000004
21
-98.4559999999999889
0
LINE
8
User.9
6
CONTINUOUS
10
220.5760310000000004
20
-98.4559999999999889
11
220.3006499999999903
21
-98.852801999999997
0
LINE
8
User.9
6
CONTINUOUS
10
220.3006499999999903
20
-98.852801999999997
11
220.0187899999999956
21
-99.2450290000000024
0
LINE
8
User.9
6
CONTINUOUS
10
220.0187899999999956
20
-99.2450290000000024
11
219.730526999999995
21
-99.6325739999999911
0
LINE
8
User.9
6
CONTINUOUS
10
219.730526999999995
20
-99.6325739999999911
11
219.435939999999988
21
-100.0153339999999957
0
LINE
8
User.9
6
CONTINUOUS
10
219.435939999999988
20
-100.0153339999999957
11
219.1351069999999766
21
-100.3932049999999947
0
LINE
8
User.9
6
CONTINUOUS
10
219.1351069999999766
20
-100.3932049999999947
11
218.828109999999981
21
-100.7660849999999897
0
LINE
8
User.9
6
CONTINUOUS
10
218.828109999999981
20
-100.7660849999999897
11
218.5150309999999934
21
-101.1338729999999941
0
LINE
8
User.9
6
CONTINUOUS
10
218.5150309999999934
20
-101.1338729999999941
11
218.1959549999999979
21
-101.4964709999999997
0
LINE
8
User.9
6
CONTINUOUS
10
218.1959549999999979
20
-101.4964709999999997
11
217.870966999999979
21
-101.8537809999999979
0
LINE
8
User.9
6
CONTINUOUS
10
217.870966999999979
20
-101.8537809999999979
11
217.5401569999999936
21
-102.2057049999999947
0
LINE
8
User.9
6
CONTINUOUS
10
217.5401569999999936
20
-102.2057049999999947
11
217.2036119999999926
21
-102.552150999999995
0
LINE
8
User.9
6
CONTINUOUS
10
217.2036119999999926
20
-102.552150999999995
11
216.861423000000002
21
-102.8930229999999995
0
LINE
8
User.9
6
CONTINUOUS
10
216.861423000000002
20
-102.8930229999999995
11
216.5136839999999836
21
-103.2282299999999964
0
LINE
8
User.9
6
CONTINUOUS
10
216.5136839999999836
20
-103.2282299999999964
11
216.1604869999999892
21
-103.5576819999999998
0
LINE
8
User.9
6
CONTINUOUS
10
216.1604869999999892
20
-103.5576819999999998
11
215.8019269999999779
21
-103.8812899999999928
0
LINE
8
User.9
6
CONTINUOUS
10
215.8019269999999779
20
-103.8812899999999928
11
215.4381019999999864
21
-104.1989659999999986
0
LINE
8
User.9
6
CONTINUOUS
10
215.4381019999999864
20
-104.1989659999999986
11
215.0691099999999949
21
-104.5106249999999903
0
LINE
8
User.9
6
CONTINUOUS
10
215.0691099999999949
20
-104.5106249999999903
11
214.6950499999999806
21
-104.8161839999999927
0
LINE
8
User.9
6
CONTINUOUS
10
214.6950499999999806
20
-104.8161839999999927
11
214.3160220000000038
21
-105.1155579999999929
0
LINE
8
User.9
6
CONTINUOUS
10
214.3160220000000038
20
-105.1155579999999929
11
213.9321300000000008
21
-105.4086679999999916
0
LINE
8
User.9
6
CONTINUOUS
10
213.9321300000000008
20
-105.4086679999999916
11
213.5434769999999958
21
-105.6954349999999891
0
LINE
8
User.9
6
CONTINUOUS
10
213.5434769999999958
20
-105.6954349999999891
11
213.150166999999982
21
-105.9757809999999978
0
LINE
8
User.9
6
CONTINUOUS
10
213.150166999999982
20
-105.9757809999999978
11
212.7523060000000044
21
-106.2496309999999937
0
LINE
8
User.9
6
CONTINUOUS
10
212.7523060000000044
20
-106.2496309999999937
11
212.3500029999999867
21
-106.5169109999999932
0
LINE
8
User.9
6
CONTINUOUS
10
212.3500029999999867
20
-106.5169109999999932
11
211.9433640000000025
21
-106.7775489999999934
0
LINE
8
User.9
6
CONTINUOUS
10
211.9433640000000025
20
-106.7775489999999934
11
211.5325009999999963
21
-107.0314739999999887
0
LINE
8
User.9
6
CONTINUOUS
10
211.5325009999999963
20
-107.0314739999999887
11
211.1175229999999772
21
-107.278618999999992
0
LINE
8
User.9
6
CONTINUOUS
10
211.1175229999999772
20
-107.278618999999992
11
210.6985430000000008
21
-107.5189159999999902
0
LINE
8
User.9
6
CONTINUOUS
10
210.6985430000000008
20
-107.5189159999999902
11
210.2756739999999809
21
-107.7522999999999911
0
LINE
8
User.9
6
CONTINUOUS
10
210.2756739999999809
20
-107.7522999999999911
11
209.8490290000000016
21
-107.9787089999999949
0
LINE
8
User.9
6
CONTINUOUS
10
209.8490290000000016
20
-107.9787089999999949
11
209.4187239999999974
21
-108.1980819999999994
0
LINE
8
User.9
6
CONTINUOUS
10
209.4187239999999974
20
-108.1980819999999994
11
208.9848749999999882
21
-108.4103589999999997
0
LINE
8
User.9
6
CONTINUOUS
10
208.9848749999999882
20
-108.4103589999999997
11
208.5475979999999936
21
-108.615483999999995
0
LINE
8
User.9
6
CONTINUOUS
10
208.5475979999999936
20
-108.615483999999995
11
208.1070129999999949
21
-108.8134000000000015
0
LINE
8
User.9
6
CONTINUOUS
10
208.1070129999999949
20
-108.8134000000000015
11
207.6632359999999835
21
-109.0040549999999939
0
LINE
8
User.9
6
CONTINUOUS
10
207.6632359999999835
20
-109.0040549999999939
11
207.4399999999999977
21
-109.0961829999999964
0
LINE
8
User.9
6
CONTINUOUS
10
207.4399999999999977
20
-109.0961829999999964
11
196.0249999999999773
21
-92.5
0
LINE
8
User.9
6
CONTINUOUS
10
196.0249999999999773
20
-92.5
11
167.6299999999999955
21
-80.4200000000000017
0
LINE
8
User.9
6
CONTINUOUS
10
167.6299999999999955
20
-80.4200000000000017
11
165.4799999999999898
21
-82.5699999999999932
0
LINE
8
User.9
6
CONTINUOUS
10
165.4799999999999898
20
-82.5699999999999932
11
164.1699950000000001
21
-81.9101670000000013
0
LINE
8
User.9
6
CONTINUOUS
10
164.1699950000000001
20
-81.9101670000000013
11
146.5
21
-81.9200000000000017
0
LINE
8
User.9
6
CONTINUOUS
10
146.5
20
-81.9200000000000017
11
144.8199999999999932
21
-80.2399999999999949
0
LINE
8
User.9
6
CONTINUOUS
10
144.8199999999999932
20
-80.2399999999999949
11
131.4199999999999875
21
-71.5799999999999983
0
LINE
8
User.9
6
CONTINUOUS
10
131.4199999999999875
20
-71.5799999999999983
11
124.6899999999999977
21
-73.3400000000000034
0
LINE
8
User.9
6
CONTINUOUS
10
124.6899999999999977
20
-73.3400000000000034
11
122.3499999999999943
21
-69.4699999999999989
0
LINE
8
User.9
6
CONTINUOUS
10
122.3499999999999943
20
-69.4699999999999989
11
123.0901199999999989
21
-69.2187639999999931
0
LINE
8
User.9
6
CONTINUOUS
10
123.0901199999999989
20
-69.2187639999999931
11
124.8079579999999993
21
-68.6949129999999997
0
LINE
8
User.9
6
CONTINUOUS
10
124.8079579999999993
20
-68.6949129999999997
11
126.2010409999999894
21
-68.2836259999999982
0
LINE
8
User.9
6
CONTINUOUS
10
126.2010409999999894
20
-68.2836259999999982
11
126.8791930000000008
21
-68.0997869999999921
0
LINE
8
User.9
6
CONTINUOUS
10
126.8791930000000008
20
-68.0997869999999921
11
127.4805869999999999
21
-67.9541719999999998
0
LINE
8
User.9
6
CONTINUOUS
10
127.4805869999999999
20
-67.9541719999999998
11
128.1054279999999892
21
-67.8300979999999925
0
LINE
8
User.9
6
CONTINUOUS
10
128.1054279999999892
20
-67.8300979999999925
11
128.8228780000000029
21
-67.7080139999999915
0
LINE
8
User.9
6
CONTINUOUS
10
128.8228780000000029
20
-67.7080139999999915
11
129.5787139999999908
21
-67.5924059999999969
0
LINE
8
User.9
6
CONTINUOUS
10
129.5787139999999908
20
-67.5924059999999969
11
130.3187159999999949
21
-67.4877589999999969
0
LINE
8
User.9
6
CONTINUOUS
10
130.3187159999999949
20
-67.4877589999999969
11
131.5343230000000005
21
-67.3292900000000003
0
LINE
8
User.9
6
CONTINUOUS
10
131.5343230000000005
20
-67.3292900000000003
11
132.0359210000000019
21
-67.2684929999999923
0
LINE
8
User.9
6
CONTINUOUS
10
132.0359210000000019
20
-67.2684929999999923
11
132.6629130000000032
21
-67.1899999999999977
0
LINE
8
User.9
6
CONTINUOUS
10
132.6629130000000032
20
-67.1899999999999977
11
145.0361230000000035
21
-76.4587729999999937
0
LINE
8
User.9
6
CONTINUOUS
10
145.0361230000000035
20
-76.4587729999999937
11
145.1001059999999825
21
-76.4915319999999923
0
LINE
8
User.9
6
CONTINUOUS
10
145.1001059999999825
20
-76.4915319999999923
11
145.2311269999999865
21
-76.5506949999999904
0
LINE
8
User.9
6
CONTINUOUS
10
145.2311269999999865
20
-76.5506949999999904
11
145.3652459999999849
21
-76.6024539999999945
0
LINE
8
User.9
6
CONTINUOUS
10
145.3652459999999849
20
-76.6024539999999945
11
145.5020439999999837
21
-76.646647999999999
0
LINE
8
User.9
6
CONTINUOUS
10
145.5020439999999837
20
-76.646647999999999
11
145.6410950000000071
21
-76.6831399999999945
0
LINE
8
User.9
6
CONTINUOUS
10
145.6410950000000071
20
-76.6831399999999945
11
145.7819659999999828
21
-76.7118150000000014
0
LINE
8
User.9
6
CONTINUOUS
10
145.7819659999999828
20
-76.7118150000000014
11
145.9242169999999987
21
-76.7325850000000003
0
LINE
8
User.9
6
CONTINUOUS
10
145.9242169999999987
20
-76.7325850000000003
11
146.0674060000000054
21
-76.7453840000000014
0
LINE
8
User.9
6
CONTINUOUS
10
146.0674060000000054
20
-76.7453840000000014
11
146.2110859999999946
21
-76.7501729999999895
0
LINE
8
User.9
6
CONTINUOUS
10
146.2110859999999946
20
-76.7501729999999895
11
146.3548089999999888
21
-76.7469370000000026
0
LINE
8
User.9
6
CONTINUOUS
10
146.3548089999999888
20
-76.7469370000000026
11
146.4981279999999799
21
-76.7356860000000012
0
LINE
8
User.9
6
CONTINUOUS
10
146.4981279999999799
20
-76.7356860000000012
11
146.6405949999999905
21
-76.7164539999999988
0
LINE
8
User.9
6
CONTINUOUS
10
146.6405949999999905
20
-76.7164539999999988
11
146.7817679999999996
21
-76.6893029999999953
0
LINE
8
User.9
6
CONTINUOUS
10
146.7817679999999996
20
-76.6893029999999953
11
146.9212049999999863
21
-76.6543159999999943
0
LINE
8
User.9
6
CONTINUOUS
10
146.9212049999999863
20
-76.6543159999999943
11
147.0584729999999922
21
-76.6116030000000023
0
LINE
8
User.9
6
CONTINUOUS
10
147.0584729999999922
20
-76.6116030000000023
11
147.1931429999999921
21
-76.5612959999999987
0
LINE
8
User.9
6
CONTINUOUS
10
147.1931429999999921
20
-76.5612959999999987
11
147.3247959999999921
21
-76.5035529999999966
0
LINE
8
User.9
6
CONTINUOUS
10
147.3247959999999921
20
-76.5035529999999966
11
147.4530220000000043
21
-76.4385529999999989
0
LINE
8
User.9
6
CONTINUOUS
10
147.4530220000000043
20
-76.4385529999999989
11
147.5774209999999869
21
-76.3664989999999904
0
LINE
8
User.9
6
CONTINUOUS
10
147.5774209999999869
20
-76.3664989999999904
11
147.6976049999999816
21
-76.2876159999999999
0
LINE
8
User.9
6
CONTINUOUS
10
147.6976049999999816
20
-76.2876159999999999
11
147.8131999999999948
21
-76.202147999999994
0
LINE
8
User.9
6
CONTINUOUS
10
147.8131999999999948
20
-76.202147999999994
11
147.9238459999999975
21
-76.1103639999999899
0
LINE
8
User.9
6
CONTINUOUS
10
147.9238459999999975
20
-76.1103639999999899
11
148.0291969999999822
21
-76.0125479999999953
0
LINE
8
User.9
6
CONTINUOUS
10
148.0291969999999822
20
-76.0125479999999953
11
148.128926000000007
21
-75.9090059999999909
0
LINE
8
User.9
6
CONTINUOUS
10
148.128926000000007
20
-75.9090059999999909
11
148.2227210000000071
21
-75.800060000000002
0
LINE
8
User.9
6
CONTINUOUS
10
148.2227210000000071
20
-75.800060000000002
11
148.3102910000000065
21
-75.6860499999999945
0
LINE
8
User.9
6
CONTINUOUS
10
148.3102910000000065
20
-75.6860499999999945
11
148.3913629999999841
21
-75.5673299999999983
0
LINE
8
User.9
6
CONTINUOUS
10
148.3913629999999841
20
-75.5673299999999983
11
148.4656829999999843
21
-75.444271999999998
0
LINE
8
User.9
6
CONTINUOUS
10
148.4656829999999843
20
-75.444271999999998
11
148.5330199999999934
21
-75.3172579999999954
0
LINE
8
User.9
6
CONTINUOUS
10
148.5330199999999934
20
-75.3172579999999954
11
148.5931649999999991
21
-75.1866839999999996
0
LINE
8
User.9
6
CONTINUOUS
10
148.5931649999999991
20
-75.1866839999999996
11
148.6200000000000045
21
-75.1199999999999903
0
LINE
8
User.9
6
CONTINUOUS
10
148.6200000000000045
20
-75.1199999999999903
11
149.4300000000000068
21
-72.4099999999999966
0
LINE
8
User.9
6
CONTINUOUS
10
149.4300000000000068
20
-72.4099999999999966
11
172.2750000000000057
21
-72.4099999999999966
0
LINE
8
User.9
6
CONTINUOUS
10
172.2750000000000057
20
-72.4099999999999966
11
195.1200000000000045
21
-72.4099999999999966
0
LINE
8
User.9
6
CONTINUOUS
10
195.1200000000000045
20
-72.4099999999999966
11
207.3906570000000045
21
-54.6540399999999948
0
LINE
8
User.9
6
CONTINUOUS
10
207.3906570000000045
20
-54.6540399999999948
11
207.6140589999999975
21
-54.7457659999999962
  0
ENDSEC
  0
EOF
