<?xml version="1.0" standalone="no"?>
 <!DOCTYPE svg PUBLIC "-//W3C//DTD SVG 1.1//EN" 
 "http://www.w3.org/Graphics/SVG/1.1/DTD/svg11.dtd"> 
<svg
  xmlns:svg="http://www.w3.org/2000/svg"
  xmlns="http://www.w3.org/2000/svg"
  xmlns:xlink="http://www.w3.org/1999/xlink"
  xmlns:inkscape="http://www.inkscape.org/namespaces/inkscape"
  version="1.1"
  width="297.002200mm" height="210.007200mm" viewBox="0.000000 0.000000 297.002200 210.007200">
<title>SVG Image created as portal-gun-User_9.svg date 2026-04-17T14:54:05 </title>
  <desc>Image generated by PCBNEW </desc>
<g style="fill:#000000; fill-opacity:1.000000;stroke:#000000; stroke-opacity:1.000000;
stroke-linecap:round; stroke-linejoin:round;"
 transform="translate(0 0) scale(1 1)">
<path style="fill:#000000; fill-opacity:1.000000; stroke:none;fill-rule:evenodd;"
d="M 207.390657,54.654040
207.614060,54.745763
208.058181,54.935613
208.499125,55.132731
208.936773,55.337062
209.371006,55.548553
209.801708,55.767145
210.228763,55.992781
210.652054,56.225398
211.071469,56.464935
211.486894,56.711327
211.898217,56.964507
212.305328,57.224407
212.708115,57.490958
213.106471,57.764086
213.500289,58.043719
213.889462,58.329781
214.273885,58.622195
214.653454,58.920882
215.028068,59.225761
215.397624,59.536751
215.762025,59.853767
216.121170,60.176725
216.474964,60.505536
216.823311,60.840112
217.166116,61.180364
217.503289,61.526198
217.834737,61.877523
218.160371,62.234243
218.480104,62.596262
218.793849,62.963482
219.101522,63.335805
219.403040,63.713130
219.698321,64.095355
219.987285,64.482377
220.269856,64.874093
220.545956,65.270395
220.815511,65.671178
221.078449,66.076333
221.334698,66.485751
221.584190,66.899321
221.826857,67.316933
222.062634,67.738473
222.291458,68.163828
222.513265,68.592883
222.727997,69.025522
222.935597,69.461630
223.136007,69.901087
223.329173,70.343776
223.515045,70.789577
223.693570,71.238370
223.864703,71.690034
224.028395,72.144448
224.184604,72.601488
224.333287,73.061032
224.474403,73.522955
224.607916,73.987133
224.733788,74.453441
224.851986,74.921753
224.962478,75.391942
225.065235,75.863883
225.160228,76.337447
225.247432,76.812508
225.326823,77.288936
225.398380,77.766604
225.462084,78.245382
225.517918,78.725142
225.565865,79.205754
225.605915,79.687088
225.638055,80.169015
225.662277,80.651405
225.678575,81.134128
225.686944,81.617053
225.687382,82.100051
225.679888,82.582991
225.664466,83.065742
225.641118,83.548175
225.609851,84.030160
225.570674,84.511566
225.523598,84.992264
225.468634,85.472125
225.405798,85.951018
225.335107,86.428814
225.256579,86.905386
225.170237,87.380603
225.076102,87.854339
224.974202,88.326465
224.864562,88.796854
224.747213,89.265380
224.622186,89.731915
224.489515,90.196334
224.349236,90.658512
224.201387,91.118325
224.046007,91.575647
223.883138,92.030357
223.712825,92.482331
223.535113,92.931447
223.350050,93.377584
223.157686,93.820622
222.958073,94.260442
222.751265,94.696925
222.537317,95.129953
222.316288,95.559409
222.088236,95.985178
221.853224,96.407145
221.611314,96.825196
221.362572,97.239218
221.107065,97.649100
220.844862,98.054731
220.576034,98.456002
220.300653,98.852804
220.018793,99.245031
219.730530,99.632576
219.435943,100.015336
219.135110,100.393207
218.828112,100.766087
218.515033,101.133875
218.195957,101.496473
217.870970,101.853783
217.540159,102.205708
217.203614,102.552153
216.861426,102.893025
216.513686,103.228233
216.160489,103.557685
215.801930,103.881293
215.438105,104.198969
215.069112,104.510628
214.695052,104.816186
214.316025,105.115561
213.932132,105.408671
213.543479,105.695438
213.150169,105.975784
212.752308,106.249634
212.350004,106.516914
211.943366,106.777552
211.532503,107.031477
211.117525,107.278622
210.698545,107.518919
210.275675,107.752303
209.849031,107.978712
209.418726,108.198085
208.984876,108.410362
208.547600,108.615487
208.107014,108.813403
207.663238,109.004059
207.440000,109.096183
196.025000,92.500000
167.630000,80.420000
165.480000,82.570000
164.169995,81.910167
146.500000,81.920000
144.820000,80.240000
131.420000,71.580000
124.690000,73.340000
122.350000,69.470000
123.090120,69.218764
124.807958,68.694913
126.201041,68.283626
126.879193,68.099787
127.480587,67.954172
128.105428,67.830098
128.822878,67.708014
129.578714,67.592406
130.318716,67.487759
131.534323,67.329290
132.035921,67.268493
132.662913,67.190000
145.036123,76.458773
145.100106,76.491532
145.231127,76.550695
145.365246,76.602454
145.502044,76.646648
145.641095,76.683139
145.781966,76.711815
145.924217,76.732584
146.067406,76.745384
146.211086,76.750173
146.354809,76.746936
146.498128,76.735685
146.640595,76.716454
146.781768,76.689303
146.921205,76.654316
147.058472,76.611602
147.193143,76.561296
147.324796,76.503552
147.453022,76.438553
147.577420,76.366499
147.697605,76.287615
147.813200,76.202148
147.923845,76.110364
148.029197,76.012548
148.128925,75.909006
148.222721,75.800060
148.310291,75.686049
148.391362,75.567330
148.465682,75.444272
148.533020,75.317258
148.593164,75.186684
148.620000,75.120000
149.430000,72.410000
172.275000,72.410000
195.120000,72.410000
Z" /> 
<path style="fill:#000000; fill-opacity:1.000000; stroke:none;fill-rule:evenodd;"
d="M 195.130567,84.766302
195.060632,84.813871
194.916980,84.903187
194.769307,84.985688
194.617938,85.061193
194.463204,85.129536
194.305442,85.190568
194.144999,85.244155
193.982226,85.290180
193.817478,85.328542
193.651116,85.359158
193.483505,85.381960
193.315010,85.396899
193.146002,85.403941
192.976848,85.403072
192.807921,85.394293
192.639589,85.377624
192.472221,85.353101
192.306182,85.320777
192.141837,85.280723
191.979545,85.233028
191.819662,85.177795
191.662536,85.115145
191.508512,85.045216
191.357926,84.968160
191.211110,84.884146
191.068382,84.793357
190.930057,84.695994
190.796437,84.592268
190.667813,84.482406
190.544469,84.366649
190.426672,84.245251
190.314682,84.118477
190.208743,83.986603
190.109088,83.849920
190.015933,83.708726
189.929484,83.563330
189.849929,83.414050
189.777442,83.261213
189.712182,83.105153
189.654292,82.946212
189.603898,82.784737
189.561111,82.621083
189.526024,82.455606
189.498715,82.288670
189.479242,82.120639
189.467649,81.951881
189.463961,81.782766
189.468185,81.613664
189.480314,81.444944
189.500319,81.276975
189.528158,81.110127
189.563769,80.944762
189.607075,80.781244
189.657980,80.619930
189.716374,80.461174
189.782129,80.305321
189.855100,80.152715
189.935128,80.003688
190.022038,79.858567
190.115640,79.717669
190.215729,79.581302
190.322085,79.449766
190.434477,79.323347
190.552657,79.202323
190.676369,79.086958
190.805340,78.977505
190.939289,78.874203
191.077922,78.777278
191.220936,78.686943
191.368019,78.603395
191.518847,78.526817
191.673092,78.457376
191.830416,78.395225
191.990475,78.340499
192.152917,78.293319
192.317388,78.253787
192.483528,78.221990
192.650973,78.197997
192.819357,78.181862
192.988312,78.173619
193.157467,78.173286
193.326452,78.180864
193.494899,78.196337
193.662437,78.219671
193.828701,78.250814
193.993326,78.289699
194.155953,78.336240
194.316225,78.390336
194.473792,78.451867
194.628309,78.520701
194.779438,78.596685
194.926848,78.679654
195.070217,78.769426
195.140000,78.817216
195.140000,80.307912
Z" /> 
</g> 
</svg>
