<?xml version="1.0" standalone="no"?>
 <!DOCTYPE svg PUBLIC "-//W3C//DTD SVG 1.1//EN" 
 "http://www.w3.org/Graphics/SVG/1.1/DTD/svg11.dtd"> 
<svg
  xmlns:svg="http://www.w3.org/2000/svg"
  xmlns="http://www.w3.org/2000/svg"
  xmlns:xlink="http://www.w3.org/1999/xlink"
  xmlns:inkscape="http://www.inkscape.org/namespaces/inkscape"
  version="1.1"
  width="297.0022mm" height="210.0072mm" viewBox="0.0000 0.0000 297.0022 210.0072">
<title>SVG Image created as portal-gun-v2-User_9.svg date 2026-04-17T14:50:19 </title>
  <desc>Image generated by PCBNEW </desc>
<g style="fill:#000000; fill-opacity:1.0000;stroke:#000000; stroke-opacity:1.0000;
stroke-linecap:round; stroke-linejoin:round;"
 transform="translate(0 0) scale(1 1)">
<path style="fill:#000000; fill-opacity:1.0000; stroke:none;fill-rule:evenodd;"
d="M 195.1306,84.7663
195.0606,84.8139
194.9170,84.9032
194.7693,84.9857
194.6179,85.0612
194.4632,85.1295
194.3054,85.1906
194.1450,85.2442
193.9822,85.2902
193.8175,85.3285
193.6511,85.3592
193.4835,85.3820
193.3150,85.3969
193.1460,85.4039
192.9768,85.4031
192.8079,85.3943
192.6396,85.3776
192.4722,85.3531
192.3062,85.3208
192.1418,85.2807
191.9795,85.2330
191.8197,85.1778
191.6625,85.1151
191.5085,85.0452
191.3579,84.9682
191.2111,84.8841
191.0684,84.7934
190.9301,84.6960
190.7964,84.5923
190.6678,84.4824
190.5445,84.3666
190.4267,84.2453
190.3147,84.1185
190.2087,83.9866
190.1091,83.8499
190.0159,83.7087
189.9295,83.5633
189.8499,83.4141
189.7774,83.2612
189.7122,83.1052
189.6543,82.9462
189.6039,82.7847
189.5611,82.6211
189.5260,82.4556
189.4987,82.2887
189.4792,82.1206
189.4676,81.9519
189.4640,81.7828
189.4682,81.6137
189.4803,81.4449
189.5003,81.2770
189.5282,81.1101
189.5638,80.9448
189.6071,80.7812
189.6580,80.6199
189.7164,80.4612
189.7821,80.3053
189.8551,80.1527
189.9351,80.0037
190.0220,79.8586
190.1156,79.7177
190.2157,79.5813
190.3221,79.4498
190.4345,79.3233
190.5527,79.2023
190.6764,79.0870
190.8053,78.9775
190.9393,78.8742
191.0779,78.7773
191.2209,78.6869
191.3680,78.6034
191.5188,78.5268
191.6731,78.4574
191.8304,78.3952
191.9905,78.3405
192.1529,78.2933
192.3174,78.2538
192.4835,78.2220
192.6510,78.1980
192.8194,78.1819
192.9883,78.1736
193.1575,78.1733
193.3265,78.1809
193.4949,78.1963
193.6624,78.2197
193.8287,78.2508
193.9933,78.2897
194.1560,78.3362
194.3162,78.3903
194.4738,78.4519
194.6283,78.5207
194.7794,78.5967
194.9268,78.6797
195.0702,78.7694
195.1400,78.8172
195.1400,80.3079
Z" /> 
<path style="fill:#000000; fill-opacity:1.0000; stroke:none;fill-rule:evenodd;"
d="M 207.3907,54.6540
207.6141,54.7458
208.0582,54.9356
208.4991,55.1327
208.9368,55.3371
209.3710,55.5486
209.8017,55.7671
210.2288,55.9928
210.6521,56.2254
211.0715,56.4649
211.4869,56.7113
211.8982,56.9645
212.3053,57.2244
212.7081,57.4910
213.1065,57.7641
213.5003,58.0437
213.8895,58.3298
214.2739,58.6222
214.6535,58.9209
215.0281,59.2258
215.3976,59.5368
215.7620,59.8538
216.1212,60.1767
216.4750,60.5055
216.8233,60.8401
217.1661,61.1804
217.5033,61.5262
217.8347,61.8775
218.1604,62.2342
218.4801,62.5963
218.7938,62.9635
219.1015,63.3358
219.4030,63.7131
219.6983,64.0954
219.9873,64.4824
220.2699,64.8741
220.5460,65.2704
220.8155,65.6712
221.0784,66.0763
221.3347,66.4858
221.5842,66.8993
221.8269,67.3169
222.0626,67.7385
222.2915,68.1638
222.5133,68.5929
222.7280,69.0255
222.9356,69.4616
223.1360,69.9011
223.3292,70.3438
223.5150,70.7896
223.6936,71.2384
223.8647,71.6900
224.0284,72.1444
224.1846,72.6015
224.3333,73.0610
224.4744,73.5230
224.6079,73.9871
224.7338,74.4534
224.8520,74.9218
224.9625,75.3919
225.0652,75.8639
225.1602,76.3374
225.2474,76.8125
225.3268,77.2889
225.3984,77.7666
225.4621,78.2454
225.5179,78.7251
225.5659,79.2058
225.6059,79.6871
225.6381,80.1690
225.6623,80.6514
225.6786,81.1341
225.6869,81.6171
225.6874,82.1001
225.6799,82.5830
225.6645,83.0657
225.6411,83.5482
225.6098,84.0302
225.5707,84.5116
225.5236,84.9923
225.4686,85.4721
225.4058,85.9510
225.3351,86.4288
225.2566,86.9054
225.1702,87.3806
225.0761,87.8543
224.9742,88.3265
224.8646,88.7969
224.7472,89.2654
224.6222,89.7319
224.4895,90.1963
224.3492,90.6585
224.2014,91.1183
224.0460,91.5756
223.8831,92.0304
223.7128,92.4823
223.5351,92.9314
223.3500,93.3776
223.1577,93.8206
222.9581,94.2604
222.7513,94.6969
222.5373,95.1300
222.3163,95.5594
222.0882,95.9852
221.8532,96.4071
221.6113,96.8252
221.3626,97.2392
221.1071,97.6491
220.8449,98.0547
220.5760,98.4560
220.3006,98.8528
220.0188,99.2450
219.7305,99.6326
219.4359,100.0153
219.1351,100.3932
218.8281,100.7661
218.5150,101.1339
218.1960,101.4965
217.8710,101.8538
217.5402,102.2057
217.2036,102.5522
216.8614,102.8930
216.5137,103.2282
216.1605,103.5577
215.8019,103.8813
215.4381,104.1990
215.0691,104.5106
214.6950,104.8162
214.3160,105.1156
213.9321,105.4087
213.5435,105.6954
213.1502,105.9758
212.7523,106.2496
212.3500,106.5169
211.9434,106.7775
211.5325,107.0315
211.1175,107.2786
210.6985,107.5189
210.2757,107.7523
209.8490,107.9787
209.4187,108.1981
208.9849,108.4104
208.5476,108.6155
208.1070,108.8134
207.6632,109.0041
207.4400,109.0962
196.0250,92.5000
167.6300,80.4200
165.4800,82.5700
164.1700,81.9102
146.5000,81.9200
144.8200,80.2400
131.4200,71.5800
124.6900,73.3400
122.3500,69.4700
123.0901,69.2188
124.8080,68.6949
126.2010,68.2836
126.8792,68.0998
127.4806,67.9542
128.1054,67.8301
128.8229,67.7080
129.5787,67.5924
130.3187,67.4878
131.5343,67.3293
132.0359,67.2685
132.6629,67.1900
145.0361,76.4588
145.1001,76.4915
145.2311,76.5507
145.3652,76.6025
145.5020,76.6466
145.6411,76.6831
145.7820,76.7118
145.9242,76.7326
146.0674,76.7454
146.2111,76.7502
146.3548,76.7469
146.4981,76.7357
146.6406,76.7165
146.7818,76.6893
146.9212,76.6543
147.0585,76.6116
147.1931,76.5613
147.3248,76.5036
147.4530,76.4386
147.5774,76.3665
147.6976,76.2876
147.8132,76.2021
147.9238,76.1104
148.0292,76.0125
148.1289,75.9090
148.2227,75.8001
148.3103,75.6860
148.3914,75.5673
148.4657,75.4443
148.5330,75.3173
148.5932,75.1867
148.6200,75.1200
149.4300,72.4100
172.2750,72.4100
195.1200,72.4100
Z" /> 
</g> 
</svg>
